G04 #@! TF.GenerationSoftware,KiCad,Pcbnew,(6.0.7-1)-1*
G04 #@! TF.CreationDate,2022-09-17T19:41:31-07:00*
G04 #@! TF.ProjectId,3DProUsb,33445072-6f55-4736-922e-6b696361645f,rev?*
G04 #@! TF.SameCoordinates,Original*
G04 #@! TF.FileFunction,Copper,L2,Bot*
G04 #@! TF.FilePolarity,Positive*
%FSLAX46Y46*%
G04 Gerber Fmt 4.6, Leading zero omitted, Abs format (unit mm)*
G04 Created by KiCad (PCBNEW (6.0.7-1)-1) date 2022-09-17 19:41:31*
%MOMM*%
%LPD*%
G01*
G04 APERTURE LIST*
G04 #@! TA.AperFunction,ComponentPad*
%ADD10R,1.508000X1.508000*%
G04 #@! TD*
G04 #@! TA.AperFunction,ComponentPad*
%ADD11C,1.508000*%
G04 #@! TD*
G04 #@! TA.AperFunction,ComponentPad*
%ADD12C,4.066000*%
G04 #@! TD*
G04 #@! TA.AperFunction,ComponentPad*
%ADD13C,6.400000*%
G04 #@! TD*
G04 #@! TA.AperFunction,ComponentPad*
%ADD14O,2.100000X1.050000*%
G04 #@! TD*
G04 #@! TA.AperFunction,ComponentPad*
%ADD15O,2.000000X1.000000*%
G04 #@! TD*
G04 #@! TA.AperFunction,ViaPad*
%ADD16C,0.800000*%
G04 #@! TD*
G04 #@! TA.AperFunction,Conductor*
%ADD17C,0.250000*%
G04 #@! TD*
G04 APERTURE END LIST*
D10*
G04 #@! TO.P,J3,1,1*
G04 #@! TO.N,VCC*
X96370000Y-77173000D03*
D11*
G04 #@! TO.P,J3,2,2*
G04 #@! TO.N,PB0_PD0*
X96370000Y-79943000D03*
G04 #@! TO.P,J3,3,3*
G04 #@! TO.N,Net-(J3-Pad3)*
X96370000Y-82713000D03*
G04 #@! TO.P,J3,4,4*
G04 #@! TO.N,Earth*
X96370000Y-85483000D03*
G04 #@! TO.P,J3,5,5*
G04 #@! TO.N,unconnected-(J3-Pad5)*
X96370000Y-88253000D03*
G04 #@! TO.P,J3,6,6*
G04 #@! TO.N,unconnected-(J3-Pad6)*
X96370000Y-91023000D03*
G04 #@! TO.P,J3,7,7*
G04 #@! TO.N,SCLK*
X96370000Y-93793000D03*
G04 #@! TO.P,J3,8,8*
G04 #@! TO.N,unconnected-(J3-Pad8)*
X96370000Y-96563000D03*
G04 #@! TO.P,J3,9,9*
G04 #@! TO.N,unconnected-(J3-Pad9)*
X99210000Y-78558000D03*
G04 #@! TO.P,J3,10,10*
G04 #@! TO.N,MOSI*
X99210000Y-81328000D03*
G04 #@! TO.P,J3,11,11*
G04 #@! TO.N,Net-(J3-Pad11)*
X99210000Y-84098000D03*
G04 #@! TO.P,J3,12,12*
G04 #@! TO.N,Net-(J3-Pad12)*
X99210000Y-86868000D03*
G04 #@! TO.P,J3,13,13*
G04 #@! TO.N,Net-(J3-Pad11)*
X99210000Y-89638000D03*
G04 #@! TO.P,J3,14,14*
G04 #@! TO.N,MISO*
X99210000Y-92408000D03*
G04 #@! TO.P,J3,15,15*
G04 #@! TO.N,unconnected-(J3-Pad15)*
X99210000Y-95178000D03*
D12*
G04 #@! TO.P,J3,S1*
G04 #@! TO.N,N/C*
X97810000Y-103518000D03*
G04 #@! TO.P,J3,S2*
X97810000Y-70218000D03*
G04 #@! TD*
D13*
G04 #@! TO.P,REF\u002A\u002A,1*
G04 #@! TO.N,N/C*
X70104000Y-71628000D03*
G04 #@! TD*
G04 #@! TO.P,REF\u002A\u002A,1*
G04 #@! TO.N,N/C*
X70104000Y-102108000D03*
G04 #@! TD*
D14*
G04 #@! TO.P,J1,S1,SHELL_GND*
G04 #@! TO.N,Earth*
X72506000Y-81532000D03*
D15*
G04 #@! TO.P,J1,S2,SHELL_GND__1*
X68326000Y-81532000D03*
G04 #@! TO.P,J1,S3,SHELL_GND__2*
X68326000Y-90172000D03*
D14*
G04 #@! TO.P,J1,S4,SHELL_GND__3*
X72506000Y-90172000D03*
G04 #@! TD*
D16*
G04 #@! TO.N,Earth*
X82296000Y-86614000D03*
X90678000Y-87884000D03*
X91948000Y-68326000D03*
X85852000Y-73406000D03*
X79756000Y-91186000D03*
X88138000Y-73406000D03*
X75946000Y-91186000D03*
X93472000Y-75184000D03*
G04 #@! TO.N,VCC*
X78232000Y-79248000D03*
X82296000Y-84836000D03*
X89662000Y-81788000D03*
X74422000Y-82804000D03*
X77216000Y-88392000D03*
G04 #@! TO.N,Net-(D1-Pad2)*
X89662000Y-80518000D03*
X89408000Y-68580000D03*
G04 #@! TO.N,MISO*
X84582000Y-89154000D03*
X77216000Y-97536000D03*
X80010000Y-89154000D03*
G04 #@! TO.N,SCLK*
X78486000Y-97536000D03*
X78994000Y-80772000D03*
G04 #@! TO.N,RST*
X82296000Y-91186000D03*
X81280000Y-88138000D03*
G04 #@! TO.N,PB0_PD0*
X86106000Y-83820000D03*
X77978000Y-81280000D03*
G04 #@! TO.N,Net-(C11-Pad1)*
X79502000Y-74676000D03*
X79502000Y-78486000D03*
G04 #@! TD*
D17*
G04 #@! TO.N,Earth*
X91948000Y-68326000D02*
X93472000Y-69850000D01*
X93472000Y-69850000D02*
X93472000Y-75184000D01*
X79756000Y-91186000D02*
X75946000Y-91186000D01*
G04 #@! TO.N,VCC*
X76708000Y-79248000D02*
X74422000Y-81534000D01*
X97790000Y-78593000D02*
X96370000Y-77173000D01*
X97790000Y-80264000D02*
X97790000Y-78593000D01*
X74422000Y-87630000D02*
X75184000Y-88392000D01*
X78232000Y-79248000D02*
X76708000Y-79248000D01*
X96774000Y-81280000D02*
X97790000Y-80264000D01*
X75184000Y-88392000D02*
X77216000Y-88392000D01*
X74422000Y-82804000D02*
X74422000Y-87630000D01*
X96012000Y-81280000D02*
X96774000Y-81280000D01*
X82296000Y-84836000D02*
X92456000Y-84836000D01*
X74422000Y-81534000D02*
X74422000Y-82804000D01*
X89662000Y-81788000D02*
X94277000Y-77173000D01*
X94277000Y-77173000D02*
X96370000Y-77173000D01*
X92456000Y-84836000D02*
X96012000Y-81280000D01*
G04 #@! TO.N,Net-(D1-Pad2)*
X89662000Y-68834000D02*
X89408000Y-68580000D01*
X89662000Y-80518000D02*
X89662000Y-68834000D01*
G04 #@! TO.N,MISO*
X85852000Y-89154000D02*
X89154000Y-92456000D01*
X89202000Y-92408000D02*
X99210000Y-92408000D01*
X79756000Y-89408000D02*
X75946000Y-89408000D01*
X80010000Y-89154000D02*
X79756000Y-89408000D01*
X75946000Y-89408000D02*
X74676000Y-90678000D01*
X75692000Y-97536000D02*
X77216000Y-97536000D01*
X74676000Y-90678000D02*
X74676000Y-96520000D01*
X84582000Y-89154000D02*
X85852000Y-89154000D01*
X74676000Y-96520000D02*
X75692000Y-97536000D01*
X89154000Y-92456000D02*
X89202000Y-92408000D01*
G04 #@! TO.N,SCLK*
X83312000Y-94234000D02*
X83312000Y-93726000D01*
X83312000Y-95758000D02*
X83312000Y-94234000D01*
X78486000Y-97536000D02*
X81534000Y-97536000D01*
X78994000Y-84836000D02*
X78994000Y-80772000D01*
X83499000Y-93793000D02*
X83379000Y-93793000D01*
X83379000Y-93793000D02*
X83312000Y-93726000D01*
X83312000Y-93726000D02*
X83312000Y-93472000D01*
X83312000Y-89154000D02*
X78994000Y-84836000D01*
X83312000Y-93472000D02*
X83633000Y-93793000D01*
X96370000Y-93793000D02*
X83633000Y-93793000D01*
X81534000Y-97536000D02*
X83312000Y-95758000D01*
X83312000Y-94234000D02*
X83312000Y-94114000D01*
X83633000Y-93793000D02*
X83499000Y-93793000D01*
X83312000Y-93472000D02*
X83312000Y-89154000D01*
X83312000Y-94114000D02*
X83633000Y-93793000D01*
G04 #@! TO.N,RST*
X82296000Y-91186000D02*
X82296000Y-89154000D01*
X82296000Y-89154000D02*
X81280000Y-88138000D01*
G04 #@! TO.N,Net-(J3-Pad11)*
X99210000Y-84098000D02*
X98044000Y-85264000D01*
X98044000Y-88472000D02*
X99210000Y-89638000D01*
X98044000Y-85264000D02*
X98044000Y-88472000D01*
G04 #@! TO.N,PB0_PD0*
X77978000Y-81280000D02*
X77978000Y-80833405D01*
X82996595Y-83820000D02*
X86106000Y-83820000D01*
X92493000Y-83820000D02*
X96370000Y-79943000D01*
X79273595Y-80097000D02*
X82996595Y-83820000D01*
X77978000Y-80833405D02*
X78714405Y-80097000D01*
X86106000Y-83820000D02*
X92493000Y-83820000D01*
X78714405Y-80097000D02*
X79273595Y-80097000D01*
G04 #@! TO.N,Net-(C11-Pad1)*
X79502000Y-78486000D02*
X79502000Y-74676000D01*
G04 #@! TD*
G04 #@! TA.AperFunction,Conductor*
G04 #@! TO.N,Earth*
G36*
X88940416Y-67584502D02*
G01*
X88986909Y-67638158D01*
X88997013Y-67708432D01*
X88967519Y-67773012D01*
X88946356Y-67792436D01*
X88888195Y-67834693D01*
X88796747Y-67901134D01*
X88792326Y-67906044D01*
X88792325Y-67906045D01*
X88784637Y-67914584D01*
X88668960Y-68043056D01*
X88573473Y-68208444D01*
X88514458Y-68390072D01*
X88513768Y-68396633D01*
X88513768Y-68396635D01*
X88505234Y-68477836D01*
X88494496Y-68580000D01*
X88514458Y-68769928D01*
X88573473Y-68951556D01*
X88668960Y-69116944D01*
X88673378Y-69121851D01*
X88673379Y-69121852D01*
X88694839Y-69145686D01*
X88796747Y-69258866D01*
X88951248Y-69371118D01*
X88957278Y-69373803D01*
X88963001Y-69377107D01*
X88961845Y-69379109D01*
X89007856Y-69418229D01*
X89028500Y-69487339D01*
X89028500Y-79815476D01*
X89008498Y-79883597D01*
X88996142Y-79899779D01*
X88922960Y-79981056D01*
X88827473Y-80146444D01*
X88768458Y-80328072D01*
X88767768Y-80334633D01*
X88767768Y-80334635D01*
X88759130Y-80416824D01*
X88748496Y-80518000D01*
X88749186Y-80524565D01*
X88766097Y-80685460D01*
X88768458Y-80707928D01*
X88827473Y-80889556D01*
X88922960Y-81054944D01*
X88935338Y-81068691D01*
X88966054Y-81132697D01*
X88957290Y-81203150D01*
X88935339Y-81237307D01*
X88922960Y-81251056D01*
X88875375Y-81333475D01*
X88833856Y-81405389D01*
X88827473Y-81416444D01*
X88768458Y-81598072D01*
X88767768Y-81604633D01*
X88767768Y-81604635D01*
X88756726Y-81709698D01*
X88748496Y-81788000D01*
X88749186Y-81794565D01*
X88766863Y-81962749D01*
X88768458Y-81977928D01*
X88827473Y-82159556D01*
X88830776Y-82165278D01*
X88830777Y-82165279D01*
X88843392Y-82187128D01*
X88922960Y-82324944D01*
X88927378Y-82329851D01*
X88927379Y-82329852D01*
X89014600Y-82426721D01*
X89050747Y-82466866D01*
X89132396Y-82526188D01*
X89199202Y-82574725D01*
X89205248Y-82579118D01*
X89211276Y-82581802D01*
X89211278Y-82581803D01*
X89372255Y-82653474D01*
X89379712Y-82656794D01*
X89473112Y-82676647D01*
X89560056Y-82695128D01*
X89560061Y-82695128D01*
X89566513Y-82696500D01*
X89757487Y-82696500D01*
X89763939Y-82695128D01*
X89763944Y-82695128D01*
X89850888Y-82676647D01*
X89944288Y-82656794D01*
X89951745Y-82653474D01*
X90112722Y-82581803D01*
X90112724Y-82581802D01*
X90118752Y-82579118D01*
X90124799Y-82574725D01*
X90191604Y-82526188D01*
X90273253Y-82466866D01*
X90309400Y-82426721D01*
X90396621Y-82329852D01*
X90396622Y-82329851D01*
X90401040Y-82324944D01*
X90480608Y-82187128D01*
X90493223Y-82165279D01*
X90493224Y-82165278D01*
X90496527Y-82159556D01*
X90555542Y-81977928D01*
X90557138Y-81962749D01*
X90572907Y-81812707D01*
X90599920Y-81747050D01*
X90609122Y-81736782D01*
X94502499Y-77843405D01*
X94564811Y-77809379D01*
X94591594Y-77806500D01*
X94981500Y-77806500D01*
X95049621Y-77826502D01*
X95096114Y-77880158D01*
X95107500Y-77932500D01*
X95107500Y-77975134D01*
X95114255Y-78037316D01*
X95165385Y-78173705D01*
X95252739Y-78290261D01*
X95369295Y-78377615D01*
X95505684Y-78428745D01*
X95567866Y-78435500D01*
X96229353Y-78435500D01*
X96297474Y-78455502D01*
X96343967Y-78509158D01*
X96354071Y-78579432D01*
X96324577Y-78644012D01*
X96264851Y-78682396D01*
X96240334Y-78687021D01*
X96149932Y-78694930D01*
X96052851Y-78720943D01*
X95941860Y-78750683D01*
X95941858Y-78750684D01*
X95936550Y-78752106D01*
X95931569Y-78754428D01*
X95931568Y-78754429D01*
X95741320Y-78843143D01*
X95741317Y-78843145D01*
X95736339Y-78845466D01*
X95555380Y-78972174D01*
X95399174Y-79128380D01*
X95272466Y-79309339D01*
X95270145Y-79314317D01*
X95270143Y-79314320D01*
X95185517Y-79495801D01*
X95179106Y-79509550D01*
X95177684Y-79514858D01*
X95177683Y-79514860D01*
X95168968Y-79547386D01*
X95121930Y-79722932D01*
X95102677Y-79943000D01*
X95121930Y-80163068D01*
X95123353Y-80168377D01*
X95123354Y-80168385D01*
X95131017Y-80196982D01*
X95129329Y-80267959D01*
X95098406Y-80318690D01*
X93680313Y-81736782D01*
X92267500Y-83149595D01*
X92205188Y-83183621D01*
X92178405Y-83186500D01*
X86814200Y-83186500D01*
X86746079Y-83166498D01*
X86726853Y-83150157D01*
X86726580Y-83150460D01*
X86721668Y-83146037D01*
X86717253Y-83141134D01*
X86645819Y-83089234D01*
X86568094Y-83032763D01*
X86568093Y-83032762D01*
X86562752Y-83028882D01*
X86556724Y-83026198D01*
X86556722Y-83026197D01*
X86394319Y-82953891D01*
X86394318Y-82953891D01*
X86388288Y-82951206D01*
X86294888Y-82931353D01*
X86207944Y-82912872D01*
X86207939Y-82912872D01*
X86201487Y-82911500D01*
X86010513Y-82911500D01*
X86004061Y-82912872D01*
X86004056Y-82912872D01*
X85917112Y-82931353D01*
X85823712Y-82951206D01*
X85817682Y-82953891D01*
X85817681Y-82953891D01*
X85655278Y-83026197D01*
X85655276Y-83026198D01*
X85649248Y-83028882D01*
X85643907Y-83032762D01*
X85643906Y-83032763D01*
X85566181Y-83089234D01*
X85494747Y-83141134D01*
X85490332Y-83146037D01*
X85485420Y-83150460D01*
X85484295Y-83149211D01*
X85430986Y-83182051D01*
X85397800Y-83186500D01*
X83311189Y-83186500D01*
X83243068Y-83166498D01*
X83222094Y-83149595D01*
X79777247Y-79704747D01*
X79769707Y-79696461D01*
X79765595Y-79689982D01*
X79715943Y-79643356D01*
X79713102Y-79640602D01*
X79693365Y-79620865D01*
X79690168Y-79618385D01*
X79681145Y-79610679D01*
X79653679Y-79584886D01*
X79617714Y-79523673D01*
X79620553Y-79452733D01*
X79661294Y-79394589D01*
X79713736Y-79369790D01*
X79736087Y-79365040D01*
X79777830Y-79356167D01*
X79777833Y-79356166D01*
X79784288Y-79354794D01*
X79790319Y-79352109D01*
X79952722Y-79279803D01*
X79952724Y-79279802D01*
X79958752Y-79277118D01*
X80113253Y-79164866D01*
X80117675Y-79159955D01*
X80236621Y-79027852D01*
X80236622Y-79027851D01*
X80241040Y-79022944D01*
X80336527Y-78857556D01*
X80395542Y-78675928D01*
X80396584Y-78666019D01*
X80414814Y-78492565D01*
X80415504Y-78486000D01*
X80404280Y-78379206D01*
X80396232Y-78302635D01*
X80396232Y-78302633D01*
X80395542Y-78296072D01*
X80336527Y-78114444D01*
X80241040Y-77949056D01*
X80167863Y-77867785D01*
X80137147Y-77803779D01*
X80135500Y-77783476D01*
X80135500Y-75378524D01*
X80155502Y-75310403D01*
X80167858Y-75294221D01*
X80241040Y-75212944D01*
X80336527Y-75047556D01*
X80395542Y-74865928D01*
X80415504Y-74676000D01*
X80395542Y-74486072D01*
X80336527Y-74304444D01*
X80241040Y-74139056D01*
X80217468Y-74112876D01*
X80117675Y-74002045D01*
X80117674Y-74002044D01*
X80113253Y-73997134D01*
X79958752Y-73884882D01*
X79952724Y-73882198D01*
X79952722Y-73882197D01*
X79790319Y-73809891D01*
X79790318Y-73809891D01*
X79784288Y-73807206D01*
X79690887Y-73787353D01*
X79603944Y-73768872D01*
X79603939Y-73768872D01*
X79597487Y-73767500D01*
X79406513Y-73767500D01*
X79400061Y-73768872D01*
X79400056Y-73768872D01*
X79313113Y-73787353D01*
X79219712Y-73807206D01*
X79213682Y-73809891D01*
X79213681Y-73809891D01*
X79051278Y-73882197D01*
X79051276Y-73882198D01*
X79045248Y-73884882D01*
X78890747Y-73997134D01*
X78886326Y-74002044D01*
X78886325Y-74002045D01*
X78786533Y-74112876D01*
X78762960Y-74139056D01*
X78667473Y-74304444D01*
X78608458Y-74486072D01*
X78588496Y-74676000D01*
X78608458Y-74865928D01*
X78667473Y-75047556D01*
X78762960Y-75212944D01*
X78836137Y-75294215D01*
X78866853Y-75358221D01*
X78868500Y-75378524D01*
X78868500Y-77783476D01*
X78848498Y-77851597D01*
X78836142Y-77867779D01*
X78762960Y-77949056D01*
X78667473Y-78114444D01*
X78665431Y-78120729D01*
X78612166Y-78284660D01*
X78572092Y-78343266D01*
X78506696Y-78370903D01*
X78466136Y-78368971D01*
X78333944Y-78340872D01*
X78333939Y-78340872D01*
X78327487Y-78339500D01*
X78136513Y-78339500D01*
X78130061Y-78340872D01*
X78130056Y-78340872D01*
X78043112Y-78359353D01*
X77949712Y-78379206D01*
X77943682Y-78381891D01*
X77943681Y-78381891D01*
X77781278Y-78454197D01*
X77781276Y-78454198D01*
X77775248Y-78456882D01*
X77769907Y-78460762D01*
X77769906Y-78460763D01*
X77700743Y-78511013D01*
X77620747Y-78569134D01*
X77616332Y-78574037D01*
X77611420Y-78578460D01*
X77610295Y-78577211D01*
X77556986Y-78610051D01*
X77523800Y-78614500D01*
X76786767Y-78614500D01*
X76775584Y-78613973D01*
X76768091Y-78612298D01*
X76760165Y-78612547D01*
X76760164Y-78612547D01*
X76700014Y-78614438D01*
X76696055Y-78614500D01*
X76668144Y-78614500D01*
X76664210Y-78614997D01*
X76664209Y-78614997D01*
X76664144Y-78615005D01*
X76652307Y-78615938D01*
X76620490Y-78616938D01*
X76616029Y-78617078D01*
X76608110Y-78617327D01*
X76590454Y-78622456D01*
X76588658Y-78622978D01*
X76569306Y-78626986D01*
X76562235Y-78627880D01*
X76549203Y-78629526D01*
X76541834Y-78632443D01*
X76541832Y-78632444D01*
X76508097Y-78645800D01*
X76496869Y-78649645D01*
X76454407Y-78661982D01*
X76447585Y-78666016D01*
X76447579Y-78666019D01*
X76436968Y-78672294D01*
X76419218Y-78680990D01*
X76407756Y-78685528D01*
X76407751Y-78685531D01*
X76400383Y-78688448D01*
X76391461Y-78694930D01*
X76364625Y-78714427D01*
X76354707Y-78720943D01*
X76353233Y-78721815D01*
X76316637Y-78743458D01*
X76302313Y-78757782D01*
X76287281Y-78770621D01*
X76270893Y-78782528D01*
X76242712Y-78816593D01*
X76234722Y-78825373D01*
X74086615Y-80973480D01*
X74024303Y-81007506D01*
X73953488Y-81002441D01*
X73899324Y-80963337D01*
X73776485Y-80810557D01*
X73767897Y-80801787D01*
X73622162Y-80679501D01*
X73612031Y-80672563D01*
X73445308Y-80580906D01*
X73434038Y-80576076D01*
X73252685Y-80518548D01*
X73240691Y-80515998D01*
X73092650Y-80499393D01*
X73085626Y-80499000D01*
X72778115Y-80499000D01*
X72762876Y-80503475D01*
X72761671Y-80504865D01*
X72760000Y-80512548D01*
X72760000Y-81660000D01*
X72739998Y-81728121D01*
X72686342Y-81774614D01*
X72634000Y-81786000D01*
X70997014Y-81786000D01*
X70983483Y-81789973D01*
X70982363Y-81797768D01*
X71016846Y-81914932D01*
X71021439Y-81926300D01*
X71109586Y-82094911D01*
X71116302Y-82105173D01*
X71235515Y-82253443D01*
X71244099Y-82262209D01*
X71303170Y-82311776D01*
X71342496Y-82370886D01*
X71343622Y-82441874D01*
X71326390Y-82479120D01*
X71269558Y-82562745D01*
X71265723Y-82568388D01*
X71198470Y-82736534D01*
X71197356Y-82743262D01*
X71197355Y-82743266D01*
X71170007Y-82908461D01*
X71168892Y-82915198D01*
X71169249Y-82922015D01*
X71169249Y-82922019D01*
X71174151Y-83015539D01*
X71178370Y-83096047D01*
X71180181Y-83102620D01*
X71180181Y-83102623D01*
X71205296Y-83193803D01*
X71226461Y-83270641D01*
X71310922Y-83430836D01*
X71315327Y-83436049D01*
X71315330Y-83436053D01*
X71423406Y-83563943D01*
X71423410Y-83563947D01*
X71427813Y-83569157D01*
X71433237Y-83573304D01*
X71433238Y-83573305D01*
X71566257Y-83675006D01*
X71566261Y-83675009D01*
X71571678Y-83679150D01*
X71658372Y-83719576D01*
X71729631Y-83752805D01*
X71729634Y-83752806D01*
X71735808Y-83755685D01*
X71742456Y-83757171D01*
X71742459Y-83757172D01*
X71848421Y-83780857D01*
X71912543Y-83795190D01*
X71918088Y-83795500D01*
X72051244Y-83795500D01*
X72186037Y-83780857D01*
X72304190Y-83741094D01*
X72351204Y-83725272D01*
X72351206Y-83725271D01*
X72357675Y-83723094D01*
X72512905Y-83629823D01*
X72517862Y-83625135D01*
X72517865Y-83625133D01*
X72639527Y-83510082D01*
X72639529Y-83510080D01*
X72644485Y-83505393D01*
X72648317Y-83499755D01*
X72648320Y-83499751D01*
X72742442Y-83361255D01*
X72746277Y-83355612D01*
X72813530Y-83187466D01*
X72814644Y-83180738D01*
X72814645Y-83180734D01*
X72841993Y-83015539D01*
X72841993Y-83015536D01*
X72843108Y-83008802D01*
X72842672Y-83000466D01*
X72834184Y-82838521D01*
X72833630Y-82827953D01*
X72805123Y-82724459D01*
X72806317Y-82653474D01*
X72845699Y-82594402D01*
X72910767Y-82565999D01*
X72926599Y-82565000D01*
X73078890Y-82565000D01*
X73085035Y-82564700D01*
X73226481Y-82550830D01*
X73238518Y-82548447D01*
X73363532Y-82510703D01*
X73434527Y-82510162D01*
X73494543Y-82548090D01*
X73524527Y-82612444D01*
X73525260Y-82644495D01*
X73518636Y-82707525D01*
X73508496Y-82804000D01*
X73509186Y-82810565D01*
X73523824Y-82949834D01*
X73528458Y-82993928D01*
X73587473Y-83175556D01*
X73590776Y-83181278D01*
X73590777Y-83181279D01*
X73594349Y-83187466D01*
X73682960Y-83340944D01*
X73756137Y-83422215D01*
X73786853Y-83486221D01*
X73788500Y-83506524D01*
X73788500Y-87551233D01*
X73787973Y-87562416D01*
X73786298Y-87569909D01*
X73786547Y-87577835D01*
X73786547Y-87577836D01*
X73788438Y-87637986D01*
X73788500Y-87641945D01*
X73788500Y-87669856D01*
X73788997Y-87673790D01*
X73788997Y-87673791D01*
X73789005Y-87673856D01*
X73789938Y-87685693D01*
X73791327Y-87729889D01*
X73796978Y-87749339D01*
X73800987Y-87768700D01*
X73803526Y-87788797D01*
X73806445Y-87796168D01*
X73806445Y-87796170D01*
X73819804Y-87829912D01*
X73823649Y-87841142D01*
X73833771Y-87875983D01*
X73835982Y-87883593D01*
X73840015Y-87890412D01*
X73840017Y-87890417D01*
X73846293Y-87901028D01*
X73854988Y-87918776D01*
X73862448Y-87937617D01*
X73867110Y-87944033D01*
X73867110Y-87944034D01*
X73888436Y-87973387D01*
X73894952Y-87983307D01*
X73912339Y-88012706D01*
X73917458Y-88021362D01*
X73931779Y-88035683D01*
X73944619Y-88050716D01*
X73956528Y-88067107D01*
X73978416Y-88085214D01*
X73990593Y-88095288D01*
X73999374Y-88103278D01*
X74680353Y-88784258D01*
X74687887Y-88792537D01*
X74692000Y-88799018D01*
X74722748Y-88827892D01*
X74741651Y-88845643D01*
X74744493Y-88848398D01*
X74764230Y-88868135D01*
X74767427Y-88870615D01*
X74776447Y-88878318D01*
X74808679Y-88908586D01*
X74815625Y-88912405D01*
X74815628Y-88912407D01*
X74826434Y-88918348D01*
X74842953Y-88929199D01*
X74858959Y-88941614D01*
X74866228Y-88944759D01*
X74866232Y-88944762D01*
X74899537Y-88959174D01*
X74910187Y-88964391D01*
X74948940Y-88985695D01*
X74956615Y-88987666D01*
X74956616Y-88987666D01*
X74968562Y-88990733D01*
X74987266Y-88997137D01*
X74993499Y-88999834D01*
X75005855Y-89005181D01*
X75013678Y-89006420D01*
X75013688Y-89006423D01*
X75049524Y-89012099D01*
X75061144Y-89014505D01*
X75095109Y-89023225D01*
X75103970Y-89025500D01*
X75124224Y-89025500D01*
X75143947Y-89027053D01*
X75144987Y-89027218D01*
X75147557Y-89027625D01*
X75211707Y-89058044D01*
X75249227Y-89118316D01*
X75248206Y-89189306D01*
X75216928Y-89241167D01*
X74283747Y-90174348D01*
X74275461Y-90181888D01*
X74268982Y-90186000D01*
X74263557Y-90191777D01*
X74222357Y-90235651D01*
X74219602Y-90238493D01*
X74199865Y-90258230D01*
X74197385Y-90261427D01*
X74189682Y-90270447D01*
X74159414Y-90302679D01*
X74155595Y-90309625D01*
X74155593Y-90309628D01*
X74149652Y-90320434D01*
X74138801Y-90336953D01*
X74126386Y-90352959D01*
X74123238Y-90360234D01*
X74120929Y-90364138D01*
X74069037Y-90412591D01*
X74012475Y-90426000D01*
X72778115Y-90426000D01*
X72762876Y-90430475D01*
X72761671Y-90431865D01*
X72760000Y-90439548D01*
X72760000Y-91186885D01*
X72764475Y-91202124D01*
X72765865Y-91203329D01*
X72773548Y-91205000D01*
X73078890Y-91205000D01*
X73085035Y-91204700D01*
X73226481Y-91190830D01*
X73238519Y-91188447D01*
X73420651Y-91133458D01*
X73431993Y-91128783D01*
X73599977Y-91039465D01*
X73610193Y-91032678D01*
X73757634Y-90912428D01*
X73766338Y-90903784D01*
X73819415Y-90839624D01*
X73878248Y-90799886D01*
X73949227Y-90798263D01*
X74009814Y-90835272D01*
X74040775Y-90899162D01*
X74042500Y-90919939D01*
X74042500Y-96441233D01*
X74041973Y-96452416D01*
X74040298Y-96459909D01*
X74040547Y-96467835D01*
X74040547Y-96467836D01*
X74042438Y-96527986D01*
X74042500Y-96531945D01*
X74042500Y-96559856D01*
X74042997Y-96563790D01*
X74042997Y-96563791D01*
X74043005Y-96563856D01*
X74043938Y-96575693D01*
X74045327Y-96619889D01*
X74047937Y-96628872D01*
X74050978Y-96639339D01*
X74054987Y-96658700D01*
X74057526Y-96678797D01*
X74060445Y-96686168D01*
X74060445Y-96686170D01*
X74073804Y-96719912D01*
X74077649Y-96731142D01*
X74089982Y-96773593D01*
X74094015Y-96780412D01*
X74094017Y-96780417D01*
X74100293Y-96791028D01*
X74108988Y-96808776D01*
X74116448Y-96827617D01*
X74121110Y-96834033D01*
X74121110Y-96834034D01*
X74142436Y-96863387D01*
X74148952Y-96873307D01*
X74163586Y-96898051D01*
X74171458Y-96911362D01*
X74185779Y-96925683D01*
X74198619Y-96940716D01*
X74210528Y-96957107D01*
X74216632Y-96962157D01*
X74216637Y-96962162D01*
X74244598Y-96985293D01*
X74253379Y-96993283D01*
X75188353Y-97928258D01*
X75195887Y-97936537D01*
X75200000Y-97943018D01*
X75221095Y-97962827D01*
X75249651Y-97989643D01*
X75252493Y-97992398D01*
X75272230Y-98012135D01*
X75275427Y-98014615D01*
X75284447Y-98022318D01*
X75316679Y-98052586D01*
X75323625Y-98056405D01*
X75323628Y-98056407D01*
X75334434Y-98062348D01*
X75350953Y-98073199D01*
X75366959Y-98085614D01*
X75374228Y-98088759D01*
X75374232Y-98088762D01*
X75407537Y-98103174D01*
X75418187Y-98108391D01*
X75456940Y-98129695D01*
X75464615Y-98131666D01*
X75464616Y-98131666D01*
X75476562Y-98134733D01*
X75495267Y-98141137D01*
X75513855Y-98149181D01*
X75521678Y-98150420D01*
X75521688Y-98150423D01*
X75557524Y-98156099D01*
X75569144Y-98158505D01*
X75600959Y-98166673D01*
X75611970Y-98169500D01*
X75632224Y-98169500D01*
X75651934Y-98171051D01*
X75671943Y-98174220D01*
X75679835Y-98173474D01*
X75698580Y-98171702D01*
X75715962Y-98170059D01*
X75727819Y-98169500D01*
X76507800Y-98169500D01*
X76575921Y-98189502D01*
X76595147Y-98205843D01*
X76595420Y-98205540D01*
X76600332Y-98209963D01*
X76604747Y-98214866D01*
X76759248Y-98327118D01*
X76765276Y-98329802D01*
X76765278Y-98329803D01*
X76927681Y-98402109D01*
X76933712Y-98404794D01*
X77027112Y-98424647D01*
X77114056Y-98443128D01*
X77114061Y-98443128D01*
X77120513Y-98444500D01*
X77311487Y-98444500D01*
X77317939Y-98443128D01*
X77317944Y-98443128D01*
X77404888Y-98424647D01*
X77498288Y-98404794D01*
X77504319Y-98402109D01*
X77666722Y-98329803D01*
X77666724Y-98329802D01*
X77672752Y-98327118D01*
X77776940Y-98251421D01*
X77843806Y-98227563D01*
X77912958Y-98243643D01*
X77925056Y-98251418D01*
X78029248Y-98327118D01*
X78035276Y-98329802D01*
X78035278Y-98329803D01*
X78197681Y-98402109D01*
X78203712Y-98404794D01*
X78297112Y-98424647D01*
X78384056Y-98443128D01*
X78384061Y-98443128D01*
X78390513Y-98444500D01*
X78581487Y-98444500D01*
X78587939Y-98443128D01*
X78587944Y-98443128D01*
X78674888Y-98424647D01*
X78768288Y-98404794D01*
X78774319Y-98402109D01*
X78936722Y-98329803D01*
X78936724Y-98329802D01*
X78942752Y-98327118D01*
X79097253Y-98214866D01*
X79101668Y-98209963D01*
X79106580Y-98205540D01*
X79107705Y-98206789D01*
X79161014Y-98173949D01*
X79194200Y-98169500D01*
X81455233Y-98169500D01*
X81466416Y-98170027D01*
X81473909Y-98171702D01*
X81481835Y-98171453D01*
X81481836Y-98171453D01*
X81541986Y-98169562D01*
X81545945Y-98169500D01*
X81573856Y-98169500D01*
X81577791Y-98169003D01*
X81577856Y-98168995D01*
X81589693Y-98168062D01*
X81621951Y-98167048D01*
X81625970Y-98166922D01*
X81633889Y-98166673D01*
X81653343Y-98161021D01*
X81672700Y-98157013D01*
X81684930Y-98155468D01*
X81684931Y-98155468D01*
X81692797Y-98154474D01*
X81700168Y-98151555D01*
X81700170Y-98151555D01*
X81733912Y-98138196D01*
X81745142Y-98134351D01*
X81779983Y-98124229D01*
X81779984Y-98124229D01*
X81787593Y-98122018D01*
X81794412Y-98117985D01*
X81794417Y-98117983D01*
X81805028Y-98111707D01*
X81822776Y-98103012D01*
X81841617Y-98095552D01*
X81877387Y-98069564D01*
X81887307Y-98063048D01*
X81918535Y-98044580D01*
X81918538Y-98044578D01*
X81925362Y-98040542D01*
X81939683Y-98026221D01*
X81954717Y-98013380D01*
X81964694Y-98006131D01*
X81971107Y-98001472D01*
X81999298Y-97967395D01*
X82007288Y-97958616D01*
X83402904Y-96563000D01*
X95102677Y-96563000D01*
X95121930Y-96783068D01*
X95179106Y-96996450D01*
X95272466Y-97196661D01*
X95399174Y-97377620D01*
X95555380Y-97533826D01*
X95559888Y-97536983D01*
X95559891Y-97536985D01*
X95731829Y-97657377D01*
X95736338Y-97660534D01*
X95741320Y-97662857D01*
X95741325Y-97662860D01*
X95931568Y-97751571D01*
X95936550Y-97753894D01*
X95941858Y-97755316D01*
X95941860Y-97755317D01*
X96007252Y-97772839D01*
X96149932Y-97811070D01*
X96370000Y-97830323D01*
X96590068Y-97811070D01*
X96732748Y-97772839D01*
X96798140Y-97755317D01*
X96798142Y-97755316D01*
X96803450Y-97753894D01*
X96808432Y-97751571D01*
X96998675Y-97662860D01*
X96998680Y-97662857D01*
X97003662Y-97660534D01*
X97008171Y-97657377D01*
X97180109Y-97536985D01*
X97180112Y-97536983D01*
X97184620Y-97533826D01*
X97340826Y-97377620D01*
X97467534Y-97196661D01*
X97560894Y-96996450D01*
X97618070Y-96783068D01*
X97637323Y-96563000D01*
X97618070Y-96342932D01*
X97573505Y-96176614D01*
X97562317Y-96134860D01*
X97562316Y-96134858D01*
X97560894Y-96129550D01*
X97542127Y-96089304D01*
X97469857Y-95934320D01*
X97469855Y-95934317D01*
X97467534Y-95929339D01*
X97340826Y-95748380D01*
X97184620Y-95592174D01*
X97180112Y-95589017D01*
X97180109Y-95589015D01*
X97008171Y-95468623D01*
X97008168Y-95468621D01*
X97003662Y-95465466D01*
X96998680Y-95463143D01*
X96998675Y-95463140D01*
X96808432Y-95374429D01*
X96808431Y-95374429D01*
X96803450Y-95372106D01*
X96798142Y-95370684D01*
X96798140Y-95370683D01*
X96732748Y-95353161D01*
X96590068Y-95314930D01*
X96459659Y-95303521D01*
X96393540Y-95277658D01*
X96370149Y-95245355D01*
X96357031Y-95268498D01*
X96294187Y-95301530D01*
X96280342Y-95303521D01*
X96149932Y-95314930D01*
X96007252Y-95353161D01*
X95941860Y-95370683D01*
X95941858Y-95370684D01*
X95936550Y-95372106D01*
X95931569Y-95374428D01*
X95931568Y-95374429D01*
X95741320Y-95463143D01*
X95741317Y-95463145D01*
X95736339Y-95465466D01*
X95555380Y-95592174D01*
X95399174Y-95748380D01*
X95272466Y-95929339D01*
X95270145Y-95934317D01*
X95270143Y-95934320D01*
X95197873Y-96089304D01*
X95179106Y-96129550D01*
X95177684Y-96134858D01*
X95177683Y-96134860D01*
X95166495Y-96176614D01*
X95121930Y-96342932D01*
X95102677Y-96563000D01*
X83402904Y-96563000D01*
X83704247Y-96261657D01*
X83712537Y-96254113D01*
X83719018Y-96250000D01*
X83765659Y-96200332D01*
X83768413Y-96197491D01*
X83788135Y-96177769D01*
X83790619Y-96174567D01*
X83798317Y-96165555D01*
X83823161Y-96139098D01*
X83828586Y-96133321D01*
X83838347Y-96115566D01*
X83849198Y-96099047D01*
X83861614Y-96083041D01*
X83879174Y-96042463D01*
X83884391Y-96031813D01*
X83905695Y-95993060D01*
X83910733Y-95973437D01*
X83917137Y-95954734D01*
X83922033Y-95943420D01*
X83922033Y-95943419D01*
X83925181Y-95936145D01*
X83926420Y-95928322D01*
X83926423Y-95928312D01*
X83932099Y-95892476D01*
X83934505Y-95880856D01*
X83943528Y-95845711D01*
X83943528Y-95845710D01*
X83945500Y-95838030D01*
X83945500Y-95817776D01*
X83947051Y-95798065D01*
X83948980Y-95785886D01*
X83950220Y-95778057D01*
X83946059Y-95734038D01*
X83945500Y-95722181D01*
X83945500Y-95178000D01*
X97942677Y-95178000D01*
X97961930Y-95398068D01*
X97997952Y-95532501D01*
X98014985Y-95596069D01*
X98019106Y-95611450D01*
X98021428Y-95616431D01*
X98021429Y-95616432D01*
X98085062Y-95752892D01*
X98112466Y-95811661D01*
X98239174Y-95992620D01*
X98395380Y-96148826D01*
X98399888Y-96151983D01*
X98399891Y-96151985D01*
X98562722Y-96266000D01*
X98576338Y-96275534D01*
X98581320Y-96277857D01*
X98581325Y-96277860D01*
X98771568Y-96366571D01*
X98776550Y-96368894D01*
X98781858Y-96370316D01*
X98781860Y-96370317D01*
X98792467Y-96373159D01*
X98989932Y-96426070D01*
X99210000Y-96445323D01*
X99430068Y-96426070D01*
X99627533Y-96373159D01*
X99638140Y-96370317D01*
X99638142Y-96370316D01*
X99643450Y-96368894D01*
X99648432Y-96366571D01*
X99838675Y-96277860D01*
X99838680Y-96277857D01*
X99843662Y-96275534D01*
X99857278Y-96266000D01*
X100020109Y-96151985D01*
X100020112Y-96151983D01*
X100024620Y-96148826D01*
X100180826Y-95992620D01*
X100307534Y-95811661D01*
X100334939Y-95752892D01*
X100398571Y-95616432D01*
X100398572Y-95616431D01*
X100400894Y-95611450D01*
X100405016Y-95596069D01*
X100422048Y-95532501D01*
X100458070Y-95398068D01*
X100477323Y-95178000D01*
X100458070Y-94957932D01*
X100419839Y-94815252D01*
X100402317Y-94749860D01*
X100402316Y-94749858D01*
X100400894Y-94744550D01*
X100338859Y-94611515D01*
X100309857Y-94549320D01*
X100309855Y-94549317D01*
X100307534Y-94544339D01*
X100180826Y-94363380D01*
X100024620Y-94207174D01*
X100020112Y-94204017D01*
X100020109Y-94204015D01*
X99848171Y-94083623D01*
X99848168Y-94083621D01*
X99843662Y-94080466D01*
X99838680Y-94078143D01*
X99838675Y-94078140D01*
X99648432Y-93989429D01*
X99648431Y-93989429D01*
X99643450Y-93987106D01*
X99638142Y-93985684D01*
X99638140Y-93985683D01*
X99572748Y-93968161D01*
X99430068Y-93929930D01*
X99299659Y-93918521D01*
X99233540Y-93892658D01*
X99210149Y-93860355D01*
X99197031Y-93883498D01*
X99134187Y-93916530D01*
X99120342Y-93918521D01*
X98989932Y-93929930D01*
X98847252Y-93968161D01*
X98781860Y-93985683D01*
X98781858Y-93985684D01*
X98776550Y-93987106D01*
X98771569Y-93989428D01*
X98771568Y-93989429D01*
X98581320Y-94078143D01*
X98581317Y-94078145D01*
X98576339Y-94080466D01*
X98395380Y-94207174D01*
X98239174Y-94363380D01*
X98112466Y-94544339D01*
X98110145Y-94549317D01*
X98110143Y-94549320D01*
X98081141Y-94611515D01*
X98019106Y-94744550D01*
X98017684Y-94749858D01*
X98017683Y-94749860D01*
X98000161Y-94815252D01*
X97961930Y-94957932D01*
X97942677Y-95178000D01*
X83945500Y-95178000D01*
X83945500Y-94552500D01*
X83965502Y-94484379D01*
X84019158Y-94437886D01*
X84071500Y-94426500D01*
X95206762Y-94426500D01*
X95274883Y-94446502D01*
X95309976Y-94480230D01*
X95399174Y-94607620D01*
X95555380Y-94763826D01*
X95559888Y-94766983D01*
X95559891Y-94766985D01*
X95731829Y-94887377D01*
X95736338Y-94890534D01*
X95741320Y-94892857D01*
X95741325Y-94892860D01*
X95931568Y-94981571D01*
X95936550Y-94983894D01*
X95941858Y-94985316D01*
X95941860Y-94985317D01*
X96007252Y-95002839D01*
X96149932Y-95041070D01*
X96280341Y-95052479D01*
X96346460Y-95078342D01*
X96369851Y-95110645D01*
X96382969Y-95087502D01*
X96445813Y-95054470D01*
X96459659Y-95052479D01*
X96590068Y-95041070D01*
X96732748Y-95002839D01*
X96798140Y-94985317D01*
X96798142Y-94985316D01*
X96803450Y-94983894D01*
X96808432Y-94981571D01*
X96998675Y-94892860D01*
X96998680Y-94892857D01*
X97003662Y-94890534D01*
X97008171Y-94887377D01*
X97180109Y-94766985D01*
X97180112Y-94766983D01*
X97184620Y-94763826D01*
X97340826Y-94607620D01*
X97467534Y-94426661D01*
X97470028Y-94421314D01*
X97558571Y-94231432D01*
X97558572Y-94231431D01*
X97560894Y-94226450D01*
X97565016Y-94211069D01*
X97598531Y-94085989D01*
X97618070Y-94013068D01*
X97637323Y-93793000D01*
X97618070Y-93572932D01*
X97572284Y-93402058D01*
X97562317Y-93364860D01*
X97562316Y-93364858D01*
X97560894Y-93359550D01*
X97557871Y-93353066D01*
X97520097Y-93272061D01*
X97496170Y-93220749D01*
X97485509Y-93150559D01*
X97514489Y-93085746D01*
X97573908Y-93046889D01*
X97610365Y-93041500D01*
X98046762Y-93041500D01*
X98114883Y-93061502D01*
X98149976Y-93095230D01*
X98239174Y-93222620D01*
X98395380Y-93378826D01*
X98399888Y-93381983D01*
X98399891Y-93381985D01*
X98571829Y-93502377D01*
X98576338Y-93505534D01*
X98581320Y-93507857D01*
X98581325Y-93507860D01*
X98771568Y-93596571D01*
X98776550Y-93598894D01*
X98781858Y-93600316D01*
X98781860Y-93600317D01*
X98831511Y-93613621D01*
X98989932Y-93656070D01*
X99120341Y-93667479D01*
X99186460Y-93693342D01*
X99209851Y-93725645D01*
X99222969Y-93702502D01*
X99285813Y-93669470D01*
X99299659Y-93667479D01*
X99430068Y-93656070D01*
X99588489Y-93613621D01*
X99638140Y-93600317D01*
X99638142Y-93600316D01*
X99643450Y-93598894D01*
X99648432Y-93596571D01*
X99838675Y-93507860D01*
X99838680Y-93507857D01*
X99843662Y-93505534D01*
X99848171Y-93502377D01*
X100020109Y-93381985D01*
X100020112Y-93381983D01*
X100024620Y-93378826D01*
X100180826Y-93222620D01*
X100307534Y-93041661D01*
X100324344Y-93005613D01*
X100398571Y-92846432D01*
X100398572Y-92846431D01*
X100400894Y-92841450D01*
X100458070Y-92628068D01*
X100477323Y-92408000D01*
X100458070Y-92187932D01*
X100400894Y-91974550D01*
X100351558Y-91868749D01*
X100309857Y-91779320D01*
X100309855Y-91779317D01*
X100307534Y-91774339D01*
X100180826Y-91593380D01*
X100024620Y-91437174D01*
X100020112Y-91434017D01*
X100020109Y-91434015D01*
X99848171Y-91313623D01*
X99848168Y-91313621D01*
X99843662Y-91310466D01*
X99838680Y-91308143D01*
X99838675Y-91308140D01*
X99648432Y-91219429D01*
X99648431Y-91219429D01*
X99643450Y-91217106D01*
X99638142Y-91215684D01*
X99638140Y-91215683D01*
X99551862Y-91192565D01*
X99430068Y-91159930D01*
X99299659Y-91148521D01*
X99233540Y-91122658D01*
X99210149Y-91090355D01*
X99197031Y-91113498D01*
X99134187Y-91146530D01*
X99120342Y-91148521D01*
X98989932Y-91159930D01*
X98868138Y-91192565D01*
X98781860Y-91215683D01*
X98781858Y-91215684D01*
X98776550Y-91217106D01*
X98771569Y-91219428D01*
X98771568Y-91219429D01*
X98581320Y-91308143D01*
X98581317Y-91308145D01*
X98576339Y-91310466D01*
X98395380Y-91437174D01*
X98239174Y-91593380D01*
X98188717Y-91665441D01*
X98149975Y-91720770D01*
X98094518Y-91765099D01*
X98046762Y-91774500D01*
X97610365Y-91774500D01*
X97542244Y-91754498D01*
X97495751Y-91700842D01*
X97485647Y-91630568D01*
X97496170Y-91595250D01*
X97498859Y-91589485D01*
X97560894Y-91456450D01*
X97565016Y-91441069D01*
X97584229Y-91369365D01*
X97618070Y-91243068D01*
X97637323Y-91023000D01*
X97618070Y-90802932D01*
X97571235Y-90628142D01*
X97562317Y-90594860D01*
X97562316Y-90594858D01*
X97560894Y-90589550D01*
X97550746Y-90567787D01*
X97469857Y-90394320D01*
X97469855Y-90394317D01*
X97467534Y-90389339D01*
X97340826Y-90208380D01*
X97184620Y-90052174D01*
X97180112Y-90049017D01*
X97180109Y-90049015D01*
X97008171Y-89928623D01*
X97008168Y-89928621D01*
X97003662Y-89925466D01*
X96998680Y-89923143D01*
X96998675Y-89923140D01*
X96808432Y-89834429D01*
X96808431Y-89834429D01*
X96803450Y-89832106D01*
X96798142Y-89830684D01*
X96798140Y-89830683D01*
X96677953Y-89798479D01*
X96590068Y-89774930D01*
X96459659Y-89763521D01*
X96393540Y-89737658D01*
X96370149Y-89705355D01*
X96357031Y-89728498D01*
X96294187Y-89761530D01*
X96280342Y-89763521D01*
X96149932Y-89774930D01*
X96062047Y-89798479D01*
X95941860Y-89830683D01*
X95941858Y-89830684D01*
X95936550Y-89832106D01*
X95931569Y-89834428D01*
X95931568Y-89834429D01*
X95741320Y-89923143D01*
X95741317Y-89923145D01*
X95736339Y-89925466D01*
X95555380Y-90052174D01*
X95399174Y-90208380D01*
X95272466Y-90389339D01*
X95270145Y-90394317D01*
X95270143Y-90394320D01*
X95189254Y-90567787D01*
X95179106Y-90589550D01*
X95177684Y-90594858D01*
X95177683Y-90594860D01*
X95168765Y-90628142D01*
X95121930Y-90802932D01*
X95102677Y-91023000D01*
X95121930Y-91243068D01*
X95155771Y-91369365D01*
X95174985Y-91441069D01*
X95179106Y-91456450D01*
X95241142Y-91589485D01*
X95243830Y-91595250D01*
X95254491Y-91665441D01*
X95225511Y-91730254D01*
X95166092Y-91769111D01*
X95129635Y-91774500D01*
X89420595Y-91774500D01*
X89352474Y-91754498D01*
X89331500Y-91737595D01*
X86355652Y-88761747D01*
X86348112Y-88753461D01*
X86344000Y-88746982D01*
X86294348Y-88700356D01*
X86291507Y-88697602D01*
X86271770Y-88677865D01*
X86268573Y-88675385D01*
X86259551Y-88667680D01*
X86233100Y-88642841D01*
X86227321Y-88637414D01*
X86220375Y-88633595D01*
X86220372Y-88633593D01*
X86209566Y-88627652D01*
X86193047Y-88616801D01*
X86183714Y-88609562D01*
X86177041Y-88604386D01*
X86169772Y-88601241D01*
X86169768Y-88601238D01*
X86136463Y-88586826D01*
X86125813Y-88581609D01*
X86087060Y-88560305D01*
X86067437Y-88555267D01*
X86048734Y-88548863D01*
X86037420Y-88543967D01*
X86037419Y-88543967D01*
X86030145Y-88540819D01*
X86022322Y-88539580D01*
X86022312Y-88539577D01*
X85986476Y-88533901D01*
X85974856Y-88531495D01*
X85939711Y-88522472D01*
X85939710Y-88522472D01*
X85932030Y-88520500D01*
X85911776Y-88520500D01*
X85892065Y-88518949D01*
X85879886Y-88517020D01*
X85872057Y-88515780D01*
X85864165Y-88516526D01*
X85828039Y-88519941D01*
X85816181Y-88520500D01*
X85290200Y-88520500D01*
X85222079Y-88500498D01*
X85202853Y-88484157D01*
X85202580Y-88484460D01*
X85197668Y-88480037D01*
X85193253Y-88475134D01*
X85114403Y-88417846D01*
X85044094Y-88366763D01*
X85044093Y-88366762D01*
X85038752Y-88362882D01*
X85032724Y-88360198D01*
X85032722Y-88360197D01*
X84870319Y-88287891D01*
X84870318Y-88287891D01*
X84864288Y-88285206D01*
X84746372Y-88260142D01*
X84712773Y-88253000D01*
X95102677Y-88253000D01*
X95121930Y-88473068D01*
X95143295Y-88552801D01*
X95176806Y-88677865D01*
X95179106Y-88686450D01*
X95181428Y-88691431D01*
X95181429Y-88691432D01*
X95268577Y-88878320D01*
X95272466Y-88886661D01*
X95399174Y-89067620D01*
X95555380Y-89223826D01*
X95559888Y-89226983D01*
X95559891Y-89226985D01*
X95731829Y-89347377D01*
X95736338Y-89350534D01*
X95741320Y-89352857D01*
X95741325Y-89352860D01*
X95910123Y-89431571D01*
X95936550Y-89443894D01*
X95941858Y-89445316D01*
X95941860Y-89445317D01*
X95957087Y-89449397D01*
X96149932Y-89501070D01*
X96280341Y-89512479D01*
X96346460Y-89538342D01*
X96369851Y-89570645D01*
X96382969Y-89547502D01*
X96445813Y-89514470D01*
X96459659Y-89512479D01*
X96590068Y-89501070D01*
X96782913Y-89449397D01*
X96798140Y-89445317D01*
X96798142Y-89445316D01*
X96803450Y-89443894D01*
X96829877Y-89431571D01*
X96998675Y-89352860D01*
X96998680Y-89352857D01*
X97003662Y-89350534D01*
X97008171Y-89347377D01*
X97180109Y-89226985D01*
X97180112Y-89226983D01*
X97184620Y-89223826D01*
X97340826Y-89067620D01*
X97419974Y-88954584D01*
X97475431Y-88910255D01*
X97546050Y-88902946D01*
X97603497Y-88929765D01*
X97612599Y-88937294D01*
X97621384Y-88945288D01*
X97938406Y-89262310D01*
X97972432Y-89324622D01*
X97971017Y-89384018D01*
X97963354Y-89412615D01*
X97963353Y-89412623D01*
X97961930Y-89417932D01*
X97942677Y-89638000D01*
X97961930Y-89858068D01*
X98000161Y-90000748D01*
X98015712Y-90058782D01*
X98019106Y-90071450D01*
X98021428Y-90076431D01*
X98021429Y-90076432D01*
X98107661Y-90261356D01*
X98112466Y-90271661D01*
X98239174Y-90452620D01*
X98395380Y-90608826D01*
X98399888Y-90611983D01*
X98399891Y-90611985D01*
X98555801Y-90721154D01*
X98576338Y-90735534D01*
X98581320Y-90737857D01*
X98581325Y-90737860D01*
X98759040Y-90820729D01*
X98776550Y-90828894D01*
X98781858Y-90830316D01*
X98781860Y-90830317D01*
X98847252Y-90847839D01*
X98989932Y-90886070D01*
X99120341Y-90897479D01*
X99186460Y-90923342D01*
X99209851Y-90955645D01*
X99222969Y-90932502D01*
X99285813Y-90899470D01*
X99299659Y-90897479D01*
X99430068Y-90886070D01*
X99572748Y-90847839D01*
X99638140Y-90830317D01*
X99638142Y-90830316D01*
X99643450Y-90828894D01*
X99660960Y-90820729D01*
X99838675Y-90737860D01*
X99838680Y-90737857D01*
X99843662Y-90735534D01*
X99864199Y-90721154D01*
X100020109Y-90611985D01*
X100020112Y-90611983D01*
X100024620Y-90608826D01*
X100180826Y-90452620D01*
X100307534Y-90271661D01*
X100312340Y-90261356D01*
X100398571Y-90076432D01*
X100398572Y-90076431D01*
X100400894Y-90071450D01*
X100404289Y-90058782D01*
X100419839Y-90000748D01*
X100458070Y-89858068D01*
X100477323Y-89638000D01*
X100458070Y-89417932D01*
X100410706Y-89241167D01*
X100402317Y-89209860D01*
X100402316Y-89209858D01*
X100400894Y-89204550D01*
X100390901Y-89183120D01*
X100309857Y-89009320D01*
X100309855Y-89009317D01*
X100307534Y-89004339D01*
X100180826Y-88823380D01*
X100024620Y-88667174D01*
X100020112Y-88664017D01*
X100020109Y-88664015D01*
X99848171Y-88543623D01*
X99848169Y-88543622D01*
X99843662Y-88540466D01*
X99838680Y-88538143D01*
X99838675Y-88538140D01*
X99648432Y-88449429D01*
X99648431Y-88449429D01*
X99643450Y-88447106D01*
X99638142Y-88445684D01*
X99638140Y-88445683D01*
X99534251Y-88417846D01*
X99430068Y-88389930D01*
X99299659Y-88378521D01*
X99233540Y-88352658D01*
X99210149Y-88320355D01*
X99197031Y-88343498D01*
X99134187Y-88376530D01*
X99120342Y-88378521D01*
X98989932Y-88389930D01*
X98984621Y-88391353D01*
X98984616Y-88391354D01*
X98956016Y-88399017D01*
X98885040Y-88397327D01*
X98834311Y-88366406D01*
X98788259Y-88320355D01*
X98767892Y-88299988D01*
X98733868Y-88237677D01*
X98738932Y-88166861D01*
X98781478Y-88110025D01*
X98847998Y-88085214D01*
X98889599Y-88089186D01*
X98926510Y-88099076D01*
X98989932Y-88116070D01*
X99120341Y-88127479D01*
X99186460Y-88153342D01*
X99209851Y-88185645D01*
X99222969Y-88162502D01*
X99285813Y-88129470D01*
X99299659Y-88127479D01*
X99430068Y-88116070D01*
X99593941Y-88072160D01*
X99638140Y-88060317D01*
X99638142Y-88060316D01*
X99643450Y-88058894D01*
X99678185Y-88042697D01*
X99838675Y-87967860D01*
X99838680Y-87967857D01*
X99843662Y-87965534D01*
X99848171Y-87962377D01*
X100020109Y-87841985D01*
X100020112Y-87841983D01*
X100024620Y-87838826D01*
X100180826Y-87682620D01*
X100307534Y-87501661D01*
X100334939Y-87442892D01*
X100398571Y-87306432D01*
X100398572Y-87306431D01*
X100400894Y-87301450D01*
X100405016Y-87286069D01*
X100427042Y-87203864D01*
X100458070Y-87088068D01*
X100477323Y-86868000D01*
X100458070Y-86647932D01*
X100400894Y-86434550D01*
X100307534Y-86234339D01*
X100180826Y-86053380D01*
X100024620Y-85897174D01*
X100020112Y-85894017D01*
X100020109Y-85894015D01*
X99848171Y-85773623D01*
X99848169Y-85773622D01*
X99843662Y-85770466D01*
X99838680Y-85768143D01*
X99838675Y-85768140D01*
X99648432Y-85679429D01*
X99648431Y-85679429D01*
X99643450Y-85677106D01*
X99638142Y-85675684D01*
X99638140Y-85675683D01*
X99524096Y-85645125D01*
X99430068Y-85619930D01*
X99299659Y-85608521D01*
X99233540Y-85582658D01*
X99210149Y-85550355D01*
X99197031Y-85573498D01*
X99134187Y-85606530D01*
X99120342Y-85608521D01*
X98989932Y-85619930D01*
X98889597Y-85646815D01*
X98818621Y-85645125D01*
X98759825Y-85605331D01*
X98731877Y-85540067D01*
X98743650Y-85470053D01*
X98767891Y-85436013D01*
X98834310Y-85369594D01*
X98896622Y-85335568D01*
X98956018Y-85336983D01*
X98984615Y-85344646D01*
X98984623Y-85344647D01*
X98989932Y-85346070D01*
X99120341Y-85357479D01*
X99186460Y-85383342D01*
X99209851Y-85415645D01*
X99222969Y-85392502D01*
X99285813Y-85359470D01*
X99299659Y-85357479D01*
X99430068Y-85346070D01*
X99597158Y-85301298D01*
X99638140Y-85290317D01*
X99638142Y-85290316D01*
X99643450Y-85288894D01*
X99666474Y-85278158D01*
X99838675Y-85197860D01*
X99838680Y-85197857D01*
X99843662Y-85195534D01*
X99860177Y-85183970D01*
X100020109Y-85071985D01*
X100020112Y-85071983D01*
X100024620Y-85068826D01*
X100180826Y-84912620D01*
X100307534Y-84731661D01*
X100344385Y-84652635D01*
X100398571Y-84536432D01*
X100398572Y-84536431D01*
X100400894Y-84531450D01*
X100458070Y-84318068D01*
X100477323Y-84098000D01*
X100458070Y-83877932D01*
X100415638Y-83719576D01*
X100402317Y-83669860D01*
X100402316Y-83669858D01*
X100400894Y-83664550D01*
X100358346Y-83573305D01*
X100309857Y-83469320D01*
X100309855Y-83469317D01*
X100307534Y-83464339D01*
X100180826Y-83283380D01*
X100024620Y-83127174D01*
X100020112Y-83124017D01*
X100020109Y-83124015D01*
X99848171Y-83003623D01*
X99848168Y-83003621D01*
X99843662Y-83000466D01*
X99838680Y-82998143D01*
X99838675Y-82998140D01*
X99648432Y-82909429D01*
X99648431Y-82909429D01*
X99643450Y-82907106D01*
X99638142Y-82905684D01*
X99638140Y-82905683D01*
X99572748Y-82888161D01*
X99430068Y-82849930D01*
X99299659Y-82838521D01*
X99233540Y-82812658D01*
X99210149Y-82780355D01*
X99197031Y-82803498D01*
X99134187Y-82836530D01*
X99120342Y-82838521D01*
X98989932Y-82849930D01*
X98847252Y-82888161D01*
X98781860Y-82905683D01*
X98781858Y-82905684D01*
X98776550Y-82907106D01*
X98771569Y-82909428D01*
X98771568Y-82909429D01*
X98581320Y-82998143D01*
X98581317Y-82998145D01*
X98576339Y-83000466D01*
X98395380Y-83127174D01*
X98239174Y-83283380D01*
X98112466Y-83464339D01*
X98110145Y-83469317D01*
X98110143Y-83469320D01*
X98061654Y-83573305D01*
X98019106Y-83664550D01*
X98017684Y-83669858D01*
X98017683Y-83669860D01*
X98004362Y-83719576D01*
X97961930Y-83877932D01*
X97942677Y-84098000D01*
X97961930Y-84318068D01*
X97963353Y-84323379D01*
X97963354Y-84323384D01*
X97971017Y-84351984D01*
X97969327Y-84422960D01*
X97938405Y-84473689D01*
X97651742Y-84760352D01*
X97643462Y-84767887D01*
X97636982Y-84772000D01*
X97631554Y-84777780D01*
X97631553Y-84777781D01*
X97613172Y-84797355D01*
X97551959Y-84833321D01*
X97481019Y-84830482D01*
X97442651Y-84809524D01*
X97423986Y-84794604D01*
X97410537Y-84801673D01*
X96742022Y-85470188D01*
X96734408Y-85484132D01*
X96734539Y-85485965D01*
X96738790Y-85492580D01*
X97373595Y-86127385D01*
X97407621Y-86189697D01*
X97410500Y-86216480D01*
X97410500Y-87203864D01*
X97390498Y-87271985D01*
X97336842Y-87318478D01*
X97266568Y-87328582D01*
X97201988Y-87299088D01*
X97195405Y-87292959D01*
X97184620Y-87282174D01*
X97180112Y-87279017D01*
X97180109Y-87279015D01*
X97008171Y-87158623D01*
X97008168Y-87158621D01*
X97003662Y-87155466D01*
X96998680Y-87153143D01*
X96998675Y-87153140D01*
X96808432Y-87064429D01*
X96808431Y-87064429D01*
X96803450Y-87062106D01*
X96798142Y-87060684D01*
X96798140Y-87060683D01*
X96732748Y-87043161D01*
X96590068Y-87004930D01*
X96456790Y-86993270D01*
X96390671Y-86967407D01*
X96370498Y-86939549D01*
X96359900Y-86958247D01*
X96297055Y-86991279D01*
X96283211Y-86993270D01*
X96149932Y-87004930D01*
X96007252Y-87043161D01*
X95941860Y-87060683D01*
X95941858Y-87060684D01*
X95936550Y-87062106D01*
X95931569Y-87064428D01*
X95931568Y-87064429D01*
X95741320Y-87153143D01*
X95741317Y-87153145D01*
X95736339Y-87155466D01*
X95555380Y-87282174D01*
X95399174Y-87438380D01*
X95272466Y-87619339D01*
X95270145Y-87624317D01*
X95270143Y-87624320D01*
X95217368Y-87737497D01*
X95179106Y-87819550D01*
X95177684Y-87824858D01*
X95177683Y-87824860D01*
X95170907Y-87850148D01*
X95121930Y-88032932D01*
X95102677Y-88253000D01*
X84712773Y-88253000D01*
X84683944Y-88246872D01*
X84683939Y-88246872D01*
X84677487Y-88245500D01*
X84486513Y-88245500D01*
X84480061Y-88246872D01*
X84480056Y-88246872D01*
X84417628Y-88260142D01*
X84299712Y-88285206D01*
X84293682Y-88287891D01*
X84293681Y-88287891D01*
X84131278Y-88360197D01*
X84131276Y-88360198D01*
X84125248Y-88362882D01*
X84119907Y-88366762D01*
X84119906Y-88366763D01*
X84088679Y-88389451D01*
X83970747Y-88475134D01*
X83966326Y-88480044D01*
X83966325Y-88480045D01*
X83933470Y-88516534D01*
X83851157Y-88607953D01*
X83850312Y-88608891D01*
X83789866Y-88646131D01*
X83718883Y-88644779D01*
X83667581Y-88613676D01*
X81589939Y-86536034D01*
X95681521Y-86536034D01*
X95690817Y-86548049D01*
X95732081Y-86576942D01*
X95741576Y-86582425D01*
X95931740Y-86671099D01*
X95942032Y-86674845D01*
X96144704Y-86729151D01*
X96155499Y-86731054D01*
X96283211Y-86742228D01*
X96349329Y-86768092D01*
X96369501Y-86795950D01*
X96380100Y-86777251D01*
X96442944Y-86744219D01*
X96456789Y-86742228D01*
X96584501Y-86731054D01*
X96595296Y-86729151D01*
X96797968Y-86674845D01*
X96808260Y-86671099D01*
X96998424Y-86582425D01*
X97007919Y-86576942D01*
X97050021Y-86547462D01*
X97058396Y-86536985D01*
X97051328Y-86523538D01*
X96382812Y-85855022D01*
X96368868Y-85847408D01*
X96367035Y-85847539D01*
X96360420Y-85851790D01*
X95687951Y-86524259D01*
X95681521Y-86536034D01*
X81589939Y-86536034D01*
X79664405Y-84610500D01*
X79630379Y-84548188D01*
X79627500Y-84521405D01*
X79627500Y-81650999D01*
X79647502Y-81582878D01*
X79701158Y-81536385D01*
X79771432Y-81526281D01*
X79836012Y-81555775D01*
X79842594Y-81561903D01*
X80975818Y-82695128D01*
X82046117Y-83765427D01*
X82080143Y-83827739D01*
X82075078Y-83898555D01*
X82032531Y-83955390D01*
X82008270Y-83969629D01*
X81845281Y-84042195D01*
X81845274Y-84042199D01*
X81839248Y-84044882D01*
X81684747Y-84157134D01*
X81680326Y-84162044D01*
X81680325Y-84162045D01*
X81626539Y-84221781D01*
X81556960Y-84299056D01*
X81542916Y-84323381D01*
X81474581Y-84441741D01*
X81461473Y-84464444D01*
X81402458Y-84646072D01*
X81401768Y-84652633D01*
X81401768Y-84652635D01*
X81385279Y-84809524D01*
X81382496Y-84836000D01*
X81402458Y-85025928D01*
X81461473Y-85207556D01*
X81464776Y-85213278D01*
X81464777Y-85213279D01*
X81481176Y-85241683D01*
X81556960Y-85372944D01*
X81561378Y-85377851D01*
X81561379Y-85377852D01*
X81667591Y-85495812D01*
X81684747Y-85514866D01*
X81765447Y-85573498D01*
X81831315Y-85621354D01*
X81839248Y-85627118D01*
X81845276Y-85629802D01*
X81845278Y-85629803D01*
X82007681Y-85702109D01*
X82013712Y-85704794D01*
X82100747Y-85723294D01*
X82194056Y-85743128D01*
X82194061Y-85743128D01*
X82200513Y-85744500D01*
X82391487Y-85744500D01*
X82397939Y-85743128D01*
X82397944Y-85743128D01*
X82491253Y-85723294D01*
X82578288Y-85704794D01*
X82584319Y-85702109D01*
X82746722Y-85629803D01*
X82746724Y-85629802D01*
X82752752Y-85627118D01*
X82760686Y-85621354D01*
X82891372Y-85526404D01*
X82907253Y-85514866D01*
X82911668Y-85509963D01*
X82916580Y-85505540D01*
X82917705Y-85506789D01*
X82947434Y-85488475D01*
X95103658Y-85488475D01*
X95121946Y-85697501D01*
X95123849Y-85708296D01*
X95178155Y-85910968D01*
X95181901Y-85921260D01*
X95270577Y-86111425D01*
X95276055Y-86120915D01*
X95305539Y-86163022D01*
X95316015Y-86171396D01*
X95329463Y-86164327D01*
X95997978Y-85495812D01*
X96005592Y-85481868D01*
X96005461Y-85480035D01*
X96001210Y-85473420D01*
X95328741Y-84800951D01*
X95316967Y-84794521D01*
X95304951Y-84803817D01*
X95276055Y-84845085D01*
X95270577Y-84854575D01*
X95181901Y-85044740D01*
X95178155Y-85055032D01*
X95123849Y-85257704D01*
X95121946Y-85268499D01*
X95103658Y-85477525D01*
X95103658Y-85488475D01*
X82947434Y-85488475D01*
X82971014Y-85473949D01*
X83004200Y-85469500D01*
X92377233Y-85469500D01*
X92388416Y-85470027D01*
X92395909Y-85471702D01*
X92403835Y-85471453D01*
X92403836Y-85471453D01*
X92463986Y-85469562D01*
X92467945Y-85469500D01*
X92495856Y-85469500D01*
X92499791Y-85469003D01*
X92499856Y-85468995D01*
X92511693Y-85468062D01*
X92543951Y-85467048D01*
X92547970Y-85466922D01*
X92555889Y-85466673D01*
X92575343Y-85461021D01*
X92594700Y-85457013D01*
X92606930Y-85455468D01*
X92606931Y-85455468D01*
X92614797Y-85454474D01*
X92622168Y-85451555D01*
X92622170Y-85451555D01*
X92655912Y-85438196D01*
X92667142Y-85434351D01*
X92701983Y-85424229D01*
X92701984Y-85424229D01*
X92709593Y-85422018D01*
X92716412Y-85417985D01*
X92716417Y-85417983D01*
X92727028Y-85411707D01*
X92744776Y-85403012D01*
X92763617Y-85395552D01*
X92799387Y-85369564D01*
X92809307Y-85363048D01*
X92840535Y-85344580D01*
X92840538Y-85344578D01*
X92847362Y-85340542D01*
X92861683Y-85326221D01*
X92876717Y-85313380D01*
X92886694Y-85306131D01*
X92893107Y-85301472D01*
X92921298Y-85267395D01*
X92929288Y-85258616D01*
X93758889Y-84429015D01*
X95681604Y-84429015D01*
X95688673Y-84442463D01*
X96357188Y-85110978D01*
X96371132Y-85118592D01*
X96372965Y-85118461D01*
X96379580Y-85114210D01*
X97052049Y-84441741D01*
X97058479Y-84429966D01*
X97049183Y-84417951D01*
X97007919Y-84389058D01*
X96998424Y-84383575D01*
X96808260Y-84294901D01*
X96797968Y-84291155D01*
X96595296Y-84236849D01*
X96584501Y-84234946D01*
X96456789Y-84223772D01*
X96390671Y-84197908D01*
X96370499Y-84170050D01*
X96359900Y-84188749D01*
X96297056Y-84221781D01*
X96283211Y-84223772D01*
X96155499Y-84234946D01*
X96144704Y-84236849D01*
X95942032Y-84291155D01*
X95931740Y-84294901D01*
X95741575Y-84383577D01*
X95732085Y-84389055D01*
X95689978Y-84418539D01*
X95681604Y-84429015D01*
X93758889Y-84429015D01*
X95008089Y-83179815D01*
X95070401Y-83145789D01*
X95141216Y-83150854D01*
X95198052Y-83193401D01*
X95211379Y-83215660D01*
X95267134Y-83335226D01*
X95272466Y-83346661D01*
X95399174Y-83527620D01*
X95555380Y-83683826D01*
X95559888Y-83686983D01*
X95559891Y-83686985D01*
X95714867Y-83795500D01*
X95736338Y-83810534D01*
X95741320Y-83812857D01*
X95741325Y-83812860D01*
X95925100Y-83898555D01*
X95936550Y-83903894D01*
X95941858Y-83905316D01*
X95941860Y-83905317D01*
X96007252Y-83922839D01*
X96149932Y-83961070D01*
X96283210Y-83972730D01*
X96349329Y-83998593D01*
X96369502Y-84026451D01*
X96380100Y-84007753D01*
X96442945Y-83974721D01*
X96456790Y-83972730D01*
X96590068Y-83961070D01*
X96732748Y-83922839D01*
X96798140Y-83905317D01*
X96798142Y-83905316D01*
X96803450Y-83903894D01*
X96814900Y-83898555D01*
X96998675Y-83812860D01*
X96998680Y-83812857D01*
X97003662Y-83810534D01*
X97025133Y-83795500D01*
X97180109Y-83686985D01*
X97180112Y-83686983D01*
X97184620Y-83683826D01*
X97340826Y-83527620D01*
X97467534Y-83346661D01*
X97472867Y-83335226D01*
X97558571Y-83151432D01*
X97558572Y-83151431D01*
X97560894Y-83146450D01*
X97562319Y-83141134D01*
X97576225Y-83089234D01*
X97618070Y-82933068D01*
X97637323Y-82713000D01*
X97618070Y-82492932D01*
X97579839Y-82350252D01*
X97562317Y-82284860D01*
X97562316Y-82284858D01*
X97560894Y-82279550D01*
X97544713Y-82244850D01*
X97469857Y-82084320D01*
X97469855Y-82084317D01*
X97467534Y-82079339D01*
X97340826Y-81898380D01*
X97285271Y-81842825D01*
X97251245Y-81780513D01*
X97256310Y-81709698D01*
X97285271Y-81664635D01*
X97728644Y-81221262D01*
X97790956Y-81187236D01*
X97861771Y-81192301D01*
X97918607Y-81234848D01*
X97943418Y-81301368D01*
X97943259Y-81321341D01*
X97943156Y-81322518D01*
X97943156Y-81322525D01*
X97942677Y-81328000D01*
X97961930Y-81548068D01*
X97975329Y-81598072D01*
X98015248Y-81747050D01*
X98019106Y-81761450D01*
X98021428Y-81766431D01*
X98021429Y-81766432D01*
X98108873Y-81953955D01*
X98112466Y-81961661D01*
X98239174Y-82142620D01*
X98395380Y-82298826D01*
X98399888Y-82301983D01*
X98399891Y-82301985D01*
X98566445Y-82418607D01*
X98576338Y-82425534D01*
X98581320Y-82427857D01*
X98581325Y-82427860D01*
X98757824Y-82510162D01*
X98776550Y-82518894D01*
X98781858Y-82520316D01*
X98781860Y-82520317D01*
X98833430Y-82534135D01*
X98989932Y-82576070D01*
X99120341Y-82587479D01*
X99186460Y-82613342D01*
X99209851Y-82645645D01*
X99222969Y-82622502D01*
X99285813Y-82589470D01*
X99299659Y-82587479D01*
X99430068Y-82576070D01*
X99586570Y-82534135D01*
X99638140Y-82520317D01*
X99638142Y-82520316D01*
X99643450Y-82518894D01*
X99662176Y-82510162D01*
X99838675Y-82427860D01*
X99838680Y-82427857D01*
X99843662Y-82425534D01*
X99853555Y-82418607D01*
X100020109Y-82301985D01*
X100020112Y-82301983D01*
X100024620Y-82298826D01*
X100180826Y-82142620D01*
X100307534Y-81961661D01*
X100311128Y-81953955D01*
X100398571Y-81766432D01*
X100398572Y-81766431D01*
X100400894Y-81761450D01*
X100404753Y-81747050D01*
X100444671Y-81598072D01*
X100458070Y-81548068D01*
X100477323Y-81328000D01*
X100458070Y-81107932D01*
X100404617Y-80908444D01*
X100402317Y-80899860D01*
X100402316Y-80899858D01*
X100400894Y-80894550D01*
X100395635Y-80883271D01*
X100309857Y-80699320D01*
X100309855Y-80699317D01*
X100307534Y-80694339D01*
X100180826Y-80513380D01*
X100024620Y-80357174D01*
X100020112Y-80354017D01*
X100020109Y-80354015D01*
X99848171Y-80233623D01*
X99848169Y-80233622D01*
X99843662Y-80230466D01*
X99838680Y-80228143D01*
X99838675Y-80228140D01*
X99648432Y-80139429D01*
X99648431Y-80139429D01*
X99643450Y-80137106D01*
X99638142Y-80135684D01*
X99638140Y-80135683D01*
X99572748Y-80118161D01*
X99430068Y-80079930D01*
X99299659Y-80068521D01*
X99233540Y-80042658D01*
X99210149Y-80010355D01*
X99197031Y-80033498D01*
X99134187Y-80066530D01*
X99120342Y-80068521D01*
X98989932Y-80079930D01*
X98847252Y-80118161D01*
X98781860Y-80135683D01*
X98781858Y-80135684D01*
X98776550Y-80137106D01*
X98771569Y-80139428D01*
X98771568Y-80139429D01*
X98602750Y-80218150D01*
X98532558Y-80228811D01*
X98467745Y-80199831D01*
X98428889Y-80140411D01*
X98423500Y-80103955D01*
X98423500Y-79782045D01*
X98443502Y-79713924D01*
X98497158Y-79667431D01*
X98567432Y-79657327D01*
X98602750Y-79667850D01*
X98776550Y-79748894D01*
X98781858Y-79750316D01*
X98781860Y-79750317D01*
X98847252Y-79767839D01*
X98989932Y-79806070D01*
X99120341Y-79817479D01*
X99186460Y-79843342D01*
X99209851Y-79875645D01*
X99222969Y-79852502D01*
X99285813Y-79819470D01*
X99299659Y-79817479D01*
X99430068Y-79806070D01*
X99572748Y-79767839D01*
X99638140Y-79750317D01*
X99638142Y-79750316D01*
X99643450Y-79748894D01*
X99648432Y-79746571D01*
X99838675Y-79657860D01*
X99838680Y-79657857D01*
X99843662Y-79655534D01*
X99893175Y-79620865D01*
X100020109Y-79531985D01*
X100020112Y-79531983D01*
X100024620Y-79528826D01*
X100180826Y-79372620D01*
X100307534Y-79191661D01*
X100334939Y-79132892D01*
X100398571Y-78996432D01*
X100398572Y-78996431D01*
X100400894Y-78991450D01*
X100405016Y-78976069D01*
X100419839Y-78920748D01*
X100458070Y-78778068D01*
X100477323Y-78558000D01*
X100458070Y-78337932D01*
X100400894Y-78124550D01*
X100398571Y-78119568D01*
X100309857Y-77929320D01*
X100309855Y-77929317D01*
X100307534Y-77924339D01*
X100180826Y-77743380D01*
X100024620Y-77587174D01*
X100020112Y-77584017D01*
X100020109Y-77584015D01*
X99848171Y-77463623D01*
X99848168Y-77463621D01*
X99843662Y-77460466D01*
X99838680Y-77458143D01*
X99838675Y-77458140D01*
X99648432Y-77369429D01*
X99648431Y-77369429D01*
X99643450Y-77367106D01*
X99638142Y-77365684D01*
X99638140Y-77365683D01*
X99572748Y-77348161D01*
X99430068Y-77309930D01*
X99210000Y-77290677D01*
X98989932Y-77309930D01*
X98847252Y-77348161D01*
X98781860Y-77365683D01*
X98781858Y-77365684D01*
X98776550Y-77367106D01*
X98771569Y-77369428D01*
X98771568Y-77369429D01*
X98581320Y-77458143D01*
X98581317Y-77458145D01*
X98576339Y-77460466D01*
X98395380Y-77587174D01*
X98239174Y-77743380D01*
X98159376Y-77857344D01*
X98103923Y-77901670D01*
X98033304Y-77908979D01*
X97967071Y-77874166D01*
X97669405Y-77576500D01*
X97635379Y-77514188D01*
X97632500Y-77487405D01*
X97632500Y-76370866D01*
X97625745Y-76308684D01*
X97574615Y-76172295D01*
X97487261Y-76055739D01*
X97370705Y-75968385D01*
X97234316Y-75917255D01*
X97172134Y-75910500D01*
X95567866Y-75910500D01*
X95505684Y-75917255D01*
X95369295Y-75968385D01*
X95252739Y-76055739D01*
X95165385Y-76172295D01*
X95114255Y-76308684D01*
X95107500Y-76370866D01*
X95107500Y-76413500D01*
X95087498Y-76481621D01*
X95033842Y-76528114D01*
X94981500Y-76539500D01*
X94355768Y-76539500D01*
X94344585Y-76538973D01*
X94337092Y-76537298D01*
X94329166Y-76537547D01*
X94329165Y-76537547D01*
X94269002Y-76539438D01*
X94265044Y-76539500D01*
X94237144Y-76539500D01*
X94233154Y-76540004D01*
X94221320Y-76540936D01*
X94177111Y-76542326D01*
X94169495Y-76544539D01*
X94169493Y-76544539D01*
X94157652Y-76547979D01*
X94138293Y-76551988D01*
X94136983Y-76552154D01*
X94118203Y-76554526D01*
X94110837Y-76557442D01*
X94110831Y-76557444D01*
X94077098Y-76570800D01*
X94065868Y-76574645D01*
X94031017Y-76584770D01*
X94023407Y-76586981D01*
X94016584Y-76591016D01*
X94005966Y-76597295D01*
X93988213Y-76605992D01*
X93980568Y-76609019D01*
X93969383Y-76613448D01*
X93962968Y-76618109D01*
X93933612Y-76639437D01*
X93923695Y-76645951D01*
X93885638Y-76668458D01*
X93871317Y-76682779D01*
X93856284Y-76695619D01*
X93839893Y-76707528D01*
X93834842Y-76713634D01*
X93811702Y-76741605D01*
X93803712Y-76750384D01*
X90576419Y-79977676D01*
X90514107Y-80011702D01*
X90443291Y-80006637D01*
X90393688Y-79972891D01*
X90327864Y-79899786D01*
X90297146Y-79835779D01*
X90295500Y-79815476D01*
X90295500Y-68912767D01*
X90296027Y-68901584D01*
X90297702Y-68894091D01*
X90297122Y-68875621D01*
X90295562Y-68826014D01*
X90295500Y-68822055D01*
X90295500Y-68808280D01*
X90298253Y-68782086D01*
X90299504Y-68776202D01*
X90301542Y-68769928D01*
X90321504Y-68580000D01*
X90310766Y-68477836D01*
X90302232Y-68396635D01*
X90302232Y-68396633D01*
X90301542Y-68390072D01*
X90242527Y-68208444D01*
X90147040Y-68043056D01*
X90031364Y-67914584D01*
X90023675Y-67906045D01*
X90023674Y-67906044D01*
X90019253Y-67901134D01*
X89927805Y-67834693D01*
X89869644Y-67792436D01*
X89826290Y-67736213D01*
X89820215Y-67665477D01*
X89853347Y-67602686D01*
X89915167Y-67567774D01*
X89943705Y-67564500D01*
X96947547Y-67564500D01*
X97015668Y-67584502D01*
X97062161Y-67638158D01*
X97072265Y-67708432D01*
X97042771Y-67773012D01*
X96993930Y-67807652D01*
X96757821Y-67901134D01*
X96725742Y-67913835D01*
X96722274Y-67915741D01*
X96722273Y-67915742D01*
X96499619Y-68038148D01*
X96445504Y-68067898D01*
X96406470Y-68096258D01*
X96214864Y-68235468D01*
X96186784Y-68255869D01*
X95953663Y-68474784D01*
X95749818Y-68721190D01*
X95578463Y-68991202D01*
X95576779Y-68994781D01*
X95576775Y-68994788D01*
X95454821Y-69253955D01*
X95442301Y-69280562D01*
X95343479Y-69584705D01*
X95283555Y-69898836D01*
X95263475Y-70218000D01*
X95283555Y-70537164D01*
X95343479Y-70851295D01*
X95442301Y-71155438D01*
X95443988Y-71159024D01*
X95443990Y-71159028D01*
X95576775Y-71441212D01*
X95576779Y-71441219D01*
X95578463Y-71444798D01*
X95749818Y-71714810D01*
X95953663Y-71961216D01*
X96186784Y-72180131D01*
X96445504Y-72368102D01*
X96448973Y-72370009D01*
X96448976Y-72370011D01*
X96722273Y-72520258D01*
X96725742Y-72522165D01*
X96729411Y-72523618D01*
X96729416Y-72523620D01*
X97019397Y-72638431D01*
X97023080Y-72639889D01*
X97026914Y-72640873D01*
X97026922Y-72640876D01*
X97218536Y-72690073D01*
X97332829Y-72719419D01*
X97336757Y-72719915D01*
X97336761Y-72719916D01*
X97462280Y-72735773D01*
X97650102Y-72759500D01*
X97969898Y-72759500D01*
X98157720Y-72735773D01*
X98283239Y-72719916D01*
X98283243Y-72719915D01*
X98287171Y-72719419D01*
X98401464Y-72690073D01*
X98593078Y-72640876D01*
X98593086Y-72640873D01*
X98596920Y-72639889D01*
X98600603Y-72638431D01*
X98890584Y-72523620D01*
X98890589Y-72523618D01*
X98894258Y-72522165D01*
X98897727Y-72520258D01*
X99171024Y-72370011D01*
X99171027Y-72370009D01*
X99174496Y-72368102D01*
X99433216Y-72180131D01*
X99666337Y-71961216D01*
X99870182Y-71714810D01*
X100041537Y-71444798D01*
X100043221Y-71441219D01*
X100043225Y-71441212D01*
X100176010Y-71159028D01*
X100176012Y-71159024D01*
X100177699Y-71155438D01*
X100276521Y-70851295D01*
X100336445Y-70537164D01*
X100356525Y-70218000D01*
X100336445Y-69898836D01*
X100276521Y-69584705D01*
X100177699Y-69280562D01*
X100165179Y-69253955D01*
X100043225Y-68994788D01*
X100043221Y-68994781D01*
X100041537Y-68991202D01*
X99870182Y-68721190D01*
X99666337Y-68474784D01*
X99433216Y-68255869D01*
X99405137Y-68235468D01*
X99213530Y-68096258D01*
X99174496Y-68067898D01*
X99120382Y-68038148D01*
X98897727Y-67915742D01*
X98897726Y-67915741D01*
X98894258Y-67913835D01*
X98862179Y-67901134D01*
X98626070Y-67807652D01*
X98570096Y-67763978D01*
X98546619Y-67696975D01*
X98563095Y-67627916D01*
X98614290Y-67578728D01*
X98672453Y-67564500D01*
X105614633Y-67564500D01*
X105634018Y-67566000D01*
X105648851Y-67568310D01*
X105648855Y-67568310D01*
X105657724Y-67569691D01*
X105671789Y-67567852D01*
X105698003Y-67567176D01*
X105852709Y-67579352D01*
X105872236Y-67582445D01*
X106046661Y-67624321D01*
X106065455Y-67630427D01*
X106231184Y-67699074D01*
X106248795Y-67708048D01*
X106401742Y-67801775D01*
X106417730Y-67813390D01*
X106536213Y-67914584D01*
X106554132Y-67929888D01*
X106568110Y-67943866D01*
X106684610Y-68080270D01*
X106696225Y-68096258D01*
X106789952Y-68249205D01*
X106798926Y-68266816D01*
X106859037Y-68411938D01*
X106867571Y-68432540D01*
X106873679Y-68451339D01*
X106879308Y-68474784D01*
X106915555Y-68625763D01*
X106918648Y-68645291D01*
X106930272Y-68792987D01*
X106929630Y-68809875D01*
X106929800Y-68809877D01*
X106929690Y-68818853D01*
X106928309Y-68827724D01*
X106929473Y-68836626D01*
X106929473Y-68836628D01*
X106932436Y-68859283D01*
X106933500Y-68875621D01*
X106933500Y-104852633D01*
X106932000Y-104872018D01*
X106929690Y-104886851D01*
X106929690Y-104886855D01*
X106928309Y-104895724D01*
X106930148Y-104909789D01*
X106930824Y-104936003D01*
X106924885Y-105011466D01*
X106918648Y-105090709D01*
X106915555Y-105110236D01*
X106878658Y-105263927D01*
X106873681Y-105284656D01*
X106867573Y-105303455D01*
X106798926Y-105469184D01*
X106789952Y-105486795D01*
X106696225Y-105639742D01*
X106684610Y-105655730D01*
X106612993Y-105739583D01*
X106568112Y-105792132D01*
X106554134Y-105806110D01*
X106417730Y-105922610D01*
X106401742Y-105934225D01*
X106248795Y-106027952D01*
X106231184Y-106036926D01*
X106065455Y-106105573D01*
X106046661Y-106111679D01*
X105880805Y-106151498D01*
X105872237Y-106153555D01*
X105852709Y-106156648D01*
X105705013Y-106168272D01*
X105688125Y-106167630D01*
X105688123Y-106167800D01*
X105679147Y-106167690D01*
X105670276Y-106166309D01*
X105661374Y-106167473D01*
X105661372Y-106167473D01*
X105646323Y-106169441D01*
X105638714Y-106170436D01*
X105622379Y-106171500D01*
X98672453Y-106171500D01*
X98604332Y-106151498D01*
X98557839Y-106097842D01*
X98547735Y-106027568D01*
X98577229Y-105962988D01*
X98626070Y-105928348D01*
X98890578Y-105823622D01*
X98894258Y-105822165D01*
X98923458Y-105806112D01*
X99171024Y-105670011D01*
X99171027Y-105670009D01*
X99174496Y-105668102D01*
X99403507Y-105501716D01*
X99430012Y-105482459D01*
X99430014Y-105482458D01*
X99433216Y-105480131D01*
X99666337Y-105261216D01*
X99870182Y-105014810D01*
X100041537Y-104744798D01*
X100043221Y-104741219D01*
X100043225Y-104741212D01*
X100176010Y-104459028D01*
X100176012Y-104459024D01*
X100177699Y-104455438D01*
X100276521Y-104151295D01*
X100336445Y-103837164D01*
X100356525Y-103518000D01*
X100336445Y-103198836D01*
X100276521Y-102884705D01*
X100177699Y-102580562D01*
X100176010Y-102576972D01*
X100043225Y-102294788D01*
X100043221Y-102294781D01*
X100041537Y-102291202D01*
X99870182Y-102021190D01*
X99666337Y-101774784D01*
X99433216Y-101555869D01*
X99174496Y-101367898D01*
X99110494Y-101332712D01*
X98897727Y-101215742D01*
X98897726Y-101215741D01*
X98894258Y-101213835D01*
X98890589Y-101212382D01*
X98890584Y-101212380D01*
X98600603Y-101097569D01*
X98600600Y-101097568D01*
X98596920Y-101096111D01*
X98593086Y-101095127D01*
X98593078Y-101095124D01*
X98401464Y-101045927D01*
X98287171Y-101016581D01*
X98283243Y-101016085D01*
X98283239Y-101016084D01*
X98157720Y-101000227D01*
X97969898Y-100976500D01*
X97650102Y-100976500D01*
X97462280Y-101000227D01*
X97336761Y-101016084D01*
X97336757Y-101016085D01*
X97332829Y-101016581D01*
X97218536Y-101045927D01*
X97026922Y-101095124D01*
X97026914Y-101095127D01*
X97023080Y-101096111D01*
X97019400Y-101097568D01*
X97019397Y-101097569D01*
X96729416Y-101212380D01*
X96729411Y-101212382D01*
X96725742Y-101213835D01*
X96722274Y-101215741D01*
X96722273Y-101215742D01*
X96509507Y-101332712D01*
X96445504Y-101367898D01*
X96186784Y-101555869D01*
X95953663Y-101774784D01*
X95749818Y-102021190D01*
X95578463Y-102291202D01*
X95576779Y-102294781D01*
X95576775Y-102294788D01*
X95443990Y-102576972D01*
X95442301Y-102580562D01*
X95343479Y-102884705D01*
X95283555Y-103198836D01*
X95263475Y-103518000D01*
X95283555Y-103837164D01*
X95343479Y-104151295D01*
X95442301Y-104455438D01*
X95443988Y-104459024D01*
X95443990Y-104459028D01*
X95576775Y-104741212D01*
X95576779Y-104741219D01*
X95578463Y-104744798D01*
X95749818Y-105014810D01*
X95953663Y-105261216D01*
X96186784Y-105480131D01*
X96189986Y-105482458D01*
X96189988Y-105482459D01*
X96216493Y-105501716D01*
X96445504Y-105668102D01*
X96448973Y-105670009D01*
X96448976Y-105670011D01*
X96696542Y-105806112D01*
X96725742Y-105822165D01*
X96729422Y-105823622D01*
X96993930Y-105928348D01*
X97049904Y-105972022D01*
X97073381Y-106039025D01*
X97056905Y-106108084D01*
X97005710Y-106157272D01*
X96947547Y-106171500D01*
X67359367Y-106171500D01*
X67339982Y-106170000D01*
X67325149Y-106167690D01*
X67325145Y-106167690D01*
X67316276Y-106166309D01*
X67302211Y-106168148D01*
X67275997Y-106168824D01*
X67121291Y-106156648D01*
X67101763Y-106153555D01*
X67093195Y-106151498D01*
X66927339Y-106111679D01*
X66908545Y-106105573D01*
X66742816Y-106036926D01*
X66725205Y-106027952D01*
X66572258Y-105934225D01*
X66556270Y-105922610D01*
X66419866Y-105806110D01*
X66405888Y-105792132D01*
X66361007Y-105739583D01*
X66289390Y-105655730D01*
X66277775Y-105639742D01*
X66184048Y-105486795D01*
X66175074Y-105469184D01*
X66106427Y-105303455D01*
X66100319Y-105284656D01*
X66095343Y-105263927D01*
X66058445Y-105110236D01*
X66055352Y-105090709D01*
X66044009Y-104946583D01*
X66044994Y-104924258D01*
X66044334Y-104924199D01*
X66044769Y-104919351D01*
X66045576Y-104914552D01*
X66045729Y-104902000D01*
X66041773Y-104874376D01*
X66040500Y-104856514D01*
X66040500Y-102108000D01*
X66390411Y-102108000D01*
X66410754Y-102496176D01*
X66411267Y-102499416D01*
X66411268Y-102499424D01*
X66424717Y-102584335D01*
X66471562Y-102880099D01*
X66572167Y-103255562D01*
X66711468Y-103618453D01*
X66887938Y-103964794D01*
X67099643Y-104290793D01*
X67344266Y-104592876D01*
X67619124Y-104867734D01*
X67621682Y-104869806D01*
X67621686Y-104869809D01*
X67688852Y-104924199D01*
X67921207Y-105112357D01*
X67923970Y-105114152D01*
X67923971Y-105114152D01*
X68215481Y-105303460D01*
X68247205Y-105324062D01*
X68250139Y-105325557D01*
X68250146Y-105325561D01*
X68494755Y-105450195D01*
X68593547Y-105500532D01*
X68956438Y-105639833D01*
X69331901Y-105740438D01*
X69535793Y-105772732D01*
X69712576Y-105800732D01*
X69712584Y-105800733D01*
X69715824Y-105801246D01*
X70104000Y-105821589D01*
X70492176Y-105801246D01*
X70495416Y-105800733D01*
X70495424Y-105800732D01*
X70672207Y-105772732D01*
X70876099Y-105740438D01*
X71251562Y-105639833D01*
X71614453Y-105500532D01*
X71713245Y-105450195D01*
X71957854Y-105325561D01*
X71957861Y-105325557D01*
X71960795Y-105324062D01*
X71992520Y-105303460D01*
X72284029Y-105114152D01*
X72284030Y-105114152D01*
X72286793Y-105112357D01*
X72519148Y-104924199D01*
X72586314Y-104869809D01*
X72586318Y-104869806D01*
X72588876Y-104867734D01*
X72863734Y-104592876D01*
X73108357Y-104290793D01*
X73320062Y-103964794D01*
X73496532Y-103618453D01*
X73635833Y-103255562D01*
X73736438Y-102880099D01*
X73783283Y-102584335D01*
X73796732Y-102499424D01*
X73796733Y-102499416D01*
X73797246Y-102496176D01*
X73817589Y-102108000D01*
X73797246Y-101719824D01*
X73736438Y-101335901D01*
X73635833Y-100960438D01*
X73496532Y-100597547D01*
X73320062Y-100251206D01*
X73108357Y-99925207D01*
X72863734Y-99623124D01*
X72588876Y-99348266D01*
X72286793Y-99103643D01*
X71960795Y-98891938D01*
X71957861Y-98890443D01*
X71957854Y-98890439D01*
X71617393Y-98716966D01*
X71614453Y-98715468D01*
X71251562Y-98576167D01*
X70876099Y-98475562D01*
X70671321Y-98443128D01*
X70495424Y-98415268D01*
X70495416Y-98415267D01*
X70492176Y-98414754D01*
X70104000Y-98394411D01*
X69715824Y-98414754D01*
X69712584Y-98415267D01*
X69712576Y-98415268D01*
X69536679Y-98443128D01*
X69331901Y-98475562D01*
X68956438Y-98576167D01*
X68593547Y-98715468D01*
X68590607Y-98716966D01*
X68250147Y-98890439D01*
X68250140Y-98890443D01*
X68247206Y-98891938D01*
X67921207Y-99103643D01*
X67619124Y-99348266D01*
X67344266Y-99623124D01*
X67099643Y-99925207D01*
X66887938Y-100251206D01*
X66711468Y-100597547D01*
X66572167Y-100960438D01*
X66471562Y-101335901D01*
X66410754Y-101719824D01*
X66390411Y-102108000D01*
X66040500Y-102108000D01*
X66040500Y-90437768D01*
X66853425Y-90437768D01*
X66885138Y-90545521D01*
X66889731Y-90556889D01*
X66975607Y-90721154D01*
X66982321Y-90731415D01*
X67098468Y-90875873D01*
X67107046Y-90884632D01*
X67249039Y-91003778D01*
X67259159Y-91010708D01*
X67421585Y-91100002D01*
X67432858Y-91104834D01*
X67609538Y-91160880D01*
X67621532Y-91163430D01*
X67765761Y-91179607D01*
X67772785Y-91180000D01*
X68053885Y-91180000D01*
X68069124Y-91175525D01*
X68070329Y-91174135D01*
X68072000Y-91166452D01*
X68072000Y-91161885D01*
X68580000Y-91161885D01*
X68584475Y-91177124D01*
X68585865Y-91178329D01*
X68593548Y-91180000D01*
X68872657Y-91180000D01*
X68878805Y-91179699D01*
X69016603Y-91166188D01*
X69028638Y-91163805D01*
X69206076Y-91110233D01*
X69217416Y-91105559D01*
X69381077Y-91018540D01*
X69391294Y-91011751D01*
X69534933Y-90894603D01*
X69543637Y-90885959D01*
X69661784Y-90743144D01*
X69668644Y-90732973D01*
X69756804Y-90569924D01*
X69761556Y-90558619D01*
X69797250Y-90443308D01*
X69797331Y-90437768D01*
X70982363Y-90437768D01*
X71016846Y-90554932D01*
X71021439Y-90566300D01*
X71109586Y-90734911D01*
X71116302Y-90745173D01*
X71235515Y-90893443D01*
X71244103Y-90902213D01*
X71389838Y-91024499D01*
X71399969Y-91031437D01*
X71566692Y-91123094D01*
X71577962Y-91127924D01*
X71759315Y-91185452D01*
X71771309Y-91188002D01*
X71919350Y-91204607D01*
X71926374Y-91205000D01*
X72233885Y-91205000D01*
X72249124Y-91200525D01*
X72250329Y-91199135D01*
X72252000Y-91191452D01*
X72252000Y-90444115D01*
X72247525Y-90428876D01*
X72246135Y-90427671D01*
X72238452Y-90426000D01*
X70997014Y-90426000D01*
X70983483Y-90429973D01*
X70982363Y-90437768D01*
X69797331Y-90437768D01*
X69797456Y-90429205D01*
X69790701Y-90426000D01*
X68598115Y-90426000D01*
X68582876Y-90430475D01*
X68581671Y-90431865D01*
X68580000Y-90439548D01*
X68580000Y-91161885D01*
X68072000Y-91161885D01*
X68072000Y-90444115D01*
X68067525Y-90428876D01*
X68066135Y-90427671D01*
X68058452Y-90426000D01*
X66868076Y-90426000D01*
X66854545Y-90429973D01*
X66853425Y-90437768D01*
X66040500Y-90437768D01*
X66040500Y-89914795D01*
X66854544Y-89914795D01*
X66861299Y-89918000D01*
X68053885Y-89918000D01*
X68069124Y-89913525D01*
X68070329Y-89912135D01*
X68072000Y-89904452D01*
X68072000Y-89899885D01*
X68580000Y-89899885D01*
X68584475Y-89915124D01*
X68585865Y-89916329D01*
X68593548Y-89918000D01*
X69783924Y-89918000D01*
X69794839Y-89914795D01*
X70983372Y-89914795D01*
X70990127Y-89918000D01*
X74014986Y-89918000D01*
X74028517Y-89914027D01*
X74029637Y-89906232D01*
X73995154Y-89789068D01*
X73990561Y-89777700D01*
X73902414Y-89609089D01*
X73895698Y-89598827D01*
X73776485Y-89450557D01*
X73767897Y-89441787D01*
X73622162Y-89319501D01*
X73612031Y-89312563D01*
X73445308Y-89220906D01*
X73434038Y-89216076D01*
X73252685Y-89158548D01*
X73240691Y-89155998D01*
X73092650Y-89139393D01*
X73085626Y-89139000D01*
X72930870Y-89139000D01*
X72862749Y-89118998D01*
X72816256Y-89065342D01*
X72806152Y-88995068D01*
X72809512Y-88979114D01*
X72810994Y-88973807D01*
X72813530Y-88967466D01*
X72818614Y-88936758D01*
X72841993Y-88795539D01*
X72841993Y-88795536D01*
X72843108Y-88788802D01*
X72842359Y-88774500D01*
X72833987Y-88614766D01*
X72833630Y-88607953D01*
X72831781Y-88601238D01*
X72787352Y-88439941D01*
X72785539Y-88433359D01*
X72701078Y-88273164D01*
X72696673Y-88267951D01*
X72696670Y-88267947D01*
X72588594Y-88140057D01*
X72588590Y-88140053D01*
X72584187Y-88134843D01*
X72578762Y-88130695D01*
X72445743Y-88028994D01*
X72445739Y-88028991D01*
X72440322Y-88024850D01*
X72329959Y-87973387D01*
X72282369Y-87951195D01*
X72282366Y-87951194D01*
X72276192Y-87948315D01*
X72269544Y-87946829D01*
X72269541Y-87946828D01*
X72104494Y-87909936D01*
X72104495Y-87909936D01*
X72099457Y-87908810D01*
X72093912Y-87908500D01*
X71960756Y-87908500D01*
X71825963Y-87923143D01*
X71709382Y-87962377D01*
X71660796Y-87978728D01*
X71660794Y-87978729D01*
X71654325Y-87980906D01*
X71499095Y-88074177D01*
X71494138Y-88078865D01*
X71494135Y-88078867D01*
X71372473Y-88193918D01*
X71367515Y-88198607D01*
X71363683Y-88204245D01*
X71363680Y-88204249D01*
X71269558Y-88342745D01*
X71265723Y-88348388D01*
X71198470Y-88516534D01*
X71197356Y-88523262D01*
X71197355Y-88523266D01*
X71171761Y-88677865D01*
X71168892Y-88695198D01*
X71169249Y-88702015D01*
X71169249Y-88702019D01*
X71174766Y-88807283D01*
X71178370Y-88876047D01*
X71180181Y-88882620D01*
X71180181Y-88882623D01*
X71218504Y-89021754D01*
X71226461Y-89050641D01*
X71310922Y-89210836D01*
X71315330Y-89216052D01*
X71315515Y-89216271D01*
X71315586Y-89216431D01*
X71319143Y-89221705D01*
X71318198Y-89222343D01*
X71344206Y-89281212D01*
X71333233Y-89351356D01*
X71298913Y-89395240D01*
X71254368Y-89431571D01*
X71245662Y-89440216D01*
X71124390Y-89586809D01*
X71117530Y-89596980D01*
X71027038Y-89764342D01*
X71022286Y-89775647D01*
X70983578Y-89900692D01*
X70983372Y-89914795D01*
X69794839Y-89914795D01*
X69797455Y-89914027D01*
X69798575Y-89906232D01*
X69766862Y-89798479D01*
X69762269Y-89787111D01*
X69676393Y-89622846D01*
X69669679Y-89612585D01*
X69553532Y-89468127D01*
X69544954Y-89459368D01*
X69402961Y-89340222D01*
X69392841Y-89333292D01*
X69230415Y-89243998D01*
X69219142Y-89239166D01*
X69042462Y-89183120D01*
X69030468Y-89180570D01*
X68886239Y-89164393D01*
X68879215Y-89164000D01*
X68598115Y-89164000D01*
X68582876Y-89168475D01*
X68581671Y-89169865D01*
X68580000Y-89177548D01*
X68580000Y-89899885D01*
X68072000Y-89899885D01*
X68072000Y-89182115D01*
X68067525Y-89166876D01*
X68066135Y-89165671D01*
X68058452Y-89164000D01*
X67779343Y-89164000D01*
X67773195Y-89164301D01*
X67635397Y-89177812D01*
X67623362Y-89180195D01*
X67445924Y-89233767D01*
X67434584Y-89238441D01*
X67270923Y-89325460D01*
X67260706Y-89332249D01*
X67117067Y-89449397D01*
X67108363Y-89458041D01*
X66990216Y-89600856D01*
X66983356Y-89611027D01*
X66895196Y-89774076D01*
X66890444Y-89785381D01*
X66854750Y-89900692D01*
X66854544Y-89914795D01*
X66040500Y-89914795D01*
X66040500Y-81797768D01*
X66853425Y-81797768D01*
X66885138Y-81905521D01*
X66889731Y-81916889D01*
X66975607Y-82081154D01*
X66982321Y-82091415D01*
X67098468Y-82235873D01*
X67107046Y-82244632D01*
X67249039Y-82363778D01*
X67259159Y-82370708D01*
X67421585Y-82460002D01*
X67432858Y-82464834D01*
X67609538Y-82520880D01*
X67621532Y-82523430D01*
X67765761Y-82539607D01*
X67772785Y-82540000D01*
X68053885Y-82540000D01*
X68069124Y-82535525D01*
X68070329Y-82534135D01*
X68072000Y-82526452D01*
X68072000Y-82521885D01*
X68580000Y-82521885D01*
X68584475Y-82537124D01*
X68585865Y-82538329D01*
X68593548Y-82540000D01*
X68872657Y-82540000D01*
X68878805Y-82539699D01*
X69016603Y-82526188D01*
X69028638Y-82523805D01*
X69206076Y-82470233D01*
X69217416Y-82465559D01*
X69381077Y-82378540D01*
X69391294Y-82371751D01*
X69534933Y-82254603D01*
X69543637Y-82245959D01*
X69661784Y-82103144D01*
X69668644Y-82092973D01*
X69756804Y-81929924D01*
X69761556Y-81918619D01*
X69797250Y-81803308D01*
X69797456Y-81789205D01*
X69790701Y-81786000D01*
X68598115Y-81786000D01*
X68582876Y-81790475D01*
X68581671Y-81791865D01*
X68580000Y-81799548D01*
X68580000Y-82521885D01*
X68072000Y-82521885D01*
X68072000Y-81804115D01*
X68067525Y-81788876D01*
X68066135Y-81787671D01*
X68058452Y-81786000D01*
X66868076Y-81786000D01*
X66854545Y-81789973D01*
X66853425Y-81797768D01*
X66040500Y-81797768D01*
X66040500Y-81274795D01*
X66854544Y-81274795D01*
X66861299Y-81278000D01*
X68053885Y-81278000D01*
X68069124Y-81273525D01*
X68070329Y-81272135D01*
X68072000Y-81264452D01*
X68072000Y-81259885D01*
X68580000Y-81259885D01*
X68584475Y-81275124D01*
X68585865Y-81276329D01*
X68593548Y-81278000D01*
X69783924Y-81278000D01*
X69794839Y-81274795D01*
X70983372Y-81274795D01*
X70990127Y-81278000D01*
X72233885Y-81278000D01*
X72249124Y-81273525D01*
X72250329Y-81272135D01*
X72252000Y-81264452D01*
X72252000Y-80517115D01*
X72247525Y-80501876D01*
X72246135Y-80500671D01*
X72238452Y-80499000D01*
X71933110Y-80499000D01*
X71926965Y-80499300D01*
X71785519Y-80513170D01*
X71773481Y-80515553D01*
X71591349Y-80570542D01*
X71580007Y-80575217D01*
X71412023Y-80664535D01*
X71401807Y-80671322D01*
X71254366Y-80791572D01*
X71245662Y-80800216D01*
X71124390Y-80946809D01*
X71117530Y-80956980D01*
X71027038Y-81124342D01*
X71022286Y-81135647D01*
X70983578Y-81260692D01*
X70983372Y-81274795D01*
X69794839Y-81274795D01*
X69797455Y-81274027D01*
X69798575Y-81266232D01*
X69766862Y-81158479D01*
X69762269Y-81147111D01*
X69676393Y-80982846D01*
X69669679Y-80972585D01*
X69553532Y-80828127D01*
X69544954Y-80819368D01*
X69402961Y-80700222D01*
X69392841Y-80693292D01*
X69230415Y-80603998D01*
X69219142Y-80599166D01*
X69042462Y-80543120D01*
X69030468Y-80540570D01*
X68886239Y-80524393D01*
X68879215Y-80524000D01*
X68598115Y-80524000D01*
X68582876Y-80528475D01*
X68581671Y-80529865D01*
X68580000Y-80537548D01*
X68580000Y-81259885D01*
X68072000Y-81259885D01*
X68072000Y-80542115D01*
X68067525Y-80526876D01*
X68066135Y-80525671D01*
X68058452Y-80524000D01*
X67779343Y-80524000D01*
X67773195Y-80524301D01*
X67635397Y-80537812D01*
X67623362Y-80540195D01*
X67445924Y-80593767D01*
X67434584Y-80598441D01*
X67270923Y-80685460D01*
X67260706Y-80692249D01*
X67117067Y-80809397D01*
X67108363Y-80818041D01*
X66990216Y-80960856D01*
X66983356Y-80971027D01*
X66895196Y-81134076D01*
X66890444Y-81145381D01*
X66854750Y-81260692D01*
X66854544Y-81274795D01*
X66040500Y-81274795D01*
X66040500Y-71628000D01*
X66390411Y-71628000D01*
X66410754Y-72016176D01*
X66471562Y-72400099D01*
X66572167Y-72775562D01*
X66711468Y-73138453D01*
X66887938Y-73484794D01*
X67099643Y-73810793D01*
X67344266Y-74112876D01*
X67619124Y-74387734D01*
X67921207Y-74632357D01*
X67923970Y-74634152D01*
X67923971Y-74634152D01*
X67988412Y-74676000D01*
X68247205Y-74844062D01*
X68250139Y-74845557D01*
X68250146Y-74845561D01*
X68590607Y-75019034D01*
X68593547Y-75020532D01*
X68956438Y-75159833D01*
X69331901Y-75260438D01*
X69535793Y-75292732D01*
X69712576Y-75320732D01*
X69712584Y-75320733D01*
X69715824Y-75321246D01*
X70104000Y-75341589D01*
X70492176Y-75321246D01*
X70495416Y-75320733D01*
X70495424Y-75320732D01*
X70672207Y-75292732D01*
X70876099Y-75260438D01*
X71251562Y-75159833D01*
X71614453Y-75020532D01*
X71617393Y-75019034D01*
X71957854Y-74845561D01*
X71957861Y-74845557D01*
X71960795Y-74844062D01*
X72219589Y-74676000D01*
X72284029Y-74634152D01*
X72284030Y-74634152D01*
X72286793Y-74632357D01*
X72588876Y-74387734D01*
X72863734Y-74112876D01*
X73108357Y-73810793D01*
X73320062Y-73484794D01*
X73496532Y-73138453D01*
X73635833Y-72775562D01*
X73736438Y-72400099D01*
X73797246Y-72016176D01*
X73817589Y-71628000D01*
X73797246Y-71239824D01*
X73783881Y-71155438D01*
X73736954Y-70859162D01*
X73736438Y-70855901D01*
X73635833Y-70480438D01*
X73496532Y-70117547D01*
X73320062Y-69771206D01*
X73108357Y-69445207D01*
X72863734Y-69143124D01*
X72588876Y-68868266D01*
X72567980Y-68851344D01*
X72289355Y-68625718D01*
X72286793Y-68623643D01*
X72229698Y-68586565D01*
X71963564Y-68413736D01*
X71963561Y-68413734D01*
X71960795Y-68411938D01*
X71957861Y-68410443D01*
X71957854Y-68410439D01*
X71617393Y-68236966D01*
X71614453Y-68235468D01*
X71251562Y-68096167D01*
X70876099Y-67995562D01*
X70672207Y-67963268D01*
X70495424Y-67935268D01*
X70495416Y-67935267D01*
X70492176Y-67934754D01*
X70104000Y-67914411D01*
X69715824Y-67934754D01*
X69712584Y-67935267D01*
X69712576Y-67935268D01*
X69535793Y-67963268D01*
X69331901Y-67995562D01*
X68956438Y-68096167D01*
X68593547Y-68235468D01*
X68590607Y-68236966D01*
X68250147Y-68410439D01*
X68250140Y-68410443D01*
X68247206Y-68411938D01*
X68244440Y-68413734D01*
X68244437Y-68413736D01*
X68150431Y-68474784D01*
X67921207Y-68623643D01*
X67918645Y-68625718D01*
X67640021Y-68851344D01*
X67619124Y-68868266D01*
X67344266Y-69143124D01*
X67099643Y-69445207D01*
X66887938Y-69771206D01*
X66711468Y-70117547D01*
X66572167Y-70480438D01*
X66471562Y-70855901D01*
X66471046Y-70859162D01*
X66424120Y-71155438D01*
X66410754Y-71239824D01*
X66390411Y-71628000D01*
X66040500Y-71628000D01*
X66040500Y-68887250D01*
X66042246Y-68866345D01*
X66044770Y-68851344D01*
X66044770Y-68851341D01*
X66045576Y-68846552D01*
X66045729Y-68834000D01*
X66044334Y-68824257D01*
X66043451Y-68796517D01*
X66055352Y-68645292D01*
X66058445Y-68625763D01*
X66094692Y-68474784D01*
X66100321Y-68451339D01*
X66106429Y-68432540D01*
X66114963Y-68411938D01*
X66175074Y-68266816D01*
X66184048Y-68249205D01*
X66277775Y-68096258D01*
X66289390Y-68080270D01*
X66405890Y-67943866D01*
X66419868Y-67929888D01*
X66437787Y-67914584D01*
X66556270Y-67813390D01*
X66572258Y-67801775D01*
X66725205Y-67708048D01*
X66742816Y-67699074D01*
X66908545Y-67630427D01*
X66927339Y-67624321D01*
X67101764Y-67582445D01*
X67121291Y-67579352D01*
X67268987Y-67567728D01*
X67285875Y-67568370D01*
X67285877Y-67568200D01*
X67294853Y-67568310D01*
X67303724Y-67569691D01*
X67312626Y-67568527D01*
X67312628Y-67568527D01*
X67330864Y-67566142D01*
X67335286Y-67565564D01*
X67351621Y-67564500D01*
X88872295Y-67564500D01*
X88940416Y-67584502D01*
G37*
G04 #@! TD.AperFunction*
G04 #@! TA.AperFunction,Conductor*
G36*
X81075010Y-89023225D02*
G01*
X81166535Y-89042679D01*
X81184513Y-89046500D01*
X81240405Y-89046500D01*
X81308526Y-89066502D01*
X81329501Y-89083405D01*
X81625596Y-89379501D01*
X81659621Y-89441813D01*
X81662500Y-89468596D01*
X81662500Y-90483476D01*
X81642498Y-90551597D01*
X81630142Y-90567779D01*
X81556960Y-90649056D01*
X81461473Y-90814444D01*
X81402458Y-90996072D01*
X81401768Y-91002633D01*
X81401768Y-91002635D01*
X81391535Y-91100002D01*
X81382496Y-91186000D01*
X81383186Y-91192565D01*
X81395910Y-91313623D01*
X81402458Y-91375928D01*
X81461473Y-91557556D01*
X81556960Y-91722944D01*
X81684747Y-91864866D01*
X81839248Y-91977118D01*
X81845276Y-91979802D01*
X81845278Y-91979803D01*
X81913500Y-92010177D01*
X82013712Y-92054794D01*
X82107113Y-92074647D01*
X82194056Y-92093128D01*
X82194061Y-92093128D01*
X82200513Y-92094500D01*
X82391487Y-92094500D01*
X82397939Y-92093128D01*
X82397944Y-92093128D01*
X82526303Y-92065844D01*
X82597094Y-92071246D01*
X82653726Y-92114063D01*
X82678220Y-92180701D01*
X82678500Y-92189091D01*
X82678500Y-93393233D01*
X82677973Y-93404416D01*
X82676298Y-93411909D01*
X82676547Y-93419835D01*
X82676547Y-93419836D01*
X82678438Y-93479986D01*
X82678500Y-93483945D01*
X82678500Y-93647233D01*
X82677973Y-93658416D01*
X82676298Y-93665909D01*
X82676547Y-93673835D01*
X82676547Y-93673836D01*
X82678438Y-93733986D01*
X82678500Y-93737945D01*
X82678500Y-94054224D01*
X82676949Y-94073934D01*
X82673780Y-94093943D01*
X82674526Y-94101835D01*
X82677941Y-94137961D01*
X82678500Y-94149819D01*
X82678500Y-95443406D01*
X82658498Y-95511527D01*
X82641595Y-95532501D01*
X82184637Y-95989459D01*
X82122325Y-96023485D01*
X82051510Y-96018420D01*
X81994674Y-95975873D01*
X81977292Y-95943871D01*
X81974450Y-95936145D01*
X81954107Y-95880856D01*
X81935247Y-95829594D01*
X81935245Y-95829590D01*
X81933043Y-95823605D01*
X81879302Y-95736930D01*
X81828923Y-95655677D01*
X81828922Y-95655676D01*
X81825561Y-95650255D01*
X81685418Y-95502057D01*
X81637667Y-95468621D01*
X81523570Y-95388730D01*
X81523569Y-95388729D01*
X81518337Y-95385066D01*
X81512476Y-95382530D01*
X81512473Y-95382528D01*
X81473689Y-95365745D01*
X81419114Y-95320335D01*
X81397754Y-95252628D01*
X81416390Y-95184121D01*
X81462643Y-95139906D01*
X81596372Y-95065779D01*
X81601952Y-95062686D01*
X81756818Y-94929949D01*
X81881831Y-94768783D01*
X81971884Y-94585771D01*
X81973494Y-94579591D01*
X82021688Y-94394572D01*
X82021688Y-94394569D01*
X82023298Y-94388390D01*
X82029952Y-94261434D01*
X82033639Y-94191083D01*
X82033639Y-94191079D01*
X82033973Y-94184702D01*
X82008016Y-94013068D01*
X82004428Y-93989342D01*
X82004428Y-93989341D01*
X82003473Y-93983028D01*
X82001270Y-93977042D01*
X82001269Y-93977036D01*
X81935246Y-93797591D01*
X81935244Y-93797586D01*
X81933043Y-93791605D01*
X81850882Y-93659093D01*
X81828923Y-93623677D01*
X81828922Y-93623676D01*
X81825561Y-93618255D01*
X81782702Y-93572932D01*
X81689803Y-93474694D01*
X81685418Y-93470057D01*
X81598884Y-93409465D01*
X81523570Y-93356730D01*
X81523569Y-93356729D01*
X81518337Y-93353066D01*
X81331145Y-93272061D01*
X81283979Y-93262207D01*
X81136233Y-93231341D01*
X81136229Y-93231341D01*
X81131488Y-93230350D01*
X81126651Y-93230097D01*
X81126647Y-93230096D01*
X81126581Y-93230093D01*
X81124809Y-93230000D01*
X80975023Y-93230000D01*
X80902708Y-93237345D01*
X80829426Y-93244789D01*
X80829425Y-93244789D01*
X80823077Y-93245434D01*
X80628442Y-93306429D01*
X80450048Y-93405314D01*
X80295182Y-93538051D01*
X80170169Y-93699217D01*
X80080116Y-93882229D01*
X80078507Y-93888407D01*
X80078506Y-93888409D01*
X80035315Y-94054224D01*
X80028702Y-94079610D01*
X80027538Y-94101835D01*
X80026869Y-94114593D01*
X80003330Y-94181574D01*
X79947316Y-94225195D01*
X79901042Y-94234000D01*
X75946000Y-94234000D01*
X75946000Y-94239319D01*
X75940629Y-94240896D01*
X75905131Y-94246000D01*
X75895023Y-94246000D01*
X75822708Y-94253345D01*
X75749426Y-94260789D01*
X75749425Y-94260789D01*
X75743077Y-94261434D01*
X75548442Y-94322429D01*
X75542853Y-94325527D01*
X75496586Y-94351173D01*
X75427309Y-94366704D01*
X75360632Y-94342316D01*
X75317726Y-94285751D01*
X75309500Y-94240971D01*
X75309500Y-90992594D01*
X75329502Y-90924473D01*
X75346405Y-90903499D01*
X76171499Y-90078405D01*
X76233811Y-90044379D01*
X76260594Y-90041500D01*
X79677233Y-90041500D01*
X79688416Y-90042027D01*
X79695909Y-90043702D01*
X79703835Y-90043453D01*
X79703836Y-90043453D01*
X79763986Y-90041562D01*
X79767945Y-90041500D01*
X79795856Y-90041500D01*
X79795856Y-90041632D01*
X79827158Y-90043932D01*
X79914513Y-90062500D01*
X80105487Y-90062500D01*
X80111939Y-90061128D01*
X80111944Y-90061128D01*
X80210696Y-90040137D01*
X80292288Y-90022794D01*
X80298319Y-90020109D01*
X80460722Y-89947803D01*
X80460724Y-89947802D01*
X80466752Y-89945118D01*
X80481967Y-89934064D01*
X80579253Y-89863381D01*
X80621253Y-89832866D01*
X80682952Y-89764342D01*
X80744621Y-89695852D01*
X80744622Y-89695851D01*
X80749040Y-89690944D01*
X80807314Y-89590010D01*
X80841223Y-89531279D01*
X80841224Y-89531278D01*
X80844527Y-89525556D01*
X80903542Y-89343928D01*
X80904770Y-89332249D01*
X80922814Y-89160565D01*
X80923504Y-89154000D01*
X80922814Y-89147435D01*
X80922814Y-89146472D01*
X80942816Y-89078351D01*
X80996472Y-89031858D01*
X81066746Y-89021754D01*
X81075010Y-89023225D01*
G37*
G04 #@! TD.AperFunction*
G04 #@! TD*
M02*
