G04 #@! TF.GenerationSoftware,KiCad,Pcbnew,(6.0.8-1)-1*
G04 #@! TF.CreationDate,2022-10-23T23:26:29-07:00*
G04 #@! TF.ProjectId,3DProUsb,33445072-6f55-4736-922e-6b696361645f,rev?*
G04 #@! TF.SameCoordinates,Original*
G04 #@! TF.FileFunction,AssemblyDrawing,Top*
%FSLAX46Y46*%
G04 Gerber Fmt 4.6, Leading zero omitted, Abs format (unit mm)*
G04 Created by KiCad (PCBNEW (6.0.8-1)-1) date 2022-10-23 23:26:29*
%MOMM*%
%LPD*%
G01*
G04 APERTURE LIST*
%ADD10C,0.015000*%
%ADD11C,0.150000*%
%ADD12C,0.060000*%
%ADD13C,0.080000*%
%ADD14C,0.040000*%
%ADD15C,0.105000*%
%ADD16C,0.120000*%
%ADD17C,0.127000*%
%ADD18C,0.200000*%
%ADD19C,0.100000*%
%ADD20C,0.300000*%
G04 APERTURE END LIST*
D10*
G04 #@! TO.C,J3*
X93182339Y-95779671D02*
X91780733Y-95779671D01*
X91780733Y-95445955D01*
X91847477Y-95245726D01*
X91980963Y-95112239D01*
X92114449Y-95045496D01*
X92381422Y-94978753D01*
X92581651Y-94978753D01*
X92848624Y-95045496D01*
X92982110Y-95112239D01*
X93115596Y-95245726D01*
X93182339Y-95445955D01*
X93182339Y-95779671D01*
X92781881Y-94444808D02*
X92781881Y-93777376D01*
X93182339Y-94578294D02*
X91780733Y-94111092D01*
X93182339Y-93643890D01*
X93182339Y-92442514D02*
X93182339Y-93243431D01*
X93182339Y-92842972D02*
X91780733Y-92842972D01*
X91980963Y-92976459D01*
X92114449Y-93109945D01*
X92181192Y-93243431D01*
X91780733Y-91174394D02*
X91780733Y-91841825D01*
X92448165Y-91908568D01*
X92381422Y-91841825D01*
X92314679Y-91708339D01*
X92314679Y-91374623D01*
X92381422Y-91241137D01*
X92448165Y-91174394D01*
X92581651Y-91107651D01*
X92915367Y-91107651D01*
X93048853Y-91174394D01*
X93115596Y-91241137D01*
X93182339Y-91374623D01*
X93182339Y-91708339D01*
X93115596Y-91841825D01*
X93048853Y-91908568D01*
X92648394Y-90506962D02*
X92648394Y-89439072D01*
X93115596Y-88838384D02*
X93182339Y-88638154D01*
X93182339Y-88304439D01*
X93115596Y-88170952D01*
X93048853Y-88104209D01*
X92915367Y-88037466D01*
X92781881Y-88037466D01*
X92648394Y-88104209D01*
X92581651Y-88170952D01*
X92514908Y-88304439D01*
X92448165Y-88571411D01*
X92381422Y-88704898D01*
X92314679Y-88771641D01*
X92181192Y-88838384D01*
X92047706Y-88838384D01*
X91914220Y-88771641D01*
X91847477Y-88704898D01*
X91780733Y-88571411D01*
X91780733Y-88237696D01*
X91847477Y-88037466D01*
X93182339Y-86769346D02*
X93182339Y-87436778D01*
X91780733Y-87436778D01*
X92648394Y-86302144D02*
X92648394Y-85234254D01*
X91914220Y-84633566D02*
X91847477Y-84566823D01*
X91780733Y-84433336D01*
X91780733Y-84099621D01*
X91847477Y-83966134D01*
X91914220Y-83899391D01*
X92047706Y-83832648D01*
X92181192Y-83832648D01*
X92381422Y-83899391D01*
X93182339Y-84700309D01*
X93182339Y-83832648D01*
X91780733Y-82564528D02*
X91780733Y-83231960D01*
X92448165Y-83298703D01*
X92381422Y-83231960D01*
X92314679Y-83098474D01*
X92314679Y-82764758D01*
X92381422Y-82631272D01*
X92448165Y-82564528D01*
X92581651Y-82497785D01*
X92915367Y-82497785D01*
X93048853Y-82564528D01*
X93115596Y-82631272D01*
X93182339Y-82764758D01*
X93182339Y-83098474D01*
X93115596Y-83231960D01*
X93048853Y-83298703D01*
D11*
G04 #@! TO.C,REF\u002A\u002A*
X105846571Y-90843523D02*
X105846571Y-91176857D01*
X106370380Y-91176857D02*
X105370380Y-91176857D01*
X105370380Y-90700666D01*
X106370380Y-90319714D02*
X105703714Y-90319714D01*
X105370380Y-90319714D02*
X105418000Y-90367333D01*
X105465619Y-90319714D01*
X105418000Y-90272095D01*
X105370380Y-90319714D01*
X105465619Y-90319714D01*
X106370380Y-89414952D02*
X105370380Y-89414952D01*
X106322761Y-89414952D02*
X106370380Y-89510190D01*
X106370380Y-89700666D01*
X106322761Y-89795904D01*
X106275142Y-89843523D01*
X106179904Y-89891142D01*
X105894190Y-89891142D01*
X105798952Y-89843523D01*
X105751333Y-89795904D01*
X105703714Y-89700666D01*
X105703714Y-89510190D01*
X105751333Y-89414952D01*
X105703714Y-88510190D02*
X106370380Y-88510190D01*
X105703714Y-88938761D02*
X106227523Y-88938761D01*
X106322761Y-88891142D01*
X106370380Y-88795904D01*
X106370380Y-88653047D01*
X106322761Y-88557809D01*
X106275142Y-88510190D01*
X106322761Y-87605428D02*
X106370380Y-87700666D01*
X106370380Y-87891142D01*
X106322761Y-87986380D01*
X106275142Y-88034000D01*
X106179904Y-88081619D01*
X105894190Y-88081619D01*
X105798952Y-88034000D01*
X105751333Y-87986380D01*
X105703714Y-87891142D01*
X105703714Y-87700666D01*
X105751333Y-87605428D01*
X106370380Y-87176857D02*
X105703714Y-87176857D01*
X105370380Y-87176857D02*
X105418000Y-87224476D01*
X105465619Y-87176857D01*
X105418000Y-87129238D01*
X105370380Y-87176857D01*
X105465619Y-87176857D01*
X106370380Y-86272095D02*
X105846571Y-86272095D01*
X105751333Y-86319714D01*
X105703714Y-86414952D01*
X105703714Y-86605428D01*
X105751333Y-86700666D01*
X106322761Y-86272095D02*
X106370380Y-86367333D01*
X106370380Y-86605428D01*
X106322761Y-86700666D01*
X106227523Y-86748285D01*
X106132285Y-86748285D01*
X106037047Y-86700666D01*
X105989428Y-86605428D01*
X105989428Y-86367333D01*
X105941809Y-86272095D01*
X106370380Y-85653047D02*
X106322761Y-85748285D01*
X106227523Y-85795904D01*
X105370380Y-85795904D01*
X106465619Y-85510190D02*
X106465619Y-84748285D01*
X106370380Y-83986380D02*
X106370380Y-84557809D01*
X106370380Y-84272095D02*
X105370380Y-84272095D01*
X105513238Y-84367333D01*
X105608476Y-84462571D01*
X105656095Y-84557809D01*
X106275142Y-83557809D02*
X106322761Y-83510190D01*
X106370380Y-83557809D01*
X106322761Y-83605428D01*
X106275142Y-83557809D01*
X106370380Y-83557809D01*
X105370380Y-82605428D02*
X105370380Y-83081619D01*
X105846571Y-83129238D01*
X105798952Y-83081619D01*
X105751333Y-82986380D01*
X105751333Y-82748285D01*
X105798952Y-82653047D01*
X105846571Y-82605428D01*
X105941809Y-82557809D01*
X106179904Y-82557809D01*
X106275142Y-82605428D01*
X106322761Y-82653047D01*
X106370380Y-82748285D01*
X106370380Y-82986380D01*
X106322761Y-83081619D01*
X106275142Y-83129238D01*
X106370380Y-82129238D02*
X105703714Y-82129238D01*
X105798952Y-82129238D02*
X105751333Y-82081619D01*
X105703714Y-81986380D01*
X105703714Y-81843523D01*
X105751333Y-81748285D01*
X105846571Y-81700666D01*
X106370380Y-81700666D01*
X105846571Y-81700666D02*
X105751333Y-81653047D01*
X105703714Y-81557809D01*
X105703714Y-81414952D01*
X105751333Y-81319714D01*
X105846571Y-81272095D01*
X106370380Y-81272095D01*
X106370380Y-80795904D02*
X105703714Y-80795904D01*
X105798952Y-80795904D02*
X105751333Y-80748285D01*
X105703714Y-80653047D01*
X105703714Y-80510190D01*
X105751333Y-80414952D01*
X105846571Y-80367333D01*
X106370380Y-80367333D01*
X105846571Y-80367333D02*
X105751333Y-80319714D01*
X105703714Y-80224476D01*
X105703714Y-80081619D01*
X105751333Y-79986380D01*
X105846571Y-79938761D01*
X106370380Y-79938761D01*
X106465619Y-79700666D02*
X106465619Y-78938761D01*
X106370380Y-78700666D02*
X105370380Y-78700666D01*
X106084666Y-78367333D01*
X105370380Y-78034000D01*
X106370380Y-78034000D01*
X106370380Y-77129238D02*
X105846571Y-77129238D01*
X105751333Y-77176857D01*
X105703714Y-77272095D01*
X105703714Y-77462571D01*
X105751333Y-77557809D01*
X106322761Y-77129238D02*
X106370380Y-77224476D01*
X106370380Y-77462571D01*
X106322761Y-77557809D01*
X106227523Y-77605428D01*
X106132285Y-77605428D01*
X106037047Y-77557809D01*
X105989428Y-77462571D01*
X105989428Y-77224476D01*
X105941809Y-77129238D01*
X106322761Y-76700666D02*
X106370380Y-76605428D01*
X106370380Y-76414952D01*
X106322761Y-76319714D01*
X106227523Y-76272095D01*
X106179904Y-76272095D01*
X106084666Y-76319714D01*
X106037047Y-76414952D01*
X106037047Y-76557809D01*
X105989428Y-76653047D01*
X105894190Y-76700666D01*
X105846571Y-76700666D01*
X105751333Y-76653047D01*
X105703714Y-76557809D01*
X105703714Y-76414952D01*
X105751333Y-76319714D01*
X106370380Y-75843523D02*
X105370380Y-75843523D01*
X105989428Y-75748285D02*
X106370380Y-75462571D01*
X105703714Y-75462571D02*
X106084666Y-75843523D01*
X105370380Y-75129238D02*
X105370380Y-74510190D01*
X105751333Y-74843523D01*
X105751333Y-74700666D01*
X105798952Y-74605428D01*
X105846571Y-74557809D01*
X105941809Y-74510190D01*
X106179904Y-74510190D01*
X106275142Y-74557809D01*
X106322761Y-74605428D01*
X106370380Y-74700666D01*
X106370380Y-74986380D01*
X106322761Y-75081619D01*
X106275142Y-75129238D01*
X106370380Y-74081619D02*
X105703714Y-74081619D01*
X105798952Y-74081619D02*
X105751333Y-74034000D01*
X105703714Y-73938761D01*
X105703714Y-73795904D01*
X105751333Y-73700666D01*
X105846571Y-73653047D01*
X106370380Y-73653047D01*
X105846571Y-73653047D02*
X105751333Y-73605428D01*
X105703714Y-73510190D01*
X105703714Y-73367333D01*
X105751333Y-73272095D01*
X105846571Y-73224476D01*
X106370380Y-73224476D01*
X106370380Y-72748285D02*
X105703714Y-72748285D01*
X105798952Y-72748285D02*
X105751333Y-72700666D01*
X105703714Y-72605428D01*
X105703714Y-72462571D01*
X105751333Y-72367333D01*
X105846571Y-72319714D01*
X106370380Y-72319714D01*
X105846571Y-72319714D02*
X105751333Y-72272095D01*
X105703714Y-72176857D01*
X105703714Y-72034000D01*
X105751333Y-71938761D01*
X105846571Y-71891142D01*
X106370380Y-71891142D01*
D12*
X104114666Y-70030952D02*
X103981333Y-69840476D01*
X103886095Y-70030952D02*
X103886095Y-69630952D01*
X104038476Y-69630952D01*
X104076571Y-69650000D01*
X104095619Y-69669047D01*
X104114666Y-69707142D01*
X104114666Y-69764285D01*
X104095619Y-69802380D01*
X104076571Y-69821428D01*
X104038476Y-69840476D01*
X103886095Y-69840476D01*
X104286095Y-69821428D02*
X104419428Y-69821428D01*
X104476571Y-70030952D02*
X104286095Y-70030952D01*
X104286095Y-69630952D01*
X104476571Y-69630952D01*
X104781333Y-69821428D02*
X104648000Y-69821428D01*
X104648000Y-70030952D02*
X104648000Y-69630952D01*
X104838476Y-69630952D01*
X105048000Y-69630952D02*
X105048000Y-69726190D01*
X104952761Y-69688095D02*
X105048000Y-69726190D01*
X105143238Y-69688095D01*
X104990857Y-69802380D02*
X105048000Y-69726190D01*
X105105142Y-69802380D01*
X105352761Y-69630952D02*
X105352761Y-69726190D01*
X105257523Y-69688095D02*
X105352761Y-69726190D01*
X105448000Y-69688095D01*
X105295619Y-69802380D02*
X105352761Y-69726190D01*
X105409904Y-69802380D01*
D11*
X107370571Y-106337523D02*
X107370571Y-106670857D01*
X107894380Y-106670857D02*
X106894380Y-106670857D01*
X106894380Y-106194666D01*
X107894380Y-105813714D02*
X107227714Y-105813714D01*
X106894380Y-105813714D02*
X106942000Y-105861333D01*
X106989619Y-105813714D01*
X106942000Y-105766095D01*
X106894380Y-105813714D01*
X106989619Y-105813714D01*
X107894380Y-104908952D02*
X106894380Y-104908952D01*
X107846761Y-104908952D02*
X107894380Y-105004190D01*
X107894380Y-105194666D01*
X107846761Y-105289904D01*
X107799142Y-105337523D01*
X107703904Y-105385142D01*
X107418190Y-105385142D01*
X107322952Y-105337523D01*
X107275333Y-105289904D01*
X107227714Y-105194666D01*
X107227714Y-105004190D01*
X107275333Y-104908952D01*
X107227714Y-104004190D02*
X107894380Y-104004190D01*
X107227714Y-104432761D02*
X107751523Y-104432761D01*
X107846761Y-104385142D01*
X107894380Y-104289904D01*
X107894380Y-104147047D01*
X107846761Y-104051809D01*
X107799142Y-104004190D01*
X107846761Y-103099428D02*
X107894380Y-103194666D01*
X107894380Y-103385142D01*
X107846761Y-103480380D01*
X107799142Y-103528000D01*
X107703904Y-103575619D01*
X107418190Y-103575619D01*
X107322952Y-103528000D01*
X107275333Y-103480380D01*
X107227714Y-103385142D01*
X107227714Y-103194666D01*
X107275333Y-103099428D01*
X107894380Y-102670857D02*
X107227714Y-102670857D01*
X106894380Y-102670857D02*
X106942000Y-102718476D01*
X106989619Y-102670857D01*
X106942000Y-102623238D01*
X106894380Y-102670857D01*
X106989619Y-102670857D01*
X107894380Y-101766095D02*
X107370571Y-101766095D01*
X107275333Y-101813714D01*
X107227714Y-101908952D01*
X107227714Y-102099428D01*
X107275333Y-102194666D01*
X107846761Y-101766095D02*
X107894380Y-101861333D01*
X107894380Y-102099428D01*
X107846761Y-102194666D01*
X107751523Y-102242285D01*
X107656285Y-102242285D01*
X107561047Y-102194666D01*
X107513428Y-102099428D01*
X107513428Y-101861333D01*
X107465809Y-101766095D01*
X107894380Y-101147047D02*
X107846761Y-101242285D01*
X107751523Y-101289904D01*
X106894380Y-101289904D01*
X107989619Y-101004190D02*
X107989619Y-100242285D01*
X107894380Y-99480380D02*
X107894380Y-100051809D01*
X107894380Y-99766095D02*
X106894380Y-99766095D01*
X107037238Y-99861333D01*
X107132476Y-99956571D01*
X107180095Y-100051809D01*
X107799142Y-99051809D02*
X107846761Y-99004190D01*
X107894380Y-99051809D01*
X107846761Y-99099428D01*
X107799142Y-99051809D01*
X107894380Y-99051809D01*
X106894380Y-98099428D02*
X106894380Y-98575619D01*
X107370571Y-98623238D01*
X107322952Y-98575619D01*
X107275333Y-98480380D01*
X107275333Y-98242285D01*
X107322952Y-98147047D01*
X107370571Y-98099428D01*
X107465809Y-98051809D01*
X107703904Y-98051809D01*
X107799142Y-98099428D01*
X107846761Y-98147047D01*
X107894380Y-98242285D01*
X107894380Y-98480380D01*
X107846761Y-98575619D01*
X107799142Y-98623238D01*
X107894380Y-97623238D02*
X107227714Y-97623238D01*
X107322952Y-97623238D02*
X107275333Y-97575619D01*
X107227714Y-97480380D01*
X107227714Y-97337523D01*
X107275333Y-97242285D01*
X107370571Y-97194666D01*
X107894380Y-97194666D01*
X107370571Y-97194666D02*
X107275333Y-97147047D01*
X107227714Y-97051809D01*
X107227714Y-96908952D01*
X107275333Y-96813714D01*
X107370571Y-96766095D01*
X107894380Y-96766095D01*
X107894380Y-96289904D02*
X107227714Y-96289904D01*
X107322952Y-96289904D02*
X107275333Y-96242285D01*
X107227714Y-96147047D01*
X107227714Y-96004190D01*
X107275333Y-95908952D01*
X107370571Y-95861333D01*
X107894380Y-95861333D01*
X107370571Y-95861333D02*
X107275333Y-95813714D01*
X107227714Y-95718476D01*
X107227714Y-95575619D01*
X107275333Y-95480380D01*
X107370571Y-95432761D01*
X107894380Y-95432761D01*
X107989619Y-95194666D02*
X107989619Y-94432761D01*
X107894380Y-94194666D02*
X106894380Y-94194666D01*
X107608666Y-93861333D01*
X106894380Y-93528000D01*
X107894380Y-93528000D01*
X107894380Y-92623238D02*
X107370571Y-92623238D01*
X107275333Y-92670857D01*
X107227714Y-92766095D01*
X107227714Y-92956571D01*
X107275333Y-93051809D01*
X107846761Y-92623238D02*
X107894380Y-92718476D01*
X107894380Y-92956571D01*
X107846761Y-93051809D01*
X107751523Y-93099428D01*
X107656285Y-93099428D01*
X107561047Y-93051809D01*
X107513428Y-92956571D01*
X107513428Y-92718476D01*
X107465809Y-92623238D01*
X107846761Y-92194666D02*
X107894380Y-92099428D01*
X107894380Y-91908952D01*
X107846761Y-91813714D01*
X107751523Y-91766095D01*
X107703904Y-91766095D01*
X107608666Y-91813714D01*
X107561047Y-91908952D01*
X107561047Y-92051809D01*
X107513428Y-92147047D01*
X107418190Y-92194666D01*
X107370571Y-92194666D01*
X107275333Y-92147047D01*
X107227714Y-92051809D01*
X107227714Y-91908952D01*
X107275333Y-91813714D01*
X107894380Y-91337523D02*
X106894380Y-91337523D01*
X107513428Y-91242285D02*
X107894380Y-90956571D01*
X107227714Y-90956571D02*
X107608666Y-91337523D01*
X106894380Y-90623238D02*
X106894380Y-90004190D01*
X107275333Y-90337523D01*
X107275333Y-90194666D01*
X107322952Y-90099428D01*
X107370571Y-90051809D01*
X107465809Y-90004190D01*
X107703904Y-90004190D01*
X107799142Y-90051809D01*
X107846761Y-90099428D01*
X107894380Y-90194666D01*
X107894380Y-90480380D01*
X107846761Y-90575619D01*
X107799142Y-90623238D01*
X107894380Y-89575619D02*
X107227714Y-89575619D01*
X107322952Y-89575619D02*
X107275333Y-89528000D01*
X107227714Y-89432761D01*
X107227714Y-89289904D01*
X107275333Y-89194666D01*
X107370571Y-89147047D01*
X107894380Y-89147047D01*
X107370571Y-89147047D02*
X107275333Y-89099428D01*
X107227714Y-89004190D01*
X107227714Y-88861333D01*
X107275333Y-88766095D01*
X107370571Y-88718476D01*
X107894380Y-88718476D01*
X107894380Y-88242285D02*
X107227714Y-88242285D01*
X107322952Y-88242285D02*
X107275333Y-88194666D01*
X107227714Y-88099428D01*
X107227714Y-87956571D01*
X107275333Y-87861333D01*
X107370571Y-87813714D01*
X107894380Y-87813714D01*
X107370571Y-87813714D02*
X107275333Y-87766095D01*
X107227714Y-87670857D01*
X107227714Y-87528000D01*
X107275333Y-87432761D01*
X107370571Y-87385142D01*
X107894380Y-87385142D01*
D12*
X104368666Y-104066952D02*
X104235333Y-103876476D01*
X104140095Y-104066952D02*
X104140095Y-103666952D01*
X104292476Y-103666952D01*
X104330571Y-103686000D01*
X104349619Y-103705047D01*
X104368666Y-103743142D01*
X104368666Y-103800285D01*
X104349619Y-103838380D01*
X104330571Y-103857428D01*
X104292476Y-103876476D01*
X104140095Y-103876476D01*
X104540095Y-103857428D02*
X104673428Y-103857428D01*
X104730571Y-104066952D02*
X104540095Y-104066952D01*
X104540095Y-103666952D01*
X104730571Y-103666952D01*
X105035333Y-103857428D02*
X104902000Y-103857428D01*
X104902000Y-104066952D02*
X104902000Y-103666952D01*
X105092476Y-103666952D01*
X105302000Y-103666952D02*
X105302000Y-103762190D01*
X105206761Y-103724095D02*
X105302000Y-103762190D01*
X105397238Y-103724095D01*
X105244857Y-103838380D02*
X105302000Y-103762190D01*
X105359142Y-103838380D01*
X105606761Y-103666952D02*
X105606761Y-103762190D01*
X105511523Y-103724095D02*
X105606761Y-103762190D01*
X105702000Y-103724095D01*
X105549619Y-103838380D02*
X105606761Y-103762190D01*
X105663904Y-103838380D01*
D11*
X66730571Y-93383523D02*
X66730571Y-93716857D01*
X67254380Y-93716857D02*
X66254380Y-93716857D01*
X66254380Y-93240666D01*
X67254380Y-92859714D02*
X66587714Y-92859714D01*
X66254380Y-92859714D02*
X66302000Y-92907333D01*
X66349619Y-92859714D01*
X66302000Y-92812095D01*
X66254380Y-92859714D01*
X66349619Y-92859714D01*
X67254380Y-91954952D02*
X66254380Y-91954952D01*
X67206761Y-91954952D02*
X67254380Y-92050190D01*
X67254380Y-92240666D01*
X67206761Y-92335904D01*
X67159142Y-92383523D01*
X67063904Y-92431142D01*
X66778190Y-92431142D01*
X66682952Y-92383523D01*
X66635333Y-92335904D01*
X66587714Y-92240666D01*
X66587714Y-92050190D01*
X66635333Y-91954952D01*
X66587714Y-91050190D02*
X67254380Y-91050190D01*
X66587714Y-91478761D02*
X67111523Y-91478761D01*
X67206761Y-91431142D01*
X67254380Y-91335904D01*
X67254380Y-91193047D01*
X67206761Y-91097809D01*
X67159142Y-91050190D01*
X67206761Y-90145428D02*
X67254380Y-90240666D01*
X67254380Y-90431142D01*
X67206761Y-90526380D01*
X67159142Y-90574000D01*
X67063904Y-90621619D01*
X66778190Y-90621619D01*
X66682952Y-90574000D01*
X66635333Y-90526380D01*
X66587714Y-90431142D01*
X66587714Y-90240666D01*
X66635333Y-90145428D01*
X67254380Y-89716857D02*
X66587714Y-89716857D01*
X66254380Y-89716857D02*
X66302000Y-89764476D01*
X66349619Y-89716857D01*
X66302000Y-89669238D01*
X66254380Y-89716857D01*
X66349619Y-89716857D01*
X67254380Y-88812095D02*
X66730571Y-88812095D01*
X66635333Y-88859714D01*
X66587714Y-88954952D01*
X66587714Y-89145428D01*
X66635333Y-89240666D01*
X67206761Y-88812095D02*
X67254380Y-88907333D01*
X67254380Y-89145428D01*
X67206761Y-89240666D01*
X67111523Y-89288285D01*
X67016285Y-89288285D01*
X66921047Y-89240666D01*
X66873428Y-89145428D01*
X66873428Y-88907333D01*
X66825809Y-88812095D01*
X67254380Y-88193047D02*
X67206761Y-88288285D01*
X67111523Y-88335904D01*
X66254380Y-88335904D01*
X67349619Y-88050190D02*
X67349619Y-87288285D01*
X67254380Y-86526380D02*
X67254380Y-87097809D01*
X67254380Y-86812095D02*
X66254380Y-86812095D01*
X66397238Y-86907333D01*
X66492476Y-87002571D01*
X66540095Y-87097809D01*
X67159142Y-86097809D02*
X67206761Y-86050190D01*
X67254380Y-86097809D01*
X67206761Y-86145428D01*
X67159142Y-86097809D01*
X67254380Y-86097809D01*
X66254380Y-85145428D02*
X66254380Y-85621619D01*
X66730571Y-85669238D01*
X66682952Y-85621619D01*
X66635333Y-85526380D01*
X66635333Y-85288285D01*
X66682952Y-85193047D01*
X66730571Y-85145428D01*
X66825809Y-85097809D01*
X67063904Y-85097809D01*
X67159142Y-85145428D01*
X67206761Y-85193047D01*
X67254380Y-85288285D01*
X67254380Y-85526380D01*
X67206761Y-85621619D01*
X67159142Y-85669238D01*
X67254380Y-84669238D02*
X66587714Y-84669238D01*
X66682952Y-84669238D02*
X66635333Y-84621619D01*
X66587714Y-84526380D01*
X66587714Y-84383523D01*
X66635333Y-84288285D01*
X66730571Y-84240666D01*
X67254380Y-84240666D01*
X66730571Y-84240666D02*
X66635333Y-84193047D01*
X66587714Y-84097809D01*
X66587714Y-83954952D01*
X66635333Y-83859714D01*
X66730571Y-83812095D01*
X67254380Y-83812095D01*
X67254380Y-83335904D02*
X66587714Y-83335904D01*
X66682952Y-83335904D02*
X66635333Y-83288285D01*
X66587714Y-83193047D01*
X66587714Y-83050190D01*
X66635333Y-82954952D01*
X66730571Y-82907333D01*
X67254380Y-82907333D01*
X66730571Y-82907333D02*
X66635333Y-82859714D01*
X66587714Y-82764476D01*
X66587714Y-82621619D01*
X66635333Y-82526380D01*
X66730571Y-82478761D01*
X67254380Y-82478761D01*
X67349619Y-82240666D02*
X67349619Y-81478761D01*
X67254380Y-81240666D02*
X66254380Y-81240666D01*
X66968666Y-80907333D01*
X66254380Y-80574000D01*
X67254380Y-80574000D01*
X67254380Y-79669238D02*
X66730571Y-79669238D01*
X66635333Y-79716857D01*
X66587714Y-79812095D01*
X66587714Y-80002571D01*
X66635333Y-80097809D01*
X67206761Y-79669238D02*
X67254380Y-79764476D01*
X67254380Y-80002571D01*
X67206761Y-80097809D01*
X67111523Y-80145428D01*
X67016285Y-80145428D01*
X66921047Y-80097809D01*
X66873428Y-80002571D01*
X66873428Y-79764476D01*
X66825809Y-79669238D01*
X67206761Y-79240666D02*
X67254380Y-79145428D01*
X67254380Y-78954952D01*
X67206761Y-78859714D01*
X67111523Y-78812095D01*
X67063904Y-78812095D01*
X66968666Y-78859714D01*
X66921047Y-78954952D01*
X66921047Y-79097809D01*
X66873428Y-79193047D01*
X66778190Y-79240666D01*
X66730571Y-79240666D01*
X66635333Y-79193047D01*
X66587714Y-79097809D01*
X66587714Y-78954952D01*
X66635333Y-78859714D01*
X67254380Y-78383523D02*
X66254380Y-78383523D01*
X66873428Y-78288285D02*
X67254380Y-78002571D01*
X66587714Y-78002571D02*
X66968666Y-78383523D01*
X66254380Y-77669238D02*
X66254380Y-77050190D01*
X66635333Y-77383523D01*
X66635333Y-77240666D01*
X66682952Y-77145428D01*
X66730571Y-77097809D01*
X66825809Y-77050190D01*
X67063904Y-77050190D01*
X67159142Y-77097809D01*
X67206761Y-77145428D01*
X67254380Y-77240666D01*
X67254380Y-77526380D01*
X67206761Y-77621619D01*
X67159142Y-77669238D01*
X67254380Y-76621619D02*
X66587714Y-76621619D01*
X66682952Y-76621619D02*
X66635333Y-76574000D01*
X66587714Y-76478761D01*
X66587714Y-76335904D01*
X66635333Y-76240666D01*
X66730571Y-76193047D01*
X67254380Y-76193047D01*
X66730571Y-76193047D02*
X66635333Y-76145428D01*
X66587714Y-76050190D01*
X66587714Y-75907333D01*
X66635333Y-75812095D01*
X66730571Y-75764476D01*
X67254380Y-75764476D01*
X67254380Y-75288285D02*
X66587714Y-75288285D01*
X66682952Y-75288285D02*
X66635333Y-75240666D01*
X66587714Y-75145428D01*
X66587714Y-75002571D01*
X66635333Y-74907333D01*
X66730571Y-74859714D01*
X67254380Y-74859714D01*
X66730571Y-74859714D02*
X66635333Y-74812095D01*
X66587714Y-74716857D01*
X66587714Y-74574000D01*
X66635333Y-74478761D01*
X66730571Y-74431142D01*
X67254380Y-74431142D01*
D12*
X68808666Y-78158952D02*
X68675333Y-77968476D01*
X68580095Y-78158952D02*
X68580095Y-77758952D01*
X68732476Y-77758952D01*
X68770571Y-77778000D01*
X68789619Y-77797047D01*
X68808666Y-77835142D01*
X68808666Y-77892285D01*
X68789619Y-77930380D01*
X68770571Y-77949428D01*
X68732476Y-77968476D01*
X68580095Y-77968476D01*
X68980095Y-77949428D02*
X69113428Y-77949428D01*
X69170571Y-78158952D02*
X68980095Y-78158952D01*
X68980095Y-77758952D01*
X69170571Y-77758952D01*
X69475333Y-77949428D02*
X69342000Y-77949428D01*
X69342000Y-78158952D02*
X69342000Y-77758952D01*
X69532476Y-77758952D01*
X69742000Y-77758952D02*
X69742000Y-77854190D01*
X69646761Y-77816095D02*
X69742000Y-77854190D01*
X69837238Y-77816095D01*
X69684857Y-77930380D02*
X69742000Y-77854190D01*
X69799142Y-77930380D01*
X70046761Y-77758952D02*
X70046761Y-77854190D01*
X69951523Y-77816095D02*
X70046761Y-77854190D01*
X70142000Y-77816095D01*
X69989619Y-77930380D02*
X70046761Y-77854190D01*
X70103904Y-77930380D01*
D11*
X73169238Y-69286380D02*
X73169238Y-68286380D01*
X73502571Y-69000666D01*
X73835904Y-68286380D01*
X73835904Y-69286380D01*
X74454952Y-69286380D02*
X74359714Y-69238761D01*
X74312095Y-69191142D01*
X74264476Y-69095904D01*
X74264476Y-68810190D01*
X74312095Y-68714952D01*
X74359714Y-68667333D01*
X74454952Y-68619714D01*
X74597809Y-68619714D01*
X74693047Y-68667333D01*
X74740666Y-68714952D01*
X74788285Y-68810190D01*
X74788285Y-69095904D01*
X74740666Y-69191142D01*
X74693047Y-69238761D01*
X74597809Y-69286380D01*
X74454952Y-69286380D01*
X75645428Y-68619714D02*
X75645428Y-69286380D01*
X75216857Y-68619714D02*
X75216857Y-69143523D01*
X75264476Y-69238761D01*
X75359714Y-69286380D01*
X75502571Y-69286380D01*
X75597809Y-69238761D01*
X75645428Y-69191142D01*
X76121619Y-68619714D02*
X76121619Y-69286380D01*
X76121619Y-68714952D02*
X76169238Y-68667333D01*
X76264476Y-68619714D01*
X76407333Y-68619714D01*
X76502571Y-68667333D01*
X76550190Y-68762571D01*
X76550190Y-69286380D01*
X76883523Y-68619714D02*
X77264476Y-68619714D01*
X77026380Y-68286380D02*
X77026380Y-69143523D01*
X77074000Y-69238761D01*
X77169238Y-69286380D01*
X77264476Y-69286380D01*
X77597809Y-69286380D02*
X77597809Y-68619714D01*
X77597809Y-68286380D02*
X77550190Y-68334000D01*
X77597809Y-68381619D01*
X77645428Y-68334000D01*
X77597809Y-68286380D01*
X77597809Y-68381619D01*
X78073999Y-68619714D02*
X78073999Y-69286380D01*
X78073999Y-68714952D02*
X78121619Y-68667333D01*
X78216857Y-68619714D01*
X78359714Y-68619714D01*
X78454952Y-68667333D01*
X78502571Y-68762571D01*
X78502571Y-69286380D01*
X79407333Y-68619714D02*
X79407333Y-69429238D01*
X79359714Y-69524476D01*
X79312095Y-69572095D01*
X79216857Y-69619714D01*
X79073999Y-69619714D01*
X78978761Y-69572095D01*
X79407333Y-69238761D02*
X79312095Y-69286380D01*
X79121619Y-69286380D01*
X79026380Y-69238761D01*
X78978761Y-69191142D01*
X78931142Y-69095904D01*
X78931142Y-68810190D01*
X78978761Y-68714952D01*
X79026380Y-68667333D01*
X79121619Y-68619714D01*
X79312095Y-68619714D01*
X79407333Y-68667333D01*
X79883523Y-69286380D02*
X79883523Y-68286380D01*
X79883523Y-68762571D02*
X80454952Y-68762571D01*
X80454952Y-69286380D02*
X80454952Y-68286380D01*
X81073999Y-69286380D02*
X80978761Y-69238761D01*
X80931142Y-69191142D01*
X80883523Y-69095904D01*
X80883523Y-68810190D01*
X80931142Y-68714952D01*
X80978761Y-68667333D01*
X81073999Y-68619714D01*
X81216857Y-68619714D01*
X81312095Y-68667333D01*
X81359714Y-68714952D01*
X81407333Y-68810190D01*
X81407333Y-69095904D01*
X81359714Y-69191142D01*
X81312095Y-69238761D01*
X81216857Y-69286380D01*
X81073999Y-69286380D01*
X81978761Y-69286380D02*
X81883523Y-69238761D01*
X81835904Y-69143523D01*
X81835904Y-68286380D01*
X82740666Y-69238761D02*
X82645428Y-69286380D01*
X82454952Y-69286380D01*
X82359714Y-69238761D01*
X82312095Y-69143523D01*
X82312095Y-68762571D01*
X82359714Y-68667333D01*
X82454952Y-68619714D01*
X82645428Y-68619714D01*
X82740666Y-68667333D01*
X82788285Y-68762571D01*
X82788285Y-68857809D01*
X82312095Y-68953047D01*
X82978761Y-69381619D02*
X83740666Y-69381619D01*
X83883523Y-68286380D02*
X84502571Y-68286380D01*
X84169238Y-68667333D01*
X84312095Y-68667333D01*
X84407333Y-68714952D01*
X84454952Y-68762571D01*
X84502571Y-68857809D01*
X84502571Y-69095904D01*
X84454952Y-69191142D01*
X84407333Y-69238761D01*
X84312095Y-69286380D01*
X84026380Y-69286380D01*
X83931142Y-69238761D01*
X83883523Y-69191142D01*
X84931142Y-69191142D02*
X84978761Y-69238761D01*
X84931142Y-69286380D01*
X84883523Y-69238761D01*
X84931142Y-69191142D01*
X84931142Y-69286380D01*
X85359714Y-68381619D02*
X85407333Y-68334000D01*
X85502571Y-68286380D01*
X85740666Y-68286380D01*
X85835904Y-68334000D01*
X85883523Y-68381619D01*
X85931142Y-68476857D01*
X85931142Y-68572095D01*
X85883523Y-68714952D01*
X85312095Y-69286380D01*
X85931142Y-69286380D01*
X86359714Y-69286380D02*
X86359714Y-68619714D01*
X86359714Y-68714952D02*
X86407333Y-68667333D01*
X86502571Y-68619714D01*
X86645428Y-68619714D01*
X86740666Y-68667333D01*
X86788285Y-68762571D01*
X86788285Y-69286380D01*
X86788285Y-68762571D02*
X86835904Y-68667333D01*
X86931142Y-68619714D01*
X87073999Y-68619714D01*
X87169238Y-68667333D01*
X87216857Y-68762571D01*
X87216857Y-69286380D01*
X87693047Y-69286380D02*
X87693047Y-68619714D01*
X87693047Y-68714952D02*
X87740666Y-68667333D01*
X87835904Y-68619714D01*
X87978761Y-68619714D01*
X88073999Y-68667333D01*
X88121619Y-68762571D01*
X88121619Y-69286380D01*
X88121619Y-68762571D02*
X88169238Y-68667333D01*
X88264476Y-68619714D01*
X88407333Y-68619714D01*
X88502571Y-68667333D01*
X88550190Y-68762571D01*
X88550190Y-69286380D01*
X88788285Y-69381619D02*
X89550190Y-69381619D01*
X89788285Y-69286380D02*
X89788285Y-68286380D01*
X90121619Y-69000666D01*
X90454952Y-68286380D01*
X90454952Y-69286380D01*
X90835904Y-68286380D02*
X91454952Y-68286380D01*
X91121619Y-68667333D01*
X91264476Y-68667333D01*
X91359714Y-68714952D01*
X91407333Y-68762571D01*
X91454952Y-68857809D01*
X91454952Y-69095904D01*
X91407333Y-69191142D01*
X91359714Y-69238761D01*
X91264476Y-69286380D01*
X90978761Y-69286380D01*
X90883523Y-69238761D01*
X90835904Y-69191142D01*
X91645428Y-69381619D02*
X92407333Y-69381619D01*
X92645428Y-69286380D02*
X92645428Y-68286380D01*
X93026380Y-68286380D01*
X93121619Y-68334000D01*
X93169238Y-68381619D01*
X93216857Y-68476857D01*
X93216857Y-68619714D01*
X93169238Y-68714952D01*
X93121619Y-68762571D01*
X93026380Y-68810190D01*
X92645428Y-68810190D01*
X94073999Y-69286380D02*
X94073999Y-68762571D01*
X94026380Y-68667333D01*
X93931142Y-68619714D01*
X93740666Y-68619714D01*
X93645428Y-68667333D01*
X94073999Y-69238761D02*
X93978761Y-69286380D01*
X93740666Y-69286380D01*
X93645428Y-69238761D01*
X93597809Y-69143523D01*
X93597809Y-69048285D01*
X93645428Y-68953047D01*
X93740666Y-68905428D01*
X93978761Y-68905428D01*
X94073999Y-68857809D01*
X94978761Y-69286380D02*
X94978761Y-68286380D01*
X94978761Y-69238761D02*
X94883523Y-69286380D01*
X94693047Y-69286380D01*
X94597809Y-69238761D01*
X94550190Y-69191142D01*
X94502571Y-69095904D01*
X94502571Y-68810190D01*
X94550190Y-68714952D01*
X94597809Y-68667333D01*
X94693047Y-68619714D01*
X94883523Y-68619714D01*
X94978761Y-68667333D01*
X69070666Y-72080380D02*
X68737333Y-71604190D01*
X68499238Y-72080380D02*
X68499238Y-71080380D01*
X68880190Y-71080380D01*
X68975428Y-71128000D01*
X69023047Y-71175619D01*
X69070666Y-71270857D01*
X69070666Y-71413714D01*
X69023047Y-71508952D01*
X68975428Y-71556571D01*
X68880190Y-71604190D01*
X68499238Y-71604190D01*
X69499238Y-71556571D02*
X69832571Y-71556571D01*
X69975428Y-72080380D02*
X69499238Y-72080380D01*
X69499238Y-71080380D01*
X69975428Y-71080380D01*
X70737333Y-71556571D02*
X70404000Y-71556571D01*
X70404000Y-72080380D02*
X70404000Y-71080380D01*
X70880190Y-71080380D01*
X71404000Y-71080380D02*
X71404000Y-71318476D01*
X71165904Y-71223238D02*
X71404000Y-71318476D01*
X71642095Y-71223238D01*
X71261142Y-71508952D02*
X71404000Y-71318476D01*
X71546857Y-71508952D01*
X72165904Y-71080380D02*
X72165904Y-71318476D01*
X71927809Y-71223238D02*
X72165904Y-71318476D01*
X72404000Y-71223238D01*
X72023047Y-71508952D02*
X72165904Y-71318476D01*
X72308761Y-71508952D01*
X73169238Y-105608380D02*
X73169238Y-104608380D01*
X73502571Y-105322666D01*
X73835904Y-104608380D01*
X73835904Y-105608380D01*
X74454952Y-105608380D02*
X74359714Y-105560761D01*
X74312095Y-105513142D01*
X74264476Y-105417904D01*
X74264476Y-105132190D01*
X74312095Y-105036952D01*
X74359714Y-104989333D01*
X74454952Y-104941714D01*
X74597809Y-104941714D01*
X74693047Y-104989333D01*
X74740666Y-105036952D01*
X74788285Y-105132190D01*
X74788285Y-105417904D01*
X74740666Y-105513142D01*
X74693047Y-105560761D01*
X74597809Y-105608380D01*
X74454952Y-105608380D01*
X75645428Y-104941714D02*
X75645428Y-105608380D01*
X75216857Y-104941714D02*
X75216857Y-105465523D01*
X75264476Y-105560761D01*
X75359714Y-105608380D01*
X75502571Y-105608380D01*
X75597809Y-105560761D01*
X75645428Y-105513142D01*
X76121619Y-104941714D02*
X76121619Y-105608380D01*
X76121619Y-105036952D02*
X76169238Y-104989333D01*
X76264476Y-104941714D01*
X76407333Y-104941714D01*
X76502571Y-104989333D01*
X76550190Y-105084571D01*
X76550190Y-105608380D01*
X76883523Y-104941714D02*
X77264476Y-104941714D01*
X77026380Y-104608380D02*
X77026380Y-105465523D01*
X77074000Y-105560761D01*
X77169238Y-105608380D01*
X77264476Y-105608380D01*
X77597809Y-105608380D02*
X77597809Y-104941714D01*
X77597809Y-104608380D02*
X77550190Y-104656000D01*
X77597809Y-104703619D01*
X77645428Y-104656000D01*
X77597809Y-104608380D01*
X77597809Y-104703619D01*
X78073999Y-104941714D02*
X78073999Y-105608380D01*
X78073999Y-105036952D02*
X78121619Y-104989333D01*
X78216857Y-104941714D01*
X78359714Y-104941714D01*
X78454952Y-104989333D01*
X78502571Y-105084571D01*
X78502571Y-105608380D01*
X79407333Y-104941714D02*
X79407333Y-105751238D01*
X79359714Y-105846476D01*
X79312095Y-105894095D01*
X79216857Y-105941714D01*
X79073999Y-105941714D01*
X78978761Y-105894095D01*
X79407333Y-105560761D02*
X79312095Y-105608380D01*
X79121619Y-105608380D01*
X79026380Y-105560761D01*
X78978761Y-105513142D01*
X78931142Y-105417904D01*
X78931142Y-105132190D01*
X78978761Y-105036952D01*
X79026380Y-104989333D01*
X79121619Y-104941714D01*
X79312095Y-104941714D01*
X79407333Y-104989333D01*
X79883523Y-105608380D02*
X79883523Y-104608380D01*
X79883523Y-105084571D02*
X80454952Y-105084571D01*
X80454952Y-105608380D02*
X80454952Y-104608380D01*
X81073999Y-105608380D02*
X80978761Y-105560761D01*
X80931142Y-105513142D01*
X80883523Y-105417904D01*
X80883523Y-105132190D01*
X80931142Y-105036952D01*
X80978761Y-104989333D01*
X81073999Y-104941714D01*
X81216857Y-104941714D01*
X81312095Y-104989333D01*
X81359714Y-105036952D01*
X81407333Y-105132190D01*
X81407333Y-105417904D01*
X81359714Y-105513142D01*
X81312095Y-105560761D01*
X81216857Y-105608380D01*
X81073999Y-105608380D01*
X81978761Y-105608380D02*
X81883523Y-105560761D01*
X81835904Y-105465523D01*
X81835904Y-104608380D01*
X82740666Y-105560761D02*
X82645428Y-105608380D01*
X82454952Y-105608380D01*
X82359714Y-105560761D01*
X82312095Y-105465523D01*
X82312095Y-105084571D01*
X82359714Y-104989333D01*
X82454952Y-104941714D01*
X82645428Y-104941714D01*
X82740666Y-104989333D01*
X82788285Y-105084571D01*
X82788285Y-105179809D01*
X82312095Y-105275047D01*
X82978761Y-105703619D02*
X83740666Y-105703619D01*
X83883523Y-104608380D02*
X84502571Y-104608380D01*
X84169238Y-104989333D01*
X84312095Y-104989333D01*
X84407333Y-105036952D01*
X84454952Y-105084571D01*
X84502571Y-105179809D01*
X84502571Y-105417904D01*
X84454952Y-105513142D01*
X84407333Y-105560761D01*
X84312095Y-105608380D01*
X84026380Y-105608380D01*
X83931142Y-105560761D01*
X83883523Y-105513142D01*
X84931142Y-105513142D02*
X84978761Y-105560761D01*
X84931142Y-105608380D01*
X84883523Y-105560761D01*
X84931142Y-105513142D01*
X84931142Y-105608380D01*
X85359714Y-104703619D02*
X85407333Y-104656000D01*
X85502571Y-104608380D01*
X85740666Y-104608380D01*
X85835904Y-104656000D01*
X85883523Y-104703619D01*
X85931142Y-104798857D01*
X85931142Y-104894095D01*
X85883523Y-105036952D01*
X85312095Y-105608380D01*
X85931142Y-105608380D01*
X86359714Y-105608380D02*
X86359714Y-104941714D01*
X86359714Y-105036952D02*
X86407333Y-104989333D01*
X86502571Y-104941714D01*
X86645428Y-104941714D01*
X86740666Y-104989333D01*
X86788285Y-105084571D01*
X86788285Y-105608380D01*
X86788285Y-105084571D02*
X86835904Y-104989333D01*
X86931142Y-104941714D01*
X87073999Y-104941714D01*
X87169238Y-104989333D01*
X87216857Y-105084571D01*
X87216857Y-105608380D01*
X87693047Y-105608380D02*
X87693047Y-104941714D01*
X87693047Y-105036952D02*
X87740666Y-104989333D01*
X87835904Y-104941714D01*
X87978761Y-104941714D01*
X88073999Y-104989333D01*
X88121619Y-105084571D01*
X88121619Y-105608380D01*
X88121619Y-105084571D02*
X88169238Y-104989333D01*
X88264476Y-104941714D01*
X88407333Y-104941714D01*
X88502571Y-104989333D01*
X88550190Y-105084571D01*
X88550190Y-105608380D01*
X88788285Y-105703619D02*
X89550190Y-105703619D01*
X89788285Y-105608380D02*
X89788285Y-104608380D01*
X90121619Y-105322666D01*
X90454952Y-104608380D01*
X90454952Y-105608380D01*
X90835904Y-104608380D02*
X91454952Y-104608380D01*
X91121619Y-104989333D01*
X91264476Y-104989333D01*
X91359714Y-105036952D01*
X91407333Y-105084571D01*
X91454952Y-105179809D01*
X91454952Y-105417904D01*
X91407333Y-105513142D01*
X91359714Y-105560761D01*
X91264476Y-105608380D01*
X90978761Y-105608380D01*
X90883523Y-105560761D01*
X90835904Y-105513142D01*
X91645428Y-105703619D02*
X92407333Y-105703619D01*
X92645428Y-105608380D02*
X92645428Y-104608380D01*
X93026380Y-104608380D01*
X93121619Y-104656000D01*
X93169238Y-104703619D01*
X93216857Y-104798857D01*
X93216857Y-104941714D01*
X93169238Y-105036952D01*
X93121619Y-105084571D01*
X93026380Y-105132190D01*
X92645428Y-105132190D01*
X94073999Y-105608380D02*
X94073999Y-105084571D01*
X94026380Y-104989333D01*
X93931142Y-104941714D01*
X93740666Y-104941714D01*
X93645428Y-104989333D01*
X94073999Y-105560761D02*
X93978761Y-105608380D01*
X93740666Y-105608380D01*
X93645428Y-105560761D01*
X93597809Y-105465523D01*
X93597809Y-105370285D01*
X93645428Y-105275047D01*
X93740666Y-105227428D01*
X93978761Y-105227428D01*
X94073999Y-105179809D01*
X94978761Y-105608380D02*
X94978761Y-104608380D01*
X94978761Y-105560761D02*
X94883523Y-105608380D01*
X94693047Y-105608380D01*
X94597809Y-105560761D01*
X94550190Y-105513142D01*
X94502571Y-105417904D01*
X94502571Y-105132190D01*
X94550190Y-105036952D01*
X94597809Y-104989333D01*
X94693047Y-104941714D01*
X94883523Y-104941714D01*
X94978761Y-104989333D01*
X69070666Y-102560380D02*
X68737333Y-102084190D01*
X68499238Y-102560380D02*
X68499238Y-101560380D01*
X68880190Y-101560380D01*
X68975428Y-101608000D01*
X69023047Y-101655619D01*
X69070666Y-101750857D01*
X69070666Y-101893714D01*
X69023047Y-101988952D01*
X68975428Y-102036571D01*
X68880190Y-102084190D01*
X68499238Y-102084190D01*
X69499238Y-102036571D02*
X69832571Y-102036571D01*
X69975428Y-102560380D02*
X69499238Y-102560380D01*
X69499238Y-101560380D01*
X69975428Y-101560380D01*
X70737333Y-102036571D02*
X70404000Y-102036571D01*
X70404000Y-102560380D02*
X70404000Y-101560380D01*
X70880190Y-101560380D01*
X71404000Y-101560380D02*
X71404000Y-101798476D01*
X71165904Y-101703238D02*
X71404000Y-101798476D01*
X71642095Y-101703238D01*
X71261142Y-101988952D02*
X71404000Y-101798476D01*
X71546857Y-101988952D01*
X72165904Y-101560380D02*
X72165904Y-101798476D01*
X71927809Y-101703238D02*
X72165904Y-101798476D01*
X72404000Y-101703238D01*
X72023047Y-101988952D02*
X72165904Y-101798476D01*
X72308761Y-101988952D01*
G04 #@! TO.C,J1*
X74667380Y-96265904D02*
X75476904Y-96265904D01*
X75572142Y-96218285D01*
X75619761Y-96170666D01*
X75667380Y-96075428D01*
X75667380Y-95884952D01*
X75619761Y-95789714D01*
X75572142Y-95742095D01*
X75476904Y-95694476D01*
X74667380Y-95694476D01*
X75619761Y-95265904D02*
X75667380Y-95123047D01*
X75667380Y-94884952D01*
X75619761Y-94789714D01*
X75572142Y-94742095D01*
X75476904Y-94694476D01*
X75381666Y-94694476D01*
X75286428Y-94742095D01*
X75238809Y-94789714D01*
X75191190Y-94884952D01*
X75143571Y-95075428D01*
X75095952Y-95170666D01*
X75048333Y-95218285D01*
X74953095Y-95265904D01*
X74857857Y-95265904D01*
X74762619Y-95218285D01*
X74715000Y-95170666D01*
X74667380Y-95075428D01*
X74667380Y-94837333D01*
X74715000Y-94694476D01*
X75143571Y-93932571D02*
X75191190Y-93789714D01*
X75238809Y-93742095D01*
X75334047Y-93694476D01*
X75476904Y-93694476D01*
X75572142Y-93742095D01*
X75619761Y-93789714D01*
X75667380Y-93884952D01*
X75667380Y-94265904D01*
X74667380Y-94265904D01*
X74667380Y-93932571D01*
X74715000Y-93837333D01*
X74762619Y-93789714D01*
X74857857Y-93742095D01*
X74953095Y-93742095D01*
X75048333Y-93789714D01*
X75095952Y-93837333D01*
X75143571Y-93932571D01*
X75143571Y-94265904D01*
X75000714Y-92837333D02*
X75667380Y-92837333D01*
X74619761Y-93075428D02*
X75334047Y-93313523D01*
X75334047Y-92694476D01*
X75667380Y-91789714D02*
X75667380Y-92361142D01*
X75667380Y-92075428D02*
X74667380Y-92075428D01*
X74810238Y-92170666D01*
X74905476Y-92265904D01*
X74953095Y-92361142D01*
X74667380Y-91170666D02*
X74667380Y-91075428D01*
X74715000Y-90980190D01*
X74762619Y-90932571D01*
X74857857Y-90884952D01*
X75048333Y-90837333D01*
X75286428Y-90837333D01*
X75476904Y-90884952D01*
X75572142Y-90932571D01*
X75619761Y-90980190D01*
X75667380Y-91075428D01*
X75667380Y-91170666D01*
X75619761Y-91265904D01*
X75572142Y-91313523D01*
X75476904Y-91361142D01*
X75286428Y-91408761D01*
X75048333Y-91408761D01*
X74857857Y-91361142D01*
X74762619Y-91313523D01*
X74715000Y-91265904D01*
X74667380Y-91170666D01*
X74667380Y-89932571D02*
X74667380Y-90408761D01*
X75143571Y-90456380D01*
X75095952Y-90408761D01*
X75048333Y-90313523D01*
X75048333Y-90075428D01*
X75095952Y-89980190D01*
X75143571Y-89932571D01*
X75238809Y-89884952D01*
X75476904Y-89884952D01*
X75572142Y-89932571D01*
X75619761Y-89980190D01*
X75667380Y-90075428D01*
X75667380Y-90313523D01*
X75619761Y-90408761D01*
X75572142Y-90456380D01*
X75286428Y-89456380D02*
X75286428Y-88694476D01*
X74715000Y-87694476D02*
X74667380Y-87789714D01*
X74667380Y-87932571D01*
X74715000Y-88075428D01*
X74810238Y-88170666D01*
X74905476Y-88218285D01*
X75095952Y-88265904D01*
X75238809Y-88265904D01*
X75429285Y-88218285D01*
X75524523Y-88170666D01*
X75619761Y-88075428D01*
X75667380Y-87932571D01*
X75667380Y-87837333D01*
X75619761Y-87694476D01*
X75572142Y-87646857D01*
X75238809Y-87646857D01*
X75238809Y-87837333D01*
X75143571Y-86884952D02*
X75143571Y-87218285D01*
X75667380Y-87218285D02*
X74667380Y-87218285D01*
X74667380Y-86742095D01*
X75286428Y-86361142D02*
X75286428Y-85599238D01*
X75381666Y-85170666D02*
X75381666Y-84694476D01*
X75667380Y-85265904D02*
X74667380Y-84932571D01*
X75667380Y-84599238D01*
D13*
X66224761Y-91879238D02*
X65904761Y-91879238D01*
X65904761Y-91757333D01*
X65920000Y-91726857D01*
X65935238Y-91711619D01*
X65965714Y-91696380D01*
X66011428Y-91696380D01*
X66041904Y-91711619D01*
X66057142Y-91726857D01*
X66072380Y-91757333D01*
X66072380Y-91879238D01*
X66194285Y-91376380D02*
X66209523Y-91391619D01*
X66224761Y-91437333D01*
X66224761Y-91467809D01*
X66209523Y-91513523D01*
X66179047Y-91544000D01*
X66148571Y-91559238D01*
X66087619Y-91574476D01*
X66041904Y-91574476D01*
X65980952Y-91559238D01*
X65950476Y-91544000D01*
X65920000Y-91513523D01*
X65904761Y-91467809D01*
X65904761Y-91437333D01*
X65920000Y-91391619D01*
X65935238Y-91376380D01*
X66057142Y-91132571D02*
X66072380Y-91086857D01*
X66087619Y-91071619D01*
X66118095Y-91056380D01*
X66163809Y-91056380D01*
X66194285Y-91071619D01*
X66209523Y-91086857D01*
X66224761Y-91117333D01*
X66224761Y-91239238D01*
X65904761Y-91239238D01*
X65904761Y-91132571D01*
X65920000Y-91102095D01*
X65935238Y-91086857D01*
X65965714Y-91071619D01*
X65996190Y-91071619D01*
X66026666Y-91086857D01*
X66041904Y-91102095D01*
X66057142Y-91132571D01*
X66057142Y-91239238D01*
X66057142Y-90675428D02*
X66057142Y-90568761D01*
X66224761Y-90523047D02*
X66224761Y-90675428D01*
X65904761Y-90675428D01*
X65904761Y-90523047D01*
X66224761Y-90385904D02*
X65904761Y-90385904D01*
X65904761Y-90309714D01*
X65920000Y-90264000D01*
X65950476Y-90233523D01*
X65980952Y-90218285D01*
X66041904Y-90203047D01*
X66087619Y-90203047D01*
X66148571Y-90218285D01*
X66179047Y-90233523D01*
X66209523Y-90264000D01*
X66224761Y-90309714D01*
X66224761Y-90385904D01*
X65920000Y-89898285D02*
X65904761Y-89928761D01*
X65904761Y-89974476D01*
X65920000Y-90020190D01*
X65950476Y-90050666D01*
X65980952Y-90065904D01*
X66041904Y-90081142D01*
X66087619Y-90081142D01*
X66148571Y-90065904D01*
X66179047Y-90050666D01*
X66209523Y-90020190D01*
X66224761Y-89974476D01*
X66224761Y-89944000D01*
X66209523Y-89898285D01*
X66194285Y-89883047D01*
X66087619Y-89883047D01*
X66087619Y-89944000D01*
X66057142Y-89745904D02*
X66057142Y-89639238D01*
X66224761Y-89593523D02*
X66224761Y-89745904D01*
X65904761Y-89745904D01*
X65904761Y-89593523D01*
D11*
G04 #@! TO.C,R5*
X94443619Y-85407285D02*
X94396000Y-85359666D01*
X94348380Y-85264428D01*
X94348380Y-85026333D01*
X94396000Y-84931095D01*
X94443619Y-84883476D01*
X94538857Y-84835857D01*
X94634095Y-84835857D01*
X94776952Y-84883476D01*
X95348380Y-85454904D01*
X95348380Y-84835857D01*
X94443619Y-84454904D02*
X94396000Y-84407285D01*
X94348380Y-84312047D01*
X94348380Y-84073952D01*
X94396000Y-83978714D01*
X94443619Y-83931095D01*
X94538857Y-83883476D01*
X94634095Y-83883476D01*
X94776952Y-83931095D01*
X95348380Y-84502523D01*
X95348380Y-83883476D01*
X94348380Y-83264428D02*
X94348380Y-83169190D01*
X94396000Y-83073952D01*
X94443619Y-83026333D01*
X94538857Y-82978714D01*
X94729333Y-82931095D01*
X94967428Y-82931095D01*
X95157904Y-82978714D01*
X95253142Y-83026333D01*
X95300761Y-83073952D01*
X95348380Y-83169190D01*
X95348380Y-83264428D01*
X95300761Y-83359666D01*
X95253142Y-83407285D01*
X95157904Y-83454904D01*
X94967428Y-83502523D01*
X94729333Y-83502523D01*
X94538857Y-83454904D01*
X94443619Y-83407285D01*
X94396000Y-83359666D01*
X94348380Y-83264428D01*
X94348380Y-82312047D02*
X94348380Y-82216809D01*
X94396000Y-82121571D01*
X94443619Y-82073952D01*
X94538857Y-82026333D01*
X94729333Y-81978714D01*
X94967428Y-81978714D01*
X95157904Y-82026333D01*
X95253142Y-82073952D01*
X95300761Y-82121571D01*
X95348380Y-82216809D01*
X95348380Y-82312047D01*
X95300761Y-82407285D01*
X95253142Y-82454904D01*
X95157904Y-82502523D01*
X94967428Y-82550142D01*
X94729333Y-82550142D01*
X94538857Y-82502523D01*
X94443619Y-82454904D01*
X94396000Y-82407285D01*
X94348380Y-82312047D01*
D14*
X93843619Y-83736333D02*
X93719809Y-83823000D01*
X93843619Y-83884904D02*
X93583619Y-83884904D01*
X93583619Y-83785857D01*
X93596000Y-83761095D01*
X93608380Y-83748714D01*
X93633142Y-83736333D01*
X93670285Y-83736333D01*
X93695047Y-83748714D01*
X93707428Y-83761095D01*
X93719809Y-83785857D01*
X93719809Y-83884904D01*
X93583619Y-83501095D02*
X93583619Y-83624904D01*
X93707428Y-83637285D01*
X93695047Y-83624904D01*
X93682666Y-83600142D01*
X93682666Y-83538238D01*
X93695047Y-83513476D01*
X93707428Y-83501095D01*
X93732190Y-83488714D01*
X93794095Y-83488714D01*
X93818857Y-83501095D01*
X93831238Y-83513476D01*
X93843619Y-83538238D01*
X93843619Y-83600142D01*
X93831238Y-83624904D01*
X93818857Y-83637285D01*
D11*
G04 #@! TO.C,R1*
X74422095Y-86669619D02*
X74469714Y-86622000D01*
X74564952Y-86574380D01*
X74803047Y-86574380D01*
X74898285Y-86622000D01*
X74945904Y-86669619D01*
X74993523Y-86764857D01*
X74993523Y-86860095D01*
X74945904Y-87002952D01*
X74374476Y-87574380D01*
X74993523Y-87574380D01*
X75374476Y-86669619D02*
X75422095Y-86622000D01*
X75517333Y-86574380D01*
X75755428Y-86574380D01*
X75850666Y-86622000D01*
X75898285Y-86669619D01*
X75945904Y-86764857D01*
X75945904Y-86860095D01*
X75898285Y-87002952D01*
X75326857Y-87574380D01*
X75945904Y-87574380D01*
D14*
X75140666Y-85969619D02*
X75054000Y-85845809D01*
X74992095Y-85969619D02*
X74992095Y-85709619D01*
X75091142Y-85709619D01*
X75115904Y-85722000D01*
X75128285Y-85734380D01*
X75140666Y-85759142D01*
X75140666Y-85796285D01*
X75128285Y-85821047D01*
X75115904Y-85833428D01*
X75091142Y-85845809D01*
X74992095Y-85845809D01*
X75388285Y-85969619D02*
X75239714Y-85969619D01*
X75314000Y-85969619D02*
X75314000Y-85709619D01*
X75289238Y-85746761D01*
X75264476Y-85771523D01*
X75239714Y-85783904D01*
D11*
G04 #@! TO.C,D1*
X90924142Y-86144380D02*
X90447952Y-86144380D01*
X90447952Y-85144380D01*
X91257476Y-85620571D02*
X91590809Y-85620571D01*
X91733666Y-86144380D02*
X91257476Y-86144380D01*
X91257476Y-85144380D01*
X91733666Y-85144380D01*
X92162238Y-86144380D02*
X92162238Y-85144380D01*
X92400333Y-85144380D01*
X92543190Y-85192000D01*
X92638428Y-85287238D01*
X92686047Y-85382476D01*
X92733666Y-85572952D01*
X92733666Y-85715809D01*
X92686047Y-85906285D01*
X92638428Y-86001523D01*
X92543190Y-86096761D01*
X92400333Y-86144380D01*
X92162238Y-86144380D01*
D12*
X91271761Y-87302952D02*
X91271761Y-86902952D01*
X91367000Y-86902952D01*
X91424142Y-86922000D01*
X91462238Y-86960095D01*
X91481285Y-86998190D01*
X91500333Y-87074380D01*
X91500333Y-87131523D01*
X91481285Y-87207714D01*
X91462238Y-87245809D01*
X91424142Y-87283904D01*
X91367000Y-87302952D01*
X91271761Y-87302952D01*
X91881285Y-87302952D02*
X91652714Y-87302952D01*
X91767000Y-87302952D02*
X91767000Y-86902952D01*
X91728904Y-86960095D01*
X91690809Y-86998190D01*
X91652714Y-87017238D01*
D11*
G04 #@! TO.C,C3*
X83636380Y-79338857D02*
X83636380Y-79243619D01*
X83684000Y-79148380D01*
X83731619Y-79100761D01*
X83826857Y-79053142D01*
X84017333Y-79005523D01*
X84255428Y-79005523D01*
X84445904Y-79053142D01*
X84541142Y-79100761D01*
X84588761Y-79148380D01*
X84636380Y-79243619D01*
X84636380Y-79338857D01*
X84588761Y-79434095D01*
X84541142Y-79481714D01*
X84445904Y-79529333D01*
X84255428Y-79576952D01*
X84017333Y-79576952D01*
X83826857Y-79529333D01*
X83731619Y-79481714D01*
X83684000Y-79434095D01*
X83636380Y-79338857D01*
X84541142Y-78576952D02*
X84588761Y-78529333D01*
X84636380Y-78576952D01*
X84588761Y-78624571D01*
X84541142Y-78576952D01*
X84636380Y-78576952D01*
X84636380Y-77576952D02*
X84636380Y-78148380D01*
X84636380Y-77862666D02*
X83636380Y-77862666D01*
X83779238Y-77957904D01*
X83874476Y-78053142D01*
X83922095Y-78148380D01*
X83969714Y-76719809D02*
X84636380Y-76719809D01*
X83969714Y-77148380D02*
X84493523Y-77148380D01*
X84588761Y-77100761D01*
X84636380Y-77005523D01*
X84636380Y-76862666D01*
X84588761Y-76767428D01*
X84541142Y-76719809D01*
X84112571Y-75910285D02*
X84112571Y-76243619D01*
X84636380Y-76243619D02*
X83636380Y-76243619D01*
X83636380Y-75767428D01*
D14*
X85433285Y-77737666D02*
X85445190Y-77749571D01*
X85457095Y-77785285D01*
X85457095Y-77809095D01*
X85445190Y-77844809D01*
X85421380Y-77868619D01*
X85397571Y-77880523D01*
X85349952Y-77892428D01*
X85314238Y-77892428D01*
X85266619Y-77880523D01*
X85242809Y-77868619D01*
X85219000Y-77844809D01*
X85207095Y-77809095D01*
X85207095Y-77785285D01*
X85219000Y-77749571D01*
X85230904Y-77737666D01*
X85207095Y-77654333D02*
X85207095Y-77499571D01*
X85302333Y-77582904D01*
X85302333Y-77547190D01*
X85314238Y-77523380D01*
X85326142Y-77511476D01*
X85349952Y-77499571D01*
X85409476Y-77499571D01*
X85433285Y-77511476D01*
X85445190Y-77523380D01*
X85457095Y-77547190D01*
X85457095Y-77618619D01*
X85445190Y-77642428D01*
X85433285Y-77654333D01*
D10*
G04 #@! TO.C,U1*
X88388904Y-92530666D02*
X88865095Y-92530666D01*
X88293666Y-92816380D02*
X88627000Y-91816380D01*
X88960333Y-92816380D01*
X89150809Y-91816380D02*
X89722238Y-91816380D01*
X89436523Y-92816380D02*
X89436523Y-91816380D01*
X90055571Y-92816380D02*
X90055571Y-91816380D01*
X90388904Y-92530666D01*
X90722238Y-91816380D01*
X90722238Y-92816380D01*
X91198428Y-92292571D02*
X91531761Y-92292571D01*
X91674619Y-92816380D02*
X91198428Y-92816380D01*
X91198428Y-91816380D01*
X91674619Y-91816380D01*
X92627000Y-91864000D02*
X92531761Y-91816380D01*
X92388904Y-91816380D01*
X92246047Y-91864000D01*
X92150809Y-91959238D01*
X92103190Y-92054476D01*
X92055571Y-92244952D01*
X92055571Y-92387809D01*
X92103190Y-92578285D01*
X92150809Y-92673523D01*
X92246047Y-92768761D01*
X92388904Y-92816380D01*
X92484142Y-92816380D01*
X92627000Y-92768761D01*
X92674619Y-92721142D01*
X92674619Y-92387809D01*
X92484142Y-92387809D01*
X93055571Y-92530666D02*
X93531761Y-92530666D01*
X92960333Y-92816380D02*
X93293666Y-91816380D01*
X93627000Y-92816380D01*
X93865095Y-91816380D02*
X94484142Y-91816380D01*
X94150809Y-92197333D01*
X94293666Y-92197333D01*
X94388904Y-92244952D01*
X94436523Y-92292571D01*
X94484142Y-92387809D01*
X94484142Y-92625904D01*
X94436523Y-92721142D01*
X94388904Y-92768761D01*
X94293666Y-92816380D01*
X94007952Y-92816380D01*
X93912714Y-92768761D01*
X93865095Y-92721142D01*
X94865095Y-91911619D02*
X94912714Y-91864000D01*
X95007952Y-91816380D01*
X95246047Y-91816380D01*
X95341285Y-91864000D01*
X95388904Y-91911619D01*
X95436523Y-92006857D01*
X95436523Y-92102095D01*
X95388904Y-92244952D01*
X94817476Y-92816380D01*
X95436523Y-92816380D01*
X95865095Y-91816380D02*
X95865095Y-92625904D01*
X95912714Y-92721142D01*
X95960333Y-92768761D01*
X96055571Y-92816380D01*
X96246047Y-92816380D01*
X96341285Y-92768761D01*
X96388904Y-92721142D01*
X96436523Y-92625904D01*
X96436523Y-91816380D01*
X97341285Y-92149714D02*
X97341285Y-92816380D01*
X97103190Y-91768761D02*
X96865095Y-92483047D01*
X97484142Y-92483047D01*
X97865095Y-92435428D02*
X98627000Y-92435428D01*
X99103190Y-92816380D02*
X99103190Y-91816380D01*
X99436523Y-92530666D01*
X99769857Y-91816380D01*
X99769857Y-92816380D01*
X100246047Y-91816380D02*
X100246047Y-92625904D01*
X100293666Y-92721142D01*
X100341285Y-92768761D01*
X100436523Y-92816380D01*
X100627000Y-92816380D01*
X100722238Y-92768761D01*
X100769857Y-92721142D01*
X100817476Y-92625904D01*
X100817476Y-91816380D01*
D11*
G04 #@! TO.C,R9*
X75348809Y-87744380D02*
X74872619Y-87744380D01*
X74825000Y-88220571D01*
X74872619Y-88172952D01*
X74967857Y-88125333D01*
X75205952Y-88125333D01*
X75301190Y-88172952D01*
X75348809Y-88220571D01*
X75396428Y-88315809D01*
X75396428Y-88553904D01*
X75348809Y-88649142D01*
X75301190Y-88696761D01*
X75205952Y-88744380D01*
X74967857Y-88744380D01*
X74872619Y-88696761D01*
X74825000Y-88649142D01*
X75825000Y-88649142D02*
X75872619Y-88696761D01*
X75825000Y-88744380D01*
X75777380Y-88696761D01*
X75825000Y-88649142D01*
X75825000Y-88744380D01*
X76825000Y-88744380D02*
X76253571Y-88744380D01*
X76539285Y-88744380D02*
X76539285Y-87744380D01*
X76444047Y-87887238D01*
X76348809Y-87982476D01*
X76253571Y-88030095D01*
X77253571Y-88744380D02*
X77253571Y-87744380D01*
X77825000Y-88744380D02*
X77396428Y-88172952D01*
X77825000Y-87744380D02*
X77253571Y-88315809D01*
D14*
X76281666Y-87239619D02*
X76195000Y-87115809D01*
X76133095Y-87239619D02*
X76133095Y-86979619D01*
X76232142Y-86979619D01*
X76256904Y-86992000D01*
X76269285Y-87004380D01*
X76281666Y-87029142D01*
X76281666Y-87066285D01*
X76269285Y-87091047D01*
X76256904Y-87103428D01*
X76232142Y-87115809D01*
X76133095Y-87115809D01*
X76405476Y-87239619D02*
X76455000Y-87239619D01*
X76479761Y-87227238D01*
X76492142Y-87214857D01*
X76516904Y-87177714D01*
X76529285Y-87128190D01*
X76529285Y-87029142D01*
X76516904Y-87004380D01*
X76504523Y-86992000D01*
X76479761Y-86979619D01*
X76430238Y-86979619D01*
X76405476Y-86992000D01*
X76393095Y-87004380D01*
X76380714Y-87029142D01*
X76380714Y-87091047D01*
X76393095Y-87115809D01*
X76405476Y-87128190D01*
X76430238Y-87140571D01*
X76479761Y-87140571D01*
X76504523Y-87128190D01*
X76516904Y-87115809D01*
X76529285Y-87091047D01*
D11*
G04 #@! TO.C,SW1*
X82915761Y-107093761D02*
X83058619Y-107141380D01*
X83296714Y-107141380D01*
X83391952Y-107093761D01*
X83439571Y-107046142D01*
X83487190Y-106950904D01*
X83487190Y-106855666D01*
X83439571Y-106760428D01*
X83391952Y-106712809D01*
X83296714Y-106665190D01*
X83106238Y-106617571D01*
X83011000Y-106569952D01*
X82963380Y-106522333D01*
X82915761Y-106427095D01*
X82915761Y-106331857D01*
X82963380Y-106236619D01*
X83011000Y-106189000D01*
X83106238Y-106141380D01*
X83344333Y-106141380D01*
X83487190Y-106189000D01*
X83820523Y-106141380D02*
X84058619Y-107141380D01*
X84249095Y-106427095D01*
X84439571Y-107141380D01*
X84677666Y-106141380D01*
X84820523Y-107236619D02*
X85582428Y-107236619D01*
X85820523Y-107141380D02*
X85820523Y-106141380D01*
X86201476Y-106141380D01*
X86296714Y-106189000D01*
X86344333Y-106236619D01*
X86391952Y-106331857D01*
X86391952Y-106474714D01*
X86344333Y-106569952D01*
X86296714Y-106617571D01*
X86201476Y-106665190D01*
X85820523Y-106665190D01*
X87249095Y-106474714D02*
X87249095Y-107141380D01*
X86820523Y-106474714D02*
X86820523Y-106998523D01*
X86868142Y-107093761D01*
X86963380Y-107141380D01*
X87106238Y-107141380D01*
X87201476Y-107093761D01*
X87249095Y-107046142D01*
X87677666Y-107093761D02*
X87772904Y-107141380D01*
X87963380Y-107141380D01*
X88058619Y-107093761D01*
X88106238Y-106998523D01*
X88106238Y-106950904D01*
X88058619Y-106855666D01*
X87963380Y-106808047D01*
X87820523Y-106808047D01*
X87725285Y-106760428D01*
X87677666Y-106665190D01*
X87677666Y-106617571D01*
X87725285Y-106522333D01*
X87820523Y-106474714D01*
X87963380Y-106474714D01*
X88058619Y-106522333D01*
X88534809Y-107141380D02*
X88534809Y-106141380D01*
X88963380Y-107141380D02*
X88963380Y-106617571D01*
X88915761Y-106522333D01*
X88820523Y-106474714D01*
X88677666Y-106474714D01*
X88582428Y-106522333D01*
X88534809Y-106569952D01*
X89201476Y-107236619D02*
X89963380Y-107236619D01*
X90201476Y-107141380D02*
X90201476Y-106141380D01*
X90439571Y-106141380D01*
X90582428Y-106189000D01*
X90677666Y-106284238D01*
X90725285Y-106379476D01*
X90772904Y-106569952D01*
X90772904Y-106712809D01*
X90725285Y-106903285D01*
X90677666Y-106998523D01*
X90582428Y-107093761D01*
X90439571Y-107141380D01*
X90201476Y-107141380D01*
X91630047Y-106474714D02*
X91630047Y-107141380D01*
X91201476Y-106474714D02*
X91201476Y-106998523D01*
X91249095Y-107093761D01*
X91344333Y-107141380D01*
X91487190Y-107141380D01*
X91582428Y-107093761D01*
X91630047Y-107046142D01*
X92534809Y-107141380D02*
X92534809Y-106617571D01*
X92487190Y-106522333D01*
X92391952Y-106474714D01*
X92201476Y-106474714D01*
X92106238Y-106522333D01*
X92534809Y-107093761D02*
X92439571Y-107141380D01*
X92201476Y-107141380D01*
X92106238Y-107093761D01*
X92058619Y-106998523D01*
X92058619Y-106903285D01*
X92106238Y-106808047D01*
X92201476Y-106760428D01*
X92439571Y-106760428D01*
X92534809Y-106712809D01*
X93153857Y-107141380D02*
X93058619Y-107093761D01*
X93011000Y-106998523D01*
X93011000Y-106141380D01*
X86677666Y-100693761D02*
X86820523Y-100741380D01*
X87058619Y-100741380D01*
X87153857Y-100693761D01*
X87201476Y-100646142D01*
X87249095Y-100550904D01*
X87249095Y-100455666D01*
X87201476Y-100360428D01*
X87153857Y-100312809D01*
X87058619Y-100265190D01*
X86868142Y-100217571D01*
X86772904Y-100169952D01*
X86725285Y-100122333D01*
X86677666Y-100027095D01*
X86677666Y-99931857D01*
X86725285Y-99836619D01*
X86772904Y-99789000D01*
X86868142Y-99741380D01*
X87106238Y-99741380D01*
X87249095Y-99789000D01*
X87582428Y-99741380D02*
X87820523Y-100741380D01*
X88011000Y-100027095D01*
X88201476Y-100741380D01*
X88439571Y-99741380D01*
X89344333Y-100741380D02*
X88772904Y-100741380D01*
X89058619Y-100741380D02*
X89058619Y-99741380D01*
X88963380Y-99884238D01*
X88868142Y-99979476D01*
X88772904Y-100027095D01*
G04 #@! TO.C,C1*
X82604380Y-78291238D02*
X82604380Y-78862666D01*
X82604380Y-78576952D02*
X81604380Y-78576952D01*
X81747238Y-78672190D01*
X81842476Y-78767428D01*
X81890095Y-78862666D01*
X81937714Y-77434095D02*
X82604380Y-77434095D01*
X81937714Y-77862666D02*
X82461523Y-77862666D01*
X82556761Y-77815047D01*
X82604380Y-77719809D01*
X82604380Y-77576952D01*
X82556761Y-77481714D01*
X82509142Y-77434095D01*
X82080571Y-76624571D02*
X82080571Y-76957904D01*
X82604380Y-76957904D02*
X81604380Y-76957904D01*
X81604380Y-76481714D01*
D14*
X83401285Y-77737666D02*
X83413190Y-77749571D01*
X83425095Y-77785285D01*
X83425095Y-77809095D01*
X83413190Y-77844809D01*
X83389380Y-77868619D01*
X83365571Y-77880523D01*
X83317952Y-77892428D01*
X83282238Y-77892428D01*
X83234619Y-77880523D01*
X83210809Y-77868619D01*
X83187000Y-77844809D01*
X83175095Y-77809095D01*
X83175095Y-77785285D01*
X83187000Y-77749571D01*
X83198904Y-77737666D01*
X83425095Y-77499571D02*
X83425095Y-77642428D01*
X83425095Y-77571000D02*
X83175095Y-77571000D01*
X83210809Y-77594809D01*
X83234619Y-77618619D01*
X83246523Y-77642428D01*
D11*
G04 #@! TO.C,C6*
X84940380Y-81370857D02*
X84940380Y-81275619D01*
X84988000Y-81180380D01*
X85035619Y-81132761D01*
X85130857Y-81085142D01*
X85321333Y-81037523D01*
X85559428Y-81037523D01*
X85749904Y-81085142D01*
X85845142Y-81132761D01*
X85892761Y-81180380D01*
X85940380Y-81275619D01*
X85940380Y-81370857D01*
X85892761Y-81466095D01*
X85845142Y-81513714D01*
X85749904Y-81561333D01*
X85559428Y-81608952D01*
X85321333Y-81608952D01*
X85130857Y-81561333D01*
X85035619Y-81513714D01*
X84988000Y-81466095D01*
X84940380Y-81370857D01*
X85845142Y-80608952D02*
X85892761Y-80561333D01*
X85940380Y-80608952D01*
X85892761Y-80656571D01*
X85845142Y-80608952D01*
X85940380Y-80608952D01*
X85940380Y-79608952D02*
X85940380Y-80180380D01*
X85940380Y-79894666D02*
X84940380Y-79894666D01*
X85083238Y-79989904D01*
X85178476Y-80085142D01*
X85226095Y-80180380D01*
X85273714Y-78751809D02*
X85940380Y-78751809D01*
X85273714Y-79180380D02*
X85797523Y-79180380D01*
X85892761Y-79132761D01*
X85940380Y-79037523D01*
X85940380Y-78894666D01*
X85892761Y-78799428D01*
X85845142Y-78751809D01*
X85416571Y-77942285D02*
X85416571Y-78275619D01*
X85940380Y-78275619D02*
X84940380Y-78275619D01*
X84940380Y-77799428D01*
D14*
X84417285Y-81067666D02*
X84429190Y-81079571D01*
X84441095Y-81115285D01*
X84441095Y-81139095D01*
X84429190Y-81174809D01*
X84405380Y-81198619D01*
X84381571Y-81210523D01*
X84333952Y-81222428D01*
X84298238Y-81222428D01*
X84250619Y-81210523D01*
X84226809Y-81198619D01*
X84203000Y-81174809D01*
X84191095Y-81139095D01*
X84191095Y-81115285D01*
X84203000Y-81079571D01*
X84214904Y-81067666D01*
X84191095Y-80853380D02*
X84191095Y-80901000D01*
X84203000Y-80924809D01*
X84214904Y-80936714D01*
X84250619Y-80960523D01*
X84298238Y-80972428D01*
X84393476Y-80972428D01*
X84417285Y-80960523D01*
X84429190Y-80948619D01*
X84441095Y-80924809D01*
X84441095Y-80877190D01*
X84429190Y-80853380D01*
X84417285Y-80841476D01*
X84393476Y-80829571D01*
X84333952Y-80829571D01*
X84310142Y-80841476D01*
X84298238Y-80853380D01*
X84286333Y-80877190D01*
X84286333Y-80924809D01*
X84298238Y-80948619D01*
X84310142Y-80960523D01*
X84333952Y-80972428D01*
D11*
G04 #@! TO.C,R2*
X74422095Y-85653619D02*
X74469714Y-85606000D01*
X74564952Y-85558380D01*
X74803047Y-85558380D01*
X74898285Y-85606000D01*
X74945904Y-85653619D01*
X74993523Y-85748857D01*
X74993523Y-85844095D01*
X74945904Y-85986952D01*
X74374476Y-86558380D01*
X74993523Y-86558380D01*
X75374476Y-85653619D02*
X75422095Y-85606000D01*
X75517333Y-85558380D01*
X75755428Y-85558380D01*
X75850666Y-85606000D01*
X75898285Y-85653619D01*
X75945904Y-85748857D01*
X75945904Y-85844095D01*
X75898285Y-85986952D01*
X75326857Y-86558380D01*
X75945904Y-86558380D01*
D14*
X75140666Y-84953619D02*
X75054000Y-84829809D01*
X74992095Y-84953619D02*
X74992095Y-84693619D01*
X75091142Y-84693619D01*
X75115904Y-84706000D01*
X75128285Y-84718380D01*
X75140666Y-84743142D01*
X75140666Y-84780285D01*
X75128285Y-84805047D01*
X75115904Y-84817428D01*
X75091142Y-84829809D01*
X74992095Y-84829809D01*
X75239714Y-84718380D02*
X75252095Y-84706000D01*
X75276857Y-84693619D01*
X75338761Y-84693619D01*
X75363523Y-84706000D01*
X75375904Y-84718380D01*
X75388285Y-84743142D01*
X75388285Y-84767904D01*
X75375904Y-84805047D01*
X75227333Y-84953619D01*
X75388285Y-84953619D01*
D11*
G04 #@! TO.C,R6*
X92103619Y-87312285D02*
X92056000Y-87264666D01*
X92008380Y-87169428D01*
X92008380Y-86931333D01*
X92056000Y-86836095D01*
X92103619Y-86788476D01*
X92198857Y-86740857D01*
X92294095Y-86740857D01*
X92436952Y-86788476D01*
X93008380Y-87359904D01*
X93008380Y-86740857D01*
X92103619Y-86359904D02*
X92056000Y-86312285D01*
X92008380Y-86217047D01*
X92008380Y-85978952D01*
X92056000Y-85883714D01*
X92103619Y-85836095D01*
X92198857Y-85788476D01*
X92294095Y-85788476D01*
X92436952Y-85836095D01*
X93008380Y-86407523D01*
X93008380Y-85788476D01*
X92008380Y-85169428D02*
X92008380Y-85074190D01*
X92056000Y-84978952D01*
X92103619Y-84931333D01*
X92198857Y-84883714D01*
X92389333Y-84836095D01*
X92627428Y-84836095D01*
X92817904Y-84883714D01*
X92913142Y-84931333D01*
X92960761Y-84978952D01*
X93008380Y-85074190D01*
X93008380Y-85169428D01*
X92960761Y-85264666D01*
X92913142Y-85312285D01*
X92817904Y-85359904D01*
X92627428Y-85407523D01*
X92389333Y-85407523D01*
X92198857Y-85359904D01*
X92103619Y-85312285D01*
X92056000Y-85264666D01*
X92008380Y-85169428D01*
X92008380Y-84217047D02*
X92008380Y-84121809D01*
X92056000Y-84026571D01*
X92103619Y-83978952D01*
X92198857Y-83931333D01*
X92389333Y-83883714D01*
X92627428Y-83883714D01*
X92817904Y-83931333D01*
X92913142Y-83978952D01*
X92960761Y-84026571D01*
X93008380Y-84121809D01*
X93008380Y-84217047D01*
X92960761Y-84312285D01*
X92913142Y-84359904D01*
X92817904Y-84407523D01*
X92627428Y-84455142D01*
X92389333Y-84455142D01*
X92198857Y-84407523D01*
X92103619Y-84359904D01*
X92056000Y-84312285D01*
X92008380Y-84217047D01*
D14*
X93843619Y-85641333D02*
X93719809Y-85728000D01*
X93843619Y-85789904D02*
X93583619Y-85789904D01*
X93583619Y-85690857D01*
X93596000Y-85666095D01*
X93608380Y-85653714D01*
X93633142Y-85641333D01*
X93670285Y-85641333D01*
X93695047Y-85653714D01*
X93707428Y-85666095D01*
X93719809Y-85690857D01*
X93719809Y-85789904D01*
X93583619Y-85418476D02*
X93583619Y-85468000D01*
X93596000Y-85492761D01*
X93608380Y-85505142D01*
X93645523Y-85529904D01*
X93695047Y-85542285D01*
X93794095Y-85542285D01*
X93818857Y-85529904D01*
X93831238Y-85517523D01*
X93843619Y-85492761D01*
X93843619Y-85443238D01*
X93831238Y-85418476D01*
X93818857Y-85406095D01*
X93794095Y-85393714D01*
X93732190Y-85393714D01*
X93707428Y-85406095D01*
X93695047Y-85418476D01*
X93682666Y-85443238D01*
X93682666Y-85492761D01*
X93695047Y-85517523D01*
X93707428Y-85529904D01*
X93732190Y-85542285D01*
D11*
G04 #@! TO.C,C7*
X84382380Y-93118428D02*
X84382380Y-93689857D01*
X84382380Y-93404142D02*
X83382380Y-93404142D01*
X83525238Y-93499380D01*
X83620476Y-93594619D01*
X83668095Y-93689857D01*
X83382380Y-92499380D02*
X83382380Y-92404142D01*
X83430000Y-92308904D01*
X83477619Y-92261285D01*
X83572857Y-92213666D01*
X83763333Y-92166047D01*
X84001428Y-92166047D01*
X84191904Y-92213666D01*
X84287142Y-92261285D01*
X84334761Y-92308904D01*
X84382380Y-92404142D01*
X84382380Y-92499380D01*
X84334761Y-92594619D01*
X84287142Y-92642238D01*
X84191904Y-92689857D01*
X84001428Y-92737476D01*
X83763333Y-92737476D01*
X83572857Y-92689857D01*
X83477619Y-92642238D01*
X83430000Y-92594619D01*
X83382380Y-92499380D01*
X83715714Y-91737476D02*
X84715714Y-91737476D01*
X83763333Y-91737476D02*
X83715714Y-91642238D01*
X83715714Y-91451761D01*
X83763333Y-91356523D01*
X83810952Y-91308904D01*
X83906190Y-91261285D01*
X84191904Y-91261285D01*
X84287142Y-91308904D01*
X84334761Y-91356523D01*
X84382380Y-91451761D01*
X84382380Y-91642238D01*
X84334761Y-91737476D01*
X83858571Y-90499380D02*
X83858571Y-90832714D01*
X84382380Y-90832714D02*
X83382380Y-90832714D01*
X83382380Y-90356523D01*
D14*
X85179285Y-92088666D02*
X85191190Y-92100571D01*
X85203095Y-92136285D01*
X85203095Y-92160095D01*
X85191190Y-92195809D01*
X85167380Y-92219619D01*
X85143571Y-92231523D01*
X85095952Y-92243428D01*
X85060238Y-92243428D01*
X85012619Y-92231523D01*
X84988809Y-92219619D01*
X84965000Y-92195809D01*
X84953095Y-92160095D01*
X84953095Y-92136285D01*
X84965000Y-92100571D01*
X84976904Y-92088666D01*
X84953095Y-92005333D02*
X84953095Y-91838666D01*
X85203095Y-91945809D01*
D11*
G04 #@! TO.C,C10*
X91606761Y-87464380D02*
X91035333Y-87464380D01*
X91321047Y-87464380D02*
X91321047Y-86464380D01*
X91225809Y-86607238D01*
X91130571Y-86702476D01*
X91035333Y-86750095D01*
X92035333Y-86797714D02*
X92035333Y-87464380D01*
X92035333Y-86892952D02*
X92082952Y-86845333D01*
X92178190Y-86797714D01*
X92321047Y-86797714D01*
X92416285Y-86845333D01*
X92463904Y-86940571D01*
X92463904Y-87464380D01*
X93273428Y-86940571D02*
X92940095Y-86940571D01*
X92940095Y-87464380D02*
X92940095Y-86464380D01*
X93416285Y-86464380D01*
D14*
X92041285Y-85941285D02*
X92029380Y-85953190D01*
X91993666Y-85965095D01*
X91969857Y-85965095D01*
X91934142Y-85953190D01*
X91910333Y-85929380D01*
X91898428Y-85905571D01*
X91886523Y-85857952D01*
X91886523Y-85822238D01*
X91898428Y-85774619D01*
X91910333Y-85750809D01*
X91934142Y-85727000D01*
X91969857Y-85715095D01*
X91993666Y-85715095D01*
X92029380Y-85727000D01*
X92041285Y-85738904D01*
X92279380Y-85965095D02*
X92136523Y-85965095D01*
X92207952Y-85965095D02*
X92207952Y-85715095D01*
X92184142Y-85750809D01*
X92160333Y-85774619D01*
X92136523Y-85786523D01*
X92434142Y-85715095D02*
X92457952Y-85715095D01*
X92481761Y-85727000D01*
X92493666Y-85738904D01*
X92505571Y-85762714D01*
X92517476Y-85810333D01*
X92517476Y-85869857D01*
X92505571Y-85917476D01*
X92493666Y-85941285D01*
X92481761Y-85953190D01*
X92457952Y-85965095D01*
X92434142Y-85965095D01*
X92410333Y-85953190D01*
X92398428Y-85941285D01*
X92386523Y-85917476D01*
X92374619Y-85869857D01*
X92374619Y-85810333D01*
X92386523Y-85762714D01*
X92398428Y-85738904D01*
X92410333Y-85727000D01*
X92434142Y-85715095D01*
D11*
G04 #@! TO.C,R4*
X93003714Y-88055380D02*
X92432285Y-88055380D01*
X92718000Y-88055380D02*
X92718000Y-87055380D01*
X92622761Y-87198238D01*
X92527523Y-87293476D01*
X92432285Y-87341095D01*
X93432285Y-88055380D02*
X93432285Y-87055380D01*
X94003714Y-88055380D02*
X93575142Y-87483952D01*
X94003714Y-87055380D02*
X93432285Y-87626809D01*
D14*
X93174666Y-88890619D02*
X93088000Y-88766809D01*
X93026095Y-88890619D02*
X93026095Y-88630619D01*
X93125142Y-88630619D01*
X93149904Y-88643000D01*
X93162285Y-88655380D01*
X93174666Y-88680142D01*
X93174666Y-88717285D01*
X93162285Y-88742047D01*
X93149904Y-88754428D01*
X93125142Y-88766809D01*
X93026095Y-88766809D01*
X93397523Y-88717285D02*
X93397523Y-88890619D01*
X93335619Y-88618238D02*
X93273714Y-88803952D01*
X93434666Y-88803952D01*
D11*
G04 #@! TO.C,C8*
X87430380Y-94388428D02*
X87430380Y-94959857D01*
X87430380Y-94674142D02*
X86430380Y-94674142D01*
X86573238Y-94769380D01*
X86668476Y-94864619D01*
X86716095Y-94959857D01*
X86430380Y-93769380D02*
X86430380Y-93674142D01*
X86478000Y-93578904D01*
X86525619Y-93531285D01*
X86620857Y-93483666D01*
X86811333Y-93436047D01*
X87049428Y-93436047D01*
X87239904Y-93483666D01*
X87335142Y-93531285D01*
X87382761Y-93578904D01*
X87430380Y-93674142D01*
X87430380Y-93769380D01*
X87382761Y-93864619D01*
X87335142Y-93912238D01*
X87239904Y-93959857D01*
X87049428Y-94007476D01*
X86811333Y-94007476D01*
X86620857Y-93959857D01*
X86525619Y-93912238D01*
X86478000Y-93864619D01*
X86430380Y-93769380D01*
X86763714Y-93007476D02*
X87763714Y-93007476D01*
X86811333Y-93007476D02*
X86763714Y-92912238D01*
X86763714Y-92721761D01*
X86811333Y-92626523D01*
X86858952Y-92578904D01*
X86954190Y-92531285D01*
X87239904Y-92531285D01*
X87335142Y-92578904D01*
X87382761Y-92626523D01*
X87430380Y-92721761D01*
X87430380Y-92912238D01*
X87382761Y-93007476D01*
X86906571Y-91769380D02*
X86906571Y-92102714D01*
X87430380Y-92102714D02*
X86430380Y-92102714D01*
X86430380Y-91626523D01*
D14*
X88227285Y-93358666D02*
X88239190Y-93370571D01*
X88251095Y-93406285D01*
X88251095Y-93430095D01*
X88239190Y-93465809D01*
X88215380Y-93489619D01*
X88191571Y-93501523D01*
X88143952Y-93513428D01*
X88108238Y-93513428D01*
X88060619Y-93501523D01*
X88036809Y-93489619D01*
X88013000Y-93465809D01*
X88001095Y-93430095D01*
X88001095Y-93406285D01*
X88013000Y-93370571D01*
X88024904Y-93358666D01*
X88108238Y-93215809D02*
X88096333Y-93239619D01*
X88084428Y-93251523D01*
X88060619Y-93263428D01*
X88048714Y-93263428D01*
X88024904Y-93251523D01*
X88013000Y-93239619D01*
X88001095Y-93215809D01*
X88001095Y-93168190D01*
X88013000Y-93144380D01*
X88024904Y-93132476D01*
X88048714Y-93120571D01*
X88060619Y-93120571D01*
X88084428Y-93132476D01*
X88096333Y-93144380D01*
X88108238Y-93168190D01*
X88108238Y-93215809D01*
X88120142Y-93239619D01*
X88132047Y-93251523D01*
X88155857Y-93263428D01*
X88203476Y-93263428D01*
X88227285Y-93251523D01*
X88239190Y-93239619D01*
X88251095Y-93215809D01*
X88251095Y-93168190D01*
X88239190Y-93144380D01*
X88227285Y-93132476D01*
X88203476Y-93120571D01*
X88155857Y-93120571D01*
X88132047Y-93132476D01*
X88120142Y-93144380D01*
X88108238Y-93168190D01*
D11*
G04 #@! TO.C,C5*
X85668380Y-79338857D02*
X85668380Y-79243619D01*
X85716000Y-79148380D01*
X85763619Y-79100761D01*
X85858857Y-79053142D01*
X86049333Y-79005523D01*
X86287428Y-79005523D01*
X86477904Y-79053142D01*
X86573142Y-79100761D01*
X86620761Y-79148380D01*
X86668380Y-79243619D01*
X86668380Y-79338857D01*
X86620761Y-79434095D01*
X86573142Y-79481714D01*
X86477904Y-79529333D01*
X86287428Y-79576952D01*
X86049333Y-79576952D01*
X85858857Y-79529333D01*
X85763619Y-79481714D01*
X85716000Y-79434095D01*
X85668380Y-79338857D01*
X86573142Y-78576952D02*
X86620761Y-78529333D01*
X86668380Y-78576952D01*
X86620761Y-78624571D01*
X86573142Y-78576952D01*
X86668380Y-78576952D01*
X86668380Y-77576952D02*
X86668380Y-78148380D01*
X86668380Y-77862666D02*
X85668380Y-77862666D01*
X85811238Y-77957904D01*
X85906476Y-78053142D01*
X85954095Y-78148380D01*
X86001714Y-76719809D02*
X86668380Y-76719809D01*
X86001714Y-77148380D02*
X86525523Y-77148380D01*
X86620761Y-77100761D01*
X86668380Y-77005523D01*
X86668380Y-76862666D01*
X86620761Y-76767428D01*
X86573142Y-76719809D01*
X86144571Y-75910285D02*
X86144571Y-76243619D01*
X86668380Y-76243619D02*
X85668380Y-76243619D01*
X85668380Y-75767428D01*
D14*
X87465285Y-77737666D02*
X87477190Y-77749571D01*
X87489095Y-77785285D01*
X87489095Y-77809095D01*
X87477190Y-77844809D01*
X87453380Y-77868619D01*
X87429571Y-77880523D01*
X87381952Y-77892428D01*
X87346238Y-77892428D01*
X87298619Y-77880523D01*
X87274809Y-77868619D01*
X87251000Y-77844809D01*
X87239095Y-77809095D01*
X87239095Y-77785285D01*
X87251000Y-77749571D01*
X87262904Y-77737666D01*
X87239095Y-77511476D02*
X87239095Y-77630523D01*
X87358142Y-77642428D01*
X87346238Y-77630523D01*
X87334333Y-77606714D01*
X87334333Y-77547190D01*
X87346238Y-77523380D01*
X87358142Y-77511476D01*
X87381952Y-77499571D01*
X87441476Y-77499571D01*
X87465285Y-77511476D01*
X87477190Y-77523380D01*
X87489095Y-77547190D01*
X87489095Y-77606714D01*
X87477190Y-77630523D01*
X87465285Y-77642428D01*
D11*
G04 #@! TO.C,C2*
X83620380Y-78291238D02*
X83620380Y-78862666D01*
X83620380Y-78576952D02*
X82620380Y-78576952D01*
X82763238Y-78672190D01*
X82858476Y-78767428D01*
X82906095Y-78862666D01*
X82953714Y-77434095D02*
X83620380Y-77434095D01*
X82953714Y-77862666D02*
X83477523Y-77862666D01*
X83572761Y-77815047D01*
X83620380Y-77719809D01*
X83620380Y-77576952D01*
X83572761Y-77481714D01*
X83525142Y-77434095D01*
X83096571Y-76624571D02*
X83096571Y-76957904D01*
X83620380Y-76957904D02*
X82620380Y-76957904D01*
X82620380Y-76481714D01*
D14*
X84417285Y-77737666D02*
X84429190Y-77749571D01*
X84441095Y-77785285D01*
X84441095Y-77809095D01*
X84429190Y-77844809D01*
X84405380Y-77868619D01*
X84381571Y-77880523D01*
X84333952Y-77892428D01*
X84298238Y-77892428D01*
X84250619Y-77880523D01*
X84226809Y-77868619D01*
X84203000Y-77844809D01*
X84191095Y-77809095D01*
X84191095Y-77785285D01*
X84203000Y-77749571D01*
X84214904Y-77737666D01*
X84214904Y-77642428D02*
X84203000Y-77630523D01*
X84191095Y-77606714D01*
X84191095Y-77547190D01*
X84203000Y-77523380D01*
X84214904Y-77511476D01*
X84238714Y-77499571D01*
X84262523Y-77499571D01*
X84298238Y-77511476D01*
X84441095Y-77654333D01*
X84441095Y-77499571D01*
D11*
G04 #@! TO.C,X1*
X87590523Y-94803380D02*
X87019095Y-94803380D01*
X87304809Y-94803380D02*
X87304809Y-93803380D01*
X87209571Y-93946238D01*
X87114333Y-94041476D01*
X87019095Y-94089095D01*
X88447666Y-93803380D02*
X88257190Y-93803380D01*
X88161952Y-93851000D01*
X88114333Y-93898619D01*
X88019095Y-94041476D01*
X87971476Y-94231952D01*
X87971476Y-94612904D01*
X88019095Y-94708142D01*
X88066714Y-94755761D01*
X88161952Y-94803380D01*
X88352428Y-94803380D01*
X88447666Y-94755761D01*
X88495285Y-94708142D01*
X88542904Y-94612904D01*
X88542904Y-94374809D01*
X88495285Y-94279571D01*
X88447666Y-94231952D01*
X88352428Y-94184333D01*
X88161952Y-94184333D01*
X88066714Y-94231952D01*
X88019095Y-94279571D01*
X87971476Y-94374809D01*
X88971476Y-94803380D02*
X88971476Y-93803380D01*
X89304809Y-94517666D01*
X89638142Y-93803380D01*
X89638142Y-94803380D01*
X90114333Y-94803380D02*
X90114333Y-93803380D01*
X90114333Y-94279571D02*
X90685761Y-94279571D01*
X90685761Y-94803380D02*
X90685761Y-93803380D01*
X91066714Y-94136714D02*
X91590523Y-94136714D01*
X91066714Y-94803380D01*
X91590523Y-94803380D01*
D15*
X88714333Y-96517666D02*
X89181000Y-97217666D01*
X89181000Y-96517666D02*
X88714333Y-97217666D01*
X89814333Y-97217666D02*
X89414333Y-97217666D01*
X89614333Y-97217666D02*
X89614333Y-96517666D01*
X89547666Y-96617666D01*
X89481000Y-96684333D01*
X89414333Y-96717666D01*
D10*
G04 #@! TO.C,J2*
X78621555Y-100488878D02*
X79097764Y-100488878D01*
X78526314Y-100774603D02*
X78859660Y-99774564D01*
X79193006Y-100774603D01*
X79383490Y-99774564D02*
X79716836Y-100774603D01*
X80050183Y-99774564D01*
X80954980Y-100774603D02*
X80621633Y-100298394D01*
X80383529Y-100774603D02*
X80383529Y-99774564D01*
X80764496Y-99774564D01*
X80859738Y-99822185D01*
X80907359Y-99869806D01*
X80954980Y-99965048D01*
X80954980Y-100107910D01*
X80907359Y-100203152D01*
X80859738Y-100250773D01*
X80764496Y-100298394D01*
X80383529Y-100298394D01*
X81145463Y-100869845D02*
X81907398Y-100869845D01*
X82145502Y-100774603D02*
X82145502Y-99774564D01*
X82526470Y-99774564D01*
X82621711Y-99822185D01*
X82669332Y-99869806D01*
X82716953Y-99965048D01*
X82716953Y-100107910D01*
X82669332Y-100203152D01*
X82621711Y-100250773D01*
X82526470Y-100298394D01*
X82145502Y-100298394D01*
X83145541Y-100774603D02*
X83145541Y-100107910D01*
X83145541Y-100298394D02*
X83193162Y-100203152D01*
X83240783Y-100155531D01*
X83336025Y-100107910D01*
X83431267Y-100107910D01*
X83907476Y-100774603D02*
X83812234Y-100726982D01*
X83764613Y-100679361D01*
X83716992Y-100584119D01*
X83716992Y-100298394D01*
X83764613Y-100203152D01*
X83812234Y-100155531D01*
X83907476Y-100107910D01*
X84050339Y-100107910D01*
X84145580Y-100155531D01*
X84193201Y-100203152D01*
X84240822Y-100298394D01*
X84240822Y-100584119D01*
X84193201Y-100679361D01*
X84145580Y-100726982D01*
X84050339Y-100774603D01*
X83907476Y-100774603D01*
X85097998Y-100107910D02*
X85097998Y-100917466D01*
X85050378Y-101012708D01*
X85002757Y-101060329D01*
X84907515Y-101107949D01*
X84764652Y-101107949D01*
X84669410Y-101060329D01*
X85097998Y-100726982D02*
X85002757Y-100774603D01*
X84812273Y-100774603D01*
X84717031Y-100726982D01*
X84669410Y-100679361D01*
X84621789Y-100584119D01*
X84621789Y-100298394D01*
X84669410Y-100203152D01*
X84717031Y-100155531D01*
X84812273Y-100107910D01*
X85002757Y-100107910D01*
X85097998Y-100155531D01*
X85574207Y-100774603D02*
X85574207Y-100107910D01*
X85574207Y-100298394D02*
X85621828Y-100203152D01*
X85669449Y-100155531D01*
X85764691Y-100107910D01*
X85859933Y-100107910D01*
X86621867Y-100774603D02*
X86621867Y-100250773D01*
X86574246Y-100155531D01*
X86479005Y-100107910D01*
X86288521Y-100107910D01*
X86193279Y-100155531D01*
X86621867Y-100726982D02*
X86526626Y-100774603D01*
X86288521Y-100774603D01*
X86193279Y-100726982D01*
X86145658Y-100631740D01*
X86145658Y-100536499D01*
X86193279Y-100441257D01*
X86288521Y-100393636D01*
X86526626Y-100393636D01*
X86621867Y-100346015D01*
X87098076Y-100774603D02*
X87098076Y-100107910D01*
X87098076Y-100203152D02*
X87145697Y-100155531D01*
X87240939Y-100107910D01*
X87383802Y-100107910D01*
X87479044Y-100155531D01*
X87526665Y-100250773D01*
X87526665Y-100774603D01*
X87526665Y-100250773D02*
X87574285Y-100155531D01*
X87669527Y-100107910D01*
X87812390Y-100107910D01*
X87907632Y-100155531D01*
X87955253Y-100250773D01*
X87955253Y-100774603D01*
D11*
G04 #@! TO.C,C4*
X84652380Y-79338857D02*
X84652380Y-79243619D01*
X84700000Y-79148380D01*
X84747619Y-79100761D01*
X84842857Y-79053142D01*
X85033333Y-79005523D01*
X85271428Y-79005523D01*
X85461904Y-79053142D01*
X85557142Y-79100761D01*
X85604761Y-79148380D01*
X85652380Y-79243619D01*
X85652380Y-79338857D01*
X85604761Y-79434095D01*
X85557142Y-79481714D01*
X85461904Y-79529333D01*
X85271428Y-79576952D01*
X85033333Y-79576952D01*
X84842857Y-79529333D01*
X84747619Y-79481714D01*
X84700000Y-79434095D01*
X84652380Y-79338857D01*
X85557142Y-78576952D02*
X85604761Y-78529333D01*
X85652380Y-78576952D01*
X85604761Y-78624571D01*
X85557142Y-78576952D01*
X85652380Y-78576952D01*
X85652380Y-77576952D02*
X85652380Y-78148380D01*
X85652380Y-77862666D02*
X84652380Y-77862666D01*
X84795238Y-77957904D01*
X84890476Y-78053142D01*
X84938095Y-78148380D01*
X84985714Y-76719809D02*
X85652380Y-76719809D01*
X84985714Y-77148380D02*
X85509523Y-77148380D01*
X85604761Y-77100761D01*
X85652380Y-77005523D01*
X85652380Y-76862666D01*
X85604761Y-76767428D01*
X85557142Y-76719809D01*
X85128571Y-75910285D02*
X85128571Y-76243619D01*
X85652380Y-76243619D02*
X84652380Y-76243619D01*
X84652380Y-75767428D01*
D14*
X86449285Y-77737666D02*
X86461190Y-77749571D01*
X86473095Y-77785285D01*
X86473095Y-77809095D01*
X86461190Y-77844809D01*
X86437380Y-77868619D01*
X86413571Y-77880523D01*
X86365952Y-77892428D01*
X86330238Y-77892428D01*
X86282619Y-77880523D01*
X86258809Y-77868619D01*
X86235000Y-77844809D01*
X86223095Y-77809095D01*
X86223095Y-77785285D01*
X86235000Y-77749571D01*
X86246904Y-77737666D01*
X86306428Y-77523380D02*
X86473095Y-77523380D01*
X86211190Y-77582904D02*
X86389761Y-77642428D01*
X86389761Y-77487666D01*
D11*
G04 #@! TO.C,R7*
X92638619Y-89060595D02*
X92591000Y-89012976D01*
X92543380Y-88917738D01*
X92543380Y-88679642D01*
X92591000Y-88584404D01*
X92638619Y-88536785D01*
X92733857Y-88489166D01*
X92829095Y-88489166D01*
X92971952Y-88536785D01*
X93543380Y-89108214D01*
X93543380Y-88489166D01*
X92638619Y-88108214D02*
X92591000Y-88060595D01*
X92543380Y-87965357D01*
X92543380Y-87727261D01*
X92591000Y-87632023D01*
X92638619Y-87584404D01*
X92733857Y-87536785D01*
X92829095Y-87536785D01*
X92971952Y-87584404D01*
X93543380Y-88155833D01*
X93543380Y-87536785D01*
X92543380Y-86917738D02*
X92543380Y-86822500D01*
X92591000Y-86727261D01*
X92638619Y-86679642D01*
X92733857Y-86632023D01*
X92924333Y-86584404D01*
X93162428Y-86584404D01*
X93352904Y-86632023D01*
X93448142Y-86679642D01*
X93495761Y-86727261D01*
X93543380Y-86822500D01*
X93543380Y-86917738D01*
X93495761Y-87012976D01*
X93448142Y-87060595D01*
X93352904Y-87108214D01*
X93162428Y-87155833D01*
X92924333Y-87155833D01*
X92733857Y-87108214D01*
X92638619Y-87060595D01*
X92591000Y-87012976D01*
X92543380Y-86917738D01*
D16*
X93452904Y-91765833D02*
X93071952Y-92032500D01*
X93452904Y-92222976D02*
X92652904Y-92222976D01*
X92652904Y-91918214D01*
X92691000Y-91842023D01*
X92729095Y-91803928D01*
X92805285Y-91765833D01*
X92919571Y-91765833D01*
X92995761Y-91803928D01*
X93033857Y-91842023D01*
X93071952Y-91918214D01*
X93071952Y-92222976D01*
X92652904Y-91499166D02*
X92652904Y-90965833D01*
X93452904Y-91308690D01*
D11*
G04 #@! TO.C,C11*
X78906761Y-86414380D02*
X78335333Y-86414380D01*
X78621047Y-86414380D02*
X78621047Y-85414380D01*
X78525809Y-85557238D01*
X78430571Y-85652476D01*
X78335333Y-85700095D01*
X79763904Y-85747714D02*
X79763904Y-86414380D01*
X79335333Y-85747714D02*
X79335333Y-86271523D01*
X79382952Y-86366761D01*
X79478190Y-86414380D01*
X79621047Y-86414380D01*
X79716285Y-86366761D01*
X79763904Y-86319142D01*
X80573428Y-85890571D02*
X80240095Y-85890571D01*
X80240095Y-86414380D02*
X80240095Y-85414380D01*
X80716285Y-85414380D01*
D14*
X79341285Y-87211285D02*
X79329380Y-87223190D01*
X79293666Y-87235095D01*
X79269857Y-87235095D01*
X79234142Y-87223190D01*
X79210333Y-87199380D01*
X79198428Y-87175571D01*
X79186523Y-87127952D01*
X79186523Y-87092238D01*
X79198428Y-87044619D01*
X79210333Y-87020809D01*
X79234142Y-86997000D01*
X79269857Y-86985095D01*
X79293666Y-86985095D01*
X79329380Y-86997000D01*
X79341285Y-87008904D01*
X79579380Y-87235095D02*
X79436523Y-87235095D01*
X79507952Y-87235095D02*
X79507952Y-86985095D01*
X79484142Y-87020809D01*
X79460333Y-87044619D01*
X79436523Y-87056523D01*
X79817476Y-87235095D02*
X79674619Y-87235095D01*
X79746047Y-87235095D02*
X79746047Y-86985095D01*
X79722238Y-87020809D01*
X79698428Y-87044619D01*
X79674619Y-87056523D01*
D11*
G04 #@! TO.C,R8*
X71667809Y-79743380D02*
X71191619Y-79743380D01*
X71144000Y-80219571D01*
X71191619Y-80171952D01*
X71286857Y-80124333D01*
X71524952Y-80124333D01*
X71620190Y-80171952D01*
X71667809Y-80219571D01*
X71715428Y-80314809D01*
X71715428Y-80552904D01*
X71667809Y-80648142D01*
X71620190Y-80695761D01*
X71524952Y-80743380D01*
X71286857Y-80743380D01*
X71191619Y-80695761D01*
X71144000Y-80648142D01*
X72144000Y-80648142D02*
X72191619Y-80695761D01*
X72144000Y-80743380D01*
X72096380Y-80695761D01*
X72144000Y-80648142D01*
X72144000Y-80743380D01*
X73144000Y-80743380D02*
X72572571Y-80743380D01*
X72858285Y-80743380D02*
X72858285Y-79743380D01*
X72763047Y-79886238D01*
X72667809Y-79981476D01*
X72572571Y-80029095D01*
X73572571Y-80743380D02*
X73572571Y-79743380D01*
X74144000Y-80743380D02*
X73715428Y-80171952D01*
X74144000Y-79743380D02*
X73572571Y-80314809D01*
D14*
X72600666Y-79238619D02*
X72514000Y-79114809D01*
X72452095Y-79238619D02*
X72452095Y-78978619D01*
X72551142Y-78978619D01*
X72575904Y-78991000D01*
X72588285Y-79003380D01*
X72600666Y-79028142D01*
X72600666Y-79065285D01*
X72588285Y-79090047D01*
X72575904Y-79102428D01*
X72551142Y-79114809D01*
X72452095Y-79114809D01*
X72749238Y-79090047D02*
X72724476Y-79077666D01*
X72712095Y-79065285D01*
X72699714Y-79040523D01*
X72699714Y-79028142D01*
X72712095Y-79003380D01*
X72724476Y-78991000D01*
X72749238Y-78978619D01*
X72798761Y-78978619D01*
X72823523Y-78991000D01*
X72835904Y-79003380D01*
X72848285Y-79028142D01*
X72848285Y-79040523D01*
X72835904Y-79065285D01*
X72823523Y-79077666D01*
X72798761Y-79090047D01*
X72749238Y-79090047D01*
X72724476Y-79102428D01*
X72712095Y-79114809D01*
X72699714Y-79139571D01*
X72699714Y-79189095D01*
X72712095Y-79213857D01*
X72724476Y-79226238D01*
X72749238Y-79238619D01*
X72798761Y-79238619D01*
X72823523Y-79226238D01*
X72835904Y-79213857D01*
X72848285Y-79189095D01*
X72848285Y-79139571D01*
X72835904Y-79114809D01*
X72823523Y-79102428D01*
X72798761Y-79090047D01*
D11*
G04 #@! TO.C,R3*
X92300380Y-83526285D02*
X92300380Y-84097714D01*
X92300380Y-83812000D02*
X91300380Y-83812000D01*
X91443238Y-83907238D01*
X91538476Y-84002476D01*
X91586095Y-84097714D01*
X92300380Y-83097714D02*
X91300380Y-83097714D01*
X92300380Y-82526285D02*
X91728952Y-82954857D01*
X91300380Y-82526285D02*
X91871809Y-83097714D01*
D14*
X90795619Y-83355333D02*
X90671809Y-83442000D01*
X90795619Y-83503904D02*
X90535619Y-83503904D01*
X90535619Y-83404857D01*
X90548000Y-83380095D01*
X90560380Y-83367714D01*
X90585142Y-83355333D01*
X90622285Y-83355333D01*
X90647047Y-83367714D01*
X90659428Y-83380095D01*
X90671809Y-83404857D01*
X90671809Y-83503904D01*
X90535619Y-83268666D02*
X90535619Y-83107714D01*
X90634666Y-83194380D01*
X90634666Y-83157238D01*
X90647047Y-83132476D01*
X90659428Y-83120095D01*
X90684190Y-83107714D01*
X90746095Y-83107714D01*
X90770857Y-83120095D01*
X90783238Y-83132476D01*
X90795619Y-83157238D01*
X90795619Y-83231523D01*
X90783238Y-83256285D01*
X90770857Y-83268666D01*
D11*
G04 #@! TO.C,C9*
X92290380Y-85840238D02*
X92290380Y-86411666D01*
X92290380Y-86125952D02*
X91290380Y-86125952D01*
X91433238Y-86221190D01*
X91528476Y-86316428D01*
X91576095Y-86411666D01*
X91623714Y-85411666D02*
X92290380Y-85411666D01*
X91718952Y-85411666D02*
X91671333Y-85364047D01*
X91623714Y-85268809D01*
X91623714Y-85125952D01*
X91671333Y-85030714D01*
X91766571Y-84983095D01*
X92290380Y-84983095D01*
X91766571Y-84173571D02*
X91766571Y-84506904D01*
X92290380Y-84506904D02*
X91290380Y-84506904D01*
X91290380Y-84030714D01*
D14*
X90767285Y-85286666D02*
X90779190Y-85298571D01*
X90791095Y-85334285D01*
X90791095Y-85358095D01*
X90779190Y-85393809D01*
X90755380Y-85417619D01*
X90731571Y-85429523D01*
X90683952Y-85441428D01*
X90648238Y-85441428D01*
X90600619Y-85429523D01*
X90576809Y-85417619D01*
X90553000Y-85393809D01*
X90541095Y-85358095D01*
X90541095Y-85334285D01*
X90553000Y-85298571D01*
X90564904Y-85286666D01*
X90791095Y-85167619D02*
X90791095Y-85120000D01*
X90779190Y-85096190D01*
X90767285Y-85084285D01*
X90731571Y-85060476D01*
X90683952Y-85048571D01*
X90588714Y-85048571D01*
X90564904Y-85060476D01*
X90553000Y-85072380D01*
X90541095Y-85096190D01*
X90541095Y-85143809D01*
X90553000Y-85167619D01*
X90564904Y-85179523D01*
X90588714Y-85191428D01*
X90648238Y-85191428D01*
X90672047Y-85179523D01*
X90683952Y-85167619D01*
X90695857Y-85143809D01*
X90695857Y-85096190D01*
X90683952Y-85072380D01*
X90672047Y-85060476D01*
X90648238Y-85048571D01*
D17*
G04 #@! TO.C,J3*
X113110000Y-74518000D02*
X113110000Y-99218000D01*
X107310000Y-74518000D02*
X107310000Y-99218000D01*
X113110000Y-99218000D02*
X107310000Y-99218000D01*
X107310000Y-67268000D02*
X107310000Y-74518000D01*
X94610000Y-67268000D02*
X107310000Y-67268000D01*
X94610000Y-106468000D02*
X94610000Y-67268000D01*
X107310000Y-99218000D02*
X107310000Y-106468000D01*
X107310000Y-74518000D02*
X113110000Y-74518000D01*
X107310000Y-106468000D02*
X94610000Y-106468000D01*
D18*
X93962400Y-77233000D02*
G75*
G03*
X93962400Y-77233000I-100000J0D01*
G01*
D19*
G04 #@! TO.C,REF\u002A\u002A*
X106148000Y-69850000D02*
G75*
G03*
X106148000Y-69850000I-1500000J0D01*
G01*
X106402000Y-103886000D02*
G75*
G03*
X106402000Y-103886000I-1500000J0D01*
G01*
X70842000Y-77978000D02*
G75*
G03*
X70842000Y-77978000I-1500000J0D01*
G01*
G04 #@! TO.C,J1*
X65980000Y-90134000D02*
X65980000Y-80554000D01*
X65980000Y-80554000D02*
X73510000Y-80554000D01*
X65980000Y-90144000D02*
X65980000Y-93744000D01*
X73510000Y-80554000D02*
X73510000Y-90134000D01*
X73510000Y-90134000D02*
X65980000Y-90134000D01*
G04 #@! TO.C,R5*
X93456000Y-83168000D02*
X93996000Y-83168000D01*
X93996000Y-83168000D02*
X93996000Y-84218000D01*
X93456000Y-84218000D02*
X93456000Y-83168000D01*
X93996000Y-84218000D02*
X93456000Y-84218000D01*
G04 #@! TO.C,R1*
X74659000Y-86122000D02*
X74659000Y-85582000D01*
X75709000Y-85582000D02*
X75709000Y-86122000D01*
X74659000Y-85582000D02*
X75709000Y-85582000D01*
X75709000Y-86122000D02*
X74659000Y-86122000D01*
G04 #@! TO.C,D1*
X90767000Y-86722000D02*
X90767000Y-87522000D01*
X90767000Y-87522000D02*
X92067000Y-87522000D01*
X92067000Y-87522000D02*
X92367000Y-87222000D01*
X92367000Y-86722000D02*
X90767000Y-86722000D01*
X92367000Y-87222000D02*
X92367000Y-86722000D01*
G04 #@! TO.C,C3*
X85594000Y-77196000D02*
X85594000Y-78196000D01*
X85094000Y-78196000D02*
X85094000Y-77196000D01*
X85594000Y-78196000D02*
X85094000Y-78196000D01*
X85094000Y-77196000D02*
X85594000Y-77196000D01*
D17*
G04 #@! TO.C,U1*
X89352000Y-90114000D02*
X82352000Y-90114000D01*
X89352000Y-83114000D02*
X82352000Y-83114000D01*
X89352000Y-90114000D02*
X89352000Y-83114000D01*
X82352000Y-90114000D02*
X82352000Y-83114000D01*
D18*
X81382000Y-84114000D02*
G75*
G03*
X81382000Y-84114000I-100000J0D01*
G01*
D19*
G04 #@! TO.C,R9*
X75800000Y-86852000D02*
X76850000Y-86852000D01*
X75800000Y-87392000D02*
X75800000Y-86852000D01*
X76850000Y-86852000D02*
X76850000Y-87392000D01*
X76850000Y-87392000D02*
X75800000Y-87392000D01*
G04 #@! TO.C,SW1*
X91011000Y-99339000D02*
X91011000Y-105639000D01*
X85011000Y-105639000D02*
X85011000Y-99339000D01*
X91011000Y-105639000D02*
X85011000Y-105639000D01*
X85011000Y-99339000D02*
X91011000Y-99339000D01*
X89511000Y-102489000D02*
G75*
G03*
X89511000Y-102489000I-1500000J0D01*
G01*
G04 #@! TO.C,C1*
X83062000Y-78196000D02*
X83062000Y-77196000D01*
X83062000Y-77196000D02*
X83562000Y-77196000D01*
X83562000Y-77196000D02*
X83562000Y-78196000D01*
X83562000Y-78196000D02*
X83062000Y-78196000D01*
G04 #@! TO.C,C6*
X84078000Y-81526000D02*
X84078000Y-80526000D01*
X84078000Y-80526000D02*
X84578000Y-80526000D01*
X84578000Y-80526000D02*
X84578000Y-81526000D01*
X84578000Y-81526000D02*
X84078000Y-81526000D01*
G04 #@! TO.C,R2*
X74659000Y-84566000D02*
X75709000Y-84566000D01*
X75709000Y-84566000D02*
X75709000Y-85106000D01*
X75709000Y-85106000D02*
X74659000Y-85106000D01*
X74659000Y-85106000D02*
X74659000Y-84566000D01*
G04 #@! TO.C,R6*
X93996000Y-85073000D02*
X93996000Y-86123000D01*
X93456000Y-86123000D02*
X93456000Y-85073000D01*
X93996000Y-86123000D02*
X93456000Y-86123000D01*
X93456000Y-85073000D02*
X93996000Y-85073000D01*
G04 #@! TO.C,C7*
X84840000Y-91547000D02*
X85340000Y-91547000D01*
X85340000Y-91547000D02*
X85340000Y-92547000D01*
X84840000Y-92547000D02*
X84840000Y-91547000D01*
X85340000Y-92547000D02*
X84840000Y-92547000D01*
G04 #@! TO.C,C10*
X91702000Y-86102000D02*
X91702000Y-85602000D01*
X92702000Y-85602000D02*
X92702000Y-86102000D01*
X91702000Y-85602000D02*
X92702000Y-85602000D01*
X92702000Y-86102000D02*
X91702000Y-86102000D01*
G04 #@! TO.C,R4*
X93743000Y-88503000D02*
X93743000Y-89043000D01*
X92693000Y-89043000D02*
X92693000Y-88503000D01*
X92693000Y-88503000D02*
X93743000Y-88503000D01*
X93743000Y-89043000D02*
X92693000Y-89043000D01*
G04 #@! TO.C,C8*
X87888000Y-92817000D02*
X88388000Y-92817000D01*
X87888000Y-93817000D02*
X87888000Y-92817000D01*
X88388000Y-93817000D02*
X87888000Y-93817000D01*
X88388000Y-92817000D02*
X88388000Y-93817000D01*
G04 #@! TO.C,C5*
X87626000Y-78196000D02*
X87126000Y-78196000D01*
X87126000Y-77196000D02*
X87626000Y-77196000D01*
X87626000Y-77196000D02*
X87626000Y-78196000D01*
X87126000Y-78196000D02*
X87126000Y-77196000D01*
G04 #@! TO.C,C2*
X84078000Y-78196000D02*
X84078000Y-77196000D01*
X84578000Y-77196000D02*
X84578000Y-78196000D01*
X84078000Y-77196000D02*
X84578000Y-77196000D01*
X84578000Y-78196000D02*
X84078000Y-78196000D01*
G04 #@! TO.C,X1*
X90881000Y-95751000D02*
X90881000Y-98051000D01*
X87781000Y-95651000D02*
X90781000Y-95651000D01*
X90881000Y-98051000D02*
X90781000Y-98151000D01*
X87681000Y-98051000D02*
X87681000Y-95751000D01*
X87781000Y-98151000D02*
X87681000Y-98051000D01*
X87681000Y-95751000D02*
X87781000Y-95651000D01*
X90781000Y-95651000D02*
X90881000Y-95751000D01*
X90781000Y-98151000D02*
X87781000Y-98151000D01*
X90881000Y-96651000D02*
X89881000Y-95651000D01*
D17*
G04 #@! TO.C,J2*
X72644000Y-98425000D02*
X72644000Y-92329000D01*
X82550000Y-98425000D02*
X72644000Y-98425000D01*
X82550000Y-92329000D02*
X82550000Y-98425000D01*
X72644000Y-92329000D02*
X82550000Y-92329000D01*
D20*
X76497000Y-96877000D02*
G75*
G03*
X76497000Y-96877000I-150000J0D01*
G01*
D19*
G04 #@! TO.C,C4*
X86110000Y-77196000D02*
X86610000Y-77196000D01*
X86610000Y-77196000D02*
X86610000Y-78196000D01*
X86110000Y-78196000D02*
X86110000Y-77196000D01*
X86610000Y-78196000D02*
X86110000Y-78196000D01*
G04 #@! TO.C,R7*
X93891000Y-90032500D02*
X93891000Y-93232500D01*
X92291000Y-90032500D02*
X93891000Y-90032500D01*
X92291000Y-93232500D02*
X92291000Y-90032500D01*
X93891000Y-93232500D02*
X92291000Y-93232500D01*
G04 #@! TO.C,C11*
X79002000Y-87372000D02*
X79002000Y-86872000D01*
X80002000Y-87372000D02*
X79002000Y-87372000D01*
X79002000Y-86872000D02*
X80002000Y-86872000D01*
X80002000Y-86872000D02*
X80002000Y-87372000D01*
G04 #@! TO.C,R8*
X73169000Y-78851000D02*
X73169000Y-79391000D01*
X72119000Y-78851000D02*
X73169000Y-78851000D01*
X73169000Y-79391000D02*
X72119000Y-79391000D01*
X72119000Y-79391000D02*
X72119000Y-78851000D01*
G04 #@! TO.C,R3*
X90948000Y-83837000D02*
X90408000Y-83837000D01*
X90948000Y-82787000D02*
X90948000Y-83837000D01*
X90408000Y-82787000D02*
X90948000Y-82787000D01*
X90408000Y-83837000D02*
X90408000Y-82787000D01*
G04 #@! TO.C,C9*
X90928000Y-84745000D02*
X90928000Y-85745000D01*
X90428000Y-85745000D02*
X90428000Y-84745000D01*
X90428000Y-84745000D02*
X90928000Y-84745000D01*
X90928000Y-85745000D02*
X90428000Y-85745000D01*
G04 #@! TD*
M02*
