M48
INCH,TZ
T1C0.0157
T2C0.0276
T3C0.0394
T4C0.1201
T5C0.1260
%
G90
G05
T1
X28450Y-34050
X28900Y-33800
X29000Y-32900
X29300Y-34300
X29900Y-32500
X30200Y-33500
X30300Y-36300
X30400Y-37500
X31100Y-34300
X31500Y-36600
X31700Y-37500
X32000Y-36200
X32900Y-37500
X33100Y-36200
X33300Y-36700
X34900Y-30400
X35600Y-30900
X35700Y-34800
X36800Y-39000
X38000Y-36800
X38200Y-35000
X38900Y-37100
X38900Y-37800
X39600Y-30500
X39600Y-32000
X42289Y-35411
X42755Y-33655
X47745Y-33655
T3
X44741Y-30383
X44741Y-31474
X44741Y-32564
X44741Y-33655
X44741Y-34745
X44741Y-35836
X44741Y-36926
X44741Y-38017
X45859Y-30928
X45859Y-32019
X45859Y-33109
X45859Y-34200
X45859Y-35291
X45859Y-36381
X45859Y-37472
T4
X45308Y-27645
X45308Y-40755
T5
X27600Y-40200
X27600Y-28200
T2
G00X26889Y-31945
M15
G01X26653Y-31945
M16
G05
G00X26889Y-35055
M15
G01X26653Y-35055
M16
G05
T0
M30
