G04 #@! TF.GenerationSoftware,KiCad,Pcbnew,(5.1.6-85-g2d1f6937d)*
G04 #@! TF.CreationDate,2020-10-21T20:04:15-07:00*
G04 #@! TF.ProjectId,3DProUsb,33445072-6f55-4736-922e-6b696361645f,rev?*
G04 #@! TF.SameCoordinates,Original*
G04 #@! TF.FileFunction,Profile,NP*
%FSLAX46Y46*%
G04 Gerber Fmt 4.6, Leading zero omitted, Abs format (unit mm)*
G04 Created by KiCad (PCBNEW (5.1.6-85-g2d1f6937d)) date 2020-10-21 20:04:15*
%MOMM*%
%LPD*%
G01*
G04 APERTURE LIST*
G04 #@! TA.AperFunction,Profile*
%ADD10C,0.050000*%
G04 #@! TD*
G04 #@! TA.AperFunction,Profile*
%ADD11C,0.000100*%
G04 #@! TD*
G04 APERTURE END LIST*
D10*
X65532000Y-104902000D02*
X65532000Y-68834000D01*
X124714000Y-68834000D02*
X124714000Y-104902000D01*
X67310000Y-67056000D02*
X122936000Y-67056000D01*
X67310000Y-106680000D02*
X122936000Y-106680000D01*
X67310000Y-106680000D02*
G75*
G02*
X65532000Y-104902000I0J1778000D01*
G01*
X124714000Y-104902000D02*
G75*
G02*
X122936000Y-106680000I-1778000J0D01*
G01*
X122936000Y-67056000D02*
G75*
G02*
X124714000Y-68834000I0J-1778000D01*
G01*
X65532000Y-68834000D02*
G75*
G02*
X67310000Y-67056000I1778000J0D01*
G01*
D11*
G04 #@! TO.C,J1*
X65532000Y-80190000D02*
X65532000Y-81690000D01*
X66682000Y-82265000D02*
X66032000Y-82265000D01*
X66682000Y-83165000D02*
X66032000Y-83165000D01*
X65532000Y-81690000D02*
X66032000Y-82265000D01*
X65532000Y-85090000D02*
X65532000Y-83790000D01*
X65532000Y-83790000D02*
X66032000Y-83165000D01*
X65532000Y-89990000D02*
X65532000Y-88490000D01*
X66682000Y-87915000D02*
X66032000Y-87915000D01*
X66682000Y-87015000D02*
X66032000Y-87015000D01*
X65532000Y-88490000D02*
X66032000Y-87915000D01*
X65532000Y-85090000D02*
X65532000Y-86390000D01*
X65532000Y-86390000D02*
X66032000Y-87015000D01*
X66682000Y-82265000D02*
G75*
G02*
X66682000Y-83165000I0J-450000D01*
G01*
X66682000Y-87915000D02*
G75*
G03*
X66682000Y-87015000I0J450000D01*
G01*
G04 #@! TD*
M02*
