G04 #@! TF.GenerationSoftware,KiCad,Pcbnew,(6.0.8-1)-1*
G04 #@! TF.CreationDate,2022-10-23T23:20:26-07:00*
G04 #@! TF.ProjectId,3DProUsb,33445072-6f55-4736-922e-6b696361645f,rev?*
G04 #@! TF.SameCoordinates,Original*
G04 #@! TF.FileFunction,Copper,L2,Bot*
G04 #@! TF.FilePolarity,Positive*
%FSLAX46Y46*%
G04 Gerber Fmt 4.6, Leading zero omitted, Abs format (unit mm)*
G04 Created by KiCad (PCBNEW (6.0.8-1)-1) date 2022-10-23 23:20:26*
%MOMM*%
%LPD*%
G01*
G04 APERTURE LIST*
G04 #@! TA.AperFunction,ComponentPad*
%ADD10R,1.508000X1.508000*%
G04 #@! TD*
G04 #@! TA.AperFunction,ComponentPad*
%ADD11C,1.508000*%
G04 #@! TD*
G04 #@! TA.AperFunction,ComponentPad*
%ADD12C,4.066000*%
G04 #@! TD*
G04 #@! TA.AperFunction,ComponentPad*
%ADD13C,6.400000*%
G04 #@! TD*
G04 #@! TA.AperFunction,ComponentPad*
%ADD14O,2.100000X1.050000*%
G04 #@! TD*
G04 #@! TA.AperFunction,ComponentPad*
%ADD15O,2.000000X1.000000*%
G04 #@! TD*
G04 #@! TA.AperFunction,ViaPad*
%ADD16C,0.800000*%
G04 #@! TD*
G04 #@! TA.AperFunction,Conductor*
%ADD17C,0.250000*%
G04 #@! TD*
G04 APERTURE END LIST*
D10*
G04 #@! TO.P,J3,1,1*
G04 #@! TO.N,VCC*
X96370000Y-77173000D03*
D11*
G04 #@! TO.P,J3,2,2*
G04 #@! TO.N,PB0_PD0*
X96370000Y-79943000D03*
G04 #@! TO.P,J3,3,3*
G04 #@! TO.N,Net-(J3-Pad3)*
X96370000Y-82713000D03*
G04 #@! TO.P,J3,4,4*
G04 #@! TO.N,Earth*
X96370000Y-85483000D03*
G04 #@! TO.P,J3,5,5*
G04 #@! TO.N,unconnected-(J3-Pad5)*
X96370000Y-88253000D03*
G04 #@! TO.P,J3,6,6*
G04 #@! TO.N,unconnected-(J3-Pad6)*
X96370000Y-91023000D03*
G04 #@! TO.P,J3,7,7*
G04 #@! TO.N,SCLK*
X96370000Y-93793000D03*
G04 #@! TO.P,J3,8,8*
G04 #@! TO.N,unconnected-(J3-Pad8)*
X96370000Y-96563000D03*
G04 #@! TO.P,J3,9,9*
G04 #@! TO.N,unconnected-(J3-Pad9)*
X99210000Y-78558000D03*
G04 #@! TO.P,J3,10,10*
G04 #@! TO.N,MOSI*
X99210000Y-81328000D03*
G04 #@! TO.P,J3,11,11*
G04 #@! TO.N,Net-(J3-Pad11)*
X99210000Y-84098000D03*
G04 #@! TO.P,J3,12,12*
G04 #@! TO.N,Net-(J3-Pad12)*
X99210000Y-86868000D03*
G04 #@! TO.P,J3,13,13*
G04 #@! TO.N,Net-(J3-Pad11)*
X99210000Y-89638000D03*
G04 #@! TO.P,J3,14,14*
G04 #@! TO.N,MISO*
X99210000Y-92408000D03*
G04 #@! TO.P,J3,15,15*
G04 #@! TO.N,unconnected-(J3-Pad15)*
X99210000Y-95178000D03*
D12*
G04 #@! TO.P,J3,S1*
G04 #@! TO.N,N/C*
X97810000Y-103518000D03*
G04 #@! TO.P,J3,S2*
X97810000Y-70218000D03*
G04 #@! TD*
D13*
G04 #@! TO.P,REF\u002A\u002A,1*
G04 #@! TO.N,N/C*
X70104000Y-71628000D03*
G04 #@! TD*
G04 #@! TO.P,REF\u002A\u002A,1*
G04 #@! TO.N,N/C*
X70104000Y-102108000D03*
G04 #@! TD*
D14*
G04 #@! TO.P,J1,S1,SHELL_GND*
G04 #@! TO.N,Earth*
X72760000Y-81024000D03*
D15*
G04 #@! TO.P,J1,S2,SHELL_GND__1*
X68580000Y-81024000D03*
G04 #@! TO.P,J1,S3,SHELL_GND__2*
X68580000Y-89664000D03*
D14*
G04 #@! TO.P,J1,S4,SHELL_GND__3*
X72760000Y-89664000D03*
G04 #@! TD*
D16*
G04 #@! TO.N,Earth*
X77851000Y-87122000D03*
X80518000Y-81026000D03*
X85344000Y-94869000D03*
X77978000Y-81026000D03*
X74803000Y-88773000D03*
X78740000Y-91186000D03*
X92456000Y-94869000D03*
X91821000Y-83439000D03*
G04 #@! TO.N,VCC*
X69215000Y-85217000D03*
X77978000Y-78867000D03*
X92583000Y-82296000D03*
X76327000Y-90932000D03*
X92583000Y-77216000D03*
X84582000Y-93345000D03*
X92583000Y-80010000D03*
X91186000Y-88392000D03*
G04 #@! TO.N,MISO*
X82492000Y-91371000D03*
G04 #@! TO.N,SCLK*
X77597000Y-99441000D03*
G04 #@! TO.N,MOSI*
X79121000Y-90043000D03*
X77597000Y-91440000D03*
X80899000Y-90043000D03*
G04 #@! TO.N,RST*
X78867000Y-99187000D03*
X81788000Y-100330000D03*
G04 #@! TO.N,PB0_PD0*
X89535000Y-81788000D03*
X79756000Y-88900000D03*
G04 #@! TD*
D17*
G04 #@! TO.N,SCLK*
X77597000Y-99441000D02*
X77597000Y-101981000D01*
X77597000Y-101981000D02*
X78105000Y-102489000D01*
X93726000Y-95377000D02*
X95310000Y-93793000D01*
X78105000Y-102489000D02*
X91186000Y-102489000D01*
X91186000Y-102489000D02*
X93726000Y-99949000D01*
X93726000Y-99949000D02*
X93726000Y-95377000D01*
X95310000Y-93793000D02*
X96370000Y-93793000D01*
G04 #@! TO.N,Earth*
X91694000Y-99822000D02*
X92456000Y-99060000D01*
X86106000Y-99822000D02*
X91694000Y-99822000D01*
X85344000Y-94869000D02*
X85344000Y-99060000D01*
X85344000Y-99060000D02*
X86106000Y-99822000D01*
X92456000Y-99060000D02*
X92456000Y-94869000D01*
X77851000Y-88138000D02*
X77851000Y-87122000D01*
X74803000Y-88773000D02*
X77216000Y-88773000D01*
X77851000Y-88138000D02*
X78041500Y-88328500D01*
X77660500Y-88328500D02*
X78041500Y-88328500D01*
X77660500Y-88328500D02*
X77851000Y-88138000D01*
X80518000Y-81026000D02*
X77978000Y-81026000D01*
X78446000Y-90892000D02*
X78740000Y-91186000D01*
X78446000Y-88733000D02*
X78446000Y-90892000D01*
X78041500Y-88328500D02*
X78446000Y-88733000D01*
X77216000Y-88773000D02*
X77660500Y-88328500D01*
G04 #@! TO.N,VCC*
X91186000Y-88392000D02*
X92583000Y-86995000D01*
X76327000Y-91821000D02*
X76327000Y-90932000D01*
X82931000Y-93345000D02*
X82423000Y-92837000D01*
X82423000Y-92837000D02*
X77343000Y-92837000D01*
X72390000Y-78867000D02*
X77978000Y-78867000D01*
X92583000Y-80010000D02*
X92583000Y-77216000D01*
X84582000Y-93345000D02*
X82931000Y-93345000D01*
X69215000Y-85217000D02*
X69215000Y-82042000D01*
X69215000Y-82042000D02*
X72390000Y-78867000D01*
X92583000Y-86995000D02*
X92583000Y-82296000D01*
X77343000Y-92837000D02*
X76327000Y-91821000D01*
G04 #@! TO.N,MISO*
X82492000Y-91371000D02*
X83529000Y-92408000D01*
X83529000Y-92408000D02*
X99210000Y-92408000D01*
G04 #@! TO.N,MOSI*
X77597000Y-91440000D02*
X78486000Y-92329000D01*
X83608405Y-89300000D02*
X84182000Y-89300000D01*
X78486000Y-92329000D02*
X80579405Y-92329000D01*
X92154000Y-81328000D02*
X99210000Y-81328000D01*
X84182000Y-89300000D02*
X92154000Y-81328000D01*
X80579405Y-92329000D02*
X83608405Y-89300000D01*
X80899000Y-90043000D02*
X79121000Y-90043000D01*
G04 #@! TO.N,RST*
X79375000Y-100330000D02*
X81788000Y-100330000D01*
X78867000Y-99822000D02*
X79375000Y-100330000D01*
X78867000Y-99187000D02*
X78867000Y-99822000D01*
G04 #@! TO.N,Net-(J3-Pad11)*
X100354000Y-89638000D02*
X99210000Y-89638000D01*
X100838000Y-84582000D02*
X100838000Y-89154000D01*
X100838000Y-89154000D02*
X100354000Y-89638000D01*
X100354000Y-84098000D02*
X100838000Y-84582000D01*
X99210000Y-84098000D02*
X100354000Y-84098000D01*
G04 #@! TO.N,PB0_PD0*
X89569657Y-81822657D02*
X89535000Y-81788000D01*
X84016314Y-88900000D02*
X89569657Y-83346657D01*
X79756000Y-88900000D02*
X84016314Y-88900000D01*
X89569657Y-83346657D02*
X89569657Y-81822657D01*
G04 #@! TD*
G04 #@! TA.AperFunction,Conductor*
G04 #@! TO.N,Earth*
G36*
X97015668Y-67584502D02*
G01*
X97062161Y-67638158D01*
X97072265Y-67708432D01*
X97042771Y-67773012D01*
X96993930Y-67807652D01*
X96738906Y-67908623D01*
X96725742Y-67913835D01*
X96722274Y-67915741D01*
X96722273Y-67915742D01*
X96575527Y-67996417D01*
X96445504Y-68067898D01*
X96406470Y-68096258D01*
X96214864Y-68235468D01*
X96186784Y-68255869D01*
X95953663Y-68474784D01*
X95749818Y-68721190D01*
X95578463Y-68991202D01*
X95576779Y-68994781D01*
X95576775Y-68994788D01*
X95443990Y-69276972D01*
X95442301Y-69280562D01*
X95343479Y-69584705D01*
X95283555Y-69898836D01*
X95263475Y-70218000D01*
X95283555Y-70537164D01*
X95343479Y-70851295D01*
X95442301Y-71155438D01*
X95443988Y-71159024D01*
X95443990Y-71159028D01*
X95576775Y-71441212D01*
X95576779Y-71441219D01*
X95578463Y-71444798D01*
X95749818Y-71714810D01*
X95953663Y-71961216D01*
X96186784Y-72180131D01*
X96445504Y-72368102D01*
X96448973Y-72370009D01*
X96448976Y-72370011D01*
X96722273Y-72520258D01*
X96725742Y-72522165D01*
X96729411Y-72523618D01*
X96729416Y-72523620D01*
X97019397Y-72638431D01*
X97023080Y-72639889D01*
X97026914Y-72640873D01*
X97026922Y-72640876D01*
X97218536Y-72690073D01*
X97332829Y-72719419D01*
X97336757Y-72719915D01*
X97336761Y-72719916D01*
X97462280Y-72735773D01*
X97650102Y-72759500D01*
X97969898Y-72759500D01*
X98157720Y-72735773D01*
X98283239Y-72719916D01*
X98283243Y-72719915D01*
X98287171Y-72719419D01*
X98401464Y-72690073D01*
X98593078Y-72640876D01*
X98593086Y-72640873D01*
X98596920Y-72639889D01*
X98600603Y-72638431D01*
X98890584Y-72523620D01*
X98890589Y-72523618D01*
X98894258Y-72522165D01*
X98897727Y-72520258D01*
X99171024Y-72370011D01*
X99171027Y-72370009D01*
X99174496Y-72368102D01*
X99433216Y-72180131D01*
X99666337Y-71961216D01*
X99870182Y-71714810D01*
X100041537Y-71444798D01*
X100043221Y-71441219D01*
X100043225Y-71441212D01*
X100176010Y-71159028D01*
X100176012Y-71159024D01*
X100177699Y-71155438D01*
X100276521Y-70851295D01*
X100336445Y-70537164D01*
X100356525Y-70218000D01*
X100336445Y-69898836D01*
X100276521Y-69584705D01*
X100177699Y-69280562D01*
X100176010Y-69276972D01*
X100043225Y-68994788D01*
X100043221Y-68994781D01*
X100041537Y-68991202D01*
X99870182Y-68721190D01*
X99666337Y-68474784D01*
X99433216Y-68255869D01*
X99405137Y-68235468D01*
X99213530Y-68096258D01*
X99174496Y-68067898D01*
X99044474Y-67996417D01*
X98897727Y-67915742D01*
X98897726Y-67915741D01*
X98894258Y-67913835D01*
X98881094Y-67908623D01*
X98626070Y-67807652D01*
X98570096Y-67763978D01*
X98546619Y-67696975D01*
X98563095Y-67627916D01*
X98614290Y-67578728D01*
X98672453Y-67564500D01*
X105614633Y-67564500D01*
X105634018Y-67566000D01*
X105648851Y-67568310D01*
X105648855Y-67568310D01*
X105657724Y-67569691D01*
X105671789Y-67567852D01*
X105698003Y-67567176D01*
X105852709Y-67579352D01*
X105872236Y-67582445D01*
X106046661Y-67624321D01*
X106065455Y-67630427D01*
X106231184Y-67699074D01*
X106248795Y-67708048D01*
X106401742Y-67801775D01*
X106417730Y-67813390D01*
X106536213Y-67914584D01*
X106554132Y-67929888D01*
X106568110Y-67943866D01*
X106684610Y-68080270D01*
X106696225Y-68096258D01*
X106789952Y-68249205D01*
X106798926Y-68266816D01*
X106859037Y-68411938D01*
X106867571Y-68432540D01*
X106873679Y-68451339D01*
X106879308Y-68474784D01*
X106915555Y-68625763D01*
X106918648Y-68645291D01*
X106930272Y-68792987D01*
X106929630Y-68809875D01*
X106929800Y-68809877D01*
X106929690Y-68818853D01*
X106928309Y-68827724D01*
X106929473Y-68836626D01*
X106929473Y-68836628D01*
X106932436Y-68859283D01*
X106933500Y-68875621D01*
X106933500Y-104852633D01*
X106932000Y-104872018D01*
X106929690Y-104886851D01*
X106929690Y-104886855D01*
X106928309Y-104895724D01*
X106930148Y-104909789D01*
X106930824Y-104936003D01*
X106924885Y-105011466D01*
X106918648Y-105090709D01*
X106915555Y-105110236D01*
X106878658Y-105263927D01*
X106873681Y-105284656D01*
X106867573Y-105303455D01*
X106798926Y-105469184D01*
X106789952Y-105486795D01*
X106696225Y-105639742D01*
X106684610Y-105655730D01*
X106612993Y-105739583D01*
X106568112Y-105792132D01*
X106554134Y-105806110D01*
X106417730Y-105922610D01*
X106401742Y-105934225D01*
X106248795Y-106027952D01*
X106231184Y-106036926D01*
X106065455Y-106105573D01*
X106046661Y-106111679D01*
X105880805Y-106151498D01*
X105872237Y-106153555D01*
X105852709Y-106156648D01*
X105705013Y-106168272D01*
X105688125Y-106167630D01*
X105688123Y-106167800D01*
X105679147Y-106167690D01*
X105670276Y-106166309D01*
X105661374Y-106167473D01*
X105661372Y-106167473D01*
X105646323Y-106169441D01*
X105638714Y-106170436D01*
X105622379Y-106171500D01*
X98672453Y-106171500D01*
X98604332Y-106151498D01*
X98557839Y-106097842D01*
X98547735Y-106027568D01*
X98577229Y-105962988D01*
X98626070Y-105928348D01*
X98890578Y-105823622D01*
X98894258Y-105822165D01*
X98923458Y-105806112D01*
X99171024Y-105670011D01*
X99171027Y-105670009D01*
X99174496Y-105668102D01*
X99403507Y-105501716D01*
X99430012Y-105482459D01*
X99430014Y-105482458D01*
X99433216Y-105480131D01*
X99666337Y-105261216D01*
X99870182Y-105014810D01*
X100041537Y-104744798D01*
X100043221Y-104741219D01*
X100043225Y-104741212D01*
X100176010Y-104459028D01*
X100176012Y-104459024D01*
X100177699Y-104455438D01*
X100276521Y-104151295D01*
X100336445Y-103837164D01*
X100356525Y-103518000D01*
X100336445Y-103198836D01*
X100276521Y-102884705D01*
X100177699Y-102580562D01*
X100176010Y-102576972D01*
X100043225Y-102294788D01*
X100043221Y-102294781D01*
X100041537Y-102291202D01*
X99870182Y-102021190D01*
X99866627Y-102016892D01*
X99787222Y-101920909D01*
X99666337Y-101774784D01*
X99433216Y-101555869D01*
X99174496Y-101367898D01*
X99110494Y-101332712D01*
X98897727Y-101215742D01*
X98897726Y-101215741D01*
X98894258Y-101213835D01*
X98890589Y-101212382D01*
X98890584Y-101212380D01*
X98600603Y-101097569D01*
X98600600Y-101097568D01*
X98596920Y-101096111D01*
X98593086Y-101095127D01*
X98593078Y-101095124D01*
X98401464Y-101045927D01*
X98287171Y-101016581D01*
X98283243Y-101016085D01*
X98283239Y-101016084D01*
X98152278Y-100999540D01*
X97969898Y-100976500D01*
X97650102Y-100976500D01*
X97467722Y-100999540D01*
X97336761Y-101016084D01*
X97336757Y-101016085D01*
X97332829Y-101016581D01*
X97218536Y-101045927D01*
X97026922Y-101095124D01*
X97026914Y-101095127D01*
X97023080Y-101096111D01*
X97019400Y-101097568D01*
X97019397Y-101097569D01*
X96729416Y-101212380D01*
X96729411Y-101212382D01*
X96725742Y-101213835D01*
X96722274Y-101215741D01*
X96722273Y-101215742D01*
X96509507Y-101332712D01*
X96445504Y-101367898D01*
X96186784Y-101555869D01*
X95953663Y-101774784D01*
X95832778Y-101920909D01*
X95753374Y-102016892D01*
X95749818Y-102021190D01*
X95578463Y-102291202D01*
X95576779Y-102294781D01*
X95576775Y-102294788D01*
X95443990Y-102576972D01*
X95442301Y-102580562D01*
X95343479Y-102884705D01*
X95283555Y-103198836D01*
X95263475Y-103518000D01*
X95283555Y-103837164D01*
X95343479Y-104151295D01*
X95442301Y-104455438D01*
X95443988Y-104459024D01*
X95443990Y-104459028D01*
X95576775Y-104741212D01*
X95576779Y-104741219D01*
X95578463Y-104744798D01*
X95749818Y-105014810D01*
X95953663Y-105261216D01*
X96186784Y-105480131D01*
X96189986Y-105482458D01*
X96189988Y-105482459D01*
X96216493Y-105501716D01*
X96445504Y-105668102D01*
X96448973Y-105670009D01*
X96448976Y-105670011D01*
X96696542Y-105806112D01*
X96725742Y-105822165D01*
X96729422Y-105823622D01*
X96993930Y-105928348D01*
X97049904Y-105972022D01*
X97073381Y-106039025D01*
X97056905Y-106108084D01*
X97005710Y-106157272D01*
X96947547Y-106171500D01*
X67359367Y-106171500D01*
X67339982Y-106170000D01*
X67325149Y-106167690D01*
X67325145Y-106167690D01*
X67316276Y-106166309D01*
X67302211Y-106168148D01*
X67275997Y-106168824D01*
X67121291Y-106156648D01*
X67101763Y-106153555D01*
X67093195Y-106151498D01*
X66927339Y-106111679D01*
X66908545Y-106105573D01*
X66742816Y-106036926D01*
X66725205Y-106027952D01*
X66572258Y-105934225D01*
X66556270Y-105922610D01*
X66419866Y-105806110D01*
X66405888Y-105792132D01*
X66361007Y-105739583D01*
X66289390Y-105655730D01*
X66277775Y-105639742D01*
X66184048Y-105486795D01*
X66175074Y-105469184D01*
X66106427Y-105303455D01*
X66100319Y-105284656D01*
X66095343Y-105263927D01*
X66058445Y-105110236D01*
X66055352Y-105090709D01*
X66044009Y-104946583D01*
X66044994Y-104924258D01*
X66044334Y-104924199D01*
X66044769Y-104919351D01*
X66045576Y-104914552D01*
X66045729Y-104902000D01*
X66041773Y-104874376D01*
X66040500Y-104856514D01*
X66040500Y-102108000D01*
X66390411Y-102108000D01*
X66410754Y-102496176D01*
X66411267Y-102499416D01*
X66411268Y-102499424D01*
X66424717Y-102584335D01*
X66471562Y-102880099D01*
X66572167Y-103255562D01*
X66711468Y-103618453D01*
X66887938Y-103964794D01*
X67099643Y-104290793D01*
X67344266Y-104592876D01*
X67619124Y-104867734D01*
X67621682Y-104869806D01*
X67621686Y-104869809D01*
X67688852Y-104924199D01*
X67921207Y-105112357D01*
X67923970Y-105114152D01*
X67923971Y-105114152D01*
X68215481Y-105303460D01*
X68247205Y-105324062D01*
X68250139Y-105325557D01*
X68250146Y-105325561D01*
X68494755Y-105450195D01*
X68593547Y-105500532D01*
X68956438Y-105639833D01*
X69331901Y-105740438D01*
X69535793Y-105772732D01*
X69712576Y-105800732D01*
X69712584Y-105800733D01*
X69715824Y-105801246D01*
X70104000Y-105821589D01*
X70492176Y-105801246D01*
X70495416Y-105800733D01*
X70495424Y-105800732D01*
X70672207Y-105772732D01*
X70876099Y-105740438D01*
X71251562Y-105639833D01*
X71614453Y-105500532D01*
X71713245Y-105450195D01*
X71957854Y-105325561D01*
X71957861Y-105325557D01*
X71960795Y-105324062D01*
X71992520Y-105303460D01*
X72284029Y-105114152D01*
X72284030Y-105114152D01*
X72286793Y-105112357D01*
X72519148Y-104924199D01*
X72586314Y-104869809D01*
X72586318Y-104869806D01*
X72588876Y-104867734D01*
X72863734Y-104592876D01*
X73108357Y-104290793D01*
X73320062Y-103964794D01*
X73496532Y-103618453D01*
X73635833Y-103255562D01*
X73736438Y-102880099D01*
X73783283Y-102584335D01*
X73796732Y-102499424D01*
X73796733Y-102499416D01*
X73797246Y-102496176D01*
X73817589Y-102108000D01*
X73797246Y-101719824D01*
X73793028Y-101693188D01*
X73741874Y-101370225D01*
X73736438Y-101335901D01*
X73635833Y-100960438D01*
X73632788Y-100952504D01*
X73497716Y-100600632D01*
X73496532Y-100597547D01*
X73413824Y-100435223D01*
X73321561Y-100254147D01*
X73321557Y-100254140D01*
X73320062Y-100251206D01*
X73301624Y-100222813D01*
X73110152Y-99927971D01*
X73110152Y-99927970D01*
X73108357Y-99925207D01*
X72919550Y-99692051D01*
X72865809Y-99625686D01*
X72865806Y-99625682D01*
X72863734Y-99623124D01*
X72588876Y-99348266D01*
X72476957Y-99257635D01*
X72289355Y-99105718D01*
X72286793Y-99103643D01*
X72122688Y-98997072D01*
X71963564Y-98893736D01*
X71963561Y-98893734D01*
X71960795Y-98891938D01*
X71957861Y-98890443D01*
X71957854Y-98890439D01*
X71617393Y-98716966D01*
X71614453Y-98715468D01*
X71251562Y-98576167D01*
X70876099Y-98475562D01*
X70672207Y-98443268D01*
X70495424Y-98415268D01*
X70495416Y-98415267D01*
X70492176Y-98414754D01*
X70104000Y-98394411D01*
X69715824Y-98414754D01*
X69712584Y-98415267D01*
X69712576Y-98415268D01*
X69535793Y-98443268D01*
X69331901Y-98475562D01*
X68956438Y-98576167D01*
X68593547Y-98715468D01*
X68590607Y-98716966D01*
X68250147Y-98890439D01*
X68250140Y-98890443D01*
X68247206Y-98891938D01*
X68244440Y-98893734D01*
X68244437Y-98893736D01*
X68228546Y-98904056D01*
X67921207Y-99103643D01*
X67918645Y-99105718D01*
X67731044Y-99257635D01*
X67619124Y-99348266D01*
X67344266Y-99623124D01*
X67342194Y-99625682D01*
X67342191Y-99625686D01*
X67288450Y-99692051D01*
X67099643Y-99925207D01*
X67097848Y-99927970D01*
X67097848Y-99927971D01*
X66906377Y-100222813D01*
X66887938Y-100251206D01*
X66886443Y-100254140D01*
X66886439Y-100254147D01*
X66794176Y-100435223D01*
X66711468Y-100597547D01*
X66710284Y-100600632D01*
X66575213Y-100952504D01*
X66572167Y-100960438D01*
X66471562Y-101335901D01*
X66466126Y-101370225D01*
X66414973Y-101693188D01*
X66410754Y-101719824D01*
X66390411Y-102108000D01*
X66040500Y-102108000D01*
X66040500Y-95426298D01*
X74049027Y-95426298D01*
X74079527Y-95627972D01*
X74081730Y-95633958D01*
X74081731Y-95633964D01*
X74147754Y-95813409D01*
X74147756Y-95813414D01*
X74149957Y-95819395D01*
X74257439Y-95992745D01*
X74397582Y-96140943D01*
X74402812Y-96144605D01*
X74402813Y-96144606D01*
X74537065Y-96238610D01*
X74564663Y-96257934D01*
X74751855Y-96338939D01*
X74758103Y-96340244D01*
X74758102Y-96340244D01*
X74946767Y-96379659D01*
X74946771Y-96379659D01*
X74951512Y-96380650D01*
X74956349Y-96380903D01*
X74956353Y-96380904D01*
X74956419Y-96380907D01*
X74958191Y-96381000D01*
X75107977Y-96381000D01*
X75213150Y-96370317D01*
X75253574Y-96366211D01*
X75253575Y-96366211D01*
X75259923Y-96365566D01*
X75454558Y-96304571D01*
X75632952Y-96205686D01*
X75787818Y-96072949D01*
X75912831Y-95911783D01*
X76002884Y-95728771D01*
X76009833Y-95702095D01*
X76052688Y-95537572D01*
X76052688Y-95537569D01*
X76054298Y-95531390D01*
X76061285Y-95398068D01*
X76064639Y-95334083D01*
X76064639Y-95334079D01*
X76064973Y-95327702D01*
X76038040Y-95149616D01*
X76035428Y-95132342D01*
X76035428Y-95132341D01*
X76034473Y-95126028D01*
X76032270Y-95120042D01*
X76032269Y-95120036D01*
X75966246Y-94940591D01*
X75966244Y-94940586D01*
X75964043Y-94934605D01*
X75856561Y-94761255D01*
X75764412Y-94663809D01*
X75720803Y-94617694D01*
X75716418Y-94613057D01*
X75702210Y-94603108D01*
X75554570Y-94499730D01*
X75554569Y-94499729D01*
X75549337Y-94496066D01*
X75362145Y-94415061D01*
X75308802Y-94403917D01*
X75167233Y-94374341D01*
X75167229Y-94374341D01*
X75162488Y-94373350D01*
X75157651Y-94373097D01*
X75157647Y-94373096D01*
X75157581Y-94373093D01*
X75155809Y-94373000D01*
X75006023Y-94373000D01*
X74933708Y-94380345D01*
X74860426Y-94387789D01*
X74860425Y-94387789D01*
X74854077Y-94388434D01*
X74659442Y-94449429D01*
X74481048Y-94548314D01*
X74326182Y-94681051D01*
X74201169Y-94842217D01*
X74111116Y-95025229D01*
X74109507Y-95031407D01*
X74109506Y-95031409D01*
X74065890Y-95198855D01*
X74059702Y-95222610D01*
X74055873Y-95295677D01*
X74050794Y-95392589D01*
X74049027Y-95426298D01*
X66040500Y-95426298D01*
X66040500Y-90932000D01*
X75413496Y-90932000D01*
X75414186Y-90938565D01*
X75430140Y-91090355D01*
X75433458Y-91121928D01*
X75492473Y-91303556D01*
X75587960Y-91468944D01*
X75661137Y-91550215D01*
X75691853Y-91614221D01*
X75693500Y-91634524D01*
X75693500Y-91742233D01*
X75692973Y-91753416D01*
X75691298Y-91760909D01*
X75691547Y-91768835D01*
X75691547Y-91768836D01*
X75693438Y-91828986D01*
X75693500Y-91832945D01*
X75693500Y-91860856D01*
X75693997Y-91864790D01*
X75693997Y-91864791D01*
X75694005Y-91864856D01*
X75694938Y-91876693D01*
X75696327Y-91920889D01*
X75701978Y-91940339D01*
X75705987Y-91959700D01*
X75708526Y-91979797D01*
X75711445Y-91987168D01*
X75711445Y-91987170D01*
X75724804Y-92020912D01*
X75728649Y-92032142D01*
X75740982Y-92074593D01*
X75745015Y-92081412D01*
X75745017Y-92081417D01*
X75751293Y-92092028D01*
X75759988Y-92109776D01*
X75767448Y-92128617D01*
X75772110Y-92135033D01*
X75772110Y-92135034D01*
X75793436Y-92164387D01*
X75799952Y-92174307D01*
X75822458Y-92212362D01*
X75836779Y-92226683D01*
X75849619Y-92241716D01*
X75861528Y-92258107D01*
X75867632Y-92263157D01*
X75867637Y-92263162D01*
X75895598Y-92286293D01*
X75904379Y-92294283D01*
X76839353Y-93229258D01*
X76846887Y-93237537D01*
X76851000Y-93244018D01*
X76885008Y-93275953D01*
X76900651Y-93290643D01*
X76903493Y-93293398D01*
X76923230Y-93313135D01*
X76926427Y-93315615D01*
X76935447Y-93323318D01*
X76967679Y-93353586D01*
X76974625Y-93357405D01*
X76974628Y-93357407D01*
X76985434Y-93363348D01*
X77001953Y-93374199D01*
X77017959Y-93386614D01*
X77025228Y-93389759D01*
X77025232Y-93389762D01*
X77058537Y-93404174D01*
X77069187Y-93409391D01*
X77107940Y-93430695D01*
X77115615Y-93432666D01*
X77115616Y-93432666D01*
X77127562Y-93435733D01*
X77146267Y-93442137D01*
X77164855Y-93450181D01*
X77172678Y-93451420D01*
X77172688Y-93451423D01*
X77208524Y-93457099D01*
X77220144Y-93459505D01*
X77255289Y-93468528D01*
X77262970Y-93470500D01*
X77283224Y-93470500D01*
X77302934Y-93472051D01*
X77322943Y-93475220D01*
X77330835Y-93474474D01*
X77366961Y-93471059D01*
X77378819Y-93470500D01*
X79299893Y-93470500D01*
X79368014Y-93490502D01*
X79414507Y-93544158D01*
X79424611Y-93614432D01*
X79399453Y-93673726D01*
X79281169Y-93826217D01*
X79191116Y-94009229D01*
X79189507Y-94015407D01*
X79189506Y-94015409D01*
X79159075Y-94132237D01*
X79139702Y-94206610D01*
X79137245Y-94253500D01*
X79130073Y-94390343D01*
X79129027Y-94410298D01*
X79159527Y-94611972D01*
X79161730Y-94617958D01*
X79161731Y-94617964D01*
X79227754Y-94797409D01*
X79227756Y-94797414D01*
X79229957Y-94803395D01*
X79254028Y-94842217D01*
X79329172Y-94963411D01*
X79337439Y-94976745D01*
X79477582Y-95124943D01*
X79482812Y-95128605D01*
X79482813Y-95128606D01*
X79617065Y-95222610D01*
X79644663Y-95241934D01*
X79650524Y-95244470D01*
X79650527Y-95244472D01*
X79689311Y-95261255D01*
X79743886Y-95306665D01*
X79765246Y-95374372D01*
X79746610Y-95442879D01*
X79700357Y-95487094D01*
X79561048Y-95564314D01*
X79406182Y-95697051D01*
X79281169Y-95858217D01*
X79191116Y-96041229D01*
X79189507Y-96047407D01*
X79189506Y-96047409D01*
X79166421Y-96136036D01*
X79139702Y-96238610D01*
X79136245Y-96304571D01*
X79132240Y-96381000D01*
X79129027Y-96442298D01*
X79159527Y-96643972D01*
X79161730Y-96649958D01*
X79161731Y-96649964D01*
X79227754Y-96829409D01*
X79227756Y-96829414D01*
X79229957Y-96835395D01*
X79337439Y-97008745D01*
X79477582Y-97156943D01*
X79482812Y-97160605D01*
X79482813Y-97160606D01*
X79570045Y-97221686D01*
X79644663Y-97273934D01*
X79831855Y-97354939D01*
X79838103Y-97356244D01*
X79838102Y-97356244D01*
X80026767Y-97395659D01*
X80026771Y-97395659D01*
X80031512Y-97396650D01*
X80036349Y-97396903D01*
X80036353Y-97396904D01*
X80036419Y-97396907D01*
X80038191Y-97397000D01*
X80187977Y-97397000D01*
X80260292Y-97389655D01*
X80333574Y-97382211D01*
X80333575Y-97382211D01*
X80339923Y-97381566D01*
X80534558Y-97320571D01*
X80712952Y-97221686D01*
X80867818Y-97088949D01*
X80992831Y-96927783D01*
X81082884Y-96744771D01*
X81084494Y-96738591D01*
X81132688Y-96553572D01*
X81132688Y-96553569D01*
X81134298Y-96547390D01*
X81140731Y-96424646D01*
X81144639Y-96350083D01*
X81144639Y-96350079D01*
X81144973Y-96343702D01*
X81114473Y-96142028D01*
X81112270Y-96136042D01*
X81112269Y-96136036D01*
X81046246Y-95956591D01*
X81046244Y-95956586D01*
X81044043Y-95950605D01*
X80936561Y-95777255D01*
X80909256Y-95748380D01*
X80800803Y-95633694D01*
X80796418Y-95629057D01*
X80788444Y-95623473D01*
X80634570Y-95515730D01*
X80634569Y-95515729D01*
X80629337Y-95512066D01*
X80623476Y-95509530D01*
X80623473Y-95509528D01*
X80584689Y-95492745D01*
X80530114Y-95447335D01*
X80508754Y-95379628D01*
X80527390Y-95311121D01*
X80573643Y-95266906D01*
X80707372Y-95192779D01*
X80712952Y-95189686D01*
X80867818Y-95056949D01*
X80992831Y-94895783D01*
X81082884Y-94712771D01*
X81089833Y-94686095D01*
X81132688Y-94521572D01*
X81132688Y-94521569D01*
X81134298Y-94515390D01*
X81139556Y-94415061D01*
X81144639Y-94318083D01*
X81144639Y-94318079D01*
X81144973Y-94311702D01*
X81114473Y-94110028D01*
X81112270Y-94104042D01*
X81112269Y-94104036D01*
X81046246Y-93924591D01*
X81046244Y-93924586D01*
X81044043Y-93918605D01*
X80986760Y-93826217D01*
X80939923Y-93750677D01*
X80939922Y-93750676D01*
X80936561Y-93745255D01*
X80909422Y-93716556D01*
X80877759Y-93683073D01*
X80845488Y-93619834D01*
X80852528Y-93549188D01*
X80896645Y-93493562D01*
X80969308Y-93470500D01*
X82108406Y-93470500D01*
X82176527Y-93490502D01*
X82197501Y-93507405D01*
X82427343Y-93737247D01*
X82434887Y-93745537D01*
X82439000Y-93752018D01*
X82444777Y-93757443D01*
X82488667Y-93798658D01*
X82491509Y-93801413D01*
X82511230Y-93821134D01*
X82514425Y-93823612D01*
X82523447Y-93831318D01*
X82555679Y-93861586D01*
X82562628Y-93865406D01*
X82573432Y-93871346D01*
X82589956Y-93882199D01*
X82605959Y-93894613D01*
X82646543Y-93912176D01*
X82657173Y-93917383D01*
X82695940Y-93938695D01*
X82703617Y-93940666D01*
X82703622Y-93940668D01*
X82715558Y-93943732D01*
X82734266Y-93950137D01*
X82752855Y-93958181D01*
X82760680Y-93959420D01*
X82760682Y-93959421D01*
X82796519Y-93965097D01*
X82808140Y-93967504D01*
X82843289Y-93976528D01*
X82850970Y-93978500D01*
X82871231Y-93978500D01*
X82890940Y-93980051D01*
X82910943Y-93983219D01*
X82918835Y-93982473D01*
X82924062Y-93981979D01*
X82954954Y-93979059D01*
X82966811Y-93978500D01*
X83873800Y-93978500D01*
X83941921Y-93998502D01*
X83961147Y-94014843D01*
X83961420Y-94014540D01*
X83966332Y-94018963D01*
X83970747Y-94023866D01*
X83992329Y-94039546D01*
X84045453Y-94078143D01*
X84125248Y-94136118D01*
X84131276Y-94138802D01*
X84131278Y-94138803D01*
X84293596Y-94211071D01*
X84299712Y-94213794D01*
X84382692Y-94231432D01*
X84480056Y-94252128D01*
X84480061Y-94252128D01*
X84486513Y-94253500D01*
X84677487Y-94253500D01*
X84683939Y-94252128D01*
X84683944Y-94252128D01*
X84781308Y-94231432D01*
X84864288Y-94213794D01*
X84870404Y-94211071D01*
X85032722Y-94138803D01*
X85032724Y-94138802D01*
X85038752Y-94136118D01*
X85193253Y-94023866D01*
X85229852Y-93983219D01*
X85316621Y-93886852D01*
X85316622Y-93886851D01*
X85321040Y-93881944D01*
X85396827Y-93750677D01*
X85413223Y-93722279D01*
X85413224Y-93722278D01*
X85416527Y-93716556D01*
X85475542Y-93534928D01*
X85478632Y-93505534D01*
X85494814Y-93351565D01*
X85495504Y-93345000D01*
X85478232Y-93180669D01*
X85491004Y-93110832D01*
X85539506Y-93058986D01*
X85603542Y-93041500D01*
X94875641Y-93041500D01*
X94943762Y-93061502D01*
X94990255Y-93115158D01*
X95000359Y-93185432D01*
X94970865Y-93250012D01*
X94939780Y-93275953D01*
X94925463Y-93284420D01*
X94925457Y-93284425D01*
X94918637Y-93288458D01*
X94904313Y-93302782D01*
X94889281Y-93315621D01*
X94872893Y-93327528D01*
X94858439Y-93345000D01*
X94844712Y-93361593D01*
X94836722Y-93370373D01*
X93333747Y-94873348D01*
X93325461Y-94880888D01*
X93318982Y-94885000D01*
X93313557Y-94890777D01*
X93272357Y-94934651D01*
X93269602Y-94937493D01*
X93249865Y-94957230D01*
X93247385Y-94960427D01*
X93239682Y-94969447D01*
X93209414Y-95001679D01*
X93205595Y-95008625D01*
X93205593Y-95008628D01*
X93199652Y-95019434D01*
X93188801Y-95035953D01*
X93176386Y-95051959D01*
X93173241Y-95059228D01*
X93173238Y-95059232D01*
X93158826Y-95092537D01*
X93153609Y-95103187D01*
X93132305Y-95141940D01*
X93130334Y-95149615D01*
X93130334Y-95149616D01*
X93127267Y-95161562D01*
X93120863Y-95180266D01*
X93112819Y-95198855D01*
X93111580Y-95206678D01*
X93111577Y-95206688D01*
X93105901Y-95242524D01*
X93103495Y-95254144D01*
X93100219Y-95266906D01*
X93092500Y-95296970D01*
X93092500Y-95317224D01*
X93090949Y-95336934D01*
X93087780Y-95356943D01*
X93091668Y-95398068D01*
X93091941Y-95400961D01*
X93092500Y-95412819D01*
X93092500Y-99634405D01*
X93072498Y-99702526D01*
X93055595Y-99723500D01*
X90960500Y-101818595D01*
X90898188Y-101852621D01*
X90871405Y-101855500D01*
X78419595Y-101855500D01*
X78351474Y-101835498D01*
X78330500Y-101818595D01*
X78267405Y-101755500D01*
X78233379Y-101693188D01*
X78230500Y-101666405D01*
X78230500Y-100385594D01*
X78250502Y-100317473D01*
X78304158Y-100270980D01*
X78374432Y-100260876D01*
X78439012Y-100290370D01*
X78445595Y-100296499D01*
X78871343Y-100722247D01*
X78878887Y-100730537D01*
X78883000Y-100737018D01*
X78888777Y-100742443D01*
X78932667Y-100783658D01*
X78935509Y-100786413D01*
X78955230Y-100806134D01*
X78958425Y-100808612D01*
X78967447Y-100816318D01*
X78999679Y-100846586D01*
X79006628Y-100850406D01*
X79017432Y-100856346D01*
X79033956Y-100867199D01*
X79049959Y-100879613D01*
X79090543Y-100897176D01*
X79101173Y-100902383D01*
X79139940Y-100923695D01*
X79147617Y-100925666D01*
X79147622Y-100925668D01*
X79159558Y-100928732D01*
X79178266Y-100935137D01*
X79196855Y-100943181D01*
X79204680Y-100944420D01*
X79204682Y-100944421D01*
X79240519Y-100950097D01*
X79252140Y-100952504D01*
X79287289Y-100961528D01*
X79294970Y-100963500D01*
X79315231Y-100963500D01*
X79334940Y-100965051D01*
X79354943Y-100968219D01*
X79362835Y-100967473D01*
X79368062Y-100966979D01*
X79398954Y-100964059D01*
X79410811Y-100963500D01*
X81079800Y-100963500D01*
X81147921Y-100983502D01*
X81167147Y-100999843D01*
X81167420Y-100999540D01*
X81172332Y-101003963D01*
X81176747Y-101008866D01*
X81186682Y-101016084D01*
X81298836Y-101097569D01*
X81331248Y-101121118D01*
X81337276Y-101123802D01*
X81337278Y-101123803D01*
X81499681Y-101196109D01*
X81505712Y-101198794D01*
X81585446Y-101215742D01*
X81686056Y-101237128D01*
X81686061Y-101237128D01*
X81692513Y-101238500D01*
X81883487Y-101238500D01*
X81889939Y-101237128D01*
X81889944Y-101237128D01*
X81990554Y-101215742D01*
X82070288Y-101198794D01*
X82076319Y-101196109D01*
X82238722Y-101123803D01*
X82238724Y-101123802D01*
X82244752Y-101121118D01*
X82399253Y-101008866D01*
X82427948Y-100976997D01*
X82522621Y-100871852D01*
X82522622Y-100871851D01*
X82527040Y-100866944D01*
X82602053Y-100737018D01*
X82619223Y-100707279D01*
X82619224Y-100707278D01*
X82622527Y-100701556D01*
X82681542Y-100519928D01*
X82688613Y-100452657D01*
X82700814Y-100336565D01*
X82701504Y-100330000D01*
X82693223Y-100251206D01*
X82682232Y-100146635D01*
X82682232Y-100146633D01*
X82681542Y-100140072D01*
X82622527Y-99958444D01*
X82527040Y-99793056D01*
X82399253Y-99651134D01*
X82244752Y-99538882D01*
X82238724Y-99536198D01*
X82238722Y-99536197D01*
X82076319Y-99463891D01*
X82076318Y-99463891D01*
X82070288Y-99461206D01*
X81975227Y-99441000D01*
X81889944Y-99422872D01*
X81889939Y-99422872D01*
X81883487Y-99421500D01*
X81692513Y-99421500D01*
X81686061Y-99422872D01*
X81686056Y-99422872D01*
X81600773Y-99441000D01*
X81505712Y-99461206D01*
X81499682Y-99463891D01*
X81499681Y-99463891D01*
X81337278Y-99536197D01*
X81337276Y-99536198D01*
X81331248Y-99538882D01*
X81176747Y-99651134D01*
X81172332Y-99656037D01*
X81167420Y-99660460D01*
X81166295Y-99659211D01*
X81112986Y-99692051D01*
X81079800Y-99696500D01*
X79830130Y-99696500D01*
X79762009Y-99676498D01*
X79715516Y-99622842D01*
X79705412Y-99552568D01*
X79710295Y-99531570D01*
X79760542Y-99376928D01*
X79763555Y-99348266D01*
X79779814Y-99193565D01*
X79780504Y-99187000D01*
X79760542Y-98997072D01*
X79701527Y-98815444D01*
X79606040Y-98650056D01*
X79478253Y-98508134D01*
X79379157Y-98436136D01*
X79329094Y-98399763D01*
X79329093Y-98399762D01*
X79323752Y-98395882D01*
X79317724Y-98393198D01*
X79317722Y-98393197D01*
X79155319Y-98320891D01*
X79155318Y-98320891D01*
X79149288Y-98318206D01*
X79055888Y-98298353D01*
X78968944Y-98279872D01*
X78968939Y-98279872D01*
X78962487Y-98278500D01*
X78771513Y-98278500D01*
X78765061Y-98279872D01*
X78765056Y-98279872D01*
X78678112Y-98298353D01*
X78584712Y-98318206D01*
X78578682Y-98320891D01*
X78578681Y-98320891D01*
X78416278Y-98393197D01*
X78416276Y-98393198D01*
X78410248Y-98395882D01*
X78404907Y-98399762D01*
X78404906Y-98399763D01*
X78354843Y-98436136D01*
X78255747Y-98508134D01*
X78251326Y-98513044D01*
X78251325Y-98513045D01*
X78168092Y-98605485D01*
X78107646Y-98642725D01*
X78036663Y-98641373D01*
X78023208Y-98636282D01*
X77885323Y-98574892D01*
X77885315Y-98574889D01*
X77879288Y-98572206D01*
X77785888Y-98552353D01*
X77698944Y-98533872D01*
X77698939Y-98533872D01*
X77692487Y-98532500D01*
X77501513Y-98532500D01*
X77495061Y-98533872D01*
X77495056Y-98533872D01*
X77408112Y-98552353D01*
X77314712Y-98572206D01*
X77308682Y-98574891D01*
X77308681Y-98574891D01*
X77146278Y-98647197D01*
X77146276Y-98647198D01*
X77140248Y-98649882D01*
X76985747Y-98762134D01*
X76981326Y-98767044D01*
X76981325Y-98767045D01*
X76937747Y-98815444D01*
X76857960Y-98904056D01*
X76762473Y-99069444D01*
X76703458Y-99251072D01*
X76702768Y-99257633D01*
X76702768Y-99257635D01*
X76685401Y-99422872D01*
X76683496Y-99441000D01*
X76684186Y-99447565D01*
X76694192Y-99542763D01*
X76703458Y-99630928D01*
X76762473Y-99812556D01*
X76857960Y-99977944D01*
X76931137Y-100059215D01*
X76961853Y-100123221D01*
X76963500Y-100143524D01*
X76963500Y-101902233D01*
X76962973Y-101913416D01*
X76961298Y-101920909D01*
X76961547Y-101928835D01*
X76961547Y-101928836D01*
X76963438Y-101988986D01*
X76963500Y-101992945D01*
X76963500Y-102020856D01*
X76963997Y-102024790D01*
X76963997Y-102024791D01*
X76964005Y-102024856D01*
X76964938Y-102036693D01*
X76966327Y-102080889D01*
X76971978Y-102100339D01*
X76975987Y-102119700D01*
X76978526Y-102139797D01*
X76981445Y-102147168D01*
X76981445Y-102147170D01*
X76994804Y-102180912D01*
X76998649Y-102192142D01*
X77010982Y-102234593D01*
X77015015Y-102241412D01*
X77015017Y-102241417D01*
X77021293Y-102252028D01*
X77029988Y-102269776D01*
X77037448Y-102288617D01*
X77042110Y-102295033D01*
X77042110Y-102295034D01*
X77063436Y-102324387D01*
X77069952Y-102334307D01*
X77092458Y-102372362D01*
X77106779Y-102386683D01*
X77119619Y-102401716D01*
X77131528Y-102418107D01*
X77137634Y-102423158D01*
X77165605Y-102446298D01*
X77174384Y-102454288D01*
X77601343Y-102881247D01*
X77608887Y-102889537D01*
X77613000Y-102896018D01*
X77618777Y-102901443D01*
X77662667Y-102942658D01*
X77665509Y-102945413D01*
X77685230Y-102965134D01*
X77688425Y-102967612D01*
X77697447Y-102975318D01*
X77729679Y-103005586D01*
X77736628Y-103009406D01*
X77747432Y-103015346D01*
X77763956Y-103026199D01*
X77779959Y-103038613D01*
X77820543Y-103056176D01*
X77831173Y-103061383D01*
X77869940Y-103082695D01*
X77877617Y-103084666D01*
X77877622Y-103084668D01*
X77889558Y-103087732D01*
X77908266Y-103094137D01*
X77926855Y-103102181D01*
X77934680Y-103103420D01*
X77934682Y-103103421D01*
X77970519Y-103109097D01*
X77982140Y-103111504D01*
X78013959Y-103119673D01*
X78024970Y-103122500D01*
X78045231Y-103122500D01*
X78064940Y-103124051D01*
X78084943Y-103127219D01*
X78092835Y-103126473D01*
X78098062Y-103125979D01*
X78128954Y-103123059D01*
X78140811Y-103122500D01*
X91107233Y-103122500D01*
X91118416Y-103123027D01*
X91125909Y-103124702D01*
X91133835Y-103124453D01*
X91133836Y-103124453D01*
X91193986Y-103122562D01*
X91197945Y-103122500D01*
X91225856Y-103122500D01*
X91229791Y-103122003D01*
X91229856Y-103121995D01*
X91241693Y-103121062D01*
X91273951Y-103120048D01*
X91277970Y-103119922D01*
X91285889Y-103119673D01*
X91305343Y-103114021D01*
X91324700Y-103110013D01*
X91336930Y-103108468D01*
X91336931Y-103108468D01*
X91344797Y-103107474D01*
X91352168Y-103104555D01*
X91352170Y-103104555D01*
X91385912Y-103091196D01*
X91397142Y-103087351D01*
X91431983Y-103077229D01*
X91431984Y-103077229D01*
X91439593Y-103075018D01*
X91446412Y-103070985D01*
X91446417Y-103070983D01*
X91457028Y-103064707D01*
X91474776Y-103056012D01*
X91493617Y-103048552D01*
X91513987Y-103033753D01*
X91529387Y-103022564D01*
X91539307Y-103016048D01*
X91570535Y-102997580D01*
X91570538Y-102997578D01*
X91577362Y-102993542D01*
X91591683Y-102979221D01*
X91606717Y-102966380D01*
X91608432Y-102965134D01*
X91623107Y-102954472D01*
X91651298Y-102920395D01*
X91659288Y-102911616D01*
X94118247Y-100452657D01*
X94126537Y-100445113D01*
X94133018Y-100441000D01*
X94179659Y-100391332D01*
X94182413Y-100388491D01*
X94202134Y-100368770D01*
X94204612Y-100365575D01*
X94212318Y-100356553D01*
X94237158Y-100330101D01*
X94242586Y-100324321D01*
X94252346Y-100306568D01*
X94263199Y-100290045D01*
X94270753Y-100280306D01*
X94275613Y-100274041D01*
X94293176Y-100233457D01*
X94298383Y-100222827D01*
X94319695Y-100184060D01*
X94321666Y-100176383D01*
X94321668Y-100176378D01*
X94324732Y-100164442D01*
X94331138Y-100145730D01*
X94336034Y-100134417D01*
X94339181Y-100127145D01*
X94344248Y-100095158D01*
X94346097Y-100083481D01*
X94348504Y-100071860D01*
X94357528Y-100036711D01*
X94357528Y-100036710D01*
X94359500Y-100029030D01*
X94359500Y-100008769D01*
X94361051Y-99989058D01*
X94362979Y-99976885D01*
X94364219Y-99969057D01*
X94360059Y-99925046D01*
X94359500Y-99913189D01*
X94359500Y-96563000D01*
X95102677Y-96563000D01*
X95121930Y-96783068D01*
X95179106Y-96996450D01*
X95272466Y-97196661D01*
X95399174Y-97377620D01*
X95555380Y-97533826D01*
X95559888Y-97536983D01*
X95559891Y-97536985D01*
X95731829Y-97657377D01*
X95736338Y-97660534D01*
X95741320Y-97662857D01*
X95741325Y-97662860D01*
X95931568Y-97751571D01*
X95936550Y-97753894D01*
X95941858Y-97755316D01*
X95941860Y-97755317D01*
X96007252Y-97772839D01*
X96149932Y-97811070D01*
X96370000Y-97830323D01*
X96590068Y-97811070D01*
X96732748Y-97772839D01*
X96798140Y-97755317D01*
X96798142Y-97755316D01*
X96803450Y-97753894D01*
X96808432Y-97751571D01*
X96998675Y-97662860D01*
X96998680Y-97662857D01*
X97003662Y-97660534D01*
X97008171Y-97657377D01*
X97180109Y-97536985D01*
X97180112Y-97536983D01*
X97184620Y-97533826D01*
X97340826Y-97377620D01*
X97467534Y-97196661D01*
X97560894Y-96996450D01*
X97618070Y-96783068D01*
X97637323Y-96563000D01*
X97618070Y-96342932D01*
X97579839Y-96200252D01*
X97562317Y-96134860D01*
X97562316Y-96134858D01*
X97560894Y-96129550D01*
X97536438Y-96077103D01*
X97469857Y-95934320D01*
X97469855Y-95934317D01*
X97467534Y-95929339D01*
X97340826Y-95748380D01*
X97184620Y-95592174D01*
X97180112Y-95589017D01*
X97180109Y-95589015D01*
X97008171Y-95468623D01*
X97008168Y-95468621D01*
X97003662Y-95465466D01*
X96998680Y-95463143D01*
X96998675Y-95463140D01*
X96808432Y-95374429D01*
X96808431Y-95374429D01*
X96803450Y-95372106D01*
X96798142Y-95370684D01*
X96798140Y-95370683D01*
X96717643Y-95349114D01*
X96590068Y-95314930D01*
X96459659Y-95303521D01*
X96393540Y-95277658D01*
X96370149Y-95245355D01*
X96357031Y-95268498D01*
X96294187Y-95301530D01*
X96280342Y-95303521D01*
X96149932Y-95314930D01*
X96022357Y-95349114D01*
X95941860Y-95370683D01*
X95941858Y-95370684D01*
X95936550Y-95372106D01*
X95931569Y-95374428D01*
X95931568Y-95374429D01*
X95741320Y-95463143D01*
X95741317Y-95463145D01*
X95736339Y-95465466D01*
X95555380Y-95592174D01*
X95399174Y-95748380D01*
X95272466Y-95929339D01*
X95270145Y-95934317D01*
X95270143Y-95934320D01*
X95203562Y-96077103D01*
X95179106Y-96129550D01*
X95177684Y-96134858D01*
X95177683Y-96134860D01*
X95160161Y-96200252D01*
X95121930Y-96342932D01*
X95102677Y-96563000D01*
X94359500Y-96563000D01*
X94359500Y-95691594D01*
X94379502Y-95623473D01*
X94396405Y-95602499D01*
X94820904Y-95178000D01*
X97942677Y-95178000D01*
X97961930Y-95398068D01*
X97985785Y-95487094D01*
X98016708Y-95602499D01*
X98019106Y-95611450D01*
X98021428Y-95616431D01*
X98021429Y-95616432D01*
X98098951Y-95782677D01*
X98112466Y-95811661D01*
X98239174Y-95992620D01*
X98395380Y-96148826D01*
X98399888Y-96151983D01*
X98399891Y-96151985D01*
X98554824Y-96260470D01*
X98576338Y-96275534D01*
X98581320Y-96277857D01*
X98581325Y-96277860D01*
X98765319Y-96363657D01*
X98776550Y-96368894D01*
X98781858Y-96370316D01*
X98781860Y-96370317D01*
X98821401Y-96380912D01*
X98989932Y-96426070D01*
X99210000Y-96445323D01*
X99430068Y-96426070D01*
X99598599Y-96380912D01*
X99638140Y-96370317D01*
X99638142Y-96370316D01*
X99643450Y-96368894D01*
X99654681Y-96363657D01*
X99838675Y-96277860D01*
X99838680Y-96277857D01*
X99843662Y-96275534D01*
X99865176Y-96260470D01*
X100020109Y-96151985D01*
X100020112Y-96151983D01*
X100024620Y-96148826D01*
X100180826Y-95992620D01*
X100307534Y-95811661D01*
X100321050Y-95782677D01*
X100398571Y-95616432D01*
X100398572Y-95616431D01*
X100400894Y-95611450D01*
X100403293Y-95602499D01*
X100434215Y-95487094D01*
X100458070Y-95398068D01*
X100477323Y-95178000D01*
X100458070Y-94957932D01*
X100415058Y-94797409D01*
X100402317Y-94749860D01*
X100402316Y-94749858D01*
X100400894Y-94744550D01*
X100386075Y-94712771D01*
X100309857Y-94549320D01*
X100309855Y-94549317D01*
X100307534Y-94544339D01*
X100180826Y-94363380D01*
X100024620Y-94207174D01*
X100020112Y-94204017D01*
X100020109Y-94204015D01*
X99848171Y-94083623D01*
X99848168Y-94083621D01*
X99843662Y-94080466D01*
X99838680Y-94078143D01*
X99838675Y-94078140D01*
X99648432Y-93989429D01*
X99648431Y-93989429D01*
X99643450Y-93987106D01*
X99638142Y-93985684D01*
X99638140Y-93985683D01*
X99535501Y-93958181D01*
X99430068Y-93929930D01*
X99299659Y-93918521D01*
X99233540Y-93892658D01*
X99210149Y-93860355D01*
X99197031Y-93883498D01*
X99134187Y-93916530D01*
X99120342Y-93918521D01*
X98989932Y-93929930D01*
X98884499Y-93958181D01*
X98781860Y-93985683D01*
X98781858Y-93985684D01*
X98776550Y-93987106D01*
X98771569Y-93989428D01*
X98771568Y-93989429D01*
X98581320Y-94078143D01*
X98581317Y-94078145D01*
X98576339Y-94080466D01*
X98395380Y-94207174D01*
X98239174Y-94363380D01*
X98112466Y-94544339D01*
X98110145Y-94549317D01*
X98110143Y-94549320D01*
X98033925Y-94712771D01*
X98019106Y-94744550D01*
X98017684Y-94749858D01*
X98017683Y-94749860D01*
X98004942Y-94797409D01*
X97961930Y-94957932D01*
X97942677Y-95178000D01*
X94820904Y-95178000D01*
X95306134Y-94692770D01*
X95368446Y-94658744D01*
X95439261Y-94663809D01*
X95484324Y-94692770D01*
X95555380Y-94763826D01*
X95559888Y-94766983D01*
X95559891Y-94766985D01*
X95731829Y-94887377D01*
X95736338Y-94890534D01*
X95741320Y-94892857D01*
X95741325Y-94892860D01*
X95931568Y-94981571D01*
X95936550Y-94983894D01*
X95941858Y-94985316D01*
X95941860Y-94985317D01*
X96002924Y-95001679D01*
X96149932Y-95041070D01*
X96273780Y-95051905D01*
X96280341Y-95052479D01*
X96346460Y-95078342D01*
X96369851Y-95110645D01*
X96382969Y-95087502D01*
X96445813Y-95054470D01*
X96459659Y-95052479D01*
X96466220Y-95051905D01*
X96590068Y-95041070D01*
X96737076Y-95001679D01*
X96798140Y-94985317D01*
X96798142Y-94985316D01*
X96803450Y-94983894D01*
X96808432Y-94981571D01*
X96998675Y-94892860D01*
X96998680Y-94892857D01*
X97003662Y-94890534D01*
X97008171Y-94887377D01*
X97180109Y-94766985D01*
X97180112Y-94766983D01*
X97184620Y-94763826D01*
X97340826Y-94607620D01*
X97467534Y-94426661D01*
X97475165Y-94410298D01*
X97558571Y-94231432D01*
X97558572Y-94231431D01*
X97560894Y-94226450D01*
X97565016Y-94211069D01*
X97585099Y-94136118D01*
X97618070Y-94013068D01*
X97637323Y-93793000D01*
X97618070Y-93572932D01*
X97568146Y-93386614D01*
X97562317Y-93364860D01*
X97562316Y-93364858D01*
X97560894Y-93359550D01*
X97496170Y-93220749D01*
X97485509Y-93150559D01*
X97514489Y-93085746D01*
X97573908Y-93046889D01*
X97610365Y-93041500D01*
X98046762Y-93041500D01*
X98114883Y-93061502D01*
X98149976Y-93095230D01*
X98239174Y-93222620D01*
X98395380Y-93378826D01*
X98399888Y-93381983D01*
X98399891Y-93381985D01*
X98533045Y-93475220D01*
X98576338Y-93505534D01*
X98581320Y-93507857D01*
X98581325Y-93507860D01*
X98771568Y-93596571D01*
X98776550Y-93598894D01*
X98781858Y-93600316D01*
X98781860Y-93600317D01*
X98834538Y-93614432D01*
X98989932Y-93656070D01*
X99120341Y-93667479D01*
X99186460Y-93693342D01*
X99209851Y-93725645D01*
X99222969Y-93702502D01*
X99285813Y-93669470D01*
X99299659Y-93667479D01*
X99430068Y-93656070D01*
X99585462Y-93614432D01*
X99638140Y-93600317D01*
X99638142Y-93600316D01*
X99643450Y-93598894D01*
X99648432Y-93596571D01*
X99838675Y-93507860D01*
X99838680Y-93507857D01*
X99843662Y-93505534D01*
X99886955Y-93475220D01*
X100020109Y-93381985D01*
X100020112Y-93381983D01*
X100024620Y-93378826D01*
X100180826Y-93222620D01*
X100307534Y-93041661D01*
X100400894Y-92841450D01*
X100458070Y-92628068D01*
X100477323Y-92408000D01*
X100458070Y-92187932D01*
X100404276Y-91987170D01*
X100402317Y-91979860D01*
X100402316Y-91979858D01*
X100400894Y-91974550D01*
X100379419Y-91928497D01*
X100309857Y-91779320D01*
X100309855Y-91779317D01*
X100307534Y-91774339D01*
X100180826Y-91593380D01*
X100024620Y-91437174D01*
X100020112Y-91434017D01*
X100020109Y-91434015D01*
X99848171Y-91313623D01*
X99848168Y-91313621D01*
X99843662Y-91310466D01*
X99838680Y-91308143D01*
X99838675Y-91308140D01*
X99648432Y-91219429D01*
X99648431Y-91219429D01*
X99643450Y-91217106D01*
X99638142Y-91215684D01*
X99638140Y-91215683D01*
X99572748Y-91198161D01*
X99430068Y-91159930D01*
X99299659Y-91148521D01*
X99233540Y-91122658D01*
X99210149Y-91090355D01*
X99197031Y-91113498D01*
X99134187Y-91146530D01*
X99120342Y-91148521D01*
X98989932Y-91159930D01*
X98847252Y-91198161D01*
X98781860Y-91215683D01*
X98781858Y-91215684D01*
X98776550Y-91217106D01*
X98771569Y-91219428D01*
X98771568Y-91219429D01*
X98581320Y-91308143D01*
X98581317Y-91308145D01*
X98576339Y-91310466D01*
X98395380Y-91437174D01*
X98239174Y-91593380D01*
X98193510Y-91658595D01*
X98149975Y-91720770D01*
X98094518Y-91765099D01*
X98046762Y-91774500D01*
X97610365Y-91774500D01*
X97542244Y-91754498D01*
X97495751Y-91700842D01*
X97485647Y-91630568D01*
X97496170Y-91595250D01*
X97498859Y-91589485D01*
X97560894Y-91456450D01*
X97565016Y-91441069D01*
X97590411Y-91346292D01*
X97618070Y-91243068D01*
X97637323Y-91023000D01*
X97618070Y-90802932D01*
X97566985Y-90612281D01*
X97562317Y-90594860D01*
X97562316Y-90594858D01*
X97560894Y-90589550D01*
X97551700Y-90569833D01*
X97469857Y-90394320D01*
X97469855Y-90394317D01*
X97467534Y-90389339D01*
X97340826Y-90208380D01*
X97184620Y-90052174D01*
X97180112Y-90049017D01*
X97180109Y-90049015D01*
X97008171Y-89928623D01*
X97008168Y-89928621D01*
X97003662Y-89925466D01*
X96998680Y-89923143D01*
X96998675Y-89923140D01*
X96808432Y-89834429D01*
X96808431Y-89834429D01*
X96803450Y-89832106D01*
X96798142Y-89830684D01*
X96798140Y-89830683D01*
X96715650Y-89808580D01*
X96590068Y-89774930D01*
X96459659Y-89763521D01*
X96393540Y-89737658D01*
X96370149Y-89705355D01*
X96357031Y-89728498D01*
X96294187Y-89761530D01*
X96280342Y-89763521D01*
X96149932Y-89774930D01*
X96024350Y-89808580D01*
X95941860Y-89830683D01*
X95941858Y-89830684D01*
X95936550Y-89832106D01*
X95931569Y-89834428D01*
X95931568Y-89834429D01*
X95741320Y-89923143D01*
X95741317Y-89923145D01*
X95736339Y-89925466D01*
X95555380Y-90052174D01*
X95399174Y-90208380D01*
X95272466Y-90389339D01*
X95270145Y-90394317D01*
X95270143Y-90394320D01*
X95188300Y-90569833D01*
X95179106Y-90589550D01*
X95177684Y-90594858D01*
X95177683Y-90594860D01*
X95173015Y-90612281D01*
X95121930Y-90802932D01*
X95102677Y-91023000D01*
X95121930Y-91243068D01*
X95149589Y-91346292D01*
X95174985Y-91441069D01*
X95179106Y-91456450D01*
X95241142Y-91589485D01*
X95243830Y-91595250D01*
X95254491Y-91665441D01*
X95225511Y-91730254D01*
X95166092Y-91769111D01*
X95129635Y-91774500D01*
X83843595Y-91774500D01*
X83775474Y-91754498D01*
X83754500Y-91737595D01*
X83439122Y-91422217D01*
X83405096Y-91359905D01*
X83402907Y-91346292D01*
X83399474Y-91313623D01*
X83391482Y-91237589D01*
X83386232Y-91187635D01*
X83386232Y-91187633D01*
X83385542Y-91181072D01*
X83326527Y-90999444D01*
X83301240Y-90955645D01*
X83234344Y-90839778D01*
X83234342Y-90839775D01*
X83231040Y-90834056D01*
X83187487Y-90785686D01*
X83156771Y-90721680D01*
X83165534Y-90651226D01*
X83192029Y-90612281D01*
X83833905Y-89970405D01*
X83896217Y-89936379D01*
X83923000Y-89933500D01*
X84103233Y-89933500D01*
X84114416Y-89934027D01*
X84121909Y-89935702D01*
X84129835Y-89935453D01*
X84129836Y-89935453D01*
X84189986Y-89933562D01*
X84193945Y-89933500D01*
X84221856Y-89933500D01*
X84225791Y-89933003D01*
X84225856Y-89932995D01*
X84237693Y-89932062D01*
X84269951Y-89931048D01*
X84273970Y-89930922D01*
X84281889Y-89930673D01*
X84301343Y-89925021D01*
X84320700Y-89921013D01*
X84332930Y-89919468D01*
X84332931Y-89919468D01*
X84340797Y-89918474D01*
X84348168Y-89915555D01*
X84348170Y-89915555D01*
X84381912Y-89902196D01*
X84393142Y-89898351D01*
X84427983Y-89888229D01*
X84427984Y-89888229D01*
X84435593Y-89886018D01*
X84442412Y-89881985D01*
X84442417Y-89881983D01*
X84453028Y-89875707D01*
X84470776Y-89867012D01*
X84489617Y-89859552D01*
X84525387Y-89833564D01*
X84535307Y-89827048D01*
X84566535Y-89808580D01*
X84566538Y-89808578D01*
X84573362Y-89804542D01*
X84587683Y-89790221D01*
X84602717Y-89777380D01*
X84606089Y-89774930D01*
X84619107Y-89765472D01*
X84647298Y-89731395D01*
X84655288Y-89722616D01*
X84739904Y-89638000D01*
X97942677Y-89638000D01*
X97961930Y-89858068D01*
X97982732Y-89935702D01*
X98016133Y-90060353D01*
X98019106Y-90071450D01*
X98021428Y-90076431D01*
X98021429Y-90076432D01*
X98110042Y-90266462D01*
X98112466Y-90271661D01*
X98239174Y-90452620D01*
X98395380Y-90608826D01*
X98399888Y-90611983D01*
X98399891Y-90611985D01*
X98571829Y-90732377D01*
X98576338Y-90735534D01*
X98581320Y-90737857D01*
X98581325Y-90737860D01*
X98771568Y-90826571D01*
X98776550Y-90828894D01*
X98781858Y-90830316D01*
X98781860Y-90830317D01*
X98817169Y-90839778D01*
X98989932Y-90886070D01*
X99120341Y-90897479D01*
X99186460Y-90923342D01*
X99209851Y-90955645D01*
X99222969Y-90932502D01*
X99285813Y-90899470D01*
X99299659Y-90897479D01*
X99430068Y-90886070D01*
X99602831Y-90839778D01*
X99638140Y-90830317D01*
X99638142Y-90830316D01*
X99643450Y-90828894D01*
X99648432Y-90826571D01*
X99838675Y-90737860D01*
X99838680Y-90737857D01*
X99843662Y-90735534D01*
X99848171Y-90732377D01*
X100020109Y-90611985D01*
X100020112Y-90611983D01*
X100024620Y-90608826D01*
X100180826Y-90452620D01*
X100270025Y-90325230D01*
X100325482Y-90280901D01*
X100373238Y-90271500D01*
X100393856Y-90271500D01*
X100397791Y-90271003D01*
X100397856Y-90270995D01*
X100409693Y-90270062D01*
X100441951Y-90269048D01*
X100445970Y-90268922D01*
X100453889Y-90268673D01*
X100473343Y-90263021D01*
X100492700Y-90259013D01*
X100504930Y-90257468D01*
X100504931Y-90257468D01*
X100512797Y-90256474D01*
X100520168Y-90253555D01*
X100520170Y-90253555D01*
X100553912Y-90240196D01*
X100565142Y-90236351D01*
X100599983Y-90226229D01*
X100599984Y-90226229D01*
X100607593Y-90224018D01*
X100614412Y-90219985D01*
X100614417Y-90219983D01*
X100625028Y-90213707D01*
X100642776Y-90205012D01*
X100661617Y-90197552D01*
X100697387Y-90171564D01*
X100707307Y-90165048D01*
X100738535Y-90146580D01*
X100738538Y-90146578D01*
X100745362Y-90142542D01*
X100759683Y-90128221D01*
X100774717Y-90115380D01*
X100784694Y-90108131D01*
X100791107Y-90103472D01*
X100819298Y-90069395D01*
X100827288Y-90060616D01*
X101230247Y-89657657D01*
X101238537Y-89650113D01*
X101245018Y-89646000D01*
X101252531Y-89638000D01*
X101291658Y-89596333D01*
X101294413Y-89593491D01*
X101314134Y-89573770D01*
X101316612Y-89570575D01*
X101324318Y-89561553D01*
X101349158Y-89535101D01*
X101354586Y-89529321D01*
X101363845Y-89512479D01*
X101364346Y-89511568D01*
X101375199Y-89495045D01*
X101382753Y-89485306D01*
X101387613Y-89479041D01*
X101405176Y-89438457D01*
X101410383Y-89427827D01*
X101431695Y-89389060D01*
X101433666Y-89381383D01*
X101433668Y-89381378D01*
X101436732Y-89369442D01*
X101443138Y-89350730D01*
X101448034Y-89339417D01*
X101451181Y-89332145D01*
X101456411Y-89299128D01*
X101458097Y-89288481D01*
X101460504Y-89276860D01*
X101469528Y-89241711D01*
X101469528Y-89241710D01*
X101471500Y-89234030D01*
X101471500Y-89213769D01*
X101473051Y-89194058D01*
X101474359Y-89185803D01*
X101476219Y-89174057D01*
X101472059Y-89130046D01*
X101471500Y-89118189D01*
X101471500Y-84660763D01*
X101472027Y-84649579D01*
X101473701Y-84642091D01*
X101471562Y-84574032D01*
X101471500Y-84570075D01*
X101471500Y-84542144D01*
X101470994Y-84538138D01*
X101470061Y-84526292D01*
X101468922Y-84490037D01*
X101468673Y-84482110D01*
X101463022Y-84462658D01*
X101459014Y-84443306D01*
X101457467Y-84431063D01*
X101456474Y-84423203D01*
X101453556Y-84415832D01*
X101440200Y-84382097D01*
X101436355Y-84370870D01*
X101435721Y-84368687D01*
X101424018Y-84328407D01*
X101419984Y-84321585D01*
X101419981Y-84321579D01*
X101413706Y-84310968D01*
X101405010Y-84293218D01*
X101400472Y-84281756D01*
X101400469Y-84281751D01*
X101397552Y-84274383D01*
X101371573Y-84238625D01*
X101365057Y-84228707D01*
X101346575Y-84197457D01*
X101342542Y-84190637D01*
X101328218Y-84176313D01*
X101315376Y-84161278D01*
X101303472Y-84144893D01*
X101269406Y-84116711D01*
X101260627Y-84108722D01*
X100857652Y-83705747D01*
X100850112Y-83697461D01*
X100846000Y-83690982D01*
X100796348Y-83644356D01*
X100793507Y-83641602D01*
X100773770Y-83621865D01*
X100770573Y-83619385D01*
X100761551Y-83611680D01*
X100735100Y-83586841D01*
X100729321Y-83581414D01*
X100722375Y-83577595D01*
X100722372Y-83577593D01*
X100711566Y-83571652D01*
X100695047Y-83560801D01*
X100694583Y-83560441D01*
X100679041Y-83548386D01*
X100671772Y-83545241D01*
X100671768Y-83545238D01*
X100638463Y-83530826D01*
X100627813Y-83525609D01*
X100589060Y-83504305D01*
X100569437Y-83499267D01*
X100550734Y-83492863D01*
X100539420Y-83487967D01*
X100539419Y-83487967D01*
X100532145Y-83484819D01*
X100524322Y-83483580D01*
X100524312Y-83483577D01*
X100488476Y-83477901D01*
X100476856Y-83475495D01*
X100441711Y-83466472D01*
X100441710Y-83466472D01*
X100434030Y-83464500D01*
X100413776Y-83464500D01*
X100394065Y-83462949D01*
X100381886Y-83461020D01*
X100374057Y-83459780D01*
X100366435Y-83460501D01*
X100299090Y-83438406D01*
X100267294Y-83406870D01*
X100228290Y-83351166D01*
X100180826Y-83283380D01*
X100024620Y-83127174D01*
X100020112Y-83124017D01*
X100020109Y-83124015D01*
X99848171Y-83003623D01*
X99848168Y-83003621D01*
X99843662Y-83000466D01*
X99838680Y-82998143D01*
X99838675Y-82998140D01*
X99648432Y-82909429D01*
X99648431Y-82909429D01*
X99643450Y-82907106D01*
X99638142Y-82905684D01*
X99638140Y-82905683D01*
X99572748Y-82888161D01*
X99430068Y-82849930D01*
X99299659Y-82838521D01*
X99233540Y-82812658D01*
X99210149Y-82780355D01*
X99197031Y-82803498D01*
X99134187Y-82836530D01*
X99120342Y-82838521D01*
X98989932Y-82849930D01*
X98847252Y-82888161D01*
X98781860Y-82905683D01*
X98781858Y-82905684D01*
X98776550Y-82907106D01*
X98771569Y-82909428D01*
X98771568Y-82909429D01*
X98581320Y-82998143D01*
X98581317Y-82998145D01*
X98576339Y-83000466D01*
X98395380Y-83127174D01*
X98239174Y-83283380D01*
X98112466Y-83464339D01*
X98110145Y-83469317D01*
X98110143Y-83469320D01*
X98040141Y-83619441D01*
X98019106Y-83664550D01*
X98017684Y-83669858D01*
X98017683Y-83669860D01*
X98008067Y-83705747D01*
X97961930Y-83877932D01*
X97942677Y-84098000D01*
X97961930Y-84318068D01*
X98019106Y-84531450D01*
X98021428Y-84536431D01*
X98021429Y-84536432D01*
X98091069Y-84685774D01*
X98112466Y-84731661D01*
X98239174Y-84912620D01*
X98395380Y-85068826D01*
X98399888Y-85071983D01*
X98399891Y-85071985D01*
X98561175Y-85184917D01*
X98576338Y-85195534D01*
X98581320Y-85197857D01*
X98581325Y-85197860D01*
X98771568Y-85286571D01*
X98776550Y-85288894D01*
X98781858Y-85290316D01*
X98781860Y-85290317D01*
X98847252Y-85307839D01*
X98989932Y-85346070D01*
X99120341Y-85357479D01*
X99186460Y-85383342D01*
X99209851Y-85415645D01*
X99222969Y-85392502D01*
X99285813Y-85359470D01*
X99299659Y-85357479D01*
X99430068Y-85346070D01*
X99572748Y-85307839D01*
X99638140Y-85290317D01*
X99638142Y-85290316D01*
X99643450Y-85288894D01*
X99648432Y-85286571D01*
X99838675Y-85197860D01*
X99838680Y-85197857D01*
X99843662Y-85195534D01*
X99848170Y-85192377D01*
X99848176Y-85192374D01*
X100006230Y-85081704D01*
X100073504Y-85059016D01*
X100142364Y-85076301D01*
X100190948Y-85128071D01*
X100204500Y-85184917D01*
X100204500Y-85781083D01*
X100184498Y-85849204D01*
X100130842Y-85895697D01*
X100060568Y-85905801D01*
X100006230Y-85884296D01*
X99848176Y-85773626D01*
X99848170Y-85773623D01*
X99843662Y-85770466D01*
X99838680Y-85768143D01*
X99838675Y-85768140D01*
X99648432Y-85679429D01*
X99648431Y-85679429D01*
X99643450Y-85677106D01*
X99638142Y-85675684D01*
X99638140Y-85675683D01*
X99572748Y-85658161D01*
X99430068Y-85619930D01*
X99299659Y-85608521D01*
X99233540Y-85582658D01*
X99210149Y-85550355D01*
X99197031Y-85573498D01*
X99134187Y-85606530D01*
X99120342Y-85608521D01*
X98989932Y-85619930D01*
X98847252Y-85658161D01*
X98781860Y-85675683D01*
X98781858Y-85675684D01*
X98776550Y-85677106D01*
X98771569Y-85679428D01*
X98771568Y-85679429D01*
X98581320Y-85768143D01*
X98581317Y-85768145D01*
X98576339Y-85770466D01*
X98395380Y-85897174D01*
X98239174Y-86053380D01*
X98112466Y-86234339D01*
X98019106Y-86434550D01*
X97961930Y-86647932D01*
X97942677Y-86868000D01*
X97961930Y-87088068D01*
X97986675Y-87180417D01*
X98014985Y-87286069D01*
X98019106Y-87301450D01*
X98021428Y-87306431D01*
X98021429Y-87306432D01*
X98108152Y-87492409D01*
X98112466Y-87501661D01*
X98239174Y-87682620D01*
X98395380Y-87838826D01*
X98399888Y-87841983D01*
X98399891Y-87841985D01*
X98510337Y-87919320D01*
X98576338Y-87965534D01*
X98581320Y-87967857D01*
X98581325Y-87967860D01*
X98771568Y-88056571D01*
X98776550Y-88058894D01*
X98781858Y-88060316D01*
X98781860Y-88060317D01*
X98847252Y-88077839D01*
X98989932Y-88116070D01*
X99120341Y-88127479D01*
X99186460Y-88153342D01*
X99209851Y-88185645D01*
X99222969Y-88162502D01*
X99285813Y-88129470D01*
X99299659Y-88127479D01*
X99430068Y-88116070D01*
X99572748Y-88077839D01*
X99638140Y-88060317D01*
X99638142Y-88060316D01*
X99643450Y-88058894D01*
X99648432Y-88056571D01*
X99838675Y-87967860D01*
X99838680Y-87967857D01*
X99843662Y-87965534D01*
X99848170Y-87962377D01*
X99848176Y-87962374D01*
X100006230Y-87851704D01*
X100073504Y-87829016D01*
X100142364Y-87846301D01*
X100190948Y-87898071D01*
X100204500Y-87954917D01*
X100204500Y-88551083D01*
X100184498Y-88619204D01*
X100130842Y-88665697D01*
X100060568Y-88675801D01*
X100006230Y-88654296D01*
X99848176Y-88543626D01*
X99848170Y-88543623D01*
X99843662Y-88540466D01*
X99838680Y-88538143D01*
X99838675Y-88538140D01*
X99648432Y-88449429D01*
X99648431Y-88449429D01*
X99643450Y-88447106D01*
X99638142Y-88445684D01*
X99638140Y-88445683D01*
X99530000Y-88416707D01*
X99430068Y-88389930D01*
X99299659Y-88378521D01*
X99233540Y-88352658D01*
X99210149Y-88320355D01*
X99197031Y-88343498D01*
X99134187Y-88376530D01*
X99120342Y-88378521D01*
X98989932Y-88389930D01*
X98890000Y-88416707D01*
X98781860Y-88445683D01*
X98781858Y-88445684D01*
X98776550Y-88447106D01*
X98771569Y-88449428D01*
X98771568Y-88449429D01*
X98581320Y-88538143D01*
X98581317Y-88538145D01*
X98576339Y-88540466D01*
X98395380Y-88667174D01*
X98239174Y-88823380D01*
X98112466Y-89004339D01*
X98110145Y-89009317D01*
X98110143Y-89009320D01*
X98022359Y-89197573D01*
X98019106Y-89204550D01*
X98017684Y-89209858D01*
X98017683Y-89209860D01*
X98011207Y-89234030D01*
X97961930Y-89417932D01*
X97942677Y-89638000D01*
X84739904Y-89638000D01*
X91618407Y-82759497D01*
X91680719Y-82725471D01*
X91751534Y-82730536D01*
X91808370Y-82773083D01*
X91816618Y-82785587D01*
X91843960Y-82832944D01*
X91917137Y-82914215D01*
X91947853Y-82978221D01*
X91949500Y-82998524D01*
X91949500Y-86680405D01*
X91929498Y-86748526D01*
X91912595Y-86769500D01*
X91235500Y-87446595D01*
X91173188Y-87480621D01*
X91146405Y-87483500D01*
X91090513Y-87483500D01*
X91084061Y-87484872D01*
X91084056Y-87484872D01*
X90997113Y-87503353D01*
X90903712Y-87523206D01*
X90897682Y-87525891D01*
X90897681Y-87525891D01*
X90735278Y-87598197D01*
X90735276Y-87598198D01*
X90729248Y-87600882D01*
X90574747Y-87713134D01*
X90570326Y-87718044D01*
X90570325Y-87718045D01*
X90461574Y-87838826D01*
X90446960Y-87855056D01*
X90351473Y-88020444D01*
X90292458Y-88202072D01*
X90291768Y-88208633D01*
X90291768Y-88208635D01*
X90289938Y-88226045D01*
X90272496Y-88392000D01*
X90273186Y-88398565D01*
X90288964Y-88548680D01*
X90292458Y-88581928D01*
X90351473Y-88763556D01*
X90446960Y-88928944D01*
X90451378Y-88933851D01*
X90451379Y-88933852D01*
X90514846Y-89004339D01*
X90574747Y-89070866D01*
X90619013Y-89103027D01*
X90716982Y-89174206D01*
X90729248Y-89183118D01*
X90735276Y-89185802D01*
X90735278Y-89185803D01*
X90897681Y-89258109D01*
X90903712Y-89260794D01*
X90989886Y-89279111D01*
X91084056Y-89299128D01*
X91084061Y-89299128D01*
X91090513Y-89300500D01*
X91281487Y-89300500D01*
X91287939Y-89299128D01*
X91287944Y-89299128D01*
X91382114Y-89279111D01*
X91468288Y-89260794D01*
X91474319Y-89258109D01*
X91636722Y-89185803D01*
X91636724Y-89185802D01*
X91642752Y-89183118D01*
X91655019Y-89174206D01*
X91752987Y-89103027D01*
X91797253Y-89070866D01*
X91857154Y-89004339D01*
X91920621Y-88933852D01*
X91920622Y-88933851D01*
X91925040Y-88928944D01*
X92020527Y-88763556D01*
X92079542Y-88581928D01*
X92083037Y-88548680D01*
X92090425Y-88478381D01*
X92096907Y-88416706D01*
X92123920Y-88351050D01*
X92133122Y-88340782D01*
X92220904Y-88253000D01*
X95102677Y-88253000D01*
X95121930Y-88473068D01*
X95142834Y-88551083D01*
X95176253Y-88675801D01*
X95179106Y-88686450D01*
X95181428Y-88691431D01*
X95181429Y-88691432D01*
X95252273Y-88843356D01*
X95272466Y-88886661D01*
X95399174Y-89067620D01*
X95555380Y-89223826D01*
X95559888Y-89226983D01*
X95559891Y-89226985D01*
X95720461Y-89339417D01*
X95736338Y-89350534D01*
X95741320Y-89352857D01*
X95741325Y-89352860D01*
X95931568Y-89441571D01*
X95936550Y-89443894D01*
X95941858Y-89445316D01*
X95941860Y-89445317D01*
X96007252Y-89462839D01*
X96149932Y-89501070D01*
X96280341Y-89512479D01*
X96346460Y-89538342D01*
X96369851Y-89570645D01*
X96382969Y-89547502D01*
X96445813Y-89514470D01*
X96459659Y-89512479D01*
X96590068Y-89501070D01*
X96732748Y-89462839D01*
X96798140Y-89445317D01*
X96798142Y-89445316D01*
X96803450Y-89443894D01*
X96808432Y-89441571D01*
X96998675Y-89352860D01*
X96998680Y-89352857D01*
X97003662Y-89350534D01*
X97019539Y-89339417D01*
X97180109Y-89226985D01*
X97180112Y-89226983D01*
X97184620Y-89223826D01*
X97340826Y-89067620D01*
X97467534Y-88886661D01*
X97487728Y-88843356D01*
X97558571Y-88691432D01*
X97558572Y-88691431D01*
X97560894Y-88686450D01*
X97563748Y-88675801D01*
X97597166Y-88551083D01*
X97618070Y-88473068D01*
X97637323Y-88253000D01*
X97618070Y-88032932D01*
X97568062Y-87846301D01*
X97562317Y-87824860D01*
X97562316Y-87824858D01*
X97560894Y-87819550D01*
X97558571Y-87814568D01*
X97469857Y-87624320D01*
X97469855Y-87624317D01*
X97467534Y-87619339D01*
X97340826Y-87438380D01*
X97184620Y-87282174D01*
X97180112Y-87279017D01*
X97180109Y-87279015D01*
X97008171Y-87158623D01*
X97008168Y-87158621D01*
X97003662Y-87155466D01*
X96998680Y-87153143D01*
X96998675Y-87153140D01*
X96808432Y-87064429D01*
X96808431Y-87064429D01*
X96803450Y-87062106D01*
X96798142Y-87060684D01*
X96798140Y-87060683D01*
X96657076Y-87022885D01*
X96590068Y-87004930D01*
X96456790Y-86993270D01*
X96390671Y-86967407D01*
X96370498Y-86939549D01*
X96359900Y-86958247D01*
X96297055Y-86991279D01*
X96283211Y-86993270D01*
X96149932Y-87004930D01*
X96082924Y-87022885D01*
X95941860Y-87060683D01*
X95941858Y-87060684D01*
X95936550Y-87062106D01*
X95931569Y-87064428D01*
X95931568Y-87064429D01*
X95741320Y-87153143D01*
X95741317Y-87153145D01*
X95736339Y-87155466D01*
X95555380Y-87282174D01*
X95399174Y-87438380D01*
X95272466Y-87619339D01*
X95270145Y-87624317D01*
X95270143Y-87624320D01*
X95181429Y-87814568D01*
X95179106Y-87819550D01*
X95177684Y-87824858D01*
X95177683Y-87824860D01*
X95171938Y-87846301D01*
X95121930Y-88032932D01*
X95102677Y-88253000D01*
X92220904Y-88253000D01*
X92975247Y-87498657D01*
X92983537Y-87491113D01*
X92990018Y-87487000D01*
X92999950Y-87476424D01*
X93025549Y-87449164D01*
X93036659Y-87437332D01*
X93039413Y-87434491D01*
X93059134Y-87414770D01*
X93061612Y-87411575D01*
X93069318Y-87402553D01*
X93094158Y-87376101D01*
X93099586Y-87370321D01*
X93109346Y-87352568D01*
X93120199Y-87336045D01*
X93127753Y-87326306D01*
X93132613Y-87320041D01*
X93150176Y-87279457D01*
X93155383Y-87268827D01*
X93176695Y-87230060D01*
X93178666Y-87222383D01*
X93178668Y-87222378D01*
X93181732Y-87210442D01*
X93188138Y-87191730D01*
X93193034Y-87180417D01*
X93196181Y-87173145D01*
X93198482Y-87158621D01*
X93203097Y-87129481D01*
X93205504Y-87117860D01*
X93214528Y-87082711D01*
X93214528Y-87082710D01*
X93216500Y-87075030D01*
X93216500Y-87054769D01*
X93218051Y-87035058D01*
X93219979Y-87022885D01*
X93221219Y-87015057D01*
X93217059Y-86971046D01*
X93216500Y-86959189D01*
X93216500Y-86536034D01*
X95681521Y-86536034D01*
X95690817Y-86548049D01*
X95732081Y-86576942D01*
X95741576Y-86582425D01*
X95931740Y-86671099D01*
X95942032Y-86674845D01*
X96144704Y-86729151D01*
X96155499Y-86731054D01*
X96283211Y-86742228D01*
X96349329Y-86768092D01*
X96369501Y-86795950D01*
X96380100Y-86777251D01*
X96442944Y-86744219D01*
X96456789Y-86742228D01*
X96584501Y-86731054D01*
X96595296Y-86729151D01*
X96797968Y-86674845D01*
X96808260Y-86671099D01*
X96998424Y-86582425D01*
X97007919Y-86576942D01*
X97050021Y-86547462D01*
X97058396Y-86536985D01*
X97051328Y-86523538D01*
X96382812Y-85855022D01*
X96368868Y-85847408D01*
X96367035Y-85847539D01*
X96360420Y-85851790D01*
X95687951Y-86524259D01*
X95681521Y-86536034D01*
X93216500Y-86536034D01*
X93216500Y-85488475D01*
X95103658Y-85488475D01*
X95121946Y-85697501D01*
X95123849Y-85708296D01*
X95178155Y-85910968D01*
X95181901Y-85921260D01*
X95270577Y-86111425D01*
X95276055Y-86120915D01*
X95305539Y-86163022D01*
X95316015Y-86171396D01*
X95329463Y-86164327D01*
X95997978Y-85495812D01*
X96004356Y-85484132D01*
X96734408Y-85484132D01*
X96734539Y-85485965D01*
X96738790Y-85492580D01*
X97411259Y-86165049D01*
X97423033Y-86171479D01*
X97435049Y-86162183D01*
X97463945Y-86120915D01*
X97469423Y-86111425D01*
X97558099Y-85921260D01*
X97561845Y-85910968D01*
X97616151Y-85708296D01*
X97618054Y-85697501D01*
X97636342Y-85488475D01*
X97636342Y-85477525D01*
X97618054Y-85268499D01*
X97616151Y-85257704D01*
X97561845Y-85055032D01*
X97558099Y-85044740D01*
X97469423Y-84854575D01*
X97463945Y-84845085D01*
X97434461Y-84802978D01*
X97423985Y-84794604D01*
X97410537Y-84801673D01*
X96742022Y-85470188D01*
X96734408Y-85484132D01*
X96004356Y-85484132D01*
X96005592Y-85481868D01*
X96005461Y-85480035D01*
X96001210Y-85473420D01*
X95328741Y-84800951D01*
X95316967Y-84794521D01*
X95304951Y-84803817D01*
X95276055Y-84845085D01*
X95270577Y-84854575D01*
X95181901Y-85044740D01*
X95178155Y-85055032D01*
X95123849Y-85257704D01*
X95121946Y-85268499D01*
X95103658Y-85477525D01*
X95103658Y-85488475D01*
X93216500Y-85488475D01*
X93216500Y-84429015D01*
X95681604Y-84429015D01*
X95688673Y-84442463D01*
X96357188Y-85110978D01*
X96371132Y-85118592D01*
X96372965Y-85118461D01*
X96379580Y-85114210D01*
X97052049Y-84441741D01*
X97058479Y-84429966D01*
X97049183Y-84417951D01*
X97007919Y-84389058D01*
X96998424Y-84383575D01*
X96808260Y-84294901D01*
X96797968Y-84291155D01*
X96595296Y-84236849D01*
X96584501Y-84234946D01*
X96456789Y-84223772D01*
X96390671Y-84197908D01*
X96370499Y-84170050D01*
X96359900Y-84188749D01*
X96297056Y-84221781D01*
X96283211Y-84223772D01*
X96155499Y-84234946D01*
X96144704Y-84236849D01*
X95942032Y-84291155D01*
X95931740Y-84294901D01*
X95741575Y-84383577D01*
X95732085Y-84389055D01*
X95689978Y-84418539D01*
X95681604Y-84429015D01*
X93216500Y-84429015D01*
X93216500Y-82998524D01*
X93236502Y-82930403D01*
X93248858Y-82914221D01*
X93322040Y-82832944D01*
X93417527Y-82667556D01*
X93476542Y-82485928D01*
X93478546Y-82466866D01*
X93495814Y-82302565D01*
X93496504Y-82296000D01*
X93476542Y-82106072D01*
X93478050Y-82105914D01*
X93482861Y-82042901D01*
X93525680Y-81986270D01*
X93592319Y-81961779D01*
X93600704Y-81961500D01*
X95129635Y-81961500D01*
X95197756Y-81981502D01*
X95244249Y-82035158D01*
X95254353Y-82105432D01*
X95243831Y-82140747D01*
X95179106Y-82279550D01*
X95177684Y-82284858D01*
X95177683Y-82284860D01*
X95160161Y-82350252D01*
X95121930Y-82492932D01*
X95102677Y-82713000D01*
X95121930Y-82933068D01*
X95148456Y-83032063D01*
X95174985Y-83131069D01*
X95179106Y-83146450D01*
X95181428Y-83151431D01*
X95181429Y-83151432D01*
X95245062Y-83287892D01*
X95272466Y-83346661D01*
X95399174Y-83527620D01*
X95555380Y-83683826D01*
X95559888Y-83686983D01*
X95559891Y-83686985D01*
X95586686Y-83705747D01*
X95736338Y-83810534D01*
X95741320Y-83812857D01*
X95741325Y-83812860D01*
X95931568Y-83901571D01*
X95936550Y-83903894D01*
X95941858Y-83905316D01*
X95941860Y-83905317D01*
X96007252Y-83922839D01*
X96149932Y-83961070D01*
X96283210Y-83972730D01*
X96349329Y-83998593D01*
X96369502Y-84026451D01*
X96380100Y-84007753D01*
X96442945Y-83974721D01*
X96456790Y-83972730D01*
X96590068Y-83961070D01*
X96732748Y-83922839D01*
X96798140Y-83905317D01*
X96798142Y-83905316D01*
X96803450Y-83903894D01*
X96808432Y-83901571D01*
X96998675Y-83812860D01*
X96998680Y-83812857D01*
X97003662Y-83810534D01*
X97153314Y-83705747D01*
X97180109Y-83686985D01*
X97180112Y-83686983D01*
X97184620Y-83683826D01*
X97340826Y-83527620D01*
X97467534Y-83346661D01*
X97494939Y-83287892D01*
X97558571Y-83151432D01*
X97558572Y-83151431D01*
X97560894Y-83146450D01*
X97565016Y-83131069D01*
X97591544Y-83032063D01*
X97618070Y-82933068D01*
X97637323Y-82713000D01*
X97618070Y-82492932D01*
X97579839Y-82350252D01*
X97562317Y-82284860D01*
X97562316Y-82284858D01*
X97560894Y-82279550D01*
X97496170Y-82140749D01*
X97485509Y-82070559D01*
X97514489Y-82005746D01*
X97573908Y-81966889D01*
X97610365Y-81961500D01*
X98046762Y-81961500D01*
X98114883Y-81981502D01*
X98149975Y-82015230D01*
X98163929Y-82035158D01*
X98239174Y-82142620D01*
X98395380Y-82298826D01*
X98399888Y-82301983D01*
X98399891Y-82301985D01*
X98477881Y-82356594D01*
X98576338Y-82425534D01*
X98581320Y-82427857D01*
X98581325Y-82427860D01*
X98771568Y-82516571D01*
X98776550Y-82518894D01*
X98781858Y-82520316D01*
X98781860Y-82520317D01*
X98847252Y-82537839D01*
X98989932Y-82576070D01*
X99120341Y-82587479D01*
X99186460Y-82613342D01*
X99209851Y-82645645D01*
X99222969Y-82622502D01*
X99285813Y-82589470D01*
X99299659Y-82587479D01*
X99430068Y-82576070D01*
X99572748Y-82537839D01*
X99638140Y-82520317D01*
X99638142Y-82520316D01*
X99643450Y-82518894D01*
X99648432Y-82516571D01*
X99838675Y-82427860D01*
X99838680Y-82427857D01*
X99843662Y-82425534D01*
X99942119Y-82356594D01*
X100020109Y-82301985D01*
X100020112Y-82301983D01*
X100024620Y-82298826D01*
X100180826Y-82142620D01*
X100307534Y-81961661D01*
X100320492Y-81933874D01*
X100398571Y-81766432D01*
X100398572Y-81766431D01*
X100400894Y-81761450D01*
X100458070Y-81548068D01*
X100477323Y-81328000D01*
X100458070Y-81107932D01*
X100400894Y-80894550D01*
X100385962Y-80862528D01*
X100309857Y-80699320D01*
X100309855Y-80699317D01*
X100307534Y-80694339D01*
X100180826Y-80513380D01*
X100024620Y-80357174D01*
X100020112Y-80354017D01*
X100020109Y-80354015D01*
X99848171Y-80233623D01*
X99848168Y-80233621D01*
X99843662Y-80230466D01*
X99838680Y-80228143D01*
X99838675Y-80228140D01*
X99648432Y-80139429D01*
X99648431Y-80139429D01*
X99643450Y-80137106D01*
X99638142Y-80135684D01*
X99638140Y-80135683D01*
X99572748Y-80118161D01*
X99430068Y-80079930D01*
X99299659Y-80068521D01*
X99233540Y-80042658D01*
X99210149Y-80010355D01*
X99197031Y-80033498D01*
X99134187Y-80066530D01*
X99120342Y-80068521D01*
X98989932Y-80079930D01*
X98847252Y-80118161D01*
X98781860Y-80135683D01*
X98781858Y-80135684D01*
X98776550Y-80137106D01*
X98771569Y-80139428D01*
X98771568Y-80139429D01*
X98581320Y-80228143D01*
X98581317Y-80228145D01*
X98576339Y-80230466D01*
X98395380Y-80357174D01*
X98239174Y-80513380D01*
X98193496Y-80578616D01*
X98149975Y-80640770D01*
X98094518Y-80685099D01*
X98046762Y-80694500D01*
X97610365Y-80694500D01*
X97542244Y-80674498D01*
X97495751Y-80620842D01*
X97485647Y-80550568D01*
X97496170Y-80515250D01*
X97498859Y-80509485D01*
X97560894Y-80376450D01*
X97565016Y-80361069D01*
X97583044Y-80293787D01*
X97618070Y-80163068D01*
X97637323Y-79943000D01*
X97618070Y-79722932D01*
X97568126Y-79536540D01*
X97562317Y-79514860D01*
X97562316Y-79514858D01*
X97560894Y-79509550D01*
X97558571Y-79504568D01*
X97469857Y-79314320D01*
X97469855Y-79314317D01*
X97467534Y-79309339D01*
X97340826Y-79128380D01*
X97184620Y-78972174D01*
X97180112Y-78969017D01*
X97180109Y-78969015D01*
X97008171Y-78848623D01*
X97008168Y-78848621D01*
X97003662Y-78845466D01*
X96998680Y-78843143D01*
X96998675Y-78843140D01*
X96808432Y-78754429D01*
X96808431Y-78754429D01*
X96803450Y-78752106D01*
X96798142Y-78750684D01*
X96798140Y-78750683D01*
X96732748Y-78733161D01*
X96590068Y-78694930D01*
X96499666Y-78687021D01*
X96433547Y-78661158D01*
X96391908Y-78603654D01*
X96389370Y-78558000D01*
X97942677Y-78558000D01*
X97961930Y-78778068D01*
X97987519Y-78873565D01*
X98014985Y-78976069D01*
X98019106Y-78991450D01*
X98021428Y-78996431D01*
X98021429Y-78996432D01*
X98085062Y-79132892D01*
X98112466Y-79191661D01*
X98239174Y-79372620D01*
X98395380Y-79528826D01*
X98399888Y-79531983D01*
X98399891Y-79531985D01*
X98571829Y-79652377D01*
X98576338Y-79655534D01*
X98581320Y-79657857D01*
X98581325Y-79657860D01*
X98751399Y-79737166D01*
X98776550Y-79748894D01*
X98781858Y-79750316D01*
X98781860Y-79750317D01*
X98847252Y-79767839D01*
X98989932Y-79806070D01*
X99120341Y-79817479D01*
X99186460Y-79843342D01*
X99209851Y-79875645D01*
X99222969Y-79852502D01*
X99285813Y-79819470D01*
X99299659Y-79817479D01*
X99430068Y-79806070D01*
X99572748Y-79767839D01*
X99638140Y-79750317D01*
X99638142Y-79750316D01*
X99643450Y-79748894D01*
X99668601Y-79737166D01*
X99838675Y-79657860D01*
X99838680Y-79657857D01*
X99843662Y-79655534D01*
X99848171Y-79652377D01*
X100020109Y-79531985D01*
X100020112Y-79531983D01*
X100024620Y-79528826D01*
X100180826Y-79372620D01*
X100307534Y-79191661D01*
X100334939Y-79132892D01*
X100398571Y-78996432D01*
X100398572Y-78996431D01*
X100400894Y-78991450D01*
X100405016Y-78976069D01*
X100432481Y-78873565D01*
X100458070Y-78778068D01*
X100477323Y-78558000D01*
X100458070Y-78337932D01*
X100400894Y-78124550D01*
X100398571Y-78119568D01*
X100309857Y-77929320D01*
X100309855Y-77929317D01*
X100307534Y-77924339D01*
X100180826Y-77743380D01*
X100024620Y-77587174D01*
X100020112Y-77584017D01*
X100020109Y-77584015D01*
X99848171Y-77463623D01*
X99848168Y-77463621D01*
X99843662Y-77460466D01*
X99838680Y-77458143D01*
X99838675Y-77458140D01*
X99648432Y-77369429D01*
X99648431Y-77369429D01*
X99643450Y-77367106D01*
X99638142Y-77365684D01*
X99638140Y-77365683D01*
X99572748Y-77348161D01*
X99430068Y-77309930D01*
X99210000Y-77290677D01*
X98989932Y-77309930D01*
X98847252Y-77348161D01*
X98781860Y-77365683D01*
X98781858Y-77365684D01*
X98776550Y-77367106D01*
X98771569Y-77369428D01*
X98771568Y-77369429D01*
X98581320Y-77458143D01*
X98581317Y-77458145D01*
X98576339Y-77460466D01*
X98395380Y-77587174D01*
X98239174Y-77743380D01*
X98112466Y-77924339D01*
X98110145Y-77929317D01*
X98110143Y-77929320D01*
X98021429Y-78119568D01*
X98019106Y-78124550D01*
X97961930Y-78337932D01*
X97942677Y-78558000D01*
X96389370Y-78558000D01*
X96387967Y-78532767D01*
X96422976Y-78471002D01*
X96485820Y-78437970D01*
X96510647Y-78435500D01*
X97172134Y-78435500D01*
X97234316Y-78428745D01*
X97370705Y-78377615D01*
X97487261Y-78290261D01*
X97574615Y-78173705D01*
X97625745Y-78037316D01*
X97632500Y-77975134D01*
X97632500Y-76370866D01*
X97625745Y-76308684D01*
X97574615Y-76172295D01*
X97487261Y-76055739D01*
X97370705Y-75968385D01*
X97234316Y-75917255D01*
X97172134Y-75910500D01*
X95567866Y-75910500D01*
X95505684Y-75917255D01*
X95369295Y-75968385D01*
X95252739Y-76055739D01*
X95165385Y-76172295D01*
X95114255Y-76308684D01*
X95107500Y-76370866D01*
X95107500Y-77975134D01*
X95114255Y-78037316D01*
X95165385Y-78173705D01*
X95252739Y-78290261D01*
X95369295Y-78377615D01*
X95505684Y-78428745D01*
X95567866Y-78435500D01*
X96229353Y-78435500D01*
X96297474Y-78455502D01*
X96343967Y-78509158D01*
X96354071Y-78579432D01*
X96324577Y-78644012D01*
X96264851Y-78682396D01*
X96240334Y-78687021D01*
X96149932Y-78694930D01*
X96007252Y-78733161D01*
X95941860Y-78750683D01*
X95941858Y-78750684D01*
X95936550Y-78752106D01*
X95931569Y-78754428D01*
X95931568Y-78754429D01*
X95741320Y-78843143D01*
X95741317Y-78843145D01*
X95736339Y-78845466D01*
X95555380Y-78972174D01*
X95399174Y-79128380D01*
X95272466Y-79309339D01*
X95270145Y-79314317D01*
X95270143Y-79314320D01*
X95181429Y-79504568D01*
X95179106Y-79509550D01*
X95177684Y-79514858D01*
X95177683Y-79514860D01*
X95171874Y-79536540D01*
X95121930Y-79722932D01*
X95102677Y-79943000D01*
X95121930Y-80163068D01*
X95156956Y-80293787D01*
X95174985Y-80361069D01*
X95179106Y-80376450D01*
X95241142Y-80509485D01*
X95243830Y-80515250D01*
X95254491Y-80585441D01*
X95225511Y-80650254D01*
X95166092Y-80689111D01*
X95129635Y-80694500D01*
X93455087Y-80694500D01*
X93386966Y-80674498D01*
X93340473Y-80620842D01*
X93330369Y-80550568D01*
X93345968Y-80505500D01*
X93414223Y-80387279D01*
X93414224Y-80387278D01*
X93417527Y-80381556D01*
X93476542Y-80199928D01*
X93478904Y-80177460D01*
X93495814Y-80016565D01*
X93496504Y-80010000D01*
X93482383Y-79875645D01*
X93477232Y-79826635D01*
X93477232Y-79826633D01*
X93476542Y-79820072D01*
X93417527Y-79638444D01*
X93322040Y-79473056D01*
X93248863Y-79391785D01*
X93218147Y-79327779D01*
X93216500Y-79307476D01*
X93216500Y-77918524D01*
X93236502Y-77850403D01*
X93248858Y-77834221D01*
X93322040Y-77752944D01*
X93417527Y-77587556D01*
X93476542Y-77405928D01*
X93496504Y-77216000D01*
X93476542Y-77026072D01*
X93417527Y-76844444D01*
X93322040Y-76679056D01*
X93194253Y-76537134D01*
X93039752Y-76424882D01*
X93033724Y-76422198D01*
X93033722Y-76422197D01*
X92871319Y-76349891D01*
X92871318Y-76349891D01*
X92865288Y-76347206D01*
X92771888Y-76327353D01*
X92684944Y-76308872D01*
X92684939Y-76308872D01*
X92678487Y-76307500D01*
X92487513Y-76307500D01*
X92481061Y-76308872D01*
X92481056Y-76308872D01*
X92394112Y-76327353D01*
X92300712Y-76347206D01*
X92294682Y-76349891D01*
X92294681Y-76349891D01*
X92132278Y-76422197D01*
X92132276Y-76422198D01*
X92126248Y-76424882D01*
X91971747Y-76537134D01*
X91843960Y-76679056D01*
X91748473Y-76844444D01*
X91689458Y-77026072D01*
X91669496Y-77216000D01*
X91689458Y-77405928D01*
X91748473Y-77587556D01*
X91843960Y-77752944D01*
X91917137Y-77834215D01*
X91947853Y-77898221D01*
X91949500Y-77918524D01*
X91949500Y-79307476D01*
X91929498Y-79375597D01*
X91917142Y-79391779D01*
X91843960Y-79473056D01*
X91748473Y-79638444D01*
X91689458Y-79820072D01*
X91688768Y-79826633D01*
X91688768Y-79826635D01*
X91683617Y-79875645D01*
X91669496Y-80010000D01*
X91670186Y-80016565D01*
X91687097Y-80177460D01*
X91689458Y-80199928D01*
X91748473Y-80381556D01*
X91843960Y-80546944D01*
X91872481Y-80578619D01*
X91903196Y-80642623D01*
X91894433Y-80713077D01*
X91849199Y-80767333D01*
X91846383Y-80768448D01*
X91815589Y-80790821D01*
X91810612Y-80794437D01*
X91800695Y-80800951D01*
X91762638Y-80823458D01*
X91748317Y-80837779D01*
X91733284Y-80850619D01*
X91716893Y-80862528D01*
X91694524Y-80889568D01*
X91688702Y-80896605D01*
X91680712Y-80905384D01*
X90659042Y-81927054D01*
X90596730Y-81961080D01*
X90525915Y-81956015D01*
X90469079Y-81913468D01*
X90444268Y-81846948D01*
X90444637Y-81824794D01*
X90448504Y-81788000D01*
X90443105Y-81736632D01*
X90429232Y-81604635D01*
X90429232Y-81604633D01*
X90428542Y-81598072D01*
X90369527Y-81416444D01*
X90274040Y-81251056D01*
X90242278Y-81215780D01*
X90150675Y-81114045D01*
X90150674Y-81114044D01*
X90146253Y-81109134D01*
X89991752Y-80996882D01*
X89985724Y-80994198D01*
X89985722Y-80994197D01*
X89823319Y-80921891D01*
X89823318Y-80921891D01*
X89817288Y-80919206D01*
X89723888Y-80899353D01*
X89636944Y-80880872D01*
X89636939Y-80880872D01*
X89630487Y-80879500D01*
X89439513Y-80879500D01*
X89433061Y-80880872D01*
X89433056Y-80880872D01*
X89346112Y-80899353D01*
X89252712Y-80919206D01*
X89246682Y-80921891D01*
X89246681Y-80921891D01*
X89084278Y-80994197D01*
X89084276Y-80994198D01*
X89078248Y-80996882D01*
X88923747Y-81109134D01*
X88919326Y-81114044D01*
X88919325Y-81114045D01*
X88827723Y-81215780D01*
X88795960Y-81251056D01*
X88700473Y-81416444D01*
X88641458Y-81598072D01*
X88640768Y-81604633D01*
X88640768Y-81604635D01*
X88626895Y-81736632D01*
X88621496Y-81788000D01*
X88622186Y-81794562D01*
X88622186Y-81794565D01*
X88639761Y-81961779D01*
X88641458Y-81977928D01*
X88700473Y-82159556D01*
X88795960Y-82324944D01*
X88800378Y-82329851D01*
X88800379Y-82329852D01*
X88903793Y-82444705D01*
X88934511Y-82508712D01*
X88936157Y-82529015D01*
X88936157Y-83032063D01*
X88916155Y-83100184D01*
X88899252Y-83121158D01*
X83790814Y-88229595D01*
X83728502Y-88263621D01*
X83701719Y-88266500D01*
X80464200Y-88266500D01*
X80396079Y-88246498D01*
X80376853Y-88230157D01*
X80376580Y-88230460D01*
X80371668Y-88226037D01*
X80367253Y-88221134D01*
X80241089Y-88129470D01*
X80218094Y-88112763D01*
X80218093Y-88112762D01*
X80212752Y-88108882D01*
X80206724Y-88106198D01*
X80206722Y-88106197D01*
X80044319Y-88033891D01*
X80044318Y-88033891D01*
X80038288Y-88031206D01*
X79944887Y-88011353D01*
X79857944Y-87992872D01*
X79857939Y-87992872D01*
X79851487Y-87991500D01*
X79660513Y-87991500D01*
X79654061Y-87992872D01*
X79654056Y-87992872D01*
X79567113Y-88011353D01*
X79473712Y-88031206D01*
X79467682Y-88033891D01*
X79467681Y-88033891D01*
X79305278Y-88106197D01*
X79305276Y-88106198D01*
X79299248Y-88108882D01*
X79293907Y-88112762D01*
X79293906Y-88112763D01*
X79270911Y-88129470D01*
X79144747Y-88221134D01*
X79140326Y-88226044D01*
X79140325Y-88226045D01*
X79037016Y-88340782D01*
X79016960Y-88363056D01*
X78921473Y-88528444D01*
X78862458Y-88710072D01*
X78861768Y-88716633D01*
X78861768Y-88716635D01*
X78851171Y-88817460D01*
X78842496Y-88900000D01*
X78860290Y-89069297D01*
X78847518Y-89139134D01*
X78799016Y-89190980D01*
X78786228Y-89197573D01*
X78670281Y-89249195D01*
X78670274Y-89249199D01*
X78664248Y-89251882D01*
X78658907Y-89255762D01*
X78658906Y-89255763D01*
X78650093Y-89262166D01*
X78509747Y-89364134D01*
X78505326Y-89369044D01*
X78505325Y-89369045D01*
X78387732Y-89499646D01*
X78381960Y-89506056D01*
X78286473Y-89671444D01*
X78227458Y-89853072D01*
X78226768Y-89859633D01*
X78226768Y-89859635D01*
X78209401Y-90024872D01*
X78207496Y-90043000D01*
X78208186Y-90049565D01*
X78226522Y-90224018D01*
X78227458Y-90232928D01*
X78286473Y-90414556D01*
X78381960Y-90579944D01*
X78386380Y-90584852D01*
X78390259Y-90590192D01*
X78388338Y-90591588D01*
X78414369Y-90645825D01*
X78408080Y-90696393D01*
X78425580Y-90690890D01*
X78494070Y-90709589D01*
X78508249Y-90720203D01*
X78509747Y-90721866D01*
X78664248Y-90834118D01*
X78670276Y-90836802D01*
X78670278Y-90836803D01*
X78831929Y-90908774D01*
X78838712Y-90911794D01*
X78902888Y-90925435D01*
X79019056Y-90950128D01*
X79019061Y-90950128D01*
X79025513Y-90951500D01*
X79216487Y-90951500D01*
X79222939Y-90950128D01*
X79222944Y-90950128D01*
X79339112Y-90925435D01*
X79403288Y-90911794D01*
X79410071Y-90908774D01*
X79571722Y-90836803D01*
X79571724Y-90836802D01*
X79577752Y-90834118D01*
X79627989Y-90797619D01*
X79717786Y-90732377D01*
X79732253Y-90721866D01*
X79736668Y-90716963D01*
X79741580Y-90712540D01*
X79742705Y-90713789D01*
X79796014Y-90680949D01*
X79829200Y-90676500D01*
X80190800Y-90676500D01*
X80258921Y-90696502D01*
X80278147Y-90712843D01*
X80278420Y-90712540D01*
X80283332Y-90716963D01*
X80287747Y-90721866D01*
X80302214Y-90732377D01*
X80392012Y-90797619D01*
X80442248Y-90834118D01*
X80448276Y-90836802D01*
X80448278Y-90836803D01*
X80609929Y-90908774D01*
X80616712Y-90911794D01*
X80719047Y-90933546D01*
X80788872Y-90948388D01*
X80851345Y-90982117D01*
X80885667Y-91044266D01*
X80880939Y-91115105D01*
X80851771Y-91160730D01*
X80597207Y-91415293D01*
X80353904Y-91658596D01*
X80291592Y-91692621D01*
X80264809Y-91695500D01*
X78800594Y-91695500D01*
X78732473Y-91675498D01*
X78711499Y-91658595D01*
X78544122Y-91491218D01*
X78510096Y-91428906D01*
X78507907Y-91415293D01*
X78491232Y-91256635D01*
X78491232Y-91256633D01*
X78490542Y-91250072D01*
X78431527Y-91068444D01*
X78336040Y-90903056D01*
X78331620Y-90898148D01*
X78327741Y-90892808D01*
X78329662Y-90891412D01*
X78303631Y-90837175D01*
X78309920Y-90786607D01*
X78292420Y-90792110D01*
X78223930Y-90773411D01*
X78209751Y-90762797D01*
X78208253Y-90761134D01*
X78053752Y-90648882D01*
X78047724Y-90646198D01*
X78047722Y-90646197D01*
X77885319Y-90573891D01*
X77885318Y-90573891D01*
X77879288Y-90571206D01*
X77785887Y-90551353D01*
X77698944Y-90532872D01*
X77698939Y-90532872D01*
X77692487Y-90531500D01*
X77501513Y-90531500D01*
X77495061Y-90532872D01*
X77495056Y-90532872D01*
X77365343Y-90560444D01*
X77314712Y-90571206D01*
X77308679Y-90573892D01*
X77308676Y-90573893D01*
X77301438Y-90577116D01*
X77231071Y-90586551D01*
X77166774Y-90556445D01*
X77141069Y-90525010D01*
X77101523Y-90456515D01*
X77066040Y-90395056D01*
X77060893Y-90389339D01*
X76942675Y-90258045D01*
X76942674Y-90258044D01*
X76938253Y-90253134D01*
X76783752Y-90140882D01*
X76777724Y-90138198D01*
X76777722Y-90138197D01*
X76615319Y-90065891D01*
X76615318Y-90065891D01*
X76609288Y-90063206D01*
X76514227Y-90043000D01*
X76428944Y-90024872D01*
X76428939Y-90024872D01*
X76422487Y-90023500D01*
X76231513Y-90023500D01*
X76225061Y-90024872D01*
X76225056Y-90024872D01*
X76139773Y-90043000D01*
X76044712Y-90063206D01*
X76038682Y-90065891D01*
X76038681Y-90065891D01*
X75876278Y-90138197D01*
X75876276Y-90138198D01*
X75870248Y-90140882D01*
X75715747Y-90253134D01*
X75711326Y-90258044D01*
X75711325Y-90258045D01*
X75593108Y-90389339D01*
X75587960Y-90395056D01*
X75554725Y-90452620D01*
X75513123Y-90524678D01*
X75492473Y-90560444D01*
X75433458Y-90742072D01*
X75432768Y-90748633D01*
X75432768Y-90748635D01*
X75414406Y-90923342D01*
X75413496Y-90932000D01*
X66040500Y-90932000D01*
X66040500Y-89929768D01*
X67107425Y-89929768D01*
X67139138Y-90037521D01*
X67143731Y-90048889D01*
X67229607Y-90213154D01*
X67236321Y-90223415D01*
X67352468Y-90367873D01*
X67361046Y-90376632D01*
X67503039Y-90495778D01*
X67513159Y-90502708D01*
X67675585Y-90592002D01*
X67686858Y-90596834D01*
X67863538Y-90652880D01*
X67875532Y-90655430D01*
X68019761Y-90671607D01*
X68026785Y-90672000D01*
X68307885Y-90672000D01*
X68323124Y-90667525D01*
X68324329Y-90666135D01*
X68326000Y-90658452D01*
X68326000Y-90653885D01*
X68834000Y-90653885D01*
X68838475Y-90669124D01*
X68839865Y-90670329D01*
X68847548Y-90672000D01*
X69126657Y-90672000D01*
X69132805Y-90671699D01*
X69270603Y-90658188D01*
X69282638Y-90655805D01*
X69460076Y-90602233D01*
X69471416Y-90597559D01*
X69635077Y-90510540D01*
X69645294Y-90503751D01*
X69788933Y-90386603D01*
X69797637Y-90377959D01*
X69915784Y-90235144D01*
X69922644Y-90224973D01*
X70010804Y-90061924D01*
X70015556Y-90050619D01*
X70051250Y-89935308D01*
X70051331Y-89929768D01*
X71236363Y-89929768D01*
X71270846Y-90046932D01*
X71275439Y-90058300D01*
X71363586Y-90226911D01*
X71370302Y-90237173D01*
X71489515Y-90385443D01*
X71498103Y-90394213D01*
X71643838Y-90516499D01*
X71653969Y-90523437D01*
X71820692Y-90615094D01*
X71831962Y-90619924D01*
X72013315Y-90677452D01*
X72025309Y-90680002D01*
X72173350Y-90696607D01*
X72180374Y-90697000D01*
X72487885Y-90697000D01*
X72503124Y-90692525D01*
X72504329Y-90691135D01*
X72506000Y-90683452D01*
X72506000Y-90678885D01*
X73014000Y-90678885D01*
X73018475Y-90694124D01*
X73019865Y-90695329D01*
X73027548Y-90697000D01*
X73332890Y-90697000D01*
X73339035Y-90696700D01*
X73480481Y-90682830D01*
X73492519Y-90680447D01*
X73674651Y-90625458D01*
X73685993Y-90620783D01*
X73853977Y-90531465D01*
X73864193Y-90524678D01*
X74011634Y-90404428D01*
X74020338Y-90395784D01*
X74141610Y-90249191D01*
X74148470Y-90239020D01*
X74238962Y-90071658D01*
X74243714Y-90060353D01*
X74282422Y-89935308D01*
X74282628Y-89921205D01*
X74275873Y-89918000D01*
X73032115Y-89918000D01*
X73016876Y-89922475D01*
X73015671Y-89923865D01*
X73014000Y-89931548D01*
X73014000Y-90678885D01*
X72506000Y-90678885D01*
X72506000Y-89936115D01*
X72501525Y-89920876D01*
X72500135Y-89919671D01*
X72492452Y-89918000D01*
X71251014Y-89918000D01*
X71237483Y-89921973D01*
X71236363Y-89929768D01*
X70051331Y-89929768D01*
X70051456Y-89921205D01*
X70044701Y-89918000D01*
X68852115Y-89918000D01*
X68836876Y-89922475D01*
X68835671Y-89923865D01*
X68834000Y-89931548D01*
X68834000Y-90653885D01*
X68326000Y-90653885D01*
X68326000Y-89936115D01*
X68321525Y-89920876D01*
X68320135Y-89919671D01*
X68312452Y-89918000D01*
X67122076Y-89918000D01*
X67108545Y-89921973D01*
X67107425Y-89929768D01*
X66040500Y-89929768D01*
X66040500Y-89406795D01*
X67108544Y-89406795D01*
X67115299Y-89410000D01*
X68307885Y-89410000D01*
X68323124Y-89405525D01*
X68324329Y-89404135D01*
X68326000Y-89396452D01*
X68326000Y-89391885D01*
X68834000Y-89391885D01*
X68838475Y-89407124D01*
X68839865Y-89408329D01*
X68847548Y-89410000D01*
X70037924Y-89410000D01*
X70048839Y-89406795D01*
X71237372Y-89406795D01*
X71244127Y-89410000D01*
X74268986Y-89410000D01*
X74282517Y-89406027D01*
X74283637Y-89398232D01*
X74249154Y-89281068D01*
X74244561Y-89269700D01*
X74156414Y-89101089D01*
X74149698Y-89090827D01*
X74030485Y-88942557D01*
X74021897Y-88933787D01*
X73876162Y-88811501D01*
X73866031Y-88804563D01*
X73699308Y-88712906D01*
X73688038Y-88708076D01*
X73506685Y-88650548D01*
X73494691Y-88647998D01*
X73346650Y-88631393D01*
X73339626Y-88631000D01*
X73184870Y-88631000D01*
X73116749Y-88610998D01*
X73070256Y-88557342D01*
X73060152Y-88487068D01*
X73063512Y-88471114D01*
X73064994Y-88465807D01*
X73067530Y-88459466D01*
X73083491Y-88363056D01*
X73095993Y-88287539D01*
X73095993Y-88287536D01*
X73097108Y-88280802D01*
X73096359Y-88266500D01*
X73087987Y-88106766D01*
X73087630Y-88099953D01*
X73076713Y-88060317D01*
X73041352Y-87931941D01*
X73039539Y-87925359D01*
X72955078Y-87765164D01*
X72950673Y-87759951D01*
X72950670Y-87759947D01*
X72842594Y-87632057D01*
X72842590Y-87632053D01*
X72838187Y-87626843D01*
X72832762Y-87622695D01*
X72699743Y-87520994D01*
X72699739Y-87520991D01*
X72694322Y-87516850D01*
X72543660Y-87446595D01*
X72536369Y-87443195D01*
X72536366Y-87443194D01*
X72530192Y-87440315D01*
X72523544Y-87438829D01*
X72523541Y-87438828D01*
X72380639Y-87406886D01*
X72353457Y-87400810D01*
X72347912Y-87400500D01*
X72214756Y-87400500D01*
X72211359Y-87400869D01*
X72178761Y-87404410D01*
X72079963Y-87415143D01*
X71996609Y-87443195D01*
X71914796Y-87470728D01*
X71914794Y-87470729D01*
X71908325Y-87472906D01*
X71753095Y-87566177D01*
X71748138Y-87570865D01*
X71748135Y-87570867D01*
X71634732Y-87678108D01*
X71621515Y-87690607D01*
X71617683Y-87696245D01*
X71617680Y-87696249D01*
X71566740Y-87771205D01*
X71519723Y-87840388D01*
X71452470Y-88008534D01*
X71451356Y-88015262D01*
X71451355Y-88015266D01*
X71432449Y-88129470D01*
X71422892Y-88187198D01*
X71423249Y-88194015D01*
X71423249Y-88194019D01*
X71430941Y-88340782D01*
X71432370Y-88368047D01*
X71434181Y-88374620D01*
X71434181Y-88374623D01*
X71478282Y-88534729D01*
X71480461Y-88542641D01*
X71564922Y-88702836D01*
X71569330Y-88708052D01*
X71569515Y-88708271D01*
X71569586Y-88708431D01*
X71573143Y-88713705D01*
X71572198Y-88714343D01*
X71598206Y-88773212D01*
X71587233Y-88843356D01*
X71552913Y-88887240D01*
X71508368Y-88923571D01*
X71499662Y-88932216D01*
X71378390Y-89078809D01*
X71371530Y-89088980D01*
X71281038Y-89256342D01*
X71276286Y-89267647D01*
X71237578Y-89392692D01*
X71237372Y-89406795D01*
X70048839Y-89406795D01*
X70051455Y-89406027D01*
X70052575Y-89398232D01*
X70020862Y-89290479D01*
X70016269Y-89279111D01*
X69930393Y-89114846D01*
X69923679Y-89104585D01*
X69807532Y-88960127D01*
X69798954Y-88951368D01*
X69656961Y-88832222D01*
X69646841Y-88825292D01*
X69484415Y-88735998D01*
X69473142Y-88731166D01*
X69296462Y-88675120D01*
X69284468Y-88672570D01*
X69140239Y-88656393D01*
X69133215Y-88656000D01*
X68852115Y-88656000D01*
X68836876Y-88660475D01*
X68835671Y-88661865D01*
X68834000Y-88669548D01*
X68834000Y-89391885D01*
X68326000Y-89391885D01*
X68326000Y-88674115D01*
X68321525Y-88658876D01*
X68320135Y-88657671D01*
X68312452Y-88656000D01*
X68033343Y-88656000D01*
X68027195Y-88656301D01*
X67889397Y-88669812D01*
X67877362Y-88672195D01*
X67699924Y-88725767D01*
X67688584Y-88730441D01*
X67524923Y-88817460D01*
X67514706Y-88824249D01*
X67371067Y-88941397D01*
X67362363Y-88950041D01*
X67244216Y-89092856D01*
X67237356Y-89103027D01*
X67149196Y-89266076D01*
X67144444Y-89277381D01*
X67108750Y-89392692D01*
X67108544Y-89406795D01*
X66040500Y-89406795D01*
X66040500Y-81289768D01*
X67107425Y-81289768D01*
X67139138Y-81397521D01*
X67143731Y-81408889D01*
X67229607Y-81573154D01*
X67236321Y-81583415D01*
X67352468Y-81727873D01*
X67361046Y-81736632D01*
X67503039Y-81855778D01*
X67513159Y-81862708D01*
X67675585Y-81952002D01*
X67686858Y-81956834D01*
X67863538Y-82012880D01*
X67875532Y-82015430D01*
X68019761Y-82031607D01*
X68026785Y-82032000D01*
X68455500Y-82032000D01*
X68523621Y-82052002D01*
X68570114Y-82105658D01*
X68581500Y-82158000D01*
X68581500Y-84514476D01*
X68561498Y-84582597D01*
X68549142Y-84598779D01*
X68475960Y-84680056D01*
X68380473Y-84845444D01*
X68321458Y-85027072D01*
X68320768Y-85033633D01*
X68320768Y-85033635D01*
X68311853Y-85118461D01*
X68301496Y-85217000D01*
X68302186Y-85223565D01*
X68315062Y-85346070D01*
X68321458Y-85406928D01*
X68380473Y-85588556D01*
X68475960Y-85753944D01*
X68603747Y-85895866D01*
X68758248Y-86008118D01*
X68764276Y-86010802D01*
X68764278Y-86010803D01*
X68926681Y-86083109D01*
X68932712Y-86085794D01*
X69026113Y-86105647D01*
X69113056Y-86124128D01*
X69113061Y-86124128D01*
X69119513Y-86125500D01*
X69310487Y-86125500D01*
X69316939Y-86124128D01*
X69316944Y-86124128D01*
X69403887Y-86105647D01*
X69497288Y-86085794D01*
X69503319Y-86083109D01*
X69665722Y-86010803D01*
X69665724Y-86010802D01*
X69671752Y-86008118D01*
X69826253Y-85895866D01*
X69954040Y-85753944D01*
X70049527Y-85588556D01*
X70108542Y-85406928D01*
X70114939Y-85346070D01*
X70127814Y-85223565D01*
X70128504Y-85217000D01*
X70118147Y-85118461D01*
X70109232Y-85033635D01*
X70109232Y-85033633D01*
X70108542Y-85027072D01*
X70049527Y-84845444D01*
X69954040Y-84680056D01*
X69880863Y-84598785D01*
X69850147Y-84534779D01*
X69848500Y-84514476D01*
X69848500Y-82356594D01*
X69868502Y-82288473D01*
X69885405Y-82267499D01*
X71002617Y-81150288D01*
X71064929Y-81116262D01*
X71135745Y-81121327D01*
X71192580Y-81163874D01*
X71215481Y-81215780D01*
X71217126Y-81224407D01*
X71270846Y-81406932D01*
X71275439Y-81418300D01*
X71363586Y-81586911D01*
X71370302Y-81597173D01*
X71489515Y-81745443D01*
X71498099Y-81754209D01*
X71557170Y-81803776D01*
X71596496Y-81862886D01*
X71597622Y-81933874D01*
X71580390Y-81971120D01*
X71531607Y-82042901D01*
X71519723Y-82060388D01*
X71452470Y-82228534D01*
X71451356Y-82235262D01*
X71451355Y-82235266D01*
X71424007Y-82400461D01*
X71422892Y-82407198D01*
X71423249Y-82414015D01*
X71423249Y-82414019D01*
X71428151Y-82507539D01*
X71432370Y-82588047D01*
X71434181Y-82594620D01*
X71434181Y-82594623D01*
X71466788Y-82713000D01*
X71480461Y-82762641D01*
X71564922Y-82922836D01*
X71569327Y-82928049D01*
X71569330Y-82928053D01*
X71677406Y-83055943D01*
X71677410Y-83055947D01*
X71681813Y-83061157D01*
X71687237Y-83065304D01*
X71687238Y-83065305D01*
X71820257Y-83167006D01*
X71820261Y-83167009D01*
X71825678Y-83171150D01*
X71912372Y-83211576D01*
X71983631Y-83244805D01*
X71983634Y-83244806D01*
X71989808Y-83247685D01*
X71996456Y-83249171D01*
X71996459Y-83249172D01*
X72102421Y-83272857D01*
X72166543Y-83287190D01*
X72172088Y-83287500D01*
X72305244Y-83287500D01*
X72440037Y-83272857D01*
X72558190Y-83233094D01*
X72605204Y-83217272D01*
X72605206Y-83217271D01*
X72611675Y-83215094D01*
X72766905Y-83121823D01*
X72771862Y-83117135D01*
X72771865Y-83117133D01*
X72893527Y-83002082D01*
X72893529Y-83002080D01*
X72898485Y-82997393D01*
X72902317Y-82991755D01*
X72902320Y-82991751D01*
X72996442Y-82853255D01*
X73000277Y-82847612D01*
X73067530Y-82679466D01*
X73068644Y-82672738D01*
X73068645Y-82672734D01*
X73095993Y-82507539D01*
X73095993Y-82507536D01*
X73097108Y-82500802D01*
X73096658Y-82492206D01*
X73087987Y-82326766D01*
X73087630Y-82319953D01*
X73059123Y-82216459D01*
X73060317Y-82145474D01*
X73099699Y-82086402D01*
X73164767Y-82057999D01*
X73180599Y-82057000D01*
X73332890Y-82057000D01*
X73339035Y-82056700D01*
X73480481Y-82042830D01*
X73492519Y-82040447D01*
X73674651Y-81985458D01*
X73685993Y-81980783D01*
X73853977Y-81891465D01*
X73864193Y-81884678D01*
X74011634Y-81764428D01*
X74020338Y-81755784D01*
X74141610Y-81609191D01*
X74148470Y-81599020D01*
X74238962Y-81431658D01*
X74243714Y-81420353D01*
X74282422Y-81295308D01*
X74282628Y-81281205D01*
X74275873Y-81278000D01*
X72632000Y-81278000D01*
X72563879Y-81257998D01*
X72517386Y-81204342D01*
X72506000Y-81152000D01*
X72506000Y-80751885D01*
X73014000Y-80751885D01*
X73018475Y-80767124D01*
X73019865Y-80768329D01*
X73027548Y-80770000D01*
X74268986Y-80770000D01*
X74282517Y-80766027D01*
X74283637Y-80758232D01*
X74249154Y-80641068D01*
X74244561Y-80629700D01*
X74156414Y-80461089D01*
X74149698Y-80450827D01*
X74030485Y-80302557D01*
X74021897Y-80293787D01*
X73876162Y-80171501D01*
X73866031Y-80164563D01*
X73699308Y-80072906D01*
X73688038Y-80068076D01*
X73506685Y-80010548D01*
X73494691Y-80007998D01*
X73346650Y-79991393D01*
X73339626Y-79991000D01*
X73032115Y-79991000D01*
X73016876Y-79995475D01*
X73015671Y-79996865D01*
X73014000Y-80004548D01*
X73014000Y-80751885D01*
X72506000Y-80751885D01*
X72506000Y-80009115D01*
X72501525Y-79993876D01*
X72500135Y-79992671D01*
X72492452Y-79991000D01*
X72466095Y-79991000D01*
X72397974Y-79970998D01*
X72351481Y-79917342D01*
X72341377Y-79847068D01*
X72370871Y-79782488D01*
X72377000Y-79775905D01*
X72615500Y-79537405D01*
X72677812Y-79503379D01*
X72704595Y-79500500D01*
X77269800Y-79500500D01*
X77337921Y-79520502D01*
X77357147Y-79536843D01*
X77357420Y-79536540D01*
X77362332Y-79540963D01*
X77366747Y-79545866D01*
X77388329Y-79561546D01*
X77502820Y-79644729D01*
X77521248Y-79658118D01*
X77527276Y-79660802D01*
X77527278Y-79660803D01*
X77654890Y-79717619D01*
X77695712Y-79735794D01*
X77789113Y-79755647D01*
X77876056Y-79774128D01*
X77876061Y-79774128D01*
X77882513Y-79775500D01*
X78073487Y-79775500D01*
X78079939Y-79774128D01*
X78079944Y-79774128D01*
X78166887Y-79755647D01*
X78260288Y-79735794D01*
X78301110Y-79717619D01*
X78428722Y-79660803D01*
X78428724Y-79660802D01*
X78434752Y-79658118D01*
X78453181Y-79644729D01*
X78490157Y-79617864D01*
X78589253Y-79545866D01*
X78597650Y-79536540D01*
X78712621Y-79408852D01*
X78712622Y-79408851D01*
X78717040Y-79403944D01*
X78812527Y-79238556D01*
X78871542Y-79056928D01*
X78891504Y-78867000D01*
X78881581Y-78772589D01*
X78872232Y-78683635D01*
X78872232Y-78683633D01*
X78871542Y-78677072D01*
X78812527Y-78495444D01*
X78798416Y-78471002D01*
X78758304Y-78401528D01*
X78717040Y-78330056D01*
X78700882Y-78312110D01*
X78593675Y-78193045D01*
X78593674Y-78193044D01*
X78589253Y-78188134D01*
X78434752Y-78075882D01*
X78428724Y-78073198D01*
X78428722Y-78073197D01*
X78266319Y-78000891D01*
X78266318Y-78000891D01*
X78260288Y-77998206D01*
X78166888Y-77978353D01*
X78079944Y-77959872D01*
X78079939Y-77959872D01*
X78073487Y-77958500D01*
X77882513Y-77958500D01*
X77876061Y-77959872D01*
X77876056Y-77959872D01*
X77789112Y-77978353D01*
X77695712Y-77998206D01*
X77689682Y-78000891D01*
X77689681Y-78000891D01*
X77527278Y-78073197D01*
X77527276Y-78073198D01*
X77521248Y-78075882D01*
X77515907Y-78079762D01*
X77515906Y-78079763D01*
X77446954Y-78129860D01*
X77366747Y-78188134D01*
X77362332Y-78193037D01*
X77357420Y-78197460D01*
X77356295Y-78196211D01*
X77302986Y-78229051D01*
X77269800Y-78233500D01*
X72468767Y-78233500D01*
X72457584Y-78232973D01*
X72450091Y-78231298D01*
X72442165Y-78231547D01*
X72442164Y-78231547D01*
X72382014Y-78233438D01*
X72378055Y-78233500D01*
X72350144Y-78233500D01*
X72346210Y-78233997D01*
X72346209Y-78233997D01*
X72346144Y-78234005D01*
X72334307Y-78234938D01*
X72302049Y-78235952D01*
X72298030Y-78236078D01*
X72290111Y-78236327D01*
X72270657Y-78241979D01*
X72251300Y-78245987D01*
X72239070Y-78247532D01*
X72239069Y-78247532D01*
X72231203Y-78248526D01*
X72223832Y-78251445D01*
X72223830Y-78251445D01*
X72190088Y-78264804D01*
X72178858Y-78268649D01*
X72144017Y-78278771D01*
X72144016Y-78278771D01*
X72136407Y-78280982D01*
X72129588Y-78285015D01*
X72129583Y-78285017D01*
X72118972Y-78291293D01*
X72101224Y-78299988D01*
X72082383Y-78307448D01*
X72075967Y-78312110D01*
X72075966Y-78312110D01*
X72046613Y-78333436D01*
X72036693Y-78339952D01*
X72005465Y-78358420D01*
X72005462Y-78358422D01*
X71998638Y-78362458D01*
X71984317Y-78376779D01*
X71969284Y-78389619D01*
X71952893Y-78401528D01*
X71925094Y-78435131D01*
X71924702Y-78435605D01*
X71916712Y-78444384D01*
X70010869Y-80350226D01*
X69948557Y-80384252D01*
X69877741Y-80379187D01*
X69823577Y-80340082D01*
X69807537Y-80320131D01*
X69798954Y-80311368D01*
X69656961Y-80192222D01*
X69646841Y-80185292D01*
X69484415Y-80095998D01*
X69473142Y-80091166D01*
X69296462Y-80035120D01*
X69284468Y-80032570D01*
X69140239Y-80016393D01*
X69133215Y-80016000D01*
X68852115Y-80016000D01*
X68836876Y-80020475D01*
X68835671Y-80021865D01*
X68834000Y-80029548D01*
X68834000Y-81152000D01*
X68813998Y-81220121D01*
X68760342Y-81266614D01*
X68708000Y-81278000D01*
X67122076Y-81278000D01*
X67108545Y-81281973D01*
X67107425Y-81289768D01*
X66040500Y-81289768D01*
X66040500Y-80766795D01*
X67108544Y-80766795D01*
X67115299Y-80770000D01*
X68307885Y-80770000D01*
X68323124Y-80765525D01*
X68324329Y-80764135D01*
X68326000Y-80756452D01*
X68326000Y-80034115D01*
X68321525Y-80018876D01*
X68320135Y-80017671D01*
X68312452Y-80016000D01*
X68033343Y-80016000D01*
X68027195Y-80016301D01*
X67889397Y-80029812D01*
X67877362Y-80032195D01*
X67699924Y-80085767D01*
X67688584Y-80090441D01*
X67524923Y-80177460D01*
X67514706Y-80184249D01*
X67371067Y-80301397D01*
X67362363Y-80310041D01*
X67244216Y-80452856D01*
X67237356Y-80463027D01*
X67149196Y-80626076D01*
X67144444Y-80637381D01*
X67108750Y-80752692D01*
X67108544Y-80766795D01*
X66040500Y-80766795D01*
X66040500Y-71628000D01*
X66390411Y-71628000D01*
X66410754Y-72016176D01*
X66471562Y-72400099D01*
X66572167Y-72775562D01*
X66711468Y-73138453D01*
X66887938Y-73484794D01*
X67099643Y-73810793D01*
X67344266Y-74112876D01*
X67619124Y-74387734D01*
X67921207Y-74632357D01*
X68247205Y-74844062D01*
X68250139Y-74845557D01*
X68250146Y-74845561D01*
X68590607Y-75019034D01*
X68593547Y-75020532D01*
X68956438Y-75159833D01*
X69331901Y-75260438D01*
X69535793Y-75292732D01*
X69712576Y-75320732D01*
X69712584Y-75320733D01*
X69715824Y-75321246D01*
X70104000Y-75341589D01*
X70492176Y-75321246D01*
X70495416Y-75320733D01*
X70495424Y-75320732D01*
X70672207Y-75292732D01*
X70876099Y-75260438D01*
X71251562Y-75159833D01*
X71614453Y-75020532D01*
X71617393Y-75019034D01*
X71957854Y-74845561D01*
X71957861Y-74845557D01*
X71960795Y-74844062D01*
X72286793Y-74632357D01*
X72588876Y-74387734D01*
X72863734Y-74112876D01*
X73108357Y-73810793D01*
X73320062Y-73484794D01*
X73496532Y-73138453D01*
X73635833Y-72775562D01*
X73736438Y-72400099D01*
X73797246Y-72016176D01*
X73817589Y-71628000D01*
X73797246Y-71239824D01*
X73783881Y-71155438D01*
X73736954Y-70859162D01*
X73736438Y-70855901D01*
X73635833Y-70480438D01*
X73496532Y-70117547D01*
X73320062Y-69771206D01*
X73108357Y-69445207D01*
X72863734Y-69143124D01*
X72588876Y-68868266D01*
X72567980Y-68851344D01*
X72289355Y-68625718D01*
X72286793Y-68623643D01*
X72284029Y-68621848D01*
X71963564Y-68413736D01*
X71963561Y-68413734D01*
X71960795Y-68411938D01*
X71957861Y-68410443D01*
X71957854Y-68410439D01*
X71617393Y-68236966D01*
X71614453Y-68235468D01*
X71251562Y-68096167D01*
X70876099Y-67995562D01*
X70672207Y-67963268D01*
X70495424Y-67935268D01*
X70495416Y-67935267D01*
X70492176Y-67934754D01*
X70104000Y-67914411D01*
X69715824Y-67934754D01*
X69712584Y-67935267D01*
X69712576Y-67935268D01*
X69535793Y-67963268D01*
X69331901Y-67995562D01*
X68956438Y-68096167D01*
X68593547Y-68235468D01*
X68590607Y-68236966D01*
X68250147Y-68410439D01*
X68250140Y-68410443D01*
X68247206Y-68411938D01*
X68244440Y-68413734D01*
X68244437Y-68413736D01*
X68150431Y-68474784D01*
X67921207Y-68623643D01*
X67918645Y-68625718D01*
X67640021Y-68851344D01*
X67619124Y-68868266D01*
X67344266Y-69143124D01*
X67099643Y-69445207D01*
X66887938Y-69771206D01*
X66711468Y-70117547D01*
X66572167Y-70480438D01*
X66471562Y-70855901D01*
X66471046Y-70859162D01*
X66424120Y-71155438D01*
X66410754Y-71239824D01*
X66390411Y-71628000D01*
X66040500Y-71628000D01*
X66040500Y-68887250D01*
X66042246Y-68866345D01*
X66044770Y-68851344D01*
X66044770Y-68851341D01*
X66045576Y-68846552D01*
X66045729Y-68834000D01*
X66044334Y-68824257D01*
X66043451Y-68796517D01*
X66055352Y-68645292D01*
X66058445Y-68625763D01*
X66094692Y-68474784D01*
X66100321Y-68451339D01*
X66106429Y-68432540D01*
X66114963Y-68411938D01*
X66175074Y-68266816D01*
X66184048Y-68249205D01*
X66277775Y-68096258D01*
X66289390Y-68080270D01*
X66405890Y-67943866D01*
X66419868Y-67929888D01*
X66437787Y-67914584D01*
X66556270Y-67813390D01*
X66572258Y-67801775D01*
X66725205Y-67708048D01*
X66742816Y-67699074D01*
X66908545Y-67630427D01*
X66927339Y-67624321D01*
X67101764Y-67582445D01*
X67121291Y-67579352D01*
X67268987Y-67567728D01*
X67285875Y-67568370D01*
X67285877Y-67568200D01*
X67294853Y-67568310D01*
X67303724Y-67569691D01*
X67312626Y-67568527D01*
X67312628Y-67568527D01*
X67330864Y-67566142D01*
X67335286Y-67565564D01*
X67351621Y-67564500D01*
X96947547Y-67564500D01*
X97015668Y-67584502D01*
G37*
G04 #@! TD.AperFunction*
G04 #@! TD*
M02*
