M48
; DRILL file {KiCad (6.0.8-1)-1} date Sunday, October 23, 2022 at 11:20:31 PM
; FORMAT={-:-/ absolute / inch / decimal}
; #@! TF.CreationDate,2022-10-23T23:20:31-07:00
; #@! TF.GenerationSoftware,Kicad,Pcbnew,(6.0.8-1)-1
; #@! TF.FileFunction,Plated,1,2,PTH
FMAT,2
INCH
; #@! TA.AperFunction,Plated,PTH,ViaDrill
T1C0.0157
; #@! TA.AperFunction,Plated,PTH,ComponentDrill
T2C0.0236
; #@! TA.AperFunction,Plated,PTH,ComponentDrill
T3C0.0394
; #@! TA.AperFunction,Plated,PTH,ComponentDrill
T4C0.1201
; #@! TA.AperFunction,Plated,PTH,ComponentDrill
T5C0.1260
%
G90
G05
T1
X2.725Y-3.355
X2.945Y-3.495
X3.005Y-3.58
X3.055Y-3.6
X3.055Y-3.915
X3.065Y-3.43
X3.07Y-3.105
X3.07Y-3.19
X3.1Y-3.59
X3.105Y-3.905
X3.115Y-3.545
X3.14Y-3.5
X3.17Y-3.19
X3.185Y-3.545
X3.22Y-3.95
X3.2477Y-3.5973
X3.33Y-3.675
X3.36Y-3.735
X3.525Y-3.22
X3.59Y-3.48
X3.615Y-3.285
X3.64Y-3.735
X3.645Y-3.04
X3.645Y-3.15
X3.645Y-3.24
T3
X3.7941Y-3.0383
X3.7941Y-3.1474
X3.7941Y-3.2564
X3.7941Y-3.3655
X3.7941Y-3.4745
X3.7941Y-3.5836
X3.7941Y-3.6926
X3.7941Y-3.8017
X3.9059Y-3.0928
X3.9059Y-3.2019
X3.9059Y-3.3109
X3.9059Y-3.42
X3.9059Y-3.5291
X3.9059Y-3.6381
X3.9059Y-3.7472
T4
X3.8508Y-2.7645
X3.8508Y-4.0755
T5
X2.76Y-2.82
X2.76Y-4.02
T2
G00X2.7157Y-3.1899
M15
G01X2.6843Y-3.1899
M16
G05
G00X2.7157Y-3.5301
M15
G01X2.6843Y-3.5301
M16
G05
G00X2.8862Y-3.1899
M15
G01X2.8429Y-3.1899
M16
G05
G00X2.8862Y-3.5301
M15
G01X2.8429Y-3.5301
M16
G05
T0
M30
