G04 #@! TF.GenerationSoftware,KiCad,Pcbnew,(5.1.6-85-g2d1f6937d)*
G04 #@! TF.CreationDate,2020-10-24T17:02:55-07:00*
G04 #@! TF.ProjectId,3DProUsb,33445072-6f55-4736-922e-6b696361645f,rev?*
G04 #@! TF.SameCoordinates,Original*
G04 #@! TF.FileFunction,Legend,Top*
G04 #@! TF.FilePolarity,Positive*
%FSLAX46Y46*%
G04 Gerber Fmt 4.6, Leading zero omitted, Abs format (unit mm)*
G04 Created by KiCad (PCBNEW (5.1.6-85-g2d1f6937d)) date 2020-10-24 17:02:55*
%MOMM*%
%LPD*%
G01*
G04 APERTURE LIST*
%ADD10C,0.150000*%
%ADD11C,0.127000*%
%ADD12C,0.200000*%
%ADD13C,0.120000*%
%ADD14C,0.300000*%
%ADD15C,0.125000*%
%ADD16C,0.250000*%
G04 APERTURE END LIST*
D10*
X84089904Y-87796666D02*
X84566095Y-87796666D01*
X83994666Y-88082380D02*
X84328000Y-87082380D01*
X84661333Y-88082380D01*
X88384095Y-88082380D02*
X88384095Y-87082380D01*
X88955523Y-88082380D02*
X88526952Y-87510952D01*
X88955523Y-87082380D02*
X88384095Y-87653809D01*
D11*
G04 #@! TO.C,J1*
X65956000Y-89398000D02*
X65656000Y-89398000D01*
X65956000Y-81798000D02*
X65656000Y-81798000D01*
X68156000Y-89398000D02*
X68556000Y-89398000D01*
X68556000Y-81798000D02*
X68156000Y-81798000D01*
X65606000Y-81798000D02*
X65606000Y-89398000D01*
D12*
X70656000Y-83598000D02*
G75*
G03*
X70656000Y-83598000I-100000J0D01*
G01*
D11*
G04 #@! TO.C,U1*
X76002000Y-83114000D02*
X76002000Y-83664000D01*
X76002000Y-90114000D02*
X76002000Y-89564000D01*
X83002000Y-83114000D02*
X83002000Y-83664000D01*
X83002000Y-90114000D02*
X83002000Y-89564000D01*
X76002000Y-83114000D02*
X76552000Y-83114000D01*
X76002000Y-90114000D02*
X76552000Y-90114000D01*
X83002000Y-83114000D02*
X82452000Y-83114000D01*
X83002000Y-90114000D02*
X82452000Y-90114000D01*
D12*
X75032000Y-84114000D02*
G75*
G03*
X75032000Y-84114000I-100000J0D01*
G01*
D13*
G04 #@! TO.C,SW1*
X83418000Y-99620000D02*
X77618000Y-99620000D01*
X83518000Y-106120000D02*
X77518000Y-106120000D01*
X83618000Y-101570000D02*
X83618000Y-104170000D01*
X77418000Y-101570000D02*
X77418000Y-104170000D01*
X75418000Y-100570000D02*
X75418000Y-99570000D01*
X75418000Y-99570000D02*
X76418000Y-99570000D01*
G04 #@! TO.C,X1*
X83888000Y-95730000D02*
X83888000Y-92230000D01*
X83888000Y-92230000D02*
X79688000Y-92230000D01*
G04 #@! TO.C,D1*
X85560000Y-88365000D02*
X87845000Y-88365000D01*
X87845000Y-88365000D02*
X87845000Y-86895000D01*
X87845000Y-86895000D02*
X85560000Y-86895000D01*
G04 #@! TO.C,R7*
X86265936Y-92350000D02*
X87470064Y-92350000D01*
X86265936Y-90530000D02*
X87470064Y-90530000D01*
D11*
G04 #@! TO.C,J3*
X94610000Y-67268000D02*
X107310000Y-67268000D01*
X107310000Y-67268000D02*
X107310000Y-106468000D01*
X107310000Y-106468000D02*
X94610000Y-106468000D01*
X94610000Y-106468000D02*
X94610000Y-67268000D01*
D12*
X93962400Y-77233000D02*
G75*
G03*
X93962400Y-77233000I-100000J0D01*
G01*
D14*
G04 #@! TO.C,J2*
X70274000Y-98238000D02*
G75*
G03*
X70274000Y-98238000I-150000J0D01*
G01*
D11*
X76327000Y-91440000D02*
X66421000Y-91440000D01*
X76327000Y-97536000D02*
X76327000Y-91440000D01*
X66421000Y-97536000D02*
X76327000Y-97536000D01*
X66421000Y-91440000D02*
X66421000Y-97536000D01*
G04 #@! TO.C,J1*
D10*
X70826380Y-82629333D02*
X71540666Y-82629333D01*
X71683523Y-82676952D01*
X71778761Y-82772190D01*
X71826380Y-82915047D01*
X71826380Y-83010285D01*
X71826380Y-81629333D02*
X71826380Y-82200761D01*
X71826380Y-81915047D02*
X70826380Y-81915047D01*
X70969238Y-82010285D01*
X71064476Y-82105523D01*
X71112095Y-82200761D01*
G04 #@! TO.C,U1*
X80264095Y-80986380D02*
X80264095Y-81795904D01*
X80311714Y-81891142D01*
X80359333Y-81938761D01*
X80454571Y-81986380D01*
X80645047Y-81986380D01*
X80740285Y-81938761D01*
X80787904Y-81891142D01*
X80835523Y-81795904D01*
X80835523Y-80986380D01*
X81835523Y-81986380D02*
X81264095Y-81986380D01*
X81549809Y-81986380D02*
X81549809Y-80986380D01*
X81454571Y-81129238D01*
X81359333Y-81224476D01*
X81264095Y-81272095D01*
G04 #@! TO.C,C11*
D15*
X73084571Y-87046571D02*
X73060761Y-87070380D01*
X72989333Y-87094190D01*
X72941714Y-87094190D01*
X72870285Y-87070380D01*
X72822666Y-87022761D01*
X72798857Y-86975142D01*
X72775047Y-86879904D01*
X72775047Y-86808476D01*
X72798857Y-86713238D01*
X72822666Y-86665619D01*
X72870285Y-86618000D01*
X72941714Y-86594190D01*
X72989333Y-86594190D01*
X73060761Y-86618000D01*
X73084571Y-86641809D01*
X73560761Y-87094190D02*
X73275047Y-87094190D01*
X73417904Y-87094190D02*
X73417904Y-86594190D01*
X73370285Y-86665619D01*
X73322666Y-86713238D01*
X73275047Y-86737047D01*
X74036952Y-87094190D02*
X73751238Y-87094190D01*
X73894095Y-87094190D02*
X73894095Y-86594190D01*
X73846476Y-86665619D01*
X73798857Y-86713238D01*
X73751238Y-86737047D01*
G04 #@! TO.C,SW1*
D10*
X72326666Y-106068761D02*
X72469523Y-106116380D01*
X72707619Y-106116380D01*
X72802857Y-106068761D01*
X72850476Y-106021142D01*
X72898095Y-105925904D01*
X72898095Y-105830666D01*
X72850476Y-105735428D01*
X72802857Y-105687809D01*
X72707619Y-105640190D01*
X72517142Y-105592571D01*
X72421904Y-105544952D01*
X72374285Y-105497333D01*
X72326666Y-105402095D01*
X72326666Y-105306857D01*
X72374285Y-105211619D01*
X72421904Y-105164000D01*
X72517142Y-105116380D01*
X72755238Y-105116380D01*
X72898095Y-105164000D01*
X73231428Y-105116380D02*
X73469523Y-106116380D01*
X73660000Y-105402095D01*
X73850476Y-106116380D01*
X74088571Y-105116380D01*
X74993333Y-106116380D02*
X74421904Y-106116380D01*
X74707619Y-106116380D02*
X74707619Y-105116380D01*
X74612380Y-105259238D01*
X74517142Y-105354476D01*
X74421904Y-105402095D01*
G04 #@! TO.C,X1*
X83518476Y-96226380D02*
X84185142Y-97226380D01*
X84185142Y-96226380D02*
X83518476Y-97226380D01*
X85089904Y-97226380D02*
X84518476Y-97226380D01*
X84804190Y-97226380D02*
X84804190Y-96226380D01*
X84708952Y-96369238D01*
X84613714Y-96464476D01*
X84518476Y-96512095D01*
G04 #@! TO.C,D1*
X85621904Y-89512380D02*
X85621904Y-88512380D01*
X85860000Y-88512380D01*
X86002857Y-88560000D01*
X86098095Y-88655238D01*
X86145714Y-88750476D01*
X86193333Y-88940952D01*
X86193333Y-89083809D01*
X86145714Y-89274285D01*
X86098095Y-89369523D01*
X86002857Y-89464761D01*
X85860000Y-89512380D01*
X85621904Y-89512380D01*
X87145714Y-89512380D02*
X86574285Y-89512380D01*
X86860000Y-89512380D02*
X86860000Y-88512380D01*
X86764761Y-88655238D01*
X86669523Y-88750476D01*
X86574285Y-88798095D01*
G04 #@! TO.C,R7*
X90257333Y-91892380D02*
X89924000Y-91416190D01*
X89685904Y-91892380D02*
X89685904Y-90892380D01*
X90066857Y-90892380D01*
X90162095Y-90940000D01*
X90209714Y-90987619D01*
X90257333Y-91082857D01*
X90257333Y-91225714D01*
X90209714Y-91320952D01*
X90162095Y-91368571D01*
X90066857Y-91416190D01*
X89685904Y-91416190D01*
X90590666Y-90892380D02*
X91257333Y-90892380D01*
X90828761Y-91892380D01*
G04 #@! TO.C,R6*
D15*
X92372666Y-85824190D02*
X92206000Y-85586095D01*
X92086952Y-85824190D02*
X92086952Y-85324190D01*
X92277428Y-85324190D01*
X92325047Y-85348000D01*
X92348857Y-85371809D01*
X92372666Y-85419428D01*
X92372666Y-85490857D01*
X92348857Y-85538476D01*
X92325047Y-85562285D01*
X92277428Y-85586095D01*
X92086952Y-85586095D01*
X92801238Y-85324190D02*
X92706000Y-85324190D01*
X92658380Y-85348000D01*
X92634571Y-85371809D01*
X92586952Y-85443238D01*
X92563142Y-85538476D01*
X92563142Y-85728952D01*
X92586952Y-85776571D01*
X92610761Y-85800380D01*
X92658380Y-85824190D01*
X92753619Y-85824190D01*
X92801238Y-85800380D01*
X92825047Y-85776571D01*
X92848857Y-85728952D01*
X92848857Y-85609904D01*
X92825047Y-85562285D01*
X92801238Y-85538476D01*
X92753619Y-85514666D01*
X92658380Y-85514666D01*
X92610761Y-85538476D01*
X92586952Y-85562285D01*
X92563142Y-85609904D01*
G04 #@! TO.C,R5*
X89324666Y-85062190D02*
X89158000Y-84824095D01*
X89038952Y-85062190D02*
X89038952Y-84562190D01*
X89229428Y-84562190D01*
X89277047Y-84586000D01*
X89300857Y-84609809D01*
X89324666Y-84657428D01*
X89324666Y-84728857D01*
X89300857Y-84776476D01*
X89277047Y-84800285D01*
X89229428Y-84824095D01*
X89038952Y-84824095D01*
X89777047Y-84562190D02*
X89538952Y-84562190D01*
X89515142Y-84800285D01*
X89538952Y-84776476D01*
X89586571Y-84752666D01*
X89705619Y-84752666D01*
X89753238Y-84776476D01*
X89777047Y-84800285D01*
X89800857Y-84847904D01*
X89800857Y-84966952D01*
X89777047Y-85014571D01*
X89753238Y-85038380D01*
X89705619Y-85062190D01*
X89586571Y-85062190D01*
X89538952Y-85038380D01*
X89515142Y-85014571D01*
G04 #@! TO.C,R4*
X92372666Y-87856190D02*
X92206000Y-87618095D01*
X92086952Y-87856190D02*
X92086952Y-87356190D01*
X92277428Y-87356190D01*
X92325047Y-87380000D01*
X92348857Y-87403809D01*
X92372666Y-87451428D01*
X92372666Y-87522857D01*
X92348857Y-87570476D01*
X92325047Y-87594285D01*
X92277428Y-87618095D01*
X92086952Y-87618095D01*
X92801238Y-87522857D02*
X92801238Y-87856190D01*
X92682190Y-87332380D02*
X92563142Y-87689523D01*
X92872666Y-87689523D01*
G04 #@! TO.C,R3*
X86530666Y-84300190D02*
X86364000Y-84062095D01*
X86244952Y-84300190D02*
X86244952Y-83800190D01*
X86435428Y-83800190D01*
X86483047Y-83824000D01*
X86506857Y-83847809D01*
X86530666Y-83895428D01*
X86530666Y-83966857D01*
X86506857Y-84014476D01*
X86483047Y-84038285D01*
X86435428Y-84062095D01*
X86244952Y-84062095D01*
X86697333Y-83800190D02*
X87006857Y-83800190D01*
X86840190Y-83990666D01*
X86911619Y-83990666D01*
X86959238Y-84014476D01*
X86983047Y-84038285D01*
X87006857Y-84085904D01*
X87006857Y-84204952D01*
X86983047Y-84252571D01*
X86959238Y-84276380D01*
X86911619Y-84300190D01*
X86768761Y-84300190D01*
X86721142Y-84276380D01*
X86697333Y-84252571D01*
G04 #@! TO.C,R2*
X73068666Y-85062190D02*
X72902000Y-84824095D01*
X72782952Y-85062190D02*
X72782952Y-84562190D01*
X72973428Y-84562190D01*
X73021047Y-84586000D01*
X73044857Y-84609809D01*
X73068666Y-84657428D01*
X73068666Y-84728857D01*
X73044857Y-84776476D01*
X73021047Y-84800285D01*
X72973428Y-84824095D01*
X72782952Y-84824095D01*
X73259142Y-84609809D02*
X73282952Y-84586000D01*
X73330571Y-84562190D01*
X73449619Y-84562190D01*
X73497238Y-84586000D01*
X73521047Y-84609809D01*
X73544857Y-84657428D01*
X73544857Y-84705047D01*
X73521047Y-84776476D01*
X73235333Y-85062190D01*
X73544857Y-85062190D01*
G04 #@! TO.C,R1*
X73068666Y-86078190D02*
X72902000Y-85840095D01*
X72782952Y-86078190D02*
X72782952Y-85578190D01*
X72973428Y-85578190D01*
X73021047Y-85602000D01*
X73044857Y-85625809D01*
X73068666Y-85673428D01*
X73068666Y-85744857D01*
X73044857Y-85792476D01*
X73021047Y-85816285D01*
X72973428Y-85840095D01*
X72782952Y-85840095D01*
X73544857Y-86078190D02*
X73259142Y-86078190D01*
X73402000Y-86078190D02*
X73402000Y-85578190D01*
X73354380Y-85649619D01*
X73306761Y-85697238D01*
X73259142Y-85721047D01*
G04 #@! TO.C,J3*
D10*
X92416380Y-103711333D02*
X93130666Y-103711333D01*
X93273523Y-103758952D01*
X93368761Y-103854190D01*
X93416380Y-103997047D01*
X93416380Y-104092285D01*
X92416380Y-103330380D02*
X92416380Y-102711333D01*
X92797333Y-103044666D01*
X92797333Y-102901809D01*
X92844952Y-102806571D01*
X92892571Y-102758952D01*
X92987809Y-102711333D01*
X93225904Y-102711333D01*
X93321142Y-102758952D01*
X93368761Y-102806571D01*
X93416380Y-102901809D01*
X93416380Y-103187523D01*
X93368761Y-103282761D01*
X93321142Y-103330380D01*
G04 #@! TO.C,J2*
D16*
X66468666Y-98512380D02*
X66468666Y-99226666D01*
X66421047Y-99369523D01*
X66325809Y-99464761D01*
X66182952Y-99512380D01*
X66087714Y-99512380D01*
X66897238Y-98607619D02*
X66944857Y-98560000D01*
X67040095Y-98512380D01*
X67278190Y-98512380D01*
X67373428Y-98560000D01*
X67421047Y-98607619D01*
X67468666Y-98702857D01*
X67468666Y-98798095D01*
X67421047Y-98940952D01*
X66849619Y-99512380D01*
X67468666Y-99512380D01*
G04 #@! TO.C,C10*
D15*
X92388571Y-86792571D02*
X92364761Y-86816380D01*
X92293333Y-86840190D01*
X92245714Y-86840190D01*
X92174285Y-86816380D01*
X92126666Y-86768761D01*
X92102857Y-86721142D01*
X92079047Y-86625904D01*
X92079047Y-86554476D01*
X92102857Y-86459238D01*
X92126666Y-86411619D01*
X92174285Y-86364000D01*
X92245714Y-86340190D01*
X92293333Y-86340190D01*
X92364761Y-86364000D01*
X92388571Y-86387809D01*
X92864761Y-86840190D02*
X92579047Y-86840190D01*
X92721904Y-86840190D02*
X92721904Y-86340190D01*
X92674285Y-86411619D01*
X92626666Y-86459238D01*
X92579047Y-86483047D01*
X93174285Y-86340190D02*
X93221904Y-86340190D01*
X93269523Y-86364000D01*
X93293333Y-86387809D01*
X93317142Y-86435428D01*
X93340952Y-86530666D01*
X93340952Y-86649714D01*
X93317142Y-86744952D01*
X93293333Y-86792571D01*
X93269523Y-86816380D01*
X93221904Y-86840190D01*
X93174285Y-86840190D01*
X93126666Y-86816380D01*
X93102857Y-86792571D01*
X93079047Y-86744952D01*
X93055238Y-86649714D01*
X93055238Y-86530666D01*
X93079047Y-86435428D01*
X93102857Y-86387809D01*
X93126666Y-86364000D01*
X93174285Y-86340190D01*
G04 #@! TO.C,C9*
X86276666Y-86030571D02*
X86252857Y-86054380D01*
X86181428Y-86078190D01*
X86133809Y-86078190D01*
X86062380Y-86054380D01*
X86014761Y-86006761D01*
X85990952Y-85959142D01*
X85967142Y-85863904D01*
X85967142Y-85792476D01*
X85990952Y-85697238D01*
X86014761Y-85649619D01*
X86062380Y-85602000D01*
X86133809Y-85578190D01*
X86181428Y-85578190D01*
X86252857Y-85602000D01*
X86276666Y-85625809D01*
X86514761Y-86078190D02*
X86610000Y-86078190D01*
X86657619Y-86054380D01*
X86681428Y-86030571D01*
X86729047Y-85959142D01*
X86752857Y-85863904D01*
X86752857Y-85673428D01*
X86729047Y-85625809D01*
X86705238Y-85602000D01*
X86657619Y-85578190D01*
X86562380Y-85578190D01*
X86514761Y-85602000D01*
X86490952Y-85625809D01*
X86467142Y-85673428D01*
X86467142Y-85792476D01*
X86490952Y-85840095D01*
X86514761Y-85863904D01*
X86562380Y-85887714D01*
X86657619Y-85887714D01*
X86705238Y-85863904D01*
X86729047Y-85840095D01*
X86752857Y-85792476D01*
G04 #@! TO.C,C8*
X87038666Y-93396571D02*
X87014857Y-93420380D01*
X86943428Y-93444190D01*
X86895809Y-93444190D01*
X86824380Y-93420380D01*
X86776761Y-93372761D01*
X86752952Y-93325142D01*
X86729142Y-93229904D01*
X86729142Y-93158476D01*
X86752952Y-93063238D01*
X86776761Y-93015619D01*
X86824380Y-92968000D01*
X86895809Y-92944190D01*
X86943428Y-92944190D01*
X87014857Y-92968000D01*
X87038666Y-92991809D01*
X87324380Y-93158476D02*
X87276761Y-93134666D01*
X87252952Y-93110857D01*
X87229142Y-93063238D01*
X87229142Y-93039428D01*
X87252952Y-92991809D01*
X87276761Y-92968000D01*
X87324380Y-92944190D01*
X87419619Y-92944190D01*
X87467238Y-92968000D01*
X87491047Y-92991809D01*
X87514857Y-93039428D01*
X87514857Y-93063238D01*
X87491047Y-93110857D01*
X87467238Y-93134666D01*
X87419619Y-93158476D01*
X87324380Y-93158476D01*
X87276761Y-93182285D01*
X87252952Y-93206095D01*
X87229142Y-93253714D01*
X87229142Y-93348952D01*
X87252952Y-93396571D01*
X87276761Y-93420380D01*
X87324380Y-93444190D01*
X87419619Y-93444190D01*
X87467238Y-93420380D01*
X87491047Y-93396571D01*
X87514857Y-93348952D01*
X87514857Y-93253714D01*
X87491047Y-93206095D01*
X87467238Y-93182285D01*
X87419619Y-93158476D01*
G04 #@! TO.C,C7*
X80942666Y-97714571D02*
X80918857Y-97738380D01*
X80847428Y-97762190D01*
X80799809Y-97762190D01*
X80728380Y-97738380D01*
X80680761Y-97690761D01*
X80656952Y-97643142D01*
X80633142Y-97547904D01*
X80633142Y-97476476D01*
X80656952Y-97381238D01*
X80680761Y-97333619D01*
X80728380Y-97286000D01*
X80799809Y-97262190D01*
X80847428Y-97262190D01*
X80918857Y-97286000D01*
X80942666Y-97309809D01*
X81109333Y-97262190D02*
X81442666Y-97262190D01*
X81228380Y-97762190D01*
G04 #@! TO.C,C6*
X78156571Y-79331333D02*
X78180380Y-79355142D01*
X78204190Y-79426571D01*
X78204190Y-79474190D01*
X78180380Y-79545619D01*
X78132761Y-79593238D01*
X78085142Y-79617047D01*
X77989904Y-79640857D01*
X77918476Y-79640857D01*
X77823238Y-79617047D01*
X77775619Y-79593238D01*
X77728000Y-79545619D01*
X77704190Y-79474190D01*
X77704190Y-79426571D01*
X77728000Y-79355142D01*
X77751809Y-79331333D01*
X77704190Y-78902761D02*
X77704190Y-78998000D01*
X77728000Y-79045619D01*
X77751809Y-79069428D01*
X77823238Y-79117047D01*
X77918476Y-79140857D01*
X78108952Y-79140857D01*
X78156571Y-79117047D01*
X78180380Y-79093238D01*
X78204190Y-79045619D01*
X78204190Y-78950380D01*
X78180380Y-78902761D01*
X78156571Y-78878952D01*
X78108952Y-78855142D01*
X77989904Y-78855142D01*
X77942285Y-78878952D01*
X77918476Y-78902761D01*
X77894666Y-78950380D01*
X77894666Y-79045619D01*
X77918476Y-79093238D01*
X77942285Y-79117047D01*
X77989904Y-79140857D01*
G04 #@! TO.C,C5*
X83236571Y-77553333D02*
X83260380Y-77577142D01*
X83284190Y-77648571D01*
X83284190Y-77696190D01*
X83260380Y-77767619D01*
X83212761Y-77815238D01*
X83165142Y-77839047D01*
X83069904Y-77862857D01*
X82998476Y-77862857D01*
X82903238Y-77839047D01*
X82855619Y-77815238D01*
X82808000Y-77767619D01*
X82784190Y-77696190D01*
X82784190Y-77648571D01*
X82808000Y-77577142D01*
X82831809Y-77553333D01*
X82784190Y-77100952D02*
X82784190Y-77339047D01*
X83022285Y-77362857D01*
X82998476Y-77339047D01*
X82974666Y-77291428D01*
X82974666Y-77172380D01*
X82998476Y-77124761D01*
X83022285Y-77100952D01*
X83069904Y-77077142D01*
X83188952Y-77077142D01*
X83236571Y-77100952D01*
X83260380Y-77124761D01*
X83284190Y-77172380D01*
X83284190Y-77291428D01*
X83260380Y-77339047D01*
X83236571Y-77362857D01*
G04 #@! TO.C,C4*
X82220571Y-77553333D02*
X82244380Y-77577142D01*
X82268190Y-77648571D01*
X82268190Y-77696190D01*
X82244380Y-77767619D01*
X82196761Y-77815238D01*
X82149142Y-77839047D01*
X82053904Y-77862857D01*
X81982476Y-77862857D01*
X81887238Y-77839047D01*
X81839619Y-77815238D01*
X81792000Y-77767619D01*
X81768190Y-77696190D01*
X81768190Y-77648571D01*
X81792000Y-77577142D01*
X81815809Y-77553333D01*
X81934857Y-77124761D02*
X82268190Y-77124761D01*
X81744380Y-77243809D02*
X82101523Y-77362857D01*
X82101523Y-77053333D01*
G04 #@! TO.C,C3*
X81204571Y-77553333D02*
X81228380Y-77577142D01*
X81252190Y-77648571D01*
X81252190Y-77696190D01*
X81228380Y-77767619D01*
X81180761Y-77815238D01*
X81133142Y-77839047D01*
X81037904Y-77862857D01*
X80966476Y-77862857D01*
X80871238Y-77839047D01*
X80823619Y-77815238D01*
X80776000Y-77767619D01*
X80752190Y-77696190D01*
X80752190Y-77648571D01*
X80776000Y-77577142D01*
X80799809Y-77553333D01*
X80752190Y-77386666D02*
X80752190Y-77077142D01*
X80942666Y-77243809D01*
X80942666Y-77172380D01*
X80966476Y-77124761D01*
X80990285Y-77100952D01*
X81037904Y-77077142D01*
X81156952Y-77077142D01*
X81204571Y-77100952D01*
X81228380Y-77124761D01*
X81252190Y-77172380D01*
X81252190Y-77315238D01*
X81228380Y-77362857D01*
X81204571Y-77386666D01*
G04 #@! TO.C,C2*
X80188571Y-77553333D02*
X80212380Y-77577142D01*
X80236190Y-77648571D01*
X80236190Y-77696190D01*
X80212380Y-77767619D01*
X80164761Y-77815238D01*
X80117142Y-77839047D01*
X80021904Y-77862857D01*
X79950476Y-77862857D01*
X79855238Y-77839047D01*
X79807619Y-77815238D01*
X79760000Y-77767619D01*
X79736190Y-77696190D01*
X79736190Y-77648571D01*
X79760000Y-77577142D01*
X79783809Y-77553333D01*
X79783809Y-77362857D02*
X79760000Y-77339047D01*
X79736190Y-77291428D01*
X79736190Y-77172380D01*
X79760000Y-77124761D01*
X79783809Y-77100952D01*
X79831428Y-77077142D01*
X79879047Y-77077142D01*
X79950476Y-77100952D01*
X80236190Y-77386666D01*
X80236190Y-77077142D01*
G04 #@! TO.C,C1*
X79172571Y-77553333D02*
X79196380Y-77577142D01*
X79220190Y-77648571D01*
X79220190Y-77696190D01*
X79196380Y-77767619D01*
X79148761Y-77815238D01*
X79101142Y-77839047D01*
X79005904Y-77862857D01*
X78934476Y-77862857D01*
X78839238Y-77839047D01*
X78791619Y-77815238D01*
X78744000Y-77767619D01*
X78720190Y-77696190D01*
X78720190Y-77648571D01*
X78744000Y-77577142D01*
X78767809Y-77553333D01*
X79220190Y-77077142D02*
X79220190Y-77362857D01*
X79220190Y-77220000D02*
X78720190Y-77220000D01*
X78791619Y-77267619D01*
X78839238Y-77315238D01*
X78863047Y-77362857D01*
G04 #@! TD*
M02*
