M48
; DRILL file {KiCad (6.0.7-1)-1} date Saturday, September 17, 2022 at 07:03:05 PM
; FORMAT={-:-/ absolute / inch / decimal}
; #@! TF.CreationDate,2022-09-17T19:03:05-07:00
; #@! TF.GenerationSoftware,Kicad,Pcbnew,(6.0.7-1)-1
; #@! TF.FileFunction,Plated,1,2,PTH
FMAT,2
INCH
; #@! TA.AperFunction,Plated,PTH,ViaDrill
T1C0.0157
; #@! TA.AperFunction,Plated,PTH,ComponentDrill
T2C0.0236
; #@! TA.AperFunction,Plated,PTH,ComponentDrill
T3C0.0394
; #@! TA.AperFunction,Plated,PTH,ComponentDrill
T4C0.1201
; #@! TA.AperFunction,Plated,PTH,ComponentDrill
T5C0.1260
%
G90
G05
T1
X2.93Y-3.26
X2.99Y-3.59
X3.04Y-3.48
X3.04Y-3.84
X3.07Y-3.2
X3.08Y-3.12
X3.09Y-3.84
X3.11Y-3.18
X3.13Y-2.94
X3.13Y-3.09
X3.14Y-3.59
X3.15Y-3.51
X3.2Y-3.47
X3.24Y-3.34
X3.24Y-3.41
X3.24Y-3.59
X3.33Y-3.51
X3.38Y-2.89
X3.39Y-3.3
X3.47Y-2.89
X3.52Y-2.7
X3.53Y-3.17
X3.53Y-3.22
X3.57Y-3.46
X3.63Y-2.7
X3.68Y-2.96
T3
X3.7941Y-3.0383
X3.7941Y-3.1474
X3.7941Y-3.2564
X3.7941Y-3.3655
X3.7941Y-3.4745
X3.7941Y-3.5836
X3.7941Y-3.6926
X3.7941Y-3.8017
X3.9059Y-3.0928
X3.9059Y-3.2019
X3.9059Y-3.3109
X3.9059Y-3.42
X3.9059Y-3.5291
X3.9059Y-3.6381
X3.9059Y-3.7472
T4
X3.8508Y-2.7645
X3.8508Y-4.0755
T5
X2.76Y-2.82
X2.76Y-4.02
T2
G00X2.7057Y-3.2099
M15
G01X2.6743Y-3.2099
M16
G05
G00X2.7057Y-3.5501
M15
G01X2.6743Y-3.5501
M16
G05
G00X2.8762Y-3.2099
M15
G01X2.8329Y-3.2099
M16
G05
G00X2.8762Y-3.5501
M15
G01X2.8329Y-3.5501
M16
G05
T0
M30
