G04 #@! TF.GenerationSoftware,KiCad,Pcbnew,(5.1.6-85-g2d1f6937d)*
G04 #@! TF.CreationDate,2020-10-23T01:45:30-07:00*
G04 #@! TF.ProjectId,3DProUsb,33445072-6f55-4736-922e-6b696361645f,rev?*
G04 #@! TF.SameCoordinates,Original*
G04 #@! TF.FileFunction,Copper,L1,Top*
G04 #@! TF.FilePolarity,Positive*
%FSLAX46Y46*%
G04 Gerber Fmt 4.6, Leading zero omitted, Abs format (unit mm)*
G04 Created by KiCad (PCBNEW (5.1.6-85-g2d1f6937d)) date 2020-10-23 01:45:30*
%MOMM*%
%LPD*%
G01*
G04 APERTURE LIST*
G04 #@! TA.AperFunction,SMDPad,CuDef*
%ADD10R,1.350000X0.400000*%
G04 #@! TD*
G04 #@! TA.AperFunction,SMDPad,CuDef*
%ADD11R,1.400000X1.600000*%
G04 #@! TD*
G04 #@! TA.AperFunction,SMDPad,CuDef*
%ADD12R,1.900000X1.900000*%
G04 #@! TD*
G04 #@! TA.AperFunction,ComponentPad*
%ADD13O,1.800000X0.900000*%
G04 #@! TD*
G04 #@! TA.AperFunction,SMDPad,CuDef*
%ADD14R,0.260000X1.010000*%
G04 #@! TD*
G04 #@! TA.AperFunction,SMDPad,CuDef*
%ADD15R,1.010000X0.260000*%
G04 #@! TD*
G04 #@! TA.AperFunction,SMDPad,CuDef*
%ADD16R,5.200000X5.200000*%
G04 #@! TD*
G04 #@! TA.AperFunction,SMDPad,CuDef*
%ADD17C,1.500000*%
G04 #@! TD*
G04 #@! TA.AperFunction,SMDPad,CuDef*
%ADD18C,0.500000*%
G04 #@! TD*
G04 #@! TA.AperFunction,ComponentPad*
%ADD19C,6.400000*%
G04 #@! TD*
G04 #@! TA.AperFunction,SMDPad,CuDef*
%ADD20R,1.600000X1.400000*%
G04 #@! TD*
G04 #@! TA.AperFunction,SMDPad,CuDef*
%ADD21R,1.400000X1.200000*%
G04 #@! TD*
G04 #@! TA.AperFunction,ComponentPad*
%ADD22R,1.508000X1.508000*%
G04 #@! TD*
G04 #@! TA.AperFunction,ComponentPad*
%ADD23C,1.508000*%
G04 #@! TD*
G04 #@! TA.AperFunction,ComponentPad*
%ADD24C,4.066000*%
G04 #@! TD*
G04 #@! TA.AperFunction,SMDPad,CuDef*
%ADD25C,0.787000*%
G04 #@! TD*
G04 #@! TA.AperFunction,ViaPad*
%ADD26C,0.800000*%
G04 #@! TD*
G04 #@! TA.AperFunction,Conductor*
%ADD27C,0.250000*%
G04 #@! TD*
G04 #@! TA.AperFunction,Conductor*
%ADD28C,0.356000*%
G04 #@! TD*
G04 #@! TA.AperFunction,Conductor*
%ADD29C,0.254000*%
G04 #@! TD*
G04 #@! TA.AperFunction,Conductor*
%ADD30C,0.100000*%
G04 #@! TD*
G04 APERTURE END LIST*
D10*
G04 #@! TO.P,J1,1*
G04 #@! TO.N,VCC*
X69731000Y-84298000D03*
G04 #@! TO.P,J1,2*
G04 #@! TO.N,Net-(J1-Pad2)*
X69731000Y-84948000D03*
G04 #@! TO.P,J1,3*
G04 #@! TO.N,Net-(J1-Pad3)*
X69731000Y-85598000D03*
G04 #@! TO.P,J1,4*
G04 #@! TO.N,Net-(J1-Pad4)*
X69731000Y-86248000D03*
G04 #@! TO.P,J1,5*
G04 #@! TO.N,Earth*
X69731000Y-86898000D03*
D11*
G04 #@! TO.P,J1,S1*
G04 #@! TO.N,Net-(J1-PadS1)*
X69506000Y-82398000D03*
G04 #@! TO.P,J1,S2*
G04 #@! TO.N,Net-(J1-PadS2)*
X69506000Y-88798000D03*
D12*
G04 #@! TO.P,J1,S4*
G04 #@! TO.N,Net-(J1-PadS4)*
X67056000Y-84398000D03*
G04 #@! TO.P,J1,S3*
G04 #@! TO.N,Net-(J1-PadS3)*
X67056000Y-86798000D03*
D13*
G04 #@! TO.P,J1,S5*
G04 #@! TO.N,Net-(J1-PadS5)*
X67056000Y-82298000D03*
G04 #@! TO.P,J1,S6*
G04 #@! TO.N,Net-(J1-PadS6)*
X67056000Y-88898000D03*
G04 #@! TD*
D14*
G04 #@! TO.P,U1,12*
G04 #@! TO.N,Net-(U1-Pad12)*
X77002000Y-89974000D03*
G04 #@! TO.P,U1,13*
G04 #@! TO.N,RST*
X77502000Y-89974000D03*
G04 #@! TO.P,U1,14*
G04 #@! TO.N,VCC*
X78002000Y-89974000D03*
G04 #@! TO.P,U1,15*
G04 #@! TO.N,Earth*
X78502000Y-89974000D03*
G04 #@! TO.P,U1,16*
G04 #@! TO.N,Net-(C7-Pad1)*
X79002000Y-89974000D03*
G04 #@! TO.P,U1,17*
G04 #@! TO.N,Net-(C8-Pad1)*
X79502000Y-89974000D03*
G04 #@! TO.P,U1,18*
G04 #@! TO.N,PB0_PD0*
X80002000Y-89974000D03*
G04 #@! TO.P,U1,19*
G04 #@! TO.N,Net-(U1-Pad19)*
X80502000Y-89974000D03*
G04 #@! TO.P,U1,20*
G04 #@! TO.N,Net-(U1-Pad20)*
X81002000Y-89974000D03*
G04 #@! TO.P,U1,21*
G04 #@! TO.N,PD3*
X81502000Y-89974000D03*
G04 #@! TO.P,U1,22*
G04 #@! TO.N,Net-(U1-Pad22)*
X82002000Y-89974000D03*
G04 #@! TO.P,U1,34*
G04 #@! TO.N,VCC*
X82002000Y-83254000D03*
G04 #@! TO.P,U1,35*
G04 #@! TO.N,Earth*
X81502000Y-83254000D03*
G04 #@! TO.P,U1,36*
G04 #@! TO.N,Net-(U1-Pad36)*
X81002000Y-83254000D03*
G04 #@! TO.P,U1,37*
G04 #@! TO.N,Net-(U1-Pad37)*
X80502000Y-83254000D03*
G04 #@! TO.P,U1,38*
G04 #@! TO.N,Net-(U1-Pad38)*
X80002000Y-83254000D03*
G04 #@! TO.P,U1,39*
G04 #@! TO.N,Net-(U1-Pad39)*
X79502000Y-83254000D03*
G04 #@! TO.P,U1,40*
G04 #@! TO.N,Net-(U1-Pad40)*
X79002000Y-83254000D03*
G04 #@! TO.P,U1,41*
G04 #@! TO.N,Net-(U1-Pad41)*
X78502000Y-83254000D03*
G04 #@! TO.P,U1,42*
G04 #@! TO.N,Net-(C6-Pad1)*
X78002000Y-83254000D03*
G04 #@! TO.P,U1,43*
G04 #@! TO.N,Earth*
X77502000Y-83254000D03*
G04 #@! TO.P,U1,44*
G04 #@! TO.N,VCC*
X77002000Y-83254000D03*
D15*
G04 #@! TO.P,U1,1*
G04 #@! TO.N,Net-(U1-Pad1)*
X76142000Y-84114000D03*
G04 #@! TO.P,U1,2*
G04 #@! TO.N,VCC*
X76142000Y-84614000D03*
G04 #@! TO.P,U1,3*
G04 #@! TO.N,Net-(R2-Pad1)*
X76142000Y-85114000D03*
G04 #@! TO.P,U1,4*
G04 #@! TO.N,Net-(R1-Pad1)*
X76142000Y-85614000D03*
G04 #@! TO.P,U1,5*
G04 #@! TO.N,Earth*
X76142000Y-86114000D03*
G04 #@! TO.P,U1,6*
G04 #@! TO.N,Net-(C11-Pad1)*
X76142000Y-86614000D03*
G04 #@! TO.P,U1,7*
G04 #@! TO.N,VCC*
X76142000Y-87114000D03*
G04 #@! TO.P,U1,8*
G04 #@! TO.N,PB0_PD0*
X76142000Y-87614000D03*
G04 #@! TO.P,U1,9*
G04 #@! TO.N,SCLK*
X76142000Y-88114000D03*
G04 #@! TO.P,U1,10*
G04 #@! TO.N,MOSI*
X76142000Y-88614000D03*
G04 #@! TO.P,U1,11*
G04 #@! TO.N,MISO*
X76142000Y-89114000D03*
G04 #@! TO.P,U1,23*
G04 #@! TO.N,Earth*
X82862000Y-89114000D03*
G04 #@! TO.P,U1,24*
G04 #@! TO.N,VCC*
X82862000Y-88614000D03*
G04 #@! TO.P,U1,25*
G04 #@! TO.N,Net-(U1-Pad25)*
X82862000Y-88114000D03*
G04 #@! TO.P,U1,26*
G04 #@! TO.N,Net-(D1-Pad2)*
X82862000Y-87614000D03*
G04 #@! TO.P,U1,27*
G04 #@! TO.N,Net-(U1-Pad27)*
X82862000Y-87114000D03*
G04 #@! TO.P,U1,28*
G04 #@! TO.N,Net-(C10-Pad1)*
X82862000Y-86614000D03*
G04 #@! TO.P,U1,29*
G04 #@! TO.N,Net-(C9-Pad1)*
X82862000Y-86114000D03*
G04 #@! TO.P,U1,30*
G04 #@! TO.N,Net-(U1-Pad30)*
X82862000Y-85614000D03*
G04 #@! TO.P,U1,31*
G04 #@! TO.N,Net-(U1-Pad31)*
X82862000Y-85114000D03*
G04 #@! TO.P,U1,32*
G04 #@! TO.N,Net-(U1-Pad32)*
X82862000Y-84614000D03*
G04 #@! TO.P,U1,33*
G04 #@! TO.N,Net-(R3-Pad1)*
X82862000Y-84114000D03*
D16*
G04 #@! TO.P,U1,45*
G04 #@! TO.N,Earth*
X79502000Y-86614000D03*
G04 #@! TD*
G04 #@! TO.P,C11,2*
G04 #@! TO.N,Earth*
G04 #@! TA.AperFunction,SMDPad,CuDef*
G36*
G01*
X71946000Y-86949500D02*
X71946000Y-87294500D01*
G75*
G02*
X71798500Y-87442000I-147500J0D01*
G01*
X71503500Y-87442000D01*
G75*
G02*
X71356000Y-87294500I0J147500D01*
G01*
X71356000Y-86949500D01*
G75*
G02*
X71503500Y-86802000I147500J0D01*
G01*
X71798500Y-86802000D01*
G75*
G02*
X71946000Y-86949500I0J-147500D01*
G01*
G37*
G04 #@! TD.AperFunction*
G04 #@! TO.P,C11,1*
G04 #@! TO.N,Net-(C11-Pad1)*
G04 #@! TA.AperFunction,SMDPad,CuDef*
G36*
G01*
X72916000Y-86949500D02*
X72916000Y-87294500D01*
G75*
G02*
X72768500Y-87442000I-147500J0D01*
G01*
X72473500Y-87442000D01*
G75*
G02*
X72326000Y-87294500I0J147500D01*
G01*
X72326000Y-86949500D01*
G75*
G02*
X72473500Y-86802000I147500J0D01*
G01*
X72768500Y-86802000D01*
G75*
G02*
X72916000Y-86949500I0J-147500D01*
G01*
G37*
G04 #@! TD.AperFunction*
G04 #@! TD*
D17*
G04 #@! TO.P,REF\u002A\u002A,*
G04 #@! TO.N,*
X69342000Y-77978000D03*
G04 #@! TD*
G04 #@! TO.P,REF\u002A\u002A,*
G04 #@! TO.N,*
X104902000Y-103886000D03*
G04 #@! TD*
G04 #@! TO.P,REF\u002A\u002A,*
G04 #@! TO.N,*
X104648000Y-69850000D03*
G04 #@! TD*
D18*
G04 #@! TO.P,REF\u002A\u002A,*
G04 #@! TO.N,*
X75438000Y-82550000D03*
G04 #@! TD*
G04 #@! TO.P,REF\u002A\u002A,*
G04 #@! TO.N,*
X75438000Y-90678000D03*
G04 #@! TD*
G04 #@! TO.P,REF\u002A\u002A,*
G04 #@! TO.N,*
X83566000Y-82550000D03*
G04 #@! TD*
D19*
G04 #@! TO.P,REF\u002A\u002A,1*
G04 #@! TO.N,N/C*
X70104000Y-102108000D03*
G04 #@! TD*
G04 #@! TO.P,REF\u002A\u002A,1*
G04 #@! TO.N,N/C*
X70104000Y-71628000D03*
G04 #@! TD*
D20*
G04 #@! TO.P,SW1,3*
G04 #@! TO.N,RST*
X76518000Y-105120000D03*
G04 #@! TO.P,SW1,4*
G04 #@! TO.N,Net-(SW1-Pad4)*
X84518000Y-105120000D03*
G04 #@! TO.P,SW1,1*
G04 #@! TO.N,Net-(SW1-Pad1)*
X76518000Y-100620000D03*
G04 #@! TO.P,SW1,2*
G04 #@! TO.N,Earth*
X84518000Y-100620000D03*
G04 #@! TD*
D21*
G04 #@! TO.P,X1,4*
G04 #@! TO.N,Earth*
X82988000Y-94930000D03*
G04 #@! TO.P,X1,3*
G04 #@! TO.N,Net-(C7-Pad1)*
X80588000Y-94930000D03*
G04 #@! TO.P,X1,2*
G04 #@! TO.N,Earth*
X80588000Y-93030000D03*
G04 #@! TO.P,X1,1*
G04 #@! TO.N,Net-(C8-Pad1)*
X82988000Y-93030000D03*
G04 #@! TD*
G04 #@! TO.P,D1,2*
G04 #@! TO.N,Net-(D1-Pad2)*
G04 #@! TA.AperFunction,SMDPad,CuDef*
G36*
G01*
X86010000Y-87373750D02*
X86010000Y-87886250D01*
G75*
G02*
X85791250Y-88105000I-218750J0D01*
G01*
X85353750Y-88105000D01*
G75*
G02*
X85135000Y-87886250I0J218750D01*
G01*
X85135000Y-87373750D01*
G75*
G02*
X85353750Y-87155000I218750J0D01*
G01*
X85791250Y-87155000D01*
G75*
G02*
X86010000Y-87373750I0J-218750D01*
G01*
G37*
G04 #@! TD.AperFunction*
G04 #@! TO.P,D1,1*
G04 #@! TO.N,Net-(D1-Pad1)*
G04 #@! TA.AperFunction,SMDPad,CuDef*
G36*
G01*
X87585000Y-87373750D02*
X87585000Y-87886250D01*
G75*
G02*
X87366250Y-88105000I-218750J0D01*
G01*
X86928750Y-88105000D01*
G75*
G02*
X86710000Y-87886250I0J218750D01*
G01*
X86710000Y-87373750D01*
G75*
G02*
X86928750Y-87155000I218750J0D01*
G01*
X87366250Y-87155000D01*
G75*
G02*
X87585000Y-87373750I0J-218750D01*
G01*
G37*
G04 #@! TD.AperFunction*
G04 #@! TD*
G04 #@! TO.P,R7,2*
G04 #@! TO.N,Net-(J3-Pad12)*
G04 #@! TA.AperFunction,SMDPad,CuDef*
G36*
G01*
X87643000Y-92065000D02*
X87643000Y-90815000D01*
G75*
G02*
X87893000Y-90565000I250000J0D01*
G01*
X88643000Y-90565000D01*
G75*
G02*
X88893000Y-90815000I0J-250000D01*
G01*
X88893000Y-92065000D01*
G75*
G02*
X88643000Y-92315000I-250000J0D01*
G01*
X87893000Y-92315000D01*
G75*
G02*
X87643000Y-92065000I0J250000D01*
G01*
G37*
G04 #@! TD.AperFunction*
G04 #@! TO.P,R7,1*
G04 #@! TO.N,PD3*
G04 #@! TA.AperFunction,SMDPad,CuDef*
G36*
G01*
X84843000Y-92065000D02*
X84843000Y-90815000D01*
G75*
G02*
X85093000Y-90565000I250000J0D01*
G01*
X85843000Y-90565000D01*
G75*
G02*
X86093000Y-90815000I0J-250000D01*
G01*
X86093000Y-92065000D01*
G75*
G02*
X85843000Y-92315000I-250000J0D01*
G01*
X85093000Y-92315000D01*
G75*
G02*
X84843000Y-92065000I0J250000D01*
G01*
G37*
G04 #@! TD.AperFunction*
G04 #@! TD*
G04 #@! TO.P,R6,2*
G04 #@! TO.N,Net-(J3-Pad11)*
G04 #@! TA.AperFunction,SMDPad,CuDef*
G36*
G01*
X91122000Y-85770500D02*
X91122000Y-85425500D01*
G75*
G02*
X91269500Y-85278000I147500J0D01*
G01*
X91564500Y-85278000D01*
G75*
G02*
X91712000Y-85425500I0J-147500D01*
G01*
X91712000Y-85770500D01*
G75*
G02*
X91564500Y-85918000I-147500J0D01*
G01*
X91269500Y-85918000D01*
G75*
G02*
X91122000Y-85770500I0J147500D01*
G01*
G37*
G04 #@! TD.AperFunction*
G04 #@! TO.P,R6,1*
G04 #@! TO.N,Net-(C10-Pad1)*
G04 #@! TA.AperFunction,SMDPad,CuDef*
G36*
G01*
X90152000Y-85770500D02*
X90152000Y-85425500D01*
G75*
G02*
X90299500Y-85278000I147500J0D01*
G01*
X90594500Y-85278000D01*
G75*
G02*
X90742000Y-85425500I0J-147500D01*
G01*
X90742000Y-85770500D01*
G75*
G02*
X90594500Y-85918000I-147500J0D01*
G01*
X90299500Y-85918000D01*
G75*
G02*
X90152000Y-85770500I0J147500D01*
G01*
G37*
G04 #@! TD.AperFunction*
G04 #@! TD*
G04 #@! TO.P,R5,2*
G04 #@! TO.N,Net-(J3-Pad3)*
G04 #@! TA.AperFunction,SMDPad,CuDef*
G36*
G01*
X88074000Y-85008500D02*
X88074000Y-84663500D01*
G75*
G02*
X88221500Y-84516000I147500J0D01*
G01*
X88516500Y-84516000D01*
G75*
G02*
X88664000Y-84663500I0J-147500D01*
G01*
X88664000Y-85008500D01*
G75*
G02*
X88516500Y-85156000I-147500J0D01*
G01*
X88221500Y-85156000D01*
G75*
G02*
X88074000Y-85008500I0J147500D01*
G01*
G37*
G04 #@! TD.AperFunction*
G04 #@! TO.P,R5,1*
G04 #@! TO.N,Net-(C9-Pad1)*
G04 #@! TA.AperFunction,SMDPad,CuDef*
G36*
G01*
X87104000Y-85008500D02*
X87104000Y-84663500D01*
G75*
G02*
X87251500Y-84516000I147500J0D01*
G01*
X87546500Y-84516000D01*
G75*
G02*
X87694000Y-84663500I0J-147500D01*
G01*
X87694000Y-85008500D01*
G75*
G02*
X87546500Y-85156000I-147500J0D01*
G01*
X87251500Y-85156000D01*
G75*
G02*
X87104000Y-85008500I0J147500D01*
G01*
G37*
G04 #@! TD.AperFunction*
G04 #@! TD*
G04 #@! TO.P,R4,2*
G04 #@! TO.N,Net-(D1-Pad1)*
G04 #@! TA.AperFunction,SMDPad,CuDef*
G36*
G01*
X90742000Y-87457500D02*
X90742000Y-87802500D01*
G75*
G02*
X90594500Y-87950000I-147500J0D01*
G01*
X90299500Y-87950000D01*
G75*
G02*
X90152000Y-87802500I0J147500D01*
G01*
X90152000Y-87457500D01*
G75*
G02*
X90299500Y-87310000I147500J0D01*
G01*
X90594500Y-87310000D01*
G75*
G02*
X90742000Y-87457500I0J-147500D01*
G01*
G37*
G04 #@! TD.AperFunction*
G04 #@! TO.P,R4,1*
G04 #@! TO.N,Earth*
G04 #@! TA.AperFunction,SMDPad,CuDef*
G36*
G01*
X91712000Y-87457500D02*
X91712000Y-87802500D01*
G75*
G02*
X91564500Y-87950000I-147500J0D01*
G01*
X91269500Y-87950000D01*
G75*
G02*
X91122000Y-87802500I0J147500D01*
G01*
X91122000Y-87457500D01*
G75*
G02*
X91269500Y-87310000I147500J0D01*
G01*
X91564500Y-87310000D01*
G75*
G02*
X91712000Y-87457500I0J-147500D01*
G01*
G37*
G04 #@! TD.AperFunction*
G04 #@! TD*
G04 #@! TO.P,R3,2*
G04 #@! TO.N,Earth*
G04 #@! TA.AperFunction,SMDPad,CuDef*
G36*
G01*
X85280000Y-84246500D02*
X85280000Y-83901500D01*
G75*
G02*
X85427500Y-83754000I147500J0D01*
G01*
X85722500Y-83754000D01*
G75*
G02*
X85870000Y-83901500I0J-147500D01*
G01*
X85870000Y-84246500D01*
G75*
G02*
X85722500Y-84394000I-147500J0D01*
G01*
X85427500Y-84394000D01*
G75*
G02*
X85280000Y-84246500I0J147500D01*
G01*
G37*
G04 #@! TD.AperFunction*
G04 #@! TO.P,R3,1*
G04 #@! TO.N,Net-(R3-Pad1)*
G04 #@! TA.AperFunction,SMDPad,CuDef*
G36*
G01*
X84310000Y-84246500D02*
X84310000Y-83901500D01*
G75*
G02*
X84457500Y-83754000I147500J0D01*
G01*
X84752500Y-83754000D01*
G75*
G02*
X84900000Y-83901500I0J-147500D01*
G01*
X84900000Y-84246500D01*
G75*
G02*
X84752500Y-84394000I-147500J0D01*
G01*
X84457500Y-84394000D01*
G75*
G02*
X84310000Y-84246500I0J147500D01*
G01*
G37*
G04 #@! TD.AperFunction*
G04 #@! TD*
G04 #@! TO.P,R2,2*
G04 #@! TO.N,Net-(J1-Pad2)*
G04 #@! TA.AperFunction,SMDPad,CuDef*
G36*
G01*
X71946000Y-84917500D02*
X71946000Y-85262500D01*
G75*
G02*
X71798500Y-85410000I-147500J0D01*
G01*
X71503500Y-85410000D01*
G75*
G02*
X71356000Y-85262500I0J147500D01*
G01*
X71356000Y-84917500D01*
G75*
G02*
X71503500Y-84770000I147500J0D01*
G01*
X71798500Y-84770000D01*
G75*
G02*
X71946000Y-84917500I0J-147500D01*
G01*
G37*
G04 #@! TD.AperFunction*
G04 #@! TO.P,R2,1*
G04 #@! TO.N,Net-(R2-Pad1)*
G04 #@! TA.AperFunction,SMDPad,CuDef*
G36*
G01*
X72916000Y-84917500D02*
X72916000Y-85262500D01*
G75*
G02*
X72768500Y-85410000I-147500J0D01*
G01*
X72473500Y-85410000D01*
G75*
G02*
X72326000Y-85262500I0J147500D01*
G01*
X72326000Y-84917500D01*
G75*
G02*
X72473500Y-84770000I147500J0D01*
G01*
X72768500Y-84770000D01*
G75*
G02*
X72916000Y-84917500I0J-147500D01*
G01*
G37*
G04 #@! TD.AperFunction*
G04 #@! TD*
G04 #@! TO.P,R1,2*
G04 #@! TO.N,Net-(J1-Pad3)*
G04 #@! TA.AperFunction,SMDPad,CuDef*
G36*
G01*
X71946000Y-85933500D02*
X71946000Y-86278500D01*
G75*
G02*
X71798500Y-86426000I-147500J0D01*
G01*
X71503500Y-86426000D01*
G75*
G02*
X71356000Y-86278500I0J147500D01*
G01*
X71356000Y-85933500D01*
G75*
G02*
X71503500Y-85786000I147500J0D01*
G01*
X71798500Y-85786000D01*
G75*
G02*
X71946000Y-85933500I0J-147500D01*
G01*
G37*
G04 #@! TD.AperFunction*
G04 #@! TO.P,R1,1*
G04 #@! TO.N,Net-(R1-Pad1)*
G04 #@! TA.AperFunction,SMDPad,CuDef*
G36*
G01*
X72916000Y-85933500D02*
X72916000Y-86278500D01*
G75*
G02*
X72768500Y-86426000I-147500J0D01*
G01*
X72473500Y-86426000D01*
G75*
G02*
X72326000Y-86278500I0J147500D01*
G01*
X72326000Y-85933500D01*
G75*
G02*
X72473500Y-85786000I147500J0D01*
G01*
X72768500Y-85786000D01*
G75*
G02*
X72916000Y-85933500I0J-147500D01*
G01*
G37*
G04 #@! TD.AperFunction*
G04 #@! TD*
D22*
G04 #@! TO.P,J3,1*
G04 #@! TO.N,VCC*
X96370000Y-77173000D03*
D23*
G04 #@! TO.P,J3,2*
G04 #@! TO.N,PB0_PD0*
X96370000Y-79943000D03*
G04 #@! TO.P,J3,9*
G04 #@! TO.N,Net-(J3-Pad9)*
X99210000Y-78558000D03*
D24*
G04 #@! TO.P,J3,S1*
G04 #@! TO.N,N/C*
X97810000Y-103518000D03*
G04 #@! TO.P,J3,S2*
X97810000Y-70218000D03*
D23*
G04 #@! TO.P,J3,3*
G04 #@! TO.N,Net-(J3-Pad3)*
X96370000Y-82713000D03*
G04 #@! TO.P,J3,4*
G04 #@! TO.N,Earth*
X96370000Y-85483000D03*
G04 #@! TO.P,J3,5*
G04 #@! TO.N,Net-(J3-Pad5)*
X96370000Y-88253000D03*
G04 #@! TO.P,J3,6*
G04 #@! TO.N,Net-(J3-Pad6)*
X96370000Y-91023000D03*
G04 #@! TO.P,J3,7*
G04 #@! TO.N,SCLK*
X96370000Y-93793000D03*
G04 #@! TO.P,J3,8*
G04 #@! TO.N,Net-(J3-Pad8)*
X96370000Y-96563000D03*
G04 #@! TO.P,J3,10*
G04 #@! TO.N,MOSI*
X99210000Y-81328000D03*
G04 #@! TO.P,J3,11*
G04 #@! TO.N,Net-(J3-Pad11)*
X99210000Y-84098000D03*
G04 #@! TO.P,J3,12*
G04 #@! TO.N,Net-(J3-Pad12)*
X99210000Y-86868000D03*
G04 #@! TO.P,J3,13*
G04 #@! TO.N,Net-(J3-Pad11)*
X99210000Y-89638000D03*
G04 #@! TO.P,J3,14*
G04 #@! TO.N,MISO*
X99210000Y-92408000D03*
G04 #@! TO.P,J3,15*
G04 #@! TO.N,Net-(J3-Pad15)*
X99210000Y-95178000D03*
G04 #@! TD*
D25*
G04 #@! TO.P,J2,1*
G04 #@! TO.N,MISO*
X70104000Y-95123000D03*
G04 #@! TO.P,J2,2*
G04 #@! TO.N,VCC*
X70104000Y-93853000D03*
G04 #@! TO.P,J2,3*
G04 #@! TO.N,SCLK*
X71374000Y-95123000D03*
G04 #@! TO.P,J2,4*
G04 #@! TO.N,MOSI*
X71374000Y-93853000D03*
G04 #@! TO.P,J2,5*
G04 #@! TO.N,RST*
X72644000Y-95123000D03*
G04 #@! TO.P,J2,6*
G04 #@! TO.N,Earth*
X72644000Y-93853000D03*
G04 #@! TD*
G04 #@! TO.P,C10,2*
G04 #@! TO.N,Earth*
G04 #@! TA.AperFunction,SMDPad,CuDef*
G36*
G01*
X91122000Y-86786500D02*
X91122000Y-86441500D01*
G75*
G02*
X91269500Y-86294000I147500J0D01*
G01*
X91564500Y-86294000D01*
G75*
G02*
X91712000Y-86441500I0J-147500D01*
G01*
X91712000Y-86786500D01*
G75*
G02*
X91564500Y-86934000I-147500J0D01*
G01*
X91269500Y-86934000D01*
G75*
G02*
X91122000Y-86786500I0J147500D01*
G01*
G37*
G04 #@! TD.AperFunction*
G04 #@! TO.P,C10,1*
G04 #@! TO.N,Net-(C10-Pad1)*
G04 #@! TA.AperFunction,SMDPad,CuDef*
G36*
G01*
X90152000Y-86786500D02*
X90152000Y-86441500D01*
G75*
G02*
X90299500Y-86294000I147500J0D01*
G01*
X90594500Y-86294000D01*
G75*
G02*
X90742000Y-86441500I0J-147500D01*
G01*
X90742000Y-86786500D01*
G75*
G02*
X90594500Y-86934000I-147500J0D01*
G01*
X90299500Y-86934000D01*
G75*
G02*
X90152000Y-86786500I0J147500D01*
G01*
G37*
G04 #@! TD.AperFunction*
G04 #@! TD*
G04 #@! TO.P,C9,2*
G04 #@! TO.N,Earth*
G04 #@! TA.AperFunction,SMDPad,CuDef*
G36*
G01*
X88074000Y-86024500D02*
X88074000Y-85679500D01*
G75*
G02*
X88221500Y-85532000I147500J0D01*
G01*
X88516500Y-85532000D01*
G75*
G02*
X88664000Y-85679500I0J-147500D01*
G01*
X88664000Y-86024500D01*
G75*
G02*
X88516500Y-86172000I-147500J0D01*
G01*
X88221500Y-86172000D01*
G75*
G02*
X88074000Y-86024500I0J147500D01*
G01*
G37*
G04 #@! TD.AperFunction*
G04 #@! TO.P,C9,1*
G04 #@! TO.N,Net-(C9-Pad1)*
G04 #@! TA.AperFunction,SMDPad,CuDef*
G36*
G01*
X87104000Y-86024500D02*
X87104000Y-85679500D01*
G75*
G02*
X87251500Y-85532000I147500J0D01*
G01*
X87546500Y-85532000D01*
G75*
G02*
X87694000Y-85679500I0J-147500D01*
G01*
X87694000Y-86024500D01*
G75*
G02*
X87546500Y-86172000I-147500J0D01*
G01*
X87251500Y-86172000D01*
G75*
G02*
X87104000Y-86024500I0J147500D01*
G01*
G37*
G04 #@! TD.AperFunction*
G04 #@! TD*
G04 #@! TO.P,C8,2*
G04 #@! TO.N,Earth*
G04 #@! TA.AperFunction,SMDPad,CuDef*
G36*
G01*
X85788000Y-93390500D02*
X85788000Y-93045500D01*
G75*
G02*
X85935500Y-92898000I147500J0D01*
G01*
X86230500Y-92898000D01*
G75*
G02*
X86378000Y-93045500I0J-147500D01*
G01*
X86378000Y-93390500D01*
G75*
G02*
X86230500Y-93538000I-147500J0D01*
G01*
X85935500Y-93538000D01*
G75*
G02*
X85788000Y-93390500I0J147500D01*
G01*
G37*
G04 #@! TD.AperFunction*
G04 #@! TO.P,C8,1*
G04 #@! TO.N,Net-(C8-Pad1)*
G04 #@! TA.AperFunction,SMDPad,CuDef*
G36*
G01*
X84818000Y-93390500D02*
X84818000Y-93045500D01*
G75*
G02*
X84965500Y-92898000I147500J0D01*
G01*
X85260500Y-92898000D01*
G75*
G02*
X85408000Y-93045500I0J-147500D01*
G01*
X85408000Y-93390500D01*
G75*
G02*
X85260500Y-93538000I-147500J0D01*
G01*
X84965500Y-93538000D01*
G75*
G02*
X84818000Y-93390500I0J147500D01*
G01*
G37*
G04 #@! TD.AperFunction*
G04 #@! TD*
G04 #@! TO.P,C7,2*
G04 #@! TO.N,Earth*
G04 #@! TA.AperFunction,SMDPad,CuDef*
G36*
G01*
X81216000Y-96692500D02*
X81216000Y-96347500D01*
G75*
G02*
X81363500Y-96200000I147500J0D01*
G01*
X81658500Y-96200000D01*
G75*
G02*
X81806000Y-96347500I0J-147500D01*
G01*
X81806000Y-96692500D01*
G75*
G02*
X81658500Y-96840000I-147500J0D01*
G01*
X81363500Y-96840000D01*
G75*
G02*
X81216000Y-96692500I0J147500D01*
G01*
G37*
G04 #@! TD.AperFunction*
G04 #@! TO.P,C7,1*
G04 #@! TO.N,Net-(C7-Pad1)*
G04 #@! TA.AperFunction,SMDPad,CuDef*
G36*
G01*
X80246000Y-96692500D02*
X80246000Y-96347500D01*
G75*
G02*
X80393500Y-96200000I147500J0D01*
G01*
X80688500Y-96200000D01*
G75*
G02*
X80836000Y-96347500I0J-147500D01*
G01*
X80836000Y-96692500D01*
G75*
G02*
X80688500Y-96840000I-147500J0D01*
G01*
X80393500Y-96840000D01*
G75*
G02*
X80246000Y-96692500I0J147500D01*
G01*
G37*
G04 #@! TD.AperFunction*
G04 #@! TD*
G04 #@! TO.P,C6,2*
G04 #@! TO.N,Earth*
G04 #@! TA.AperFunction,SMDPad,CuDef*
G36*
G01*
X78150500Y-80582000D02*
X77805500Y-80582000D01*
G75*
G02*
X77658000Y-80434500I0J147500D01*
G01*
X77658000Y-80139500D01*
G75*
G02*
X77805500Y-79992000I147500J0D01*
G01*
X78150500Y-79992000D01*
G75*
G02*
X78298000Y-80139500I0J-147500D01*
G01*
X78298000Y-80434500D01*
G75*
G02*
X78150500Y-80582000I-147500J0D01*
G01*
G37*
G04 #@! TD.AperFunction*
G04 #@! TO.P,C6,1*
G04 #@! TO.N,Net-(C6-Pad1)*
G04 #@! TA.AperFunction,SMDPad,CuDef*
G36*
G01*
X78150500Y-81552000D02*
X77805500Y-81552000D01*
G75*
G02*
X77658000Y-81404500I0J147500D01*
G01*
X77658000Y-81109500D01*
G75*
G02*
X77805500Y-80962000I147500J0D01*
G01*
X78150500Y-80962000D01*
G75*
G02*
X78298000Y-81109500I0J-147500D01*
G01*
X78298000Y-81404500D01*
G75*
G02*
X78150500Y-81552000I-147500J0D01*
G01*
G37*
G04 #@! TD.AperFunction*
G04 #@! TD*
G04 #@! TO.P,C5,2*
G04 #@! TO.N,Earth*
G04 #@! TA.AperFunction,SMDPad,CuDef*
G36*
G01*
X83230500Y-78804000D02*
X82885500Y-78804000D01*
G75*
G02*
X82738000Y-78656500I0J147500D01*
G01*
X82738000Y-78361500D01*
G75*
G02*
X82885500Y-78214000I147500J0D01*
G01*
X83230500Y-78214000D01*
G75*
G02*
X83378000Y-78361500I0J-147500D01*
G01*
X83378000Y-78656500D01*
G75*
G02*
X83230500Y-78804000I-147500J0D01*
G01*
G37*
G04 #@! TD.AperFunction*
G04 #@! TO.P,C5,1*
G04 #@! TO.N,VCC*
G04 #@! TA.AperFunction,SMDPad,CuDef*
G36*
G01*
X83230500Y-79774000D02*
X82885500Y-79774000D01*
G75*
G02*
X82738000Y-79626500I0J147500D01*
G01*
X82738000Y-79331500D01*
G75*
G02*
X82885500Y-79184000I147500J0D01*
G01*
X83230500Y-79184000D01*
G75*
G02*
X83378000Y-79331500I0J-147500D01*
G01*
X83378000Y-79626500D01*
G75*
G02*
X83230500Y-79774000I-147500J0D01*
G01*
G37*
G04 #@! TD.AperFunction*
G04 #@! TD*
G04 #@! TO.P,C4,2*
G04 #@! TO.N,Earth*
G04 #@! TA.AperFunction,SMDPad,CuDef*
G36*
G01*
X82214500Y-78804000D02*
X81869500Y-78804000D01*
G75*
G02*
X81722000Y-78656500I0J147500D01*
G01*
X81722000Y-78361500D01*
G75*
G02*
X81869500Y-78214000I147500J0D01*
G01*
X82214500Y-78214000D01*
G75*
G02*
X82362000Y-78361500I0J-147500D01*
G01*
X82362000Y-78656500D01*
G75*
G02*
X82214500Y-78804000I-147500J0D01*
G01*
G37*
G04 #@! TD.AperFunction*
G04 #@! TO.P,C4,1*
G04 #@! TO.N,VCC*
G04 #@! TA.AperFunction,SMDPad,CuDef*
G36*
G01*
X82214500Y-79774000D02*
X81869500Y-79774000D01*
G75*
G02*
X81722000Y-79626500I0J147500D01*
G01*
X81722000Y-79331500D01*
G75*
G02*
X81869500Y-79184000I147500J0D01*
G01*
X82214500Y-79184000D01*
G75*
G02*
X82362000Y-79331500I0J-147500D01*
G01*
X82362000Y-79626500D01*
G75*
G02*
X82214500Y-79774000I-147500J0D01*
G01*
G37*
G04 #@! TD.AperFunction*
G04 #@! TD*
G04 #@! TO.P,C3,2*
G04 #@! TO.N,Earth*
G04 #@! TA.AperFunction,SMDPad,CuDef*
G36*
G01*
X81198500Y-78804000D02*
X80853500Y-78804000D01*
G75*
G02*
X80706000Y-78656500I0J147500D01*
G01*
X80706000Y-78361500D01*
G75*
G02*
X80853500Y-78214000I147500J0D01*
G01*
X81198500Y-78214000D01*
G75*
G02*
X81346000Y-78361500I0J-147500D01*
G01*
X81346000Y-78656500D01*
G75*
G02*
X81198500Y-78804000I-147500J0D01*
G01*
G37*
G04 #@! TD.AperFunction*
G04 #@! TO.P,C3,1*
G04 #@! TO.N,VCC*
G04 #@! TA.AperFunction,SMDPad,CuDef*
G36*
G01*
X81198500Y-79774000D02*
X80853500Y-79774000D01*
G75*
G02*
X80706000Y-79626500I0J147500D01*
G01*
X80706000Y-79331500D01*
G75*
G02*
X80853500Y-79184000I147500J0D01*
G01*
X81198500Y-79184000D01*
G75*
G02*
X81346000Y-79331500I0J-147500D01*
G01*
X81346000Y-79626500D01*
G75*
G02*
X81198500Y-79774000I-147500J0D01*
G01*
G37*
G04 #@! TD.AperFunction*
G04 #@! TD*
G04 #@! TO.P,C2,2*
G04 #@! TO.N,Earth*
G04 #@! TA.AperFunction,SMDPad,CuDef*
G36*
G01*
X80182500Y-78804000D02*
X79837500Y-78804000D01*
G75*
G02*
X79690000Y-78656500I0J147500D01*
G01*
X79690000Y-78361500D01*
G75*
G02*
X79837500Y-78214000I147500J0D01*
G01*
X80182500Y-78214000D01*
G75*
G02*
X80330000Y-78361500I0J-147500D01*
G01*
X80330000Y-78656500D01*
G75*
G02*
X80182500Y-78804000I-147500J0D01*
G01*
G37*
G04 #@! TD.AperFunction*
G04 #@! TO.P,C2,1*
G04 #@! TO.N,VCC*
G04 #@! TA.AperFunction,SMDPad,CuDef*
G36*
G01*
X80182500Y-79774000D02*
X79837500Y-79774000D01*
G75*
G02*
X79690000Y-79626500I0J147500D01*
G01*
X79690000Y-79331500D01*
G75*
G02*
X79837500Y-79184000I147500J0D01*
G01*
X80182500Y-79184000D01*
G75*
G02*
X80330000Y-79331500I0J-147500D01*
G01*
X80330000Y-79626500D01*
G75*
G02*
X80182500Y-79774000I-147500J0D01*
G01*
G37*
G04 #@! TD.AperFunction*
G04 #@! TD*
G04 #@! TO.P,C1,2*
G04 #@! TO.N,Earth*
G04 #@! TA.AperFunction,SMDPad,CuDef*
G36*
G01*
X79166500Y-78804000D02*
X78821500Y-78804000D01*
G75*
G02*
X78674000Y-78656500I0J147500D01*
G01*
X78674000Y-78361500D01*
G75*
G02*
X78821500Y-78214000I147500J0D01*
G01*
X79166500Y-78214000D01*
G75*
G02*
X79314000Y-78361500I0J-147500D01*
G01*
X79314000Y-78656500D01*
G75*
G02*
X79166500Y-78804000I-147500J0D01*
G01*
G37*
G04 #@! TD.AperFunction*
G04 #@! TO.P,C1,1*
G04 #@! TO.N,VCC*
G04 #@! TA.AperFunction,SMDPad,CuDef*
G36*
G01*
X79166500Y-79774000D02*
X78821500Y-79774000D01*
G75*
G02*
X78674000Y-79626500I0J147500D01*
G01*
X78674000Y-79331500D01*
G75*
G02*
X78821500Y-79184000I147500J0D01*
G01*
X79166500Y-79184000D01*
G75*
G02*
X79314000Y-79331500I0J-147500D01*
G01*
X79314000Y-79626500D01*
G75*
G02*
X79166500Y-79774000I-147500J0D01*
G01*
G37*
G04 #@! TD.AperFunction*
G04 #@! TD*
D26*
G04 #@! TO.N,Earth*
X66802000Y-98806000D03*
X71120000Y-88646000D03*
X77089000Y-93599000D03*
X78994000Y-81280000D03*
X79060000Y-93030000D03*
X89408000Y-85852000D03*
X88900000Y-88392000D03*
X91948000Y-92710000D03*
X89408000Y-82804000D03*
X80518000Y-102616000D03*
X85344000Y-95250000D03*
G04 #@! TO.N,VCC*
X78232000Y-91694000D03*
X70104000Y-92456000D03*
X72390000Y-88392000D03*
X72390000Y-83566000D03*
X84106000Y-88614000D03*
X85090000Y-82804000D03*
G04 #@! TO.N,MISO*
X73660000Y-90424000D03*
X67310000Y-90678000D03*
X71374000Y-98298000D03*
X76962000Y-98044000D03*
G04 #@! TO.N,SCLK*
X69088000Y-90678000D03*
X68072000Y-96266000D03*
X74930000Y-98806000D03*
X72644000Y-98806000D03*
G04 #@! TO.N,MOSI*
X72136000Y-92456000D03*
X78232000Y-94742000D03*
X88138000Y-97282000D03*
X88138000Y-99568000D03*
G04 #@! TO.N,PB0_PD0*
X73914000Y-88138000D03*
X80772000Y-91186000D03*
X84836000Y-89662000D03*
X93726000Y-87376000D03*
X93726000Y-84074000D03*
G04 #@! TD*
D27*
G04 #@! TO.N,Earth*
X71427000Y-86898000D02*
X71651000Y-87122000D01*
X69731000Y-86898000D02*
X71427000Y-86898000D01*
X77502000Y-84614000D02*
X79502000Y-86614000D01*
X77502000Y-83254000D02*
X77502000Y-84614000D01*
X81502000Y-84614000D02*
X79502000Y-86614000D01*
X81502000Y-83254000D02*
X81502000Y-84614000D01*
X79002000Y-86114000D02*
X79502000Y-86614000D01*
X76142000Y-86114000D02*
X79002000Y-86114000D01*
X78502000Y-87614000D02*
X79502000Y-86614000D01*
X78502000Y-89974000D02*
X78502000Y-87614000D01*
X82002000Y-89114000D02*
X79502000Y-86614000D01*
X82862000Y-89114000D02*
X82002000Y-89114000D01*
X77978000Y-80287000D02*
X80287000Y-80287000D01*
X81502000Y-81502000D02*
X81502000Y-83254000D01*
X80287000Y-80287000D02*
X81502000Y-81502000D01*
X71651000Y-87122000D02*
X71651000Y-88115000D01*
X71651000Y-88115000D02*
X71120000Y-88646000D01*
X73289008Y-92651499D02*
X76141499Y-92651499D01*
X72644000Y-93296507D02*
X73289008Y-92651499D01*
X72644000Y-93853000D02*
X72644000Y-93296507D01*
X76141499Y-92651499D02*
X77089000Y-93599000D01*
X77089000Y-93599000D02*
X77216000Y-93726000D01*
X80588000Y-93030000D02*
X79060000Y-93030000D01*
X79060000Y-93030000D02*
X79060000Y-93030000D01*
X88369000Y-85852000D02*
X89408000Y-85852000D01*
X89408000Y-85852000D02*
X89408000Y-85852000D01*
X91417000Y-87950000D02*
X90721000Y-88646000D01*
X91417000Y-87630000D02*
X91417000Y-87950000D01*
X90721000Y-88646000D02*
X89154000Y-88646000D01*
X89154000Y-88646000D02*
X88900000Y-88392000D01*
X88900000Y-88392000D02*
X88900000Y-88392000D01*
X85575000Y-84074000D02*
X86360000Y-84074000D01*
X86360000Y-84074000D02*
X87630000Y-82804000D01*
X87630000Y-82804000D02*
X89408000Y-82804000D01*
X89408000Y-82804000D02*
X89408000Y-82804000D01*
X82988000Y-94930000D02*
X82988000Y-96336000D01*
X82804000Y-96520000D02*
X81511000Y-96520000D01*
X82988000Y-96336000D02*
X82804000Y-96520000D01*
X71120000Y-89089002D02*
X71120000Y-88646000D01*
X70293002Y-89916000D02*
X71120000Y-89089002D01*
X66684999Y-98688999D02*
X66802000Y-98806000D01*
X66684999Y-90377999D02*
X66684999Y-98688999D01*
X67146998Y-89916000D02*
X66684999Y-90377999D01*
X70293002Y-89916000D02*
X67146998Y-89916000D01*
G04 #@! TO.N,VCC*
X73064010Y-84298000D02*
X73380010Y-84614000D01*
X78763000Y-79479000D02*
X83058000Y-79479000D01*
X78740000Y-79502000D02*
X78763000Y-79479000D01*
X74454000Y-80232000D02*
X75184000Y-79502000D01*
X74454000Y-84614000D02*
X74454000Y-80232000D01*
X82042000Y-83214000D02*
X82002000Y-83254000D01*
X82042000Y-79479000D02*
X82042000Y-83214000D01*
X77002000Y-79542000D02*
X76962000Y-79502000D01*
X77002000Y-83254000D02*
X77002000Y-79542000D01*
X76962000Y-79502000D02*
X78740000Y-79502000D01*
X75184000Y-79502000D02*
X76962000Y-79502000D01*
X78002000Y-89974000D02*
X78002000Y-91464000D01*
X78002000Y-91464000D02*
X78232000Y-91694000D01*
X78232000Y-91694000D02*
X78232000Y-91694000D01*
X70104000Y-92456000D02*
X70104000Y-93853000D01*
X73380010Y-84614000D02*
X76142000Y-84614000D01*
X72390000Y-88341232D02*
X72390000Y-88392000D01*
X73617232Y-87114000D02*
X72390000Y-88341232D01*
X76142000Y-87114000D02*
X73617232Y-87114000D01*
X83058000Y-79479000D02*
X83378000Y-79479000D01*
X86911000Y-77173000D02*
X96370000Y-77173000D01*
X84605000Y-79479000D02*
X86911000Y-77173000D01*
X72390000Y-83566000D02*
X72390000Y-84268000D01*
X72390000Y-84268000D02*
X72360000Y-84298000D01*
X72360000Y-84298000D02*
X73064010Y-84298000D01*
X69731000Y-84298000D02*
X72360000Y-84298000D01*
X82862000Y-88614000D02*
X84106000Y-88614000D01*
X85090000Y-82804000D02*
X85090000Y-82042000D01*
X84097000Y-81049000D02*
X84097000Y-79479000D01*
X85090000Y-82042000D02*
X84097000Y-81049000D01*
X84097000Y-79479000D02*
X84605000Y-79479000D01*
X83058000Y-79479000D02*
X84097000Y-79479000D01*
G04 #@! TO.N,Net-(C6-Pad1)*
X77978000Y-83230000D02*
X78002000Y-83254000D01*
X77978000Y-81257000D02*
X77978000Y-83230000D01*
G04 #@! TO.N,Net-(C7-Pad1)*
X80558999Y-94959001D02*
X80588000Y-94930000D01*
X80588000Y-96473000D02*
X80541000Y-96520000D01*
X80588000Y-94930000D02*
X80588000Y-96473000D01*
X78334999Y-93378001D02*
X79886998Y-94930000D01*
X78334999Y-92681999D02*
X78334999Y-93378001D01*
X79886998Y-94930000D02*
X80588000Y-94930000D01*
X79002000Y-92014998D02*
X78334999Y-92681999D01*
X79002000Y-89974000D02*
X79002000Y-92014998D01*
G04 #@! TO.N,Net-(C8-Pad1)*
X79502000Y-89974000D02*
X79502000Y-91186000D01*
X79502000Y-91186000D02*
X80264000Y-91948000D01*
X81906000Y-91948000D02*
X82988000Y-93030000D01*
X80264000Y-91948000D02*
X81906000Y-91948000D01*
X84925000Y-93030000D02*
X85113000Y-93218000D01*
X82988000Y-93030000D02*
X84925000Y-93030000D01*
G04 #@! TO.N,Net-(C9-Pad1)*
X83879000Y-85852000D02*
X87399000Y-85852000D01*
X83617000Y-86114000D02*
X83879000Y-85852000D01*
X82862000Y-86114000D02*
X83617000Y-86114000D01*
X87399000Y-85852000D02*
X87399000Y-84836000D01*
G04 #@! TO.N,Net-(C10-Pad1)*
X82862000Y-86614000D02*
X90447000Y-86614000D01*
X90447000Y-86614000D02*
X90447000Y-85598000D01*
G04 #@! TO.N,Net-(D1-Pad2)*
X83633000Y-87630000D02*
X85572500Y-87630000D01*
X83617000Y-87614000D02*
X83633000Y-87630000D01*
X82862000Y-87614000D02*
X83617000Y-87614000D01*
G04 #@! TO.N,Net-(D1-Pad1)*
X87147500Y-87630000D02*
X90447000Y-87630000D01*
G04 #@! TO.N,Net-(J1-Pad2)*
X71509000Y-84948000D02*
X71651000Y-85090000D01*
D28*
X69731000Y-84948000D02*
X71509000Y-84948000D01*
G04 #@! TO.N,Net-(J1-Pad3)*
X71143000Y-85598000D02*
X71651000Y-86106000D01*
X69731000Y-85598000D02*
X71143000Y-85598000D01*
D27*
G04 #@! TO.N,MISO*
X69918499Y-95308501D02*
X70104000Y-95123000D01*
X74457000Y-90424000D02*
X73660000Y-90424000D01*
X75767000Y-89114000D02*
X74457000Y-90424000D01*
X76142000Y-89114000D02*
X75767000Y-89114000D01*
X71374000Y-98298000D02*
X71374000Y-98298000D01*
X76962000Y-98044000D02*
X89408000Y-98044000D01*
X95044000Y-92408000D02*
X99210000Y-92408000D01*
X89408000Y-98044000D02*
X95044000Y-92408000D01*
X69178998Y-98298000D02*
X71374000Y-98298000D01*
X67310000Y-96429002D02*
X69178998Y-98298000D01*
X69710501Y-95516499D02*
X67322499Y-95516499D01*
X70104000Y-95123000D02*
X69710501Y-95516499D01*
X67322499Y-95516499D02*
X67310000Y-95504000D01*
X67310000Y-95504000D02*
X67310000Y-96429002D01*
X67310000Y-90678000D02*
X67310000Y-95504000D01*
G04 #@! TO.N,SCLK*
X69088000Y-90678000D02*
X69088000Y-90678000D01*
X74166590Y-89152590D02*
X71883410Y-89152590D01*
X70358000Y-90678000D02*
X69088000Y-90678000D01*
X71883410Y-89152590D02*
X70358000Y-90678000D01*
X75205180Y-88114000D02*
X74166590Y-89152590D01*
X76142000Y-88114000D02*
X75205180Y-88114000D01*
X96370000Y-93793000D02*
X91357000Y-98806000D01*
X91357000Y-98806000D02*
X74930000Y-98806000D01*
X74930000Y-98806000D02*
X74930000Y-98806000D01*
X72644000Y-98806000D02*
X72644000Y-98044000D01*
X72644000Y-98044000D02*
X72136000Y-97536000D01*
X72136000Y-97536000D02*
X70104000Y-97536000D01*
X70104000Y-97536000D02*
X69487999Y-96919999D01*
X70231000Y-96266000D02*
X71374000Y-95123000D01*
X69487999Y-96374001D02*
X69596000Y-96266000D01*
X69487999Y-96919999D02*
X69487999Y-96374001D01*
X69596000Y-96266000D02*
X70231000Y-96266000D01*
X68072000Y-96266000D02*
X69596000Y-96266000D01*
G04 #@! TO.N,MOSI*
X72449400Y-89602600D02*
X71374000Y-90678000D01*
X74352990Y-89602600D02*
X72449400Y-89602600D01*
X75341590Y-88614000D02*
X74352990Y-89602600D01*
X76142000Y-88614000D02*
X75341590Y-88614000D01*
X71374000Y-92456000D02*
X72136000Y-92456000D01*
X71374000Y-90678000D02*
X71374000Y-92456000D01*
X71374000Y-92456000D02*
X71374000Y-93853000D01*
X72136000Y-92456000D02*
X72136000Y-92456000D01*
X78232000Y-95307685D02*
X80206315Y-97282000D01*
X78232000Y-94742000D02*
X78232000Y-95307685D01*
X80206315Y-97282000D02*
X88138000Y-97282000D01*
X88138000Y-97282000D02*
X88138000Y-97282000D01*
X101854000Y-83972000D02*
X99210000Y-81328000D01*
X101854000Y-96266000D02*
X101854000Y-83972000D01*
X98552000Y-99568000D02*
X101854000Y-96266000D01*
X88138000Y-99568000D02*
X98552000Y-99568000D01*
G04 #@! TO.N,RST*
X72644000Y-95679493D02*
X73289008Y-96324501D01*
X72644000Y-95123000D02*
X72644000Y-95679493D01*
X73289008Y-96324501D02*
X73718501Y-96324501D01*
X76518000Y-105120000D02*
X76518000Y-104204000D01*
X73718501Y-101404501D02*
X73718501Y-96324501D01*
X76518000Y-104204000D02*
X73718501Y-101404501D01*
X77814001Y-93947001D02*
X75436501Y-96324501D01*
X77814001Y-93250999D02*
X77814001Y-93947001D01*
X75436501Y-96324501D02*
X73718501Y-96324501D01*
X77502000Y-92938998D02*
X77814001Y-93250999D01*
X77502000Y-89974000D02*
X77502000Y-92938998D01*
G04 #@! TO.N,Net-(J3-Pad3)*
X96370000Y-82713000D02*
X94247000Y-84836000D01*
X94247000Y-84836000D02*
X88369000Y-84836000D01*
G04 #@! TO.N,Net-(J3-Pad11)*
X99210000Y-84098000D02*
X100354000Y-84098000D01*
X100354000Y-84098000D02*
X101092000Y-84836000D01*
X101092000Y-84836000D02*
X101092000Y-88900000D01*
X100354000Y-89638000D02*
X99210000Y-89638000D01*
X101092000Y-88900000D02*
X100354000Y-89638000D01*
X91417000Y-85598000D02*
X93980000Y-85598000D01*
X93980000Y-85598000D02*
X95250000Y-86868000D01*
X95250000Y-86868000D02*
X97028000Y-86868000D01*
X99210000Y-84686000D02*
X99210000Y-84098000D01*
X97028000Y-86868000D02*
X99210000Y-84686000D01*
G04 #@! TO.N,Net-(J3-Pad12)*
X99210000Y-87009922D02*
X99210000Y-86868000D01*
X88900000Y-91440000D02*
X90678000Y-89662000D01*
X88268000Y-91440000D02*
X88900000Y-91440000D01*
X90678000Y-89662000D02*
X97282000Y-89662000D01*
X99210000Y-87734000D02*
X99210000Y-86868000D01*
X97282000Y-89662000D02*
X99210000Y-87734000D01*
D28*
G04 #@! TO.N,Net-(R1-Pad1)*
X73113000Y-85614000D02*
X76142000Y-85614000D01*
X72621000Y-86106000D02*
X73113000Y-85614000D01*
D27*
G04 #@! TO.N,Net-(R2-Pad1)*
X76118000Y-85090000D02*
X76142000Y-85114000D01*
D28*
X72621000Y-85090000D02*
X76118000Y-85090000D01*
D27*
G04 #@! TO.N,Net-(R3-Pad1)*
X84565000Y-84114000D02*
X84605000Y-84074000D01*
X82862000Y-84114000D02*
X84565000Y-84114000D01*
G04 #@! TO.N,PD3*
X82213000Y-91440000D02*
X85468000Y-91440000D01*
X81502000Y-90729000D02*
X82213000Y-91440000D01*
X81502000Y-89974000D02*
X81502000Y-90729000D01*
G04 #@! TO.N,PB0_PD0*
X74438000Y-87614000D02*
X73914000Y-88138000D01*
X76142000Y-87614000D02*
X74438000Y-87614000D01*
X80002000Y-90729000D02*
X80459000Y-91186000D01*
X80002000Y-89974000D02*
X80002000Y-90729000D01*
X80459000Y-91186000D02*
X80772000Y-91186000D01*
X80772000Y-91186000D02*
X80772000Y-91186000D01*
X85286010Y-89211990D02*
X91382010Y-89211990D01*
X84836000Y-89662000D02*
X85286010Y-89211990D01*
X91382010Y-89211990D02*
X93218000Y-87376000D01*
X93218000Y-87376000D02*
X93726000Y-87376000D01*
X93726000Y-87376000D02*
X93726000Y-87376000D01*
X93726000Y-82587000D02*
X96370000Y-79943000D01*
X93726000Y-84074000D02*
X93726000Y-82587000D01*
G04 #@! TO.N,Net-(C11-Pad1)*
X72621000Y-87122000D02*
X72898000Y-87122000D01*
X73406000Y-86614000D02*
X76142000Y-86614000D01*
X72898000Y-87122000D02*
X73406000Y-86614000D01*
G04 #@! TD*
D29*
G04 #@! TO.N,Earth*
X68448820Y-98642624D02*
X68287446Y-98709467D01*
X67659330Y-99129161D01*
X67125161Y-99663330D01*
X66705467Y-100291446D01*
X66416377Y-100989372D01*
X66269000Y-101730285D01*
X66269000Y-102485715D01*
X66416377Y-103226628D01*
X66705467Y-103924554D01*
X67125161Y-104552670D01*
X67659330Y-105086839D01*
X68287446Y-105506533D01*
X68985372Y-105795623D01*
X69726285Y-105943000D01*
X70481715Y-105943000D01*
X71222628Y-105795623D01*
X71920554Y-105506533D01*
X72548670Y-105086839D01*
X73082839Y-104552670D01*
X73502533Y-103924554D01*
X73791623Y-103226628D01*
X73903481Y-102664282D01*
X75240310Y-104001112D01*
X75187463Y-104065506D01*
X75128498Y-104175820D01*
X75092188Y-104295518D01*
X75079928Y-104420000D01*
X75079928Y-105820000D01*
X75092188Y-105944482D01*
X75115096Y-106020000D01*
X67342279Y-106020000D01*
X67093460Y-105995603D01*
X66885170Y-105932717D01*
X66693062Y-105830572D01*
X66524446Y-105693052D01*
X66385760Y-105525409D01*
X66282275Y-105334017D01*
X66217934Y-105126166D01*
X66192000Y-104879419D01*
X66192000Y-98171000D01*
X67977196Y-98171000D01*
X68448820Y-98642624D01*
G04 #@! TA.AperFunction,Conductor*
D30*
G36*
X68448820Y-98642624D02*
G01*
X68287446Y-98709467D01*
X67659330Y-99129161D01*
X67125161Y-99663330D01*
X66705467Y-100291446D01*
X66416377Y-100989372D01*
X66269000Y-101730285D01*
X66269000Y-102485715D01*
X66416377Y-103226628D01*
X66705467Y-103924554D01*
X67125161Y-104552670D01*
X67659330Y-105086839D01*
X68287446Y-105506533D01*
X68985372Y-105795623D01*
X69726285Y-105943000D01*
X70481715Y-105943000D01*
X71222628Y-105795623D01*
X71920554Y-105506533D01*
X72548670Y-105086839D01*
X73082839Y-104552670D01*
X73502533Y-103924554D01*
X73791623Y-103226628D01*
X73903481Y-102664282D01*
X75240310Y-104001112D01*
X75187463Y-104065506D01*
X75128498Y-104175820D01*
X75092188Y-104295518D01*
X75079928Y-104420000D01*
X75079928Y-105820000D01*
X75092188Y-105944482D01*
X75115096Y-106020000D01*
X67342279Y-106020000D01*
X67093460Y-105995603D01*
X66885170Y-105932717D01*
X66693062Y-105830572D01*
X66524446Y-105693052D01*
X66385760Y-105525409D01*
X66282275Y-105334017D01*
X66217934Y-105126166D01*
X66192000Y-104879419D01*
X66192000Y-98171000D01*
X67977196Y-98171000D01*
X68448820Y-98642624D01*
G37*
G04 #@! TD.AperFunction*
D29*
X96546228Y-67853649D02*
X96109249Y-68145629D01*
X95737629Y-68517249D01*
X95445649Y-68954228D01*
X95244530Y-69439773D01*
X95142000Y-69955225D01*
X95142000Y-70480775D01*
X95244530Y-70996227D01*
X95445649Y-71481772D01*
X95737629Y-71918751D01*
X96109249Y-72290371D01*
X96546228Y-72582351D01*
X97031773Y-72783470D01*
X97547225Y-72886000D01*
X98072775Y-72886000D01*
X98588227Y-72783470D01*
X99073772Y-72582351D01*
X99510751Y-72290371D01*
X99882371Y-71918751D01*
X100174351Y-71481772D01*
X100375470Y-70996227D01*
X100478000Y-70480775D01*
X100478000Y-69955225D01*
X100425195Y-69689755D01*
X103021000Y-69689755D01*
X103021000Y-70010245D01*
X103083525Y-70324578D01*
X103206172Y-70620673D01*
X103384227Y-70887152D01*
X103610848Y-71113773D01*
X103877327Y-71291828D01*
X104173422Y-71414475D01*
X104487755Y-71477000D01*
X104808245Y-71477000D01*
X105122578Y-71414475D01*
X105418673Y-71291828D01*
X105685152Y-71113773D01*
X105911773Y-70887152D01*
X106089828Y-70620673D01*
X106212475Y-70324578D01*
X106275000Y-70010245D01*
X106275000Y-69689755D01*
X106212475Y-69375422D01*
X106089828Y-69079327D01*
X105911773Y-68812848D01*
X105685152Y-68586227D01*
X105418673Y-68408172D01*
X105122578Y-68285525D01*
X104808245Y-68223000D01*
X104487755Y-68223000D01*
X104173422Y-68285525D01*
X103877327Y-68408172D01*
X103610848Y-68586227D01*
X103384227Y-68812848D01*
X103206172Y-69079327D01*
X103083525Y-69375422D01*
X103021000Y-69689755D01*
X100425195Y-69689755D01*
X100375470Y-69439773D01*
X100174351Y-68954228D01*
X99882371Y-68517249D01*
X99510751Y-68145629D01*
X99073772Y-67853649D01*
X98741457Y-67716000D01*
X105631721Y-67716000D01*
X105880540Y-67740397D01*
X106088833Y-67803285D01*
X106280937Y-67905428D01*
X106449553Y-68042947D01*
X106588241Y-68210593D01*
X106691726Y-68401985D01*
X106756066Y-68609835D01*
X106782000Y-68856581D01*
X106782001Y-104869711D01*
X106757603Y-105118540D01*
X106694717Y-105326830D01*
X106592572Y-105518938D01*
X106455052Y-105687554D01*
X106287409Y-105826240D01*
X106096017Y-105929725D01*
X105888166Y-105994066D01*
X105641419Y-106020000D01*
X98741457Y-106020000D01*
X99073772Y-105882351D01*
X99510751Y-105590371D01*
X99882371Y-105218751D01*
X100174351Y-104781772D01*
X100375470Y-104296227D01*
X100478000Y-103780775D01*
X100478000Y-103725755D01*
X103275000Y-103725755D01*
X103275000Y-104046245D01*
X103337525Y-104360578D01*
X103460172Y-104656673D01*
X103638227Y-104923152D01*
X103864848Y-105149773D01*
X104131327Y-105327828D01*
X104427422Y-105450475D01*
X104741755Y-105513000D01*
X105062245Y-105513000D01*
X105376578Y-105450475D01*
X105672673Y-105327828D01*
X105939152Y-105149773D01*
X106165773Y-104923152D01*
X106343828Y-104656673D01*
X106466475Y-104360578D01*
X106529000Y-104046245D01*
X106529000Y-103725755D01*
X106466475Y-103411422D01*
X106343828Y-103115327D01*
X106165773Y-102848848D01*
X105939152Y-102622227D01*
X105672673Y-102444172D01*
X105376578Y-102321525D01*
X105062245Y-102259000D01*
X104741755Y-102259000D01*
X104427422Y-102321525D01*
X104131327Y-102444172D01*
X103864848Y-102622227D01*
X103638227Y-102848848D01*
X103460172Y-103115327D01*
X103337525Y-103411422D01*
X103275000Y-103725755D01*
X100478000Y-103725755D01*
X100478000Y-103255225D01*
X100375470Y-102739773D01*
X100174351Y-102254228D01*
X99882371Y-101817249D01*
X99510751Y-101445629D01*
X99073772Y-101153649D01*
X98588227Y-100952530D01*
X98072775Y-100850000D01*
X97547225Y-100850000D01*
X97031773Y-100952530D01*
X96546228Y-101153649D01*
X96109249Y-101445629D01*
X95737629Y-101817249D01*
X95445649Y-102254228D01*
X95244530Y-102739773D01*
X95142000Y-103255225D01*
X95142000Y-103780775D01*
X95244530Y-104296227D01*
X95445649Y-104781772D01*
X95737629Y-105218751D01*
X96109249Y-105590371D01*
X96546228Y-105882351D01*
X96878543Y-106020000D01*
X85920904Y-106020000D01*
X85943812Y-105944482D01*
X85956072Y-105820000D01*
X85956072Y-104420000D01*
X85943812Y-104295518D01*
X85907502Y-104175820D01*
X85848537Y-104065506D01*
X85769185Y-103968815D01*
X85672494Y-103889463D01*
X85562180Y-103830498D01*
X85442482Y-103794188D01*
X85318000Y-103781928D01*
X83718000Y-103781928D01*
X83593518Y-103794188D01*
X83473820Y-103830498D01*
X83363506Y-103889463D01*
X83266815Y-103968815D01*
X83187463Y-104065506D01*
X83128498Y-104175820D01*
X83092188Y-104295518D01*
X83079928Y-104420000D01*
X83079928Y-105820000D01*
X83092188Y-105944482D01*
X83115096Y-106020000D01*
X77920904Y-106020000D01*
X77943812Y-105944482D01*
X77956072Y-105820000D01*
X77956072Y-104420000D01*
X77943812Y-104295518D01*
X77907502Y-104175820D01*
X77848537Y-104065506D01*
X77769185Y-103968815D01*
X77672494Y-103889463D01*
X77562180Y-103830498D01*
X77442482Y-103794188D01*
X77318000Y-103781928D01*
X77154152Y-103781928D01*
X77152974Y-103779724D01*
X77108683Y-103725755D01*
X77081799Y-103692996D01*
X77081795Y-103692992D01*
X77058001Y-103663999D01*
X77029008Y-103640205D01*
X74478501Y-101089700D01*
X74478501Y-99739259D01*
X74628102Y-99801226D01*
X74828061Y-99841000D01*
X75031939Y-99841000D01*
X75088823Y-99829685D01*
X75079928Y-99920000D01*
X75079928Y-101320000D01*
X75092188Y-101444482D01*
X75128498Y-101564180D01*
X75187463Y-101674494D01*
X75266815Y-101771185D01*
X75363506Y-101850537D01*
X75473820Y-101909502D01*
X75593518Y-101945812D01*
X75718000Y-101958072D01*
X77318000Y-101958072D01*
X77442482Y-101945812D01*
X77562180Y-101909502D01*
X77672494Y-101850537D01*
X77769185Y-101771185D01*
X77848537Y-101674494D01*
X77907502Y-101564180D01*
X77943812Y-101444482D01*
X77956072Y-101320000D01*
X83079928Y-101320000D01*
X83092188Y-101444482D01*
X83128498Y-101564180D01*
X83187463Y-101674494D01*
X83266815Y-101771185D01*
X83363506Y-101850537D01*
X83473820Y-101909502D01*
X83593518Y-101945812D01*
X83718000Y-101958072D01*
X84232250Y-101955000D01*
X84391000Y-101796250D01*
X84391000Y-100747000D01*
X84645000Y-100747000D01*
X84645000Y-101796250D01*
X84803750Y-101955000D01*
X85318000Y-101958072D01*
X85442482Y-101945812D01*
X85562180Y-101909502D01*
X85672494Y-101850537D01*
X85769185Y-101771185D01*
X85848537Y-101674494D01*
X85907502Y-101564180D01*
X85943812Y-101444482D01*
X85956072Y-101320000D01*
X85953000Y-100905750D01*
X85794250Y-100747000D01*
X84645000Y-100747000D01*
X84391000Y-100747000D01*
X83241750Y-100747000D01*
X83083000Y-100905750D01*
X83079928Y-101320000D01*
X77956072Y-101320000D01*
X77956072Y-99920000D01*
X77943812Y-99795518D01*
X77907502Y-99675820D01*
X77848801Y-99566000D01*
X83187199Y-99566000D01*
X83128498Y-99675820D01*
X83092188Y-99795518D01*
X83079928Y-99920000D01*
X83083000Y-100334250D01*
X83241750Y-100493000D01*
X84391000Y-100493000D01*
X84391000Y-100473000D01*
X84645000Y-100473000D01*
X84645000Y-100493000D01*
X85794250Y-100493000D01*
X85953000Y-100334250D01*
X85956072Y-99920000D01*
X85943812Y-99795518D01*
X85907502Y-99675820D01*
X85848801Y-99566000D01*
X87103000Y-99566000D01*
X87103000Y-99669939D01*
X87142774Y-99869898D01*
X87220795Y-100058256D01*
X87334063Y-100227774D01*
X87478226Y-100371937D01*
X87647744Y-100485205D01*
X87836102Y-100563226D01*
X88036061Y-100603000D01*
X88239939Y-100603000D01*
X88439898Y-100563226D01*
X88628256Y-100485205D01*
X88797774Y-100371937D01*
X88841711Y-100328000D01*
X98514678Y-100328000D01*
X98552000Y-100331676D01*
X98589322Y-100328000D01*
X98589333Y-100328000D01*
X98700986Y-100317003D01*
X98844247Y-100273546D01*
X98976276Y-100202974D01*
X99092001Y-100108001D01*
X99115804Y-100078997D01*
X102365004Y-96829798D01*
X102394001Y-96806001D01*
X102488974Y-96690276D01*
X102559546Y-96558247D01*
X102603003Y-96414986D01*
X102614000Y-96303333D01*
X102614000Y-96303324D01*
X102617676Y-96266001D01*
X102614000Y-96228678D01*
X102614000Y-84009325D01*
X102617676Y-83972000D01*
X102614000Y-83934675D01*
X102614000Y-83934667D01*
X102603003Y-83823014D01*
X102559546Y-83679753D01*
X102488974Y-83547724D01*
X102394001Y-83431999D01*
X102365003Y-83408201D01*
X100569569Y-81612767D01*
X100599000Y-81464805D01*
X100599000Y-81191195D01*
X100545622Y-80922844D01*
X100440916Y-80670062D01*
X100288907Y-80442564D01*
X100095436Y-80249093D01*
X99867938Y-80097084D01*
X99615156Y-79992378D01*
X99366914Y-79943000D01*
X99615156Y-79893622D01*
X99867938Y-79788916D01*
X100095436Y-79636907D01*
X100288907Y-79443436D01*
X100440916Y-79215938D01*
X100545622Y-78963156D01*
X100599000Y-78694805D01*
X100599000Y-78421195D01*
X100545622Y-78152844D01*
X100440916Y-77900062D01*
X100288907Y-77672564D01*
X100095436Y-77479093D01*
X99867938Y-77327084D01*
X99615156Y-77222378D01*
X99346805Y-77169000D01*
X99073195Y-77169000D01*
X98804844Y-77222378D01*
X98552062Y-77327084D01*
X98324564Y-77479093D01*
X98131093Y-77672564D01*
X97979084Y-77900062D01*
X97874378Y-78152844D01*
X97821000Y-78421195D01*
X97821000Y-78694805D01*
X97874378Y-78963156D01*
X97979084Y-79215938D01*
X98131093Y-79443436D01*
X98324564Y-79636907D01*
X98552062Y-79788916D01*
X98804844Y-79893622D01*
X99053086Y-79943000D01*
X98804844Y-79992378D01*
X98552062Y-80097084D01*
X98324564Y-80249093D01*
X98131093Y-80442564D01*
X97979084Y-80670062D01*
X97874378Y-80922844D01*
X97821000Y-81191195D01*
X97821000Y-81464805D01*
X97874378Y-81733156D01*
X97979084Y-81985938D01*
X98131093Y-82213436D01*
X98324564Y-82406907D01*
X98552062Y-82558916D01*
X98804844Y-82663622D01*
X99053086Y-82713000D01*
X98804844Y-82762378D01*
X98552062Y-82867084D01*
X98324564Y-83019093D01*
X98131093Y-83212564D01*
X97979084Y-83440062D01*
X97874378Y-83692844D01*
X97821000Y-83961195D01*
X97821000Y-84234805D01*
X97874378Y-84503156D01*
X97979084Y-84755938D01*
X98013601Y-84807597D01*
X97711843Y-85109355D01*
X97630063Y-84882771D01*
X97569127Y-84768765D01*
X97329851Y-84702754D01*
X96549605Y-85483000D01*
X96563748Y-85497143D01*
X96384143Y-85676748D01*
X96370000Y-85662605D01*
X96355858Y-85676748D01*
X96176253Y-85497143D01*
X96190395Y-85483000D01*
X96176253Y-85468858D01*
X96355858Y-85289253D01*
X96370000Y-85303395D01*
X97150246Y-84523149D01*
X97084235Y-84283873D01*
X96836574Y-84167574D01*
X96570982Y-84101826D01*
X96519645Y-84099446D01*
X96775156Y-84048622D01*
X97027938Y-83943916D01*
X97255436Y-83791907D01*
X97448907Y-83598436D01*
X97600916Y-83370938D01*
X97705622Y-83118156D01*
X97759000Y-82849805D01*
X97759000Y-82576195D01*
X97705622Y-82307844D01*
X97600916Y-82055062D01*
X97448907Y-81827564D01*
X97255436Y-81634093D01*
X97027938Y-81482084D01*
X96775156Y-81377378D01*
X96526914Y-81328000D01*
X96775156Y-81278622D01*
X97027938Y-81173916D01*
X97255436Y-81021907D01*
X97448907Y-80828436D01*
X97600916Y-80600938D01*
X97705622Y-80348156D01*
X97759000Y-80079805D01*
X97759000Y-79806195D01*
X97705622Y-79537844D01*
X97600916Y-79285062D01*
X97448907Y-79057564D01*
X97255436Y-78864093D01*
X97027938Y-78712084D01*
X96775156Y-78607378D01*
X96562468Y-78565072D01*
X97124000Y-78565072D01*
X97248482Y-78552812D01*
X97368180Y-78516502D01*
X97478494Y-78457537D01*
X97575185Y-78378185D01*
X97654537Y-78281494D01*
X97713502Y-78171180D01*
X97749812Y-78051482D01*
X97762072Y-77927000D01*
X97762072Y-76419000D01*
X97749812Y-76294518D01*
X97713502Y-76174820D01*
X97654537Y-76064506D01*
X97575185Y-75967815D01*
X97478494Y-75888463D01*
X97368180Y-75829498D01*
X97248482Y-75793188D01*
X97124000Y-75780928D01*
X95616000Y-75780928D01*
X95491518Y-75793188D01*
X95371820Y-75829498D01*
X95261506Y-75888463D01*
X95164815Y-75967815D01*
X95085463Y-76064506D01*
X95026498Y-76174820D01*
X94990188Y-76294518D01*
X94978519Y-76413000D01*
X86948322Y-76413000D01*
X86910999Y-76409324D01*
X86873676Y-76413000D01*
X86873667Y-76413000D01*
X86762014Y-76423997D01*
X86618753Y-76467454D01*
X86486724Y-76538026D01*
X86486722Y-76538027D01*
X86486723Y-76538027D01*
X86399996Y-76609201D01*
X86399992Y-76609205D01*
X86370999Y-76632999D01*
X86347205Y-76661992D01*
X84290199Y-78719000D01*
X84134333Y-78719000D01*
X84097000Y-78715323D01*
X84059667Y-78719000D01*
X83937250Y-78719000D01*
X83854250Y-78636000D01*
X83587763Y-78636000D01*
X83531125Y-78605726D01*
X83383757Y-78561023D01*
X83230500Y-78545928D01*
X82885500Y-78545928D01*
X82732243Y-78561023D01*
X82584875Y-78605726D01*
X82550000Y-78624367D01*
X82515125Y-78605726D01*
X82367757Y-78561023D01*
X82214500Y-78545928D01*
X81869500Y-78545928D01*
X81716243Y-78561023D01*
X81568875Y-78605726D01*
X81534000Y-78624367D01*
X81499125Y-78605726D01*
X81351757Y-78561023D01*
X81198500Y-78545928D01*
X80853500Y-78545928D01*
X80700243Y-78561023D01*
X80552875Y-78605726D01*
X80518000Y-78624367D01*
X80483125Y-78605726D01*
X80335757Y-78561023D01*
X80182500Y-78545928D01*
X79837500Y-78545928D01*
X79684243Y-78561023D01*
X79536875Y-78605726D01*
X79502000Y-78624367D01*
X79467125Y-78605726D01*
X79319757Y-78561023D01*
X79166500Y-78545928D01*
X78821500Y-78545928D01*
X78668243Y-78561023D01*
X78520875Y-78605726D01*
X78464237Y-78636000D01*
X78197750Y-78636000D01*
X78091750Y-78742000D01*
X76999322Y-78742000D01*
X76962000Y-78738324D01*
X76924678Y-78742000D01*
X75221323Y-78742000D01*
X75184000Y-78738324D01*
X75146677Y-78742000D01*
X75146667Y-78742000D01*
X75035014Y-78752997D01*
X74891753Y-78796454D01*
X74759723Y-78867026D01*
X74684840Y-78928482D01*
X74643999Y-78961999D01*
X74620201Y-78990998D01*
X73942998Y-79668201D01*
X73914000Y-79691999D01*
X73890202Y-79720997D01*
X73890201Y-79720998D01*
X73819026Y-79807724D01*
X73748454Y-79939754D01*
X73726235Y-80013003D01*
X73704998Y-80083014D01*
X73695744Y-80176974D01*
X73690324Y-80232000D01*
X73694001Y-80269332D01*
X73694000Y-83853189D01*
X73627813Y-83787002D01*
X73604011Y-83757999D01*
X73488286Y-83663026D01*
X73425000Y-83629198D01*
X73425000Y-83464061D01*
X73385226Y-83264102D01*
X73307205Y-83075744D01*
X73193937Y-82906226D01*
X73049774Y-82762063D01*
X72880256Y-82648795D01*
X72691898Y-82570774D01*
X72491939Y-82531000D01*
X72288061Y-82531000D01*
X72088102Y-82570774D01*
X71899744Y-82648795D01*
X71730226Y-82762063D01*
X71586063Y-82906226D01*
X71472795Y-83075744D01*
X71394774Y-83264102D01*
X71355000Y-83464061D01*
X71355000Y-83538000D01*
X70744284Y-83538000D01*
X70795502Y-83442180D01*
X70831812Y-83322482D01*
X70844072Y-83198000D01*
X70844072Y-81598000D01*
X70831812Y-81473518D01*
X70795502Y-81353820D01*
X70736537Y-81243506D01*
X70657185Y-81146815D01*
X70560494Y-81067463D01*
X70450180Y-81008498D01*
X70330482Y-80972188D01*
X70206000Y-80959928D01*
X68806000Y-80959928D01*
X68681518Y-80972188D01*
X68561820Y-81008498D01*
X68451506Y-81067463D01*
X68354815Y-81146815D01*
X68275463Y-81243506D01*
X68216498Y-81353820D01*
X68186461Y-81452838D01*
X68111710Y-81391491D01*
X67923220Y-81290741D01*
X67718697Y-81228700D01*
X67559294Y-81213000D01*
X66552706Y-81213000D01*
X66393303Y-81228700D01*
X66192000Y-81289764D01*
X66192000Y-77817755D01*
X67715000Y-77817755D01*
X67715000Y-78138245D01*
X67777525Y-78452578D01*
X67900172Y-78748673D01*
X68078227Y-79015152D01*
X68304848Y-79241773D01*
X68571327Y-79419828D01*
X68867422Y-79542475D01*
X69181755Y-79605000D01*
X69502245Y-79605000D01*
X69816578Y-79542475D01*
X70112673Y-79419828D01*
X70379152Y-79241773D01*
X70605773Y-79015152D01*
X70783828Y-78748673D01*
X70906475Y-78452578D01*
X70953931Y-78214000D01*
X78035928Y-78214000D01*
X78039000Y-78223250D01*
X78197750Y-78382000D01*
X78867000Y-78382000D01*
X78867000Y-78214000D01*
X79051928Y-78214000D01*
X79055000Y-78223250D01*
X79121000Y-78289250D01*
X79121000Y-78382000D01*
X79883000Y-78382000D01*
X79883000Y-78289250D01*
X79949000Y-78223250D01*
X79952072Y-78214000D01*
X80067928Y-78214000D01*
X80071000Y-78223250D01*
X80137000Y-78289250D01*
X80137000Y-78382000D01*
X80899000Y-78382000D01*
X80899000Y-78289250D01*
X80965000Y-78223250D01*
X80968072Y-78214000D01*
X81083928Y-78214000D01*
X81087000Y-78223250D01*
X81153000Y-78289250D01*
X81153000Y-78382000D01*
X81915000Y-78382000D01*
X81915000Y-78289250D01*
X81981000Y-78223250D01*
X81984072Y-78214000D01*
X82099928Y-78214000D01*
X82103000Y-78223250D01*
X82169000Y-78289250D01*
X82169000Y-78382000D01*
X82931000Y-78382000D01*
X82931000Y-78289250D01*
X82997000Y-78223250D01*
X83000072Y-78214000D01*
X82987812Y-78089518D01*
X82951502Y-77969820D01*
X82931000Y-77931464D01*
X82931000Y-77737750D01*
X83185000Y-77737750D01*
X83185000Y-78382000D01*
X83854250Y-78382000D01*
X84013000Y-78223250D01*
X84016072Y-78214000D01*
X84003812Y-78089518D01*
X83967502Y-77969820D01*
X83908537Y-77859506D01*
X83829185Y-77762815D01*
X83732494Y-77683463D01*
X83622180Y-77624498D01*
X83502482Y-77588188D01*
X83378000Y-77575928D01*
X83343750Y-77579000D01*
X83185000Y-77737750D01*
X82931000Y-77737750D01*
X82772250Y-77579000D01*
X82738000Y-77575928D01*
X82613518Y-77588188D01*
X82550000Y-77607456D01*
X82486482Y-77588188D01*
X82362000Y-77575928D01*
X82327750Y-77579000D01*
X82169000Y-77737750D01*
X82169000Y-77931464D01*
X82148498Y-77969820D01*
X82112188Y-78089518D01*
X82099928Y-78214000D01*
X81984072Y-78214000D01*
X81971812Y-78089518D01*
X81935502Y-77969820D01*
X81915000Y-77931464D01*
X81915000Y-77737750D01*
X81756250Y-77579000D01*
X81722000Y-77575928D01*
X81597518Y-77588188D01*
X81534000Y-77607456D01*
X81470482Y-77588188D01*
X81346000Y-77575928D01*
X81311750Y-77579000D01*
X81153000Y-77737750D01*
X81153000Y-77931464D01*
X81132498Y-77969820D01*
X81096188Y-78089518D01*
X81083928Y-78214000D01*
X80968072Y-78214000D01*
X80955812Y-78089518D01*
X80919502Y-77969820D01*
X80899000Y-77931464D01*
X80899000Y-77737750D01*
X80740250Y-77579000D01*
X80706000Y-77575928D01*
X80581518Y-77588188D01*
X80518000Y-77607456D01*
X80454482Y-77588188D01*
X80330000Y-77575928D01*
X80295750Y-77579000D01*
X80137000Y-77737750D01*
X80137000Y-77931464D01*
X80116498Y-77969820D01*
X80080188Y-78089518D01*
X80067928Y-78214000D01*
X79952072Y-78214000D01*
X79939812Y-78089518D01*
X79903502Y-77969820D01*
X79883000Y-77931464D01*
X79883000Y-77737750D01*
X79724250Y-77579000D01*
X79690000Y-77575928D01*
X79565518Y-77588188D01*
X79502000Y-77607456D01*
X79438482Y-77588188D01*
X79314000Y-77575928D01*
X79279750Y-77579000D01*
X79121000Y-77737750D01*
X79121000Y-77931464D01*
X79100498Y-77969820D01*
X79064188Y-78089518D01*
X79051928Y-78214000D01*
X78867000Y-78214000D01*
X78867000Y-77737750D01*
X78708250Y-77579000D01*
X78674000Y-77575928D01*
X78549518Y-77588188D01*
X78429820Y-77624498D01*
X78319506Y-77683463D01*
X78222815Y-77762815D01*
X78143463Y-77859506D01*
X78084498Y-77969820D01*
X78048188Y-78089518D01*
X78035928Y-78214000D01*
X70953931Y-78214000D01*
X70969000Y-78138245D01*
X70969000Y-77817755D01*
X70906475Y-77503422D01*
X70783828Y-77207327D01*
X70605773Y-76940848D01*
X70379152Y-76714227D01*
X70112673Y-76536172D01*
X69816578Y-76413525D01*
X69502245Y-76351000D01*
X69181755Y-76351000D01*
X68867422Y-76413525D01*
X68571327Y-76536172D01*
X68304848Y-76714227D01*
X68078227Y-76940848D01*
X67900172Y-77207327D01*
X67777525Y-77503422D01*
X67715000Y-77817755D01*
X66192000Y-77817755D01*
X66192000Y-71250285D01*
X66269000Y-71250285D01*
X66269000Y-72005715D01*
X66416377Y-72746628D01*
X66705467Y-73444554D01*
X67125161Y-74072670D01*
X67659330Y-74606839D01*
X68287446Y-75026533D01*
X68985372Y-75315623D01*
X69726285Y-75463000D01*
X70481715Y-75463000D01*
X71222628Y-75315623D01*
X71920554Y-75026533D01*
X72548670Y-74606839D01*
X73082839Y-74072670D01*
X73502533Y-73444554D01*
X73791623Y-72746628D01*
X73939000Y-72005715D01*
X73939000Y-71250285D01*
X73791623Y-70509372D01*
X73502533Y-69811446D01*
X73082839Y-69183330D01*
X72548670Y-68649161D01*
X71920554Y-68229467D01*
X71222628Y-67940377D01*
X70481715Y-67793000D01*
X69726285Y-67793000D01*
X68985372Y-67940377D01*
X68287446Y-68229467D01*
X67659330Y-68649161D01*
X67125161Y-69183330D01*
X66705467Y-69811446D01*
X66416377Y-70509372D01*
X66269000Y-71250285D01*
X66192000Y-71250285D01*
X66192000Y-68866279D01*
X66216397Y-68617460D01*
X66279285Y-68409167D01*
X66381428Y-68217063D01*
X66518947Y-68048447D01*
X66686593Y-67909759D01*
X66877985Y-67806274D01*
X67085835Y-67741934D01*
X67332581Y-67716000D01*
X96878543Y-67716000D01*
X96546228Y-67853649D01*
G04 #@! TA.AperFunction,Conductor*
D30*
G36*
X96546228Y-67853649D02*
G01*
X96109249Y-68145629D01*
X95737629Y-68517249D01*
X95445649Y-68954228D01*
X95244530Y-69439773D01*
X95142000Y-69955225D01*
X95142000Y-70480775D01*
X95244530Y-70996227D01*
X95445649Y-71481772D01*
X95737629Y-71918751D01*
X96109249Y-72290371D01*
X96546228Y-72582351D01*
X97031773Y-72783470D01*
X97547225Y-72886000D01*
X98072775Y-72886000D01*
X98588227Y-72783470D01*
X99073772Y-72582351D01*
X99510751Y-72290371D01*
X99882371Y-71918751D01*
X100174351Y-71481772D01*
X100375470Y-70996227D01*
X100478000Y-70480775D01*
X100478000Y-69955225D01*
X100425195Y-69689755D01*
X103021000Y-69689755D01*
X103021000Y-70010245D01*
X103083525Y-70324578D01*
X103206172Y-70620673D01*
X103384227Y-70887152D01*
X103610848Y-71113773D01*
X103877327Y-71291828D01*
X104173422Y-71414475D01*
X104487755Y-71477000D01*
X104808245Y-71477000D01*
X105122578Y-71414475D01*
X105418673Y-71291828D01*
X105685152Y-71113773D01*
X105911773Y-70887152D01*
X106089828Y-70620673D01*
X106212475Y-70324578D01*
X106275000Y-70010245D01*
X106275000Y-69689755D01*
X106212475Y-69375422D01*
X106089828Y-69079327D01*
X105911773Y-68812848D01*
X105685152Y-68586227D01*
X105418673Y-68408172D01*
X105122578Y-68285525D01*
X104808245Y-68223000D01*
X104487755Y-68223000D01*
X104173422Y-68285525D01*
X103877327Y-68408172D01*
X103610848Y-68586227D01*
X103384227Y-68812848D01*
X103206172Y-69079327D01*
X103083525Y-69375422D01*
X103021000Y-69689755D01*
X100425195Y-69689755D01*
X100375470Y-69439773D01*
X100174351Y-68954228D01*
X99882371Y-68517249D01*
X99510751Y-68145629D01*
X99073772Y-67853649D01*
X98741457Y-67716000D01*
X105631721Y-67716000D01*
X105880540Y-67740397D01*
X106088833Y-67803285D01*
X106280937Y-67905428D01*
X106449553Y-68042947D01*
X106588241Y-68210593D01*
X106691726Y-68401985D01*
X106756066Y-68609835D01*
X106782000Y-68856581D01*
X106782001Y-104869711D01*
X106757603Y-105118540D01*
X106694717Y-105326830D01*
X106592572Y-105518938D01*
X106455052Y-105687554D01*
X106287409Y-105826240D01*
X106096017Y-105929725D01*
X105888166Y-105994066D01*
X105641419Y-106020000D01*
X98741457Y-106020000D01*
X99073772Y-105882351D01*
X99510751Y-105590371D01*
X99882371Y-105218751D01*
X100174351Y-104781772D01*
X100375470Y-104296227D01*
X100478000Y-103780775D01*
X100478000Y-103725755D01*
X103275000Y-103725755D01*
X103275000Y-104046245D01*
X103337525Y-104360578D01*
X103460172Y-104656673D01*
X103638227Y-104923152D01*
X103864848Y-105149773D01*
X104131327Y-105327828D01*
X104427422Y-105450475D01*
X104741755Y-105513000D01*
X105062245Y-105513000D01*
X105376578Y-105450475D01*
X105672673Y-105327828D01*
X105939152Y-105149773D01*
X106165773Y-104923152D01*
X106343828Y-104656673D01*
X106466475Y-104360578D01*
X106529000Y-104046245D01*
X106529000Y-103725755D01*
X106466475Y-103411422D01*
X106343828Y-103115327D01*
X106165773Y-102848848D01*
X105939152Y-102622227D01*
X105672673Y-102444172D01*
X105376578Y-102321525D01*
X105062245Y-102259000D01*
X104741755Y-102259000D01*
X104427422Y-102321525D01*
X104131327Y-102444172D01*
X103864848Y-102622227D01*
X103638227Y-102848848D01*
X103460172Y-103115327D01*
X103337525Y-103411422D01*
X103275000Y-103725755D01*
X100478000Y-103725755D01*
X100478000Y-103255225D01*
X100375470Y-102739773D01*
X100174351Y-102254228D01*
X99882371Y-101817249D01*
X99510751Y-101445629D01*
X99073772Y-101153649D01*
X98588227Y-100952530D01*
X98072775Y-100850000D01*
X97547225Y-100850000D01*
X97031773Y-100952530D01*
X96546228Y-101153649D01*
X96109249Y-101445629D01*
X95737629Y-101817249D01*
X95445649Y-102254228D01*
X95244530Y-102739773D01*
X95142000Y-103255225D01*
X95142000Y-103780775D01*
X95244530Y-104296227D01*
X95445649Y-104781772D01*
X95737629Y-105218751D01*
X96109249Y-105590371D01*
X96546228Y-105882351D01*
X96878543Y-106020000D01*
X85920904Y-106020000D01*
X85943812Y-105944482D01*
X85956072Y-105820000D01*
X85956072Y-104420000D01*
X85943812Y-104295518D01*
X85907502Y-104175820D01*
X85848537Y-104065506D01*
X85769185Y-103968815D01*
X85672494Y-103889463D01*
X85562180Y-103830498D01*
X85442482Y-103794188D01*
X85318000Y-103781928D01*
X83718000Y-103781928D01*
X83593518Y-103794188D01*
X83473820Y-103830498D01*
X83363506Y-103889463D01*
X83266815Y-103968815D01*
X83187463Y-104065506D01*
X83128498Y-104175820D01*
X83092188Y-104295518D01*
X83079928Y-104420000D01*
X83079928Y-105820000D01*
X83092188Y-105944482D01*
X83115096Y-106020000D01*
X77920904Y-106020000D01*
X77943812Y-105944482D01*
X77956072Y-105820000D01*
X77956072Y-104420000D01*
X77943812Y-104295518D01*
X77907502Y-104175820D01*
X77848537Y-104065506D01*
X77769185Y-103968815D01*
X77672494Y-103889463D01*
X77562180Y-103830498D01*
X77442482Y-103794188D01*
X77318000Y-103781928D01*
X77154152Y-103781928D01*
X77152974Y-103779724D01*
X77108683Y-103725755D01*
X77081799Y-103692996D01*
X77081795Y-103692992D01*
X77058001Y-103663999D01*
X77029008Y-103640205D01*
X74478501Y-101089700D01*
X74478501Y-99739259D01*
X74628102Y-99801226D01*
X74828061Y-99841000D01*
X75031939Y-99841000D01*
X75088823Y-99829685D01*
X75079928Y-99920000D01*
X75079928Y-101320000D01*
X75092188Y-101444482D01*
X75128498Y-101564180D01*
X75187463Y-101674494D01*
X75266815Y-101771185D01*
X75363506Y-101850537D01*
X75473820Y-101909502D01*
X75593518Y-101945812D01*
X75718000Y-101958072D01*
X77318000Y-101958072D01*
X77442482Y-101945812D01*
X77562180Y-101909502D01*
X77672494Y-101850537D01*
X77769185Y-101771185D01*
X77848537Y-101674494D01*
X77907502Y-101564180D01*
X77943812Y-101444482D01*
X77956072Y-101320000D01*
X83079928Y-101320000D01*
X83092188Y-101444482D01*
X83128498Y-101564180D01*
X83187463Y-101674494D01*
X83266815Y-101771185D01*
X83363506Y-101850537D01*
X83473820Y-101909502D01*
X83593518Y-101945812D01*
X83718000Y-101958072D01*
X84232250Y-101955000D01*
X84391000Y-101796250D01*
X84391000Y-100747000D01*
X84645000Y-100747000D01*
X84645000Y-101796250D01*
X84803750Y-101955000D01*
X85318000Y-101958072D01*
X85442482Y-101945812D01*
X85562180Y-101909502D01*
X85672494Y-101850537D01*
X85769185Y-101771185D01*
X85848537Y-101674494D01*
X85907502Y-101564180D01*
X85943812Y-101444482D01*
X85956072Y-101320000D01*
X85953000Y-100905750D01*
X85794250Y-100747000D01*
X84645000Y-100747000D01*
X84391000Y-100747000D01*
X83241750Y-100747000D01*
X83083000Y-100905750D01*
X83079928Y-101320000D01*
X77956072Y-101320000D01*
X77956072Y-99920000D01*
X77943812Y-99795518D01*
X77907502Y-99675820D01*
X77848801Y-99566000D01*
X83187199Y-99566000D01*
X83128498Y-99675820D01*
X83092188Y-99795518D01*
X83079928Y-99920000D01*
X83083000Y-100334250D01*
X83241750Y-100493000D01*
X84391000Y-100493000D01*
X84391000Y-100473000D01*
X84645000Y-100473000D01*
X84645000Y-100493000D01*
X85794250Y-100493000D01*
X85953000Y-100334250D01*
X85956072Y-99920000D01*
X85943812Y-99795518D01*
X85907502Y-99675820D01*
X85848801Y-99566000D01*
X87103000Y-99566000D01*
X87103000Y-99669939D01*
X87142774Y-99869898D01*
X87220795Y-100058256D01*
X87334063Y-100227774D01*
X87478226Y-100371937D01*
X87647744Y-100485205D01*
X87836102Y-100563226D01*
X88036061Y-100603000D01*
X88239939Y-100603000D01*
X88439898Y-100563226D01*
X88628256Y-100485205D01*
X88797774Y-100371937D01*
X88841711Y-100328000D01*
X98514678Y-100328000D01*
X98552000Y-100331676D01*
X98589322Y-100328000D01*
X98589333Y-100328000D01*
X98700986Y-100317003D01*
X98844247Y-100273546D01*
X98976276Y-100202974D01*
X99092001Y-100108001D01*
X99115804Y-100078997D01*
X102365004Y-96829798D01*
X102394001Y-96806001D01*
X102488974Y-96690276D01*
X102559546Y-96558247D01*
X102603003Y-96414986D01*
X102614000Y-96303333D01*
X102614000Y-96303324D01*
X102617676Y-96266001D01*
X102614000Y-96228678D01*
X102614000Y-84009325D01*
X102617676Y-83972000D01*
X102614000Y-83934675D01*
X102614000Y-83934667D01*
X102603003Y-83823014D01*
X102559546Y-83679753D01*
X102488974Y-83547724D01*
X102394001Y-83431999D01*
X102365003Y-83408201D01*
X100569569Y-81612767D01*
X100599000Y-81464805D01*
X100599000Y-81191195D01*
X100545622Y-80922844D01*
X100440916Y-80670062D01*
X100288907Y-80442564D01*
X100095436Y-80249093D01*
X99867938Y-80097084D01*
X99615156Y-79992378D01*
X99366914Y-79943000D01*
X99615156Y-79893622D01*
X99867938Y-79788916D01*
X100095436Y-79636907D01*
X100288907Y-79443436D01*
X100440916Y-79215938D01*
X100545622Y-78963156D01*
X100599000Y-78694805D01*
X100599000Y-78421195D01*
X100545622Y-78152844D01*
X100440916Y-77900062D01*
X100288907Y-77672564D01*
X100095436Y-77479093D01*
X99867938Y-77327084D01*
X99615156Y-77222378D01*
X99346805Y-77169000D01*
X99073195Y-77169000D01*
X98804844Y-77222378D01*
X98552062Y-77327084D01*
X98324564Y-77479093D01*
X98131093Y-77672564D01*
X97979084Y-77900062D01*
X97874378Y-78152844D01*
X97821000Y-78421195D01*
X97821000Y-78694805D01*
X97874378Y-78963156D01*
X97979084Y-79215938D01*
X98131093Y-79443436D01*
X98324564Y-79636907D01*
X98552062Y-79788916D01*
X98804844Y-79893622D01*
X99053086Y-79943000D01*
X98804844Y-79992378D01*
X98552062Y-80097084D01*
X98324564Y-80249093D01*
X98131093Y-80442564D01*
X97979084Y-80670062D01*
X97874378Y-80922844D01*
X97821000Y-81191195D01*
X97821000Y-81464805D01*
X97874378Y-81733156D01*
X97979084Y-81985938D01*
X98131093Y-82213436D01*
X98324564Y-82406907D01*
X98552062Y-82558916D01*
X98804844Y-82663622D01*
X99053086Y-82713000D01*
X98804844Y-82762378D01*
X98552062Y-82867084D01*
X98324564Y-83019093D01*
X98131093Y-83212564D01*
X97979084Y-83440062D01*
X97874378Y-83692844D01*
X97821000Y-83961195D01*
X97821000Y-84234805D01*
X97874378Y-84503156D01*
X97979084Y-84755938D01*
X98013601Y-84807597D01*
X97711843Y-85109355D01*
X97630063Y-84882771D01*
X97569127Y-84768765D01*
X97329851Y-84702754D01*
X96549605Y-85483000D01*
X96563748Y-85497143D01*
X96384143Y-85676748D01*
X96370000Y-85662605D01*
X96355858Y-85676748D01*
X96176253Y-85497143D01*
X96190395Y-85483000D01*
X96176253Y-85468858D01*
X96355858Y-85289253D01*
X96370000Y-85303395D01*
X97150246Y-84523149D01*
X97084235Y-84283873D01*
X96836574Y-84167574D01*
X96570982Y-84101826D01*
X96519645Y-84099446D01*
X96775156Y-84048622D01*
X97027938Y-83943916D01*
X97255436Y-83791907D01*
X97448907Y-83598436D01*
X97600916Y-83370938D01*
X97705622Y-83118156D01*
X97759000Y-82849805D01*
X97759000Y-82576195D01*
X97705622Y-82307844D01*
X97600916Y-82055062D01*
X97448907Y-81827564D01*
X97255436Y-81634093D01*
X97027938Y-81482084D01*
X96775156Y-81377378D01*
X96526914Y-81328000D01*
X96775156Y-81278622D01*
X97027938Y-81173916D01*
X97255436Y-81021907D01*
X97448907Y-80828436D01*
X97600916Y-80600938D01*
X97705622Y-80348156D01*
X97759000Y-80079805D01*
X97759000Y-79806195D01*
X97705622Y-79537844D01*
X97600916Y-79285062D01*
X97448907Y-79057564D01*
X97255436Y-78864093D01*
X97027938Y-78712084D01*
X96775156Y-78607378D01*
X96562468Y-78565072D01*
X97124000Y-78565072D01*
X97248482Y-78552812D01*
X97368180Y-78516502D01*
X97478494Y-78457537D01*
X97575185Y-78378185D01*
X97654537Y-78281494D01*
X97713502Y-78171180D01*
X97749812Y-78051482D01*
X97762072Y-77927000D01*
X97762072Y-76419000D01*
X97749812Y-76294518D01*
X97713502Y-76174820D01*
X97654537Y-76064506D01*
X97575185Y-75967815D01*
X97478494Y-75888463D01*
X97368180Y-75829498D01*
X97248482Y-75793188D01*
X97124000Y-75780928D01*
X95616000Y-75780928D01*
X95491518Y-75793188D01*
X95371820Y-75829498D01*
X95261506Y-75888463D01*
X95164815Y-75967815D01*
X95085463Y-76064506D01*
X95026498Y-76174820D01*
X94990188Y-76294518D01*
X94978519Y-76413000D01*
X86948322Y-76413000D01*
X86910999Y-76409324D01*
X86873676Y-76413000D01*
X86873667Y-76413000D01*
X86762014Y-76423997D01*
X86618753Y-76467454D01*
X86486724Y-76538026D01*
X86486722Y-76538027D01*
X86486723Y-76538027D01*
X86399996Y-76609201D01*
X86399992Y-76609205D01*
X86370999Y-76632999D01*
X86347205Y-76661992D01*
X84290199Y-78719000D01*
X84134333Y-78719000D01*
X84097000Y-78715323D01*
X84059667Y-78719000D01*
X83937250Y-78719000D01*
X83854250Y-78636000D01*
X83587763Y-78636000D01*
X83531125Y-78605726D01*
X83383757Y-78561023D01*
X83230500Y-78545928D01*
X82885500Y-78545928D01*
X82732243Y-78561023D01*
X82584875Y-78605726D01*
X82550000Y-78624367D01*
X82515125Y-78605726D01*
X82367757Y-78561023D01*
X82214500Y-78545928D01*
X81869500Y-78545928D01*
X81716243Y-78561023D01*
X81568875Y-78605726D01*
X81534000Y-78624367D01*
X81499125Y-78605726D01*
X81351757Y-78561023D01*
X81198500Y-78545928D01*
X80853500Y-78545928D01*
X80700243Y-78561023D01*
X80552875Y-78605726D01*
X80518000Y-78624367D01*
X80483125Y-78605726D01*
X80335757Y-78561023D01*
X80182500Y-78545928D01*
X79837500Y-78545928D01*
X79684243Y-78561023D01*
X79536875Y-78605726D01*
X79502000Y-78624367D01*
X79467125Y-78605726D01*
X79319757Y-78561023D01*
X79166500Y-78545928D01*
X78821500Y-78545928D01*
X78668243Y-78561023D01*
X78520875Y-78605726D01*
X78464237Y-78636000D01*
X78197750Y-78636000D01*
X78091750Y-78742000D01*
X76999322Y-78742000D01*
X76962000Y-78738324D01*
X76924678Y-78742000D01*
X75221323Y-78742000D01*
X75184000Y-78738324D01*
X75146677Y-78742000D01*
X75146667Y-78742000D01*
X75035014Y-78752997D01*
X74891753Y-78796454D01*
X74759723Y-78867026D01*
X74684840Y-78928482D01*
X74643999Y-78961999D01*
X74620201Y-78990998D01*
X73942998Y-79668201D01*
X73914000Y-79691999D01*
X73890202Y-79720997D01*
X73890201Y-79720998D01*
X73819026Y-79807724D01*
X73748454Y-79939754D01*
X73726235Y-80013003D01*
X73704998Y-80083014D01*
X73695744Y-80176974D01*
X73690324Y-80232000D01*
X73694001Y-80269332D01*
X73694000Y-83853189D01*
X73627813Y-83787002D01*
X73604011Y-83757999D01*
X73488286Y-83663026D01*
X73425000Y-83629198D01*
X73425000Y-83464061D01*
X73385226Y-83264102D01*
X73307205Y-83075744D01*
X73193937Y-82906226D01*
X73049774Y-82762063D01*
X72880256Y-82648795D01*
X72691898Y-82570774D01*
X72491939Y-82531000D01*
X72288061Y-82531000D01*
X72088102Y-82570774D01*
X71899744Y-82648795D01*
X71730226Y-82762063D01*
X71586063Y-82906226D01*
X71472795Y-83075744D01*
X71394774Y-83264102D01*
X71355000Y-83464061D01*
X71355000Y-83538000D01*
X70744284Y-83538000D01*
X70795502Y-83442180D01*
X70831812Y-83322482D01*
X70844072Y-83198000D01*
X70844072Y-81598000D01*
X70831812Y-81473518D01*
X70795502Y-81353820D01*
X70736537Y-81243506D01*
X70657185Y-81146815D01*
X70560494Y-81067463D01*
X70450180Y-81008498D01*
X70330482Y-80972188D01*
X70206000Y-80959928D01*
X68806000Y-80959928D01*
X68681518Y-80972188D01*
X68561820Y-81008498D01*
X68451506Y-81067463D01*
X68354815Y-81146815D01*
X68275463Y-81243506D01*
X68216498Y-81353820D01*
X68186461Y-81452838D01*
X68111710Y-81391491D01*
X67923220Y-81290741D01*
X67718697Y-81228700D01*
X67559294Y-81213000D01*
X66552706Y-81213000D01*
X66393303Y-81228700D01*
X66192000Y-81289764D01*
X66192000Y-77817755D01*
X67715000Y-77817755D01*
X67715000Y-78138245D01*
X67777525Y-78452578D01*
X67900172Y-78748673D01*
X68078227Y-79015152D01*
X68304848Y-79241773D01*
X68571327Y-79419828D01*
X68867422Y-79542475D01*
X69181755Y-79605000D01*
X69502245Y-79605000D01*
X69816578Y-79542475D01*
X70112673Y-79419828D01*
X70379152Y-79241773D01*
X70605773Y-79015152D01*
X70783828Y-78748673D01*
X70906475Y-78452578D01*
X70953931Y-78214000D01*
X78035928Y-78214000D01*
X78039000Y-78223250D01*
X78197750Y-78382000D01*
X78867000Y-78382000D01*
X78867000Y-78214000D01*
X79051928Y-78214000D01*
X79055000Y-78223250D01*
X79121000Y-78289250D01*
X79121000Y-78382000D01*
X79883000Y-78382000D01*
X79883000Y-78289250D01*
X79949000Y-78223250D01*
X79952072Y-78214000D01*
X80067928Y-78214000D01*
X80071000Y-78223250D01*
X80137000Y-78289250D01*
X80137000Y-78382000D01*
X80899000Y-78382000D01*
X80899000Y-78289250D01*
X80965000Y-78223250D01*
X80968072Y-78214000D01*
X81083928Y-78214000D01*
X81087000Y-78223250D01*
X81153000Y-78289250D01*
X81153000Y-78382000D01*
X81915000Y-78382000D01*
X81915000Y-78289250D01*
X81981000Y-78223250D01*
X81984072Y-78214000D01*
X82099928Y-78214000D01*
X82103000Y-78223250D01*
X82169000Y-78289250D01*
X82169000Y-78382000D01*
X82931000Y-78382000D01*
X82931000Y-78289250D01*
X82997000Y-78223250D01*
X83000072Y-78214000D01*
X82987812Y-78089518D01*
X82951502Y-77969820D01*
X82931000Y-77931464D01*
X82931000Y-77737750D01*
X83185000Y-77737750D01*
X83185000Y-78382000D01*
X83854250Y-78382000D01*
X84013000Y-78223250D01*
X84016072Y-78214000D01*
X84003812Y-78089518D01*
X83967502Y-77969820D01*
X83908537Y-77859506D01*
X83829185Y-77762815D01*
X83732494Y-77683463D01*
X83622180Y-77624498D01*
X83502482Y-77588188D01*
X83378000Y-77575928D01*
X83343750Y-77579000D01*
X83185000Y-77737750D01*
X82931000Y-77737750D01*
X82772250Y-77579000D01*
X82738000Y-77575928D01*
X82613518Y-77588188D01*
X82550000Y-77607456D01*
X82486482Y-77588188D01*
X82362000Y-77575928D01*
X82327750Y-77579000D01*
X82169000Y-77737750D01*
X82169000Y-77931464D01*
X82148498Y-77969820D01*
X82112188Y-78089518D01*
X82099928Y-78214000D01*
X81984072Y-78214000D01*
X81971812Y-78089518D01*
X81935502Y-77969820D01*
X81915000Y-77931464D01*
X81915000Y-77737750D01*
X81756250Y-77579000D01*
X81722000Y-77575928D01*
X81597518Y-77588188D01*
X81534000Y-77607456D01*
X81470482Y-77588188D01*
X81346000Y-77575928D01*
X81311750Y-77579000D01*
X81153000Y-77737750D01*
X81153000Y-77931464D01*
X81132498Y-77969820D01*
X81096188Y-78089518D01*
X81083928Y-78214000D01*
X80968072Y-78214000D01*
X80955812Y-78089518D01*
X80919502Y-77969820D01*
X80899000Y-77931464D01*
X80899000Y-77737750D01*
X80740250Y-77579000D01*
X80706000Y-77575928D01*
X80581518Y-77588188D01*
X80518000Y-77607456D01*
X80454482Y-77588188D01*
X80330000Y-77575928D01*
X80295750Y-77579000D01*
X80137000Y-77737750D01*
X80137000Y-77931464D01*
X80116498Y-77969820D01*
X80080188Y-78089518D01*
X80067928Y-78214000D01*
X79952072Y-78214000D01*
X79939812Y-78089518D01*
X79903502Y-77969820D01*
X79883000Y-77931464D01*
X79883000Y-77737750D01*
X79724250Y-77579000D01*
X79690000Y-77575928D01*
X79565518Y-77588188D01*
X79502000Y-77607456D01*
X79438482Y-77588188D01*
X79314000Y-77575928D01*
X79279750Y-77579000D01*
X79121000Y-77737750D01*
X79121000Y-77931464D01*
X79100498Y-77969820D01*
X79064188Y-78089518D01*
X79051928Y-78214000D01*
X78867000Y-78214000D01*
X78867000Y-77737750D01*
X78708250Y-77579000D01*
X78674000Y-77575928D01*
X78549518Y-77588188D01*
X78429820Y-77624498D01*
X78319506Y-77683463D01*
X78222815Y-77762815D01*
X78143463Y-77859506D01*
X78084498Y-77969820D01*
X78048188Y-78089518D01*
X78035928Y-78214000D01*
X70953931Y-78214000D01*
X70969000Y-78138245D01*
X70969000Y-77817755D01*
X70906475Y-77503422D01*
X70783828Y-77207327D01*
X70605773Y-76940848D01*
X70379152Y-76714227D01*
X70112673Y-76536172D01*
X69816578Y-76413525D01*
X69502245Y-76351000D01*
X69181755Y-76351000D01*
X68867422Y-76413525D01*
X68571327Y-76536172D01*
X68304848Y-76714227D01*
X68078227Y-76940848D01*
X67900172Y-77207327D01*
X67777525Y-77503422D01*
X67715000Y-77817755D01*
X66192000Y-77817755D01*
X66192000Y-71250285D01*
X66269000Y-71250285D01*
X66269000Y-72005715D01*
X66416377Y-72746628D01*
X66705467Y-73444554D01*
X67125161Y-74072670D01*
X67659330Y-74606839D01*
X68287446Y-75026533D01*
X68985372Y-75315623D01*
X69726285Y-75463000D01*
X70481715Y-75463000D01*
X71222628Y-75315623D01*
X71920554Y-75026533D01*
X72548670Y-74606839D01*
X73082839Y-74072670D01*
X73502533Y-73444554D01*
X73791623Y-72746628D01*
X73939000Y-72005715D01*
X73939000Y-71250285D01*
X73791623Y-70509372D01*
X73502533Y-69811446D01*
X73082839Y-69183330D01*
X72548670Y-68649161D01*
X71920554Y-68229467D01*
X71222628Y-67940377D01*
X70481715Y-67793000D01*
X69726285Y-67793000D01*
X68985372Y-67940377D01*
X68287446Y-68229467D01*
X67659330Y-68649161D01*
X67125161Y-69183330D01*
X66705467Y-69811446D01*
X66416377Y-70509372D01*
X66269000Y-71250285D01*
X66192000Y-71250285D01*
X66192000Y-68866279D01*
X66216397Y-68617460D01*
X66279285Y-68409167D01*
X66381428Y-68217063D01*
X66518947Y-68048447D01*
X66686593Y-67909759D01*
X66877985Y-67806274D01*
X67085835Y-67741934D01*
X67332581Y-67716000D01*
X96878543Y-67716000D01*
X96546228Y-67853649D01*
G37*
G04 #@! TD.AperFunction*
D29*
X87553150Y-89994528D02*
X87399614Y-90076595D01*
X87265038Y-90187038D01*
X87154595Y-90321614D01*
X87072528Y-90475150D01*
X87021992Y-90641746D01*
X87004928Y-90815000D01*
X87004928Y-92065000D01*
X87021992Y-92238254D01*
X87072528Y-92404850D01*
X87154595Y-92558386D01*
X87265038Y-92692962D01*
X87399614Y-92803405D01*
X87553150Y-92885472D01*
X87719746Y-92936008D01*
X87893000Y-92953072D01*
X88643000Y-92953072D01*
X88816254Y-92936008D01*
X88982850Y-92885472D01*
X89136386Y-92803405D01*
X89270962Y-92692962D01*
X89381405Y-92558386D01*
X89463472Y-92404850D01*
X89514008Y-92238254D01*
X89531072Y-92065000D01*
X89531072Y-91883729D01*
X90992802Y-90422000D01*
X95115499Y-90422000D01*
X95034378Y-90617844D01*
X94981000Y-90886195D01*
X94981000Y-91159805D01*
X95034378Y-91428156D01*
X95125441Y-91648000D01*
X95081325Y-91648000D01*
X95044000Y-91644324D01*
X95006675Y-91648000D01*
X95006667Y-91648000D01*
X94895014Y-91658997D01*
X94751753Y-91702454D01*
X94619724Y-91773026D01*
X94503999Y-91867999D01*
X94480201Y-91896997D01*
X89173000Y-97204199D01*
X89173000Y-97180061D01*
X89133226Y-96980102D01*
X89055205Y-96791744D01*
X88941937Y-96622226D01*
X88797774Y-96478063D01*
X88628256Y-96364795D01*
X88439898Y-96286774D01*
X88239939Y-96247000D01*
X88036061Y-96247000D01*
X87836102Y-96286774D01*
X87647744Y-96364795D01*
X87478226Y-96478063D01*
X87434289Y-96522000D01*
X81474072Y-96522000D01*
X81474072Y-96373000D01*
X81638000Y-96373000D01*
X81638000Y-96393000D01*
X82282250Y-96393000D01*
X82441000Y-96234250D01*
X82444072Y-96200000D01*
X82440816Y-96166939D01*
X82702250Y-96165000D01*
X82728250Y-96139000D01*
X83247750Y-96139000D01*
X83273750Y-96165000D01*
X83688000Y-96168072D01*
X83812482Y-96155812D01*
X83867904Y-96139000D01*
X84196550Y-96139000D01*
X84221326Y-96136560D01*
X84245151Y-96129333D01*
X84267107Y-96117597D01*
X84286353Y-96101803D01*
X84302147Y-96082557D01*
X84313883Y-96060601D01*
X84321110Y-96036776D01*
X84323550Y-96012000D01*
X84323550Y-95555607D01*
X84326072Y-95530000D01*
X84323550Y-95271986D01*
X84323550Y-94587988D01*
X84326072Y-94330000D01*
X84323550Y-94304393D01*
X84323550Y-93840623D01*
X84410017Y-93945983D01*
X84529060Y-94043679D01*
X84664875Y-94116274D01*
X84812243Y-94160977D01*
X84965500Y-94176072D01*
X85260500Y-94176072D01*
X85413757Y-94160977D01*
X85536684Y-94123688D01*
X85543820Y-94127502D01*
X85663518Y-94163812D01*
X85788000Y-94176072D01*
X85797250Y-94173000D01*
X85956000Y-94014250D01*
X85956000Y-93747763D01*
X85986274Y-93691125D01*
X86030977Y-93543757D01*
X86046072Y-93390500D01*
X86046072Y-93345000D01*
X86210000Y-93345000D01*
X86210000Y-94014250D01*
X86368750Y-94173000D01*
X86378000Y-94176072D01*
X86502482Y-94163812D01*
X86622180Y-94127502D01*
X86732494Y-94068537D01*
X86829185Y-93989185D01*
X86908537Y-93892494D01*
X86967502Y-93782180D01*
X87003812Y-93662482D01*
X87016072Y-93538000D01*
X87013000Y-93503750D01*
X86854250Y-93345000D01*
X86210000Y-93345000D01*
X86046072Y-93345000D01*
X86046072Y-93071000D01*
X86210000Y-93071000D01*
X86210000Y-93091000D01*
X86854250Y-93091000D01*
X87013000Y-92932250D01*
X87016072Y-92898000D01*
X87003812Y-92773518D01*
X86967502Y-92653820D01*
X86908537Y-92543506D01*
X86829185Y-92446815D01*
X86732494Y-92367463D01*
X86682861Y-92340933D01*
X86714008Y-92238254D01*
X86731072Y-92065000D01*
X86731072Y-90815000D01*
X86714008Y-90641746D01*
X86663472Y-90475150D01*
X86581405Y-90321614D01*
X86470962Y-90187038D01*
X86336386Y-90076595D01*
X86182850Y-89994528D01*
X86108552Y-89971990D01*
X87627448Y-89971990D01*
X87553150Y-89994528D01*
G04 #@! TA.AperFunction,Conductor*
D30*
G36*
X87553150Y-89994528D02*
G01*
X87399614Y-90076595D01*
X87265038Y-90187038D01*
X87154595Y-90321614D01*
X87072528Y-90475150D01*
X87021992Y-90641746D01*
X87004928Y-90815000D01*
X87004928Y-92065000D01*
X87021992Y-92238254D01*
X87072528Y-92404850D01*
X87154595Y-92558386D01*
X87265038Y-92692962D01*
X87399614Y-92803405D01*
X87553150Y-92885472D01*
X87719746Y-92936008D01*
X87893000Y-92953072D01*
X88643000Y-92953072D01*
X88816254Y-92936008D01*
X88982850Y-92885472D01*
X89136386Y-92803405D01*
X89270962Y-92692962D01*
X89381405Y-92558386D01*
X89463472Y-92404850D01*
X89514008Y-92238254D01*
X89531072Y-92065000D01*
X89531072Y-91883729D01*
X90992802Y-90422000D01*
X95115499Y-90422000D01*
X95034378Y-90617844D01*
X94981000Y-90886195D01*
X94981000Y-91159805D01*
X95034378Y-91428156D01*
X95125441Y-91648000D01*
X95081325Y-91648000D01*
X95044000Y-91644324D01*
X95006675Y-91648000D01*
X95006667Y-91648000D01*
X94895014Y-91658997D01*
X94751753Y-91702454D01*
X94619724Y-91773026D01*
X94503999Y-91867999D01*
X94480201Y-91896997D01*
X89173000Y-97204199D01*
X89173000Y-97180061D01*
X89133226Y-96980102D01*
X89055205Y-96791744D01*
X88941937Y-96622226D01*
X88797774Y-96478063D01*
X88628256Y-96364795D01*
X88439898Y-96286774D01*
X88239939Y-96247000D01*
X88036061Y-96247000D01*
X87836102Y-96286774D01*
X87647744Y-96364795D01*
X87478226Y-96478063D01*
X87434289Y-96522000D01*
X81474072Y-96522000D01*
X81474072Y-96373000D01*
X81638000Y-96373000D01*
X81638000Y-96393000D01*
X82282250Y-96393000D01*
X82441000Y-96234250D01*
X82444072Y-96200000D01*
X82440816Y-96166939D01*
X82702250Y-96165000D01*
X82728250Y-96139000D01*
X83247750Y-96139000D01*
X83273750Y-96165000D01*
X83688000Y-96168072D01*
X83812482Y-96155812D01*
X83867904Y-96139000D01*
X84196550Y-96139000D01*
X84221326Y-96136560D01*
X84245151Y-96129333D01*
X84267107Y-96117597D01*
X84286353Y-96101803D01*
X84302147Y-96082557D01*
X84313883Y-96060601D01*
X84321110Y-96036776D01*
X84323550Y-96012000D01*
X84323550Y-95555607D01*
X84326072Y-95530000D01*
X84323550Y-95271986D01*
X84323550Y-94587988D01*
X84326072Y-94330000D01*
X84323550Y-94304393D01*
X84323550Y-93840623D01*
X84410017Y-93945983D01*
X84529060Y-94043679D01*
X84664875Y-94116274D01*
X84812243Y-94160977D01*
X84965500Y-94176072D01*
X85260500Y-94176072D01*
X85413757Y-94160977D01*
X85536684Y-94123688D01*
X85543820Y-94127502D01*
X85663518Y-94163812D01*
X85788000Y-94176072D01*
X85797250Y-94173000D01*
X85956000Y-94014250D01*
X85956000Y-93747763D01*
X85986274Y-93691125D01*
X86030977Y-93543757D01*
X86046072Y-93390500D01*
X86046072Y-93345000D01*
X86210000Y-93345000D01*
X86210000Y-94014250D01*
X86368750Y-94173000D01*
X86378000Y-94176072D01*
X86502482Y-94163812D01*
X86622180Y-94127502D01*
X86732494Y-94068537D01*
X86829185Y-93989185D01*
X86908537Y-93892494D01*
X86967502Y-93782180D01*
X87003812Y-93662482D01*
X87016072Y-93538000D01*
X87013000Y-93503750D01*
X86854250Y-93345000D01*
X86210000Y-93345000D01*
X86046072Y-93345000D01*
X86046072Y-93071000D01*
X86210000Y-93071000D01*
X86210000Y-93091000D01*
X86854250Y-93091000D01*
X87013000Y-92932250D01*
X87016072Y-92898000D01*
X87003812Y-92773518D01*
X86967502Y-92653820D01*
X86908537Y-92543506D01*
X86829185Y-92446815D01*
X86732494Y-92367463D01*
X86682861Y-92340933D01*
X86714008Y-92238254D01*
X86731072Y-92065000D01*
X86731072Y-90815000D01*
X86714008Y-90641746D01*
X86663472Y-90475150D01*
X86581405Y-90321614D01*
X86470962Y-90187038D01*
X86336386Y-90076595D01*
X86182850Y-89994528D01*
X86108552Y-89971990D01*
X87627448Y-89971990D01*
X87553150Y-89994528D01*
G37*
G04 #@! TD.AperFunction*
D29*
X76867026Y-93363274D02*
X76922609Y-93431001D01*
X76962000Y-93478999D01*
X76990998Y-93502797D01*
X77054001Y-93565800D01*
X77054001Y-93632199D01*
X76816969Y-93869231D01*
X76816969Y-93269625D01*
X76867026Y-93363274D01*
G04 #@! TA.AperFunction,Conductor*
D30*
G36*
X76867026Y-93363274D02*
G01*
X76922609Y-93431001D01*
X76962000Y-93478999D01*
X76990998Y-93502797D01*
X77054001Y-93565800D01*
X77054001Y-93632199D01*
X76816969Y-93869231D01*
X76816969Y-93269625D01*
X76867026Y-93363274D01*
G37*
G04 #@! TD.AperFunction*
D29*
X79243550Y-93211751D02*
X79094999Y-93063200D01*
X79094999Y-92996800D01*
X79243550Y-92848250D01*
X79243550Y-93211751D01*
G04 #@! TA.AperFunction,Conductor*
D30*
G36*
X79243550Y-93211751D02*
G01*
X79094999Y-93063200D01*
X79094999Y-92996800D01*
X79243550Y-92848250D01*
X79243550Y-93211751D01*
G37*
G04 #@! TD.AperFunction*
D29*
X70766498Y-87686180D02*
X70825463Y-87796494D01*
X70904815Y-87893185D01*
X71001506Y-87972537D01*
X71111820Y-88031502D01*
X71231518Y-88067812D01*
X71356000Y-88080072D01*
X71365250Y-88077000D01*
X71424916Y-88017334D01*
X71394774Y-88090102D01*
X71355000Y-88290061D01*
X71355000Y-88493939D01*
X71373662Y-88587761D01*
X71343409Y-88612589D01*
X71319611Y-88641587D01*
X70844072Y-89117126D01*
X70844072Y-87998000D01*
X70831812Y-87873518D01*
X70795502Y-87753820D01*
X70736537Y-87643506D01*
X70735708Y-87642496D01*
X70750881Y-87634696D01*
X70766498Y-87686180D01*
G04 #@! TA.AperFunction,Conductor*
D30*
G36*
X70766498Y-87686180D02*
G01*
X70825463Y-87796494D01*
X70904815Y-87893185D01*
X71001506Y-87972537D01*
X71111820Y-88031502D01*
X71231518Y-88067812D01*
X71356000Y-88080072D01*
X71365250Y-88077000D01*
X71424916Y-88017334D01*
X71394774Y-88090102D01*
X71355000Y-88290061D01*
X71355000Y-88493939D01*
X71373662Y-88587761D01*
X71343409Y-88612589D01*
X71319611Y-88641587D01*
X70844072Y-89117126D01*
X70844072Y-87998000D01*
X70831812Y-87873518D01*
X70795502Y-87753820D01*
X70736537Y-87643506D01*
X70735708Y-87642496D01*
X70750881Y-87634696D01*
X70766498Y-87686180D01*
G37*
G04 #@! TD.AperFunction*
D29*
X89858565Y-88451990D02*
X88005044Y-88451990D01*
X88055918Y-88390000D01*
X89783030Y-88390000D01*
X89858565Y-88451990D01*
G04 #@! TA.AperFunction,Conductor*
D30*
G36*
X89858565Y-88451990D02*
G01*
X88005044Y-88451990D01*
X88055918Y-88390000D01*
X89783030Y-88390000D01*
X89858565Y-88451990D01*
G37*
G04 #@! TD.AperFunction*
D29*
X93424102Y-86380774D02*
X93235744Y-86458795D01*
X93066226Y-86572063D01*
X92986158Y-86652131D01*
X92955835Y-86661329D01*
X92925753Y-86670454D01*
X92793723Y-86741026D01*
X92727984Y-86794977D01*
X92677999Y-86835999D01*
X92654201Y-86864997D01*
X92336850Y-87182348D01*
X92318544Y-87122000D01*
X92337812Y-87058482D01*
X92350072Y-86934000D01*
X92347000Y-86899750D01*
X92188250Y-86741000D01*
X91994536Y-86741000D01*
X91956180Y-86720498D01*
X91836482Y-86684188D01*
X91712000Y-86671928D01*
X91702750Y-86675000D01*
X91636750Y-86741000D01*
X91544000Y-86741000D01*
X91544000Y-87503000D01*
X91564000Y-87503000D01*
X91564000Y-87757000D01*
X91544000Y-87757000D01*
X91544000Y-87777000D01*
X91380072Y-87777000D01*
X91380072Y-87457500D01*
X91364977Y-87304243D01*
X91320274Y-87156875D01*
X91301633Y-87122000D01*
X91320274Y-87087125D01*
X91364977Y-86939757D01*
X91380072Y-86786500D01*
X91380072Y-86556072D01*
X91564500Y-86556072D01*
X91717757Y-86540977D01*
X91865125Y-86496274D01*
X91882475Y-86487000D01*
X92188250Y-86487000D01*
X92317250Y-86358000D01*
X93538596Y-86358000D01*
X93424102Y-86380774D01*
G04 #@! TA.AperFunction,Conductor*
D30*
G36*
X93424102Y-86380774D02*
G01*
X93235744Y-86458795D01*
X93066226Y-86572063D01*
X92986158Y-86652131D01*
X92955835Y-86661329D01*
X92925753Y-86670454D01*
X92793723Y-86741026D01*
X92727984Y-86794977D01*
X92677999Y-86835999D01*
X92654201Y-86864997D01*
X92336850Y-87182348D01*
X92318544Y-87122000D01*
X92337812Y-87058482D01*
X92350072Y-86934000D01*
X92347000Y-86899750D01*
X92188250Y-86741000D01*
X91994536Y-86741000D01*
X91956180Y-86720498D01*
X91836482Y-86684188D01*
X91712000Y-86671928D01*
X91702750Y-86675000D01*
X91636750Y-86741000D01*
X91544000Y-86741000D01*
X91544000Y-87503000D01*
X91564000Y-87503000D01*
X91564000Y-87757000D01*
X91544000Y-87757000D01*
X91544000Y-87777000D01*
X91380072Y-87777000D01*
X91380072Y-87457500D01*
X91364977Y-87304243D01*
X91320274Y-87156875D01*
X91301633Y-87122000D01*
X91320274Y-87087125D01*
X91364977Y-86939757D01*
X91380072Y-86786500D01*
X91380072Y-86556072D01*
X91564500Y-86556072D01*
X91717757Y-86540977D01*
X91865125Y-86496274D01*
X91882475Y-86487000D01*
X92188250Y-86487000D01*
X92317250Y-86358000D01*
X93538596Y-86358000D01*
X93424102Y-86380774D01*
G37*
G04 #@! TD.AperFunction*
D29*
X71687928Y-87269000D02*
X71524000Y-87269000D01*
X71524000Y-87249000D01*
X71504000Y-87249000D01*
X71504000Y-87064072D01*
X71687928Y-87064072D01*
X71687928Y-87269000D01*
G04 #@! TA.AperFunction,Conductor*
D30*
G36*
X71687928Y-87269000D02*
G01*
X71524000Y-87269000D01*
X71524000Y-87249000D01*
X71504000Y-87249000D01*
X71504000Y-87064072D01*
X71687928Y-87064072D01*
X71687928Y-87269000D01*
G37*
G04 #@! TD.AperFunction*
D29*
X79629000Y-86487000D02*
X79649000Y-86487000D01*
X79649000Y-86741000D01*
X79629000Y-86741000D01*
X79629000Y-86761000D01*
X79375000Y-86761000D01*
X79375000Y-86741000D01*
X79355000Y-86741000D01*
X79355000Y-86487000D01*
X79375000Y-86487000D01*
X79375000Y-86467000D01*
X79629000Y-86467000D01*
X79629000Y-86487000D01*
G04 #@! TA.AperFunction,Conductor*
D30*
G36*
X79629000Y-86487000D02*
G01*
X79649000Y-86487000D01*
X79649000Y-86741000D01*
X79629000Y-86741000D01*
X79629000Y-86761000D01*
X79375000Y-86761000D01*
X79375000Y-86741000D01*
X79355000Y-86741000D01*
X79355000Y-86487000D01*
X79375000Y-86487000D01*
X79375000Y-86467000D01*
X79629000Y-86467000D01*
X79629000Y-86487000D01*
G37*
G04 #@! TD.AperFunction*
D29*
X89513928Y-85770500D02*
X89522152Y-85854000D01*
X88332072Y-85854000D01*
X88332072Y-85794072D01*
X88516500Y-85794072D01*
X88669757Y-85778977D01*
X88817125Y-85734274D01*
X88834475Y-85725000D01*
X89140250Y-85725000D01*
X89269250Y-85596000D01*
X89513928Y-85596000D01*
X89513928Y-85770500D01*
G04 #@! TA.AperFunction,Conductor*
D30*
G36*
X89513928Y-85770500D02*
G01*
X89522152Y-85854000D01*
X88332072Y-85854000D01*
X88332072Y-85794072D01*
X88516500Y-85794072D01*
X88669757Y-85778977D01*
X88817125Y-85734274D01*
X88834475Y-85725000D01*
X89140250Y-85725000D01*
X89269250Y-85596000D01*
X89513928Y-85596000D01*
X89513928Y-85770500D01*
G37*
G04 #@! TD.AperFunction*
D29*
X94990188Y-78051482D02*
X95026498Y-78171180D01*
X95085463Y-78281494D01*
X95164815Y-78378185D01*
X95261506Y-78457537D01*
X95371820Y-78516502D01*
X95491518Y-78552812D01*
X95616000Y-78565072D01*
X96177532Y-78565072D01*
X95964844Y-78607378D01*
X95712062Y-78712084D01*
X95484564Y-78864093D01*
X95291093Y-79057564D01*
X95139084Y-79285062D01*
X95034378Y-79537844D01*
X94981000Y-79806195D01*
X94981000Y-80079805D01*
X95010431Y-80227767D01*
X93214998Y-82023201D01*
X93186000Y-82046999D01*
X93162202Y-82075997D01*
X93162201Y-82075998D01*
X93091026Y-82162724D01*
X93020454Y-82294754D01*
X92976998Y-82438015D01*
X92962324Y-82587000D01*
X92966001Y-82624332D01*
X92966000Y-83370289D01*
X92922063Y-83414226D01*
X92808795Y-83583744D01*
X92730774Y-83772102D01*
X92691000Y-83972061D01*
X92691000Y-84076000D01*
X89032970Y-84076000D01*
X88952940Y-84010321D01*
X88817125Y-83937726D01*
X88669757Y-83893023D01*
X88516500Y-83877928D01*
X88221500Y-83877928D01*
X88068243Y-83893023D01*
X87920875Y-83937726D01*
X87884000Y-83957436D01*
X87847125Y-83937726D01*
X87699757Y-83893023D01*
X87546500Y-83877928D01*
X87251500Y-83877928D01*
X87098243Y-83893023D01*
X86950875Y-83937726D01*
X86815060Y-84010321D01*
X86696017Y-84108017D01*
X86598321Y-84227060D01*
X86525726Y-84362875D01*
X86504124Y-84434089D01*
X86508072Y-84394000D01*
X86505000Y-84359750D01*
X86346250Y-84201000D01*
X85702000Y-84201000D01*
X85702000Y-84870250D01*
X85860750Y-85029000D01*
X85870000Y-85032072D01*
X85994482Y-85019812D01*
X86114180Y-84983502D01*
X86224494Y-84924537D01*
X86321185Y-84845185D01*
X86400537Y-84748494D01*
X86459502Y-84638180D01*
X86472711Y-84594637D01*
X86465928Y-84663500D01*
X86465928Y-85008500D01*
X86474152Y-85092000D01*
X84005072Y-85092000D01*
X84005072Y-84984000D01*
X83994631Y-84877989D01*
X84021060Y-84899679D01*
X84156875Y-84972274D01*
X84304243Y-85016977D01*
X84457500Y-85032072D01*
X84752500Y-85032072D01*
X84905757Y-85016977D01*
X85028684Y-84979688D01*
X85035820Y-84983502D01*
X85155518Y-85019812D01*
X85280000Y-85032072D01*
X85289250Y-85029000D01*
X85448000Y-84870250D01*
X85448000Y-84603763D01*
X85478274Y-84547125D01*
X85522977Y-84399757D01*
X85538072Y-84246500D01*
X85538072Y-83927000D01*
X85702000Y-83927000D01*
X85702000Y-83947000D01*
X86346250Y-83947000D01*
X86505000Y-83788250D01*
X86508072Y-83754000D01*
X86495812Y-83629518D01*
X86459502Y-83509820D01*
X86400537Y-83399506D01*
X86321185Y-83302815D01*
X86224494Y-83223463D01*
X86114180Y-83164498D01*
X86066894Y-83150154D01*
X86085226Y-83105898D01*
X86125000Y-82905939D01*
X86125000Y-82702061D01*
X86085226Y-82502102D01*
X86007205Y-82313744D01*
X85893937Y-82144226D01*
X85850000Y-82100289D01*
X85850000Y-82079322D01*
X85853676Y-82041999D01*
X85850000Y-82004676D01*
X85850000Y-82004667D01*
X85839003Y-81893014D01*
X85795546Y-81749753D01*
X85786675Y-81733156D01*
X85724974Y-81617723D01*
X85653799Y-81530997D01*
X85630001Y-81501999D01*
X85601003Y-81478201D01*
X84857000Y-80734199D01*
X84857000Y-80196755D01*
X84897247Y-80184546D01*
X85029276Y-80113974D01*
X85145001Y-80019001D01*
X85168804Y-79989998D01*
X87225803Y-77933000D01*
X94978519Y-77933000D01*
X94990188Y-78051482D01*
G04 #@! TA.AperFunction,Conductor*
D30*
G36*
X94990188Y-78051482D02*
G01*
X95026498Y-78171180D01*
X95085463Y-78281494D01*
X95164815Y-78378185D01*
X95261506Y-78457537D01*
X95371820Y-78516502D01*
X95491518Y-78552812D01*
X95616000Y-78565072D01*
X96177532Y-78565072D01*
X95964844Y-78607378D01*
X95712062Y-78712084D01*
X95484564Y-78864093D01*
X95291093Y-79057564D01*
X95139084Y-79285062D01*
X95034378Y-79537844D01*
X94981000Y-79806195D01*
X94981000Y-80079805D01*
X95010431Y-80227767D01*
X93214998Y-82023201D01*
X93186000Y-82046999D01*
X93162202Y-82075997D01*
X93162201Y-82075998D01*
X93091026Y-82162724D01*
X93020454Y-82294754D01*
X92976998Y-82438015D01*
X92962324Y-82587000D01*
X92966001Y-82624332D01*
X92966000Y-83370289D01*
X92922063Y-83414226D01*
X92808795Y-83583744D01*
X92730774Y-83772102D01*
X92691000Y-83972061D01*
X92691000Y-84076000D01*
X89032970Y-84076000D01*
X88952940Y-84010321D01*
X88817125Y-83937726D01*
X88669757Y-83893023D01*
X88516500Y-83877928D01*
X88221500Y-83877928D01*
X88068243Y-83893023D01*
X87920875Y-83937726D01*
X87884000Y-83957436D01*
X87847125Y-83937726D01*
X87699757Y-83893023D01*
X87546500Y-83877928D01*
X87251500Y-83877928D01*
X87098243Y-83893023D01*
X86950875Y-83937726D01*
X86815060Y-84010321D01*
X86696017Y-84108017D01*
X86598321Y-84227060D01*
X86525726Y-84362875D01*
X86504124Y-84434089D01*
X86508072Y-84394000D01*
X86505000Y-84359750D01*
X86346250Y-84201000D01*
X85702000Y-84201000D01*
X85702000Y-84870250D01*
X85860750Y-85029000D01*
X85870000Y-85032072D01*
X85994482Y-85019812D01*
X86114180Y-84983502D01*
X86224494Y-84924537D01*
X86321185Y-84845185D01*
X86400537Y-84748494D01*
X86459502Y-84638180D01*
X86472711Y-84594637D01*
X86465928Y-84663500D01*
X86465928Y-85008500D01*
X86474152Y-85092000D01*
X84005072Y-85092000D01*
X84005072Y-84984000D01*
X83994631Y-84877989D01*
X84021060Y-84899679D01*
X84156875Y-84972274D01*
X84304243Y-85016977D01*
X84457500Y-85032072D01*
X84752500Y-85032072D01*
X84905757Y-85016977D01*
X85028684Y-84979688D01*
X85035820Y-84983502D01*
X85155518Y-85019812D01*
X85280000Y-85032072D01*
X85289250Y-85029000D01*
X85448000Y-84870250D01*
X85448000Y-84603763D01*
X85478274Y-84547125D01*
X85522977Y-84399757D01*
X85538072Y-84246500D01*
X85538072Y-83927000D01*
X85702000Y-83927000D01*
X85702000Y-83947000D01*
X86346250Y-83947000D01*
X86505000Y-83788250D01*
X86508072Y-83754000D01*
X86495812Y-83629518D01*
X86459502Y-83509820D01*
X86400537Y-83399506D01*
X86321185Y-83302815D01*
X86224494Y-83223463D01*
X86114180Y-83164498D01*
X86066894Y-83150154D01*
X86085226Y-83105898D01*
X86125000Y-82905939D01*
X86125000Y-82702061D01*
X86085226Y-82502102D01*
X86007205Y-82313744D01*
X85893937Y-82144226D01*
X85850000Y-82100289D01*
X85850000Y-82079322D01*
X85853676Y-82041999D01*
X85850000Y-82004676D01*
X85850000Y-82004667D01*
X85839003Y-81893014D01*
X85795546Y-81749753D01*
X85786675Y-81733156D01*
X85724974Y-81617723D01*
X85653799Y-81530997D01*
X85630001Y-81501999D01*
X85601003Y-81478201D01*
X84857000Y-80734199D01*
X84857000Y-80196755D01*
X84897247Y-80184546D01*
X85029276Y-80113974D01*
X85145001Y-80019001D01*
X85168804Y-79989998D01*
X87225803Y-77933000D01*
X94978519Y-77933000D01*
X94990188Y-78051482D01*
G37*
G04 #@! TD.AperFunction*
D29*
X80552875Y-80352274D02*
X80700243Y-80396977D01*
X80853500Y-80412072D01*
X81198500Y-80412072D01*
X81282000Y-80403848D01*
X81282001Y-82120508D01*
X81256894Y-82123313D01*
X81256482Y-82123188D01*
X81132000Y-82110928D01*
X80872000Y-82110928D01*
X80752000Y-82122747D01*
X80632000Y-82110928D01*
X80372000Y-82110928D01*
X80252000Y-82122747D01*
X80132000Y-82110928D01*
X79872000Y-82110928D01*
X79752000Y-82122747D01*
X79632000Y-82110928D01*
X79372000Y-82110928D01*
X79252000Y-82122747D01*
X79132000Y-82110928D01*
X78872000Y-82110928D01*
X78752000Y-82122747D01*
X78738000Y-82121368D01*
X78738000Y-81920970D01*
X78803679Y-81840940D01*
X78876274Y-81705125D01*
X78920977Y-81557757D01*
X78936072Y-81404500D01*
X78936072Y-81109500D01*
X78920977Y-80956243D01*
X78883688Y-80833316D01*
X78887502Y-80826180D01*
X78923812Y-80706482D01*
X78936072Y-80582000D01*
X78933000Y-80572750D01*
X78774252Y-80414002D01*
X78933000Y-80414002D01*
X78933000Y-80412072D01*
X79166500Y-80412072D01*
X79319757Y-80396977D01*
X79467125Y-80352274D01*
X79502000Y-80333633D01*
X79536875Y-80352274D01*
X79684243Y-80396977D01*
X79837500Y-80412072D01*
X80182500Y-80412072D01*
X80335757Y-80396977D01*
X80483125Y-80352274D01*
X80518000Y-80333633D01*
X80552875Y-80352274D01*
G04 #@! TA.AperFunction,Conductor*
D30*
G36*
X80552875Y-80352274D02*
G01*
X80700243Y-80396977D01*
X80853500Y-80412072D01*
X81198500Y-80412072D01*
X81282000Y-80403848D01*
X81282001Y-82120508D01*
X81256894Y-82123313D01*
X81256482Y-82123188D01*
X81132000Y-82110928D01*
X80872000Y-82110928D01*
X80752000Y-82122747D01*
X80632000Y-82110928D01*
X80372000Y-82110928D01*
X80252000Y-82122747D01*
X80132000Y-82110928D01*
X79872000Y-82110928D01*
X79752000Y-82122747D01*
X79632000Y-82110928D01*
X79372000Y-82110928D01*
X79252000Y-82122747D01*
X79132000Y-82110928D01*
X78872000Y-82110928D01*
X78752000Y-82122747D01*
X78738000Y-82121368D01*
X78738000Y-81920970D01*
X78803679Y-81840940D01*
X78876274Y-81705125D01*
X78920977Y-81557757D01*
X78936072Y-81404500D01*
X78936072Y-81109500D01*
X78920977Y-80956243D01*
X78883688Y-80833316D01*
X78887502Y-80826180D01*
X78923812Y-80706482D01*
X78936072Y-80582000D01*
X78933000Y-80572750D01*
X78774252Y-80414002D01*
X78933000Y-80414002D01*
X78933000Y-80412072D01*
X79166500Y-80412072D01*
X79319757Y-80396977D01*
X79467125Y-80352274D01*
X79502000Y-80333633D01*
X79536875Y-80352274D01*
X79684243Y-80396977D01*
X79837500Y-80412072D01*
X80182500Y-80412072D01*
X80335757Y-80396977D01*
X80483125Y-80352274D01*
X80518000Y-80333633D01*
X80552875Y-80352274D01*
G37*
G04 #@! TD.AperFunction*
D29*
X78125000Y-80323928D02*
X77831000Y-80323928D01*
X77831000Y-80262000D01*
X78125000Y-80262000D01*
X78125000Y-80323928D01*
G04 #@! TA.AperFunction,Conductor*
D30*
G36*
X78125000Y-80323928D02*
G01*
X77831000Y-80323928D01*
X77831000Y-80262000D01*
X78125000Y-80262000D01*
X78125000Y-80323928D01*
G37*
G04 #@! TD.AperFunction*
G04 #@! TD*
M02*
