%TF.GenerationSoftware,KiCad,Pcbnew,(5.1.6-85-g2d1f6937d)*%
%TF.CreationDate,2020-09-25T00:17:39-07:00*%
%TF.ProjectId,3DProUsb,33445072-6f55-4736-922e-6b696361645f,rev?*%
%TF.SameCoordinates,Original*%
%TF.FileFunction,Soldermask,Top*%
%TF.FilePolarity,Negative*%
%FSLAX46Y46*%
G04 Gerber Fmt 4.6, Leading zero omitted, Abs format (unit mm)*
G04 Created by KiCad (PCBNEW (5.1.6-85-g2d1f6937d)) date 2020-09-25 00:17:39*
%MOMM*%
%LPD*%
G01*
G04 APERTURE LIST*
%ADD10R,2.100000X1.475000*%
%ADD11O,2.416000X1.208000*%
%ADD12R,1.900000X1.375000*%
%ADD13R,1.380000X0.450000*%
%ADD14C,3.000000*%
%ADD15C,1.000000*%
%ADD16C,6.400000*%
%ADD17R,1.600000X1.400000*%
%ADD18R,1.400000X1.200000*%
%ADD19R,0.260000X1.010000*%
%ADD20R,1.010000X0.260000*%
%ADD21R,5.200000X5.200000*%
%ADD22R,1.508000X1.508000*%
%ADD23C,1.508000*%
%ADD24C,4.066000*%
%ADD25C,0.991000*%
%ADD26C,0.787000*%
G04 APERTURE END LIST*
D10*
%TO.C,J1*%
X70298000Y-82627500D03*
D11*
X67998000Y-81140000D03*
X67998000Y-89040000D03*
D12*
X67998000Y-84152500D03*
X67998000Y-86027500D03*
D10*
X70298000Y-87552500D03*
D13*
X70658000Y-86390000D03*
X70658000Y-85090000D03*
X70658000Y-85740000D03*
X70658000Y-84440000D03*
X70658000Y-83790000D03*
%TD*%
D14*
%TO.C,REF\u002A\u002A*%
X69342000Y-77978000D03*
%TD*%
%TO.C,REF\u002A\u002A*%
X121158000Y-103124000D03*
%TD*%
%TO.C,REF\u002A\u002A*%
X121158000Y-70612000D03*
%TD*%
D15*
%TO.C,REF\u002A\u002A*%
X81026000Y-81026000D03*
%TD*%
%TO.C,REF\u002A\u002A*%
X81026000Y-89154000D03*
%TD*%
%TO.C,REF\u002A\u002A*%
X89154000Y-81026000D03*
%TD*%
D16*
%TO.C,REF\u002A\u002A*%
X70104000Y-102108000D03*
%TD*%
%TO.C,REF\u002A\u002A*%
X70104000Y-71628000D03*
%TD*%
D17*
%TO.C,SW1*%
X97092000Y-100040000D03*
X105092000Y-100040000D03*
X97092000Y-95540000D03*
X105092000Y-95540000D03*
%TD*%
D18*
%TO.C,X1*%
X89014000Y-93594000D03*
X86614000Y-93594000D03*
X86614000Y-91694000D03*
X89014000Y-91694000D03*
%TD*%
%TO.C,D1*%
G36*
G01*
X92360000Y-85849750D02*
X92360000Y-86362250D01*
G75*
G02*
X92141250Y-86581000I-218750J0D01*
G01*
X91703750Y-86581000D01*
G75*
G02*
X91485000Y-86362250I0J218750D01*
G01*
X91485000Y-85849750D01*
G75*
G02*
X91703750Y-85631000I218750J0D01*
G01*
X92141250Y-85631000D01*
G75*
G02*
X92360000Y-85849750I0J-218750D01*
G01*
G37*
G36*
G01*
X93935000Y-85849750D02*
X93935000Y-86362250D01*
G75*
G02*
X93716250Y-86581000I-218750J0D01*
G01*
X93278750Y-86581000D01*
G75*
G02*
X93060000Y-86362250I0J218750D01*
G01*
X93060000Y-85849750D01*
G75*
G02*
X93278750Y-85631000I218750J0D01*
G01*
X93716250Y-85631000D01*
G75*
G02*
X93935000Y-85849750I0J-218750D01*
G01*
G37*
%TD*%
D19*
%TO.C,U1*%
X82590000Y-88450000D03*
X83090000Y-88450000D03*
X83590000Y-88450000D03*
X84090000Y-88450000D03*
X84590000Y-88450000D03*
X85090000Y-88450000D03*
X85590000Y-88450000D03*
X86090000Y-88450000D03*
X86590000Y-88450000D03*
X87090000Y-88450000D03*
X87590000Y-88450000D03*
X87590000Y-81730000D03*
X87090000Y-81730000D03*
X86590000Y-81730000D03*
X86090000Y-81730000D03*
X85590000Y-81730000D03*
X85090000Y-81730000D03*
X84590000Y-81730000D03*
X84090000Y-81730000D03*
X83590000Y-81730000D03*
X83090000Y-81730000D03*
X82590000Y-81730000D03*
D20*
X81730000Y-82590000D03*
X81730000Y-83090000D03*
X81730000Y-83590000D03*
X81730000Y-84090000D03*
X81730000Y-84590000D03*
X81730000Y-85090000D03*
X81730000Y-85590000D03*
X81730000Y-86090000D03*
X81730000Y-86590000D03*
X81730000Y-87090000D03*
X81730000Y-87590000D03*
X88450000Y-87590000D03*
X88450000Y-87090000D03*
X88450000Y-86590000D03*
X88450000Y-86090000D03*
X88450000Y-85590000D03*
X88450000Y-85090000D03*
X88450000Y-84590000D03*
X88450000Y-84090000D03*
X88450000Y-83590000D03*
X88450000Y-83090000D03*
X88450000Y-82590000D03*
D21*
X85090000Y-85090000D03*
%TD*%
%TO.C,R7*%
G36*
G01*
X101229000Y-90795000D02*
X101229000Y-89545000D01*
G75*
G02*
X101479000Y-89295000I250000J0D01*
G01*
X102229000Y-89295000D01*
G75*
G02*
X102479000Y-89545000I0J-250000D01*
G01*
X102479000Y-90795000D01*
G75*
G02*
X102229000Y-91045000I-250000J0D01*
G01*
X101479000Y-91045000D01*
G75*
G02*
X101229000Y-90795000I0J250000D01*
G01*
G37*
G36*
G01*
X98429000Y-90795000D02*
X98429000Y-89545000D01*
G75*
G02*
X98679000Y-89295000I250000J0D01*
G01*
X99429000Y-89295000D01*
G75*
G02*
X99679000Y-89545000I0J-250000D01*
G01*
X99679000Y-90795000D01*
G75*
G02*
X99429000Y-91045000I-250000J0D01*
G01*
X98679000Y-91045000D01*
G75*
G02*
X98429000Y-90795000I0J250000D01*
G01*
G37*
%TD*%
%TO.C,R6*%
G36*
G01*
X104838000Y-85770500D02*
X104838000Y-85425500D01*
G75*
G02*
X104985500Y-85278000I147500J0D01*
G01*
X105280500Y-85278000D01*
G75*
G02*
X105428000Y-85425500I0J-147500D01*
G01*
X105428000Y-85770500D01*
G75*
G02*
X105280500Y-85918000I-147500J0D01*
G01*
X104985500Y-85918000D01*
G75*
G02*
X104838000Y-85770500I0J147500D01*
G01*
G37*
G36*
G01*
X103868000Y-85770500D02*
X103868000Y-85425500D01*
G75*
G02*
X104015500Y-85278000I147500J0D01*
G01*
X104310500Y-85278000D01*
G75*
G02*
X104458000Y-85425500I0J-147500D01*
G01*
X104458000Y-85770500D01*
G75*
G02*
X104310500Y-85918000I-147500J0D01*
G01*
X104015500Y-85918000D01*
G75*
G02*
X103868000Y-85770500I0J147500D01*
G01*
G37*
%TD*%
%TO.C,R5*%
G36*
G01*
X103314000Y-81452500D02*
X103314000Y-81107500D01*
G75*
G02*
X103461500Y-80960000I147500J0D01*
G01*
X103756500Y-80960000D01*
G75*
G02*
X103904000Y-81107500I0J-147500D01*
G01*
X103904000Y-81452500D01*
G75*
G02*
X103756500Y-81600000I-147500J0D01*
G01*
X103461500Y-81600000D01*
G75*
G02*
X103314000Y-81452500I0J147500D01*
G01*
G37*
G36*
G01*
X102344000Y-81452500D02*
X102344000Y-81107500D01*
G75*
G02*
X102491500Y-80960000I147500J0D01*
G01*
X102786500Y-80960000D01*
G75*
G02*
X102934000Y-81107500I0J-147500D01*
G01*
X102934000Y-81452500D01*
G75*
G02*
X102786500Y-81600000I-147500J0D01*
G01*
X102491500Y-81600000D01*
G75*
G02*
X102344000Y-81452500I0J147500D01*
G01*
G37*
%TD*%
%TO.C,R4*%
G36*
G01*
X93898500Y-88964000D02*
X93553500Y-88964000D01*
G75*
G02*
X93406000Y-88816500I0J147500D01*
G01*
X93406000Y-88521500D01*
G75*
G02*
X93553500Y-88374000I147500J0D01*
G01*
X93898500Y-88374000D01*
G75*
G02*
X94046000Y-88521500I0J-147500D01*
G01*
X94046000Y-88816500D01*
G75*
G02*
X93898500Y-88964000I-147500J0D01*
G01*
G37*
G36*
G01*
X93898500Y-89934000D02*
X93553500Y-89934000D01*
G75*
G02*
X93406000Y-89786500I0J147500D01*
G01*
X93406000Y-89491500D01*
G75*
G02*
X93553500Y-89344000I147500J0D01*
G01*
X93898500Y-89344000D01*
G75*
G02*
X94046000Y-89491500I0J-147500D01*
G01*
X94046000Y-89786500D01*
G75*
G02*
X93898500Y-89934000I-147500J0D01*
G01*
G37*
%TD*%
%TO.C,R3*%
G36*
G01*
X95417000Y-82976500D02*
X95417000Y-82631500D01*
G75*
G02*
X95564500Y-82484000I147500J0D01*
G01*
X95859500Y-82484000D01*
G75*
G02*
X96007000Y-82631500I0J-147500D01*
G01*
X96007000Y-82976500D01*
G75*
G02*
X95859500Y-83124000I-147500J0D01*
G01*
X95564500Y-83124000D01*
G75*
G02*
X95417000Y-82976500I0J147500D01*
G01*
G37*
G36*
G01*
X94447000Y-82976500D02*
X94447000Y-82631500D01*
G75*
G02*
X94594500Y-82484000I147500J0D01*
G01*
X94889500Y-82484000D01*
G75*
G02*
X95037000Y-82631500I0J-147500D01*
G01*
X95037000Y-82976500D01*
G75*
G02*
X94889500Y-83124000I-147500J0D01*
G01*
X94594500Y-83124000D01*
G75*
G02*
X94447000Y-82976500I0J147500D01*
G01*
G37*
%TD*%
%TO.C,R2*%
G36*
G01*
X77257000Y-83393500D02*
X77257000Y-83738500D01*
G75*
G02*
X77109500Y-83886000I-147500J0D01*
G01*
X76814500Y-83886000D01*
G75*
G02*
X76667000Y-83738500I0J147500D01*
G01*
X76667000Y-83393500D01*
G75*
G02*
X76814500Y-83246000I147500J0D01*
G01*
X77109500Y-83246000D01*
G75*
G02*
X77257000Y-83393500I0J-147500D01*
G01*
G37*
G36*
G01*
X78227000Y-83393500D02*
X78227000Y-83738500D01*
G75*
G02*
X78079500Y-83886000I-147500J0D01*
G01*
X77784500Y-83886000D01*
G75*
G02*
X77637000Y-83738500I0J147500D01*
G01*
X77637000Y-83393500D01*
G75*
G02*
X77784500Y-83246000I147500J0D01*
G01*
X78079500Y-83246000D01*
G75*
G02*
X78227000Y-83393500I0J-147500D01*
G01*
G37*
%TD*%
%TO.C,R1*%
G36*
G01*
X74740000Y-84917500D02*
X74740000Y-85262500D01*
G75*
G02*
X74592500Y-85410000I-147500J0D01*
G01*
X74297500Y-85410000D01*
G75*
G02*
X74150000Y-85262500I0J147500D01*
G01*
X74150000Y-84917500D01*
G75*
G02*
X74297500Y-84770000I147500J0D01*
G01*
X74592500Y-84770000D01*
G75*
G02*
X74740000Y-84917500I0J-147500D01*
G01*
G37*
G36*
G01*
X75710000Y-84917500D02*
X75710000Y-85262500D01*
G75*
G02*
X75562500Y-85410000I-147500J0D01*
G01*
X75267500Y-85410000D01*
G75*
G02*
X75120000Y-85262500I0J147500D01*
G01*
X75120000Y-84917500D01*
G75*
G02*
X75267500Y-84770000I147500J0D01*
G01*
X75562500Y-84770000D01*
G75*
G02*
X75710000Y-84917500I0J-147500D01*
G01*
G37*
%TD*%
D22*
%TO.C,J3*%
X113642000Y-77173000D03*
D23*
X113642000Y-79943000D03*
X116482000Y-78558000D03*
D24*
X115082000Y-103518000D03*
X115082000Y-70218000D03*
D23*
X113642000Y-82713000D03*
X113642000Y-85483000D03*
X113642000Y-88253000D03*
X113642000Y-91023000D03*
X113642000Y-93793000D03*
X113642000Y-96563000D03*
X116482000Y-81328000D03*
X116482000Y-84098000D03*
X116482000Y-86868000D03*
X116482000Y-89638000D03*
X116482000Y-92408000D03*
X116482000Y-95178000D03*
%TD*%
D25*
%TO.C,J2*%
X74930000Y-92710000D03*
X75946000Y-97790000D03*
X73914000Y-97790000D03*
D26*
X74295000Y-93980000D03*
X75565000Y-93980000D03*
X74295000Y-95250000D03*
X75565000Y-95250000D03*
X74295000Y-96520000D03*
X75565000Y-96520000D03*
%TD*%
%TO.C,C10*%
G36*
G01*
X100411500Y-86296000D02*
X100756500Y-86296000D01*
G75*
G02*
X100904000Y-86443500I0J-147500D01*
G01*
X100904000Y-86738500D01*
G75*
G02*
X100756500Y-86886000I-147500J0D01*
G01*
X100411500Y-86886000D01*
G75*
G02*
X100264000Y-86738500I0J147500D01*
G01*
X100264000Y-86443500D01*
G75*
G02*
X100411500Y-86296000I147500J0D01*
G01*
G37*
G36*
G01*
X100411500Y-85326000D02*
X100756500Y-85326000D01*
G75*
G02*
X100904000Y-85473500I0J-147500D01*
G01*
X100904000Y-85768500D01*
G75*
G02*
X100756500Y-85916000I-147500J0D01*
G01*
X100411500Y-85916000D01*
G75*
G02*
X100264000Y-85768500I0J147500D01*
G01*
X100264000Y-85473500D01*
G75*
G02*
X100411500Y-85326000I147500J0D01*
G01*
G37*
%TD*%
%TO.C,C9*%
G36*
G01*
X98978500Y-82614000D02*
X98633500Y-82614000D01*
G75*
G02*
X98486000Y-82466500I0J147500D01*
G01*
X98486000Y-82171500D01*
G75*
G02*
X98633500Y-82024000I147500J0D01*
G01*
X98978500Y-82024000D01*
G75*
G02*
X99126000Y-82171500I0J-147500D01*
G01*
X99126000Y-82466500D01*
G75*
G02*
X98978500Y-82614000I-147500J0D01*
G01*
G37*
G36*
G01*
X98978500Y-83584000D02*
X98633500Y-83584000D01*
G75*
G02*
X98486000Y-83436500I0J147500D01*
G01*
X98486000Y-83141500D01*
G75*
G02*
X98633500Y-82994000I147500J0D01*
G01*
X98978500Y-82994000D01*
G75*
G02*
X99126000Y-83141500I0J-147500D01*
G01*
X99126000Y-83436500D01*
G75*
G02*
X98978500Y-83584000I-147500J0D01*
G01*
G37*
%TD*%
%TO.C,C8*%
G36*
G01*
X94424000Y-92628500D02*
X94424000Y-92283500D01*
G75*
G02*
X94571500Y-92136000I147500J0D01*
G01*
X94866500Y-92136000D01*
G75*
G02*
X95014000Y-92283500I0J-147500D01*
G01*
X95014000Y-92628500D01*
G75*
G02*
X94866500Y-92776000I-147500J0D01*
G01*
X94571500Y-92776000D01*
G75*
G02*
X94424000Y-92628500I0J147500D01*
G01*
G37*
G36*
G01*
X93454000Y-92628500D02*
X93454000Y-92283500D01*
G75*
G02*
X93601500Y-92136000I147500J0D01*
G01*
X93896500Y-92136000D01*
G75*
G02*
X94044000Y-92283500I0J-147500D01*
G01*
X94044000Y-92628500D01*
G75*
G02*
X93896500Y-92776000I-147500J0D01*
G01*
X93601500Y-92776000D01*
G75*
G02*
X93454000Y-92628500I0J147500D01*
G01*
G37*
%TD*%
%TO.C,C7*%
G36*
G01*
X91376000Y-94660500D02*
X91376000Y-94315500D01*
G75*
G02*
X91523500Y-94168000I147500J0D01*
G01*
X91818500Y-94168000D01*
G75*
G02*
X91966000Y-94315500I0J-147500D01*
G01*
X91966000Y-94660500D01*
G75*
G02*
X91818500Y-94808000I-147500J0D01*
G01*
X91523500Y-94808000D01*
G75*
G02*
X91376000Y-94660500I0J147500D01*
G01*
G37*
G36*
G01*
X90406000Y-94660500D02*
X90406000Y-94315500D01*
G75*
G02*
X90553500Y-94168000I147500J0D01*
G01*
X90848500Y-94168000D01*
G75*
G02*
X90996000Y-94315500I0J-147500D01*
G01*
X90996000Y-94660500D01*
G75*
G02*
X90848500Y-94808000I-147500J0D01*
G01*
X90553500Y-94808000D01*
G75*
G02*
X90406000Y-94660500I0J147500D01*
G01*
G37*
%TD*%
%TO.C,C6*%
G36*
G01*
X83738500Y-75502000D02*
X83393500Y-75502000D01*
G75*
G02*
X83246000Y-75354500I0J147500D01*
G01*
X83246000Y-75059500D01*
G75*
G02*
X83393500Y-74912000I147500J0D01*
G01*
X83738500Y-74912000D01*
G75*
G02*
X83886000Y-75059500I0J-147500D01*
G01*
X83886000Y-75354500D01*
G75*
G02*
X83738500Y-75502000I-147500J0D01*
G01*
G37*
G36*
G01*
X83738500Y-76472000D02*
X83393500Y-76472000D01*
G75*
G02*
X83246000Y-76324500I0J147500D01*
G01*
X83246000Y-76029500D01*
G75*
G02*
X83393500Y-75882000I147500J0D01*
G01*
X83738500Y-75882000D01*
G75*
G02*
X83886000Y-76029500I0J-147500D01*
G01*
X83886000Y-76324500D01*
G75*
G02*
X83738500Y-76472000I-147500J0D01*
G01*
G37*
%TD*%
%TO.C,C5*%
G36*
G01*
X90251500Y-98719000D02*
X90596500Y-98719000D01*
G75*
G02*
X90744000Y-98866500I0J-147500D01*
G01*
X90744000Y-99161500D01*
G75*
G02*
X90596500Y-99309000I-147500J0D01*
G01*
X90251500Y-99309000D01*
G75*
G02*
X90104000Y-99161500I0J147500D01*
G01*
X90104000Y-98866500D01*
G75*
G02*
X90251500Y-98719000I147500J0D01*
G01*
G37*
G36*
G01*
X90251500Y-97749000D02*
X90596500Y-97749000D01*
G75*
G02*
X90744000Y-97896500I0J-147500D01*
G01*
X90744000Y-98191500D01*
G75*
G02*
X90596500Y-98339000I-147500J0D01*
G01*
X90251500Y-98339000D01*
G75*
G02*
X90104000Y-98191500I0J147500D01*
G01*
X90104000Y-97896500D01*
G75*
G02*
X90251500Y-97749000I147500J0D01*
G01*
G37*
%TD*%
%TO.C,C4*%
G36*
G01*
X86695500Y-98742000D02*
X87040500Y-98742000D01*
G75*
G02*
X87188000Y-98889500I0J-147500D01*
G01*
X87188000Y-99184500D01*
G75*
G02*
X87040500Y-99332000I-147500J0D01*
G01*
X86695500Y-99332000D01*
G75*
G02*
X86548000Y-99184500I0J147500D01*
G01*
X86548000Y-98889500D01*
G75*
G02*
X86695500Y-98742000I147500J0D01*
G01*
G37*
G36*
G01*
X86695500Y-97772000D02*
X87040500Y-97772000D01*
G75*
G02*
X87188000Y-97919500I0J-147500D01*
G01*
X87188000Y-98214500D01*
G75*
G02*
X87040500Y-98362000I-147500J0D01*
G01*
X86695500Y-98362000D01*
G75*
G02*
X86548000Y-98214500I0J147500D01*
G01*
X86548000Y-97919500D01*
G75*
G02*
X86695500Y-97772000I147500J0D01*
G01*
G37*
%TD*%
%TO.C,C3*%
G36*
G01*
X83139500Y-98742000D02*
X83484500Y-98742000D01*
G75*
G02*
X83632000Y-98889500I0J-147500D01*
G01*
X83632000Y-99184500D01*
G75*
G02*
X83484500Y-99332000I-147500J0D01*
G01*
X83139500Y-99332000D01*
G75*
G02*
X82992000Y-99184500I0J147500D01*
G01*
X82992000Y-98889500D01*
G75*
G02*
X83139500Y-98742000I147500J0D01*
G01*
G37*
G36*
G01*
X83139500Y-97772000D02*
X83484500Y-97772000D01*
G75*
G02*
X83632000Y-97919500I0J-147500D01*
G01*
X83632000Y-98214500D01*
G75*
G02*
X83484500Y-98362000I-147500J0D01*
G01*
X83139500Y-98362000D01*
G75*
G02*
X82992000Y-98214500I0J147500D01*
G01*
X82992000Y-97919500D01*
G75*
G02*
X83139500Y-97772000I147500J0D01*
G01*
G37*
%TD*%
%TO.C,C2*%
G36*
G01*
X81198500Y-78042000D02*
X80853500Y-78042000D01*
G75*
G02*
X80706000Y-77894500I0J147500D01*
G01*
X80706000Y-77599500D01*
G75*
G02*
X80853500Y-77452000I147500J0D01*
G01*
X81198500Y-77452000D01*
G75*
G02*
X81346000Y-77599500I0J-147500D01*
G01*
X81346000Y-77894500D01*
G75*
G02*
X81198500Y-78042000I-147500J0D01*
G01*
G37*
G36*
G01*
X81198500Y-79012000D02*
X80853500Y-79012000D01*
G75*
G02*
X80706000Y-78864500I0J147500D01*
G01*
X80706000Y-78569500D01*
G75*
G02*
X80853500Y-78422000I147500J0D01*
G01*
X81198500Y-78422000D01*
G75*
G02*
X81346000Y-78569500I0J-147500D01*
G01*
X81346000Y-78864500D01*
G75*
G02*
X81198500Y-79012000I-147500J0D01*
G01*
G37*
%TD*%
%TO.C,C1*%
G36*
G01*
X77642500Y-78019000D02*
X77297500Y-78019000D01*
G75*
G02*
X77150000Y-77871500I0J147500D01*
G01*
X77150000Y-77576500D01*
G75*
G02*
X77297500Y-77429000I147500J0D01*
G01*
X77642500Y-77429000D01*
G75*
G02*
X77790000Y-77576500I0J-147500D01*
G01*
X77790000Y-77871500D01*
G75*
G02*
X77642500Y-78019000I-147500J0D01*
G01*
G37*
G36*
G01*
X77642500Y-78989000D02*
X77297500Y-78989000D01*
G75*
G02*
X77150000Y-78841500I0J147500D01*
G01*
X77150000Y-78546500D01*
G75*
G02*
X77297500Y-78399000I147500J0D01*
G01*
X77642500Y-78399000D01*
G75*
G02*
X77790000Y-78546500I0J-147500D01*
G01*
X77790000Y-78841500D01*
G75*
G02*
X77642500Y-78989000I-147500J0D01*
G01*
G37*
%TD*%
M02*
