%TF.GenerationSoftware,KiCad,Pcbnew,(5.1.6-85-g2d1f6937d)*%
%TF.CreationDate,2020-09-21T09:30:11-07:00*%
%TF.ProjectId,3DProUsb,33445072-6f55-4736-922e-6b696361645f,rev?*%
%TF.SameCoordinates,Original*%
%TF.FileFunction,Copper,L2,Bot*%
%TF.FilePolarity,Positive*%
%FSLAX46Y46*%
G04 Gerber Fmt 4.6, Leading zero omitted, Abs format (unit mm)*
G04 Created by KiCad (PCBNEW (5.1.6-85-g2d1f6937d)) date 2020-09-21 09:30:11*
%MOMM*%
%LPD*%
G01*
G04 APERTURE LIST*
%TA.AperFunction,ComponentPad*%
%ADD10O,2.416000X1.208000*%
%TD*%
%TA.AperFunction,ComponentPad*%
%ADD11C,6.400000*%
%TD*%
%TA.AperFunction,ComponentPad*%
%ADD12R,1.508000X1.508000*%
%TD*%
%TA.AperFunction,ComponentPad*%
%ADD13C,1.508000*%
%TD*%
%TA.AperFunction,ComponentPad*%
%ADD14C,4.066000*%
%TD*%
%TA.AperFunction,ViaPad*%
%ADD15C,0.800000*%
%TD*%
%TA.AperFunction,Conductor*%
%ADD16C,0.250000*%
%TD*%
%TA.AperFunction,Conductor*%
%ADD17C,0.750000*%
%TD*%
%TA.AperFunction,Conductor*%
%ADD18C,0.254000*%
%TD*%
%TA.AperFunction,Conductor*%
%ADD19C,0.100000*%
%TD*%
G04 APERTURE END LIST*
D10*
%TO.P,J1,SH1*%
%TO.N,Net-(J1-PadSH1)*%
X67998000Y-81140000D03*
%TO.P,J1,SH6*%
%TO.N,Net-(J1-PadSH6)*%
X67998000Y-89040000D03*
%TD*%
D11*
%TO.P,REF\u002A\u002A,1*%
%TO.N,N/C*%
X70104000Y-102108000D03*
%TD*%
%TO.P,REF\u002A\u002A,1*%
%TO.N,N/C*%
X70104000Y-71628000D03*
%TD*%
D12*
%TO.P,J3,1*%
%TO.N,VCC*%
X113642000Y-77173000D03*
D13*
%TO.P,J3,2*%
%TO.N,Net-(J3-Pad2)*%
X113642000Y-79943000D03*
%TO.P,J3,9*%
%TO.N,Net-(J3-Pad9)*%
X116482000Y-78558000D03*
D14*
%TO.P,J3,S1*%
%TO.N,N/C*%
X115082000Y-103518000D03*
%TO.P,J3,S2*%
X115082000Y-70218000D03*
D13*
%TO.P,J3,3*%
%TO.N,Net-(J3-Pad3)*%
X113642000Y-82713000D03*
%TO.P,J3,4*%
%TO.N,Earth*%
X113642000Y-85483000D03*
%TO.P,J3,5*%
%TO.N,Net-(J3-Pad5)*%
X113642000Y-88253000D03*
%TO.P,J3,6*%
%TO.N,Net-(J3-Pad6)*%
X113642000Y-91023000D03*
%TO.P,J3,7*%
%TO.N,SCLK*%
X113642000Y-93793000D03*
%TO.P,J3,8*%
%TO.N,Net-(J3-Pad8)*%
X113642000Y-96563000D03*
%TO.P,J3,10*%
%TO.N,MOSI*%
X116482000Y-81328000D03*
%TO.P,J3,11*%
%TO.N,Net-(J3-Pad11)*%
X116482000Y-84098000D03*
%TO.P,J3,12*%
%TO.N,Net-(J3-Pad12)*%
X116482000Y-86868000D03*
%TO.P,J3,13*%
%TO.N,Net-(J3-Pad11)*%
X116482000Y-89638000D03*
%TO.P,J3,14*%
%TO.N,MISO*%
X116482000Y-92408000D03*
%TO.P,J3,15*%
%TO.N,Net-(J3-Pad15)*%
X116482000Y-95178000D03*
%TD*%
D15*
%TO.N,Earth*%
X100584000Y-81280000D03*
X100584000Y-77470000D03*
X98806000Y-94234000D03*
X98806000Y-96012000D03*
X108597000Y-85483000D03*
X88646000Y-77216000D03*
X93472000Y-99060000D03*
X96520000Y-93472000D03*
X97028000Y-88900000D03*
X81280000Y-91948000D03*
X84074000Y-91948000D03*
X121273000Y-85483000D03*
%TO.N,VCC*%
X75946000Y-82550000D03*
X80518000Y-95250000D03*
X83566000Y-95250000D03*
X76708000Y-85090000D03*
X84582000Y-93218000D03*
X90424000Y-78486000D03*
X76962000Y-92202000D03*
X90678000Y-88392000D03*
X72263000Y-86487000D03*
%TO.N,Net-(J1-Pad2)*%
X73660000Y-83566000D03*
X73406000Y-85852000D03*
%TO.N,MISO*%
X80010000Y-92964000D03*
%TO.N,MOSI*%
X78994000Y-87122000D03*
X77216000Y-95250000D03*
%TO.N,Net-(J3-Pad2)*%
X74422000Y-87122000D03*
%TO.N,Net-(J3-Pad12)*%
X107414001Y-89943999D03*
%TD*%
D16*
%TO.N,Earth*%
X84074000Y-91948000D02*
X84074000Y-91948000D01*
X81280000Y-91948000D02*
X84074000Y-91948000D01*
X77978000Y-103632000D02*
X77978000Y-103886000D01*
X68580000Y-94234000D02*
X77978000Y-103632000D01*
X97028000Y-92964000D02*
X96520000Y-93472000D01*
X97028000Y-88900000D02*
X97028000Y-92964000D01*
X104394000Y-81280000D02*
X108597000Y-85483000D01*
X100584000Y-81280000D02*
X104394000Y-81280000D01*
D17*
%TO.N,VCC*%
X80518000Y-95250000D02*
X83566000Y-95250000D01*
D16*
X83566000Y-95250000D02*
X83566000Y-95250000D01*
D17*
X75946000Y-82550000D02*
X75946000Y-84328000D01*
X75946000Y-84328000D02*
X76708000Y-85090000D01*
D16*
X76708000Y-85090000D02*
X76708000Y-85090000D01*
D17*
X112329000Y-78486000D02*
X113642000Y-77173000D01*
X90424000Y-78486000D02*
X112329000Y-78486000D01*
X76708000Y-91948000D02*
X76962000Y-92202000D01*
X89154000Y-89916000D02*
X90678000Y-88392000D01*
X85852000Y-89916000D02*
X89154000Y-89916000D01*
X85090000Y-90678000D02*
X85852000Y-89916000D01*
X85090000Y-92710000D02*
X85090000Y-90678000D01*
X84582000Y-93218000D02*
X85090000Y-92710000D01*
X76708000Y-85090000D02*
X76708000Y-88392000D01*
X76708000Y-88392000D02*
X74168000Y-88392000D01*
X76708000Y-88392000D02*
X76708000Y-91948000D01*
X74168000Y-88392000D02*
X72263000Y-86487000D01*
D16*
X72263000Y-86487000D02*
X72136000Y-86360000D01*
%TO.N,Net-(J1-Pad2)*%
X73660000Y-83566000D02*
X73660000Y-85598000D01*
X73660000Y-85598000D02*
X73406000Y-85852000D01*
X73406000Y-85852000D02*
X73406000Y-85852000D01*
%TO.N,MISO*%
X116482000Y-92549922D02*
X116482000Y-92408000D01*
X114554000Y-95250000D02*
X84639002Y-95250000D01*
X115062000Y-94742000D02*
X114554000Y-95250000D01*
X115062000Y-93828000D02*
X115062000Y-94742000D01*
X116482000Y-92408000D02*
X115062000Y-93828000D01*
X80010000Y-92964000D02*
X80010000Y-93726000D01*
X80010000Y-93726000D02*
X80808999Y-94524999D01*
X83914001Y-94524999D02*
X84639002Y-95250000D01*
X80808999Y-94524999D02*
X83914001Y-94524999D01*
%TO.N,MOSI*%
X78994000Y-87122000D02*
X78994000Y-87122000D01*
X78994000Y-87122000D02*
X77724000Y-88392000D01*
X77724000Y-88392000D02*
X77724000Y-94234000D01*
X77724000Y-94234000D02*
X77216000Y-94742000D01*
X77216000Y-94742000D02*
X77216000Y-95250000D01*
X77216000Y-95250000D02*
X77216000Y-95250000D01*
X78994000Y-82042000D02*
X78994000Y-87122000D01*
X80642990Y-80393010D02*
X78994000Y-82042000D01*
X111760000Y-80393010D02*
X80642990Y-80393010D01*
X112694990Y-81328000D02*
X111760000Y-80393010D01*
X116482000Y-81328000D02*
X112694990Y-81328000D01*
%TO.N,Net-(J3-Pad2)*%
X113642000Y-79943000D02*
X77479998Y-79943000D01*
X74422000Y-83000998D02*
X77479998Y-79943000D01*
X74422000Y-87122000D02*
X74422000Y-83000998D01*
%TO.N,Net-(J3-Pad11)*%
X116482000Y-89638000D02*
X118340000Y-89638000D01*
X116482000Y-84098000D02*
X118340000Y-84098000D01*
X118340000Y-84098000D02*
X119126000Y-84884000D01*
X119126000Y-84884000D02*
X119126000Y-88900000D01*
X119126000Y-88900000D02*
X118364000Y-89662000D01*
%TO.N,Net-(J3-Pad12)*%
X107414001Y-89943999D02*
X107414001Y-89943999D01*
X116482000Y-86868000D02*
X116482000Y-87480000D01*
X116482000Y-87480000D02*
X114300000Y-89662000D01*
X107696000Y-89662000D02*
X107414001Y-89943999D01*
X114300000Y-89662000D02*
X107696000Y-89662000D01*
%TD*%
D18*
%TO.N,Earth*%
X113818228Y-67853649D02*
X113381249Y-68145629D01*
X113009629Y-68517249D01*
X112717649Y-68954228D01*
X112516530Y-69439773D01*
X112414000Y-69955225D01*
X112414000Y-70480775D01*
X112516530Y-70996227D01*
X112717649Y-71481772D01*
X113009629Y-71918751D01*
X113381249Y-72290371D01*
X113818228Y-72582351D01*
X114303773Y-72783470D01*
X114819225Y-72886000D01*
X115344775Y-72886000D01*
X115860227Y-72783470D01*
X116345772Y-72582351D01*
X116782751Y-72290371D01*
X117154371Y-71918751D01*
X117446351Y-71481772D01*
X117647470Y-70996227D01*
X117750000Y-70480775D01*
X117750000Y-69955225D01*
X117647470Y-69439773D01*
X117446351Y-68954228D01*
X117154371Y-68517249D01*
X116782751Y-68145629D01*
X116345772Y-67853649D01*
X116013457Y-67716000D01*
X122903721Y-67716000D01*
X123152540Y-67740397D01*
X123360833Y-67803285D01*
X123552937Y-67905428D01*
X123721553Y-68042947D01*
X123860241Y-68210593D01*
X123963726Y-68401985D01*
X124028066Y-68609835D01*
X124054000Y-68856581D01*
X124054001Y-104869711D01*
X124029603Y-105118540D01*
X123966717Y-105326830D01*
X123864572Y-105518938D01*
X123727052Y-105687554D01*
X123559409Y-105826240D01*
X123368017Y-105929725D01*
X123160166Y-105994066D01*
X122913419Y-106020000D01*
X116013457Y-106020000D01*
X116345772Y-105882351D01*
X116782751Y-105590371D01*
X117154371Y-105218751D01*
X117446351Y-104781772D01*
X117647470Y-104296227D01*
X117750000Y-103780775D01*
X117750000Y-103255225D01*
X117647470Y-102739773D01*
X117446351Y-102254228D01*
X117154371Y-101817249D01*
X116782751Y-101445629D01*
X116345772Y-101153649D01*
X115860227Y-100952530D01*
X115344775Y-100850000D01*
X114819225Y-100850000D01*
X114303773Y-100952530D01*
X113818228Y-101153649D01*
X113381249Y-101445629D01*
X113009629Y-101817249D01*
X112717649Y-102254228D01*
X112516530Y-102739773D01*
X112414000Y-103255225D01*
X112414000Y-103780775D01*
X112516530Y-104296227D01*
X112717649Y-104781772D01*
X113009629Y-105218751D01*
X113381249Y-105590371D01*
X113818228Y-105882351D01*
X114150543Y-106020000D01*
X67342279Y-106020000D01*
X67093460Y-105995603D01*
X66885170Y-105932717D01*
X66693062Y-105830572D01*
X66524446Y-105693052D01*
X66385760Y-105525409D01*
X66282275Y-105334017D01*
X66217934Y-105126166D01*
X66192000Y-104879419D01*
X66192000Y-101730285D01*
X66269000Y-101730285D01*
X66269000Y-102485715D01*
X66416377Y-103226628D01*
X66705467Y-103924554D01*
X67125161Y-104552670D01*
X67659330Y-105086839D01*
X68287446Y-105506533D01*
X68985372Y-105795623D01*
X69726285Y-105943000D01*
X70481715Y-105943000D01*
X71222628Y-105795623D01*
X71920554Y-105506533D01*
X72548670Y-105086839D01*
X73082839Y-104552670D01*
X73502533Y-103924554D01*
X73791623Y-103226628D01*
X73939000Y-102485715D01*
X73939000Y-101730285D01*
X73791623Y-100989372D01*
X73676318Y-100711000D01*
X78486000Y-100711000D01*
X78510776Y-100708560D01*
X78534601Y-100701333D01*
X78556557Y-100689597D01*
X78575803Y-100673803D01*
X78591597Y-100654557D01*
X78603333Y-100632601D01*
X78610560Y-100608776D01*
X78613000Y-100584000D01*
X78613000Y-89916000D01*
X78610560Y-89891224D01*
X78603333Y-89867399D01*
X78591597Y-89845443D01*
X78575803Y-89826197D01*
X78556557Y-89810403D01*
X78534601Y-89798667D01*
X78510776Y-89791440D01*
X78486000Y-89789000D01*
X78484000Y-89789000D01*
X78484000Y-88706801D01*
X79033802Y-88157000D01*
X79095939Y-88157000D01*
X79295898Y-88117226D01*
X79484256Y-88039205D01*
X79653774Y-87925937D01*
X79797937Y-87781774D01*
X79911205Y-87612256D01*
X79989226Y-87423898D01*
X80029000Y-87223939D01*
X80029000Y-87020061D01*
X79989226Y-86820102D01*
X79911205Y-86631744D01*
X79797937Y-86462226D01*
X79754000Y-86418289D01*
X79754000Y-85555334D01*
X112248155Y-85555334D01*
X112289049Y-85825870D01*
X112381937Y-86083229D01*
X112442873Y-86197235D01*
X112682149Y-86263246D01*
X113462395Y-85483000D01*
X113821605Y-85483000D01*
X114601851Y-86263246D01*
X114841127Y-86197235D01*
X114957426Y-85949574D01*
X115023174Y-85683982D01*
X115035845Y-85410666D01*
X114994951Y-85140130D01*
X114902063Y-84882771D01*
X114841127Y-84768765D01*
X114601851Y-84702754D01*
X113821605Y-85483000D01*
X113462395Y-85483000D01*
X112682149Y-84702754D01*
X112442873Y-84768765D01*
X112326574Y-85016426D01*
X112260826Y-85282018D01*
X112248155Y-85555334D01*
X79754000Y-85555334D01*
X79754000Y-82356801D01*
X80957792Y-81153010D01*
X111445199Y-81153010D01*
X112131191Y-81839003D01*
X112154989Y-81868001D01*
X112183987Y-81891799D01*
X112270714Y-81962974D01*
X112402743Y-82033546D01*
X112421632Y-82039276D01*
X112411084Y-82055062D01*
X112306378Y-82307844D01*
X112253000Y-82576195D01*
X112253000Y-82849805D01*
X112306378Y-83118156D01*
X112411084Y-83370938D01*
X112563093Y-83598436D01*
X112756564Y-83791907D01*
X112984062Y-83943916D01*
X113236844Y-84048622D01*
X113496341Y-84100239D01*
X113299130Y-84130049D01*
X113041771Y-84222937D01*
X112927765Y-84283873D01*
X112861754Y-84523149D01*
X113642000Y-85303395D01*
X114422246Y-84523149D01*
X114356235Y-84283873D01*
X114108574Y-84167574D01*
X113842982Y-84101826D01*
X113791645Y-84099446D01*
X114047156Y-84048622D01*
X114299938Y-83943916D01*
X114527436Y-83791907D01*
X114720907Y-83598436D01*
X114872916Y-83370938D01*
X114977622Y-83118156D01*
X115031000Y-82849805D01*
X115031000Y-82576195D01*
X114977622Y-82307844D01*
X114886559Y-82088000D01*
X115319280Y-82088000D01*
X115403093Y-82213436D01*
X115596564Y-82406907D01*
X115824062Y-82558916D01*
X116076844Y-82663622D01*
X116325086Y-82713000D01*
X116076844Y-82762378D01*
X115824062Y-82867084D01*
X115596564Y-83019093D01*
X115403093Y-83212564D01*
X115251084Y-83440062D01*
X115146378Y-83692844D01*
X115093000Y-83961195D01*
X115093000Y-84234805D01*
X115146378Y-84503156D01*
X115251084Y-84755938D01*
X115403093Y-84983436D01*
X115596564Y-85176907D01*
X115824062Y-85328916D01*
X116076844Y-85433622D01*
X116325086Y-85483000D01*
X116076844Y-85532378D01*
X115824062Y-85637084D01*
X115596564Y-85789093D01*
X115403093Y-85982564D01*
X115251084Y-86210062D01*
X115146378Y-86462844D01*
X115093000Y-86731195D01*
X115093000Y-87004805D01*
X115146378Y-87273156D01*
X115251084Y-87525938D01*
X115295214Y-87591984D01*
X114987864Y-87899334D01*
X114977622Y-87847844D01*
X114872916Y-87595062D01*
X114720907Y-87367564D01*
X114527436Y-87174093D01*
X114299938Y-87022084D01*
X114047156Y-86917378D01*
X113787659Y-86865761D01*
X113984870Y-86835951D01*
X114242229Y-86743063D01*
X114356235Y-86682127D01*
X114422246Y-86442851D01*
X113642000Y-85662605D01*
X112861754Y-86442851D01*
X112927765Y-86682127D01*
X113175426Y-86798426D01*
X113441018Y-86864174D01*
X113492355Y-86866554D01*
X113236844Y-86917378D01*
X112984062Y-87022084D01*
X112756564Y-87174093D01*
X112563093Y-87367564D01*
X112411084Y-87595062D01*
X112306378Y-87847844D01*
X112253000Y-88116195D01*
X112253000Y-88389805D01*
X112306378Y-88658156D01*
X112407382Y-88902000D01*
X107733323Y-88902000D01*
X107696000Y-88898324D01*
X107658677Y-88902000D01*
X107658667Y-88902000D01*
X107547014Y-88912997D01*
X107542668Y-88914315D01*
X107515940Y-88908999D01*
X107312062Y-88908999D01*
X107112103Y-88948773D01*
X106923745Y-89026794D01*
X106754227Y-89140062D01*
X106610064Y-89284225D01*
X106496796Y-89453743D01*
X106418775Y-89642101D01*
X106379001Y-89842060D01*
X106379001Y-90045938D01*
X106418775Y-90245897D01*
X106496796Y-90434255D01*
X106610064Y-90603773D01*
X106754227Y-90747936D01*
X106923745Y-90861204D01*
X107112103Y-90939225D01*
X107312062Y-90978999D01*
X107515940Y-90978999D01*
X107715899Y-90939225D01*
X107904257Y-90861204D01*
X108073775Y-90747936D01*
X108217938Y-90603773D01*
X108331206Y-90434255D01*
X108336282Y-90422000D01*
X112387499Y-90422000D01*
X112306378Y-90617844D01*
X112253000Y-90886195D01*
X112253000Y-91159805D01*
X112306378Y-91428156D01*
X112411084Y-91680938D01*
X112563093Y-91908436D01*
X112756564Y-92101907D01*
X112984062Y-92253916D01*
X113236844Y-92358622D01*
X113485086Y-92408000D01*
X113236844Y-92457378D01*
X112984062Y-92562084D01*
X112756564Y-92714093D01*
X112563093Y-92907564D01*
X112411084Y-93135062D01*
X112306378Y-93387844D01*
X112253000Y-93656195D01*
X112253000Y-93929805D01*
X112306378Y-94198156D01*
X112411084Y-94450938D01*
X112437184Y-94490000D01*
X90297000Y-94490000D01*
X90297000Y-90678000D01*
X90294560Y-90653224D01*
X90287333Y-90629399D01*
X90275597Y-90607443D01*
X90259803Y-90588197D01*
X90240557Y-90572403D01*
X90218601Y-90560667D01*
X90194776Y-90553440D01*
X90170000Y-90551000D01*
X89947355Y-90551000D01*
X91231226Y-89267130D01*
X91337774Y-89195937D01*
X91481937Y-89051774D01*
X91595205Y-88882256D01*
X91673226Y-88693898D01*
X91713000Y-88493939D01*
X91713000Y-88290061D01*
X91673226Y-88090102D01*
X91595205Y-87901744D01*
X91481937Y-87732226D01*
X91337774Y-87588063D01*
X91168256Y-87474795D01*
X90979898Y-87396774D01*
X90779939Y-87357000D01*
X90576061Y-87357000D01*
X90376102Y-87396774D01*
X90187744Y-87474795D01*
X90018226Y-87588063D01*
X89874063Y-87732226D01*
X89802870Y-87838774D01*
X88735645Y-88906000D01*
X85901608Y-88906000D01*
X85852000Y-88901114D01*
X85654005Y-88920615D01*
X85486162Y-88971530D01*
X85463620Y-88978368D01*
X85288160Y-89072153D01*
X85134367Y-89198367D01*
X85102743Y-89236901D01*
X84410901Y-89928744D01*
X84372368Y-89960367D01*
X84340745Y-89998900D01*
X84340744Y-89998901D01*
X84246154Y-90114160D01*
X84152368Y-90289621D01*
X84094615Y-90480006D01*
X84075114Y-90678000D01*
X84080001Y-90727617D01*
X84080000Y-92291645D01*
X84028777Y-92342868D01*
X83922226Y-92414063D01*
X83778063Y-92558226D01*
X83664795Y-92727744D01*
X83586774Y-92916102D01*
X83547000Y-93116061D01*
X83547000Y-93319939D01*
X83586774Y-93519898D01*
X83664795Y-93708256D01*
X83702709Y-93764999D01*
X81123801Y-93764999D01*
X80881484Y-93522683D01*
X80927205Y-93454256D01*
X81005226Y-93265898D01*
X81045000Y-93065939D01*
X81045000Y-92862061D01*
X81005226Y-92662102D01*
X80927205Y-92473744D01*
X80813937Y-92304226D01*
X80669774Y-92160063D01*
X80500256Y-92046795D01*
X80311898Y-91968774D01*
X80111939Y-91929000D01*
X79908061Y-91929000D01*
X79708102Y-91968774D01*
X79519744Y-92046795D01*
X79350226Y-92160063D01*
X79206063Y-92304226D01*
X79092795Y-92473744D01*
X79014774Y-92662102D01*
X78975000Y-92862061D01*
X78975000Y-93065939D01*
X79014774Y-93265898D01*
X79092795Y-93454256D01*
X79206063Y-93623774D01*
X79250000Y-93667711D01*
X79250000Y-93688678D01*
X79246324Y-93726000D01*
X79250000Y-93763322D01*
X79250000Y-93763333D01*
X79260997Y-93874986D01*
X79279394Y-93935632D01*
X79304454Y-94018246D01*
X79375026Y-94150276D01*
X79441274Y-94230998D01*
X79470000Y-94266001D01*
X79498998Y-94289799D01*
X79756744Y-94547545D01*
X79714063Y-94590226D01*
X79600795Y-94759744D01*
X79522774Y-94948102D01*
X79483000Y-95148061D01*
X79483000Y-95351939D01*
X79522774Y-95551898D01*
X79600795Y-95740256D01*
X79714063Y-95909774D01*
X79858226Y-96053937D01*
X80027744Y-96167205D01*
X80216102Y-96245226D01*
X80416061Y-96285000D01*
X80619939Y-96285000D01*
X80745623Y-96260000D01*
X83338377Y-96260000D01*
X83464061Y-96285000D01*
X83667939Y-96285000D01*
X83867898Y-96245226D01*
X84056256Y-96167205D01*
X84225774Y-96053937D01*
X84332034Y-95947677D01*
X84346755Y-95955546D01*
X84490016Y-95999003D01*
X84601669Y-96010000D01*
X84601678Y-96010000D01*
X84639001Y-96013676D01*
X84676324Y-96010000D01*
X112367617Y-96010000D01*
X112306378Y-96157844D01*
X112253000Y-96426195D01*
X112253000Y-96699805D01*
X112306378Y-96968156D01*
X112411084Y-97220938D01*
X112563093Y-97448436D01*
X112756564Y-97641907D01*
X112984062Y-97793916D01*
X113236844Y-97898622D01*
X113505195Y-97952000D01*
X113778805Y-97952000D01*
X114047156Y-97898622D01*
X114299938Y-97793916D01*
X114527436Y-97641907D01*
X114720907Y-97448436D01*
X114872916Y-97220938D01*
X114977622Y-96968156D01*
X115031000Y-96699805D01*
X115031000Y-96426195D01*
X114977622Y-96157844D01*
X114885202Y-95934724D01*
X114978276Y-95884974D01*
X115094001Y-95790001D01*
X115117803Y-95760998D01*
X115190097Y-95688704D01*
X115251084Y-95835938D01*
X115403093Y-96063436D01*
X115596564Y-96256907D01*
X115824062Y-96408916D01*
X116076844Y-96513622D01*
X116345195Y-96567000D01*
X116618805Y-96567000D01*
X116887156Y-96513622D01*
X117139938Y-96408916D01*
X117367436Y-96256907D01*
X117560907Y-96063436D01*
X117712916Y-95835938D01*
X117817622Y-95583156D01*
X117871000Y-95314805D01*
X117871000Y-95041195D01*
X117817622Y-94772844D01*
X117712916Y-94520062D01*
X117560907Y-94292564D01*
X117367436Y-94099093D01*
X117139938Y-93947084D01*
X116887156Y-93842378D01*
X116638914Y-93793000D01*
X116887156Y-93743622D01*
X117139938Y-93638916D01*
X117367436Y-93486907D01*
X117560907Y-93293436D01*
X117712916Y-93065938D01*
X117817622Y-92813156D01*
X117871000Y-92544805D01*
X117871000Y-92271195D01*
X117817622Y-92002844D01*
X117712916Y-91750062D01*
X117560907Y-91522564D01*
X117367436Y-91329093D01*
X117139938Y-91177084D01*
X116887156Y-91072378D01*
X116638914Y-91023000D01*
X116887156Y-90973622D01*
X117139938Y-90868916D01*
X117367436Y-90716907D01*
X117560907Y-90523436D01*
X117644720Y-90398000D01*
X118172151Y-90398000D01*
X118215015Y-90411002D01*
X118364000Y-90425676D01*
X118512985Y-90411002D01*
X118656246Y-90367546D01*
X118788276Y-90296974D01*
X118875002Y-90225799D01*
X119637002Y-89463799D01*
X119666001Y-89440001D01*
X119760974Y-89324276D01*
X119831546Y-89192247D01*
X119875003Y-89048986D01*
X119886000Y-88937333D01*
X119886000Y-88937325D01*
X119889676Y-88900000D01*
X119886000Y-88862675D01*
X119886000Y-84921323D01*
X119889676Y-84884000D01*
X119886000Y-84846677D01*
X119886000Y-84846667D01*
X119875003Y-84735014D01*
X119831546Y-84591753D01*
X119760974Y-84459724D01*
X119666001Y-84343999D01*
X119637004Y-84320202D01*
X118903803Y-83587002D01*
X118880001Y-83557999D01*
X118764276Y-83463026D01*
X118632247Y-83392454D01*
X118488986Y-83348997D01*
X118377333Y-83338000D01*
X118377322Y-83338000D01*
X118340000Y-83334324D01*
X118302678Y-83338000D01*
X117644720Y-83338000D01*
X117560907Y-83212564D01*
X117367436Y-83019093D01*
X117139938Y-82867084D01*
X116887156Y-82762378D01*
X116638914Y-82713000D01*
X116887156Y-82663622D01*
X117139938Y-82558916D01*
X117367436Y-82406907D01*
X117560907Y-82213436D01*
X117712916Y-81985938D01*
X117817622Y-81733156D01*
X117871000Y-81464805D01*
X117871000Y-81191195D01*
X117817622Y-80922844D01*
X117712916Y-80670062D01*
X117560907Y-80442564D01*
X117367436Y-80249093D01*
X117139938Y-80097084D01*
X116887156Y-79992378D01*
X116638914Y-79943000D01*
X116887156Y-79893622D01*
X117139938Y-79788916D01*
X117367436Y-79636907D01*
X117560907Y-79443436D01*
X117712916Y-79215938D01*
X117817622Y-78963156D01*
X117871000Y-78694805D01*
X117871000Y-78421195D01*
X117817622Y-78152844D01*
X117712916Y-77900062D01*
X117560907Y-77672564D01*
X117367436Y-77479093D01*
X117139938Y-77327084D01*
X116887156Y-77222378D01*
X116618805Y-77169000D01*
X116345195Y-77169000D01*
X116076844Y-77222378D01*
X115824062Y-77327084D01*
X115596564Y-77479093D01*
X115403093Y-77672564D01*
X115251084Y-77900062D01*
X115146378Y-78152844D01*
X115093000Y-78421195D01*
X115093000Y-78694805D01*
X115146378Y-78963156D01*
X115251084Y-79215938D01*
X115403093Y-79443436D01*
X115596564Y-79636907D01*
X115824062Y-79788916D01*
X116076844Y-79893622D01*
X116325086Y-79943000D01*
X116076844Y-79992378D01*
X115824062Y-80097084D01*
X115596564Y-80249093D01*
X115403093Y-80442564D01*
X115319280Y-80568000D01*
X114886559Y-80568000D01*
X114977622Y-80348156D01*
X115031000Y-80079805D01*
X115031000Y-79806195D01*
X114977622Y-79537844D01*
X114872916Y-79285062D01*
X114720907Y-79057564D01*
X114527436Y-78864093D01*
X114299938Y-78712084D01*
X114047156Y-78607378D01*
X113834468Y-78565072D01*
X114396000Y-78565072D01*
X114520482Y-78552812D01*
X114640180Y-78516502D01*
X114750494Y-78457537D01*
X114847185Y-78378185D01*
X114926537Y-78281494D01*
X114985502Y-78171180D01*
X115021812Y-78051482D01*
X115034072Y-77927000D01*
X115034072Y-76419000D01*
X115021812Y-76294518D01*
X114985502Y-76174820D01*
X114926537Y-76064506D01*
X114847185Y-75967815D01*
X114750494Y-75888463D01*
X114640180Y-75829498D01*
X114520482Y-75793188D01*
X114396000Y-75780928D01*
X112888000Y-75780928D01*
X112763518Y-75793188D01*
X112643820Y-75829498D01*
X112533506Y-75888463D01*
X112436815Y-75967815D01*
X112357463Y-76064506D01*
X112298498Y-76174820D01*
X112262188Y-76294518D01*
X112249928Y-76419000D01*
X112249928Y-77136717D01*
X111910645Y-77476000D01*
X90651623Y-77476000D01*
X90525939Y-77451000D01*
X90322061Y-77451000D01*
X90122102Y-77490774D01*
X89933744Y-77568795D01*
X89764226Y-77682063D01*
X89620063Y-77826226D01*
X89506795Y-77995744D01*
X89428774Y-78184102D01*
X89389000Y-78384061D01*
X89389000Y-78587939D01*
X89428774Y-78787898D01*
X89506795Y-78976256D01*
X89620063Y-79145774D01*
X89657289Y-79183000D01*
X77517320Y-79183000D01*
X77479997Y-79179324D01*
X77442674Y-79183000D01*
X77442665Y-79183000D01*
X77331012Y-79193997D01*
X77187751Y-79237454D01*
X77055722Y-79308026D01*
X76939997Y-79402999D01*
X76916199Y-79431997D01*
X73910998Y-82437199D01*
X73882000Y-82460997D01*
X73858202Y-82489995D01*
X73858201Y-82489996D01*
X73815763Y-82541706D01*
X73761939Y-82531000D01*
X73558061Y-82531000D01*
X73358102Y-82570774D01*
X73169744Y-82648795D01*
X73000226Y-82762063D01*
X72856063Y-82906226D01*
X72742795Y-83075744D01*
X72664774Y-83264102D01*
X72625000Y-83464061D01*
X72625000Y-83667939D01*
X72664774Y-83867898D01*
X72742795Y-84056256D01*
X72856063Y-84225774D01*
X72900000Y-84269711D01*
X72900001Y-84945314D01*
X72746226Y-85048063D01*
X72602063Y-85192226D01*
X72488795Y-85361744D01*
X72444827Y-85467891D01*
X72364939Y-85452000D01*
X72161061Y-85452000D01*
X71961102Y-85491774D01*
X71772744Y-85569795D01*
X71603226Y-85683063D01*
X71459063Y-85827226D01*
X71345795Y-85996744D01*
X71267774Y-86185102D01*
X71228000Y-86385061D01*
X71228000Y-86588939D01*
X71267774Y-86788898D01*
X71345795Y-86977256D01*
X71459063Y-87146774D01*
X71603226Y-87290937D01*
X71709776Y-87362132D01*
X73418744Y-89071100D01*
X73450367Y-89109633D01*
X73604160Y-89235847D01*
X73741067Y-89309025D01*
X73779620Y-89329632D01*
X73970005Y-89387385D01*
X74168000Y-89406886D01*
X74217608Y-89402000D01*
X75698000Y-89402000D01*
X75698000Y-89789000D01*
X71374000Y-89789000D01*
X71349224Y-89791440D01*
X71325399Y-89798667D01*
X71303443Y-89810403D01*
X71284197Y-89826197D01*
X71268403Y-89845443D01*
X71256667Y-89867399D01*
X71249440Y-89891224D01*
X71247000Y-89916000D01*
X71247000Y-98430472D01*
X71222628Y-98420377D01*
X70481715Y-98273000D01*
X69726285Y-98273000D01*
X68985372Y-98420377D01*
X68287446Y-98709467D01*
X67659330Y-99129161D01*
X67125161Y-99663330D01*
X66705467Y-100291446D01*
X66416377Y-100989372D01*
X66269000Y-101730285D01*
X66192000Y-101730285D01*
X66192000Y-90519366D01*
X66193478Y-90520579D01*
X66303801Y-90579548D01*
X66423509Y-90615861D01*
X66548000Y-90628122D01*
X66672490Y-90615861D01*
X66792198Y-90579548D01*
X66902521Y-90520579D01*
X66999220Y-90441220D01*
X67078579Y-90344522D01*
X67127081Y-90253782D01*
X67151114Y-90261072D01*
X67333141Y-90279000D01*
X68662859Y-90279000D01*
X68844886Y-90261072D01*
X69078439Y-90190224D01*
X69293682Y-90075175D01*
X69482344Y-89920344D01*
X69637175Y-89731682D01*
X69752224Y-89516439D01*
X69823072Y-89282886D01*
X69846994Y-89040000D01*
X69823072Y-88797114D01*
X69752224Y-88563561D01*
X69637175Y-88348318D01*
X69482344Y-88159656D01*
X69293682Y-88004825D01*
X69078439Y-87889776D01*
X68844886Y-87818928D01*
X68726106Y-87807229D01*
X68749242Y-87728620D01*
X68760023Y-87672105D01*
X68771600Y-87615704D01*
X68772465Y-87606879D01*
X68772466Y-87606875D01*
X68772466Y-87606869D01*
X68780425Y-87519416D01*
X68780024Y-87461826D01*
X68780425Y-87404303D01*
X68779561Y-87395489D01*
X68779561Y-87395478D01*
X68779559Y-87395468D01*
X68770380Y-87308135D01*
X68758803Y-87251733D01*
X68748020Y-87195211D01*
X68745461Y-87186734D01*
X68745459Y-87186726D01*
X68745456Y-87186719D01*
X68719486Y-87102825D01*
X68697197Y-87049801D01*
X68675624Y-86996406D01*
X68671461Y-86988577D01*
X68629690Y-86911321D01*
X68597486Y-86863577D01*
X68565984Y-86815436D01*
X68560388Y-86808574D01*
X68560384Y-86808569D01*
X68560379Y-86808564D01*
X68504398Y-86740895D01*
X68463544Y-86700326D01*
X68423290Y-86659219D01*
X68416457Y-86653566D01*
X68416453Y-86653562D01*
X68416448Y-86653559D01*
X68348398Y-86598058D01*
X68300483Y-86566223D01*
X68252965Y-86533687D01*
X68245165Y-86529469D01*
X68167621Y-86488239D01*
X68114397Y-86466301D01*
X68061500Y-86443630D01*
X68053029Y-86441007D01*
X67968952Y-86415624D01*
X67912483Y-86404443D01*
X67856193Y-86392478D01*
X67847381Y-86391552D01*
X67847372Y-86391550D01*
X67847364Y-86391550D01*
X67759969Y-86382981D01*
X67759966Y-86382981D01*
X67729191Y-86379950D01*
X67353220Y-86379950D01*
X67183050Y-86167238D01*
X67183050Y-84012762D01*
X67353220Y-83800050D01*
X67729191Y-83800050D01*
X67760412Y-83796975D01*
X67766255Y-83796975D01*
X67775074Y-83796048D01*
X67812852Y-83791810D01*
X67822491Y-83790861D01*
X67823181Y-83790652D01*
X67862350Y-83786258D01*
X67918626Y-83774296D01*
X67975105Y-83763113D01*
X67983576Y-83760491D01*
X68067290Y-83733936D01*
X68120227Y-83711248D01*
X68173413Y-83689326D01*
X68181206Y-83685113D01*
X68181209Y-83685112D01*
X68181211Y-83685111D01*
X68181214Y-83685109D01*
X68258174Y-83642799D01*
X68305681Y-83610271D01*
X68353601Y-83578433D01*
X68360433Y-83572781D01*
X68360439Y-83572777D01*
X68360445Y-83572771D01*
X68427712Y-83516329D01*
X68468006Y-83475183D01*
X68508831Y-83434641D01*
X68514421Y-83427786D01*
X68514429Y-83427778D01*
X68514435Y-83427769D01*
X68569466Y-83359324D01*
X68600998Y-83311138D01*
X68633163Y-83263451D01*
X68637326Y-83255622D01*
X68637327Y-83255620D01*
X68637331Y-83255614D01*
X68637334Y-83255607D01*
X68678015Y-83177792D01*
X68699580Y-83124418D01*
X68721883Y-83071360D01*
X68724442Y-83062885D01*
X68724445Y-83062877D01*
X68724446Y-83062870D01*
X68749242Y-82978620D01*
X68760023Y-82922105D01*
X68771600Y-82865704D01*
X68772465Y-82856879D01*
X68772466Y-82856875D01*
X68772466Y-82856869D01*
X68780425Y-82769416D01*
X68780024Y-82711826D01*
X68780425Y-82654303D01*
X68779561Y-82645489D01*
X68779561Y-82645478D01*
X68779559Y-82645468D01*
X68770380Y-82558135D01*
X68758803Y-82501733D01*
X68748020Y-82445211D01*
X68745461Y-82436734D01*
X68745459Y-82436726D01*
X68745456Y-82436719D01*
X68725674Y-82372813D01*
X68844886Y-82361072D01*
X69078439Y-82290224D01*
X69293682Y-82175175D01*
X69482344Y-82020344D01*
X69637175Y-81831682D01*
X69752224Y-81616439D01*
X69823072Y-81382886D01*
X69846994Y-81140000D01*
X69823072Y-80897114D01*
X69752224Y-80663561D01*
X69637175Y-80448318D01*
X69482344Y-80259656D01*
X69293682Y-80104825D01*
X69078439Y-79989776D01*
X68844886Y-79918928D01*
X68662859Y-79901000D01*
X67333141Y-79901000D01*
X67151114Y-79918928D01*
X67127081Y-79926218D01*
X67078579Y-79835478D01*
X66999220Y-79738780D01*
X66902521Y-79659421D01*
X66792198Y-79600452D01*
X66672490Y-79564139D01*
X66548000Y-79551878D01*
X66423509Y-79564139D01*
X66303801Y-79600452D01*
X66193478Y-79659421D01*
X66192000Y-79660634D01*
X66192000Y-71250285D01*
X66269000Y-71250285D01*
X66269000Y-72005715D01*
X66416377Y-72746628D01*
X66705467Y-73444554D01*
X67125161Y-74072670D01*
X67659330Y-74606839D01*
X68287446Y-75026533D01*
X68985372Y-75315623D01*
X69726285Y-75463000D01*
X70481715Y-75463000D01*
X71222628Y-75315623D01*
X71920554Y-75026533D01*
X72548670Y-74606839D01*
X73082839Y-74072670D01*
X73502533Y-73444554D01*
X73791623Y-72746628D01*
X73939000Y-72005715D01*
X73939000Y-71250285D01*
X73791623Y-70509372D01*
X73502533Y-69811446D01*
X73082839Y-69183330D01*
X72548670Y-68649161D01*
X71920554Y-68229467D01*
X71222628Y-67940377D01*
X70481715Y-67793000D01*
X69726285Y-67793000D01*
X68985372Y-67940377D01*
X68287446Y-68229467D01*
X67659330Y-68649161D01*
X67125161Y-69183330D01*
X66705467Y-69811446D01*
X66416377Y-70509372D01*
X66269000Y-71250285D01*
X66192000Y-71250285D01*
X66192000Y-68866279D01*
X66216397Y-68617460D01*
X66279285Y-68409167D01*
X66381428Y-68217063D01*
X66518947Y-68048447D01*
X66686593Y-67909759D01*
X66877985Y-67806274D01*
X67085835Y-67741934D01*
X67332581Y-67716000D01*
X114150543Y-67716000D01*
X113818228Y-67853649D01*
%TA.AperFunction,Conductor*%
D19*
G36*
X113818228Y-67853649D02*
G01*
X113381249Y-68145629D01*
X113009629Y-68517249D01*
X112717649Y-68954228D01*
X112516530Y-69439773D01*
X112414000Y-69955225D01*
X112414000Y-70480775D01*
X112516530Y-70996227D01*
X112717649Y-71481772D01*
X113009629Y-71918751D01*
X113381249Y-72290371D01*
X113818228Y-72582351D01*
X114303773Y-72783470D01*
X114819225Y-72886000D01*
X115344775Y-72886000D01*
X115860227Y-72783470D01*
X116345772Y-72582351D01*
X116782751Y-72290371D01*
X117154371Y-71918751D01*
X117446351Y-71481772D01*
X117647470Y-70996227D01*
X117750000Y-70480775D01*
X117750000Y-69955225D01*
X117647470Y-69439773D01*
X117446351Y-68954228D01*
X117154371Y-68517249D01*
X116782751Y-68145629D01*
X116345772Y-67853649D01*
X116013457Y-67716000D01*
X122903721Y-67716000D01*
X123152540Y-67740397D01*
X123360833Y-67803285D01*
X123552937Y-67905428D01*
X123721553Y-68042947D01*
X123860241Y-68210593D01*
X123963726Y-68401985D01*
X124028066Y-68609835D01*
X124054000Y-68856581D01*
X124054001Y-104869711D01*
X124029603Y-105118540D01*
X123966717Y-105326830D01*
X123864572Y-105518938D01*
X123727052Y-105687554D01*
X123559409Y-105826240D01*
X123368017Y-105929725D01*
X123160166Y-105994066D01*
X122913419Y-106020000D01*
X116013457Y-106020000D01*
X116345772Y-105882351D01*
X116782751Y-105590371D01*
X117154371Y-105218751D01*
X117446351Y-104781772D01*
X117647470Y-104296227D01*
X117750000Y-103780775D01*
X117750000Y-103255225D01*
X117647470Y-102739773D01*
X117446351Y-102254228D01*
X117154371Y-101817249D01*
X116782751Y-101445629D01*
X116345772Y-101153649D01*
X115860227Y-100952530D01*
X115344775Y-100850000D01*
X114819225Y-100850000D01*
X114303773Y-100952530D01*
X113818228Y-101153649D01*
X113381249Y-101445629D01*
X113009629Y-101817249D01*
X112717649Y-102254228D01*
X112516530Y-102739773D01*
X112414000Y-103255225D01*
X112414000Y-103780775D01*
X112516530Y-104296227D01*
X112717649Y-104781772D01*
X113009629Y-105218751D01*
X113381249Y-105590371D01*
X113818228Y-105882351D01*
X114150543Y-106020000D01*
X67342279Y-106020000D01*
X67093460Y-105995603D01*
X66885170Y-105932717D01*
X66693062Y-105830572D01*
X66524446Y-105693052D01*
X66385760Y-105525409D01*
X66282275Y-105334017D01*
X66217934Y-105126166D01*
X66192000Y-104879419D01*
X66192000Y-101730285D01*
X66269000Y-101730285D01*
X66269000Y-102485715D01*
X66416377Y-103226628D01*
X66705467Y-103924554D01*
X67125161Y-104552670D01*
X67659330Y-105086839D01*
X68287446Y-105506533D01*
X68985372Y-105795623D01*
X69726285Y-105943000D01*
X70481715Y-105943000D01*
X71222628Y-105795623D01*
X71920554Y-105506533D01*
X72548670Y-105086839D01*
X73082839Y-104552670D01*
X73502533Y-103924554D01*
X73791623Y-103226628D01*
X73939000Y-102485715D01*
X73939000Y-101730285D01*
X73791623Y-100989372D01*
X73676318Y-100711000D01*
X78486000Y-100711000D01*
X78510776Y-100708560D01*
X78534601Y-100701333D01*
X78556557Y-100689597D01*
X78575803Y-100673803D01*
X78591597Y-100654557D01*
X78603333Y-100632601D01*
X78610560Y-100608776D01*
X78613000Y-100584000D01*
X78613000Y-89916000D01*
X78610560Y-89891224D01*
X78603333Y-89867399D01*
X78591597Y-89845443D01*
X78575803Y-89826197D01*
X78556557Y-89810403D01*
X78534601Y-89798667D01*
X78510776Y-89791440D01*
X78486000Y-89789000D01*
X78484000Y-89789000D01*
X78484000Y-88706801D01*
X79033802Y-88157000D01*
X79095939Y-88157000D01*
X79295898Y-88117226D01*
X79484256Y-88039205D01*
X79653774Y-87925937D01*
X79797937Y-87781774D01*
X79911205Y-87612256D01*
X79989226Y-87423898D01*
X80029000Y-87223939D01*
X80029000Y-87020061D01*
X79989226Y-86820102D01*
X79911205Y-86631744D01*
X79797937Y-86462226D01*
X79754000Y-86418289D01*
X79754000Y-85555334D01*
X112248155Y-85555334D01*
X112289049Y-85825870D01*
X112381937Y-86083229D01*
X112442873Y-86197235D01*
X112682149Y-86263246D01*
X113462395Y-85483000D01*
X113821605Y-85483000D01*
X114601851Y-86263246D01*
X114841127Y-86197235D01*
X114957426Y-85949574D01*
X115023174Y-85683982D01*
X115035845Y-85410666D01*
X114994951Y-85140130D01*
X114902063Y-84882771D01*
X114841127Y-84768765D01*
X114601851Y-84702754D01*
X113821605Y-85483000D01*
X113462395Y-85483000D01*
X112682149Y-84702754D01*
X112442873Y-84768765D01*
X112326574Y-85016426D01*
X112260826Y-85282018D01*
X112248155Y-85555334D01*
X79754000Y-85555334D01*
X79754000Y-82356801D01*
X80957792Y-81153010D01*
X111445199Y-81153010D01*
X112131191Y-81839003D01*
X112154989Y-81868001D01*
X112183987Y-81891799D01*
X112270714Y-81962974D01*
X112402743Y-82033546D01*
X112421632Y-82039276D01*
X112411084Y-82055062D01*
X112306378Y-82307844D01*
X112253000Y-82576195D01*
X112253000Y-82849805D01*
X112306378Y-83118156D01*
X112411084Y-83370938D01*
X112563093Y-83598436D01*
X112756564Y-83791907D01*
X112984062Y-83943916D01*
X113236844Y-84048622D01*
X113496341Y-84100239D01*
X113299130Y-84130049D01*
X113041771Y-84222937D01*
X112927765Y-84283873D01*
X112861754Y-84523149D01*
X113642000Y-85303395D01*
X114422246Y-84523149D01*
X114356235Y-84283873D01*
X114108574Y-84167574D01*
X113842982Y-84101826D01*
X113791645Y-84099446D01*
X114047156Y-84048622D01*
X114299938Y-83943916D01*
X114527436Y-83791907D01*
X114720907Y-83598436D01*
X114872916Y-83370938D01*
X114977622Y-83118156D01*
X115031000Y-82849805D01*
X115031000Y-82576195D01*
X114977622Y-82307844D01*
X114886559Y-82088000D01*
X115319280Y-82088000D01*
X115403093Y-82213436D01*
X115596564Y-82406907D01*
X115824062Y-82558916D01*
X116076844Y-82663622D01*
X116325086Y-82713000D01*
X116076844Y-82762378D01*
X115824062Y-82867084D01*
X115596564Y-83019093D01*
X115403093Y-83212564D01*
X115251084Y-83440062D01*
X115146378Y-83692844D01*
X115093000Y-83961195D01*
X115093000Y-84234805D01*
X115146378Y-84503156D01*
X115251084Y-84755938D01*
X115403093Y-84983436D01*
X115596564Y-85176907D01*
X115824062Y-85328916D01*
X116076844Y-85433622D01*
X116325086Y-85483000D01*
X116076844Y-85532378D01*
X115824062Y-85637084D01*
X115596564Y-85789093D01*
X115403093Y-85982564D01*
X115251084Y-86210062D01*
X115146378Y-86462844D01*
X115093000Y-86731195D01*
X115093000Y-87004805D01*
X115146378Y-87273156D01*
X115251084Y-87525938D01*
X115295214Y-87591984D01*
X114987864Y-87899334D01*
X114977622Y-87847844D01*
X114872916Y-87595062D01*
X114720907Y-87367564D01*
X114527436Y-87174093D01*
X114299938Y-87022084D01*
X114047156Y-86917378D01*
X113787659Y-86865761D01*
X113984870Y-86835951D01*
X114242229Y-86743063D01*
X114356235Y-86682127D01*
X114422246Y-86442851D01*
X113642000Y-85662605D01*
X112861754Y-86442851D01*
X112927765Y-86682127D01*
X113175426Y-86798426D01*
X113441018Y-86864174D01*
X113492355Y-86866554D01*
X113236844Y-86917378D01*
X112984062Y-87022084D01*
X112756564Y-87174093D01*
X112563093Y-87367564D01*
X112411084Y-87595062D01*
X112306378Y-87847844D01*
X112253000Y-88116195D01*
X112253000Y-88389805D01*
X112306378Y-88658156D01*
X112407382Y-88902000D01*
X107733323Y-88902000D01*
X107696000Y-88898324D01*
X107658677Y-88902000D01*
X107658667Y-88902000D01*
X107547014Y-88912997D01*
X107542668Y-88914315D01*
X107515940Y-88908999D01*
X107312062Y-88908999D01*
X107112103Y-88948773D01*
X106923745Y-89026794D01*
X106754227Y-89140062D01*
X106610064Y-89284225D01*
X106496796Y-89453743D01*
X106418775Y-89642101D01*
X106379001Y-89842060D01*
X106379001Y-90045938D01*
X106418775Y-90245897D01*
X106496796Y-90434255D01*
X106610064Y-90603773D01*
X106754227Y-90747936D01*
X106923745Y-90861204D01*
X107112103Y-90939225D01*
X107312062Y-90978999D01*
X107515940Y-90978999D01*
X107715899Y-90939225D01*
X107904257Y-90861204D01*
X108073775Y-90747936D01*
X108217938Y-90603773D01*
X108331206Y-90434255D01*
X108336282Y-90422000D01*
X112387499Y-90422000D01*
X112306378Y-90617844D01*
X112253000Y-90886195D01*
X112253000Y-91159805D01*
X112306378Y-91428156D01*
X112411084Y-91680938D01*
X112563093Y-91908436D01*
X112756564Y-92101907D01*
X112984062Y-92253916D01*
X113236844Y-92358622D01*
X113485086Y-92408000D01*
X113236844Y-92457378D01*
X112984062Y-92562084D01*
X112756564Y-92714093D01*
X112563093Y-92907564D01*
X112411084Y-93135062D01*
X112306378Y-93387844D01*
X112253000Y-93656195D01*
X112253000Y-93929805D01*
X112306378Y-94198156D01*
X112411084Y-94450938D01*
X112437184Y-94490000D01*
X90297000Y-94490000D01*
X90297000Y-90678000D01*
X90294560Y-90653224D01*
X90287333Y-90629399D01*
X90275597Y-90607443D01*
X90259803Y-90588197D01*
X90240557Y-90572403D01*
X90218601Y-90560667D01*
X90194776Y-90553440D01*
X90170000Y-90551000D01*
X89947355Y-90551000D01*
X91231226Y-89267130D01*
X91337774Y-89195937D01*
X91481937Y-89051774D01*
X91595205Y-88882256D01*
X91673226Y-88693898D01*
X91713000Y-88493939D01*
X91713000Y-88290061D01*
X91673226Y-88090102D01*
X91595205Y-87901744D01*
X91481937Y-87732226D01*
X91337774Y-87588063D01*
X91168256Y-87474795D01*
X90979898Y-87396774D01*
X90779939Y-87357000D01*
X90576061Y-87357000D01*
X90376102Y-87396774D01*
X90187744Y-87474795D01*
X90018226Y-87588063D01*
X89874063Y-87732226D01*
X89802870Y-87838774D01*
X88735645Y-88906000D01*
X85901608Y-88906000D01*
X85852000Y-88901114D01*
X85654005Y-88920615D01*
X85486162Y-88971530D01*
X85463620Y-88978368D01*
X85288160Y-89072153D01*
X85134367Y-89198367D01*
X85102743Y-89236901D01*
X84410901Y-89928744D01*
X84372368Y-89960367D01*
X84340745Y-89998900D01*
X84340744Y-89998901D01*
X84246154Y-90114160D01*
X84152368Y-90289621D01*
X84094615Y-90480006D01*
X84075114Y-90678000D01*
X84080001Y-90727617D01*
X84080000Y-92291645D01*
X84028777Y-92342868D01*
X83922226Y-92414063D01*
X83778063Y-92558226D01*
X83664795Y-92727744D01*
X83586774Y-92916102D01*
X83547000Y-93116061D01*
X83547000Y-93319939D01*
X83586774Y-93519898D01*
X83664795Y-93708256D01*
X83702709Y-93764999D01*
X81123801Y-93764999D01*
X80881484Y-93522683D01*
X80927205Y-93454256D01*
X81005226Y-93265898D01*
X81045000Y-93065939D01*
X81045000Y-92862061D01*
X81005226Y-92662102D01*
X80927205Y-92473744D01*
X80813937Y-92304226D01*
X80669774Y-92160063D01*
X80500256Y-92046795D01*
X80311898Y-91968774D01*
X80111939Y-91929000D01*
X79908061Y-91929000D01*
X79708102Y-91968774D01*
X79519744Y-92046795D01*
X79350226Y-92160063D01*
X79206063Y-92304226D01*
X79092795Y-92473744D01*
X79014774Y-92662102D01*
X78975000Y-92862061D01*
X78975000Y-93065939D01*
X79014774Y-93265898D01*
X79092795Y-93454256D01*
X79206063Y-93623774D01*
X79250000Y-93667711D01*
X79250000Y-93688678D01*
X79246324Y-93726000D01*
X79250000Y-93763322D01*
X79250000Y-93763333D01*
X79260997Y-93874986D01*
X79279394Y-93935632D01*
X79304454Y-94018246D01*
X79375026Y-94150276D01*
X79441274Y-94230998D01*
X79470000Y-94266001D01*
X79498998Y-94289799D01*
X79756744Y-94547545D01*
X79714063Y-94590226D01*
X79600795Y-94759744D01*
X79522774Y-94948102D01*
X79483000Y-95148061D01*
X79483000Y-95351939D01*
X79522774Y-95551898D01*
X79600795Y-95740256D01*
X79714063Y-95909774D01*
X79858226Y-96053937D01*
X80027744Y-96167205D01*
X80216102Y-96245226D01*
X80416061Y-96285000D01*
X80619939Y-96285000D01*
X80745623Y-96260000D01*
X83338377Y-96260000D01*
X83464061Y-96285000D01*
X83667939Y-96285000D01*
X83867898Y-96245226D01*
X84056256Y-96167205D01*
X84225774Y-96053937D01*
X84332034Y-95947677D01*
X84346755Y-95955546D01*
X84490016Y-95999003D01*
X84601669Y-96010000D01*
X84601678Y-96010000D01*
X84639001Y-96013676D01*
X84676324Y-96010000D01*
X112367617Y-96010000D01*
X112306378Y-96157844D01*
X112253000Y-96426195D01*
X112253000Y-96699805D01*
X112306378Y-96968156D01*
X112411084Y-97220938D01*
X112563093Y-97448436D01*
X112756564Y-97641907D01*
X112984062Y-97793916D01*
X113236844Y-97898622D01*
X113505195Y-97952000D01*
X113778805Y-97952000D01*
X114047156Y-97898622D01*
X114299938Y-97793916D01*
X114527436Y-97641907D01*
X114720907Y-97448436D01*
X114872916Y-97220938D01*
X114977622Y-96968156D01*
X115031000Y-96699805D01*
X115031000Y-96426195D01*
X114977622Y-96157844D01*
X114885202Y-95934724D01*
X114978276Y-95884974D01*
X115094001Y-95790001D01*
X115117803Y-95760998D01*
X115190097Y-95688704D01*
X115251084Y-95835938D01*
X115403093Y-96063436D01*
X115596564Y-96256907D01*
X115824062Y-96408916D01*
X116076844Y-96513622D01*
X116345195Y-96567000D01*
X116618805Y-96567000D01*
X116887156Y-96513622D01*
X117139938Y-96408916D01*
X117367436Y-96256907D01*
X117560907Y-96063436D01*
X117712916Y-95835938D01*
X117817622Y-95583156D01*
X117871000Y-95314805D01*
X117871000Y-95041195D01*
X117817622Y-94772844D01*
X117712916Y-94520062D01*
X117560907Y-94292564D01*
X117367436Y-94099093D01*
X117139938Y-93947084D01*
X116887156Y-93842378D01*
X116638914Y-93793000D01*
X116887156Y-93743622D01*
X117139938Y-93638916D01*
X117367436Y-93486907D01*
X117560907Y-93293436D01*
X117712916Y-93065938D01*
X117817622Y-92813156D01*
X117871000Y-92544805D01*
X117871000Y-92271195D01*
X117817622Y-92002844D01*
X117712916Y-91750062D01*
X117560907Y-91522564D01*
X117367436Y-91329093D01*
X117139938Y-91177084D01*
X116887156Y-91072378D01*
X116638914Y-91023000D01*
X116887156Y-90973622D01*
X117139938Y-90868916D01*
X117367436Y-90716907D01*
X117560907Y-90523436D01*
X117644720Y-90398000D01*
X118172151Y-90398000D01*
X118215015Y-90411002D01*
X118364000Y-90425676D01*
X118512985Y-90411002D01*
X118656246Y-90367546D01*
X118788276Y-90296974D01*
X118875002Y-90225799D01*
X119637002Y-89463799D01*
X119666001Y-89440001D01*
X119760974Y-89324276D01*
X119831546Y-89192247D01*
X119875003Y-89048986D01*
X119886000Y-88937333D01*
X119886000Y-88937325D01*
X119889676Y-88900000D01*
X119886000Y-88862675D01*
X119886000Y-84921323D01*
X119889676Y-84884000D01*
X119886000Y-84846677D01*
X119886000Y-84846667D01*
X119875003Y-84735014D01*
X119831546Y-84591753D01*
X119760974Y-84459724D01*
X119666001Y-84343999D01*
X119637004Y-84320202D01*
X118903803Y-83587002D01*
X118880001Y-83557999D01*
X118764276Y-83463026D01*
X118632247Y-83392454D01*
X118488986Y-83348997D01*
X118377333Y-83338000D01*
X118377322Y-83338000D01*
X118340000Y-83334324D01*
X118302678Y-83338000D01*
X117644720Y-83338000D01*
X117560907Y-83212564D01*
X117367436Y-83019093D01*
X117139938Y-82867084D01*
X116887156Y-82762378D01*
X116638914Y-82713000D01*
X116887156Y-82663622D01*
X117139938Y-82558916D01*
X117367436Y-82406907D01*
X117560907Y-82213436D01*
X117712916Y-81985938D01*
X117817622Y-81733156D01*
X117871000Y-81464805D01*
X117871000Y-81191195D01*
X117817622Y-80922844D01*
X117712916Y-80670062D01*
X117560907Y-80442564D01*
X117367436Y-80249093D01*
X117139938Y-80097084D01*
X116887156Y-79992378D01*
X116638914Y-79943000D01*
X116887156Y-79893622D01*
X117139938Y-79788916D01*
X117367436Y-79636907D01*
X117560907Y-79443436D01*
X117712916Y-79215938D01*
X117817622Y-78963156D01*
X117871000Y-78694805D01*
X117871000Y-78421195D01*
X117817622Y-78152844D01*
X117712916Y-77900062D01*
X117560907Y-77672564D01*
X117367436Y-77479093D01*
X117139938Y-77327084D01*
X116887156Y-77222378D01*
X116618805Y-77169000D01*
X116345195Y-77169000D01*
X116076844Y-77222378D01*
X115824062Y-77327084D01*
X115596564Y-77479093D01*
X115403093Y-77672564D01*
X115251084Y-77900062D01*
X115146378Y-78152844D01*
X115093000Y-78421195D01*
X115093000Y-78694805D01*
X115146378Y-78963156D01*
X115251084Y-79215938D01*
X115403093Y-79443436D01*
X115596564Y-79636907D01*
X115824062Y-79788916D01*
X116076844Y-79893622D01*
X116325086Y-79943000D01*
X116076844Y-79992378D01*
X115824062Y-80097084D01*
X115596564Y-80249093D01*
X115403093Y-80442564D01*
X115319280Y-80568000D01*
X114886559Y-80568000D01*
X114977622Y-80348156D01*
X115031000Y-80079805D01*
X115031000Y-79806195D01*
X114977622Y-79537844D01*
X114872916Y-79285062D01*
X114720907Y-79057564D01*
X114527436Y-78864093D01*
X114299938Y-78712084D01*
X114047156Y-78607378D01*
X113834468Y-78565072D01*
X114396000Y-78565072D01*
X114520482Y-78552812D01*
X114640180Y-78516502D01*
X114750494Y-78457537D01*
X114847185Y-78378185D01*
X114926537Y-78281494D01*
X114985502Y-78171180D01*
X115021812Y-78051482D01*
X115034072Y-77927000D01*
X115034072Y-76419000D01*
X115021812Y-76294518D01*
X114985502Y-76174820D01*
X114926537Y-76064506D01*
X114847185Y-75967815D01*
X114750494Y-75888463D01*
X114640180Y-75829498D01*
X114520482Y-75793188D01*
X114396000Y-75780928D01*
X112888000Y-75780928D01*
X112763518Y-75793188D01*
X112643820Y-75829498D01*
X112533506Y-75888463D01*
X112436815Y-75967815D01*
X112357463Y-76064506D01*
X112298498Y-76174820D01*
X112262188Y-76294518D01*
X112249928Y-76419000D01*
X112249928Y-77136717D01*
X111910645Y-77476000D01*
X90651623Y-77476000D01*
X90525939Y-77451000D01*
X90322061Y-77451000D01*
X90122102Y-77490774D01*
X89933744Y-77568795D01*
X89764226Y-77682063D01*
X89620063Y-77826226D01*
X89506795Y-77995744D01*
X89428774Y-78184102D01*
X89389000Y-78384061D01*
X89389000Y-78587939D01*
X89428774Y-78787898D01*
X89506795Y-78976256D01*
X89620063Y-79145774D01*
X89657289Y-79183000D01*
X77517320Y-79183000D01*
X77479997Y-79179324D01*
X77442674Y-79183000D01*
X77442665Y-79183000D01*
X77331012Y-79193997D01*
X77187751Y-79237454D01*
X77055722Y-79308026D01*
X76939997Y-79402999D01*
X76916199Y-79431997D01*
X73910998Y-82437199D01*
X73882000Y-82460997D01*
X73858202Y-82489995D01*
X73858201Y-82489996D01*
X73815763Y-82541706D01*
X73761939Y-82531000D01*
X73558061Y-82531000D01*
X73358102Y-82570774D01*
X73169744Y-82648795D01*
X73000226Y-82762063D01*
X72856063Y-82906226D01*
X72742795Y-83075744D01*
X72664774Y-83264102D01*
X72625000Y-83464061D01*
X72625000Y-83667939D01*
X72664774Y-83867898D01*
X72742795Y-84056256D01*
X72856063Y-84225774D01*
X72900000Y-84269711D01*
X72900001Y-84945314D01*
X72746226Y-85048063D01*
X72602063Y-85192226D01*
X72488795Y-85361744D01*
X72444827Y-85467891D01*
X72364939Y-85452000D01*
X72161061Y-85452000D01*
X71961102Y-85491774D01*
X71772744Y-85569795D01*
X71603226Y-85683063D01*
X71459063Y-85827226D01*
X71345795Y-85996744D01*
X71267774Y-86185102D01*
X71228000Y-86385061D01*
X71228000Y-86588939D01*
X71267774Y-86788898D01*
X71345795Y-86977256D01*
X71459063Y-87146774D01*
X71603226Y-87290937D01*
X71709776Y-87362132D01*
X73418744Y-89071100D01*
X73450367Y-89109633D01*
X73604160Y-89235847D01*
X73741067Y-89309025D01*
X73779620Y-89329632D01*
X73970005Y-89387385D01*
X74168000Y-89406886D01*
X74217608Y-89402000D01*
X75698000Y-89402000D01*
X75698000Y-89789000D01*
X71374000Y-89789000D01*
X71349224Y-89791440D01*
X71325399Y-89798667D01*
X71303443Y-89810403D01*
X71284197Y-89826197D01*
X71268403Y-89845443D01*
X71256667Y-89867399D01*
X71249440Y-89891224D01*
X71247000Y-89916000D01*
X71247000Y-98430472D01*
X71222628Y-98420377D01*
X70481715Y-98273000D01*
X69726285Y-98273000D01*
X68985372Y-98420377D01*
X68287446Y-98709467D01*
X67659330Y-99129161D01*
X67125161Y-99663330D01*
X66705467Y-100291446D01*
X66416377Y-100989372D01*
X66269000Y-101730285D01*
X66192000Y-101730285D01*
X66192000Y-90519366D01*
X66193478Y-90520579D01*
X66303801Y-90579548D01*
X66423509Y-90615861D01*
X66548000Y-90628122D01*
X66672490Y-90615861D01*
X66792198Y-90579548D01*
X66902521Y-90520579D01*
X66999220Y-90441220D01*
X67078579Y-90344522D01*
X67127081Y-90253782D01*
X67151114Y-90261072D01*
X67333141Y-90279000D01*
X68662859Y-90279000D01*
X68844886Y-90261072D01*
X69078439Y-90190224D01*
X69293682Y-90075175D01*
X69482344Y-89920344D01*
X69637175Y-89731682D01*
X69752224Y-89516439D01*
X69823072Y-89282886D01*
X69846994Y-89040000D01*
X69823072Y-88797114D01*
X69752224Y-88563561D01*
X69637175Y-88348318D01*
X69482344Y-88159656D01*
X69293682Y-88004825D01*
X69078439Y-87889776D01*
X68844886Y-87818928D01*
X68726106Y-87807229D01*
X68749242Y-87728620D01*
X68760023Y-87672105D01*
X68771600Y-87615704D01*
X68772465Y-87606879D01*
X68772466Y-87606875D01*
X68772466Y-87606869D01*
X68780425Y-87519416D01*
X68780024Y-87461826D01*
X68780425Y-87404303D01*
X68779561Y-87395489D01*
X68779561Y-87395478D01*
X68779559Y-87395468D01*
X68770380Y-87308135D01*
X68758803Y-87251733D01*
X68748020Y-87195211D01*
X68745461Y-87186734D01*
X68745459Y-87186726D01*
X68745456Y-87186719D01*
X68719486Y-87102825D01*
X68697197Y-87049801D01*
X68675624Y-86996406D01*
X68671461Y-86988577D01*
X68629690Y-86911321D01*
X68597486Y-86863577D01*
X68565984Y-86815436D01*
X68560388Y-86808574D01*
X68560384Y-86808569D01*
X68560379Y-86808564D01*
X68504398Y-86740895D01*
X68463544Y-86700326D01*
X68423290Y-86659219D01*
X68416457Y-86653566D01*
X68416453Y-86653562D01*
X68416448Y-86653559D01*
X68348398Y-86598058D01*
X68300483Y-86566223D01*
X68252965Y-86533687D01*
X68245165Y-86529469D01*
X68167621Y-86488239D01*
X68114397Y-86466301D01*
X68061500Y-86443630D01*
X68053029Y-86441007D01*
X67968952Y-86415624D01*
X67912483Y-86404443D01*
X67856193Y-86392478D01*
X67847381Y-86391552D01*
X67847372Y-86391550D01*
X67847364Y-86391550D01*
X67759969Y-86382981D01*
X67759966Y-86382981D01*
X67729191Y-86379950D01*
X67353220Y-86379950D01*
X67183050Y-86167238D01*
X67183050Y-84012762D01*
X67353220Y-83800050D01*
X67729191Y-83800050D01*
X67760412Y-83796975D01*
X67766255Y-83796975D01*
X67775074Y-83796048D01*
X67812852Y-83791810D01*
X67822491Y-83790861D01*
X67823181Y-83790652D01*
X67862350Y-83786258D01*
X67918626Y-83774296D01*
X67975105Y-83763113D01*
X67983576Y-83760491D01*
X68067290Y-83733936D01*
X68120227Y-83711248D01*
X68173413Y-83689326D01*
X68181206Y-83685113D01*
X68181209Y-83685112D01*
X68181211Y-83685111D01*
X68181214Y-83685109D01*
X68258174Y-83642799D01*
X68305681Y-83610271D01*
X68353601Y-83578433D01*
X68360433Y-83572781D01*
X68360439Y-83572777D01*
X68360445Y-83572771D01*
X68427712Y-83516329D01*
X68468006Y-83475183D01*
X68508831Y-83434641D01*
X68514421Y-83427786D01*
X68514429Y-83427778D01*
X68514435Y-83427769D01*
X68569466Y-83359324D01*
X68600998Y-83311138D01*
X68633163Y-83263451D01*
X68637326Y-83255622D01*
X68637327Y-83255620D01*
X68637331Y-83255614D01*
X68637334Y-83255607D01*
X68678015Y-83177792D01*
X68699580Y-83124418D01*
X68721883Y-83071360D01*
X68724442Y-83062885D01*
X68724445Y-83062877D01*
X68724446Y-83062870D01*
X68749242Y-82978620D01*
X68760023Y-82922105D01*
X68771600Y-82865704D01*
X68772465Y-82856879D01*
X68772466Y-82856875D01*
X68772466Y-82856869D01*
X68780425Y-82769416D01*
X68780024Y-82711826D01*
X68780425Y-82654303D01*
X68779561Y-82645489D01*
X68779561Y-82645478D01*
X68779559Y-82645468D01*
X68770380Y-82558135D01*
X68758803Y-82501733D01*
X68748020Y-82445211D01*
X68745461Y-82436734D01*
X68745459Y-82436726D01*
X68745456Y-82436719D01*
X68725674Y-82372813D01*
X68844886Y-82361072D01*
X69078439Y-82290224D01*
X69293682Y-82175175D01*
X69482344Y-82020344D01*
X69637175Y-81831682D01*
X69752224Y-81616439D01*
X69823072Y-81382886D01*
X69846994Y-81140000D01*
X69823072Y-80897114D01*
X69752224Y-80663561D01*
X69637175Y-80448318D01*
X69482344Y-80259656D01*
X69293682Y-80104825D01*
X69078439Y-79989776D01*
X68844886Y-79918928D01*
X68662859Y-79901000D01*
X67333141Y-79901000D01*
X67151114Y-79918928D01*
X67127081Y-79926218D01*
X67078579Y-79835478D01*
X66999220Y-79738780D01*
X66902521Y-79659421D01*
X66792198Y-79600452D01*
X66672490Y-79564139D01*
X66548000Y-79551878D01*
X66423509Y-79564139D01*
X66303801Y-79600452D01*
X66193478Y-79659421D01*
X66192000Y-79660634D01*
X66192000Y-71250285D01*
X66269000Y-71250285D01*
X66269000Y-72005715D01*
X66416377Y-72746628D01*
X66705467Y-73444554D01*
X67125161Y-74072670D01*
X67659330Y-74606839D01*
X68287446Y-75026533D01*
X68985372Y-75315623D01*
X69726285Y-75463000D01*
X70481715Y-75463000D01*
X71222628Y-75315623D01*
X71920554Y-75026533D01*
X72548670Y-74606839D01*
X73082839Y-74072670D01*
X73502533Y-73444554D01*
X73791623Y-72746628D01*
X73939000Y-72005715D01*
X73939000Y-71250285D01*
X73791623Y-70509372D01*
X73502533Y-69811446D01*
X73082839Y-69183330D01*
X72548670Y-68649161D01*
X71920554Y-68229467D01*
X71222628Y-67940377D01*
X70481715Y-67793000D01*
X69726285Y-67793000D01*
X68985372Y-67940377D01*
X68287446Y-68229467D01*
X67659330Y-68649161D01*
X67125161Y-69183330D01*
X66705467Y-69811446D01*
X66416377Y-70509372D01*
X66269000Y-71250285D01*
X66192000Y-71250285D01*
X66192000Y-68866279D01*
X66216397Y-68617460D01*
X66279285Y-68409167D01*
X66381428Y-68217063D01*
X66518947Y-68048447D01*
X66686593Y-67909759D01*
X66877985Y-67806274D01*
X67085835Y-67741934D01*
X67332581Y-67716000D01*
X114150543Y-67716000D01*
X113818228Y-67853649D01*
G37*
%TD.AperFunction*%
%TD*%
M02*
