M48
INCH,TZ
T1C0.0157
T2C0.0197
T3C0.0394
T4C0.1201
T5C0.1260
%
G90
G05
T1
X26300Y-38900
X26500Y-35700
X26800Y-37900
X27200Y-35700
X27600Y-36400
X28000Y-34900
X28100Y-38700
X28400Y-36400
X28500Y-34800
X28600Y-38900
X29000Y-35600
X29100Y-32900
X29100Y-34700
X29500Y-38900
X30300Y-38600
X30350Y-36850
X30800Y-36100
X30800Y-37300
X31100Y-32000
X31126Y-36626
X31700Y-40400
X31800Y-35900
X33113Y-34887
X33400Y-35300
X33500Y-32600
X33600Y-37500
X34700Y-38300
X34700Y-39200
X35000Y-34800
X35200Y-32600
X35200Y-33800
X36200Y-36500
X36900Y-33100
X36900Y-34400
T3
X37941Y-30383
X37941Y-31474
X37941Y-32564
X37941Y-33655
X37941Y-34745
X37941Y-35836
X37941Y-36926
X37941Y-38017
X39059Y-30928
X39059Y-32019
X39059Y-33109
X39059Y-34200
X39059Y-35291
X39059Y-36381
X39059Y-37472
T4
X38508Y-27645
X38508Y-40755
T5
X27600Y-28200
X27600Y-40200
T2
G00X26538Y-32401
M15
G01X26262Y-32401
M16
G05
G00X26538Y-34999
M15
G01X26262Y-34999
M16
G05
T0
M30
