%TF.GenerationSoftware,KiCad,Pcbnew,(5.1.6-85-g2d1f6937d)*%
%TF.CreationDate,2020-09-04T18:30:32-07:00*%
%TF.ProjectId,3DProUsb,33445072-6f55-4736-922e-6b696361645f,rev?*%
%TF.SameCoordinates,Original*%
%TF.FileFunction,Copper,L1,Top*%
%TF.FilePolarity,Positive*%
%FSLAX46Y46*%
G04 Gerber Fmt 4.6, Leading zero omitted, Abs format (unit mm)*
G04 Created by KiCad (PCBNEW (5.1.6-85-g2d1f6937d)) date 2020-09-04 18:30:32*
%MOMM*%
%LPD*%
G01*
G04 APERTURE LIST*
%TA.AperFunction,SMDPad,CuDef*%
%ADD10C,1.500000*%
%TD*%
%TA.AperFunction,SMDPad,CuDef*%
%ADD11C,0.500000*%
%TD*%
%TA.AperFunction,ComponentPad*%
%ADD12C,6.400000*%
%TD*%
%TA.AperFunction,SMDPad,CuDef*%
%ADD13R,1.600000X1.400000*%
%TD*%
%TA.AperFunction,SMDPad,CuDef*%
%ADD14R,1.400000X1.200000*%
%TD*%
%TA.AperFunction,SMDPad,CuDef*%
%ADD15R,0.260000X1.010000*%
%TD*%
%TA.AperFunction,SMDPad,CuDef*%
%ADD16R,1.010000X0.260000*%
%TD*%
%TA.AperFunction,SMDPad,CuDef*%
%ADD17R,5.200000X5.200000*%
%TD*%
%TA.AperFunction,ComponentPad*%
%ADD18R,1.508000X1.508000*%
%TD*%
%TA.AperFunction,ComponentPad*%
%ADD19C,1.508000*%
%TD*%
%TA.AperFunction,ComponentPad*%
%ADD20C,4.066000*%
%TD*%
%TA.AperFunction,SMDPad,CuDef*%
%ADD21C,0.787000*%
%TD*%
%TA.AperFunction,ComponentPad*%
%ADD22C,1.450000*%
%TD*%
%TA.AperFunction,SMDPad,CuDef*%
%ADD23R,1.350000X0.400000*%
%TD*%
%TA.AperFunction,SMDPad,CuDef*%
%ADD24R,1.900000X1.500000*%
%TD*%
%TA.AperFunction,SMDPad,CuDef*%
%ADD25R,1.900000X1.200000*%
%TD*%
%TA.AperFunction,ComponentPad*%
%ADD26O,1.900000X0.950000*%
%TD*%
%TA.AperFunction,ViaPad*%
%ADD27C,0.800000*%
%TD*%
%TA.AperFunction,Conductor*%
%ADD28C,0.250000*%
%TD*%
%TA.AperFunction,NonConductor*%
%ADD29C,0.254000*%
%TD*%
%TA.AperFunction,NonConductor*%
%ADD30C,0.100000*%
%TD*%
G04 APERTURE END LIST*
D10*
%TO.P,REF\u002A\u002A,*%
%TO.N,*%
X69342000Y-77978000D03*
%TD*%
%TO.P,REF\u002A\u002A,*%
%TO.N,*%
X121158000Y-103124000D03*
%TD*%
%TO.P,REF\u002A\u002A,*%
%TO.N,*%
X121158000Y-70612000D03*
%TD*%
D11*
%TO.P,REF\u002A\u002A,*%
%TO.N,*%
X81026000Y-81026000D03*
%TD*%
%TO.P,REF\u002A\u002A,*%
%TO.N,*%
X81026000Y-89154000D03*
%TD*%
%TO.P,REF\u002A\u002A,*%
%TO.N,*%
X89154000Y-81026000D03*
%TD*%
D12*
%TO.P,REF\u002A\u002A,1*%
%TO.N,N/C*%
X70104000Y-102108000D03*
%TD*%
%TO.P,REF\u002A\u002A,1*%
%TO.N,N/C*%
X70104000Y-71628000D03*
%TD*%
D13*
%TO.P,SW1,3*%
%TO.N,RST*%
X97092000Y-100040000D03*
%TO.P,SW1,4*%
%TO.N,Net-(SW1-Pad4)*%
X105092000Y-100040000D03*
%TO.P,SW1,1*%
%TO.N,Net-(SW1-Pad1)*%
X97092000Y-95540000D03*
%TO.P,SW1,2*%
%TO.N,Earth*%
X105092000Y-95540000D03*
%TD*%
D14*
%TO.P,X1,4*%
%TO.N,Net-(X1-Pad4)*%
X89014000Y-93594000D03*
%TO.P,X1,3*%
%TO.N,Net-(C7-Pad1)*%
X86614000Y-93594000D03*
%TO.P,X1,2*%
%TO.N,Net-(X1-Pad2)*%
X86614000Y-91694000D03*
%TO.P,X1,1*%
%TO.N,Net-(C8-Pad1)*%
X89014000Y-91694000D03*
%TD*%
%TO.P,D1,2*%
%TO.N,Net-(D1-Pad2)*%
%TA.AperFunction,SMDPad,CuDef*%
G36*
G01*
X92360000Y-85849750D02*
X92360000Y-86362250D01*
G75*
G02*
X92141250Y-86581000I-218750J0D01*
G01*
X91703750Y-86581000D01*
G75*
G02*
X91485000Y-86362250I0J218750D01*
G01*
X91485000Y-85849750D01*
G75*
G02*
X91703750Y-85631000I218750J0D01*
G01*
X92141250Y-85631000D01*
G75*
G02*
X92360000Y-85849750I0J-218750D01*
G01*
G37*
%TD.AperFunction*%
%TO.P,D1,1*%
%TO.N,Net-(D1-Pad1)*%
%TA.AperFunction,SMDPad,CuDef*%
G36*
G01*
X93935000Y-85849750D02*
X93935000Y-86362250D01*
G75*
G02*
X93716250Y-86581000I-218750J0D01*
G01*
X93278750Y-86581000D01*
G75*
G02*
X93060000Y-86362250I0J218750D01*
G01*
X93060000Y-85849750D01*
G75*
G02*
X93278750Y-85631000I218750J0D01*
G01*
X93716250Y-85631000D01*
G75*
G02*
X93935000Y-85849750I0J-218750D01*
G01*
G37*
%TD.AperFunction*%
%TD*%
D15*
%TO.P,U1,12*%
%TO.N,Net-(U1-Pad12)*%
X82590000Y-88450000D03*
%TO.P,U1,13*%
%TO.N,RST*%
X83090000Y-88450000D03*
%TO.P,U1,14*%
%TO.N,VCC*%
X83590000Y-88450000D03*
%TO.P,U1,15*%
%TO.N,Earth*%
X84090000Y-88450000D03*
%TO.P,U1,16*%
%TO.N,Net-(C7-Pad1)*%
X84590000Y-88450000D03*
%TO.P,U1,17*%
%TO.N,Net-(C8-Pad1)*%
X85090000Y-88450000D03*
%TO.P,U1,18*%
%TO.N,Net-(U1-Pad18)*%
X85590000Y-88450000D03*
%TO.P,U1,19*%
%TO.N,Net-(U1-Pad19)*%
X86090000Y-88450000D03*
%TO.P,U1,20*%
%TO.N,Net-(U1-Pad20)*%
X86590000Y-88450000D03*
%TO.P,U1,21*%
%TO.N,PD3*%
X87090000Y-88450000D03*
%TO.P,U1,22*%
%TO.N,Net-(U1-Pad22)*%
X87590000Y-88450000D03*
%TO.P,U1,34*%
%TO.N,VCC*%
X87590000Y-81730000D03*
%TO.P,U1,35*%
%TO.N,Earth*%
X87090000Y-81730000D03*
%TO.P,U1,36*%
%TO.N,Net-(U1-Pad36)*%
X86590000Y-81730000D03*
%TO.P,U1,37*%
%TO.N,Net-(U1-Pad37)*%
X86090000Y-81730000D03*
%TO.P,U1,38*%
%TO.N,Net-(U1-Pad38)*%
X85590000Y-81730000D03*
%TO.P,U1,39*%
%TO.N,Net-(U1-Pad39)*%
X85090000Y-81730000D03*
%TO.P,U1,40*%
%TO.N,Net-(U1-Pad40)*%
X84590000Y-81730000D03*
%TO.P,U1,41*%
%TO.N,Net-(U1-Pad41)*%
X84090000Y-81730000D03*
%TO.P,U1,42*%
%TO.N,Net-(C6-Pad1)*%
X83590000Y-81730000D03*
%TO.P,U1,43*%
%TO.N,Earth*%
X83090000Y-81730000D03*
%TO.P,U1,44*%
%TO.N,VCC*%
X82590000Y-81730000D03*
D16*
%TO.P,U1,1*%
%TO.N,Net-(U1-Pad1)*%
X81730000Y-82590000D03*
%TO.P,U1,2*%
%TO.N,VCC*%
X81730000Y-83090000D03*
%TO.P,U1,3*%
%TO.N,Net-(R2-Pad1)*%
X81730000Y-83590000D03*
%TO.P,U1,4*%
%TO.N,Net-(R1-Pad1)*%
X81730000Y-84090000D03*
%TO.P,U1,5*%
%TO.N,Earth*%
X81730000Y-84590000D03*
%TO.P,U1,6*%
%TO.N,VCC*%
X81730000Y-85090000D03*
%TO.P,U1,7*%
X81730000Y-85590000D03*
%TO.P,U1,8*%
%TO.N,Net-(J3-Pad2)*%
X81730000Y-86090000D03*
%TO.P,U1,9*%
%TO.N,SCLK*%
X81730000Y-86590000D03*
%TO.P,U1,10*%
%TO.N,MOSI*%
X81730000Y-87090000D03*
%TO.P,U1,11*%
%TO.N,MISO*%
X81730000Y-87590000D03*
%TO.P,U1,23*%
%TO.N,Earth*%
X88450000Y-87590000D03*
%TO.P,U1,24*%
%TO.N,VCC*%
X88450000Y-87090000D03*
%TO.P,U1,25*%
%TO.N,Net-(U1-Pad25)*%
X88450000Y-86590000D03*
%TO.P,U1,26*%
%TO.N,Net-(D1-Pad2)*%
X88450000Y-86090000D03*
%TO.P,U1,27*%
%TO.N,Net-(U1-Pad27)*%
X88450000Y-85590000D03*
%TO.P,U1,28*%
%TO.N,Net-(C10-Pad1)*%
X88450000Y-85090000D03*
%TO.P,U1,29*%
%TO.N,Net-(C9-Pad1)*%
X88450000Y-84590000D03*
%TO.P,U1,30*%
%TO.N,Net-(U1-Pad30)*%
X88450000Y-84090000D03*
%TO.P,U1,31*%
%TO.N,Net-(U1-Pad31)*%
X88450000Y-83590000D03*
%TO.P,U1,32*%
%TO.N,Net-(U1-Pad32)*%
X88450000Y-83090000D03*
%TO.P,U1,33*%
%TO.N,Net-(R3-Pad1)*%
X88450000Y-82590000D03*
D17*
%TO.P,U1,45*%
%TO.N,Earth*%
X85090000Y-85090000D03*
%TD*%
%TO.P,R7,2*%
%TO.N,Net-(J3-Pad12)*%
%TA.AperFunction,SMDPad,CuDef*%
G36*
G01*
X101229000Y-90795000D02*
X101229000Y-89545000D01*
G75*
G02*
X101479000Y-89295000I250000J0D01*
G01*
X102229000Y-89295000D01*
G75*
G02*
X102479000Y-89545000I0J-250000D01*
G01*
X102479000Y-90795000D01*
G75*
G02*
X102229000Y-91045000I-250000J0D01*
G01*
X101479000Y-91045000D01*
G75*
G02*
X101229000Y-90795000I0J250000D01*
G01*
G37*
%TD.AperFunction*%
%TO.P,R7,1*%
%TO.N,PD3*%
%TA.AperFunction,SMDPad,CuDef*%
G36*
G01*
X98429000Y-90795000D02*
X98429000Y-89545000D01*
G75*
G02*
X98679000Y-89295000I250000J0D01*
G01*
X99429000Y-89295000D01*
G75*
G02*
X99679000Y-89545000I0J-250000D01*
G01*
X99679000Y-90795000D01*
G75*
G02*
X99429000Y-91045000I-250000J0D01*
G01*
X98679000Y-91045000D01*
G75*
G02*
X98429000Y-90795000I0J250000D01*
G01*
G37*
%TD.AperFunction*%
%TD*%
%TO.P,R6,2*%
%TO.N,Net-(J3-Pad11)*%
%TA.AperFunction,SMDPad,CuDef*%
G36*
G01*
X104838000Y-85770500D02*
X104838000Y-85425500D01*
G75*
G02*
X104985500Y-85278000I147500J0D01*
G01*
X105280500Y-85278000D01*
G75*
G02*
X105428000Y-85425500I0J-147500D01*
G01*
X105428000Y-85770500D01*
G75*
G02*
X105280500Y-85918000I-147500J0D01*
G01*
X104985500Y-85918000D01*
G75*
G02*
X104838000Y-85770500I0J147500D01*
G01*
G37*
%TD.AperFunction*%
%TO.P,R6,1*%
%TO.N,Net-(C10-Pad1)*%
%TA.AperFunction,SMDPad,CuDef*%
G36*
G01*
X103868000Y-85770500D02*
X103868000Y-85425500D01*
G75*
G02*
X104015500Y-85278000I147500J0D01*
G01*
X104310500Y-85278000D01*
G75*
G02*
X104458000Y-85425500I0J-147500D01*
G01*
X104458000Y-85770500D01*
G75*
G02*
X104310500Y-85918000I-147500J0D01*
G01*
X104015500Y-85918000D01*
G75*
G02*
X103868000Y-85770500I0J147500D01*
G01*
G37*
%TD.AperFunction*%
%TD*%
%TO.P,R5,2*%
%TO.N,Net-(J3-Pad3)*%
%TA.AperFunction,SMDPad,CuDef*%
G36*
G01*
X103314000Y-81452500D02*
X103314000Y-81107500D01*
G75*
G02*
X103461500Y-80960000I147500J0D01*
G01*
X103756500Y-80960000D01*
G75*
G02*
X103904000Y-81107500I0J-147500D01*
G01*
X103904000Y-81452500D01*
G75*
G02*
X103756500Y-81600000I-147500J0D01*
G01*
X103461500Y-81600000D01*
G75*
G02*
X103314000Y-81452500I0J147500D01*
G01*
G37*
%TD.AperFunction*%
%TO.P,R5,1*%
%TO.N,Net-(C9-Pad1)*%
%TA.AperFunction,SMDPad,CuDef*%
G36*
G01*
X102344000Y-81452500D02*
X102344000Y-81107500D01*
G75*
G02*
X102491500Y-80960000I147500J0D01*
G01*
X102786500Y-80960000D01*
G75*
G02*
X102934000Y-81107500I0J-147500D01*
G01*
X102934000Y-81452500D01*
G75*
G02*
X102786500Y-81600000I-147500J0D01*
G01*
X102491500Y-81600000D01*
G75*
G02*
X102344000Y-81452500I0J147500D01*
G01*
G37*
%TD.AperFunction*%
%TD*%
%TO.P,R4,2*%
%TO.N,Net-(D1-Pad1)*%
%TA.AperFunction,SMDPad,CuDef*%
G36*
G01*
X93898500Y-88964000D02*
X93553500Y-88964000D01*
G75*
G02*
X93406000Y-88816500I0J147500D01*
G01*
X93406000Y-88521500D01*
G75*
G02*
X93553500Y-88374000I147500J0D01*
G01*
X93898500Y-88374000D01*
G75*
G02*
X94046000Y-88521500I0J-147500D01*
G01*
X94046000Y-88816500D01*
G75*
G02*
X93898500Y-88964000I-147500J0D01*
G01*
G37*
%TD.AperFunction*%
%TO.P,R4,1*%
%TO.N,Earth*%
%TA.AperFunction,SMDPad,CuDef*%
G36*
G01*
X93898500Y-89934000D02*
X93553500Y-89934000D01*
G75*
G02*
X93406000Y-89786500I0J147500D01*
G01*
X93406000Y-89491500D01*
G75*
G02*
X93553500Y-89344000I147500J0D01*
G01*
X93898500Y-89344000D01*
G75*
G02*
X94046000Y-89491500I0J-147500D01*
G01*
X94046000Y-89786500D01*
G75*
G02*
X93898500Y-89934000I-147500J0D01*
G01*
G37*
%TD.AperFunction*%
%TD*%
%TO.P,R3,2*%
%TO.N,Earth*%
%TA.AperFunction,SMDPad,CuDef*%
G36*
G01*
X95417000Y-82976500D02*
X95417000Y-82631500D01*
G75*
G02*
X95564500Y-82484000I147500J0D01*
G01*
X95859500Y-82484000D01*
G75*
G02*
X96007000Y-82631500I0J-147500D01*
G01*
X96007000Y-82976500D01*
G75*
G02*
X95859500Y-83124000I-147500J0D01*
G01*
X95564500Y-83124000D01*
G75*
G02*
X95417000Y-82976500I0J147500D01*
G01*
G37*
%TD.AperFunction*%
%TO.P,R3,1*%
%TO.N,Net-(R3-Pad1)*%
%TA.AperFunction,SMDPad,CuDef*%
G36*
G01*
X94447000Y-82976500D02*
X94447000Y-82631500D01*
G75*
G02*
X94594500Y-82484000I147500J0D01*
G01*
X94889500Y-82484000D01*
G75*
G02*
X95037000Y-82631500I0J-147500D01*
G01*
X95037000Y-82976500D01*
G75*
G02*
X94889500Y-83124000I-147500J0D01*
G01*
X94594500Y-83124000D01*
G75*
G02*
X94447000Y-82976500I0J147500D01*
G01*
G37*
%TD.AperFunction*%
%TD*%
%TO.P,R2,2*%
%TO.N,Net-(J1-Pad2)*%
%TA.AperFunction,SMDPad,CuDef*%
G36*
G01*
X77257000Y-83393500D02*
X77257000Y-83738500D01*
G75*
G02*
X77109500Y-83886000I-147500J0D01*
G01*
X76814500Y-83886000D01*
G75*
G02*
X76667000Y-83738500I0J147500D01*
G01*
X76667000Y-83393500D01*
G75*
G02*
X76814500Y-83246000I147500J0D01*
G01*
X77109500Y-83246000D01*
G75*
G02*
X77257000Y-83393500I0J-147500D01*
G01*
G37*
%TD.AperFunction*%
%TO.P,R2,1*%
%TO.N,Net-(R2-Pad1)*%
%TA.AperFunction,SMDPad,CuDef*%
G36*
G01*
X78227000Y-83393500D02*
X78227000Y-83738500D01*
G75*
G02*
X78079500Y-83886000I-147500J0D01*
G01*
X77784500Y-83886000D01*
G75*
G02*
X77637000Y-83738500I0J147500D01*
G01*
X77637000Y-83393500D01*
G75*
G02*
X77784500Y-83246000I147500J0D01*
G01*
X78079500Y-83246000D01*
G75*
G02*
X78227000Y-83393500I0J-147500D01*
G01*
G37*
%TD.AperFunction*%
%TD*%
%TO.P,R1,2*%
%TO.N,Net-(J1-Pad3)*%
%TA.AperFunction,SMDPad,CuDef*%
G36*
G01*
X74740000Y-84917500D02*
X74740000Y-85262500D01*
G75*
G02*
X74592500Y-85410000I-147500J0D01*
G01*
X74297500Y-85410000D01*
G75*
G02*
X74150000Y-85262500I0J147500D01*
G01*
X74150000Y-84917500D01*
G75*
G02*
X74297500Y-84770000I147500J0D01*
G01*
X74592500Y-84770000D01*
G75*
G02*
X74740000Y-84917500I0J-147500D01*
G01*
G37*
%TD.AperFunction*%
%TO.P,R1,1*%
%TO.N,Net-(R1-Pad1)*%
%TA.AperFunction,SMDPad,CuDef*%
G36*
G01*
X75710000Y-84917500D02*
X75710000Y-85262500D01*
G75*
G02*
X75562500Y-85410000I-147500J0D01*
G01*
X75267500Y-85410000D01*
G75*
G02*
X75120000Y-85262500I0J147500D01*
G01*
X75120000Y-84917500D01*
G75*
G02*
X75267500Y-84770000I147500J0D01*
G01*
X75562500Y-84770000D01*
G75*
G02*
X75710000Y-84917500I0J-147500D01*
G01*
G37*
%TD.AperFunction*%
%TD*%
D18*
%TO.P,J3,1*%
%TO.N,VCC*%
X113642000Y-77173000D03*
D19*
%TO.P,J3,2*%
%TO.N,Net-(J3-Pad2)*%
X113642000Y-79943000D03*
%TO.P,J3,9*%
%TO.N,Net-(J3-Pad9)*%
X116482000Y-78558000D03*
D20*
%TO.P,J3,S1*%
%TO.N,N/C*%
X115082000Y-103518000D03*
%TO.P,J3,S2*%
X115082000Y-70218000D03*
D19*
%TO.P,J3,3*%
%TO.N,Net-(J3-Pad3)*%
X113642000Y-82713000D03*
%TO.P,J3,4*%
%TO.N,Earth*%
X113642000Y-85483000D03*
%TO.P,J3,5*%
%TO.N,Net-(J3-Pad5)*%
X113642000Y-88253000D03*
%TO.P,J3,6*%
%TO.N,Net-(J3-Pad6)*%
X113642000Y-91023000D03*
%TO.P,J3,7*%
%TO.N,SCLK*%
X113642000Y-93793000D03*
%TO.P,J3,8*%
%TO.N,Net-(J3-Pad8)*%
X113642000Y-96563000D03*
%TO.P,J3,10*%
%TO.N,MOSI*%
X116482000Y-81328000D03*
%TO.P,J3,11*%
%TO.N,Net-(J3-Pad11)*%
X116482000Y-84098000D03*
%TO.P,J3,12*%
%TO.N,Net-(J3-Pad12)*%
X116482000Y-86868000D03*
%TO.P,J3,13*%
%TO.N,Net-(J3-Pad11)*%
X116482000Y-89638000D03*
%TO.P,J3,14*%
%TO.N,MISO*%
X116482000Y-92408000D03*
%TO.P,J3,15*%
%TO.N,Net-(J3-Pad15)*%
X116482000Y-95178000D03*
%TD*%
D21*
%TO.P,J2,1*%
%TO.N,MISO*%
X74295000Y-93980000D03*
%TO.P,J2,2*%
%TO.N,VCC*%
X75565000Y-93980000D03*
%TO.P,J2,3*%
%TO.N,SCLK*%
X74295000Y-95250000D03*
%TO.P,J2,4*%
%TO.N,MOSI*%
X75565000Y-95250000D03*
%TO.P,J2,5*%
%TO.N,RST*%
X74295000Y-96520000D03*
%TO.P,J2,6*%
%TO.N,Earth*%
X75565000Y-96520000D03*
%TD*%
D22*
%TO.P,J1,SH1*%
%TO.N,N/C*%
X69660000Y-82590000D03*
%TO.P,J1,SH2*%
X69660000Y-87590000D03*
D23*
%TO.P,J1,1*%
%TO.N,VCC*%
X69660000Y-83790000D03*
%TO.P,J1,2*%
%TO.N,Net-(J1-Pad2)*%
X69660000Y-84440000D03*
%TO.P,J1,3*%
%TO.N,Net-(J1-Pad3)*%
X69660000Y-85090000D03*
%TO.P,J1,4*%
%TO.N,Net-(J1-Pad4)*%
X69660000Y-85740000D03*
%TO.P,J1,5*%
%TO.N,Earth*%
X69660000Y-86390000D03*
D24*
%TO.P,J1,SH5*%
%TO.N,N/C*%
X66960000Y-84090000D03*
%TO.P,J1,SH6*%
X66960000Y-86090000D03*
D25*
%TO.P,J1,SH4*%
X66960000Y-82190000D03*
%TO.P,J1,SH7*%
X66960000Y-87990000D03*
D26*
%TO.P,J1,SH3*%
X66960000Y-81590000D03*
%TO.P,J1,SH8*%
X66960000Y-88590000D03*
%TD*%
%TO.P,C10,2*%
%TO.N,Earth*%
%TA.AperFunction,SMDPad,CuDef*%
G36*
G01*
X100411500Y-86296000D02*
X100756500Y-86296000D01*
G75*
G02*
X100904000Y-86443500I0J-147500D01*
G01*
X100904000Y-86738500D01*
G75*
G02*
X100756500Y-86886000I-147500J0D01*
G01*
X100411500Y-86886000D01*
G75*
G02*
X100264000Y-86738500I0J147500D01*
G01*
X100264000Y-86443500D01*
G75*
G02*
X100411500Y-86296000I147500J0D01*
G01*
G37*
%TD.AperFunction*%
%TO.P,C10,1*%
%TO.N,Net-(C10-Pad1)*%
%TA.AperFunction,SMDPad,CuDef*%
G36*
G01*
X100411500Y-85326000D02*
X100756500Y-85326000D01*
G75*
G02*
X100904000Y-85473500I0J-147500D01*
G01*
X100904000Y-85768500D01*
G75*
G02*
X100756500Y-85916000I-147500J0D01*
G01*
X100411500Y-85916000D01*
G75*
G02*
X100264000Y-85768500I0J147500D01*
G01*
X100264000Y-85473500D01*
G75*
G02*
X100411500Y-85326000I147500J0D01*
G01*
G37*
%TD.AperFunction*%
%TD*%
%TO.P,C9,2*%
%TO.N,Earth*%
%TA.AperFunction,SMDPad,CuDef*%
G36*
G01*
X98978500Y-82614000D02*
X98633500Y-82614000D01*
G75*
G02*
X98486000Y-82466500I0J147500D01*
G01*
X98486000Y-82171500D01*
G75*
G02*
X98633500Y-82024000I147500J0D01*
G01*
X98978500Y-82024000D01*
G75*
G02*
X99126000Y-82171500I0J-147500D01*
G01*
X99126000Y-82466500D01*
G75*
G02*
X98978500Y-82614000I-147500J0D01*
G01*
G37*
%TD.AperFunction*%
%TO.P,C9,1*%
%TO.N,Net-(C9-Pad1)*%
%TA.AperFunction,SMDPad,CuDef*%
G36*
G01*
X98978500Y-83584000D02*
X98633500Y-83584000D01*
G75*
G02*
X98486000Y-83436500I0J147500D01*
G01*
X98486000Y-83141500D01*
G75*
G02*
X98633500Y-82994000I147500J0D01*
G01*
X98978500Y-82994000D01*
G75*
G02*
X99126000Y-83141500I0J-147500D01*
G01*
X99126000Y-83436500D01*
G75*
G02*
X98978500Y-83584000I-147500J0D01*
G01*
G37*
%TD.AperFunction*%
%TD*%
%TO.P,C8,2*%
%TO.N,Earth*%
%TA.AperFunction,SMDPad,CuDef*%
G36*
G01*
X94424000Y-92628500D02*
X94424000Y-92283500D01*
G75*
G02*
X94571500Y-92136000I147500J0D01*
G01*
X94866500Y-92136000D01*
G75*
G02*
X95014000Y-92283500I0J-147500D01*
G01*
X95014000Y-92628500D01*
G75*
G02*
X94866500Y-92776000I-147500J0D01*
G01*
X94571500Y-92776000D01*
G75*
G02*
X94424000Y-92628500I0J147500D01*
G01*
G37*
%TD.AperFunction*%
%TO.P,C8,1*%
%TO.N,Net-(C8-Pad1)*%
%TA.AperFunction,SMDPad,CuDef*%
G36*
G01*
X93454000Y-92628500D02*
X93454000Y-92283500D01*
G75*
G02*
X93601500Y-92136000I147500J0D01*
G01*
X93896500Y-92136000D01*
G75*
G02*
X94044000Y-92283500I0J-147500D01*
G01*
X94044000Y-92628500D01*
G75*
G02*
X93896500Y-92776000I-147500J0D01*
G01*
X93601500Y-92776000D01*
G75*
G02*
X93454000Y-92628500I0J147500D01*
G01*
G37*
%TD.AperFunction*%
%TD*%
%TO.P,C7,2*%
%TO.N,Earth*%
%TA.AperFunction,SMDPad,CuDef*%
G36*
G01*
X91376000Y-94914500D02*
X91376000Y-94569500D01*
G75*
G02*
X91523500Y-94422000I147500J0D01*
G01*
X91818500Y-94422000D01*
G75*
G02*
X91966000Y-94569500I0J-147500D01*
G01*
X91966000Y-94914500D01*
G75*
G02*
X91818500Y-95062000I-147500J0D01*
G01*
X91523500Y-95062000D01*
G75*
G02*
X91376000Y-94914500I0J147500D01*
G01*
G37*
%TD.AperFunction*%
%TO.P,C7,1*%
%TO.N,Net-(C7-Pad1)*%
%TA.AperFunction,SMDPad,CuDef*%
G36*
G01*
X90406000Y-94914500D02*
X90406000Y-94569500D01*
G75*
G02*
X90553500Y-94422000I147500J0D01*
G01*
X90848500Y-94422000D01*
G75*
G02*
X90996000Y-94569500I0J-147500D01*
G01*
X90996000Y-94914500D01*
G75*
G02*
X90848500Y-95062000I-147500J0D01*
G01*
X90553500Y-95062000D01*
G75*
G02*
X90406000Y-94914500I0J147500D01*
G01*
G37*
%TD.AperFunction*%
%TD*%
%TO.P,C6,2*%
%TO.N,Earth*%
%TA.AperFunction,SMDPad,CuDef*%
G36*
G01*
X83738500Y-75502000D02*
X83393500Y-75502000D01*
G75*
G02*
X83246000Y-75354500I0J147500D01*
G01*
X83246000Y-75059500D01*
G75*
G02*
X83393500Y-74912000I147500J0D01*
G01*
X83738500Y-74912000D01*
G75*
G02*
X83886000Y-75059500I0J-147500D01*
G01*
X83886000Y-75354500D01*
G75*
G02*
X83738500Y-75502000I-147500J0D01*
G01*
G37*
%TD.AperFunction*%
%TO.P,C6,1*%
%TO.N,Net-(C6-Pad1)*%
%TA.AperFunction,SMDPad,CuDef*%
G36*
G01*
X83738500Y-76472000D02*
X83393500Y-76472000D01*
G75*
G02*
X83246000Y-76324500I0J147500D01*
G01*
X83246000Y-76029500D01*
G75*
G02*
X83393500Y-75882000I147500J0D01*
G01*
X83738500Y-75882000D01*
G75*
G02*
X83886000Y-76029500I0J-147500D01*
G01*
X83886000Y-76324500D01*
G75*
G02*
X83738500Y-76472000I-147500J0D01*
G01*
G37*
%TD.AperFunction*%
%TD*%
%TO.P,C5,2*%
%TO.N,Earth*%
%TA.AperFunction,SMDPad,CuDef*%
G36*
G01*
X90251500Y-98719000D02*
X90596500Y-98719000D01*
G75*
G02*
X90744000Y-98866500I0J-147500D01*
G01*
X90744000Y-99161500D01*
G75*
G02*
X90596500Y-99309000I-147500J0D01*
G01*
X90251500Y-99309000D01*
G75*
G02*
X90104000Y-99161500I0J147500D01*
G01*
X90104000Y-98866500D01*
G75*
G02*
X90251500Y-98719000I147500J0D01*
G01*
G37*
%TD.AperFunction*%
%TO.P,C5,1*%
%TO.N,VCC*%
%TA.AperFunction,SMDPad,CuDef*%
G36*
G01*
X90251500Y-97749000D02*
X90596500Y-97749000D01*
G75*
G02*
X90744000Y-97896500I0J-147500D01*
G01*
X90744000Y-98191500D01*
G75*
G02*
X90596500Y-98339000I-147500J0D01*
G01*
X90251500Y-98339000D01*
G75*
G02*
X90104000Y-98191500I0J147500D01*
G01*
X90104000Y-97896500D01*
G75*
G02*
X90251500Y-97749000I147500J0D01*
G01*
G37*
%TD.AperFunction*%
%TD*%
%TO.P,C4,2*%
%TO.N,Earth*%
%TA.AperFunction,SMDPad,CuDef*%
G36*
G01*
X86695500Y-98742000D02*
X87040500Y-98742000D01*
G75*
G02*
X87188000Y-98889500I0J-147500D01*
G01*
X87188000Y-99184500D01*
G75*
G02*
X87040500Y-99332000I-147500J0D01*
G01*
X86695500Y-99332000D01*
G75*
G02*
X86548000Y-99184500I0J147500D01*
G01*
X86548000Y-98889500D01*
G75*
G02*
X86695500Y-98742000I147500J0D01*
G01*
G37*
%TD.AperFunction*%
%TO.P,C4,1*%
%TO.N,VCC*%
%TA.AperFunction,SMDPad,CuDef*%
G36*
G01*
X86695500Y-97772000D02*
X87040500Y-97772000D01*
G75*
G02*
X87188000Y-97919500I0J-147500D01*
G01*
X87188000Y-98214500D01*
G75*
G02*
X87040500Y-98362000I-147500J0D01*
G01*
X86695500Y-98362000D01*
G75*
G02*
X86548000Y-98214500I0J147500D01*
G01*
X86548000Y-97919500D01*
G75*
G02*
X86695500Y-97772000I147500J0D01*
G01*
G37*
%TD.AperFunction*%
%TD*%
%TO.P,C3,2*%
%TO.N,Earth*%
%TA.AperFunction,SMDPad,CuDef*%
G36*
G01*
X83139500Y-98742000D02*
X83484500Y-98742000D01*
G75*
G02*
X83632000Y-98889500I0J-147500D01*
G01*
X83632000Y-99184500D01*
G75*
G02*
X83484500Y-99332000I-147500J0D01*
G01*
X83139500Y-99332000D01*
G75*
G02*
X82992000Y-99184500I0J147500D01*
G01*
X82992000Y-98889500D01*
G75*
G02*
X83139500Y-98742000I147500J0D01*
G01*
G37*
%TD.AperFunction*%
%TO.P,C3,1*%
%TO.N,VCC*%
%TA.AperFunction,SMDPad,CuDef*%
G36*
G01*
X83139500Y-97772000D02*
X83484500Y-97772000D01*
G75*
G02*
X83632000Y-97919500I0J-147500D01*
G01*
X83632000Y-98214500D01*
G75*
G02*
X83484500Y-98362000I-147500J0D01*
G01*
X83139500Y-98362000D01*
G75*
G02*
X82992000Y-98214500I0J147500D01*
G01*
X82992000Y-97919500D01*
G75*
G02*
X83139500Y-97772000I147500J0D01*
G01*
G37*
%TD.AperFunction*%
%TD*%
%TO.P,C2,2*%
%TO.N,Earth*%
%TA.AperFunction,SMDPad,CuDef*%
G36*
G01*
X81198500Y-78042000D02*
X80853500Y-78042000D01*
G75*
G02*
X80706000Y-77894500I0J147500D01*
G01*
X80706000Y-77599500D01*
G75*
G02*
X80853500Y-77452000I147500J0D01*
G01*
X81198500Y-77452000D01*
G75*
G02*
X81346000Y-77599500I0J-147500D01*
G01*
X81346000Y-77894500D01*
G75*
G02*
X81198500Y-78042000I-147500J0D01*
G01*
G37*
%TD.AperFunction*%
%TO.P,C2,1*%
%TO.N,VCC*%
%TA.AperFunction,SMDPad,CuDef*%
G36*
G01*
X81198500Y-79012000D02*
X80853500Y-79012000D01*
G75*
G02*
X80706000Y-78864500I0J147500D01*
G01*
X80706000Y-78569500D01*
G75*
G02*
X80853500Y-78422000I147500J0D01*
G01*
X81198500Y-78422000D01*
G75*
G02*
X81346000Y-78569500I0J-147500D01*
G01*
X81346000Y-78864500D01*
G75*
G02*
X81198500Y-79012000I-147500J0D01*
G01*
G37*
%TD.AperFunction*%
%TD*%
%TO.P,C1,2*%
%TO.N,Earth*%
%TA.AperFunction,SMDPad,CuDef*%
G36*
G01*
X77642500Y-78019000D02*
X77297500Y-78019000D01*
G75*
G02*
X77150000Y-77871500I0J147500D01*
G01*
X77150000Y-77576500D01*
G75*
G02*
X77297500Y-77429000I147500J0D01*
G01*
X77642500Y-77429000D01*
G75*
G02*
X77790000Y-77576500I0J-147500D01*
G01*
X77790000Y-77871500D01*
G75*
G02*
X77642500Y-78019000I-147500J0D01*
G01*
G37*
%TD.AperFunction*%
%TO.P,C1,1*%
%TO.N,VCC*%
%TA.AperFunction,SMDPad,CuDef*%
G36*
G01*
X77642500Y-78989000D02*
X77297500Y-78989000D01*
G75*
G02*
X77150000Y-78841500I0J147500D01*
G01*
X77150000Y-78546500D01*
G75*
G02*
X77297500Y-78399000I147500J0D01*
G01*
X77642500Y-78399000D01*
G75*
G02*
X77790000Y-78546500I0J-147500D01*
G01*
X77790000Y-78841500D01*
G75*
G02*
X77642500Y-78989000I-147500J0D01*
G01*
G37*
%TD.AperFunction*%
%TD*%
D27*
%TO.N,Earth*%
X108597000Y-85483000D03*
X71882000Y-87630000D03*
X88646000Y-77216000D03*
X93472000Y-99060000D03*
X96520000Y-93472000D03*
X80010000Y-98298000D03*
X97028000Y-88900000D03*
X121273000Y-85483000D03*
%TO.N,VCC*%
X75946000Y-82550000D03*
X80518000Y-95250000D03*
X83566000Y-95250000D03*
X76708000Y-85090000D03*
X90678000Y-88392000D03*
X84582000Y-93218000D03*
X90424000Y-78486000D03*
%TO.N,MISO*%
X80772000Y-91186000D03*
%TO.N,MOSI*%
X78994000Y-95250000D03*
X78994000Y-87122000D03*
%TO.N,Net-(J3-Pad2)*%
X72644000Y-86106000D03*
%TO.N,Net-(J3-Pad12)*%
X107414001Y-89943999D03*
%TD*%
D28*
%TO.N,Earth*%
X113642000Y-85483000D02*
X108597000Y-85483000D01*
X108597000Y-85483000D02*
X108597000Y-85483000D01*
X69660000Y-86390000D02*
X70642000Y-86390000D01*
X70642000Y-86390000D02*
X71882000Y-87630000D01*
X71882000Y-87630000D02*
X71882000Y-87630000D01*
X84590000Y-84590000D02*
X85090000Y-85090000D01*
X81730000Y-84590000D02*
X84590000Y-84590000D01*
X84090000Y-86090000D02*
X85090000Y-85090000D01*
X84090000Y-88450000D02*
X84090000Y-86090000D01*
X83090000Y-83090000D02*
X85090000Y-85090000D01*
X83090000Y-81730000D02*
X83090000Y-83090000D01*
X87590000Y-87590000D02*
X85090000Y-85090000D01*
X88450000Y-87590000D02*
X87590000Y-87590000D01*
X87090000Y-83090000D02*
X85090000Y-85090000D01*
X87090000Y-81730000D02*
X87090000Y-83090000D01*
X87090000Y-81730000D02*
X87090000Y-78772000D01*
X87090000Y-78772000D02*
X88646000Y-77216000D01*
X88646000Y-77216000D02*
X88646000Y-77216000D01*
X83312000Y-99037000D02*
X86868000Y-99037000D01*
X90401000Y-99037000D02*
X90424000Y-99014000D01*
X86868000Y-99037000D02*
X90401000Y-99037000D01*
X90424000Y-99014000D02*
X93426000Y-99014000D01*
X93426000Y-99014000D02*
X93472000Y-99060000D01*
X93472000Y-99060000D02*
X93472000Y-99060000D01*
X95504000Y-92456000D02*
X94719000Y-92456000D01*
X96520000Y-93472000D02*
X95504000Y-92456000D01*
X96520000Y-93472000D02*
X96520000Y-93472000D01*
X93980000Y-77216000D02*
X88646000Y-77216000D01*
X95712000Y-78948000D02*
X93980000Y-77216000D01*
X75565000Y-96520000D02*
X76962000Y-96520000D01*
X76962000Y-96520000D02*
X78740000Y-98298000D01*
X78740000Y-98298000D02*
X80010000Y-98298000D01*
X80010000Y-98298000D02*
X80010000Y-98298000D01*
X81026000Y-77427000D02*
X81026000Y-77747000D01*
X83246000Y-75207000D02*
X81026000Y-77427000D01*
X83566000Y-75207000D02*
X83246000Y-75207000D01*
X77493000Y-77747000D02*
X77470000Y-77724000D01*
X81026000Y-77747000D02*
X77493000Y-77747000D01*
X86637000Y-75207000D02*
X88646000Y-77216000D01*
X83566000Y-75207000D02*
X86637000Y-75207000D01*
X94719000Y-92776000D02*
X94719000Y-92456000D01*
X92753000Y-94742000D02*
X94719000Y-92776000D01*
X91671000Y-94742000D02*
X92753000Y-94742000D01*
X93726000Y-89639000D02*
X96289000Y-89639000D01*
X96289000Y-89639000D02*
X97028000Y-88900000D01*
X97028000Y-88900000D02*
X97028000Y-88900000D01*
X99337000Y-86591000D02*
X97028000Y-88900000D01*
X100584000Y-86591000D02*
X99337000Y-86591000D01*
X97998000Y-80472000D02*
X95712000Y-80472000D01*
X95712000Y-80472000D02*
X95712000Y-78948000D01*
X98806000Y-81280000D02*
X97998000Y-80472000D01*
X98806000Y-82319000D02*
X98806000Y-81280000D01*
X95712000Y-82804000D02*
X95712000Y-80472000D01*
X103024000Y-93472000D02*
X96520000Y-93472000D01*
X105092000Y-95540000D02*
X103024000Y-93472000D01*
X113642000Y-85483000D02*
X121273000Y-85483000D01*
X121273000Y-85483000D02*
X121273000Y-85483000D01*
%TO.N,VCC*%
X69660000Y-83790000D02*
X70642000Y-83790000D01*
X70642000Y-83790000D02*
X71882000Y-82550000D01*
X79534000Y-83090000D02*
X81730000Y-83090000D01*
X78994000Y-82550000D02*
X79534000Y-83090000D01*
X75946000Y-82550000D02*
X75946000Y-82550000D01*
X75946000Y-82550000D02*
X78994000Y-82550000D01*
X75946000Y-82550000D02*
X75946000Y-81026000D01*
X75565000Y-93980000D02*
X79248000Y-93980000D01*
X79248000Y-93980000D02*
X80518000Y-95250000D01*
X80518000Y-95250000D02*
X80518000Y-95250000D01*
X83566000Y-88474000D02*
X83590000Y-88450000D01*
X83566000Y-95250000D02*
X83312000Y-95504000D01*
X83312000Y-95504000D02*
X83312000Y-98067000D01*
X90424000Y-96520000D02*
X90424000Y-98044000D01*
X89154000Y-95250000D02*
X90424000Y-96520000D01*
X86868000Y-95250000D02*
X86868000Y-98067000D01*
X83566000Y-95250000D02*
X86868000Y-95250000D01*
X86868000Y-95250000D02*
X89154000Y-95250000D01*
X73660000Y-82550000D02*
X73660000Y-76454000D01*
X71882000Y-82550000D02*
X73660000Y-82550000D01*
X73660000Y-82550000D02*
X75946000Y-82550000D01*
X73660000Y-76454000D02*
X76962000Y-73152000D01*
X109621000Y-73152000D02*
X113642000Y-77173000D01*
X76962000Y-73152000D02*
X109621000Y-73152000D01*
X76708000Y-85090000D02*
X77114980Y-85496980D01*
X77114980Y-85496980D02*
X80162980Y-85496980D01*
X80256000Y-85590000D02*
X81730000Y-85590000D01*
X80162980Y-85496980D02*
X80256000Y-85590000D01*
X80569960Y-85090000D02*
X80162980Y-85496980D01*
X81730000Y-85090000D02*
X80569960Y-85090000D01*
X89205000Y-87090000D02*
X90678000Y-88392000D01*
X88450000Y-87090000D02*
X89205000Y-87090000D01*
X90678000Y-88392000D02*
X90507000Y-88392000D01*
X83566000Y-93218000D02*
X84582000Y-93218000D01*
X83566000Y-95250000D02*
X83566000Y-93218000D01*
X83566000Y-93218000D02*
X83566000Y-88474000D01*
X87590000Y-81730000D02*
X87590000Y-81320000D01*
X90424000Y-78486000D02*
X90424000Y-78486000D01*
X87590000Y-81730000D02*
X87590000Y-79796000D01*
X87590000Y-79796000D02*
X88900000Y-78486000D01*
X88900000Y-78486000D02*
X90424000Y-78486000D01*
X82590000Y-80975000D02*
X82550000Y-80935000D01*
X82590000Y-81730000D02*
X82590000Y-80975000D01*
X82550000Y-80935000D02*
X82550000Y-79502000D01*
X81765000Y-78717000D02*
X81026000Y-78717000D01*
X82550000Y-79502000D02*
X81765000Y-78717000D01*
X77493000Y-78717000D02*
X77470000Y-78694000D01*
X81026000Y-78717000D02*
X77493000Y-78717000D01*
X77470000Y-78694000D02*
X76754000Y-78694000D01*
X75946000Y-79502000D02*
X75946000Y-81026000D01*
X76754000Y-78694000D02*
X75946000Y-79502000D01*
%TO.N,Net-(C6-Pad1)*%
X83566000Y-81706000D02*
X83590000Y-81730000D01*
X83566000Y-76177000D02*
X83566000Y-81706000D01*
%TO.N,Net-(C7-Pad1)*%
X86614000Y-93594000D02*
X86614000Y-93726000D01*
X84590000Y-89306412D02*
X85013599Y-89730011D01*
X84590000Y-88450000D02*
X84590000Y-89306412D01*
X85013599Y-91993599D02*
X86614000Y-93594000D01*
X85013599Y-89730011D02*
X85013599Y-91993599D01*
X87762000Y-94742000D02*
X90701000Y-94742000D01*
X86614000Y-93594000D02*
X87762000Y-94742000D01*
%TO.N,Net-(C8-Pad1)*%
X88646000Y-91694000D02*
X89014000Y-91694000D01*
X89014000Y-90792000D02*
X89014000Y-91694000D01*
X87697600Y-90366010D02*
X88588010Y-90366010D01*
X86639991Y-89308401D02*
X87697600Y-90366010D01*
X86639990Y-89280001D02*
X86639991Y-89308401D01*
X88588010Y-90366010D02*
X89014000Y-90792000D01*
X85090000Y-88450000D02*
X85090000Y-89170002D01*
X85199999Y-89280001D02*
X86639990Y-89280001D01*
X85090000Y-89170002D02*
X85199999Y-89280001D01*
X92987000Y-91694000D02*
X93749000Y-92456000D01*
X89014000Y-91694000D02*
X92987000Y-91694000D01*
%TO.N,Net-(C9-Pad1)*%
X97505000Y-84590000D02*
X98806000Y-83289000D01*
X88450000Y-84590000D02*
X97505000Y-84590000D01*
X100630000Y-83289000D02*
X102639000Y-81280000D01*
X98806000Y-83289000D02*
X100630000Y-83289000D01*
%TO.N,Net-(C10-Pad1)*%
X100053000Y-85090000D02*
X100584000Y-85621000D01*
X88450000Y-85090000D02*
X100053000Y-85090000D01*
X104140000Y-85621000D02*
X104163000Y-85598000D01*
X100584000Y-85621000D02*
X104140000Y-85621000D01*
%TO.N,Net-(D1-Pad2)*%
X91906500Y-86090000D02*
X91922500Y-86106000D01*
X88450000Y-86090000D02*
X91906500Y-86090000D01*
%TO.N,Net-(D1-Pad1)*%
X93497500Y-88440500D02*
X93726000Y-88669000D01*
X93497500Y-86106000D02*
X93497500Y-88440500D01*
%TO.N,Net-(J1-Pad2)*%
X69660000Y-84440000D02*
X71516000Y-84440000D01*
X72390000Y-83566000D02*
X76962000Y-83566000D01*
X71516000Y-84440000D02*
X72390000Y-83566000D01*
%TO.N,Net-(J1-Pad3)*%
X69660000Y-85090000D02*
X74445000Y-85090000D01*
%TO.N,MISO*%
X80772000Y-91186000D02*
X80772000Y-91186000D01*
X73660000Y-93980000D02*
X74295000Y-93980000D01*
X73152000Y-93472000D02*
X73660000Y-93980000D01*
X74930000Y-88900000D02*
X73152000Y-90678000D01*
X78486000Y-88900000D02*
X74930000Y-88900000D01*
X73152000Y-90678000D02*
X73152000Y-93472000D01*
X78994000Y-89408000D02*
X78994000Y-88646000D01*
X80772000Y-91186000D02*
X78994000Y-89408000D01*
X78994000Y-89408000D02*
X78486000Y-88900000D01*
X80050000Y-87590000D02*
X81730000Y-87590000D01*
X78994000Y-88646000D02*
X80050000Y-87590000D01*
%TO.N,SCLK*%
X79986000Y-86590000D02*
X81730000Y-86590000D01*
X79792999Y-86396999D02*
X79986000Y-86590000D01*
X72390000Y-90424000D02*
X76417001Y-86396999D01*
X73406000Y-95250000D02*
X72390000Y-94234000D01*
X76417001Y-86396999D02*
X79792999Y-86396999D01*
X74295000Y-95250000D02*
X73406000Y-95250000D01*
X70866000Y-92456000D02*
X72390000Y-92456000D01*
X69596000Y-93726000D02*
X70866000Y-92456000D01*
X72390000Y-92456000D02*
X72390000Y-90424000D01*
X72390000Y-94234000D02*
X72390000Y-92456000D01*
X69596000Y-93726000D02*
X69596000Y-96012000D01*
X69596000Y-96012000D02*
X76708000Y-103124000D01*
X76708000Y-103124000D02*
X106680000Y-103124000D01*
X106680000Y-103124000D02*
X109728000Y-100076000D01*
X109728000Y-97707000D02*
X113642000Y-93793000D01*
X109728000Y-100076000D02*
X109728000Y-97707000D01*
%TO.N,MOSI*%
X75565000Y-95250000D02*
X78994000Y-95250000D01*
X78994000Y-95250000D02*
X78994000Y-95250000D01*
X81698000Y-87122000D02*
X81730000Y-87090000D01*
X78994000Y-87122000D02*
X81698000Y-87122000D01*
%TO.N,RST*%
X82042000Y-92202000D02*
X83090000Y-91154000D01*
X82042000Y-98298000D02*
X82042000Y-92202000D01*
X74734501Y-99001499D02*
X75555002Y-99822000D01*
X74734501Y-96959501D02*
X74734501Y-99001499D01*
X80518000Y-99822000D02*
X82042000Y-98298000D01*
X83090000Y-91154000D02*
X83090000Y-88450000D01*
X74295000Y-96520000D02*
X74734501Y-96959501D01*
X75555002Y-99822000D02*
X79502000Y-99822000D01*
X79502000Y-99822000D02*
X80518000Y-99822000D01*
X92710000Y-101092000D02*
X93762000Y-100040000D01*
X80010000Y-101092000D02*
X92710000Y-101092000D01*
X93762000Y-100040000D02*
X97092000Y-100040000D01*
X79502000Y-100584000D02*
X80010000Y-101092000D01*
X79502000Y-99822000D02*
X79502000Y-100584000D01*
%TO.N,Net-(J3-Pad2)*%
X79979400Y-85946990D02*
X80122410Y-86090000D01*
X80122410Y-86090000D02*
X81730000Y-86090000D01*
X76230601Y-85946989D02*
X79979400Y-85946990D01*
X76071590Y-86106000D02*
X76230601Y-85946989D01*
X72644000Y-86106000D02*
X76071590Y-86106000D01*
%TO.N,Net-(J3-Pad3)*%
X112209000Y-81280000D02*
X113642000Y-82713000D01*
X103609000Y-81280000D02*
X112209000Y-81280000D01*
%TO.N,Net-(J3-Pad11)*%
X109173000Y-89638000D02*
X105133000Y-85598000D01*
X116482000Y-89638000D02*
X109173000Y-89638000D01*
%TO.N,Net-(J3-Pad12)*%
X107188000Y-90170000D02*
X107414001Y-89943999D01*
X101854000Y-90170000D02*
X107188000Y-90170000D01*
%TO.N,Net-(R1-Pad1)*%
X75415000Y-85090000D02*
X75438000Y-85090000D01*
X75438000Y-85090000D02*
X76200000Y-84328000D01*
X76200000Y-84328000D02*
X78232000Y-84328000D01*
X78470000Y-84090000D02*
X81730000Y-84090000D01*
X78232000Y-84328000D02*
X78470000Y-84090000D01*
%TO.N,Net-(R2-Pad1)*%
X81706000Y-83566000D02*
X81730000Y-83590000D01*
X77932000Y-83566000D02*
X81706000Y-83566000D01*
%TO.N,Net-(R3-Pad1)*%
X94528000Y-82590000D02*
X94742000Y-82804000D01*
X88450000Y-82590000D02*
X94528000Y-82590000D01*
%TO.N,PD3*%
X87884000Y-89916000D02*
X88900001Y-89916001D01*
X88900001Y-89916001D02*
X89243010Y-90259010D01*
X98964990Y-90259010D02*
X99054000Y-90170000D01*
X87090000Y-89122000D02*
X87884000Y-89916000D01*
X89243010Y-90259010D02*
X98964990Y-90259010D01*
X87090000Y-88450000D02*
X87090000Y-89122000D01*
%TD*%
D29*
X113818228Y-67853649D02*
X113381249Y-68145629D01*
X113009629Y-68517249D01*
X112717649Y-68954228D01*
X112516530Y-69439773D01*
X112414000Y-69955225D01*
X112414000Y-70480775D01*
X112516530Y-70996227D01*
X112717649Y-71481772D01*
X113009629Y-71918751D01*
X113381249Y-72290371D01*
X113818228Y-72582351D01*
X114303773Y-72783470D01*
X114819225Y-72886000D01*
X115344775Y-72886000D01*
X115860227Y-72783470D01*
X116345772Y-72582351D01*
X116782751Y-72290371D01*
X117154371Y-71918751D01*
X117446351Y-71481772D01*
X117647470Y-70996227D01*
X117750000Y-70480775D01*
X117750000Y-70451755D01*
X119531000Y-70451755D01*
X119531000Y-70772245D01*
X119593525Y-71086578D01*
X119716172Y-71382673D01*
X119894227Y-71649152D01*
X120120848Y-71875773D01*
X120387327Y-72053828D01*
X120683422Y-72176475D01*
X120997755Y-72239000D01*
X121318245Y-72239000D01*
X121632578Y-72176475D01*
X121928673Y-72053828D01*
X122195152Y-71875773D01*
X122421773Y-71649152D01*
X122599828Y-71382673D01*
X122722475Y-71086578D01*
X122785000Y-70772245D01*
X122785000Y-70451755D01*
X122722475Y-70137422D01*
X122599828Y-69841327D01*
X122421773Y-69574848D01*
X122195152Y-69348227D01*
X121928673Y-69170172D01*
X121632578Y-69047525D01*
X121318245Y-68985000D01*
X120997755Y-68985000D01*
X120683422Y-69047525D01*
X120387327Y-69170172D01*
X120120848Y-69348227D01*
X119894227Y-69574848D01*
X119716172Y-69841327D01*
X119593525Y-70137422D01*
X119531000Y-70451755D01*
X117750000Y-70451755D01*
X117750000Y-69955225D01*
X117647470Y-69439773D01*
X117446351Y-68954228D01*
X117154371Y-68517249D01*
X116782751Y-68145629D01*
X116345772Y-67853649D01*
X116013457Y-67716000D01*
X124054000Y-67716000D01*
X124054001Y-106020000D01*
X116013457Y-106020000D01*
X116345772Y-105882351D01*
X116782751Y-105590371D01*
X117154371Y-105218751D01*
X117446351Y-104781772D01*
X117647470Y-104296227D01*
X117750000Y-103780775D01*
X117750000Y-103255225D01*
X117692023Y-102963755D01*
X119531000Y-102963755D01*
X119531000Y-103284245D01*
X119593525Y-103598578D01*
X119716172Y-103894673D01*
X119894227Y-104161152D01*
X120120848Y-104387773D01*
X120387327Y-104565828D01*
X120683422Y-104688475D01*
X120997755Y-104751000D01*
X121318245Y-104751000D01*
X121632578Y-104688475D01*
X121928673Y-104565828D01*
X122195152Y-104387773D01*
X122421773Y-104161152D01*
X122599828Y-103894673D01*
X122722475Y-103598578D01*
X122785000Y-103284245D01*
X122785000Y-102963755D01*
X122722475Y-102649422D01*
X122599828Y-102353327D01*
X122421773Y-102086848D01*
X122195152Y-101860227D01*
X121928673Y-101682172D01*
X121632578Y-101559525D01*
X121318245Y-101497000D01*
X120997755Y-101497000D01*
X120683422Y-101559525D01*
X120387327Y-101682172D01*
X120120848Y-101860227D01*
X119894227Y-102086848D01*
X119716172Y-102353327D01*
X119593525Y-102649422D01*
X119531000Y-102963755D01*
X117692023Y-102963755D01*
X117647470Y-102739773D01*
X117446351Y-102254228D01*
X117154371Y-101817249D01*
X116782751Y-101445629D01*
X116345772Y-101153649D01*
X115860227Y-100952530D01*
X115344775Y-100850000D01*
X114819225Y-100850000D01*
X114303773Y-100952530D01*
X113818228Y-101153649D01*
X113381249Y-101445629D01*
X113009629Y-101817249D01*
X112717649Y-102254228D01*
X112516530Y-102739773D01*
X112414000Y-103255225D01*
X112414000Y-103780775D01*
X112516530Y-104296227D01*
X112717649Y-104781772D01*
X113009629Y-105218751D01*
X113381249Y-105590371D01*
X113818228Y-105882351D01*
X114150543Y-106020000D01*
X66192000Y-106020000D01*
X66192000Y-89661065D01*
X66267402Y-89683938D01*
X66430479Y-89700000D01*
X67489521Y-89700000D01*
X67652598Y-89683938D01*
X67861834Y-89620468D01*
X68054666Y-89517396D01*
X68223686Y-89378686D01*
X68362396Y-89209666D01*
X68465468Y-89016834D01*
X68528938Y-88807598D01*
X68550370Y-88590000D01*
X68548072Y-88566669D01*
X68548072Y-88373817D01*
X68603619Y-88456949D01*
X68793051Y-88646381D01*
X69015799Y-88795216D01*
X69263303Y-88897736D01*
X69526052Y-88950000D01*
X69793948Y-88950000D01*
X70056697Y-88897736D01*
X70304201Y-88795216D01*
X70526949Y-88646381D01*
X70716381Y-88456949D01*
X70865216Y-88234201D01*
X70938604Y-88057027D01*
X70964795Y-88120256D01*
X71078063Y-88289774D01*
X71222226Y-88433937D01*
X71391744Y-88547205D01*
X71580102Y-88625226D01*
X71780061Y-88665000D01*
X71983939Y-88665000D01*
X72183898Y-88625226D01*
X72372256Y-88547205D01*
X72541774Y-88433937D01*
X72685937Y-88289774D01*
X72799205Y-88120256D01*
X72877226Y-87931898D01*
X72917000Y-87731939D01*
X72917000Y-87528061D01*
X72877226Y-87328102D01*
X72799205Y-87139744D01*
X72793697Y-87131500D01*
X72945898Y-87101226D01*
X73134256Y-87023205D01*
X73303774Y-86909937D01*
X73347711Y-86866000D01*
X74873198Y-86866000D01*
X71950199Y-89789000D01*
X71374000Y-89789000D01*
X71349224Y-89791440D01*
X71325399Y-89798667D01*
X71303443Y-89810403D01*
X71284197Y-89826197D01*
X71268403Y-89845443D01*
X71256667Y-89867399D01*
X71249440Y-89891224D01*
X71247000Y-89916000D01*
X71247000Y-91696000D01*
X70903322Y-91696000D01*
X70865999Y-91692324D01*
X70828676Y-91696000D01*
X70828667Y-91696000D01*
X70717014Y-91706997D01*
X70573753Y-91750454D01*
X70441724Y-91821026D01*
X70325999Y-91915999D01*
X70302201Y-91944997D01*
X69085003Y-93162196D01*
X69055999Y-93185999D01*
X69019070Y-93230998D01*
X68961026Y-93301724D01*
X68925214Y-93368724D01*
X68890454Y-93433754D01*
X68846997Y-93577015D01*
X68836000Y-93688668D01*
X68836000Y-93688678D01*
X68832324Y-93726000D01*
X68836000Y-93763323D01*
X68836001Y-95974668D01*
X68832324Y-96012000D01*
X68836001Y-96049333D01*
X68846998Y-96160986D01*
X68851241Y-96174974D01*
X68890454Y-96304246D01*
X68961026Y-96436276D01*
X69029737Y-96520000D01*
X69056000Y-96552001D01*
X69084998Y-96575799D01*
X70856810Y-98347611D01*
X70481715Y-98273000D01*
X69726285Y-98273000D01*
X68985372Y-98420377D01*
X68287446Y-98709467D01*
X67659330Y-99129161D01*
X67125161Y-99663330D01*
X66705467Y-100291446D01*
X66416377Y-100989372D01*
X66269000Y-101730285D01*
X66269000Y-102485715D01*
X66416377Y-103226628D01*
X66705467Y-103924554D01*
X67125161Y-104552670D01*
X67659330Y-105086839D01*
X68287446Y-105506533D01*
X68985372Y-105795623D01*
X69726285Y-105943000D01*
X70481715Y-105943000D01*
X71222628Y-105795623D01*
X71920554Y-105506533D01*
X72548670Y-105086839D01*
X73082839Y-104552670D01*
X73502533Y-103924554D01*
X73791623Y-103226628D01*
X73939000Y-102485715D01*
X73939000Y-101730285D01*
X73864389Y-101355191D01*
X76144201Y-103635003D01*
X76167999Y-103664001D01*
X76283724Y-103758974D01*
X76415753Y-103829546D01*
X76559014Y-103873003D01*
X76670667Y-103884000D01*
X76670677Y-103884000D01*
X76708000Y-103887676D01*
X76745323Y-103884000D01*
X106642678Y-103884000D01*
X106680000Y-103887676D01*
X106717322Y-103884000D01*
X106717333Y-103884000D01*
X106828986Y-103873003D01*
X106972247Y-103829546D01*
X107104276Y-103758974D01*
X107220001Y-103664001D01*
X107243804Y-103634997D01*
X110239004Y-100639798D01*
X110268001Y-100616001D01*
X110320526Y-100551999D01*
X110362974Y-100500277D01*
X110433546Y-100368247D01*
X110456749Y-100291754D01*
X110477003Y-100224986D01*
X110488000Y-100113333D01*
X110488000Y-100113323D01*
X110491676Y-100076000D01*
X110488000Y-100038677D01*
X110488000Y-98021801D01*
X112295061Y-96214741D01*
X112253000Y-96426195D01*
X112253000Y-96699805D01*
X112306378Y-96968156D01*
X112411084Y-97220938D01*
X112563093Y-97448436D01*
X112756564Y-97641907D01*
X112984062Y-97793916D01*
X113236844Y-97898622D01*
X113505195Y-97952000D01*
X113778805Y-97952000D01*
X114047156Y-97898622D01*
X114299938Y-97793916D01*
X114527436Y-97641907D01*
X114720907Y-97448436D01*
X114872916Y-97220938D01*
X114977622Y-96968156D01*
X115031000Y-96699805D01*
X115031000Y-96426195D01*
X114977622Y-96157844D01*
X114872916Y-95905062D01*
X114720907Y-95677564D01*
X114527436Y-95484093D01*
X114299938Y-95332084D01*
X114047156Y-95227378D01*
X113798914Y-95178000D01*
X114047156Y-95128622D01*
X114299938Y-95023916D01*
X114527436Y-94871907D01*
X114720907Y-94678436D01*
X114872916Y-94450938D01*
X114977622Y-94198156D01*
X115031000Y-93929805D01*
X115031000Y-93656195D01*
X114977622Y-93387844D01*
X114872916Y-93135062D01*
X114720907Y-92907564D01*
X114527436Y-92714093D01*
X114299938Y-92562084D01*
X114047156Y-92457378D01*
X113798914Y-92408000D01*
X114047156Y-92358622D01*
X114299938Y-92253916D01*
X114527436Y-92101907D01*
X114720907Y-91908436D01*
X114872916Y-91680938D01*
X114977622Y-91428156D01*
X115031000Y-91159805D01*
X115031000Y-90886195D01*
X114977622Y-90617844D01*
X114886559Y-90398000D01*
X115319280Y-90398000D01*
X115403093Y-90523436D01*
X115596564Y-90716907D01*
X115824062Y-90868916D01*
X116076844Y-90973622D01*
X116325086Y-91023000D01*
X116076844Y-91072378D01*
X115824062Y-91177084D01*
X115596564Y-91329093D01*
X115403093Y-91522564D01*
X115251084Y-91750062D01*
X115146378Y-92002844D01*
X115093000Y-92271195D01*
X115093000Y-92544805D01*
X115146378Y-92813156D01*
X115251084Y-93065938D01*
X115403093Y-93293436D01*
X115596564Y-93486907D01*
X115824062Y-93638916D01*
X116076844Y-93743622D01*
X116325086Y-93793000D01*
X116076844Y-93842378D01*
X115824062Y-93947084D01*
X115596564Y-94099093D01*
X115403093Y-94292564D01*
X115251084Y-94520062D01*
X115146378Y-94772844D01*
X115093000Y-95041195D01*
X115093000Y-95314805D01*
X115146378Y-95583156D01*
X115251084Y-95835938D01*
X115403093Y-96063436D01*
X115596564Y-96256907D01*
X115824062Y-96408916D01*
X116076844Y-96513622D01*
X116345195Y-96567000D01*
X116618805Y-96567000D01*
X116887156Y-96513622D01*
X117139938Y-96408916D01*
X117367436Y-96256907D01*
X117560907Y-96063436D01*
X117712916Y-95835938D01*
X117817622Y-95583156D01*
X117871000Y-95314805D01*
X117871000Y-95041195D01*
X117817622Y-94772844D01*
X117712916Y-94520062D01*
X117560907Y-94292564D01*
X117367436Y-94099093D01*
X117139938Y-93947084D01*
X116887156Y-93842378D01*
X116638914Y-93793000D01*
X116887156Y-93743622D01*
X117139938Y-93638916D01*
X117367436Y-93486907D01*
X117560907Y-93293436D01*
X117712916Y-93065938D01*
X117817622Y-92813156D01*
X117871000Y-92544805D01*
X117871000Y-92271195D01*
X117817622Y-92002844D01*
X117712916Y-91750062D01*
X117560907Y-91522564D01*
X117367436Y-91329093D01*
X117139938Y-91177084D01*
X116887156Y-91072378D01*
X116638914Y-91023000D01*
X116887156Y-90973622D01*
X117139938Y-90868916D01*
X117367436Y-90716907D01*
X117560907Y-90523436D01*
X117712916Y-90295938D01*
X117817622Y-90043156D01*
X117871000Y-89774805D01*
X117871000Y-89501195D01*
X117817622Y-89232844D01*
X117712916Y-88980062D01*
X117560907Y-88752564D01*
X117367436Y-88559093D01*
X117139938Y-88407084D01*
X116887156Y-88302378D01*
X116638914Y-88253000D01*
X116887156Y-88203622D01*
X117139938Y-88098916D01*
X117367436Y-87946907D01*
X117560907Y-87753436D01*
X117712916Y-87525938D01*
X117817622Y-87273156D01*
X117871000Y-87004805D01*
X117871000Y-86731195D01*
X117817622Y-86462844D01*
X117726559Y-86243000D01*
X120569289Y-86243000D01*
X120613226Y-86286937D01*
X120782744Y-86400205D01*
X120971102Y-86478226D01*
X121171061Y-86518000D01*
X121374939Y-86518000D01*
X121574898Y-86478226D01*
X121763256Y-86400205D01*
X121932774Y-86286937D01*
X122076937Y-86142774D01*
X122190205Y-85973256D01*
X122268226Y-85784898D01*
X122308000Y-85584939D01*
X122308000Y-85381061D01*
X122268226Y-85181102D01*
X122190205Y-84992744D01*
X122076937Y-84823226D01*
X121932774Y-84679063D01*
X121763256Y-84565795D01*
X121574898Y-84487774D01*
X121374939Y-84448000D01*
X121171061Y-84448000D01*
X120971102Y-84487774D01*
X120782744Y-84565795D01*
X120613226Y-84679063D01*
X120569289Y-84723000D01*
X117726559Y-84723000D01*
X117817622Y-84503156D01*
X117871000Y-84234805D01*
X117871000Y-83961195D01*
X117817622Y-83692844D01*
X117712916Y-83440062D01*
X117560907Y-83212564D01*
X117367436Y-83019093D01*
X117139938Y-82867084D01*
X116887156Y-82762378D01*
X116638914Y-82713000D01*
X116887156Y-82663622D01*
X117139938Y-82558916D01*
X117367436Y-82406907D01*
X117560907Y-82213436D01*
X117712916Y-81985938D01*
X117817622Y-81733156D01*
X117871000Y-81464805D01*
X117871000Y-81191195D01*
X117817622Y-80922844D01*
X117712916Y-80670062D01*
X117560907Y-80442564D01*
X117367436Y-80249093D01*
X117139938Y-80097084D01*
X116887156Y-79992378D01*
X116638914Y-79943000D01*
X116887156Y-79893622D01*
X117139938Y-79788916D01*
X117367436Y-79636907D01*
X117560907Y-79443436D01*
X117712916Y-79215938D01*
X117817622Y-78963156D01*
X117871000Y-78694805D01*
X117871000Y-78421195D01*
X117817622Y-78152844D01*
X117712916Y-77900062D01*
X117560907Y-77672564D01*
X117367436Y-77479093D01*
X117139938Y-77327084D01*
X116887156Y-77222378D01*
X116618805Y-77169000D01*
X116345195Y-77169000D01*
X116076844Y-77222378D01*
X115824062Y-77327084D01*
X115596564Y-77479093D01*
X115403093Y-77672564D01*
X115251084Y-77900062D01*
X115146378Y-78152844D01*
X115093000Y-78421195D01*
X115093000Y-78694805D01*
X115146378Y-78963156D01*
X115251084Y-79215938D01*
X115403093Y-79443436D01*
X115596564Y-79636907D01*
X115824062Y-79788916D01*
X116076844Y-79893622D01*
X116325086Y-79943000D01*
X116076844Y-79992378D01*
X115824062Y-80097084D01*
X115596564Y-80249093D01*
X115403093Y-80442564D01*
X115251084Y-80670062D01*
X115146378Y-80922844D01*
X115093000Y-81191195D01*
X115093000Y-81464805D01*
X115146378Y-81733156D01*
X115251084Y-81985938D01*
X115403093Y-82213436D01*
X115596564Y-82406907D01*
X115824062Y-82558916D01*
X116076844Y-82663622D01*
X116325086Y-82713000D01*
X116076844Y-82762378D01*
X115824062Y-82867084D01*
X115596564Y-83019093D01*
X115403093Y-83212564D01*
X115251084Y-83440062D01*
X115146378Y-83692844D01*
X115093000Y-83961195D01*
X115093000Y-84234805D01*
X115146378Y-84503156D01*
X115237441Y-84723000D01*
X114804720Y-84723000D01*
X114720907Y-84597564D01*
X114527436Y-84404093D01*
X114299938Y-84252084D01*
X114047156Y-84147378D01*
X113798914Y-84098000D01*
X114047156Y-84048622D01*
X114299938Y-83943916D01*
X114527436Y-83791907D01*
X114720907Y-83598436D01*
X114872916Y-83370938D01*
X114977622Y-83118156D01*
X115031000Y-82849805D01*
X115031000Y-82576195D01*
X114977622Y-82307844D01*
X114872916Y-82055062D01*
X114720907Y-81827564D01*
X114527436Y-81634093D01*
X114299938Y-81482084D01*
X114047156Y-81377378D01*
X113798914Y-81328000D01*
X114047156Y-81278622D01*
X114299938Y-81173916D01*
X114527436Y-81021907D01*
X114720907Y-80828436D01*
X114872916Y-80600938D01*
X114977622Y-80348156D01*
X115031000Y-80079805D01*
X115031000Y-79806195D01*
X114977622Y-79537844D01*
X114872916Y-79285062D01*
X114720907Y-79057564D01*
X114527436Y-78864093D01*
X114299938Y-78712084D01*
X114047156Y-78607378D01*
X113834468Y-78565072D01*
X114396000Y-78565072D01*
X114520482Y-78552812D01*
X114640180Y-78516502D01*
X114750494Y-78457537D01*
X114847185Y-78378185D01*
X114926537Y-78281494D01*
X114985502Y-78171180D01*
X115021812Y-78051482D01*
X115034072Y-77927000D01*
X115034072Y-76419000D01*
X115021812Y-76294518D01*
X114985502Y-76174820D01*
X114926537Y-76064506D01*
X114847185Y-75967815D01*
X114750494Y-75888463D01*
X114640180Y-75829498D01*
X114520482Y-75793188D01*
X114396000Y-75780928D01*
X113324730Y-75780928D01*
X110184804Y-72641003D01*
X110161001Y-72611999D01*
X110045276Y-72517026D01*
X109913247Y-72446454D01*
X109769986Y-72402997D01*
X109658333Y-72392000D01*
X109658322Y-72392000D01*
X109621000Y-72388324D01*
X109583678Y-72392000D01*
X76999322Y-72392000D01*
X76961999Y-72388324D01*
X76924676Y-72392000D01*
X76924667Y-72392000D01*
X76813014Y-72402997D01*
X76669753Y-72446454D01*
X76537724Y-72517026D01*
X76421999Y-72611999D01*
X76398201Y-72640997D01*
X73148998Y-75890201D01*
X73120000Y-75913999D01*
X73096202Y-75942997D01*
X73096201Y-75942998D01*
X73025026Y-76029724D01*
X72954454Y-76161754D01*
X72936551Y-76220774D01*
X72910998Y-76305014D01*
X72900001Y-76416667D01*
X72896324Y-76454000D01*
X72900001Y-76491332D01*
X72900000Y-81790000D01*
X71919323Y-81790000D01*
X71882000Y-81786324D01*
X71844677Y-81790000D01*
X71844667Y-81790000D01*
X71733014Y-81800997D01*
X71589753Y-81844454D01*
X71457724Y-81915026D01*
X71341999Y-82009999D01*
X71318201Y-82038997D01*
X71000281Y-82356917D01*
X70967736Y-82193303D01*
X70865216Y-81945799D01*
X70716381Y-81723051D01*
X70526949Y-81533619D01*
X70304201Y-81384784D01*
X70056697Y-81282264D01*
X69793948Y-81230000D01*
X69526052Y-81230000D01*
X69263303Y-81282264D01*
X69015799Y-81384784D01*
X68793051Y-81533619D01*
X68603619Y-81723051D01*
X68548072Y-81806183D01*
X68548072Y-81613331D01*
X68550370Y-81590000D01*
X68528938Y-81372402D01*
X68465468Y-81163166D01*
X68362396Y-80970334D01*
X68223686Y-80801314D01*
X68054666Y-80662604D01*
X67861834Y-80559532D01*
X67652598Y-80496062D01*
X67489521Y-80480000D01*
X66430479Y-80480000D01*
X66267402Y-80496062D01*
X66192000Y-80518935D01*
X66192000Y-77817755D01*
X67715000Y-77817755D01*
X67715000Y-78138245D01*
X67777525Y-78452578D01*
X67900172Y-78748673D01*
X68078227Y-79015152D01*
X68304848Y-79241773D01*
X68571327Y-79419828D01*
X68867422Y-79542475D01*
X69181755Y-79605000D01*
X69502245Y-79605000D01*
X69816578Y-79542475D01*
X70112673Y-79419828D01*
X70379152Y-79241773D01*
X70605773Y-79015152D01*
X70783828Y-78748673D01*
X70906475Y-78452578D01*
X70969000Y-78138245D01*
X70969000Y-77817755D01*
X70906475Y-77503422D01*
X70783828Y-77207327D01*
X70605773Y-76940848D01*
X70379152Y-76714227D01*
X70112673Y-76536172D01*
X69816578Y-76413525D01*
X69502245Y-76351000D01*
X69181755Y-76351000D01*
X68867422Y-76413525D01*
X68571327Y-76536172D01*
X68304848Y-76714227D01*
X68078227Y-76940848D01*
X67900172Y-77207327D01*
X67777525Y-77503422D01*
X67715000Y-77817755D01*
X66192000Y-77817755D01*
X66192000Y-71250285D01*
X66269000Y-71250285D01*
X66269000Y-72005715D01*
X66416377Y-72746628D01*
X66705467Y-73444554D01*
X67125161Y-74072670D01*
X67659330Y-74606839D01*
X68287446Y-75026533D01*
X68985372Y-75315623D01*
X69726285Y-75463000D01*
X70481715Y-75463000D01*
X71222628Y-75315623D01*
X71920554Y-75026533D01*
X72548670Y-74606839D01*
X73082839Y-74072670D01*
X73502533Y-73444554D01*
X73791623Y-72746628D01*
X73939000Y-72005715D01*
X73939000Y-71250285D01*
X73791623Y-70509372D01*
X73502533Y-69811446D01*
X73082839Y-69183330D01*
X72548670Y-68649161D01*
X71920554Y-68229467D01*
X71222628Y-67940377D01*
X70481715Y-67793000D01*
X69726285Y-67793000D01*
X68985372Y-67940377D01*
X68287446Y-68229467D01*
X67659330Y-68649161D01*
X67125161Y-69183330D01*
X66705467Y-69811446D01*
X66416377Y-70509372D01*
X66269000Y-71250285D01*
X66192000Y-71250285D01*
X66192000Y-67716000D01*
X114150543Y-67716000D01*
X113818228Y-67853649D01*
%TA.AperFunction,NonConductor*%
D30*
G36*
X113818228Y-67853649D02*
G01*
X113381249Y-68145629D01*
X113009629Y-68517249D01*
X112717649Y-68954228D01*
X112516530Y-69439773D01*
X112414000Y-69955225D01*
X112414000Y-70480775D01*
X112516530Y-70996227D01*
X112717649Y-71481772D01*
X113009629Y-71918751D01*
X113381249Y-72290371D01*
X113818228Y-72582351D01*
X114303773Y-72783470D01*
X114819225Y-72886000D01*
X115344775Y-72886000D01*
X115860227Y-72783470D01*
X116345772Y-72582351D01*
X116782751Y-72290371D01*
X117154371Y-71918751D01*
X117446351Y-71481772D01*
X117647470Y-70996227D01*
X117750000Y-70480775D01*
X117750000Y-70451755D01*
X119531000Y-70451755D01*
X119531000Y-70772245D01*
X119593525Y-71086578D01*
X119716172Y-71382673D01*
X119894227Y-71649152D01*
X120120848Y-71875773D01*
X120387327Y-72053828D01*
X120683422Y-72176475D01*
X120997755Y-72239000D01*
X121318245Y-72239000D01*
X121632578Y-72176475D01*
X121928673Y-72053828D01*
X122195152Y-71875773D01*
X122421773Y-71649152D01*
X122599828Y-71382673D01*
X122722475Y-71086578D01*
X122785000Y-70772245D01*
X122785000Y-70451755D01*
X122722475Y-70137422D01*
X122599828Y-69841327D01*
X122421773Y-69574848D01*
X122195152Y-69348227D01*
X121928673Y-69170172D01*
X121632578Y-69047525D01*
X121318245Y-68985000D01*
X120997755Y-68985000D01*
X120683422Y-69047525D01*
X120387327Y-69170172D01*
X120120848Y-69348227D01*
X119894227Y-69574848D01*
X119716172Y-69841327D01*
X119593525Y-70137422D01*
X119531000Y-70451755D01*
X117750000Y-70451755D01*
X117750000Y-69955225D01*
X117647470Y-69439773D01*
X117446351Y-68954228D01*
X117154371Y-68517249D01*
X116782751Y-68145629D01*
X116345772Y-67853649D01*
X116013457Y-67716000D01*
X124054000Y-67716000D01*
X124054001Y-106020000D01*
X116013457Y-106020000D01*
X116345772Y-105882351D01*
X116782751Y-105590371D01*
X117154371Y-105218751D01*
X117446351Y-104781772D01*
X117647470Y-104296227D01*
X117750000Y-103780775D01*
X117750000Y-103255225D01*
X117692023Y-102963755D01*
X119531000Y-102963755D01*
X119531000Y-103284245D01*
X119593525Y-103598578D01*
X119716172Y-103894673D01*
X119894227Y-104161152D01*
X120120848Y-104387773D01*
X120387327Y-104565828D01*
X120683422Y-104688475D01*
X120997755Y-104751000D01*
X121318245Y-104751000D01*
X121632578Y-104688475D01*
X121928673Y-104565828D01*
X122195152Y-104387773D01*
X122421773Y-104161152D01*
X122599828Y-103894673D01*
X122722475Y-103598578D01*
X122785000Y-103284245D01*
X122785000Y-102963755D01*
X122722475Y-102649422D01*
X122599828Y-102353327D01*
X122421773Y-102086848D01*
X122195152Y-101860227D01*
X121928673Y-101682172D01*
X121632578Y-101559525D01*
X121318245Y-101497000D01*
X120997755Y-101497000D01*
X120683422Y-101559525D01*
X120387327Y-101682172D01*
X120120848Y-101860227D01*
X119894227Y-102086848D01*
X119716172Y-102353327D01*
X119593525Y-102649422D01*
X119531000Y-102963755D01*
X117692023Y-102963755D01*
X117647470Y-102739773D01*
X117446351Y-102254228D01*
X117154371Y-101817249D01*
X116782751Y-101445629D01*
X116345772Y-101153649D01*
X115860227Y-100952530D01*
X115344775Y-100850000D01*
X114819225Y-100850000D01*
X114303773Y-100952530D01*
X113818228Y-101153649D01*
X113381249Y-101445629D01*
X113009629Y-101817249D01*
X112717649Y-102254228D01*
X112516530Y-102739773D01*
X112414000Y-103255225D01*
X112414000Y-103780775D01*
X112516530Y-104296227D01*
X112717649Y-104781772D01*
X113009629Y-105218751D01*
X113381249Y-105590371D01*
X113818228Y-105882351D01*
X114150543Y-106020000D01*
X66192000Y-106020000D01*
X66192000Y-89661065D01*
X66267402Y-89683938D01*
X66430479Y-89700000D01*
X67489521Y-89700000D01*
X67652598Y-89683938D01*
X67861834Y-89620468D01*
X68054666Y-89517396D01*
X68223686Y-89378686D01*
X68362396Y-89209666D01*
X68465468Y-89016834D01*
X68528938Y-88807598D01*
X68550370Y-88590000D01*
X68548072Y-88566669D01*
X68548072Y-88373817D01*
X68603619Y-88456949D01*
X68793051Y-88646381D01*
X69015799Y-88795216D01*
X69263303Y-88897736D01*
X69526052Y-88950000D01*
X69793948Y-88950000D01*
X70056697Y-88897736D01*
X70304201Y-88795216D01*
X70526949Y-88646381D01*
X70716381Y-88456949D01*
X70865216Y-88234201D01*
X70938604Y-88057027D01*
X70964795Y-88120256D01*
X71078063Y-88289774D01*
X71222226Y-88433937D01*
X71391744Y-88547205D01*
X71580102Y-88625226D01*
X71780061Y-88665000D01*
X71983939Y-88665000D01*
X72183898Y-88625226D01*
X72372256Y-88547205D01*
X72541774Y-88433937D01*
X72685937Y-88289774D01*
X72799205Y-88120256D01*
X72877226Y-87931898D01*
X72917000Y-87731939D01*
X72917000Y-87528061D01*
X72877226Y-87328102D01*
X72799205Y-87139744D01*
X72793697Y-87131500D01*
X72945898Y-87101226D01*
X73134256Y-87023205D01*
X73303774Y-86909937D01*
X73347711Y-86866000D01*
X74873198Y-86866000D01*
X71950199Y-89789000D01*
X71374000Y-89789000D01*
X71349224Y-89791440D01*
X71325399Y-89798667D01*
X71303443Y-89810403D01*
X71284197Y-89826197D01*
X71268403Y-89845443D01*
X71256667Y-89867399D01*
X71249440Y-89891224D01*
X71247000Y-89916000D01*
X71247000Y-91696000D01*
X70903322Y-91696000D01*
X70865999Y-91692324D01*
X70828676Y-91696000D01*
X70828667Y-91696000D01*
X70717014Y-91706997D01*
X70573753Y-91750454D01*
X70441724Y-91821026D01*
X70325999Y-91915999D01*
X70302201Y-91944997D01*
X69085003Y-93162196D01*
X69055999Y-93185999D01*
X69019070Y-93230998D01*
X68961026Y-93301724D01*
X68925214Y-93368724D01*
X68890454Y-93433754D01*
X68846997Y-93577015D01*
X68836000Y-93688668D01*
X68836000Y-93688678D01*
X68832324Y-93726000D01*
X68836000Y-93763323D01*
X68836001Y-95974668D01*
X68832324Y-96012000D01*
X68836001Y-96049333D01*
X68846998Y-96160986D01*
X68851241Y-96174974D01*
X68890454Y-96304246D01*
X68961026Y-96436276D01*
X69029737Y-96520000D01*
X69056000Y-96552001D01*
X69084998Y-96575799D01*
X70856810Y-98347611D01*
X70481715Y-98273000D01*
X69726285Y-98273000D01*
X68985372Y-98420377D01*
X68287446Y-98709467D01*
X67659330Y-99129161D01*
X67125161Y-99663330D01*
X66705467Y-100291446D01*
X66416377Y-100989372D01*
X66269000Y-101730285D01*
X66269000Y-102485715D01*
X66416377Y-103226628D01*
X66705467Y-103924554D01*
X67125161Y-104552670D01*
X67659330Y-105086839D01*
X68287446Y-105506533D01*
X68985372Y-105795623D01*
X69726285Y-105943000D01*
X70481715Y-105943000D01*
X71222628Y-105795623D01*
X71920554Y-105506533D01*
X72548670Y-105086839D01*
X73082839Y-104552670D01*
X73502533Y-103924554D01*
X73791623Y-103226628D01*
X73939000Y-102485715D01*
X73939000Y-101730285D01*
X73864389Y-101355191D01*
X76144201Y-103635003D01*
X76167999Y-103664001D01*
X76283724Y-103758974D01*
X76415753Y-103829546D01*
X76559014Y-103873003D01*
X76670667Y-103884000D01*
X76670677Y-103884000D01*
X76708000Y-103887676D01*
X76745323Y-103884000D01*
X106642678Y-103884000D01*
X106680000Y-103887676D01*
X106717322Y-103884000D01*
X106717333Y-103884000D01*
X106828986Y-103873003D01*
X106972247Y-103829546D01*
X107104276Y-103758974D01*
X107220001Y-103664001D01*
X107243804Y-103634997D01*
X110239004Y-100639798D01*
X110268001Y-100616001D01*
X110320526Y-100551999D01*
X110362974Y-100500277D01*
X110433546Y-100368247D01*
X110456749Y-100291754D01*
X110477003Y-100224986D01*
X110488000Y-100113333D01*
X110488000Y-100113323D01*
X110491676Y-100076000D01*
X110488000Y-100038677D01*
X110488000Y-98021801D01*
X112295061Y-96214741D01*
X112253000Y-96426195D01*
X112253000Y-96699805D01*
X112306378Y-96968156D01*
X112411084Y-97220938D01*
X112563093Y-97448436D01*
X112756564Y-97641907D01*
X112984062Y-97793916D01*
X113236844Y-97898622D01*
X113505195Y-97952000D01*
X113778805Y-97952000D01*
X114047156Y-97898622D01*
X114299938Y-97793916D01*
X114527436Y-97641907D01*
X114720907Y-97448436D01*
X114872916Y-97220938D01*
X114977622Y-96968156D01*
X115031000Y-96699805D01*
X115031000Y-96426195D01*
X114977622Y-96157844D01*
X114872916Y-95905062D01*
X114720907Y-95677564D01*
X114527436Y-95484093D01*
X114299938Y-95332084D01*
X114047156Y-95227378D01*
X113798914Y-95178000D01*
X114047156Y-95128622D01*
X114299938Y-95023916D01*
X114527436Y-94871907D01*
X114720907Y-94678436D01*
X114872916Y-94450938D01*
X114977622Y-94198156D01*
X115031000Y-93929805D01*
X115031000Y-93656195D01*
X114977622Y-93387844D01*
X114872916Y-93135062D01*
X114720907Y-92907564D01*
X114527436Y-92714093D01*
X114299938Y-92562084D01*
X114047156Y-92457378D01*
X113798914Y-92408000D01*
X114047156Y-92358622D01*
X114299938Y-92253916D01*
X114527436Y-92101907D01*
X114720907Y-91908436D01*
X114872916Y-91680938D01*
X114977622Y-91428156D01*
X115031000Y-91159805D01*
X115031000Y-90886195D01*
X114977622Y-90617844D01*
X114886559Y-90398000D01*
X115319280Y-90398000D01*
X115403093Y-90523436D01*
X115596564Y-90716907D01*
X115824062Y-90868916D01*
X116076844Y-90973622D01*
X116325086Y-91023000D01*
X116076844Y-91072378D01*
X115824062Y-91177084D01*
X115596564Y-91329093D01*
X115403093Y-91522564D01*
X115251084Y-91750062D01*
X115146378Y-92002844D01*
X115093000Y-92271195D01*
X115093000Y-92544805D01*
X115146378Y-92813156D01*
X115251084Y-93065938D01*
X115403093Y-93293436D01*
X115596564Y-93486907D01*
X115824062Y-93638916D01*
X116076844Y-93743622D01*
X116325086Y-93793000D01*
X116076844Y-93842378D01*
X115824062Y-93947084D01*
X115596564Y-94099093D01*
X115403093Y-94292564D01*
X115251084Y-94520062D01*
X115146378Y-94772844D01*
X115093000Y-95041195D01*
X115093000Y-95314805D01*
X115146378Y-95583156D01*
X115251084Y-95835938D01*
X115403093Y-96063436D01*
X115596564Y-96256907D01*
X115824062Y-96408916D01*
X116076844Y-96513622D01*
X116345195Y-96567000D01*
X116618805Y-96567000D01*
X116887156Y-96513622D01*
X117139938Y-96408916D01*
X117367436Y-96256907D01*
X117560907Y-96063436D01*
X117712916Y-95835938D01*
X117817622Y-95583156D01*
X117871000Y-95314805D01*
X117871000Y-95041195D01*
X117817622Y-94772844D01*
X117712916Y-94520062D01*
X117560907Y-94292564D01*
X117367436Y-94099093D01*
X117139938Y-93947084D01*
X116887156Y-93842378D01*
X116638914Y-93793000D01*
X116887156Y-93743622D01*
X117139938Y-93638916D01*
X117367436Y-93486907D01*
X117560907Y-93293436D01*
X117712916Y-93065938D01*
X117817622Y-92813156D01*
X117871000Y-92544805D01*
X117871000Y-92271195D01*
X117817622Y-92002844D01*
X117712916Y-91750062D01*
X117560907Y-91522564D01*
X117367436Y-91329093D01*
X117139938Y-91177084D01*
X116887156Y-91072378D01*
X116638914Y-91023000D01*
X116887156Y-90973622D01*
X117139938Y-90868916D01*
X117367436Y-90716907D01*
X117560907Y-90523436D01*
X117712916Y-90295938D01*
X117817622Y-90043156D01*
X117871000Y-89774805D01*
X117871000Y-89501195D01*
X117817622Y-89232844D01*
X117712916Y-88980062D01*
X117560907Y-88752564D01*
X117367436Y-88559093D01*
X117139938Y-88407084D01*
X116887156Y-88302378D01*
X116638914Y-88253000D01*
X116887156Y-88203622D01*
X117139938Y-88098916D01*
X117367436Y-87946907D01*
X117560907Y-87753436D01*
X117712916Y-87525938D01*
X117817622Y-87273156D01*
X117871000Y-87004805D01*
X117871000Y-86731195D01*
X117817622Y-86462844D01*
X117726559Y-86243000D01*
X120569289Y-86243000D01*
X120613226Y-86286937D01*
X120782744Y-86400205D01*
X120971102Y-86478226D01*
X121171061Y-86518000D01*
X121374939Y-86518000D01*
X121574898Y-86478226D01*
X121763256Y-86400205D01*
X121932774Y-86286937D01*
X122076937Y-86142774D01*
X122190205Y-85973256D01*
X122268226Y-85784898D01*
X122308000Y-85584939D01*
X122308000Y-85381061D01*
X122268226Y-85181102D01*
X122190205Y-84992744D01*
X122076937Y-84823226D01*
X121932774Y-84679063D01*
X121763256Y-84565795D01*
X121574898Y-84487774D01*
X121374939Y-84448000D01*
X121171061Y-84448000D01*
X120971102Y-84487774D01*
X120782744Y-84565795D01*
X120613226Y-84679063D01*
X120569289Y-84723000D01*
X117726559Y-84723000D01*
X117817622Y-84503156D01*
X117871000Y-84234805D01*
X117871000Y-83961195D01*
X117817622Y-83692844D01*
X117712916Y-83440062D01*
X117560907Y-83212564D01*
X117367436Y-83019093D01*
X117139938Y-82867084D01*
X116887156Y-82762378D01*
X116638914Y-82713000D01*
X116887156Y-82663622D01*
X117139938Y-82558916D01*
X117367436Y-82406907D01*
X117560907Y-82213436D01*
X117712916Y-81985938D01*
X117817622Y-81733156D01*
X117871000Y-81464805D01*
X117871000Y-81191195D01*
X117817622Y-80922844D01*
X117712916Y-80670062D01*
X117560907Y-80442564D01*
X117367436Y-80249093D01*
X117139938Y-80097084D01*
X116887156Y-79992378D01*
X116638914Y-79943000D01*
X116887156Y-79893622D01*
X117139938Y-79788916D01*
X117367436Y-79636907D01*
X117560907Y-79443436D01*
X117712916Y-79215938D01*
X117817622Y-78963156D01*
X117871000Y-78694805D01*
X117871000Y-78421195D01*
X117817622Y-78152844D01*
X117712916Y-77900062D01*
X117560907Y-77672564D01*
X117367436Y-77479093D01*
X117139938Y-77327084D01*
X116887156Y-77222378D01*
X116618805Y-77169000D01*
X116345195Y-77169000D01*
X116076844Y-77222378D01*
X115824062Y-77327084D01*
X115596564Y-77479093D01*
X115403093Y-77672564D01*
X115251084Y-77900062D01*
X115146378Y-78152844D01*
X115093000Y-78421195D01*
X115093000Y-78694805D01*
X115146378Y-78963156D01*
X115251084Y-79215938D01*
X115403093Y-79443436D01*
X115596564Y-79636907D01*
X115824062Y-79788916D01*
X116076844Y-79893622D01*
X116325086Y-79943000D01*
X116076844Y-79992378D01*
X115824062Y-80097084D01*
X115596564Y-80249093D01*
X115403093Y-80442564D01*
X115251084Y-80670062D01*
X115146378Y-80922844D01*
X115093000Y-81191195D01*
X115093000Y-81464805D01*
X115146378Y-81733156D01*
X115251084Y-81985938D01*
X115403093Y-82213436D01*
X115596564Y-82406907D01*
X115824062Y-82558916D01*
X116076844Y-82663622D01*
X116325086Y-82713000D01*
X116076844Y-82762378D01*
X115824062Y-82867084D01*
X115596564Y-83019093D01*
X115403093Y-83212564D01*
X115251084Y-83440062D01*
X115146378Y-83692844D01*
X115093000Y-83961195D01*
X115093000Y-84234805D01*
X115146378Y-84503156D01*
X115237441Y-84723000D01*
X114804720Y-84723000D01*
X114720907Y-84597564D01*
X114527436Y-84404093D01*
X114299938Y-84252084D01*
X114047156Y-84147378D01*
X113798914Y-84098000D01*
X114047156Y-84048622D01*
X114299938Y-83943916D01*
X114527436Y-83791907D01*
X114720907Y-83598436D01*
X114872916Y-83370938D01*
X114977622Y-83118156D01*
X115031000Y-82849805D01*
X115031000Y-82576195D01*
X114977622Y-82307844D01*
X114872916Y-82055062D01*
X114720907Y-81827564D01*
X114527436Y-81634093D01*
X114299938Y-81482084D01*
X114047156Y-81377378D01*
X113798914Y-81328000D01*
X114047156Y-81278622D01*
X114299938Y-81173916D01*
X114527436Y-81021907D01*
X114720907Y-80828436D01*
X114872916Y-80600938D01*
X114977622Y-80348156D01*
X115031000Y-80079805D01*
X115031000Y-79806195D01*
X114977622Y-79537844D01*
X114872916Y-79285062D01*
X114720907Y-79057564D01*
X114527436Y-78864093D01*
X114299938Y-78712084D01*
X114047156Y-78607378D01*
X113834468Y-78565072D01*
X114396000Y-78565072D01*
X114520482Y-78552812D01*
X114640180Y-78516502D01*
X114750494Y-78457537D01*
X114847185Y-78378185D01*
X114926537Y-78281494D01*
X114985502Y-78171180D01*
X115021812Y-78051482D01*
X115034072Y-77927000D01*
X115034072Y-76419000D01*
X115021812Y-76294518D01*
X114985502Y-76174820D01*
X114926537Y-76064506D01*
X114847185Y-75967815D01*
X114750494Y-75888463D01*
X114640180Y-75829498D01*
X114520482Y-75793188D01*
X114396000Y-75780928D01*
X113324730Y-75780928D01*
X110184804Y-72641003D01*
X110161001Y-72611999D01*
X110045276Y-72517026D01*
X109913247Y-72446454D01*
X109769986Y-72402997D01*
X109658333Y-72392000D01*
X109658322Y-72392000D01*
X109621000Y-72388324D01*
X109583678Y-72392000D01*
X76999322Y-72392000D01*
X76961999Y-72388324D01*
X76924676Y-72392000D01*
X76924667Y-72392000D01*
X76813014Y-72402997D01*
X76669753Y-72446454D01*
X76537724Y-72517026D01*
X76421999Y-72611999D01*
X76398201Y-72640997D01*
X73148998Y-75890201D01*
X73120000Y-75913999D01*
X73096202Y-75942997D01*
X73096201Y-75942998D01*
X73025026Y-76029724D01*
X72954454Y-76161754D01*
X72936551Y-76220774D01*
X72910998Y-76305014D01*
X72900001Y-76416667D01*
X72896324Y-76454000D01*
X72900001Y-76491332D01*
X72900000Y-81790000D01*
X71919323Y-81790000D01*
X71882000Y-81786324D01*
X71844677Y-81790000D01*
X71844667Y-81790000D01*
X71733014Y-81800997D01*
X71589753Y-81844454D01*
X71457724Y-81915026D01*
X71341999Y-82009999D01*
X71318201Y-82038997D01*
X71000281Y-82356917D01*
X70967736Y-82193303D01*
X70865216Y-81945799D01*
X70716381Y-81723051D01*
X70526949Y-81533619D01*
X70304201Y-81384784D01*
X70056697Y-81282264D01*
X69793948Y-81230000D01*
X69526052Y-81230000D01*
X69263303Y-81282264D01*
X69015799Y-81384784D01*
X68793051Y-81533619D01*
X68603619Y-81723051D01*
X68548072Y-81806183D01*
X68548072Y-81613331D01*
X68550370Y-81590000D01*
X68528938Y-81372402D01*
X68465468Y-81163166D01*
X68362396Y-80970334D01*
X68223686Y-80801314D01*
X68054666Y-80662604D01*
X67861834Y-80559532D01*
X67652598Y-80496062D01*
X67489521Y-80480000D01*
X66430479Y-80480000D01*
X66267402Y-80496062D01*
X66192000Y-80518935D01*
X66192000Y-77817755D01*
X67715000Y-77817755D01*
X67715000Y-78138245D01*
X67777525Y-78452578D01*
X67900172Y-78748673D01*
X68078227Y-79015152D01*
X68304848Y-79241773D01*
X68571327Y-79419828D01*
X68867422Y-79542475D01*
X69181755Y-79605000D01*
X69502245Y-79605000D01*
X69816578Y-79542475D01*
X70112673Y-79419828D01*
X70379152Y-79241773D01*
X70605773Y-79015152D01*
X70783828Y-78748673D01*
X70906475Y-78452578D01*
X70969000Y-78138245D01*
X70969000Y-77817755D01*
X70906475Y-77503422D01*
X70783828Y-77207327D01*
X70605773Y-76940848D01*
X70379152Y-76714227D01*
X70112673Y-76536172D01*
X69816578Y-76413525D01*
X69502245Y-76351000D01*
X69181755Y-76351000D01*
X68867422Y-76413525D01*
X68571327Y-76536172D01*
X68304848Y-76714227D01*
X68078227Y-76940848D01*
X67900172Y-77207327D01*
X67777525Y-77503422D01*
X67715000Y-77817755D01*
X66192000Y-77817755D01*
X66192000Y-71250285D01*
X66269000Y-71250285D01*
X66269000Y-72005715D01*
X66416377Y-72746628D01*
X66705467Y-73444554D01*
X67125161Y-74072670D01*
X67659330Y-74606839D01*
X68287446Y-75026533D01*
X68985372Y-75315623D01*
X69726285Y-75463000D01*
X70481715Y-75463000D01*
X71222628Y-75315623D01*
X71920554Y-75026533D01*
X72548670Y-74606839D01*
X73082839Y-74072670D01*
X73502533Y-73444554D01*
X73791623Y-72746628D01*
X73939000Y-72005715D01*
X73939000Y-71250285D01*
X73791623Y-70509372D01*
X73502533Y-69811446D01*
X73082839Y-69183330D01*
X72548670Y-68649161D01*
X71920554Y-68229467D01*
X71222628Y-67940377D01*
X70481715Y-67793000D01*
X69726285Y-67793000D01*
X68985372Y-67940377D01*
X68287446Y-68229467D01*
X67659330Y-68649161D01*
X67125161Y-69183330D01*
X66705467Y-69811446D01*
X66416377Y-70509372D01*
X66269000Y-71250285D01*
X66192000Y-71250285D01*
X66192000Y-67716000D01*
X114150543Y-67716000D01*
X113818228Y-67853649D01*
G37*
%TD.AperFunction*%
D29*
X103579060Y-86423679D02*
X103714875Y-86496274D01*
X103862243Y-86540977D01*
X104015500Y-86556072D01*
X104310500Y-86556072D01*
X104463757Y-86540977D01*
X104611125Y-86496274D01*
X104648000Y-86476564D01*
X104684875Y-86496274D01*
X104832243Y-86540977D01*
X104985500Y-86556072D01*
X105016271Y-86556072D01*
X107369197Y-88908999D01*
X107312062Y-88908999D01*
X107112103Y-88948773D01*
X106923745Y-89026794D01*
X106754227Y-89140062D01*
X106610064Y-89284225D01*
X106526024Y-89410000D01*
X103103776Y-89410000D01*
X103100008Y-89371746D01*
X103049472Y-89205150D01*
X102967405Y-89051614D01*
X102856962Y-88917038D01*
X102722386Y-88806595D01*
X102568850Y-88724528D01*
X102402254Y-88673992D01*
X102229000Y-88656928D01*
X101479000Y-88656928D01*
X101305746Y-88673992D01*
X101139150Y-88724528D01*
X100985614Y-88806595D01*
X100851038Y-88917038D01*
X100740595Y-89051614D01*
X100658528Y-89205150D01*
X100607992Y-89371746D01*
X100590928Y-89545000D01*
X100590928Y-90795000D01*
X100607992Y-90968254D01*
X100658528Y-91134850D01*
X100740595Y-91288386D01*
X100851038Y-91422962D01*
X100985614Y-91533405D01*
X101139150Y-91615472D01*
X101305746Y-91666008D01*
X101479000Y-91683072D01*
X102229000Y-91683072D01*
X102402254Y-91666008D01*
X102568850Y-91615472D01*
X102722386Y-91533405D01*
X102856962Y-91422962D01*
X102967405Y-91288386D01*
X103049472Y-91134850D01*
X103100008Y-90968254D01*
X103103776Y-90930000D01*
X107089832Y-90930000D01*
X107112103Y-90939225D01*
X107312062Y-90978999D01*
X107515940Y-90978999D01*
X107715899Y-90939225D01*
X107904257Y-90861204D01*
X108073775Y-90747936D01*
X108217938Y-90603773D01*
X108331206Y-90434255D01*
X108409227Y-90245897D01*
X108449001Y-90045938D01*
X108449001Y-89988803D01*
X108609201Y-90149003D01*
X108632999Y-90178001D01*
X108748724Y-90272974D01*
X108880753Y-90343546D01*
X109024014Y-90387003D01*
X109135667Y-90398000D01*
X109135675Y-90398000D01*
X109173000Y-90401676D01*
X109210325Y-90398000D01*
X112397441Y-90398000D01*
X112306378Y-90617844D01*
X112253000Y-90886195D01*
X112253000Y-91159805D01*
X112306378Y-91428156D01*
X112411084Y-91680938D01*
X112563093Y-91908436D01*
X112756564Y-92101907D01*
X112984062Y-92253916D01*
X113236844Y-92358622D01*
X113485086Y-92408000D01*
X113236844Y-92457378D01*
X112984062Y-92562084D01*
X112756564Y-92714093D01*
X112563093Y-92907564D01*
X112411084Y-93135062D01*
X112306378Y-93387844D01*
X112253000Y-93656195D01*
X112253000Y-93929805D01*
X112282431Y-94077767D01*
X109216998Y-97143201D01*
X109188000Y-97166999D01*
X109164202Y-97195997D01*
X109164201Y-97195998D01*
X109093026Y-97282724D01*
X109022454Y-97414754D01*
X108978998Y-97558015D01*
X108964324Y-97707000D01*
X108968001Y-97744332D01*
X108968000Y-99761198D01*
X106365199Y-102364000D01*
X77022802Y-102364000D01*
X75369802Y-100711000D01*
X78486000Y-100711000D01*
X78510776Y-100708560D01*
X78534601Y-100701333D01*
X78556557Y-100689597D01*
X78575803Y-100673803D01*
X78591597Y-100654557D01*
X78603333Y-100632601D01*
X78610560Y-100608776D01*
X78613000Y-100584000D01*
X78613000Y-100582000D01*
X78738521Y-100582000D01*
X78738324Y-100584000D01*
X78742000Y-100621322D01*
X78742000Y-100621333D01*
X78752997Y-100732986D01*
X78767728Y-100781546D01*
X78796454Y-100876246D01*
X78867026Y-101008276D01*
X78935737Y-101092000D01*
X78962000Y-101124001D01*
X78990998Y-101147799D01*
X79446200Y-101603002D01*
X79469999Y-101632001D01*
X79585724Y-101726974D01*
X79717753Y-101797546D01*
X79861014Y-101841003D01*
X79972667Y-101852000D01*
X79972676Y-101852000D01*
X80009999Y-101855676D01*
X80047322Y-101852000D01*
X92672678Y-101852000D01*
X92710000Y-101855676D01*
X92747322Y-101852000D01*
X92747333Y-101852000D01*
X92858986Y-101841003D01*
X93002247Y-101797546D01*
X93134276Y-101726974D01*
X93250001Y-101632001D01*
X93273804Y-101602998D01*
X94076802Y-100800000D01*
X95659837Y-100800000D01*
X95666188Y-100864482D01*
X95702498Y-100984180D01*
X95761463Y-101094494D01*
X95840815Y-101191185D01*
X95937506Y-101270537D01*
X96047820Y-101329502D01*
X96167518Y-101365812D01*
X96292000Y-101378072D01*
X97892000Y-101378072D01*
X98016482Y-101365812D01*
X98136180Y-101329502D01*
X98246494Y-101270537D01*
X98343185Y-101191185D01*
X98422537Y-101094494D01*
X98481502Y-100984180D01*
X98517812Y-100864482D01*
X98530072Y-100740000D01*
X98530072Y-99340000D01*
X103653928Y-99340000D01*
X103653928Y-100740000D01*
X103666188Y-100864482D01*
X103702498Y-100984180D01*
X103761463Y-101094494D01*
X103840815Y-101191185D01*
X103937506Y-101270537D01*
X104047820Y-101329502D01*
X104167518Y-101365812D01*
X104292000Y-101378072D01*
X105892000Y-101378072D01*
X106016482Y-101365812D01*
X106136180Y-101329502D01*
X106246494Y-101270537D01*
X106343185Y-101191185D01*
X106422537Y-101094494D01*
X106481502Y-100984180D01*
X106517812Y-100864482D01*
X106530072Y-100740000D01*
X106530072Y-99340000D01*
X106517812Y-99215518D01*
X106481502Y-99095820D01*
X106422537Y-98985506D01*
X106343185Y-98888815D01*
X106246494Y-98809463D01*
X106136180Y-98750498D01*
X106016482Y-98714188D01*
X105892000Y-98701928D01*
X104292000Y-98701928D01*
X104167518Y-98714188D01*
X104047820Y-98750498D01*
X103937506Y-98809463D01*
X103840815Y-98888815D01*
X103761463Y-98985506D01*
X103702498Y-99095820D01*
X103666188Y-99215518D01*
X103653928Y-99340000D01*
X98530072Y-99340000D01*
X98517812Y-99215518D01*
X98481502Y-99095820D01*
X98422537Y-98985506D01*
X98343185Y-98888815D01*
X98246494Y-98809463D01*
X98136180Y-98750498D01*
X98016482Y-98714188D01*
X97892000Y-98701928D01*
X96292000Y-98701928D01*
X96167518Y-98714188D01*
X96047820Y-98750498D01*
X95937506Y-98809463D01*
X95840815Y-98888815D01*
X95761463Y-98985506D01*
X95702498Y-99095820D01*
X95666188Y-99215518D01*
X95659837Y-99280000D01*
X94483516Y-99280000D01*
X94507000Y-99161939D01*
X94507000Y-98958061D01*
X94467226Y-98758102D01*
X94389205Y-98569744D01*
X94275937Y-98400226D01*
X94131774Y-98256063D01*
X93962256Y-98142795D01*
X93773898Y-98064774D01*
X93573939Y-98025000D01*
X93370061Y-98025000D01*
X93170102Y-98064774D01*
X92981744Y-98142795D01*
X92815314Y-98254000D01*
X91375916Y-98254000D01*
X91382072Y-98191500D01*
X91382072Y-97896500D01*
X91366977Y-97743243D01*
X91322274Y-97595875D01*
X91249679Y-97460060D01*
X91184000Y-97380030D01*
X91184000Y-96557322D01*
X91187676Y-96519999D01*
X91184000Y-96482676D01*
X91184000Y-96482667D01*
X91173003Y-96371014D01*
X91129546Y-96227753D01*
X91058974Y-96095724D01*
X90964001Y-95979999D01*
X90935003Y-95956201D01*
X90678874Y-95700072D01*
X90848500Y-95700072D01*
X91001757Y-95684977D01*
X91149125Y-95640274D01*
X91186000Y-95620564D01*
X91222875Y-95640274D01*
X91370243Y-95684977D01*
X91523500Y-95700072D01*
X91818500Y-95700072D01*
X91971757Y-95684977D01*
X92119125Y-95640274D01*
X92254940Y-95567679D01*
X92334970Y-95502000D01*
X92715678Y-95502000D01*
X92753000Y-95505676D01*
X92790322Y-95502000D01*
X92790333Y-95502000D01*
X92901986Y-95491003D01*
X93045247Y-95447546D01*
X93177276Y-95376974D01*
X93293001Y-95282001D01*
X93316804Y-95252997D01*
X95230004Y-93339798D01*
X95259001Y-93316001D01*
X95272613Y-93299414D01*
X95485000Y-93511802D01*
X95485000Y-93573939D01*
X95524774Y-93773898D01*
X95602795Y-93962256D01*
X95716063Y-94131774D01*
X95860226Y-94275937D01*
X95925342Y-94319446D01*
X95840815Y-94388815D01*
X95761463Y-94485506D01*
X95702498Y-94595820D01*
X95666188Y-94715518D01*
X95653928Y-94840000D01*
X95653928Y-96240000D01*
X95666188Y-96364482D01*
X95702498Y-96484180D01*
X95761463Y-96594494D01*
X95840815Y-96691185D01*
X95937506Y-96770537D01*
X96047820Y-96829502D01*
X96167518Y-96865812D01*
X96292000Y-96878072D01*
X97892000Y-96878072D01*
X98016482Y-96865812D01*
X98136180Y-96829502D01*
X98246494Y-96770537D01*
X98343185Y-96691185D01*
X98422537Y-96594494D01*
X98481502Y-96484180D01*
X98517812Y-96364482D01*
X98530072Y-96240000D01*
X98530072Y-94840000D01*
X98517812Y-94715518D01*
X98481502Y-94595820D01*
X98422537Y-94485506D01*
X98343185Y-94388815D01*
X98246494Y-94309463D01*
X98136180Y-94250498D01*
X98075200Y-94232000D01*
X102709199Y-94232000D01*
X103653928Y-95176730D01*
X103653928Y-96240000D01*
X103666188Y-96364482D01*
X103702498Y-96484180D01*
X103761463Y-96594494D01*
X103840815Y-96691185D01*
X103937506Y-96770537D01*
X104047820Y-96829502D01*
X104167518Y-96865812D01*
X104292000Y-96878072D01*
X105892000Y-96878072D01*
X106016482Y-96865812D01*
X106136180Y-96829502D01*
X106246494Y-96770537D01*
X106343185Y-96691185D01*
X106422537Y-96594494D01*
X106481502Y-96484180D01*
X106517812Y-96364482D01*
X106530072Y-96240000D01*
X106530072Y-94840000D01*
X106517812Y-94715518D01*
X106481502Y-94595820D01*
X106422537Y-94485506D01*
X106343185Y-94388815D01*
X106246494Y-94309463D01*
X106136180Y-94250498D01*
X106016482Y-94214188D01*
X105892000Y-94201928D01*
X104828730Y-94201928D01*
X103587804Y-92961003D01*
X103564001Y-92931999D01*
X103448276Y-92837026D01*
X103316247Y-92766454D01*
X103172986Y-92722997D01*
X103061333Y-92712000D01*
X103061322Y-92712000D01*
X103024000Y-92708324D01*
X102986678Y-92712000D01*
X97223711Y-92712000D01*
X97179774Y-92668063D01*
X97010256Y-92554795D01*
X96821898Y-92476774D01*
X96621939Y-92437000D01*
X96559802Y-92437000D01*
X96067804Y-91945002D01*
X96044001Y-91915999D01*
X95928276Y-91821026D01*
X95796247Y-91750454D01*
X95652986Y-91706997D01*
X95541333Y-91696000D01*
X95541322Y-91696000D01*
X95504000Y-91692324D01*
X95466678Y-91696000D01*
X95382970Y-91696000D01*
X95302940Y-91630321D01*
X95167125Y-91557726D01*
X95019757Y-91513023D01*
X94866500Y-91497928D01*
X94571500Y-91497928D01*
X94418243Y-91513023D01*
X94270875Y-91557726D01*
X94234000Y-91577436D01*
X94197125Y-91557726D01*
X94049757Y-91513023D01*
X93896500Y-91497928D01*
X93865729Y-91497928D01*
X93550803Y-91183002D01*
X93527001Y-91153999D01*
X93411276Y-91059026D01*
X93336412Y-91019010D01*
X97823389Y-91019010D01*
X97858528Y-91134850D01*
X97940595Y-91288386D01*
X98051038Y-91422962D01*
X98185614Y-91533405D01*
X98339150Y-91615472D01*
X98505746Y-91666008D01*
X98679000Y-91683072D01*
X99429000Y-91683072D01*
X99602254Y-91666008D01*
X99768850Y-91615472D01*
X99922386Y-91533405D01*
X100056962Y-91422962D01*
X100167405Y-91288386D01*
X100249472Y-91134850D01*
X100300008Y-90968254D01*
X100317072Y-90795000D01*
X100317072Y-89545000D01*
X100300008Y-89371746D01*
X100249472Y-89205150D01*
X100167405Y-89051614D01*
X100056962Y-88917038D01*
X99922386Y-88806595D01*
X99768850Y-88724528D01*
X99602254Y-88673992D01*
X99429000Y-88656928D01*
X98679000Y-88656928D01*
X98505746Y-88673992D01*
X98339150Y-88724528D01*
X98208369Y-88794432D01*
X99651802Y-87351000D01*
X99925492Y-87351000D01*
X99975060Y-87391679D01*
X100110875Y-87464274D01*
X100258243Y-87508977D01*
X100411500Y-87524072D01*
X100756500Y-87524072D01*
X100909757Y-87508977D01*
X101057125Y-87464274D01*
X101192940Y-87391679D01*
X101311983Y-87293983D01*
X101409679Y-87174940D01*
X101482274Y-87039125D01*
X101526977Y-86891757D01*
X101542072Y-86738500D01*
X101542072Y-86443500D01*
X101535916Y-86381000D01*
X103527055Y-86381000D01*
X103579060Y-86423679D01*
%TA.AperFunction,NonConductor*%
D30*
G36*
X103579060Y-86423679D02*
G01*
X103714875Y-86496274D01*
X103862243Y-86540977D01*
X104015500Y-86556072D01*
X104310500Y-86556072D01*
X104463757Y-86540977D01*
X104611125Y-86496274D01*
X104648000Y-86476564D01*
X104684875Y-86496274D01*
X104832243Y-86540977D01*
X104985500Y-86556072D01*
X105016271Y-86556072D01*
X107369197Y-88908999D01*
X107312062Y-88908999D01*
X107112103Y-88948773D01*
X106923745Y-89026794D01*
X106754227Y-89140062D01*
X106610064Y-89284225D01*
X106526024Y-89410000D01*
X103103776Y-89410000D01*
X103100008Y-89371746D01*
X103049472Y-89205150D01*
X102967405Y-89051614D01*
X102856962Y-88917038D01*
X102722386Y-88806595D01*
X102568850Y-88724528D01*
X102402254Y-88673992D01*
X102229000Y-88656928D01*
X101479000Y-88656928D01*
X101305746Y-88673992D01*
X101139150Y-88724528D01*
X100985614Y-88806595D01*
X100851038Y-88917038D01*
X100740595Y-89051614D01*
X100658528Y-89205150D01*
X100607992Y-89371746D01*
X100590928Y-89545000D01*
X100590928Y-90795000D01*
X100607992Y-90968254D01*
X100658528Y-91134850D01*
X100740595Y-91288386D01*
X100851038Y-91422962D01*
X100985614Y-91533405D01*
X101139150Y-91615472D01*
X101305746Y-91666008D01*
X101479000Y-91683072D01*
X102229000Y-91683072D01*
X102402254Y-91666008D01*
X102568850Y-91615472D01*
X102722386Y-91533405D01*
X102856962Y-91422962D01*
X102967405Y-91288386D01*
X103049472Y-91134850D01*
X103100008Y-90968254D01*
X103103776Y-90930000D01*
X107089832Y-90930000D01*
X107112103Y-90939225D01*
X107312062Y-90978999D01*
X107515940Y-90978999D01*
X107715899Y-90939225D01*
X107904257Y-90861204D01*
X108073775Y-90747936D01*
X108217938Y-90603773D01*
X108331206Y-90434255D01*
X108409227Y-90245897D01*
X108449001Y-90045938D01*
X108449001Y-89988803D01*
X108609201Y-90149003D01*
X108632999Y-90178001D01*
X108748724Y-90272974D01*
X108880753Y-90343546D01*
X109024014Y-90387003D01*
X109135667Y-90398000D01*
X109135675Y-90398000D01*
X109173000Y-90401676D01*
X109210325Y-90398000D01*
X112397441Y-90398000D01*
X112306378Y-90617844D01*
X112253000Y-90886195D01*
X112253000Y-91159805D01*
X112306378Y-91428156D01*
X112411084Y-91680938D01*
X112563093Y-91908436D01*
X112756564Y-92101907D01*
X112984062Y-92253916D01*
X113236844Y-92358622D01*
X113485086Y-92408000D01*
X113236844Y-92457378D01*
X112984062Y-92562084D01*
X112756564Y-92714093D01*
X112563093Y-92907564D01*
X112411084Y-93135062D01*
X112306378Y-93387844D01*
X112253000Y-93656195D01*
X112253000Y-93929805D01*
X112282431Y-94077767D01*
X109216998Y-97143201D01*
X109188000Y-97166999D01*
X109164202Y-97195997D01*
X109164201Y-97195998D01*
X109093026Y-97282724D01*
X109022454Y-97414754D01*
X108978998Y-97558015D01*
X108964324Y-97707000D01*
X108968001Y-97744332D01*
X108968000Y-99761198D01*
X106365199Y-102364000D01*
X77022802Y-102364000D01*
X75369802Y-100711000D01*
X78486000Y-100711000D01*
X78510776Y-100708560D01*
X78534601Y-100701333D01*
X78556557Y-100689597D01*
X78575803Y-100673803D01*
X78591597Y-100654557D01*
X78603333Y-100632601D01*
X78610560Y-100608776D01*
X78613000Y-100584000D01*
X78613000Y-100582000D01*
X78738521Y-100582000D01*
X78738324Y-100584000D01*
X78742000Y-100621322D01*
X78742000Y-100621333D01*
X78752997Y-100732986D01*
X78767728Y-100781546D01*
X78796454Y-100876246D01*
X78867026Y-101008276D01*
X78935737Y-101092000D01*
X78962000Y-101124001D01*
X78990998Y-101147799D01*
X79446200Y-101603002D01*
X79469999Y-101632001D01*
X79585724Y-101726974D01*
X79717753Y-101797546D01*
X79861014Y-101841003D01*
X79972667Y-101852000D01*
X79972676Y-101852000D01*
X80009999Y-101855676D01*
X80047322Y-101852000D01*
X92672678Y-101852000D01*
X92710000Y-101855676D01*
X92747322Y-101852000D01*
X92747333Y-101852000D01*
X92858986Y-101841003D01*
X93002247Y-101797546D01*
X93134276Y-101726974D01*
X93250001Y-101632001D01*
X93273804Y-101602998D01*
X94076802Y-100800000D01*
X95659837Y-100800000D01*
X95666188Y-100864482D01*
X95702498Y-100984180D01*
X95761463Y-101094494D01*
X95840815Y-101191185D01*
X95937506Y-101270537D01*
X96047820Y-101329502D01*
X96167518Y-101365812D01*
X96292000Y-101378072D01*
X97892000Y-101378072D01*
X98016482Y-101365812D01*
X98136180Y-101329502D01*
X98246494Y-101270537D01*
X98343185Y-101191185D01*
X98422537Y-101094494D01*
X98481502Y-100984180D01*
X98517812Y-100864482D01*
X98530072Y-100740000D01*
X98530072Y-99340000D01*
X103653928Y-99340000D01*
X103653928Y-100740000D01*
X103666188Y-100864482D01*
X103702498Y-100984180D01*
X103761463Y-101094494D01*
X103840815Y-101191185D01*
X103937506Y-101270537D01*
X104047820Y-101329502D01*
X104167518Y-101365812D01*
X104292000Y-101378072D01*
X105892000Y-101378072D01*
X106016482Y-101365812D01*
X106136180Y-101329502D01*
X106246494Y-101270537D01*
X106343185Y-101191185D01*
X106422537Y-101094494D01*
X106481502Y-100984180D01*
X106517812Y-100864482D01*
X106530072Y-100740000D01*
X106530072Y-99340000D01*
X106517812Y-99215518D01*
X106481502Y-99095820D01*
X106422537Y-98985506D01*
X106343185Y-98888815D01*
X106246494Y-98809463D01*
X106136180Y-98750498D01*
X106016482Y-98714188D01*
X105892000Y-98701928D01*
X104292000Y-98701928D01*
X104167518Y-98714188D01*
X104047820Y-98750498D01*
X103937506Y-98809463D01*
X103840815Y-98888815D01*
X103761463Y-98985506D01*
X103702498Y-99095820D01*
X103666188Y-99215518D01*
X103653928Y-99340000D01*
X98530072Y-99340000D01*
X98517812Y-99215518D01*
X98481502Y-99095820D01*
X98422537Y-98985506D01*
X98343185Y-98888815D01*
X98246494Y-98809463D01*
X98136180Y-98750498D01*
X98016482Y-98714188D01*
X97892000Y-98701928D01*
X96292000Y-98701928D01*
X96167518Y-98714188D01*
X96047820Y-98750498D01*
X95937506Y-98809463D01*
X95840815Y-98888815D01*
X95761463Y-98985506D01*
X95702498Y-99095820D01*
X95666188Y-99215518D01*
X95659837Y-99280000D01*
X94483516Y-99280000D01*
X94507000Y-99161939D01*
X94507000Y-98958061D01*
X94467226Y-98758102D01*
X94389205Y-98569744D01*
X94275937Y-98400226D01*
X94131774Y-98256063D01*
X93962256Y-98142795D01*
X93773898Y-98064774D01*
X93573939Y-98025000D01*
X93370061Y-98025000D01*
X93170102Y-98064774D01*
X92981744Y-98142795D01*
X92815314Y-98254000D01*
X91375916Y-98254000D01*
X91382072Y-98191500D01*
X91382072Y-97896500D01*
X91366977Y-97743243D01*
X91322274Y-97595875D01*
X91249679Y-97460060D01*
X91184000Y-97380030D01*
X91184000Y-96557322D01*
X91187676Y-96519999D01*
X91184000Y-96482676D01*
X91184000Y-96482667D01*
X91173003Y-96371014D01*
X91129546Y-96227753D01*
X91058974Y-96095724D01*
X90964001Y-95979999D01*
X90935003Y-95956201D01*
X90678874Y-95700072D01*
X90848500Y-95700072D01*
X91001757Y-95684977D01*
X91149125Y-95640274D01*
X91186000Y-95620564D01*
X91222875Y-95640274D01*
X91370243Y-95684977D01*
X91523500Y-95700072D01*
X91818500Y-95700072D01*
X91971757Y-95684977D01*
X92119125Y-95640274D01*
X92254940Y-95567679D01*
X92334970Y-95502000D01*
X92715678Y-95502000D01*
X92753000Y-95505676D01*
X92790322Y-95502000D01*
X92790333Y-95502000D01*
X92901986Y-95491003D01*
X93045247Y-95447546D01*
X93177276Y-95376974D01*
X93293001Y-95282001D01*
X93316804Y-95252997D01*
X95230004Y-93339798D01*
X95259001Y-93316001D01*
X95272613Y-93299414D01*
X95485000Y-93511802D01*
X95485000Y-93573939D01*
X95524774Y-93773898D01*
X95602795Y-93962256D01*
X95716063Y-94131774D01*
X95860226Y-94275937D01*
X95925342Y-94319446D01*
X95840815Y-94388815D01*
X95761463Y-94485506D01*
X95702498Y-94595820D01*
X95666188Y-94715518D01*
X95653928Y-94840000D01*
X95653928Y-96240000D01*
X95666188Y-96364482D01*
X95702498Y-96484180D01*
X95761463Y-96594494D01*
X95840815Y-96691185D01*
X95937506Y-96770537D01*
X96047820Y-96829502D01*
X96167518Y-96865812D01*
X96292000Y-96878072D01*
X97892000Y-96878072D01*
X98016482Y-96865812D01*
X98136180Y-96829502D01*
X98246494Y-96770537D01*
X98343185Y-96691185D01*
X98422537Y-96594494D01*
X98481502Y-96484180D01*
X98517812Y-96364482D01*
X98530072Y-96240000D01*
X98530072Y-94840000D01*
X98517812Y-94715518D01*
X98481502Y-94595820D01*
X98422537Y-94485506D01*
X98343185Y-94388815D01*
X98246494Y-94309463D01*
X98136180Y-94250498D01*
X98075200Y-94232000D01*
X102709199Y-94232000D01*
X103653928Y-95176730D01*
X103653928Y-96240000D01*
X103666188Y-96364482D01*
X103702498Y-96484180D01*
X103761463Y-96594494D01*
X103840815Y-96691185D01*
X103937506Y-96770537D01*
X104047820Y-96829502D01*
X104167518Y-96865812D01*
X104292000Y-96878072D01*
X105892000Y-96878072D01*
X106016482Y-96865812D01*
X106136180Y-96829502D01*
X106246494Y-96770537D01*
X106343185Y-96691185D01*
X106422537Y-96594494D01*
X106481502Y-96484180D01*
X106517812Y-96364482D01*
X106530072Y-96240000D01*
X106530072Y-94840000D01*
X106517812Y-94715518D01*
X106481502Y-94595820D01*
X106422537Y-94485506D01*
X106343185Y-94388815D01*
X106246494Y-94309463D01*
X106136180Y-94250498D01*
X106016482Y-94214188D01*
X105892000Y-94201928D01*
X104828730Y-94201928D01*
X103587804Y-92961003D01*
X103564001Y-92931999D01*
X103448276Y-92837026D01*
X103316247Y-92766454D01*
X103172986Y-92722997D01*
X103061333Y-92712000D01*
X103061322Y-92712000D01*
X103024000Y-92708324D01*
X102986678Y-92712000D01*
X97223711Y-92712000D01*
X97179774Y-92668063D01*
X97010256Y-92554795D01*
X96821898Y-92476774D01*
X96621939Y-92437000D01*
X96559802Y-92437000D01*
X96067804Y-91945002D01*
X96044001Y-91915999D01*
X95928276Y-91821026D01*
X95796247Y-91750454D01*
X95652986Y-91706997D01*
X95541333Y-91696000D01*
X95541322Y-91696000D01*
X95504000Y-91692324D01*
X95466678Y-91696000D01*
X95382970Y-91696000D01*
X95302940Y-91630321D01*
X95167125Y-91557726D01*
X95019757Y-91513023D01*
X94866500Y-91497928D01*
X94571500Y-91497928D01*
X94418243Y-91513023D01*
X94270875Y-91557726D01*
X94234000Y-91577436D01*
X94197125Y-91557726D01*
X94049757Y-91513023D01*
X93896500Y-91497928D01*
X93865729Y-91497928D01*
X93550803Y-91183002D01*
X93527001Y-91153999D01*
X93411276Y-91059026D01*
X93336412Y-91019010D01*
X97823389Y-91019010D01*
X97858528Y-91134850D01*
X97940595Y-91288386D01*
X98051038Y-91422962D01*
X98185614Y-91533405D01*
X98339150Y-91615472D01*
X98505746Y-91666008D01*
X98679000Y-91683072D01*
X99429000Y-91683072D01*
X99602254Y-91666008D01*
X99768850Y-91615472D01*
X99922386Y-91533405D01*
X100056962Y-91422962D01*
X100167405Y-91288386D01*
X100249472Y-91134850D01*
X100300008Y-90968254D01*
X100317072Y-90795000D01*
X100317072Y-89545000D01*
X100300008Y-89371746D01*
X100249472Y-89205150D01*
X100167405Y-89051614D01*
X100056962Y-88917038D01*
X99922386Y-88806595D01*
X99768850Y-88724528D01*
X99602254Y-88673992D01*
X99429000Y-88656928D01*
X98679000Y-88656928D01*
X98505746Y-88673992D01*
X98339150Y-88724528D01*
X98208369Y-88794432D01*
X99651802Y-87351000D01*
X99925492Y-87351000D01*
X99975060Y-87391679D01*
X100110875Y-87464274D01*
X100258243Y-87508977D01*
X100411500Y-87524072D01*
X100756500Y-87524072D01*
X100909757Y-87508977D01*
X101057125Y-87464274D01*
X101192940Y-87391679D01*
X101311983Y-87293983D01*
X101409679Y-87174940D01*
X101482274Y-87039125D01*
X101526977Y-86891757D01*
X101542072Y-86738500D01*
X101542072Y-86443500D01*
X101535916Y-86381000D01*
X103527055Y-86381000D01*
X103579060Y-86423679D01*
G37*
%TD.AperFunction*%
D29*
X82353928Y-99184500D02*
X82369023Y-99337757D01*
X82413726Y-99485125D01*
X82486321Y-99620940D01*
X82584017Y-99739983D01*
X82703060Y-99837679D01*
X82838875Y-99910274D01*
X82986243Y-99954977D01*
X83139500Y-99970072D01*
X83484500Y-99970072D01*
X83637757Y-99954977D01*
X83785125Y-99910274D01*
X83920940Y-99837679D01*
X83970508Y-99797000D01*
X86209492Y-99797000D01*
X86259060Y-99837679D01*
X86394875Y-99910274D01*
X86542243Y-99954977D01*
X86695500Y-99970072D01*
X87040500Y-99970072D01*
X87193757Y-99954977D01*
X87341125Y-99910274D01*
X87476940Y-99837679D01*
X87526508Y-99797000D01*
X89793518Y-99797000D01*
X89815060Y-99814679D01*
X89950875Y-99887274D01*
X90098243Y-99931977D01*
X90251500Y-99947072D01*
X90596500Y-99947072D01*
X90749757Y-99931977D01*
X90897125Y-99887274D01*
X91032940Y-99814679D01*
X91082508Y-99774000D01*
X92722289Y-99774000D01*
X92812226Y-99863937D01*
X92842820Y-99884379D01*
X92395199Y-100332000D01*
X81082801Y-100332000D01*
X82353928Y-99060875D01*
X82353928Y-99184500D01*
%TA.AperFunction,NonConductor*%
D30*
G36*
X82353928Y-99184500D02*
G01*
X82369023Y-99337757D01*
X82413726Y-99485125D01*
X82486321Y-99620940D01*
X82584017Y-99739983D01*
X82703060Y-99837679D01*
X82838875Y-99910274D01*
X82986243Y-99954977D01*
X83139500Y-99970072D01*
X83484500Y-99970072D01*
X83637757Y-99954977D01*
X83785125Y-99910274D01*
X83920940Y-99837679D01*
X83970508Y-99797000D01*
X86209492Y-99797000D01*
X86259060Y-99837679D01*
X86394875Y-99910274D01*
X86542243Y-99954977D01*
X86695500Y-99970072D01*
X87040500Y-99970072D01*
X87193757Y-99954977D01*
X87341125Y-99910274D01*
X87476940Y-99837679D01*
X87526508Y-99797000D01*
X89793518Y-99797000D01*
X89815060Y-99814679D01*
X89950875Y-99887274D01*
X90098243Y-99931977D01*
X90251500Y-99947072D01*
X90596500Y-99947072D01*
X90749757Y-99931977D01*
X90897125Y-99887274D01*
X91032940Y-99814679D01*
X91082508Y-99774000D01*
X92722289Y-99774000D01*
X92812226Y-99863937D01*
X92842820Y-99884379D01*
X92395199Y-100332000D01*
X81082801Y-100332000D01*
X82353928Y-99060875D01*
X82353928Y-99184500D01*
G37*
%TD.AperFunction*%
D29*
X78702667Y-99058000D02*
X78702675Y-99058000D01*
X78740000Y-99061676D01*
X78777325Y-99058000D01*
X79306289Y-99058000D01*
X79310289Y-99062000D01*
X78613000Y-99062000D01*
X78613000Y-99049168D01*
X78702667Y-99058000D01*
%TA.AperFunction,NonConductor*%
D30*
G36*
X78702667Y-99058000D02*
G01*
X78702675Y-99058000D01*
X78740000Y-99061676D01*
X78777325Y-99058000D01*
X79306289Y-99058000D01*
X79310289Y-99062000D01*
X78613000Y-99062000D01*
X78613000Y-99049168D01*
X78702667Y-99058000D01*
G37*
%TD.AperFunction*%
D29*
X89664000Y-96834802D02*
X89664001Y-97380029D01*
X89598321Y-97460060D01*
X89525726Y-97595875D01*
X89481023Y-97743243D01*
X89465928Y-97896500D01*
X89465928Y-98191500D01*
X89474349Y-98277000D01*
X87819916Y-98277000D01*
X87826072Y-98214500D01*
X87826072Y-97919500D01*
X87810977Y-97766243D01*
X87766274Y-97618875D01*
X87693679Y-97483060D01*
X87628000Y-97403030D01*
X87628000Y-96010000D01*
X88839199Y-96010000D01*
X89664000Y-96834802D01*
%TA.AperFunction,NonConductor*%
D30*
G36*
X89664000Y-96834802D02*
G01*
X89664001Y-97380029D01*
X89598321Y-97460060D01*
X89525726Y-97595875D01*
X89481023Y-97743243D01*
X89465928Y-97896500D01*
X89465928Y-98191500D01*
X89474349Y-98277000D01*
X87819916Y-98277000D01*
X87826072Y-98214500D01*
X87826072Y-97919500D01*
X87810977Y-97766243D01*
X87766274Y-97618875D01*
X87693679Y-97483060D01*
X87628000Y-97403030D01*
X87628000Y-96010000D01*
X88839199Y-96010000D01*
X89664000Y-96834802D01*
G37*
%TD.AperFunction*%
D29*
X86108001Y-97403029D02*
X86042321Y-97483060D01*
X85969726Y-97618875D01*
X85925023Y-97766243D01*
X85909928Y-97919500D01*
X85909928Y-98214500D01*
X85916084Y-98277000D01*
X84263916Y-98277000D01*
X84270072Y-98214500D01*
X84270072Y-97919500D01*
X84254977Y-97766243D01*
X84210274Y-97618875D01*
X84137679Y-97483060D01*
X84072000Y-97403030D01*
X84072000Y-96156685D01*
X84225774Y-96053937D01*
X84269711Y-96010000D01*
X86108000Y-96010000D01*
X86108001Y-97403029D01*
%TA.AperFunction,NonConductor*%
D30*
G36*
X86108001Y-97403029D02*
G01*
X86042321Y-97483060D01*
X85969726Y-97618875D01*
X85925023Y-97766243D01*
X85909928Y-97919500D01*
X85909928Y-98214500D01*
X85916084Y-98277000D01*
X84263916Y-98277000D01*
X84270072Y-98214500D01*
X84270072Y-97919500D01*
X84254977Y-97766243D01*
X84210274Y-97618875D01*
X84137679Y-97483060D01*
X84072000Y-97403030D01*
X84072000Y-96156685D01*
X84225774Y-96053937D01*
X84269711Y-96010000D01*
X86108000Y-96010000D01*
X86108001Y-97403029D01*
G37*
%TD.AperFunction*%
D29*
X81282000Y-97983197D02*
X81045000Y-98220198D01*
X81045000Y-98196061D01*
X81005226Y-97996102D01*
X80927205Y-97807744D01*
X80813937Y-97638226D01*
X80669774Y-97494063D01*
X80500256Y-97380795D01*
X80311898Y-97302774D01*
X80111939Y-97263000D01*
X79908061Y-97263000D01*
X79708102Y-97302774D01*
X79519744Y-97380795D01*
X79350226Y-97494063D01*
X79306289Y-97538000D01*
X79054802Y-97538000D01*
X78613000Y-97096198D01*
X78613000Y-96212461D01*
X78692102Y-96245226D01*
X78892061Y-96285000D01*
X79095939Y-96285000D01*
X79295898Y-96245226D01*
X79484256Y-96167205D01*
X79653774Y-96053937D01*
X79756000Y-95951711D01*
X79858226Y-96053937D01*
X80027744Y-96167205D01*
X80216102Y-96245226D01*
X80416061Y-96285000D01*
X80619939Y-96285000D01*
X80819898Y-96245226D01*
X81008256Y-96167205D01*
X81177774Y-96053937D01*
X81282000Y-95949711D01*
X81282000Y-97983197D01*
%TA.AperFunction,NonConductor*%
D30*
G36*
X81282000Y-97983197D02*
G01*
X81045000Y-98220198D01*
X81045000Y-98196061D01*
X81005226Y-97996102D01*
X80927205Y-97807744D01*
X80813937Y-97638226D01*
X80669774Y-97494063D01*
X80500256Y-97380795D01*
X80311898Y-97302774D01*
X80111939Y-97263000D01*
X79908061Y-97263000D01*
X79708102Y-97302774D01*
X79519744Y-97380795D01*
X79350226Y-97494063D01*
X79306289Y-97538000D01*
X79054802Y-97538000D01*
X78613000Y-97096198D01*
X78613000Y-96212461D01*
X78692102Y-96245226D01*
X78892061Y-96285000D01*
X79095939Y-96285000D01*
X79295898Y-96245226D01*
X79484256Y-96167205D01*
X79653774Y-96053937D01*
X79756000Y-95951711D01*
X79858226Y-96053937D01*
X80027744Y-96167205D01*
X80216102Y-96245226D01*
X80416061Y-96285000D01*
X80619939Y-96285000D01*
X80819898Y-96245226D01*
X81008256Y-96167205D01*
X81177774Y-96053937D01*
X81282000Y-95949711D01*
X81282000Y-97983197D01*
G37*
%TD.AperFunction*%
D29*
X71247000Y-96588199D02*
X70356000Y-95697199D01*
X70356000Y-94040801D01*
X71180802Y-93216000D01*
X71247000Y-93216000D01*
X71247000Y-96588199D01*
%TA.AperFunction,NonConductor*%
D30*
G36*
X71247000Y-96588199D02*
G01*
X70356000Y-95697199D01*
X70356000Y-94040801D01*
X71180802Y-93216000D01*
X71247000Y-93216000D01*
X71247000Y-96588199D01*
G37*
%TD.AperFunction*%
D29*
X113485086Y-95178000D02*
X113293741Y-95216060D01*
X113357233Y-95152569D01*
X113485086Y-95178000D01*
%TA.AperFunction,NonConductor*%
D30*
G36*
X113485086Y-95178000D02*
G01*
X113293741Y-95216060D01*
X113357233Y-95152569D01*
X113485086Y-95178000D01*
G37*
%TD.AperFunction*%
D29*
X79737000Y-91225802D02*
X79737000Y-91287939D01*
X79776774Y-91487898D01*
X79854795Y-91676256D01*
X79968063Y-91845774D01*
X80112226Y-91989937D01*
X80281744Y-92103205D01*
X80470102Y-92181226D01*
X80670061Y-92221000D01*
X80873939Y-92221000D01*
X81073898Y-92181226D01*
X81262256Y-92103205D01*
X81289872Y-92084753D01*
X81284176Y-92142584D01*
X81278324Y-92202000D01*
X81282001Y-92239332D01*
X81282001Y-94550290D01*
X81177774Y-94446063D01*
X81008256Y-94332795D01*
X80819898Y-94254774D01*
X80619939Y-94215000D01*
X80557802Y-94215000D01*
X79811804Y-93469003D01*
X79788001Y-93439999D01*
X79672276Y-93345026D01*
X79540247Y-93274454D01*
X79396986Y-93230997D01*
X79285333Y-93220000D01*
X79285322Y-93220000D01*
X79248000Y-93216324D01*
X79210678Y-93220000D01*
X78613000Y-93220000D01*
X78613000Y-90101801D01*
X79737000Y-91225802D01*
%TA.AperFunction,NonConductor*%
D30*
G36*
X79737000Y-91225802D02*
G01*
X79737000Y-91287939D01*
X79776774Y-91487898D01*
X79854795Y-91676256D01*
X79968063Y-91845774D01*
X80112226Y-91989937D01*
X80281744Y-92103205D01*
X80470102Y-92181226D01*
X80670061Y-92221000D01*
X80873939Y-92221000D01*
X81073898Y-92181226D01*
X81262256Y-92103205D01*
X81289872Y-92084753D01*
X81284176Y-92142584D01*
X81278324Y-92202000D01*
X81282001Y-92239332D01*
X81282001Y-94550290D01*
X81177774Y-94446063D01*
X81008256Y-94332795D01*
X80819898Y-94254774D01*
X80619939Y-94215000D01*
X80557802Y-94215000D01*
X79811804Y-93469003D01*
X79788001Y-93439999D01*
X79672276Y-93345026D01*
X79540247Y-93274454D01*
X79396986Y-93230997D01*
X79285333Y-93220000D01*
X79285322Y-93220000D01*
X79248000Y-93216324D01*
X79210678Y-93220000D01*
X78613000Y-93220000D01*
X78613000Y-90101801D01*
X79737000Y-91225802D01*
G37*
%TD.AperFunction*%
D29*
X82806000Y-93180667D02*
X82802323Y-93218000D01*
X82806001Y-93255343D01*
X82806000Y-94546289D01*
X82802000Y-94550289D01*
X82802000Y-92516801D01*
X82806000Y-92512801D01*
X82806000Y-93180667D01*
%TA.AperFunction,NonConductor*%
D30*
G36*
X82806000Y-93180667D02*
G01*
X82802323Y-93218000D01*
X82806001Y-93255343D01*
X82806000Y-94546289D01*
X82802000Y-94550289D01*
X82802000Y-92516801D01*
X82806000Y-92512801D01*
X82806000Y-93180667D01*
G37*
%TD.AperFunction*%
D29*
X85217000Y-94490000D02*
X84326000Y-94490000D01*
X84326000Y-94222356D01*
X84480061Y-94253000D01*
X84683939Y-94253000D01*
X84883898Y-94213226D01*
X85072256Y-94135205D01*
X85217000Y-94038490D01*
X85217000Y-94490000D01*
%TA.AperFunction,NonConductor*%
D30*
G36*
X85217000Y-94490000D02*
G01*
X84326000Y-94490000D01*
X84326000Y-94222356D01*
X84480061Y-94253000D01*
X84683939Y-94253000D01*
X84883898Y-94213226D01*
X85072256Y-94135205D01*
X85217000Y-94038490D01*
X85217000Y-94490000D01*
G37*
%TD.AperFunction*%
D29*
X92815928Y-92597729D02*
X92815928Y-92628500D01*
X92831023Y-92781757D01*
X92875726Y-92929125D01*
X92948321Y-93064940D01*
X93046017Y-93183983D01*
X93150483Y-93269716D01*
X92438199Y-93982000D01*
X92334970Y-93982000D01*
X92254940Y-93916321D01*
X92119125Y-93843726D01*
X91971757Y-93799023D01*
X91818500Y-93783928D01*
X91523500Y-93783928D01*
X91370243Y-93799023D01*
X91222875Y-93843726D01*
X91186000Y-93863436D01*
X91149125Y-93843726D01*
X91001757Y-93799023D01*
X90848500Y-93783928D01*
X90553500Y-93783928D01*
X90400243Y-93799023D01*
X90352072Y-93813635D01*
X90352072Y-92994000D01*
X90339812Y-92869518D01*
X90303502Y-92749820D01*
X90297000Y-92737656D01*
X90297000Y-92550344D01*
X90303502Y-92538180D01*
X90329038Y-92454000D01*
X92672199Y-92454000D01*
X92815928Y-92597729D01*
%TA.AperFunction,NonConductor*%
D30*
G36*
X92815928Y-92597729D02*
G01*
X92815928Y-92628500D01*
X92831023Y-92781757D01*
X92875726Y-92929125D01*
X92948321Y-93064940D01*
X93046017Y-93183983D01*
X93150483Y-93269716D01*
X92438199Y-93982000D01*
X92334970Y-93982000D01*
X92254940Y-93916321D01*
X92119125Y-93843726D01*
X91971757Y-93799023D01*
X91818500Y-93783928D01*
X91523500Y-93783928D01*
X91370243Y-93799023D01*
X91222875Y-93843726D01*
X91186000Y-93863436D01*
X91149125Y-93843726D01*
X91001757Y-93799023D01*
X90848500Y-93783928D01*
X90553500Y-93783928D01*
X90400243Y-93799023D01*
X90352072Y-93813635D01*
X90352072Y-92994000D01*
X90339812Y-92869518D01*
X90303502Y-92749820D01*
X90297000Y-92737656D01*
X90297000Y-92550344D01*
X90303502Y-92538180D01*
X90329038Y-92454000D01*
X92672199Y-92454000D01*
X92815928Y-92597729D01*
G37*
%TD.AperFunction*%
D29*
X81929463Y-89309494D02*
X82008815Y-89406185D01*
X82105506Y-89485537D01*
X82215820Y-89544502D01*
X82330001Y-89579138D01*
X82330000Y-90839198D01*
X81788561Y-91380637D01*
X81807000Y-91287939D01*
X81807000Y-91084061D01*
X81767226Y-90884102D01*
X81689205Y-90695744D01*
X81575937Y-90526226D01*
X81431774Y-90382063D01*
X81262256Y-90268795D01*
X81073898Y-90190774D01*
X80873939Y-90151000D01*
X80811802Y-90151000D01*
X80583540Y-89922738D01*
X80606795Y-89938277D01*
X80767855Y-90004990D01*
X80938835Y-90039000D01*
X81113165Y-90039000D01*
X81284145Y-90004990D01*
X81445205Y-89938277D01*
X81590155Y-89841424D01*
X81713424Y-89718155D01*
X81810277Y-89573205D01*
X81876990Y-89412145D01*
X81906102Y-89265789D01*
X81929463Y-89309494D01*
%TA.AperFunction,NonConductor*%
D30*
G36*
X81929463Y-89309494D02*
G01*
X82008815Y-89406185D01*
X82105506Y-89485537D01*
X82215820Y-89544502D01*
X82330001Y-89579138D01*
X82330000Y-90839198D01*
X81788561Y-91380637D01*
X81807000Y-91287939D01*
X81807000Y-91084061D01*
X81767226Y-90884102D01*
X81689205Y-90695744D01*
X81575937Y-90526226D01*
X81431774Y-90382063D01*
X81262256Y-90268795D01*
X81073898Y-90190774D01*
X80873939Y-90151000D01*
X80811802Y-90151000D01*
X80583540Y-89922738D01*
X80606795Y-89938277D01*
X80767855Y-90004990D01*
X80938835Y-90039000D01*
X81113165Y-90039000D01*
X81284145Y-90004990D01*
X81445205Y-89938277D01*
X81590155Y-89841424D01*
X81713424Y-89718155D01*
X81810277Y-89573205D01*
X81876990Y-89412145D01*
X81906102Y-89265789D01*
X81929463Y-89309494D01*
G37*
%TD.AperFunction*%
D29*
X86712716Y-90455928D02*
X85914000Y-90455928D01*
X85789518Y-90468188D01*
X85773599Y-90473017D01*
X85773599Y-90040001D01*
X86296790Y-90040001D01*
X86712716Y-90455928D01*
%TA.AperFunction,NonConductor*%
D30*
G36*
X86712716Y-90455928D02*
G01*
X85914000Y-90455928D01*
X85789518Y-90468188D01*
X85773599Y-90473017D01*
X85773599Y-90040001D01*
X86296790Y-90040001D01*
X86712716Y-90455928D01*
G37*
%TD.AperFunction*%
D29*
X78300198Y-89789000D02*
X75115802Y-89789000D01*
X75244802Y-89660000D01*
X78171199Y-89660000D01*
X78300198Y-89789000D01*
%TA.AperFunction,NonConductor*%
D30*
G36*
X78300198Y-89789000D02*
G01*
X75115802Y-89789000D01*
X75244802Y-89660000D01*
X78171199Y-89660000D01*
X78300198Y-89789000D01*
G37*
%TD.AperFunction*%
D29*
X80606795Y-88369723D02*
X80461845Y-88466576D01*
X80338576Y-88589845D01*
X80241723Y-88734795D01*
X80175010Y-88895855D01*
X80141000Y-89066835D01*
X80141000Y-89241165D01*
X80175010Y-89412145D01*
X80241723Y-89573205D01*
X80257262Y-89596460D01*
X79754000Y-89093199D01*
X79754000Y-88960801D01*
X80364802Y-88350000D01*
X80654411Y-88350000D01*
X80606795Y-88369723D01*
%TA.AperFunction,NonConductor*%
D30*
G36*
X80606795Y-88369723D02*
G01*
X80461845Y-88466576D01*
X80338576Y-88589845D01*
X80241723Y-88734795D01*
X80175010Y-88895855D01*
X80141000Y-89066835D01*
X80141000Y-89241165D01*
X80175010Y-89412145D01*
X80241723Y-89573205D01*
X80257262Y-89596460D01*
X79754000Y-89093199D01*
X79754000Y-88960801D01*
X80364802Y-88350000D01*
X80654411Y-88350000D01*
X80606795Y-88369723D01*
G37*
%TD.AperFunction*%
D29*
X91097885Y-86968115D02*
X91227725Y-87074671D01*
X91375858Y-87153850D01*
X91536592Y-87202608D01*
X91703750Y-87219072D01*
X92141250Y-87219072D01*
X92308408Y-87202608D01*
X92469142Y-87153850D01*
X92617275Y-87074671D01*
X92710000Y-86998574D01*
X92737500Y-87021143D01*
X92737501Y-88403168D01*
X92733824Y-88440500D01*
X92737501Y-88477833D01*
X92748498Y-88589486D01*
X92758660Y-88622985D01*
X92767928Y-88653540D01*
X92767928Y-88816500D01*
X92783023Y-88969757D01*
X92827726Y-89117125D01*
X92847436Y-89154000D01*
X92827726Y-89190875D01*
X92783023Y-89338243D01*
X92767928Y-89491500D01*
X92767928Y-89499010D01*
X89557811Y-89499010D01*
X89463798Y-89404997D01*
X89440002Y-89376001D01*
X89411003Y-89352202D01*
X89324277Y-89281027D01*
X89192247Y-89210455D01*
X89090205Y-89179502D01*
X89048987Y-89166999D01*
X88937334Y-89156002D01*
X88900001Y-89152325D01*
X88862670Y-89156002D01*
X88322600Y-89156001D01*
X88345812Y-89079482D01*
X88358072Y-88955000D01*
X88358072Y-88358072D01*
X88955000Y-88358072D01*
X89079482Y-88345812D01*
X89199180Y-88309502D01*
X89309494Y-88250537D01*
X89341078Y-88224616D01*
X89643000Y-88491489D01*
X89643000Y-88493939D01*
X89682774Y-88693898D01*
X89760795Y-88882256D01*
X89874063Y-89051774D01*
X90018226Y-89195937D01*
X90187744Y-89309205D01*
X90376102Y-89387226D01*
X90576061Y-89427000D01*
X90779939Y-89427000D01*
X90979898Y-89387226D01*
X91168256Y-89309205D01*
X91337774Y-89195937D01*
X91481937Y-89051774D01*
X91595205Y-88882256D01*
X91673226Y-88693898D01*
X91713000Y-88493939D01*
X91713000Y-88290061D01*
X91673226Y-88090102D01*
X91595205Y-87901744D01*
X91481937Y-87732226D01*
X91337774Y-87588063D01*
X91168256Y-87474795D01*
X90979898Y-87396774D01*
X90779939Y-87357000D01*
X90654621Y-87357000D01*
X90081033Y-86850000D01*
X91000951Y-86850000D01*
X91097885Y-86968115D01*
%TA.AperFunction,NonConductor*%
D30*
G36*
X91097885Y-86968115D02*
G01*
X91227725Y-87074671D01*
X91375858Y-87153850D01*
X91536592Y-87202608D01*
X91703750Y-87219072D01*
X92141250Y-87219072D01*
X92308408Y-87202608D01*
X92469142Y-87153850D01*
X92617275Y-87074671D01*
X92710000Y-86998574D01*
X92737500Y-87021143D01*
X92737501Y-88403168D01*
X92733824Y-88440500D01*
X92737501Y-88477833D01*
X92748498Y-88589486D01*
X92758660Y-88622985D01*
X92767928Y-88653540D01*
X92767928Y-88816500D01*
X92783023Y-88969757D01*
X92827726Y-89117125D01*
X92847436Y-89154000D01*
X92827726Y-89190875D01*
X92783023Y-89338243D01*
X92767928Y-89491500D01*
X92767928Y-89499010D01*
X89557811Y-89499010D01*
X89463798Y-89404997D01*
X89440002Y-89376001D01*
X89411003Y-89352202D01*
X89324277Y-89281027D01*
X89192247Y-89210455D01*
X89090205Y-89179502D01*
X89048987Y-89166999D01*
X88937334Y-89156002D01*
X88900001Y-89152325D01*
X88862670Y-89156002D01*
X88322600Y-89156001D01*
X88345812Y-89079482D01*
X88358072Y-88955000D01*
X88358072Y-88358072D01*
X88955000Y-88358072D01*
X89079482Y-88345812D01*
X89199180Y-88309502D01*
X89309494Y-88250537D01*
X89341078Y-88224616D01*
X89643000Y-88491489D01*
X89643000Y-88493939D01*
X89682774Y-88693898D01*
X89760795Y-88882256D01*
X89874063Y-89051774D01*
X90018226Y-89195937D01*
X90187744Y-89309205D01*
X90376102Y-89387226D01*
X90576061Y-89427000D01*
X90779939Y-89427000D01*
X90979898Y-89387226D01*
X91168256Y-89309205D01*
X91337774Y-89195937D01*
X91481937Y-89051774D01*
X91595205Y-88882256D01*
X91673226Y-88693898D01*
X91713000Y-88493939D01*
X91713000Y-88290061D01*
X91673226Y-88090102D01*
X91595205Y-87901744D01*
X91481937Y-87732226D01*
X91337774Y-87588063D01*
X91168256Y-87474795D01*
X90979898Y-87396774D01*
X90779939Y-87357000D01*
X90654621Y-87357000D01*
X90081033Y-86850000D01*
X91000951Y-86850000D01*
X91097885Y-86968115D01*
G37*
%TD.AperFunction*%
D29*
X99055329Y-85882246D02*
X99044753Y-85885454D01*
X98912723Y-85956026D01*
X98854193Y-86004061D01*
X98796999Y-86050999D01*
X98773201Y-86079997D01*
X96988199Y-87865000D01*
X96926061Y-87865000D01*
X96726102Y-87904774D01*
X96537744Y-87982795D01*
X96368226Y-88096063D01*
X96224063Y-88240226D01*
X96110795Y-88409744D01*
X96032774Y-88598102D01*
X95993000Y-88798061D01*
X95993000Y-88860199D01*
X95974199Y-88879000D01*
X94677916Y-88879000D01*
X94684072Y-88816500D01*
X94684072Y-88521500D01*
X94668977Y-88368243D01*
X94624274Y-88220875D01*
X94551679Y-88085060D01*
X94453983Y-87966017D01*
X94334940Y-87868321D01*
X94257500Y-87826928D01*
X94257500Y-87021143D01*
X94322115Y-86968115D01*
X94428671Y-86838275D01*
X94507850Y-86690142D01*
X94556608Y-86529408D01*
X94573072Y-86362250D01*
X94573072Y-85850000D01*
X99161631Y-85850000D01*
X99055329Y-85882246D01*
%TA.AperFunction,NonConductor*%
D30*
G36*
X99055329Y-85882246D02*
G01*
X99044753Y-85885454D01*
X98912723Y-85956026D01*
X98854193Y-86004061D01*
X98796999Y-86050999D01*
X98773201Y-86079997D01*
X96988199Y-87865000D01*
X96926061Y-87865000D01*
X96726102Y-87904774D01*
X96537744Y-87982795D01*
X96368226Y-88096063D01*
X96224063Y-88240226D01*
X96110795Y-88409744D01*
X96032774Y-88598102D01*
X95993000Y-88798061D01*
X95993000Y-88860199D01*
X95974199Y-88879000D01*
X94677916Y-88879000D01*
X94684072Y-88816500D01*
X94684072Y-88521500D01*
X94668977Y-88368243D01*
X94624274Y-88220875D01*
X94551679Y-88085060D01*
X94453983Y-87966017D01*
X94334940Y-87868321D01*
X94257500Y-87826928D01*
X94257500Y-87021143D01*
X94322115Y-86968115D01*
X94428671Y-86838275D01*
X94507850Y-86690142D01*
X94556608Y-86529408D01*
X94573072Y-86362250D01*
X94573072Y-85850000D01*
X99161631Y-85850000D01*
X99055329Y-85882246D01*
G37*
%TD.AperFunction*%
D29*
X112282431Y-82428233D02*
X112253000Y-82576195D01*
X112253000Y-82849805D01*
X112306378Y-83118156D01*
X112411084Y-83370938D01*
X112563093Y-83598436D01*
X112756564Y-83791907D01*
X112984062Y-83943916D01*
X113236844Y-84048622D01*
X113485086Y-84098000D01*
X113236844Y-84147378D01*
X112984062Y-84252084D01*
X112756564Y-84404093D01*
X112563093Y-84597564D01*
X112479280Y-84723000D01*
X109300711Y-84723000D01*
X109256774Y-84679063D01*
X109087256Y-84565795D01*
X108898898Y-84487774D01*
X108698939Y-84448000D01*
X108495061Y-84448000D01*
X108295102Y-84487774D01*
X108106744Y-84565795D01*
X107937226Y-84679063D01*
X107793063Y-84823226D01*
X107679795Y-84992744D01*
X107601774Y-85181102D01*
X107562000Y-85381061D01*
X107562000Y-85584939D01*
X107601774Y-85784898D01*
X107679795Y-85973256D01*
X107793063Y-86142774D01*
X107937226Y-86286937D01*
X108106744Y-86400205D01*
X108295102Y-86478226D01*
X108495061Y-86518000D01*
X108698939Y-86518000D01*
X108898898Y-86478226D01*
X109087256Y-86400205D01*
X109256774Y-86286937D01*
X109300711Y-86243000D01*
X112479280Y-86243000D01*
X112563093Y-86368436D01*
X112756564Y-86561907D01*
X112984062Y-86713916D01*
X113236844Y-86818622D01*
X113485086Y-86868000D01*
X113236844Y-86917378D01*
X112984062Y-87022084D01*
X112756564Y-87174093D01*
X112563093Y-87367564D01*
X112411084Y-87595062D01*
X112306378Y-87847844D01*
X112253000Y-88116195D01*
X112253000Y-88389805D01*
X112306378Y-88658156D01*
X112397441Y-88878000D01*
X109487802Y-88878000D01*
X106066072Y-85456271D01*
X106066072Y-85425500D01*
X106050977Y-85272243D01*
X106006274Y-85124875D01*
X105933679Y-84989060D01*
X105835983Y-84870017D01*
X105716940Y-84772321D01*
X105581125Y-84699726D01*
X105433757Y-84655023D01*
X105280500Y-84639928D01*
X104985500Y-84639928D01*
X104832243Y-84655023D01*
X104684875Y-84699726D01*
X104648000Y-84719436D01*
X104611125Y-84699726D01*
X104463757Y-84655023D01*
X104310500Y-84639928D01*
X104015500Y-84639928D01*
X103862243Y-84655023D01*
X103714875Y-84699726D01*
X103579060Y-84772321D01*
X103471004Y-84861000D01*
X101242508Y-84861000D01*
X101192940Y-84820321D01*
X101057125Y-84747726D01*
X100909757Y-84703023D01*
X100756500Y-84687928D01*
X100725730Y-84687928D01*
X100616803Y-84579002D01*
X100593001Y-84549999D01*
X100477276Y-84455026D01*
X100345247Y-84384454D01*
X100201986Y-84340997D01*
X100090333Y-84330000D01*
X100090322Y-84330000D01*
X100053000Y-84326324D01*
X100015678Y-84330000D01*
X98839802Y-84330000D01*
X98947730Y-84222072D01*
X98978500Y-84222072D01*
X99131757Y-84206977D01*
X99279125Y-84162274D01*
X99414940Y-84089679D01*
X99464508Y-84049000D01*
X100592678Y-84049000D01*
X100630000Y-84052676D01*
X100667322Y-84049000D01*
X100667333Y-84049000D01*
X100778986Y-84038003D01*
X100922247Y-83994546D01*
X101054276Y-83923974D01*
X101170001Y-83829001D01*
X101193804Y-83799997D01*
X102755730Y-82238072D01*
X102786500Y-82238072D01*
X102939757Y-82222977D01*
X103087125Y-82178274D01*
X103124000Y-82158564D01*
X103160875Y-82178274D01*
X103308243Y-82222977D01*
X103461500Y-82238072D01*
X103756500Y-82238072D01*
X103909757Y-82222977D01*
X104057125Y-82178274D01*
X104192940Y-82105679D01*
X104272970Y-82040000D01*
X111894199Y-82040000D01*
X112282431Y-82428233D01*
%TA.AperFunction,NonConductor*%
D30*
G36*
X112282431Y-82428233D02*
G01*
X112253000Y-82576195D01*
X112253000Y-82849805D01*
X112306378Y-83118156D01*
X112411084Y-83370938D01*
X112563093Y-83598436D01*
X112756564Y-83791907D01*
X112984062Y-83943916D01*
X113236844Y-84048622D01*
X113485086Y-84098000D01*
X113236844Y-84147378D01*
X112984062Y-84252084D01*
X112756564Y-84404093D01*
X112563093Y-84597564D01*
X112479280Y-84723000D01*
X109300711Y-84723000D01*
X109256774Y-84679063D01*
X109087256Y-84565795D01*
X108898898Y-84487774D01*
X108698939Y-84448000D01*
X108495061Y-84448000D01*
X108295102Y-84487774D01*
X108106744Y-84565795D01*
X107937226Y-84679063D01*
X107793063Y-84823226D01*
X107679795Y-84992744D01*
X107601774Y-85181102D01*
X107562000Y-85381061D01*
X107562000Y-85584939D01*
X107601774Y-85784898D01*
X107679795Y-85973256D01*
X107793063Y-86142774D01*
X107937226Y-86286937D01*
X108106744Y-86400205D01*
X108295102Y-86478226D01*
X108495061Y-86518000D01*
X108698939Y-86518000D01*
X108898898Y-86478226D01*
X109087256Y-86400205D01*
X109256774Y-86286937D01*
X109300711Y-86243000D01*
X112479280Y-86243000D01*
X112563093Y-86368436D01*
X112756564Y-86561907D01*
X112984062Y-86713916D01*
X113236844Y-86818622D01*
X113485086Y-86868000D01*
X113236844Y-86917378D01*
X112984062Y-87022084D01*
X112756564Y-87174093D01*
X112563093Y-87367564D01*
X112411084Y-87595062D01*
X112306378Y-87847844D01*
X112253000Y-88116195D01*
X112253000Y-88389805D01*
X112306378Y-88658156D01*
X112397441Y-88878000D01*
X109487802Y-88878000D01*
X106066072Y-85456271D01*
X106066072Y-85425500D01*
X106050977Y-85272243D01*
X106006274Y-85124875D01*
X105933679Y-84989060D01*
X105835983Y-84870017D01*
X105716940Y-84772321D01*
X105581125Y-84699726D01*
X105433757Y-84655023D01*
X105280500Y-84639928D01*
X104985500Y-84639928D01*
X104832243Y-84655023D01*
X104684875Y-84699726D01*
X104648000Y-84719436D01*
X104611125Y-84699726D01*
X104463757Y-84655023D01*
X104310500Y-84639928D01*
X104015500Y-84639928D01*
X103862243Y-84655023D01*
X103714875Y-84699726D01*
X103579060Y-84772321D01*
X103471004Y-84861000D01*
X101242508Y-84861000D01*
X101192940Y-84820321D01*
X101057125Y-84747726D01*
X100909757Y-84703023D01*
X100756500Y-84687928D01*
X100725730Y-84687928D01*
X100616803Y-84579002D01*
X100593001Y-84549999D01*
X100477276Y-84455026D01*
X100345247Y-84384454D01*
X100201986Y-84340997D01*
X100090333Y-84330000D01*
X100090322Y-84330000D01*
X100053000Y-84326324D01*
X100015678Y-84330000D01*
X98839802Y-84330000D01*
X98947730Y-84222072D01*
X98978500Y-84222072D01*
X99131757Y-84206977D01*
X99279125Y-84162274D01*
X99414940Y-84089679D01*
X99464508Y-84049000D01*
X100592678Y-84049000D01*
X100630000Y-84052676D01*
X100667322Y-84049000D01*
X100667333Y-84049000D01*
X100778986Y-84038003D01*
X100922247Y-83994546D01*
X101054276Y-83923974D01*
X101170001Y-83829001D01*
X101193804Y-83799997D01*
X102755730Y-82238072D01*
X102786500Y-82238072D01*
X102939757Y-82222977D01*
X103087125Y-82178274D01*
X103124000Y-82158564D01*
X103160875Y-82178274D01*
X103308243Y-82222977D01*
X103461500Y-82238072D01*
X103756500Y-82238072D01*
X103909757Y-82222977D01*
X104057125Y-82178274D01*
X104192940Y-82105679D01*
X104272970Y-82040000D01*
X111894199Y-82040000D01*
X112282431Y-82428233D01*
G37*
%TD.AperFunction*%
D29*
X115146378Y-86462844D02*
X115093000Y-86731195D01*
X115093000Y-87004805D01*
X115146378Y-87273156D01*
X115251084Y-87525938D01*
X115403093Y-87753436D01*
X115596564Y-87946907D01*
X115824062Y-88098916D01*
X116076844Y-88203622D01*
X116325086Y-88253000D01*
X116076844Y-88302378D01*
X115824062Y-88407084D01*
X115596564Y-88559093D01*
X115403093Y-88752564D01*
X115319280Y-88878000D01*
X114886559Y-88878000D01*
X114977622Y-88658156D01*
X115031000Y-88389805D01*
X115031000Y-88116195D01*
X114977622Y-87847844D01*
X114872916Y-87595062D01*
X114720907Y-87367564D01*
X114527436Y-87174093D01*
X114299938Y-87022084D01*
X114047156Y-86917378D01*
X113798914Y-86868000D01*
X114047156Y-86818622D01*
X114299938Y-86713916D01*
X114527436Y-86561907D01*
X114720907Y-86368436D01*
X114804720Y-86243000D01*
X115237441Y-86243000D01*
X115146378Y-86462844D01*
%TA.AperFunction,NonConductor*%
D30*
G36*
X115146378Y-86462844D02*
G01*
X115093000Y-86731195D01*
X115093000Y-87004805D01*
X115146378Y-87273156D01*
X115251084Y-87525938D01*
X115403093Y-87753436D01*
X115596564Y-87946907D01*
X115824062Y-88098916D01*
X116076844Y-88203622D01*
X116325086Y-88253000D01*
X116076844Y-88302378D01*
X115824062Y-88407084D01*
X115596564Y-88559093D01*
X115403093Y-88752564D01*
X115319280Y-88878000D01*
X114886559Y-88878000D01*
X114977622Y-88658156D01*
X115031000Y-88389805D01*
X115031000Y-88116195D01*
X114977622Y-87847844D01*
X114872916Y-87595062D01*
X114720907Y-87367564D01*
X114527436Y-87174093D01*
X114299938Y-87022084D01*
X114047156Y-86917378D01*
X113798914Y-86868000D01*
X114047156Y-86818622D01*
X114299938Y-86713916D01*
X114527436Y-86561907D01*
X114720907Y-86368436D01*
X114804720Y-86243000D01*
X115237441Y-86243000D01*
X115146378Y-86462844D01*
G37*
%TD.AperFunction*%
D29*
X81821928Y-88762923D02*
X81810277Y-88734795D01*
X81713424Y-88589845D01*
X81590155Y-88466576D01*
X81445205Y-88369723D01*
X81417077Y-88358072D01*
X81821928Y-88358072D01*
X81821928Y-88762923D01*
%TA.AperFunction,NonConductor*%
D30*
G36*
X81821928Y-88762923D02*
G01*
X81810277Y-88734795D01*
X81713424Y-88589845D01*
X81590155Y-88466576D01*
X81445205Y-88369723D01*
X81417077Y-88358072D01*
X81821928Y-88358072D01*
X81821928Y-88762923D01*
G37*
%TD.AperFunction*%
D29*
X77959000Y-87223939D02*
X77998774Y-87423898D01*
X78076795Y-87612256D01*
X78190063Y-87781774D01*
X78334226Y-87925937D01*
X78503744Y-88039205D01*
X78519477Y-88045722D01*
X78482998Y-88082201D01*
X78454000Y-88105999D01*
X78430202Y-88134997D01*
X78430201Y-88134998D01*
X78426096Y-88140000D01*
X75748802Y-88140000D01*
X76731804Y-87156999D01*
X77959000Y-87156999D01*
X77959000Y-87223939D01*
%TA.AperFunction,NonConductor*%
D30*
G36*
X77959000Y-87223939D02*
G01*
X77998774Y-87423898D01*
X78076795Y-87612256D01*
X78190063Y-87781774D01*
X78334226Y-87925937D01*
X78503744Y-88039205D01*
X78519477Y-88045722D01*
X78482998Y-88082201D01*
X78454000Y-88105999D01*
X78430202Y-88134997D01*
X78430201Y-88134998D01*
X78426096Y-88140000D01*
X75748802Y-88140000D01*
X76731804Y-87156999D01*
X77959000Y-87156999D01*
X77959000Y-87223939D01*
G37*
%TD.AperFunction*%
D29*
X71609000Y-86004061D02*
X71609000Y-86207939D01*
X71627439Y-86300637D01*
X71205804Y-85879003D01*
X71182002Y-85850000D01*
X71639644Y-85850000D01*
X71609000Y-86004061D01*
%TA.AperFunction,NonConductor*%
D30*
G36*
X71609000Y-86004061D02*
G01*
X71609000Y-86207939D01*
X71627439Y-86300637D01*
X71205804Y-85879003D01*
X71182002Y-85850000D01*
X71639644Y-85850000D01*
X71609000Y-86004061D01*
G37*
%TD.AperFunction*%
D29*
X73781030Y-84330000D02*
X72700802Y-84330000D01*
X72704802Y-84326000D01*
X73785904Y-84326000D01*
X73781030Y-84330000D01*
%TA.AperFunction,NonConductor*%
D30*
G36*
X73781030Y-84330000D02*
G01*
X72700802Y-84330000D01*
X72704802Y-84326000D01*
X73785904Y-84326000D01*
X73781030Y-84330000D01*
G37*
%TD.AperFunction*%
D29*
X98046001Y-81594802D02*
X98046001Y-81655029D01*
X97980321Y-81735060D01*
X97907726Y-81870875D01*
X97863023Y-82018243D01*
X97847928Y-82171500D01*
X97847928Y-82466500D01*
X97863023Y-82619757D01*
X97907726Y-82767125D01*
X97927436Y-82804000D01*
X97907726Y-82840875D01*
X97863023Y-82988243D01*
X97847928Y-83141500D01*
X97847928Y-83172270D01*
X97190199Y-83830000D01*
X89582238Y-83830000D01*
X89593072Y-83720000D01*
X89593072Y-83460000D01*
X89582238Y-83350000D01*
X93907679Y-83350000D01*
X93941321Y-83412940D01*
X94039017Y-83531983D01*
X94158060Y-83629679D01*
X94293875Y-83702274D01*
X94441243Y-83746977D01*
X94594500Y-83762072D01*
X94889500Y-83762072D01*
X95042757Y-83746977D01*
X95190125Y-83702274D01*
X95227000Y-83682564D01*
X95263875Y-83702274D01*
X95411243Y-83746977D01*
X95564500Y-83762072D01*
X95859500Y-83762072D01*
X96012757Y-83746977D01*
X96160125Y-83702274D01*
X96295940Y-83629679D01*
X96414983Y-83531983D01*
X96512679Y-83412940D01*
X96585274Y-83277125D01*
X96629977Y-83129757D01*
X96645072Y-82976500D01*
X96645072Y-82631500D01*
X96629977Y-82478243D01*
X96585274Y-82330875D01*
X96512679Y-82195060D01*
X96472000Y-82145492D01*
X96472000Y-81232000D01*
X97683199Y-81232000D01*
X98046001Y-81594802D01*
%TA.AperFunction,NonConductor*%
D30*
G36*
X98046001Y-81594802D02*
G01*
X98046001Y-81655029D01*
X97980321Y-81735060D01*
X97907726Y-81870875D01*
X97863023Y-82018243D01*
X97847928Y-82171500D01*
X97847928Y-82466500D01*
X97863023Y-82619757D01*
X97907726Y-82767125D01*
X97927436Y-82804000D01*
X97907726Y-82840875D01*
X97863023Y-82988243D01*
X97847928Y-83141500D01*
X97847928Y-83172270D01*
X97190199Y-83830000D01*
X89582238Y-83830000D01*
X89593072Y-83720000D01*
X89593072Y-83460000D01*
X89582238Y-83350000D01*
X93907679Y-83350000D01*
X93941321Y-83412940D01*
X94039017Y-83531983D01*
X94158060Y-83629679D01*
X94293875Y-83702274D01*
X94441243Y-83746977D01*
X94594500Y-83762072D01*
X94889500Y-83762072D01*
X95042757Y-83746977D01*
X95190125Y-83702274D01*
X95227000Y-83682564D01*
X95263875Y-83702274D01*
X95411243Y-83746977D01*
X95564500Y-83762072D01*
X95859500Y-83762072D01*
X96012757Y-83746977D01*
X96160125Y-83702274D01*
X96295940Y-83629679D01*
X96414983Y-83531983D01*
X96512679Y-83412940D01*
X96585274Y-83277125D01*
X96629977Y-83129757D01*
X96645072Y-82976500D01*
X96645072Y-82631500D01*
X96629977Y-82478243D01*
X96585274Y-82330875D01*
X96512679Y-82195060D01*
X96472000Y-82145492D01*
X96472000Y-81232000D01*
X97683199Y-81232000D01*
X98046001Y-81594802D01*
G37*
%TD.AperFunction*%
D29*
X112249928Y-76855730D02*
X112249928Y-77927000D01*
X112262188Y-78051482D01*
X112298498Y-78171180D01*
X112357463Y-78281494D01*
X112436815Y-78378185D01*
X112533506Y-78457537D01*
X112643820Y-78516502D01*
X112763518Y-78552812D01*
X112888000Y-78565072D01*
X113449532Y-78565072D01*
X113236844Y-78607378D01*
X112984062Y-78712084D01*
X112756564Y-78864093D01*
X112563093Y-79057564D01*
X112411084Y-79285062D01*
X112306378Y-79537844D01*
X112253000Y-79806195D01*
X112253000Y-80079805D01*
X112306378Y-80348156D01*
X112385581Y-80539368D01*
X112357986Y-80530997D01*
X112246333Y-80520000D01*
X112246322Y-80520000D01*
X112209000Y-80516324D01*
X112171678Y-80520000D01*
X104272970Y-80520000D01*
X104192940Y-80454321D01*
X104057125Y-80381726D01*
X103909757Y-80337023D01*
X103756500Y-80321928D01*
X103461500Y-80321928D01*
X103308243Y-80337023D01*
X103160875Y-80381726D01*
X103124000Y-80401436D01*
X103087125Y-80381726D01*
X102939757Y-80337023D01*
X102786500Y-80321928D01*
X102491500Y-80321928D01*
X102338243Y-80337023D01*
X102190875Y-80381726D01*
X102055060Y-80454321D01*
X101936017Y-80552017D01*
X101838321Y-80671060D01*
X101765726Y-80806875D01*
X101721023Y-80954243D01*
X101705928Y-81107500D01*
X101705928Y-81138270D01*
X100315199Y-82529000D01*
X99757916Y-82529000D01*
X99764072Y-82466500D01*
X99764072Y-82171500D01*
X99748977Y-82018243D01*
X99704274Y-81870875D01*
X99631679Y-81735060D01*
X99566000Y-81655030D01*
X99566000Y-81317333D01*
X99569677Y-81280000D01*
X99555003Y-81131014D01*
X99511546Y-80987753D01*
X99440974Y-80855724D01*
X99369799Y-80768997D01*
X99346001Y-80739999D01*
X99317002Y-80716201D01*
X98561803Y-79961002D01*
X98538001Y-79931999D01*
X98422276Y-79837026D01*
X98290247Y-79766454D01*
X98146986Y-79722997D01*
X98035333Y-79712000D01*
X98035322Y-79712000D01*
X97998000Y-79708324D01*
X97960678Y-79712000D01*
X96472000Y-79712000D01*
X96472000Y-78985323D01*
X96475676Y-78948000D01*
X96472000Y-78910677D01*
X96472000Y-78910667D01*
X96461003Y-78799014D01*
X96417546Y-78655753D01*
X96346974Y-78523723D01*
X96275799Y-78436997D01*
X96252001Y-78407999D01*
X96223003Y-78384201D01*
X94543804Y-76705003D01*
X94520001Y-76675999D01*
X94404276Y-76581026D01*
X94272247Y-76510454D01*
X94128986Y-76466997D01*
X94017333Y-76456000D01*
X94017322Y-76456000D01*
X93980000Y-76452324D01*
X93942678Y-76456000D01*
X89349711Y-76456000D01*
X89305774Y-76412063D01*
X89136256Y-76298795D01*
X88947898Y-76220774D01*
X88747939Y-76181000D01*
X88685802Y-76181000D01*
X87200804Y-74696003D01*
X87177001Y-74666999D01*
X87061276Y-74572026D01*
X86929247Y-74501454D01*
X86785986Y-74457997D01*
X86674333Y-74447000D01*
X86674322Y-74447000D01*
X86637000Y-74443324D01*
X86599678Y-74447000D01*
X84224508Y-74447000D01*
X84174940Y-74406321D01*
X84039125Y-74333726D01*
X83891757Y-74289023D01*
X83738500Y-74273928D01*
X83393500Y-74273928D01*
X83240243Y-74289023D01*
X83092875Y-74333726D01*
X82957060Y-74406321D01*
X82838017Y-74504017D01*
X82740321Y-74623060D01*
X82725303Y-74651157D01*
X82705999Y-74666999D01*
X82682201Y-74695997D01*
X80515003Y-76863196D01*
X80485999Y-76886999D01*
X80453144Y-76927034D01*
X80417060Y-76946321D01*
X80367492Y-76987000D01*
X78156533Y-76987000D01*
X78078940Y-76923321D01*
X77943125Y-76850726D01*
X77795757Y-76806023D01*
X77642500Y-76790928D01*
X77297500Y-76790928D01*
X77144243Y-76806023D01*
X76996875Y-76850726D01*
X76861060Y-76923321D01*
X76742017Y-77021017D01*
X76644321Y-77140060D01*
X76571726Y-77275875D01*
X76527023Y-77423243D01*
X76511928Y-77576500D01*
X76511928Y-77871500D01*
X76521658Y-77970282D01*
X76461753Y-77988454D01*
X76329724Y-78059026D01*
X76213999Y-78153999D01*
X76190201Y-78182998D01*
X75435002Y-78938197D01*
X75405999Y-78961999D01*
X75367225Y-79009246D01*
X75311026Y-79077724D01*
X75247658Y-79196276D01*
X75240454Y-79209754D01*
X75196997Y-79353015D01*
X75186000Y-79464668D01*
X75186000Y-79464678D01*
X75182324Y-79502000D01*
X75186000Y-79539323D01*
X75186001Y-80988667D01*
X75186000Y-81790000D01*
X74420000Y-81790000D01*
X74420000Y-76768801D01*
X77276802Y-73912000D01*
X109306199Y-73912000D01*
X112249928Y-76855730D01*
%TA.AperFunction,NonConductor*%
D30*
G36*
X112249928Y-76855730D02*
G01*
X112249928Y-77927000D01*
X112262188Y-78051482D01*
X112298498Y-78171180D01*
X112357463Y-78281494D01*
X112436815Y-78378185D01*
X112533506Y-78457537D01*
X112643820Y-78516502D01*
X112763518Y-78552812D01*
X112888000Y-78565072D01*
X113449532Y-78565072D01*
X113236844Y-78607378D01*
X112984062Y-78712084D01*
X112756564Y-78864093D01*
X112563093Y-79057564D01*
X112411084Y-79285062D01*
X112306378Y-79537844D01*
X112253000Y-79806195D01*
X112253000Y-80079805D01*
X112306378Y-80348156D01*
X112385581Y-80539368D01*
X112357986Y-80530997D01*
X112246333Y-80520000D01*
X112246322Y-80520000D01*
X112209000Y-80516324D01*
X112171678Y-80520000D01*
X104272970Y-80520000D01*
X104192940Y-80454321D01*
X104057125Y-80381726D01*
X103909757Y-80337023D01*
X103756500Y-80321928D01*
X103461500Y-80321928D01*
X103308243Y-80337023D01*
X103160875Y-80381726D01*
X103124000Y-80401436D01*
X103087125Y-80381726D01*
X102939757Y-80337023D01*
X102786500Y-80321928D01*
X102491500Y-80321928D01*
X102338243Y-80337023D01*
X102190875Y-80381726D01*
X102055060Y-80454321D01*
X101936017Y-80552017D01*
X101838321Y-80671060D01*
X101765726Y-80806875D01*
X101721023Y-80954243D01*
X101705928Y-81107500D01*
X101705928Y-81138270D01*
X100315199Y-82529000D01*
X99757916Y-82529000D01*
X99764072Y-82466500D01*
X99764072Y-82171500D01*
X99748977Y-82018243D01*
X99704274Y-81870875D01*
X99631679Y-81735060D01*
X99566000Y-81655030D01*
X99566000Y-81317333D01*
X99569677Y-81280000D01*
X99555003Y-81131014D01*
X99511546Y-80987753D01*
X99440974Y-80855724D01*
X99369799Y-80768997D01*
X99346001Y-80739999D01*
X99317002Y-80716201D01*
X98561803Y-79961002D01*
X98538001Y-79931999D01*
X98422276Y-79837026D01*
X98290247Y-79766454D01*
X98146986Y-79722997D01*
X98035333Y-79712000D01*
X98035322Y-79712000D01*
X97998000Y-79708324D01*
X97960678Y-79712000D01*
X96472000Y-79712000D01*
X96472000Y-78985323D01*
X96475676Y-78948000D01*
X96472000Y-78910677D01*
X96472000Y-78910667D01*
X96461003Y-78799014D01*
X96417546Y-78655753D01*
X96346974Y-78523723D01*
X96275799Y-78436997D01*
X96252001Y-78407999D01*
X96223003Y-78384201D01*
X94543804Y-76705003D01*
X94520001Y-76675999D01*
X94404276Y-76581026D01*
X94272247Y-76510454D01*
X94128986Y-76466997D01*
X94017333Y-76456000D01*
X94017322Y-76456000D01*
X93980000Y-76452324D01*
X93942678Y-76456000D01*
X89349711Y-76456000D01*
X89305774Y-76412063D01*
X89136256Y-76298795D01*
X88947898Y-76220774D01*
X88747939Y-76181000D01*
X88685802Y-76181000D01*
X87200804Y-74696003D01*
X87177001Y-74666999D01*
X87061276Y-74572026D01*
X86929247Y-74501454D01*
X86785986Y-74457997D01*
X86674333Y-74447000D01*
X86674322Y-74447000D01*
X86637000Y-74443324D01*
X86599678Y-74447000D01*
X84224508Y-74447000D01*
X84174940Y-74406321D01*
X84039125Y-74333726D01*
X83891757Y-74289023D01*
X83738500Y-74273928D01*
X83393500Y-74273928D01*
X83240243Y-74289023D01*
X83092875Y-74333726D01*
X82957060Y-74406321D01*
X82838017Y-74504017D01*
X82740321Y-74623060D01*
X82725303Y-74651157D01*
X82705999Y-74666999D01*
X82682201Y-74695997D01*
X80515003Y-76863196D01*
X80485999Y-76886999D01*
X80453144Y-76927034D01*
X80417060Y-76946321D01*
X80367492Y-76987000D01*
X78156533Y-76987000D01*
X78078940Y-76923321D01*
X77943125Y-76850726D01*
X77795757Y-76806023D01*
X77642500Y-76790928D01*
X77297500Y-76790928D01*
X77144243Y-76806023D01*
X76996875Y-76850726D01*
X76861060Y-76923321D01*
X76742017Y-77021017D01*
X76644321Y-77140060D01*
X76571726Y-77275875D01*
X76527023Y-77423243D01*
X76511928Y-77576500D01*
X76511928Y-77871500D01*
X76521658Y-77970282D01*
X76461753Y-77988454D01*
X76329724Y-78059026D01*
X76213999Y-78153999D01*
X76190201Y-78182998D01*
X75435002Y-78938197D01*
X75405999Y-78961999D01*
X75367225Y-79009246D01*
X75311026Y-79077724D01*
X75247658Y-79196276D01*
X75240454Y-79209754D01*
X75196997Y-79353015D01*
X75186000Y-79464668D01*
X75186000Y-79464678D01*
X75182324Y-79502000D01*
X75186000Y-79539323D01*
X75186001Y-80988667D01*
X75186000Y-81790000D01*
X74420000Y-81790000D01*
X74420000Y-76768801D01*
X77276802Y-73912000D01*
X109306199Y-73912000D01*
X112249928Y-76855730D01*
G37*
%TD.AperFunction*%
D29*
X80417060Y-79517679D02*
X80552875Y-79590274D01*
X80700243Y-79634977D01*
X80853500Y-79650072D01*
X81198500Y-79650072D01*
X81351757Y-79634977D01*
X81499125Y-79590274D01*
X81541059Y-79567860D01*
X81790001Y-79816802D01*
X81790000Y-80576449D01*
X81713424Y-80461845D01*
X81590155Y-80338576D01*
X81445205Y-80241723D01*
X81284145Y-80175010D01*
X81113165Y-80141000D01*
X80938835Y-80141000D01*
X80767855Y-80175010D01*
X80606795Y-80241723D01*
X80461845Y-80338576D01*
X80338576Y-80461845D01*
X80241723Y-80606795D01*
X80175010Y-80767855D01*
X80141000Y-80938835D01*
X80141000Y-81113165D01*
X80175010Y-81284145D01*
X80241723Y-81445205D01*
X80338576Y-81590155D01*
X80461845Y-81713424D01*
X80606795Y-81810277D01*
X80767855Y-81876990D01*
X80914211Y-81906102D01*
X80870506Y-81929463D01*
X80773815Y-82008815D01*
X80694463Y-82105506D01*
X80635498Y-82215820D01*
X80600862Y-82330000D01*
X79848802Y-82330000D01*
X79557803Y-82039002D01*
X79534001Y-82009999D01*
X79418276Y-81915026D01*
X79286247Y-81844454D01*
X79142986Y-81800997D01*
X79031333Y-81790000D01*
X79031322Y-81790000D01*
X78994000Y-81786324D01*
X78956678Y-81790000D01*
X76706000Y-81790000D01*
X76706000Y-79816801D01*
X76969930Y-79552872D01*
X76996875Y-79567274D01*
X77144243Y-79611977D01*
X77297500Y-79627072D01*
X77642500Y-79627072D01*
X77795757Y-79611977D01*
X77943125Y-79567274D01*
X78078940Y-79494679D01*
X78100482Y-79477000D01*
X80367492Y-79477000D01*
X80417060Y-79517679D01*
%TA.AperFunction,NonConductor*%
D30*
G36*
X80417060Y-79517679D02*
G01*
X80552875Y-79590274D01*
X80700243Y-79634977D01*
X80853500Y-79650072D01*
X81198500Y-79650072D01*
X81351757Y-79634977D01*
X81499125Y-79590274D01*
X81541059Y-79567860D01*
X81790001Y-79816802D01*
X81790000Y-80576449D01*
X81713424Y-80461845D01*
X81590155Y-80338576D01*
X81445205Y-80241723D01*
X81284145Y-80175010D01*
X81113165Y-80141000D01*
X80938835Y-80141000D01*
X80767855Y-80175010D01*
X80606795Y-80241723D01*
X80461845Y-80338576D01*
X80338576Y-80461845D01*
X80241723Y-80606795D01*
X80175010Y-80767855D01*
X80141000Y-80938835D01*
X80141000Y-81113165D01*
X80175010Y-81284145D01*
X80241723Y-81445205D01*
X80338576Y-81590155D01*
X80461845Y-81713424D01*
X80606795Y-81810277D01*
X80767855Y-81876990D01*
X80914211Y-81906102D01*
X80870506Y-81929463D01*
X80773815Y-82008815D01*
X80694463Y-82105506D01*
X80635498Y-82215820D01*
X80600862Y-82330000D01*
X79848802Y-82330000D01*
X79557803Y-82039002D01*
X79534001Y-82009999D01*
X79418276Y-81915026D01*
X79286247Y-81844454D01*
X79142986Y-81800997D01*
X79031333Y-81790000D01*
X79031322Y-81790000D01*
X78994000Y-81786324D01*
X78956678Y-81790000D01*
X76706000Y-81790000D01*
X76706000Y-79816801D01*
X76969930Y-79552872D01*
X76996875Y-79567274D01*
X77144243Y-79611977D01*
X77297500Y-79627072D01*
X77642500Y-79627072D01*
X77795757Y-79611977D01*
X77943125Y-79567274D01*
X78078940Y-79494679D01*
X78100482Y-79477000D01*
X80367492Y-79477000D01*
X80417060Y-79517679D01*
G37*
%TD.AperFunction*%
D29*
X94952001Y-79262803D02*
X94952000Y-80434667D01*
X94948323Y-80472000D01*
X94952001Y-80509343D01*
X94952000Y-81852084D01*
X94889500Y-81845928D01*
X94693242Y-81845928D01*
X94676986Y-81840997D01*
X94565333Y-81830000D01*
X94565322Y-81830000D01*
X94528000Y-81826324D01*
X94490678Y-81830000D01*
X89525589Y-81830000D01*
X89573205Y-81810277D01*
X89718155Y-81713424D01*
X89841424Y-81590155D01*
X89938277Y-81445205D01*
X90004990Y-81284145D01*
X90039000Y-81113165D01*
X90039000Y-80938835D01*
X90004990Y-80767855D01*
X89938277Y-80606795D01*
X89841424Y-80461845D01*
X89718155Y-80338576D01*
X89573205Y-80241723D01*
X89412145Y-80175010D01*
X89241165Y-80141000D01*
X89066835Y-80141000D01*
X88895855Y-80175010D01*
X88734795Y-80241723D01*
X88589845Y-80338576D01*
X88466576Y-80461845D01*
X88369723Y-80606795D01*
X88350000Y-80654411D01*
X88350000Y-80110801D01*
X89214802Y-79246000D01*
X89720289Y-79246000D01*
X89764226Y-79289937D01*
X89933744Y-79403205D01*
X90122102Y-79481226D01*
X90322061Y-79521000D01*
X90525939Y-79521000D01*
X90725898Y-79481226D01*
X90914256Y-79403205D01*
X91083774Y-79289937D01*
X91227937Y-79145774D01*
X91341205Y-78976256D01*
X91419226Y-78787898D01*
X91459000Y-78587939D01*
X91459000Y-78384061D01*
X91419226Y-78184102D01*
X91341205Y-77995744D01*
X91328013Y-77976000D01*
X93665199Y-77976000D01*
X94952001Y-79262803D01*
%TA.AperFunction,NonConductor*%
D30*
G36*
X94952001Y-79262803D02*
G01*
X94952000Y-80434667D01*
X94948323Y-80472000D01*
X94952001Y-80509343D01*
X94952000Y-81852084D01*
X94889500Y-81845928D01*
X94693242Y-81845928D01*
X94676986Y-81840997D01*
X94565333Y-81830000D01*
X94565322Y-81830000D01*
X94528000Y-81826324D01*
X94490678Y-81830000D01*
X89525589Y-81830000D01*
X89573205Y-81810277D01*
X89718155Y-81713424D01*
X89841424Y-81590155D01*
X89938277Y-81445205D01*
X90004990Y-81284145D01*
X90039000Y-81113165D01*
X90039000Y-80938835D01*
X90004990Y-80767855D01*
X89938277Y-80606795D01*
X89841424Y-80461845D01*
X89718155Y-80338576D01*
X89573205Y-80241723D01*
X89412145Y-80175010D01*
X89241165Y-80141000D01*
X89066835Y-80141000D01*
X88895855Y-80175010D01*
X88734795Y-80241723D01*
X88589845Y-80338576D01*
X88466576Y-80461845D01*
X88369723Y-80606795D01*
X88350000Y-80654411D01*
X88350000Y-80110801D01*
X89214802Y-79246000D01*
X89720289Y-79246000D01*
X89764226Y-79289937D01*
X89933744Y-79403205D01*
X90122102Y-79481226D01*
X90322061Y-79521000D01*
X90525939Y-79521000D01*
X90725898Y-79481226D01*
X90914256Y-79403205D01*
X91083774Y-79289937D01*
X91227937Y-79145774D01*
X91341205Y-78976256D01*
X91419226Y-78787898D01*
X91459000Y-78587939D01*
X91459000Y-78384061D01*
X91419226Y-78184102D01*
X91341205Y-77995744D01*
X91328013Y-77976000D01*
X93665199Y-77976000D01*
X94952001Y-79262803D01*
G37*
%TD.AperFunction*%
D29*
X88369723Y-81445205D02*
X88466576Y-81590155D01*
X88589845Y-81713424D01*
X88734795Y-81810277D01*
X88762923Y-81821928D01*
X88358072Y-81821928D01*
X88358072Y-81417077D01*
X88369723Y-81445205D01*
%TA.AperFunction,NonConductor*%
D30*
G36*
X88369723Y-81445205D02*
G01*
X88466576Y-81590155D01*
X88589845Y-81713424D01*
X88734795Y-81810277D01*
X88762923Y-81821928D01*
X88358072Y-81821928D01*
X88358072Y-81417077D01*
X88369723Y-81445205D01*
G37*
%TD.AperFunction*%
D29*
X81821928Y-81821928D02*
X81417077Y-81821928D01*
X81445205Y-81810277D01*
X81590155Y-81713424D01*
X81713424Y-81590155D01*
X81810277Y-81445205D01*
X81821928Y-81417077D01*
X81821928Y-81821928D01*
%TA.AperFunction,NonConductor*%
D30*
G36*
X81821928Y-81821928D02*
G01*
X81417077Y-81821928D01*
X81445205Y-81810277D01*
X81590155Y-81713424D01*
X81713424Y-81590155D01*
X81810277Y-81445205D01*
X81821928Y-81417077D01*
X81821928Y-81821928D01*
G37*
%TD.AperFunction*%
D29*
X113485086Y-81328000D02*
X113357233Y-81353431D01*
X113293741Y-81289939D01*
X113485086Y-81328000D01*
%TA.AperFunction,NonConductor*%
D30*
G36*
X113485086Y-81328000D02*
G01*
X113357233Y-81353431D01*
X113293741Y-81289939D01*
X113485086Y-81328000D01*
G37*
%TD.AperFunction*%
D29*
X87571198Y-77216000D02*
X86578998Y-78208201D01*
X86550000Y-78231999D01*
X86526202Y-78260997D01*
X86526201Y-78260998D01*
X86455026Y-78347724D01*
X86384454Y-78479754D01*
X86364658Y-78545015D01*
X86340998Y-78623014D01*
X86337644Y-78657072D01*
X86326324Y-78772000D01*
X86330001Y-78809332D01*
X86330000Y-80597762D01*
X86220000Y-80586928D01*
X85960000Y-80586928D01*
X85840000Y-80598747D01*
X85720000Y-80586928D01*
X85460000Y-80586928D01*
X85340000Y-80598747D01*
X85220000Y-80586928D01*
X84960000Y-80586928D01*
X84840000Y-80598747D01*
X84720000Y-80586928D01*
X84460000Y-80586928D01*
X84340000Y-80598747D01*
X84326000Y-80597368D01*
X84326000Y-76840970D01*
X84391679Y-76760940D01*
X84464274Y-76625125D01*
X84508977Y-76477757D01*
X84524072Y-76324500D01*
X84524072Y-76029500D01*
X84517916Y-75967000D01*
X86322199Y-75967000D01*
X87571198Y-77216000D01*
%TA.AperFunction,NonConductor*%
D30*
G36*
X87571198Y-77216000D02*
G01*
X86578998Y-78208201D01*
X86550000Y-78231999D01*
X86526202Y-78260997D01*
X86526201Y-78260998D01*
X86455026Y-78347724D01*
X86384454Y-78479754D01*
X86364658Y-78545015D01*
X86340998Y-78623014D01*
X86337644Y-78657072D01*
X86326324Y-78772000D01*
X86330001Y-78809332D01*
X86330000Y-80597762D01*
X86220000Y-80586928D01*
X85960000Y-80586928D01*
X85840000Y-80598747D01*
X85720000Y-80586928D01*
X85460000Y-80586928D01*
X85340000Y-80598747D01*
X85220000Y-80586928D01*
X84960000Y-80586928D01*
X84840000Y-80598747D01*
X84720000Y-80586928D01*
X84460000Y-80586928D01*
X84340000Y-80598747D01*
X84326000Y-80597368D01*
X84326000Y-76840970D01*
X84391679Y-76760940D01*
X84464274Y-76625125D01*
X84508977Y-76477757D01*
X84524072Y-76324500D01*
X84524072Y-76029500D01*
X84517916Y-75967000D01*
X86322199Y-75967000D01*
X87571198Y-77216000D01*
G37*
%TD.AperFunction*%
D29*
X82806000Y-76840970D02*
X82806000Y-78683199D01*
X82328803Y-78206002D01*
X82305001Y-78176999D01*
X82189276Y-78082026D01*
X82057247Y-78011454D01*
X81975010Y-77986508D01*
X81984072Y-77894500D01*
X81984072Y-77599500D01*
X81979071Y-77548730D01*
X82752284Y-76775517D01*
X82806000Y-76840970D01*
%TA.AperFunction,NonConductor*%
D30*
G36*
X82806000Y-76840970D02*
G01*
X82806000Y-78683199D01*
X82328803Y-78206002D01*
X82305001Y-78176999D01*
X82189276Y-78082026D01*
X82057247Y-78011454D01*
X81975010Y-77986508D01*
X81984072Y-77894500D01*
X81984072Y-77599500D01*
X81979071Y-77548730D01*
X82752284Y-76775517D01*
X82806000Y-76840970D01*
G37*
%TD.AperFunction*%
M02*
