G04 #@! TF.GenerationSoftware,KiCad,Pcbnew,(5.1.6-85-g2d1f6937d)*
G04 #@! TF.CreationDate,2020-10-24T23:23:11-07:00*
G04 #@! TF.ProjectId,3DProUsb,33445072-6f55-4736-922e-6b696361645f,rev?*
G04 #@! TF.SameCoordinates,Original*
G04 #@! TF.FileFunction,Copper,L2,Bot*
G04 #@! TF.FilePolarity,Positive*
%FSLAX46Y46*%
G04 Gerber Fmt 4.6, Leading zero omitted, Abs format (unit mm)*
G04 Created by KiCad (PCBNEW (5.1.6-85-g2d1f6937d)) date 2020-10-24 23:23:11*
%MOMM*%
%LPD*%
G01*
G04 APERTURE LIST*
G04 #@! TA.AperFunction,ComponentPad*
%ADD10O,1.800000X0.900000*%
G04 #@! TD*
G04 #@! TA.AperFunction,ComponentPad*
%ADD11C,6.400000*%
G04 #@! TD*
G04 #@! TA.AperFunction,ComponentPad*
%ADD12R,1.508000X1.508000*%
G04 #@! TD*
G04 #@! TA.AperFunction,ComponentPad*
%ADD13C,1.508000*%
G04 #@! TD*
G04 #@! TA.AperFunction,ComponentPad*
%ADD14C,4.066000*%
G04 #@! TD*
G04 #@! TA.AperFunction,ViaPad*
%ADD15C,0.800000*%
G04 #@! TD*
G04 #@! TA.AperFunction,Conductor*
%ADD16C,0.250000*%
G04 #@! TD*
G04 #@! TA.AperFunction,Conductor*
%ADD17C,0.254000*%
G04 #@! TD*
G04 #@! TA.AperFunction,Conductor*
%ADD18C,0.100000*%
G04 #@! TD*
G04 APERTURE END LIST*
D10*
G04 #@! TO.P,J1,S5*
G04 #@! TO.N,Net-(J1-PadS5)*
X67056000Y-82298000D03*
G04 #@! TO.P,J1,S6*
G04 #@! TO.N,Net-(J1-PadS6)*
X67056000Y-88898000D03*
G04 #@! TD*
D11*
G04 #@! TO.P,REF\u002A\u002A,1*
G04 #@! TO.N,N/C*
X70104000Y-102108000D03*
G04 #@! TD*
G04 #@! TO.P,REF\u002A\u002A,1*
G04 #@! TO.N,N/C*
X70104000Y-71628000D03*
G04 #@! TD*
D12*
G04 #@! TO.P,J3,1*
G04 #@! TO.N,VCC*
X96370000Y-77173000D03*
D13*
G04 #@! TO.P,J3,2*
G04 #@! TO.N,PB0_PD0*
X96370000Y-79943000D03*
G04 #@! TO.P,J3,9*
G04 #@! TO.N,Net-(J3-Pad9)*
X99210000Y-78558000D03*
D14*
G04 #@! TO.P,J3,S1*
G04 #@! TO.N,N/C*
X97810000Y-103518000D03*
G04 #@! TO.P,J3,S2*
X97810000Y-70218000D03*
D13*
G04 #@! TO.P,J3,3*
G04 #@! TO.N,Net-(J3-Pad3)*
X96370000Y-82713000D03*
G04 #@! TO.P,J3,4*
G04 #@! TO.N,Earth*
X96370000Y-85483000D03*
G04 #@! TO.P,J3,5*
G04 #@! TO.N,Net-(J3-Pad5)*
X96370000Y-88253000D03*
G04 #@! TO.P,J3,6*
G04 #@! TO.N,Net-(J3-Pad6)*
X96370000Y-91023000D03*
G04 #@! TO.P,J3,7*
G04 #@! TO.N,SCLK*
X96370000Y-93793000D03*
G04 #@! TO.P,J3,8*
G04 #@! TO.N,Net-(J3-Pad8)*
X96370000Y-96563000D03*
G04 #@! TO.P,J3,10*
G04 #@! TO.N,MOSI*
X99210000Y-81328000D03*
G04 #@! TO.P,J3,11*
G04 #@! TO.N,Net-(J3-Pad11)*
X99210000Y-84098000D03*
G04 #@! TO.P,J3,12*
G04 #@! TO.N,Net-(J3-Pad12)*
X99210000Y-86868000D03*
G04 #@! TO.P,J3,13*
G04 #@! TO.N,Net-(J3-Pad11)*
X99210000Y-89638000D03*
G04 #@! TO.P,J3,14*
G04 #@! TO.N,MISO*
X99210000Y-92408000D03*
G04 #@! TO.P,J3,15*
G04 #@! TO.N,Net-(J3-Pad15)*
X99210000Y-95178000D03*
G04 #@! TD*
D15*
G04 #@! TO.N,Earth*
X66802000Y-98806000D03*
X71120000Y-88646000D03*
X77089000Y-93599000D03*
X78994000Y-81280000D03*
X79060000Y-93030000D03*
X89408000Y-85852000D03*
X88900000Y-88392000D03*
X91948000Y-92710000D03*
X89408000Y-82804000D03*
X80518000Y-102616000D03*
X85344000Y-95250000D03*
G04 #@! TO.N,VCC*
X78232000Y-91694000D03*
X70104000Y-92456000D03*
X72390000Y-88392000D03*
X73914000Y-83566000D03*
X84106000Y-88614000D03*
X85090000Y-82804000D03*
G04 #@! TO.N,MISO*
X73660000Y-90424000D03*
X67310000Y-90678000D03*
X71374000Y-98298000D03*
X76962000Y-98044000D03*
G04 #@! TO.N,SCLK*
X69088000Y-90678000D03*
X68072000Y-96266000D03*
X74930000Y-98806000D03*
X72644000Y-98806000D03*
G04 #@! TO.N,MOSI*
X72136000Y-92456000D03*
X78232000Y-94742000D03*
X88138000Y-97282000D03*
X88138000Y-99568000D03*
G04 #@! TO.N,PB0_PD0*
X73914000Y-88138000D03*
X80772000Y-91186000D03*
X84836000Y-89662000D03*
X93726000Y-87376000D03*
X93726000Y-84074000D03*
G04 #@! TD*
D16*
G04 #@! TO.N,Earth*
X79248000Y-94488000D02*
X79248000Y-94996000D01*
X88900000Y-86360000D02*
X89408000Y-85852000D01*
X88900000Y-88392000D02*
X88900000Y-86360000D01*
X84836000Y-81280000D02*
X78994000Y-81280000D01*
X89408000Y-85852000D02*
X84836000Y-81280000D01*
X90678000Y-91694000D02*
X90932000Y-91948000D01*
G04 #@! TO.N,VCC*
X70866000Y-91694000D02*
X70104000Y-92456000D01*
X70104000Y-92456000D02*
X70104000Y-92456000D01*
X74930000Y-90620998D02*
X74930000Y-91694000D01*
X73172003Y-88863001D02*
X74930000Y-90620998D01*
X72861001Y-88863001D02*
X73172003Y-88863001D01*
X72390000Y-88392000D02*
X72861001Y-88863001D01*
X74930000Y-91694000D02*
X78232000Y-91694000D01*
X70866000Y-91694000D02*
X74930000Y-91694000D01*
X84106000Y-88614000D02*
X84106000Y-83788000D01*
X84106000Y-83788000D02*
X85090000Y-82804000D01*
X85090000Y-82804000D02*
X85090000Y-82804000D01*
X77470000Y-86614000D02*
X77470000Y-84328000D01*
X77470000Y-84328000D02*
X76708000Y-83566000D01*
X73914000Y-83566000D02*
X76708000Y-83566000D01*
X74168000Y-86614000D02*
X72390000Y-88392000D01*
X77470000Y-86614000D02*
X74168000Y-86614000D01*
G04 #@! TO.N,MISO*
X67310000Y-90678000D02*
X67310000Y-90678000D01*
X68035001Y-89952999D02*
X73188999Y-89952999D01*
X73188999Y-89952999D02*
X73660000Y-90424000D01*
X67310000Y-90678000D02*
X68035001Y-89952999D01*
X71773999Y-97898001D02*
X76816001Y-97898001D01*
X71374000Y-98298000D02*
X71773999Y-97898001D01*
X76816001Y-97898001D02*
X76962000Y-98044000D01*
X76962000Y-98044000D02*
X76962000Y-98044000D01*
G04 #@! TO.N,SCLK*
X74930000Y-98806000D02*
X72644000Y-98806000D01*
X72644000Y-98806000D02*
X72644000Y-98806000D01*
X68113499Y-96224501D02*
X68072000Y-96266000D01*
X67818000Y-96012000D02*
X68072000Y-96266000D01*
X67818000Y-91948000D02*
X67818000Y-96012000D01*
X69088000Y-90678000D02*
X67818000Y-91948000D01*
G04 #@! TO.N,MOSI*
X77019002Y-92456000D02*
X78232000Y-93668998D01*
X72136000Y-92456000D02*
X77019002Y-92456000D01*
X78232000Y-93668998D02*
X78232000Y-94742000D01*
X78232000Y-94742000D02*
X78232000Y-94742000D01*
X88138000Y-97282000D02*
X88138000Y-99568000D01*
X88138000Y-99568000D02*
X88138000Y-99568000D01*
G04 #@! TO.N,PB0_PD0*
X73914000Y-88138000D02*
X76454000Y-90678000D01*
X80264000Y-90678000D02*
X80772000Y-91186000D01*
X76454000Y-90678000D02*
X80264000Y-90678000D01*
X80772000Y-91186000D02*
X83312000Y-91186000D01*
X83312000Y-91186000D02*
X84836000Y-89662000D01*
X84836000Y-89662000D02*
X84836000Y-89662000D01*
X93726000Y-87376000D02*
X93726000Y-84074000D01*
X93726000Y-84074000D02*
X93726000Y-84074000D01*
G04 #@! TD*
D17*
G04 #@! TO.N,Earth*
X96546228Y-67853649D02*
X96109249Y-68145629D01*
X95737629Y-68517249D01*
X95445649Y-68954228D01*
X95244530Y-69439773D01*
X95142000Y-69955225D01*
X95142000Y-70480775D01*
X95244530Y-70996227D01*
X95445649Y-71481772D01*
X95737629Y-71918751D01*
X96109249Y-72290371D01*
X96546228Y-72582351D01*
X97031773Y-72783470D01*
X97547225Y-72886000D01*
X98072775Y-72886000D01*
X98588227Y-72783470D01*
X99073772Y-72582351D01*
X99510751Y-72290371D01*
X99882371Y-71918751D01*
X100174351Y-71481772D01*
X100375470Y-70996227D01*
X100478000Y-70480775D01*
X100478000Y-69955225D01*
X100375470Y-69439773D01*
X100174351Y-68954228D01*
X99882371Y-68517249D01*
X99510751Y-68145629D01*
X99073772Y-67853649D01*
X98741457Y-67716000D01*
X105631721Y-67716000D01*
X105880540Y-67740397D01*
X106088833Y-67803285D01*
X106280937Y-67905428D01*
X106449553Y-68042947D01*
X106588241Y-68210593D01*
X106691726Y-68401985D01*
X106756066Y-68609835D01*
X106782000Y-68856581D01*
X106782001Y-104869711D01*
X106757603Y-105118540D01*
X106694717Y-105326830D01*
X106592572Y-105518938D01*
X106455052Y-105687554D01*
X106287409Y-105826240D01*
X106096017Y-105929725D01*
X105888166Y-105994066D01*
X105641419Y-106020000D01*
X98741457Y-106020000D01*
X99073772Y-105882351D01*
X99510751Y-105590371D01*
X99882371Y-105218751D01*
X100174351Y-104781772D01*
X100375470Y-104296227D01*
X100478000Y-103780775D01*
X100478000Y-103255225D01*
X100375470Y-102739773D01*
X100174351Y-102254228D01*
X99882371Y-101817249D01*
X99510751Y-101445629D01*
X99073772Y-101153649D01*
X98588227Y-100952530D01*
X98072775Y-100850000D01*
X97547225Y-100850000D01*
X97031773Y-100952530D01*
X96546228Y-101153649D01*
X96109249Y-101445629D01*
X95737629Y-101817249D01*
X95445649Y-102254228D01*
X95244530Y-102739773D01*
X95142000Y-103255225D01*
X95142000Y-103780775D01*
X95244530Y-104296227D01*
X95445649Y-104781772D01*
X95737629Y-105218751D01*
X96109249Y-105590371D01*
X96546228Y-105882351D01*
X96878543Y-106020000D01*
X67342279Y-106020000D01*
X67093460Y-105995603D01*
X66885170Y-105932717D01*
X66693062Y-105830572D01*
X66524446Y-105693052D01*
X66385760Y-105525409D01*
X66282275Y-105334017D01*
X66217934Y-105126166D01*
X66192000Y-104879419D01*
X66192000Y-101730285D01*
X66269000Y-101730285D01*
X66269000Y-102485715D01*
X66416377Y-103226628D01*
X66705467Y-103924554D01*
X67125161Y-104552670D01*
X67659330Y-105086839D01*
X68287446Y-105506533D01*
X68985372Y-105795623D01*
X69726285Y-105943000D01*
X70481715Y-105943000D01*
X71222628Y-105795623D01*
X71920554Y-105506533D01*
X72548670Y-105086839D01*
X73082839Y-104552670D01*
X73502533Y-103924554D01*
X73791623Y-103226628D01*
X73939000Y-102485715D01*
X73939000Y-101730285D01*
X73791623Y-100989372D01*
X73502533Y-100291446D01*
X73125320Y-99726907D01*
X73134256Y-99723205D01*
X73303774Y-99609937D01*
X73347711Y-99566000D01*
X74226289Y-99566000D01*
X74270226Y-99609937D01*
X74439744Y-99723205D01*
X74628102Y-99801226D01*
X74828061Y-99841000D01*
X75031939Y-99841000D01*
X75231898Y-99801226D01*
X75420256Y-99723205D01*
X75589774Y-99609937D01*
X75733937Y-99465774D01*
X75847205Y-99296256D01*
X75925226Y-99107898D01*
X75965000Y-98907939D01*
X75965000Y-98704061D01*
X75955838Y-98658001D01*
X76127479Y-98658001D01*
X76158063Y-98703774D01*
X76302226Y-98847937D01*
X76471744Y-98961205D01*
X76660102Y-99039226D01*
X76860061Y-99079000D01*
X77063939Y-99079000D01*
X77263898Y-99039226D01*
X77452256Y-98961205D01*
X77621774Y-98847937D01*
X77765937Y-98703774D01*
X77879205Y-98534256D01*
X77957226Y-98345898D01*
X77997000Y-98145939D01*
X77997000Y-97942061D01*
X77957226Y-97742102D01*
X77879205Y-97553744D01*
X77765937Y-97384226D01*
X77621774Y-97240063D01*
X77531975Y-97180061D01*
X87103000Y-97180061D01*
X87103000Y-97383939D01*
X87142774Y-97583898D01*
X87220795Y-97772256D01*
X87334063Y-97941774D01*
X87378000Y-97985711D01*
X87378001Y-98864288D01*
X87334063Y-98908226D01*
X87220795Y-99077744D01*
X87142774Y-99266102D01*
X87103000Y-99466061D01*
X87103000Y-99669939D01*
X87142774Y-99869898D01*
X87220795Y-100058256D01*
X87334063Y-100227774D01*
X87478226Y-100371937D01*
X87647744Y-100485205D01*
X87836102Y-100563226D01*
X88036061Y-100603000D01*
X88239939Y-100603000D01*
X88439898Y-100563226D01*
X88628256Y-100485205D01*
X88797774Y-100371937D01*
X88941937Y-100227774D01*
X89055205Y-100058256D01*
X89133226Y-99869898D01*
X89173000Y-99669939D01*
X89173000Y-99466061D01*
X89133226Y-99266102D01*
X89055205Y-99077744D01*
X88941937Y-98908226D01*
X88898000Y-98864289D01*
X88898000Y-97985711D01*
X88941937Y-97941774D01*
X89055205Y-97772256D01*
X89133226Y-97583898D01*
X89173000Y-97383939D01*
X89173000Y-97180061D01*
X89133226Y-96980102D01*
X89055205Y-96791744D01*
X88941937Y-96622226D01*
X88797774Y-96478063D01*
X88628256Y-96364795D01*
X88439898Y-96286774D01*
X88239939Y-96247000D01*
X88036061Y-96247000D01*
X87836102Y-96286774D01*
X87647744Y-96364795D01*
X87478226Y-96478063D01*
X87334063Y-96622226D01*
X87220795Y-96791744D01*
X87142774Y-96980102D01*
X87103000Y-97180061D01*
X77531975Y-97180061D01*
X77452256Y-97126795D01*
X77263898Y-97048774D01*
X77063939Y-97009000D01*
X76860061Y-97009000D01*
X76660102Y-97048774D01*
X76471744Y-97126795D01*
X76454973Y-97138001D01*
X71811321Y-97138001D01*
X71773998Y-97134325D01*
X71736676Y-97138001D01*
X71736666Y-97138001D01*
X71625013Y-97148998D01*
X71481752Y-97192455D01*
X71349774Y-97263000D01*
X71272061Y-97263000D01*
X71072102Y-97302774D01*
X70883744Y-97380795D01*
X70714226Y-97494063D01*
X70570063Y-97638226D01*
X70456795Y-97807744D01*
X70378774Y-97996102D01*
X70339000Y-98196061D01*
X70339000Y-98273000D01*
X69726285Y-98273000D01*
X68985372Y-98420377D01*
X68287446Y-98709467D01*
X67659330Y-99129161D01*
X67125161Y-99663330D01*
X66705467Y-100291446D01*
X66416377Y-100989372D01*
X66269000Y-101730285D01*
X66192000Y-101730285D01*
X66192000Y-89906236D01*
X66393303Y-89967300D01*
X66542313Y-89981976D01*
X66506063Y-90018226D01*
X66392795Y-90187744D01*
X66314774Y-90376102D01*
X66275000Y-90576061D01*
X66275000Y-90779939D01*
X66314774Y-90979898D01*
X66392795Y-91168256D01*
X66506063Y-91337774D01*
X66650226Y-91481937D01*
X66819744Y-91595205D01*
X67008102Y-91673226D01*
X67101518Y-91691807D01*
X67068997Y-91799015D01*
X67058000Y-91910668D01*
X67058000Y-91910678D01*
X67054324Y-91948000D01*
X67058000Y-91985323D01*
X67058001Y-95974668D01*
X67054324Y-96012000D01*
X67058604Y-96055451D01*
X67037000Y-96164061D01*
X67037000Y-96367939D01*
X67076774Y-96567898D01*
X67154795Y-96756256D01*
X67268063Y-96925774D01*
X67412226Y-97069937D01*
X67581744Y-97183205D01*
X67770102Y-97261226D01*
X67970061Y-97301000D01*
X68173939Y-97301000D01*
X68373898Y-97261226D01*
X68562256Y-97183205D01*
X68731774Y-97069937D01*
X68875937Y-96925774D01*
X68989205Y-96756256D01*
X69067226Y-96567898D01*
X69107000Y-96367939D01*
X69107000Y-96164061D01*
X69102015Y-96139000D01*
X72978652Y-96139000D01*
X73035883Y-96224652D01*
X73193348Y-96382117D01*
X73378507Y-96505836D01*
X73584245Y-96591056D01*
X73802655Y-96634500D01*
X74025345Y-96634500D01*
X74243755Y-96591056D01*
X74449493Y-96505836D01*
X74634652Y-96382117D01*
X74792117Y-96224652D01*
X74915836Y-96039493D01*
X75001056Y-95833755D01*
X75044500Y-95615345D01*
X75044500Y-95392655D01*
X75001056Y-95174245D01*
X74915836Y-94968507D01*
X74792117Y-94783348D01*
X74634652Y-94625883D01*
X74449493Y-94502164D01*
X74415298Y-94488000D01*
X74449493Y-94473836D01*
X74634652Y-94350117D01*
X74792117Y-94192652D01*
X74915836Y-94007493D01*
X75001056Y-93801755D01*
X75044500Y-93583345D01*
X75044500Y-93360655D01*
X75015727Y-93216000D01*
X76704201Y-93216000D01*
X77472000Y-93983800D01*
X77472000Y-94038289D01*
X77428063Y-94082226D01*
X77314795Y-94251744D01*
X77236774Y-94440102D01*
X77197000Y-94640061D01*
X77197000Y-94843939D01*
X77236774Y-95043898D01*
X77314795Y-95232256D01*
X77428063Y-95401774D01*
X77572226Y-95545937D01*
X77741744Y-95659205D01*
X77930102Y-95737226D01*
X78130061Y-95777000D01*
X78333939Y-95777000D01*
X78533898Y-95737226D01*
X78722256Y-95659205D01*
X78891774Y-95545937D01*
X79035937Y-95401774D01*
X79149205Y-95232256D01*
X79227226Y-95043898D01*
X79243550Y-94961831D01*
X79243550Y-96012000D01*
X79245990Y-96036776D01*
X79253217Y-96060601D01*
X79264953Y-96082557D01*
X79280747Y-96101803D01*
X79299993Y-96117597D01*
X79321949Y-96129333D01*
X79345774Y-96136560D01*
X79370550Y-96139000D01*
X84196550Y-96139000D01*
X84221326Y-96136560D01*
X84245151Y-96129333D01*
X84267107Y-96117597D01*
X84286353Y-96101803D01*
X84302147Y-96082557D01*
X84313883Y-96060601D01*
X84321110Y-96036776D01*
X84323550Y-96012000D01*
X84323550Y-91948000D01*
X84321110Y-91923224D01*
X84313883Y-91899399D01*
X84302147Y-91877443D01*
X84286353Y-91858197D01*
X84267107Y-91842403D01*
X84245151Y-91830667D01*
X84221326Y-91823440D01*
X84196550Y-91821000D01*
X83736227Y-91821000D01*
X83736276Y-91820974D01*
X83852001Y-91726001D01*
X83875803Y-91696998D01*
X84875802Y-90697000D01*
X84937939Y-90697000D01*
X85137898Y-90657226D01*
X85326256Y-90579205D01*
X85495774Y-90465937D01*
X85639937Y-90321774D01*
X85753205Y-90152256D01*
X85831226Y-89963898D01*
X85871000Y-89763939D01*
X85871000Y-89560061D01*
X85831226Y-89360102D01*
X85753205Y-89171744D01*
X85639937Y-89002226D01*
X85495774Y-88858063D01*
X85326256Y-88744795D01*
X85141000Y-88668059D01*
X85141000Y-88512061D01*
X85101226Y-88312102D01*
X85023205Y-88123744D01*
X84909937Y-87954226D01*
X84866000Y-87910289D01*
X84866000Y-84102801D01*
X84996740Y-83972061D01*
X92691000Y-83972061D01*
X92691000Y-84175939D01*
X92730774Y-84375898D01*
X92808795Y-84564256D01*
X92922063Y-84733774D01*
X92966001Y-84777712D01*
X92966000Y-86672289D01*
X92922063Y-86716226D01*
X92808795Y-86885744D01*
X92730774Y-87074102D01*
X92691000Y-87274061D01*
X92691000Y-87477939D01*
X92730774Y-87677898D01*
X92808795Y-87866256D01*
X92922063Y-88035774D01*
X93066226Y-88179937D01*
X93235744Y-88293205D01*
X93424102Y-88371226D01*
X93624061Y-88411000D01*
X93827939Y-88411000D01*
X94027898Y-88371226D01*
X94216256Y-88293205D01*
X94385774Y-88179937D01*
X94449516Y-88116195D01*
X94981000Y-88116195D01*
X94981000Y-88389805D01*
X95034378Y-88658156D01*
X95139084Y-88910938D01*
X95291093Y-89138436D01*
X95484564Y-89331907D01*
X95712062Y-89483916D01*
X95964844Y-89588622D01*
X96213086Y-89638000D01*
X95964844Y-89687378D01*
X95712062Y-89792084D01*
X95484564Y-89944093D01*
X95291093Y-90137564D01*
X95139084Y-90365062D01*
X95034378Y-90617844D01*
X94981000Y-90886195D01*
X94981000Y-91159805D01*
X95034378Y-91428156D01*
X95139084Y-91680938D01*
X95291093Y-91908436D01*
X95484564Y-92101907D01*
X95712062Y-92253916D01*
X95964844Y-92358622D01*
X96213086Y-92408000D01*
X95964844Y-92457378D01*
X95712062Y-92562084D01*
X95484564Y-92714093D01*
X95291093Y-92907564D01*
X95139084Y-93135062D01*
X95034378Y-93387844D01*
X94981000Y-93656195D01*
X94981000Y-93929805D01*
X95034378Y-94198156D01*
X95139084Y-94450938D01*
X95291093Y-94678436D01*
X95484564Y-94871907D01*
X95712062Y-95023916D01*
X95964844Y-95128622D01*
X96213086Y-95178000D01*
X95964844Y-95227378D01*
X95712062Y-95332084D01*
X95484564Y-95484093D01*
X95291093Y-95677564D01*
X95139084Y-95905062D01*
X95034378Y-96157844D01*
X94981000Y-96426195D01*
X94981000Y-96699805D01*
X95034378Y-96968156D01*
X95139084Y-97220938D01*
X95291093Y-97448436D01*
X95484564Y-97641907D01*
X95712062Y-97793916D01*
X95964844Y-97898622D01*
X96233195Y-97952000D01*
X96506805Y-97952000D01*
X96775156Y-97898622D01*
X97027938Y-97793916D01*
X97255436Y-97641907D01*
X97448907Y-97448436D01*
X97600916Y-97220938D01*
X97705622Y-96968156D01*
X97759000Y-96699805D01*
X97759000Y-96426195D01*
X97705622Y-96157844D01*
X97600916Y-95905062D01*
X97448907Y-95677564D01*
X97255436Y-95484093D01*
X97027938Y-95332084D01*
X96775156Y-95227378D01*
X96526914Y-95178000D01*
X96775156Y-95128622D01*
X97027938Y-95023916D01*
X97255436Y-94871907D01*
X97448907Y-94678436D01*
X97600916Y-94450938D01*
X97705622Y-94198156D01*
X97759000Y-93929805D01*
X97759000Y-93656195D01*
X97705622Y-93387844D01*
X97600916Y-93135062D01*
X97448907Y-92907564D01*
X97255436Y-92714093D01*
X97027938Y-92562084D01*
X96775156Y-92457378D01*
X96526914Y-92408000D01*
X96775156Y-92358622D01*
X97027938Y-92253916D01*
X97255436Y-92101907D01*
X97448907Y-91908436D01*
X97600916Y-91680938D01*
X97705622Y-91428156D01*
X97759000Y-91159805D01*
X97759000Y-90886195D01*
X97705622Y-90617844D01*
X97600916Y-90365062D01*
X97448907Y-90137564D01*
X97255436Y-89944093D01*
X97027938Y-89792084D01*
X96775156Y-89687378D01*
X96526914Y-89638000D01*
X96775156Y-89588622D01*
X97027938Y-89483916D01*
X97255436Y-89331907D01*
X97448907Y-89138436D01*
X97600916Y-88910938D01*
X97705622Y-88658156D01*
X97759000Y-88389805D01*
X97759000Y-88116195D01*
X97705622Y-87847844D01*
X97600916Y-87595062D01*
X97448907Y-87367564D01*
X97255436Y-87174093D01*
X97027938Y-87022084D01*
X96775156Y-86917378D01*
X96515659Y-86865761D01*
X96712870Y-86835951D01*
X96970229Y-86743063D01*
X97084235Y-86682127D01*
X97150246Y-86442851D01*
X96370000Y-85662605D01*
X95589754Y-86442851D01*
X95655765Y-86682127D01*
X95903426Y-86798426D01*
X96169018Y-86864174D01*
X96220355Y-86866554D01*
X95964844Y-86917378D01*
X95712062Y-87022084D01*
X95484564Y-87174093D01*
X95291093Y-87367564D01*
X95139084Y-87595062D01*
X95034378Y-87847844D01*
X94981000Y-88116195D01*
X94449516Y-88116195D01*
X94529937Y-88035774D01*
X94643205Y-87866256D01*
X94721226Y-87677898D01*
X94761000Y-87477939D01*
X94761000Y-87274061D01*
X94721226Y-87074102D01*
X94643205Y-86885744D01*
X94529937Y-86716226D01*
X94486000Y-86672289D01*
X94486000Y-85555334D01*
X94976155Y-85555334D01*
X95017049Y-85825870D01*
X95109937Y-86083229D01*
X95170873Y-86197235D01*
X95410149Y-86263246D01*
X96190395Y-85483000D01*
X96549605Y-85483000D01*
X97329851Y-86263246D01*
X97569127Y-86197235D01*
X97685426Y-85949574D01*
X97751174Y-85683982D01*
X97763845Y-85410666D01*
X97722951Y-85140130D01*
X97630063Y-84882771D01*
X97569127Y-84768765D01*
X97329851Y-84702754D01*
X96549605Y-85483000D01*
X96190395Y-85483000D01*
X95410149Y-84702754D01*
X95170873Y-84768765D01*
X95054574Y-85016426D01*
X94988826Y-85282018D01*
X94976155Y-85555334D01*
X94486000Y-85555334D01*
X94486000Y-84777711D01*
X94529937Y-84733774D01*
X94643205Y-84564256D01*
X94721226Y-84375898D01*
X94761000Y-84175939D01*
X94761000Y-83972061D01*
X94721226Y-83772102D01*
X94643205Y-83583744D01*
X94529937Y-83414226D01*
X94385774Y-83270063D01*
X94216256Y-83156795D01*
X94027898Y-83078774D01*
X93827939Y-83039000D01*
X93624061Y-83039000D01*
X93424102Y-83078774D01*
X93235744Y-83156795D01*
X93066226Y-83270063D01*
X92922063Y-83414226D01*
X92808795Y-83583744D01*
X92730774Y-83772102D01*
X92691000Y-83972061D01*
X84996740Y-83972061D01*
X85129801Y-83839000D01*
X85191939Y-83839000D01*
X85391898Y-83799226D01*
X85580256Y-83721205D01*
X85749774Y-83607937D01*
X85893937Y-83463774D01*
X86007205Y-83294256D01*
X86085226Y-83105898D01*
X86125000Y-82905939D01*
X86125000Y-82702061D01*
X86085226Y-82502102D01*
X86007205Y-82313744D01*
X85893937Y-82144226D01*
X85749774Y-82000063D01*
X85580256Y-81886795D01*
X85391898Y-81808774D01*
X85191939Y-81769000D01*
X84988061Y-81769000D01*
X84788102Y-81808774D01*
X84599744Y-81886795D01*
X84430226Y-82000063D01*
X84286063Y-82144226D01*
X84172795Y-82313744D01*
X84094774Y-82502102D01*
X84055000Y-82702061D01*
X84055000Y-82764199D01*
X83594998Y-83224201D01*
X83566000Y-83247999D01*
X83542202Y-83276997D01*
X83542201Y-83276998D01*
X83471026Y-83363724D01*
X83400454Y-83495754D01*
X83379753Y-83564000D01*
X83362022Y-83622454D01*
X83356998Y-83639015D01*
X83342324Y-83788000D01*
X83346001Y-83825332D01*
X83346000Y-87910289D01*
X83302063Y-87954226D01*
X83188795Y-88123744D01*
X83110774Y-88312102D01*
X83071000Y-88512061D01*
X83071000Y-88715939D01*
X83110774Y-88915898D01*
X83188795Y-89104256D01*
X83302063Y-89273774D01*
X83446226Y-89417937D01*
X83615744Y-89531205D01*
X83801000Y-89607941D01*
X83801000Y-89622198D01*
X82997199Y-90426000D01*
X81475711Y-90426000D01*
X81431774Y-90382063D01*
X81262256Y-90268795D01*
X81073898Y-90190774D01*
X80873939Y-90151000D01*
X80814671Y-90151000D01*
X80804001Y-90137999D01*
X80688276Y-90043026D01*
X80556247Y-89972454D01*
X80412986Y-89928997D01*
X80301333Y-89918000D01*
X80301322Y-89918000D01*
X80264000Y-89914324D01*
X80226678Y-89918000D01*
X76768803Y-89918000D01*
X74949000Y-88098199D01*
X74949000Y-88036061D01*
X74909226Y-87836102D01*
X74831205Y-87647744D01*
X74717937Y-87478226D01*
X74613711Y-87374000D01*
X77432667Y-87374000D01*
X77470000Y-87377677D01*
X77507333Y-87374000D01*
X77618986Y-87363003D01*
X77762247Y-87319546D01*
X77894276Y-87248974D01*
X78010001Y-87154001D01*
X78104974Y-87038276D01*
X78175546Y-86906247D01*
X78219003Y-86762986D01*
X78233677Y-86614000D01*
X78230000Y-86576667D01*
X78230000Y-84365325D01*
X78233676Y-84328000D01*
X78230000Y-84290675D01*
X78230000Y-84290667D01*
X78219003Y-84179014D01*
X78175546Y-84035753D01*
X78104974Y-83903724D01*
X78010001Y-83787999D01*
X77981002Y-83764201D01*
X77271803Y-83055002D01*
X77248001Y-83025999D01*
X77132276Y-82931026D01*
X77000247Y-82860454D01*
X76856986Y-82816997D01*
X76745333Y-82806000D01*
X76745322Y-82806000D01*
X76708000Y-82802324D01*
X76670678Y-82806000D01*
X74617711Y-82806000D01*
X74573774Y-82762063D01*
X74404256Y-82648795D01*
X74215898Y-82570774D01*
X74015939Y-82531000D01*
X73812061Y-82531000D01*
X73612102Y-82570774D01*
X73423744Y-82648795D01*
X73254226Y-82762063D01*
X73110063Y-82906226D01*
X72996795Y-83075744D01*
X72918774Y-83264102D01*
X72879000Y-83464061D01*
X72879000Y-83667939D01*
X72918774Y-83867898D01*
X72996795Y-84056256D01*
X73110063Y-84225774D01*
X73254226Y-84369937D01*
X73423744Y-84483205D01*
X73612102Y-84561226D01*
X73812061Y-84601000D01*
X74015939Y-84601000D01*
X74215898Y-84561226D01*
X74404256Y-84483205D01*
X74573774Y-84369937D01*
X74617711Y-84326000D01*
X76393199Y-84326000D01*
X76710001Y-84642803D01*
X76710000Y-85854000D01*
X74205325Y-85854000D01*
X74168000Y-85850324D01*
X74130675Y-85854000D01*
X74130667Y-85854000D01*
X74019014Y-85864997D01*
X73875753Y-85908454D01*
X73743724Y-85979026D01*
X73627999Y-86073999D01*
X73604201Y-86102997D01*
X72350199Y-87357000D01*
X72288061Y-87357000D01*
X72088102Y-87396774D01*
X71899744Y-87474795D01*
X71730226Y-87588063D01*
X71586063Y-87732226D01*
X71472795Y-87901744D01*
X71394774Y-88090102D01*
X71355000Y-88290061D01*
X71355000Y-88493939D01*
X71394774Y-88693898D01*
X71472795Y-88882256D01*
X71586063Y-89051774D01*
X71727288Y-89192999D01*
X68550334Y-89192999D01*
X68575300Y-89110697D01*
X68596249Y-88898000D01*
X68575300Y-88685303D01*
X68513259Y-88480780D01*
X68412509Y-88292290D01*
X68276922Y-88127078D01*
X68111710Y-87991491D01*
X67923220Y-87890741D01*
X67718697Y-87828700D01*
X67559294Y-87813000D01*
X66552706Y-87813000D01*
X66393303Y-87828700D01*
X66192000Y-87889764D01*
X66192000Y-83306236D01*
X66393303Y-83367300D01*
X66552706Y-83383000D01*
X67559294Y-83383000D01*
X67718697Y-83367300D01*
X67923220Y-83305259D01*
X68111710Y-83204509D01*
X68276922Y-83068922D01*
X68412509Y-82903710D01*
X68513259Y-82715220D01*
X68575300Y-82510697D01*
X68596249Y-82298000D01*
X68575300Y-82085303D01*
X68513259Y-81880780D01*
X68412509Y-81692290D01*
X68276922Y-81527078D01*
X68111710Y-81391491D01*
X67923220Y-81290741D01*
X67718697Y-81228700D01*
X67559294Y-81213000D01*
X66552706Y-81213000D01*
X66393303Y-81228700D01*
X66192000Y-81289764D01*
X66192000Y-76419000D01*
X94977928Y-76419000D01*
X94977928Y-77927000D01*
X94990188Y-78051482D01*
X95026498Y-78171180D01*
X95085463Y-78281494D01*
X95164815Y-78378185D01*
X95261506Y-78457537D01*
X95371820Y-78516502D01*
X95491518Y-78552812D01*
X95616000Y-78565072D01*
X96177532Y-78565072D01*
X95964844Y-78607378D01*
X95712062Y-78712084D01*
X95484564Y-78864093D01*
X95291093Y-79057564D01*
X95139084Y-79285062D01*
X95034378Y-79537844D01*
X94981000Y-79806195D01*
X94981000Y-80079805D01*
X95034378Y-80348156D01*
X95139084Y-80600938D01*
X95291093Y-80828436D01*
X95484564Y-81021907D01*
X95712062Y-81173916D01*
X95964844Y-81278622D01*
X96213086Y-81328000D01*
X95964844Y-81377378D01*
X95712062Y-81482084D01*
X95484564Y-81634093D01*
X95291093Y-81827564D01*
X95139084Y-82055062D01*
X95034378Y-82307844D01*
X94981000Y-82576195D01*
X94981000Y-82849805D01*
X95034378Y-83118156D01*
X95139084Y-83370938D01*
X95291093Y-83598436D01*
X95484564Y-83791907D01*
X95712062Y-83943916D01*
X95964844Y-84048622D01*
X96224341Y-84100239D01*
X96027130Y-84130049D01*
X95769771Y-84222937D01*
X95655765Y-84283873D01*
X95589754Y-84523149D01*
X96370000Y-85303395D01*
X97150246Y-84523149D01*
X97084235Y-84283873D01*
X96836574Y-84167574D01*
X96570982Y-84101826D01*
X96519645Y-84099446D01*
X96775156Y-84048622D01*
X97027938Y-83943916D01*
X97255436Y-83791907D01*
X97448907Y-83598436D01*
X97600916Y-83370938D01*
X97705622Y-83118156D01*
X97759000Y-82849805D01*
X97759000Y-82576195D01*
X97705622Y-82307844D01*
X97600916Y-82055062D01*
X97448907Y-81827564D01*
X97255436Y-81634093D01*
X97027938Y-81482084D01*
X96775156Y-81377378D01*
X96526914Y-81328000D01*
X96775156Y-81278622D01*
X97027938Y-81173916D01*
X97255436Y-81021907D01*
X97448907Y-80828436D01*
X97600916Y-80600938D01*
X97705622Y-80348156D01*
X97759000Y-80079805D01*
X97759000Y-79806195D01*
X97705622Y-79537844D01*
X97600916Y-79285062D01*
X97448907Y-79057564D01*
X97255436Y-78864093D01*
X97027938Y-78712084D01*
X96775156Y-78607378D01*
X96562468Y-78565072D01*
X97124000Y-78565072D01*
X97248482Y-78552812D01*
X97368180Y-78516502D01*
X97478494Y-78457537D01*
X97522776Y-78421195D01*
X97821000Y-78421195D01*
X97821000Y-78694805D01*
X97874378Y-78963156D01*
X97979084Y-79215938D01*
X98131093Y-79443436D01*
X98324564Y-79636907D01*
X98552062Y-79788916D01*
X98804844Y-79893622D01*
X99053086Y-79943000D01*
X98804844Y-79992378D01*
X98552062Y-80097084D01*
X98324564Y-80249093D01*
X98131093Y-80442564D01*
X97979084Y-80670062D01*
X97874378Y-80922844D01*
X97821000Y-81191195D01*
X97821000Y-81464805D01*
X97874378Y-81733156D01*
X97979084Y-81985938D01*
X98131093Y-82213436D01*
X98324564Y-82406907D01*
X98552062Y-82558916D01*
X98804844Y-82663622D01*
X99053086Y-82713000D01*
X98804844Y-82762378D01*
X98552062Y-82867084D01*
X98324564Y-83019093D01*
X98131093Y-83212564D01*
X97979084Y-83440062D01*
X97874378Y-83692844D01*
X97821000Y-83961195D01*
X97821000Y-84234805D01*
X97874378Y-84503156D01*
X97979084Y-84755938D01*
X98131093Y-84983436D01*
X98324564Y-85176907D01*
X98552062Y-85328916D01*
X98804844Y-85433622D01*
X99053086Y-85483000D01*
X98804844Y-85532378D01*
X98552062Y-85637084D01*
X98324564Y-85789093D01*
X98131093Y-85982564D01*
X97979084Y-86210062D01*
X97874378Y-86462844D01*
X97821000Y-86731195D01*
X97821000Y-87004805D01*
X97874378Y-87273156D01*
X97979084Y-87525938D01*
X98131093Y-87753436D01*
X98324564Y-87946907D01*
X98552062Y-88098916D01*
X98804844Y-88203622D01*
X99053086Y-88253000D01*
X98804844Y-88302378D01*
X98552062Y-88407084D01*
X98324564Y-88559093D01*
X98131093Y-88752564D01*
X97979084Y-88980062D01*
X97874378Y-89232844D01*
X97821000Y-89501195D01*
X97821000Y-89774805D01*
X97874378Y-90043156D01*
X97979084Y-90295938D01*
X98131093Y-90523436D01*
X98324564Y-90716907D01*
X98552062Y-90868916D01*
X98804844Y-90973622D01*
X99053086Y-91023000D01*
X98804844Y-91072378D01*
X98552062Y-91177084D01*
X98324564Y-91329093D01*
X98131093Y-91522564D01*
X97979084Y-91750062D01*
X97874378Y-92002844D01*
X97821000Y-92271195D01*
X97821000Y-92544805D01*
X97874378Y-92813156D01*
X97979084Y-93065938D01*
X98131093Y-93293436D01*
X98324564Y-93486907D01*
X98552062Y-93638916D01*
X98804844Y-93743622D01*
X99053086Y-93793000D01*
X98804844Y-93842378D01*
X98552062Y-93947084D01*
X98324564Y-94099093D01*
X98131093Y-94292564D01*
X97979084Y-94520062D01*
X97874378Y-94772844D01*
X97821000Y-95041195D01*
X97821000Y-95314805D01*
X97874378Y-95583156D01*
X97979084Y-95835938D01*
X98131093Y-96063436D01*
X98324564Y-96256907D01*
X98552062Y-96408916D01*
X98804844Y-96513622D01*
X99073195Y-96567000D01*
X99346805Y-96567000D01*
X99615156Y-96513622D01*
X99867938Y-96408916D01*
X100095436Y-96256907D01*
X100288907Y-96063436D01*
X100440916Y-95835938D01*
X100545622Y-95583156D01*
X100599000Y-95314805D01*
X100599000Y-95041195D01*
X100545622Y-94772844D01*
X100440916Y-94520062D01*
X100288907Y-94292564D01*
X100095436Y-94099093D01*
X99867938Y-93947084D01*
X99615156Y-93842378D01*
X99366914Y-93793000D01*
X99615156Y-93743622D01*
X99867938Y-93638916D01*
X100095436Y-93486907D01*
X100288907Y-93293436D01*
X100440916Y-93065938D01*
X100545622Y-92813156D01*
X100599000Y-92544805D01*
X100599000Y-92271195D01*
X100545622Y-92002844D01*
X100440916Y-91750062D01*
X100288907Y-91522564D01*
X100095436Y-91329093D01*
X99867938Y-91177084D01*
X99615156Y-91072378D01*
X99366914Y-91023000D01*
X99615156Y-90973622D01*
X99867938Y-90868916D01*
X100095436Y-90716907D01*
X100288907Y-90523436D01*
X100440916Y-90295938D01*
X100545622Y-90043156D01*
X100599000Y-89774805D01*
X100599000Y-89501195D01*
X100545622Y-89232844D01*
X100440916Y-88980062D01*
X100288907Y-88752564D01*
X100095436Y-88559093D01*
X99867938Y-88407084D01*
X99615156Y-88302378D01*
X99366914Y-88253000D01*
X99615156Y-88203622D01*
X99867938Y-88098916D01*
X100095436Y-87946907D01*
X100288907Y-87753436D01*
X100440916Y-87525938D01*
X100545622Y-87273156D01*
X100599000Y-87004805D01*
X100599000Y-86731195D01*
X100545622Y-86462844D01*
X100440916Y-86210062D01*
X100288907Y-85982564D01*
X100095436Y-85789093D01*
X99867938Y-85637084D01*
X99615156Y-85532378D01*
X99366914Y-85483000D01*
X99615156Y-85433622D01*
X99867938Y-85328916D01*
X100095436Y-85176907D01*
X100288907Y-84983436D01*
X100440916Y-84755938D01*
X100545622Y-84503156D01*
X100599000Y-84234805D01*
X100599000Y-83961195D01*
X100545622Y-83692844D01*
X100440916Y-83440062D01*
X100288907Y-83212564D01*
X100095436Y-83019093D01*
X99867938Y-82867084D01*
X99615156Y-82762378D01*
X99366914Y-82713000D01*
X99615156Y-82663622D01*
X99867938Y-82558916D01*
X100095436Y-82406907D01*
X100288907Y-82213436D01*
X100440916Y-81985938D01*
X100545622Y-81733156D01*
X100599000Y-81464805D01*
X100599000Y-81191195D01*
X100545622Y-80922844D01*
X100440916Y-80670062D01*
X100288907Y-80442564D01*
X100095436Y-80249093D01*
X99867938Y-80097084D01*
X99615156Y-79992378D01*
X99366914Y-79943000D01*
X99615156Y-79893622D01*
X99867938Y-79788916D01*
X100095436Y-79636907D01*
X100288907Y-79443436D01*
X100440916Y-79215938D01*
X100545622Y-78963156D01*
X100599000Y-78694805D01*
X100599000Y-78421195D01*
X100545622Y-78152844D01*
X100440916Y-77900062D01*
X100288907Y-77672564D01*
X100095436Y-77479093D01*
X99867938Y-77327084D01*
X99615156Y-77222378D01*
X99346805Y-77169000D01*
X99073195Y-77169000D01*
X98804844Y-77222378D01*
X98552062Y-77327084D01*
X98324564Y-77479093D01*
X98131093Y-77672564D01*
X97979084Y-77900062D01*
X97874378Y-78152844D01*
X97821000Y-78421195D01*
X97522776Y-78421195D01*
X97575185Y-78378185D01*
X97654537Y-78281494D01*
X97713502Y-78171180D01*
X97749812Y-78051482D01*
X97762072Y-77927000D01*
X97762072Y-76419000D01*
X97749812Y-76294518D01*
X97713502Y-76174820D01*
X97654537Y-76064506D01*
X97575185Y-75967815D01*
X97478494Y-75888463D01*
X97368180Y-75829498D01*
X97248482Y-75793188D01*
X97124000Y-75780928D01*
X95616000Y-75780928D01*
X95491518Y-75793188D01*
X95371820Y-75829498D01*
X95261506Y-75888463D01*
X95164815Y-75967815D01*
X95085463Y-76064506D01*
X95026498Y-76174820D01*
X94990188Y-76294518D01*
X94977928Y-76419000D01*
X66192000Y-76419000D01*
X66192000Y-71250285D01*
X66269000Y-71250285D01*
X66269000Y-72005715D01*
X66416377Y-72746628D01*
X66705467Y-73444554D01*
X67125161Y-74072670D01*
X67659330Y-74606839D01*
X68287446Y-75026533D01*
X68985372Y-75315623D01*
X69726285Y-75463000D01*
X70481715Y-75463000D01*
X71222628Y-75315623D01*
X71920554Y-75026533D01*
X72548670Y-74606839D01*
X73082839Y-74072670D01*
X73502533Y-73444554D01*
X73791623Y-72746628D01*
X73939000Y-72005715D01*
X73939000Y-71250285D01*
X73791623Y-70509372D01*
X73502533Y-69811446D01*
X73082839Y-69183330D01*
X72548670Y-68649161D01*
X71920554Y-68229467D01*
X71222628Y-67940377D01*
X70481715Y-67793000D01*
X69726285Y-67793000D01*
X68985372Y-67940377D01*
X68287446Y-68229467D01*
X67659330Y-68649161D01*
X67125161Y-69183330D01*
X66705467Y-69811446D01*
X66416377Y-70509372D01*
X66269000Y-71250285D01*
X66192000Y-71250285D01*
X66192000Y-68866279D01*
X66216397Y-68617460D01*
X66279285Y-68409167D01*
X66381428Y-68217063D01*
X66518947Y-68048447D01*
X66686593Y-67909759D01*
X66877985Y-67806274D01*
X67085835Y-67741934D01*
X67332581Y-67716000D01*
X96878543Y-67716000D01*
X96546228Y-67853649D01*
G04 #@! TA.AperFunction,Conductor*
D18*
G36*
X96546228Y-67853649D02*
G01*
X96109249Y-68145629D01*
X95737629Y-68517249D01*
X95445649Y-68954228D01*
X95244530Y-69439773D01*
X95142000Y-69955225D01*
X95142000Y-70480775D01*
X95244530Y-70996227D01*
X95445649Y-71481772D01*
X95737629Y-71918751D01*
X96109249Y-72290371D01*
X96546228Y-72582351D01*
X97031773Y-72783470D01*
X97547225Y-72886000D01*
X98072775Y-72886000D01*
X98588227Y-72783470D01*
X99073772Y-72582351D01*
X99510751Y-72290371D01*
X99882371Y-71918751D01*
X100174351Y-71481772D01*
X100375470Y-70996227D01*
X100478000Y-70480775D01*
X100478000Y-69955225D01*
X100375470Y-69439773D01*
X100174351Y-68954228D01*
X99882371Y-68517249D01*
X99510751Y-68145629D01*
X99073772Y-67853649D01*
X98741457Y-67716000D01*
X105631721Y-67716000D01*
X105880540Y-67740397D01*
X106088833Y-67803285D01*
X106280937Y-67905428D01*
X106449553Y-68042947D01*
X106588241Y-68210593D01*
X106691726Y-68401985D01*
X106756066Y-68609835D01*
X106782000Y-68856581D01*
X106782001Y-104869711D01*
X106757603Y-105118540D01*
X106694717Y-105326830D01*
X106592572Y-105518938D01*
X106455052Y-105687554D01*
X106287409Y-105826240D01*
X106096017Y-105929725D01*
X105888166Y-105994066D01*
X105641419Y-106020000D01*
X98741457Y-106020000D01*
X99073772Y-105882351D01*
X99510751Y-105590371D01*
X99882371Y-105218751D01*
X100174351Y-104781772D01*
X100375470Y-104296227D01*
X100478000Y-103780775D01*
X100478000Y-103255225D01*
X100375470Y-102739773D01*
X100174351Y-102254228D01*
X99882371Y-101817249D01*
X99510751Y-101445629D01*
X99073772Y-101153649D01*
X98588227Y-100952530D01*
X98072775Y-100850000D01*
X97547225Y-100850000D01*
X97031773Y-100952530D01*
X96546228Y-101153649D01*
X96109249Y-101445629D01*
X95737629Y-101817249D01*
X95445649Y-102254228D01*
X95244530Y-102739773D01*
X95142000Y-103255225D01*
X95142000Y-103780775D01*
X95244530Y-104296227D01*
X95445649Y-104781772D01*
X95737629Y-105218751D01*
X96109249Y-105590371D01*
X96546228Y-105882351D01*
X96878543Y-106020000D01*
X67342279Y-106020000D01*
X67093460Y-105995603D01*
X66885170Y-105932717D01*
X66693062Y-105830572D01*
X66524446Y-105693052D01*
X66385760Y-105525409D01*
X66282275Y-105334017D01*
X66217934Y-105126166D01*
X66192000Y-104879419D01*
X66192000Y-101730285D01*
X66269000Y-101730285D01*
X66269000Y-102485715D01*
X66416377Y-103226628D01*
X66705467Y-103924554D01*
X67125161Y-104552670D01*
X67659330Y-105086839D01*
X68287446Y-105506533D01*
X68985372Y-105795623D01*
X69726285Y-105943000D01*
X70481715Y-105943000D01*
X71222628Y-105795623D01*
X71920554Y-105506533D01*
X72548670Y-105086839D01*
X73082839Y-104552670D01*
X73502533Y-103924554D01*
X73791623Y-103226628D01*
X73939000Y-102485715D01*
X73939000Y-101730285D01*
X73791623Y-100989372D01*
X73502533Y-100291446D01*
X73125320Y-99726907D01*
X73134256Y-99723205D01*
X73303774Y-99609937D01*
X73347711Y-99566000D01*
X74226289Y-99566000D01*
X74270226Y-99609937D01*
X74439744Y-99723205D01*
X74628102Y-99801226D01*
X74828061Y-99841000D01*
X75031939Y-99841000D01*
X75231898Y-99801226D01*
X75420256Y-99723205D01*
X75589774Y-99609937D01*
X75733937Y-99465774D01*
X75847205Y-99296256D01*
X75925226Y-99107898D01*
X75965000Y-98907939D01*
X75965000Y-98704061D01*
X75955838Y-98658001D01*
X76127479Y-98658001D01*
X76158063Y-98703774D01*
X76302226Y-98847937D01*
X76471744Y-98961205D01*
X76660102Y-99039226D01*
X76860061Y-99079000D01*
X77063939Y-99079000D01*
X77263898Y-99039226D01*
X77452256Y-98961205D01*
X77621774Y-98847937D01*
X77765937Y-98703774D01*
X77879205Y-98534256D01*
X77957226Y-98345898D01*
X77997000Y-98145939D01*
X77997000Y-97942061D01*
X77957226Y-97742102D01*
X77879205Y-97553744D01*
X77765937Y-97384226D01*
X77621774Y-97240063D01*
X77531975Y-97180061D01*
X87103000Y-97180061D01*
X87103000Y-97383939D01*
X87142774Y-97583898D01*
X87220795Y-97772256D01*
X87334063Y-97941774D01*
X87378000Y-97985711D01*
X87378001Y-98864288D01*
X87334063Y-98908226D01*
X87220795Y-99077744D01*
X87142774Y-99266102D01*
X87103000Y-99466061D01*
X87103000Y-99669939D01*
X87142774Y-99869898D01*
X87220795Y-100058256D01*
X87334063Y-100227774D01*
X87478226Y-100371937D01*
X87647744Y-100485205D01*
X87836102Y-100563226D01*
X88036061Y-100603000D01*
X88239939Y-100603000D01*
X88439898Y-100563226D01*
X88628256Y-100485205D01*
X88797774Y-100371937D01*
X88941937Y-100227774D01*
X89055205Y-100058256D01*
X89133226Y-99869898D01*
X89173000Y-99669939D01*
X89173000Y-99466061D01*
X89133226Y-99266102D01*
X89055205Y-99077744D01*
X88941937Y-98908226D01*
X88898000Y-98864289D01*
X88898000Y-97985711D01*
X88941937Y-97941774D01*
X89055205Y-97772256D01*
X89133226Y-97583898D01*
X89173000Y-97383939D01*
X89173000Y-97180061D01*
X89133226Y-96980102D01*
X89055205Y-96791744D01*
X88941937Y-96622226D01*
X88797774Y-96478063D01*
X88628256Y-96364795D01*
X88439898Y-96286774D01*
X88239939Y-96247000D01*
X88036061Y-96247000D01*
X87836102Y-96286774D01*
X87647744Y-96364795D01*
X87478226Y-96478063D01*
X87334063Y-96622226D01*
X87220795Y-96791744D01*
X87142774Y-96980102D01*
X87103000Y-97180061D01*
X77531975Y-97180061D01*
X77452256Y-97126795D01*
X77263898Y-97048774D01*
X77063939Y-97009000D01*
X76860061Y-97009000D01*
X76660102Y-97048774D01*
X76471744Y-97126795D01*
X76454973Y-97138001D01*
X71811321Y-97138001D01*
X71773998Y-97134325D01*
X71736676Y-97138001D01*
X71736666Y-97138001D01*
X71625013Y-97148998D01*
X71481752Y-97192455D01*
X71349774Y-97263000D01*
X71272061Y-97263000D01*
X71072102Y-97302774D01*
X70883744Y-97380795D01*
X70714226Y-97494063D01*
X70570063Y-97638226D01*
X70456795Y-97807744D01*
X70378774Y-97996102D01*
X70339000Y-98196061D01*
X70339000Y-98273000D01*
X69726285Y-98273000D01*
X68985372Y-98420377D01*
X68287446Y-98709467D01*
X67659330Y-99129161D01*
X67125161Y-99663330D01*
X66705467Y-100291446D01*
X66416377Y-100989372D01*
X66269000Y-101730285D01*
X66192000Y-101730285D01*
X66192000Y-89906236D01*
X66393303Y-89967300D01*
X66542313Y-89981976D01*
X66506063Y-90018226D01*
X66392795Y-90187744D01*
X66314774Y-90376102D01*
X66275000Y-90576061D01*
X66275000Y-90779939D01*
X66314774Y-90979898D01*
X66392795Y-91168256D01*
X66506063Y-91337774D01*
X66650226Y-91481937D01*
X66819744Y-91595205D01*
X67008102Y-91673226D01*
X67101518Y-91691807D01*
X67068997Y-91799015D01*
X67058000Y-91910668D01*
X67058000Y-91910678D01*
X67054324Y-91948000D01*
X67058000Y-91985323D01*
X67058001Y-95974668D01*
X67054324Y-96012000D01*
X67058604Y-96055451D01*
X67037000Y-96164061D01*
X67037000Y-96367939D01*
X67076774Y-96567898D01*
X67154795Y-96756256D01*
X67268063Y-96925774D01*
X67412226Y-97069937D01*
X67581744Y-97183205D01*
X67770102Y-97261226D01*
X67970061Y-97301000D01*
X68173939Y-97301000D01*
X68373898Y-97261226D01*
X68562256Y-97183205D01*
X68731774Y-97069937D01*
X68875937Y-96925774D01*
X68989205Y-96756256D01*
X69067226Y-96567898D01*
X69107000Y-96367939D01*
X69107000Y-96164061D01*
X69102015Y-96139000D01*
X72978652Y-96139000D01*
X73035883Y-96224652D01*
X73193348Y-96382117D01*
X73378507Y-96505836D01*
X73584245Y-96591056D01*
X73802655Y-96634500D01*
X74025345Y-96634500D01*
X74243755Y-96591056D01*
X74449493Y-96505836D01*
X74634652Y-96382117D01*
X74792117Y-96224652D01*
X74915836Y-96039493D01*
X75001056Y-95833755D01*
X75044500Y-95615345D01*
X75044500Y-95392655D01*
X75001056Y-95174245D01*
X74915836Y-94968507D01*
X74792117Y-94783348D01*
X74634652Y-94625883D01*
X74449493Y-94502164D01*
X74415298Y-94488000D01*
X74449493Y-94473836D01*
X74634652Y-94350117D01*
X74792117Y-94192652D01*
X74915836Y-94007493D01*
X75001056Y-93801755D01*
X75044500Y-93583345D01*
X75044500Y-93360655D01*
X75015727Y-93216000D01*
X76704201Y-93216000D01*
X77472000Y-93983800D01*
X77472000Y-94038289D01*
X77428063Y-94082226D01*
X77314795Y-94251744D01*
X77236774Y-94440102D01*
X77197000Y-94640061D01*
X77197000Y-94843939D01*
X77236774Y-95043898D01*
X77314795Y-95232256D01*
X77428063Y-95401774D01*
X77572226Y-95545937D01*
X77741744Y-95659205D01*
X77930102Y-95737226D01*
X78130061Y-95777000D01*
X78333939Y-95777000D01*
X78533898Y-95737226D01*
X78722256Y-95659205D01*
X78891774Y-95545937D01*
X79035937Y-95401774D01*
X79149205Y-95232256D01*
X79227226Y-95043898D01*
X79243550Y-94961831D01*
X79243550Y-96012000D01*
X79245990Y-96036776D01*
X79253217Y-96060601D01*
X79264953Y-96082557D01*
X79280747Y-96101803D01*
X79299993Y-96117597D01*
X79321949Y-96129333D01*
X79345774Y-96136560D01*
X79370550Y-96139000D01*
X84196550Y-96139000D01*
X84221326Y-96136560D01*
X84245151Y-96129333D01*
X84267107Y-96117597D01*
X84286353Y-96101803D01*
X84302147Y-96082557D01*
X84313883Y-96060601D01*
X84321110Y-96036776D01*
X84323550Y-96012000D01*
X84323550Y-91948000D01*
X84321110Y-91923224D01*
X84313883Y-91899399D01*
X84302147Y-91877443D01*
X84286353Y-91858197D01*
X84267107Y-91842403D01*
X84245151Y-91830667D01*
X84221326Y-91823440D01*
X84196550Y-91821000D01*
X83736227Y-91821000D01*
X83736276Y-91820974D01*
X83852001Y-91726001D01*
X83875803Y-91696998D01*
X84875802Y-90697000D01*
X84937939Y-90697000D01*
X85137898Y-90657226D01*
X85326256Y-90579205D01*
X85495774Y-90465937D01*
X85639937Y-90321774D01*
X85753205Y-90152256D01*
X85831226Y-89963898D01*
X85871000Y-89763939D01*
X85871000Y-89560061D01*
X85831226Y-89360102D01*
X85753205Y-89171744D01*
X85639937Y-89002226D01*
X85495774Y-88858063D01*
X85326256Y-88744795D01*
X85141000Y-88668059D01*
X85141000Y-88512061D01*
X85101226Y-88312102D01*
X85023205Y-88123744D01*
X84909937Y-87954226D01*
X84866000Y-87910289D01*
X84866000Y-84102801D01*
X84996740Y-83972061D01*
X92691000Y-83972061D01*
X92691000Y-84175939D01*
X92730774Y-84375898D01*
X92808795Y-84564256D01*
X92922063Y-84733774D01*
X92966001Y-84777712D01*
X92966000Y-86672289D01*
X92922063Y-86716226D01*
X92808795Y-86885744D01*
X92730774Y-87074102D01*
X92691000Y-87274061D01*
X92691000Y-87477939D01*
X92730774Y-87677898D01*
X92808795Y-87866256D01*
X92922063Y-88035774D01*
X93066226Y-88179937D01*
X93235744Y-88293205D01*
X93424102Y-88371226D01*
X93624061Y-88411000D01*
X93827939Y-88411000D01*
X94027898Y-88371226D01*
X94216256Y-88293205D01*
X94385774Y-88179937D01*
X94449516Y-88116195D01*
X94981000Y-88116195D01*
X94981000Y-88389805D01*
X95034378Y-88658156D01*
X95139084Y-88910938D01*
X95291093Y-89138436D01*
X95484564Y-89331907D01*
X95712062Y-89483916D01*
X95964844Y-89588622D01*
X96213086Y-89638000D01*
X95964844Y-89687378D01*
X95712062Y-89792084D01*
X95484564Y-89944093D01*
X95291093Y-90137564D01*
X95139084Y-90365062D01*
X95034378Y-90617844D01*
X94981000Y-90886195D01*
X94981000Y-91159805D01*
X95034378Y-91428156D01*
X95139084Y-91680938D01*
X95291093Y-91908436D01*
X95484564Y-92101907D01*
X95712062Y-92253916D01*
X95964844Y-92358622D01*
X96213086Y-92408000D01*
X95964844Y-92457378D01*
X95712062Y-92562084D01*
X95484564Y-92714093D01*
X95291093Y-92907564D01*
X95139084Y-93135062D01*
X95034378Y-93387844D01*
X94981000Y-93656195D01*
X94981000Y-93929805D01*
X95034378Y-94198156D01*
X95139084Y-94450938D01*
X95291093Y-94678436D01*
X95484564Y-94871907D01*
X95712062Y-95023916D01*
X95964844Y-95128622D01*
X96213086Y-95178000D01*
X95964844Y-95227378D01*
X95712062Y-95332084D01*
X95484564Y-95484093D01*
X95291093Y-95677564D01*
X95139084Y-95905062D01*
X95034378Y-96157844D01*
X94981000Y-96426195D01*
X94981000Y-96699805D01*
X95034378Y-96968156D01*
X95139084Y-97220938D01*
X95291093Y-97448436D01*
X95484564Y-97641907D01*
X95712062Y-97793916D01*
X95964844Y-97898622D01*
X96233195Y-97952000D01*
X96506805Y-97952000D01*
X96775156Y-97898622D01*
X97027938Y-97793916D01*
X97255436Y-97641907D01*
X97448907Y-97448436D01*
X97600916Y-97220938D01*
X97705622Y-96968156D01*
X97759000Y-96699805D01*
X97759000Y-96426195D01*
X97705622Y-96157844D01*
X97600916Y-95905062D01*
X97448907Y-95677564D01*
X97255436Y-95484093D01*
X97027938Y-95332084D01*
X96775156Y-95227378D01*
X96526914Y-95178000D01*
X96775156Y-95128622D01*
X97027938Y-95023916D01*
X97255436Y-94871907D01*
X97448907Y-94678436D01*
X97600916Y-94450938D01*
X97705622Y-94198156D01*
X97759000Y-93929805D01*
X97759000Y-93656195D01*
X97705622Y-93387844D01*
X97600916Y-93135062D01*
X97448907Y-92907564D01*
X97255436Y-92714093D01*
X97027938Y-92562084D01*
X96775156Y-92457378D01*
X96526914Y-92408000D01*
X96775156Y-92358622D01*
X97027938Y-92253916D01*
X97255436Y-92101907D01*
X97448907Y-91908436D01*
X97600916Y-91680938D01*
X97705622Y-91428156D01*
X97759000Y-91159805D01*
X97759000Y-90886195D01*
X97705622Y-90617844D01*
X97600916Y-90365062D01*
X97448907Y-90137564D01*
X97255436Y-89944093D01*
X97027938Y-89792084D01*
X96775156Y-89687378D01*
X96526914Y-89638000D01*
X96775156Y-89588622D01*
X97027938Y-89483916D01*
X97255436Y-89331907D01*
X97448907Y-89138436D01*
X97600916Y-88910938D01*
X97705622Y-88658156D01*
X97759000Y-88389805D01*
X97759000Y-88116195D01*
X97705622Y-87847844D01*
X97600916Y-87595062D01*
X97448907Y-87367564D01*
X97255436Y-87174093D01*
X97027938Y-87022084D01*
X96775156Y-86917378D01*
X96515659Y-86865761D01*
X96712870Y-86835951D01*
X96970229Y-86743063D01*
X97084235Y-86682127D01*
X97150246Y-86442851D01*
X96370000Y-85662605D01*
X95589754Y-86442851D01*
X95655765Y-86682127D01*
X95903426Y-86798426D01*
X96169018Y-86864174D01*
X96220355Y-86866554D01*
X95964844Y-86917378D01*
X95712062Y-87022084D01*
X95484564Y-87174093D01*
X95291093Y-87367564D01*
X95139084Y-87595062D01*
X95034378Y-87847844D01*
X94981000Y-88116195D01*
X94449516Y-88116195D01*
X94529937Y-88035774D01*
X94643205Y-87866256D01*
X94721226Y-87677898D01*
X94761000Y-87477939D01*
X94761000Y-87274061D01*
X94721226Y-87074102D01*
X94643205Y-86885744D01*
X94529937Y-86716226D01*
X94486000Y-86672289D01*
X94486000Y-85555334D01*
X94976155Y-85555334D01*
X95017049Y-85825870D01*
X95109937Y-86083229D01*
X95170873Y-86197235D01*
X95410149Y-86263246D01*
X96190395Y-85483000D01*
X96549605Y-85483000D01*
X97329851Y-86263246D01*
X97569127Y-86197235D01*
X97685426Y-85949574D01*
X97751174Y-85683982D01*
X97763845Y-85410666D01*
X97722951Y-85140130D01*
X97630063Y-84882771D01*
X97569127Y-84768765D01*
X97329851Y-84702754D01*
X96549605Y-85483000D01*
X96190395Y-85483000D01*
X95410149Y-84702754D01*
X95170873Y-84768765D01*
X95054574Y-85016426D01*
X94988826Y-85282018D01*
X94976155Y-85555334D01*
X94486000Y-85555334D01*
X94486000Y-84777711D01*
X94529937Y-84733774D01*
X94643205Y-84564256D01*
X94721226Y-84375898D01*
X94761000Y-84175939D01*
X94761000Y-83972061D01*
X94721226Y-83772102D01*
X94643205Y-83583744D01*
X94529937Y-83414226D01*
X94385774Y-83270063D01*
X94216256Y-83156795D01*
X94027898Y-83078774D01*
X93827939Y-83039000D01*
X93624061Y-83039000D01*
X93424102Y-83078774D01*
X93235744Y-83156795D01*
X93066226Y-83270063D01*
X92922063Y-83414226D01*
X92808795Y-83583744D01*
X92730774Y-83772102D01*
X92691000Y-83972061D01*
X84996740Y-83972061D01*
X85129801Y-83839000D01*
X85191939Y-83839000D01*
X85391898Y-83799226D01*
X85580256Y-83721205D01*
X85749774Y-83607937D01*
X85893937Y-83463774D01*
X86007205Y-83294256D01*
X86085226Y-83105898D01*
X86125000Y-82905939D01*
X86125000Y-82702061D01*
X86085226Y-82502102D01*
X86007205Y-82313744D01*
X85893937Y-82144226D01*
X85749774Y-82000063D01*
X85580256Y-81886795D01*
X85391898Y-81808774D01*
X85191939Y-81769000D01*
X84988061Y-81769000D01*
X84788102Y-81808774D01*
X84599744Y-81886795D01*
X84430226Y-82000063D01*
X84286063Y-82144226D01*
X84172795Y-82313744D01*
X84094774Y-82502102D01*
X84055000Y-82702061D01*
X84055000Y-82764199D01*
X83594998Y-83224201D01*
X83566000Y-83247999D01*
X83542202Y-83276997D01*
X83542201Y-83276998D01*
X83471026Y-83363724D01*
X83400454Y-83495754D01*
X83379753Y-83564000D01*
X83362022Y-83622454D01*
X83356998Y-83639015D01*
X83342324Y-83788000D01*
X83346001Y-83825332D01*
X83346000Y-87910289D01*
X83302063Y-87954226D01*
X83188795Y-88123744D01*
X83110774Y-88312102D01*
X83071000Y-88512061D01*
X83071000Y-88715939D01*
X83110774Y-88915898D01*
X83188795Y-89104256D01*
X83302063Y-89273774D01*
X83446226Y-89417937D01*
X83615744Y-89531205D01*
X83801000Y-89607941D01*
X83801000Y-89622198D01*
X82997199Y-90426000D01*
X81475711Y-90426000D01*
X81431774Y-90382063D01*
X81262256Y-90268795D01*
X81073898Y-90190774D01*
X80873939Y-90151000D01*
X80814671Y-90151000D01*
X80804001Y-90137999D01*
X80688276Y-90043026D01*
X80556247Y-89972454D01*
X80412986Y-89928997D01*
X80301333Y-89918000D01*
X80301322Y-89918000D01*
X80264000Y-89914324D01*
X80226678Y-89918000D01*
X76768803Y-89918000D01*
X74949000Y-88098199D01*
X74949000Y-88036061D01*
X74909226Y-87836102D01*
X74831205Y-87647744D01*
X74717937Y-87478226D01*
X74613711Y-87374000D01*
X77432667Y-87374000D01*
X77470000Y-87377677D01*
X77507333Y-87374000D01*
X77618986Y-87363003D01*
X77762247Y-87319546D01*
X77894276Y-87248974D01*
X78010001Y-87154001D01*
X78104974Y-87038276D01*
X78175546Y-86906247D01*
X78219003Y-86762986D01*
X78233677Y-86614000D01*
X78230000Y-86576667D01*
X78230000Y-84365325D01*
X78233676Y-84328000D01*
X78230000Y-84290675D01*
X78230000Y-84290667D01*
X78219003Y-84179014D01*
X78175546Y-84035753D01*
X78104974Y-83903724D01*
X78010001Y-83787999D01*
X77981002Y-83764201D01*
X77271803Y-83055002D01*
X77248001Y-83025999D01*
X77132276Y-82931026D01*
X77000247Y-82860454D01*
X76856986Y-82816997D01*
X76745333Y-82806000D01*
X76745322Y-82806000D01*
X76708000Y-82802324D01*
X76670678Y-82806000D01*
X74617711Y-82806000D01*
X74573774Y-82762063D01*
X74404256Y-82648795D01*
X74215898Y-82570774D01*
X74015939Y-82531000D01*
X73812061Y-82531000D01*
X73612102Y-82570774D01*
X73423744Y-82648795D01*
X73254226Y-82762063D01*
X73110063Y-82906226D01*
X72996795Y-83075744D01*
X72918774Y-83264102D01*
X72879000Y-83464061D01*
X72879000Y-83667939D01*
X72918774Y-83867898D01*
X72996795Y-84056256D01*
X73110063Y-84225774D01*
X73254226Y-84369937D01*
X73423744Y-84483205D01*
X73612102Y-84561226D01*
X73812061Y-84601000D01*
X74015939Y-84601000D01*
X74215898Y-84561226D01*
X74404256Y-84483205D01*
X74573774Y-84369937D01*
X74617711Y-84326000D01*
X76393199Y-84326000D01*
X76710001Y-84642803D01*
X76710000Y-85854000D01*
X74205325Y-85854000D01*
X74168000Y-85850324D01*
X74130675Y-85854000D01*
X74130667Y-85854000D01*
X74019014Y-85864997D01*
X73875753Y-85908454D01*
X73743724Y-85979026D01*
X73627999Y-86073999D01*
X73604201Y-86102997D01*
X72350199Y-87357000D01*
X72288061Y-87357000D01*
X72088102Y-87396774D01*
X71899744Y-87474795D01*
X71730226Y-87588063D01*
X71586063Y-87732226D01*
X71472795Y-87901744D01*
X71394774Y-88090102D01*
X71355000Y-88290061D01*
X71355000Y-88493939D01*
X71394774Y-88693898D01*
X71472795Y-88882256D01*
X71586063Y-89051774D01*
X71727288Y-89192999D01*
X68550334Y-89192999D01*
X68575300Y-89110697D01*
X68596249Y-88898000D01*
X68575300Y-88685303D01*
X68513259Y-88480780D01*
X68412509Y-88292290D01*
X68276922Y-88127078D01*
X68111710Y-87991491D01*
X67923220Y-87890741D01*
X67718697Y-87828700D01*
X67559294Y-87813000D01*
X66552706Y-87813000D01*
X66393303Y-87828700D01*
X66192000Y-87889764D01*
X66192000Y-83306236D01*
X66393303Y-83367300D01*
X66552706Y-83383000D01*
X67559294Y-83383000D01*
X67718697Y-83367300D01*
X67923220Y-83305259D01*
X68111710Y-83204509D01*
X68276922Y-83068922D01*
X68412509Y-82903710D01*
X68513259Y-82715220D01*
X68575300Y-82510697D01*
X68596249Y-82298000D01*
X68575300Y-82085303D01*
X68513259Y-81880780D01*
X68412509Y-81692290D01*
X68276922Y-81527078D01*
X68111710Y-81391491D01*
X67923220Y-81290741D01*
X67718697Y-81228700D01*
X67559294Y-81213000D01*
X66552706Y-81213000D01*
X66393303Y-81228700D01*
X66192000Y-81289764D01*
X66192000Y-76419000D01*
X94977928Y-76419000D01*
X94977928Y-77927000D01*
X94990188Y-78051482D01*
X95026498Y-78171180D01*
X95085463Y-78281494D01*
X95164815Y-78378185D01*
X95261506Y-78457537D01*
X95371820Y-78516502D01*
X95491518Y-78552812D01*
X95616000Y-78565072D01*
X96177532Y-78565072D01*
X95964844Y-78607378D01*
X95712062Y-78712084D01*
X95484564Y-78864093D01*
X95291093Y-79057564D01*
X95139084Y-79285062D01*
X95034378Y-79537844D01*
X94981000Y-79806195D01*
X94981000Y-80079805D01*
X95034378Y-80348156D01*
X95139084Y-80600938D01*
X95291093Y-80828436D01*
X95484564Y-81021907D01*
X95712062Y-81173916D01*
X95964844Y-81278622D01*
X96213086Y-81328000D01*
X95964844Y-81377378D01*
X95712062Y-81482084D01*
X95484564Y-81634093D01*
X95291093Y-81827564D01*
X95139084Y-82055062D01*
X95034378Y-82307844D01*
X94981000Y-82576195D01*
X94981000Y-82849805D01*
X95034378Y-83118156D01*
X95139084Y-83370938D01*
X95291093Y-83598436D01*
X95484564Y-83791907D01*
X95712062Y-83943916D01*
X95964844Y-84048622D01*
X96224341Y-84100239D01*
X96027130Y-84130049D01*
X95769771Y-84222937D01*
X95655765Y-84283873D01*
X95589754Y-84523149D01*
X96370000Y-85303395D01*
X97150246Y-84523149D01*
X97084235Y-84283873D01*
X96836574Y-84167574D01*
X96570982Y-84101826D01*
X96519645Y-84099446D01*
X96775156Y-84048622D01*
X97027938Y-83943916D01*
X97255436Y-83791907D01*
X97448907Y-83598436D01*
X97600916Y-83370938D01*
X97705622Y-83118156D01*
X97759000Y-82849805D01*
X97759000Y-82576195D01*
X97705622Y-82307844D01*
X97600916Y-82055062D01*
X97448907Y-81827564D01*
X97255436Y-81634093D01*
X97027938Y-81482084D01*
X96775156Y-81377378D01*
X96526914Y-81328000D01*
X96775156Y-81278622D01*
X97027938Y-81173916D01*
X97255436Y-81021907D01*
X97448907Y-80828436D01*
X97600916Y-80600938D01*
X97705622Y-80348156D01*
X97759000Y-80079805D01*
X97759000Y-79806195D01*
X97705622Y-79537844D01*
X97600916Y-79285062D01*
X97448907Y-79057564D01*
X97255436Y-78864093D01*
X97027938Y-78712084D01*
X96775156Y-78607378D01*
X96562468Y-78565072D01*
X97124000Y-78565072D01*
X97248482Y-78552812D01*
X97368180Y-78516502D01*
X97478494Y-78457537D01*
X97522776Y-78421195D01*
X97821000Y-78421195D01*
X97821000Y-78694805D01*
X97874378Y-78963156D01*
X97979084Y-79215938D01*
X98131093Y-79443436D01*
X98324564Y-79636907D01*
X98552062Y-79788916D01*
X98804844Y-79893622D01*
X99053086Y-79943000D01*
X98804844Y-79992378D01*
X98552062Y-80097084D01*
X98324564Y-80249093D01*
X98131093Y-80442564D01*
X97979084Y-80670062D01*
X97874378Y-80922844D01*
X97821000Y-81191195D01*
X97821000Y-81464805D01*
X97874378Y-81733156D01*
X97979084Y-81985938D01*
X98131093Y-82213436D01*
X98324564Y-82406907D01*
X98552062Y-82558916D01*
X98804844Y-82663622D01*
X99053086Y-82713000D01*
X98804844Y-82762378D01*
X98552062Y-82867084D01*
X98324564Y-83019093D01*
X98131093Y-83212564D01*
X97979084Y-83440062D01*
X97874378Y-83692844D01*
X97821000Y-83961195D01*
X97821000Y-84234805D01*
X97874378Y-84503156D01*
X97979084Y-84755938D01*
X98131093Y-84983436D01*
X98324564Y-85176907D01*
X98552062Y-85328916D01*
X98804844Y-85433622D01*
X99053086Y-85483000D01*
X98804844Y-85532378D01*
X98552062Y-85637084D01*
X98324564Y-85789093D01*
X98131093Y-85982564D01*
X97979084Y-86210062D01*
X97874378Y-86462844D01*
X97821000Y-86731195D01*
X97821000Y-87004805D01*
X97874378Y-87273156D01*
X97979084Y-87525938D01*
X98131093Y-87753436D01*
X98324564Y-87946907D01*
X98552062Y-88098916D01*
X98804844Y-88203622D01*
X99053086Y-88253000D01*
X98804844Y-88302378D01*
X98552062Y-88407084D01*
X98324564Y-88559093D01*
X98131093Y-88752564D01*
X97979084Y-88980062D01*
X97874378Y-89232844D01*
X97821000Y-89501195D01*
X97821000Y-89774805D01*
X97874378Y-90043156D01*
X97979084Y-90295938D01*
X98131093Y-90523436D01*
X98324564Y-90716907D01*
X98552062Y-90868916D01*
X98804844Y-90973622D01*
X99053086Y-91023000D01*
X98804844Y-91072378D01*
X98552062Y-91177084D01*
X98324564Y-91329093D01*
X98131093Y-91522564D01*
X97979084Y-91750062D01*
X97874378Y-92002844D01*
X97821000Y-92271195D01*
X97821000Y-92544805D01*
X97874378Y-92813156D01*
X97979084Y-93065938D01*
X98131093Y-93293436D01*
X98324564Y-93486907D01*
X98552062Y-93638916D01*
X98804844Y-93743622D01*
X99053086Y-93793000D01*
X98804844Y-93842378D01*
X98552062Y-93947084D01*
X98324564Y-94099093D01*
X98131093Y-94292564D01*
X97979084Y-94520062D01*
X97874378Y-94772844D01*
X97821000Y-95041195D01*
X97821000Y-95314805D01*
X97874378Y-95583156D01*
X97979084Y-95835938D01*
X98131093Y-96063436D01*
X98324564Y-96256907D01*
X98552062Y-96408916D01*
X98804844Y-96513622D01*
X99073195Y-96567000D01*
X99346805Y-96567000D01*
X99615156Y-96513622D01*
X99867938Y-96408916D01*
X100095436Y-96256907D01*
X100288907Y-96063436D01*
X100440916Y-95835938D01*
X100545622Y-95583156D01*
X100599000Y-95314805D01*
X100599000Y-95041195D01*
X100545622Y-94772844D01*
X100440916Y-94520062D01*
X100288907Y-94292564D01*
X100095436Y-94099093D01*
X99867938Y-93947084D01*
X99615156Y-93842378D01*
X99366914Y-93793000D01*
X99615156Y-93743622D01*
X99867938Y-93638916D01*
X100095436Y-93486907D01*
X100288907Y-93293436D01*
X100440916Y-93065938D01*
X100545622Y-92813156D01*
X100599000Y-92544805D01*
X100599000Y-92271195D01*
X100545622Y-92002844D01*
X100440916Y-91750062D01*
X100288907Y-91522564D01*
X100095436Y-91329093D01*
X99867938Y-91177084D01*
X99615156Y-91072378D01*
X99366914Y-91023000D01*
X99615156Y-90973622D01*
X99867938Y-90868916D01*
X100095436Y-90716907D01*
X100288907Y-90523436D01*
X100440916Y-90295938D01*
X100545622Y-90043156D01*
X100599000Y-89774805D01*
X100599000Y-89501195D01*
X100545622Y-89232844D01*
X100440916Y-88980062D01*
X100288907Y-88752564D01*
X100095436Y-88559093D01*
X99867938Y-88407084D01*
X99615156Y-88302378D01*
X99366914Y-88253000D01*
X99615156Y-88203622D01*
X99867938Y-88098916D01*
X100095436Y-87946907D01*
X100288907Y-87753436D01*
X100440916Y-87525938D01*
X100545622Y-87273156D01*
X100599000Y-87004805D01*
X100599000Y-86731195D01*
X100545622Y-86462844D01*
X100440916Y-86210062D01*
X100288907Y-85982564D01*
X100095436Y-85789093D01*
X99867938Y-85637084D01*
X99615156Y-85532378D01*
X99366914Y-85483000D01*
X99615156Y-85433622D01*
X99867938Y-85328916D01*
X100095436Y-85176907D01*
X100288907Y-84983436D01*
X100440916Y-84755938D01*
X100545622Y-84503156D01*
X100599000Y-84234805D01*
X100599000Y-83961195D01*
X100545622Y-83692844D01*
X100440916Y-83440062D01*
X100288907Y-83212564D01*
X100095436Y-83019093D01*
X99867938Y-82867084D01*
X99615156Y-82762378D01*
X99366914Y-82713000D01*
X99615156Y-82663622D01*
X99867938Y-82558916D01*
X100095436Y-82406907D01*
X100288907Y-82213436D01*
X100440916Y-81985938D01*
X100545622Y-81733156D01*
X100599000Y-81464805D01*
X100599000Y-81191195D01*
X100545622Y-80922844D01*
X100440916Y-80670062D01*
X100288907Y-80442564D01*
X100095436Y-80249093D01*
X99867938Y-80097084D01*
X99615156Y-79992378D01*
X99366914Y-79943000D01*
X99615156Y-79893622D01*
X99867938Y-79788916D01*
X100095436Y-79636907D01*
X100288907Y-79443436D01*
X100440916Y-79215938D01*
X100545622Y-78963156D01*
X100599000Y-78694805D01*
X100599000Y-78421195D01*
X100545622Y-78152844D01*
X100440916Y-77900062D01*
X100288907Y-77672564D01*
X100095436Y-77479093D01*
X99867938Y-77327084D01*
X99615156Y-77222378D01*
X99346805Y-77169000D01*
X99073195Y-77169000D01*
X98804844Y-77222378D01*
X98552062Y-77327084D01*
X98324564Y-77479093D01*
X98131093Y-77672564D01*
X97979084Y-77900062D01*
X97874378Y-78152844D01*
X97821000Y-78421195D01*
X97522776Y-78421195D01*
X97575185Y-78378185D01*
X97654537Y-78281494D01*
X97713502Y-78171180D01*
X97749812Y-78051482D01*
X97762072Y-77927000D01*
X97762072Y-76419000D01*
X97749812Y-76294518D01*
X97713502Y-76174820D01*
X97654537Y-76064506D01*
X97575185Y-75967815D01*
X97478494Y-75888463D01*
X97368180Y-75829498D01*
X97248482Y-75793188D01*
X97124000Y-75780928D01*
X95616000Y-75780928D01*
X95491518Y-75793188D01*
X95371820Y-75829498D01*
X95261506Y-75888463D01*
X95164815Y-75967815D01*
X95085463Y-76064506D01*
X95026498Y-76174820D01*
X94990188Y-76294518D01*
X94977928Y-76419000D01*
X66192000Y-76419000D01*
X66192000Y-71250285D01*
X66269000Y-71250285D01*
X66269000Y-72005715D01*
X66416377Y-72746628D01*
X66705467Y-73444554D01*
X67125161Y-74072670D01*
X67659330Y-74606839D01*
X68287446Y-75026533D01*
X68985372Y-75315623D01*
X69726285Y-75463000D01*
X70481715Y-75463000D01*
X71222628Y-75315623D01*
X71920554Y-75026533D01*
X72548670Y-74606839D01*
X73082839Y-74072670D01*
X73502533Y-73444554D01*
X73791623Y-72746628D01*
X73939000Y-72005715D01*
X73939000Y-71250285D01*
X73791623Y-70509372D01*
X73502533Y-69811446D01*
X73082839Y-69183330D01*
X72548670Y-68649161D01*
X71920554Y-68229467D01*
X71222628Y-67940377D01*
X70481715Y-67793000D01*
X69726285Y-67793000D01*
X68985372Y-67940377D01*
X68287446Y-68229467D01*
X67659330Y-68649161D01*
X67125161Y-69183330D01*
X66705467Y-69811446D01*
X66416377Y-70509372D01*
X66269000Y-71250285D01*
X66192000Y-71250285D01*
X66192000Y-68866279D01*
X66216397Y-68617460D01*
X66279285Y-68409167D01*
X66381428Y-68217063D01*
X66518947Y-68048447D01*
X66686593Y-67909759D01*
X66877985Y-67806274D01*
X67085835Y-67741934D01*
X67332581Y-67716000D01*
X96878543Y-67716000D01*
X96546228Y-67853649D01*
G37*
G04 #@! TD.AperFunction*
D17*
X79776774Y-91487898D02*
X79854795Y-91676256D01*
X79951510Y-91821000D01*
X79370550Y-91821000D01*
X79345774Y-91823440D01*
X79321949Y-91830667D01*
X79299993Y-91842403D01*
X79280747Y-91858197D01*
X79264953Y-91877443D01*
X79253217Y-91899399D01*
X79245990Y-91923224D01*
X79243550Y-91948000D01*
X79243550Y-94522169D01*
X79227226Y-94440102D01*
X79149205Y-94251744D01*
X79035937Y-94082226D01*
X78992000Y-94038289D01*
X78992000Y-93706320D01*
X78995676Y-93668997D01*
X78992000Y-93631674D01*
X78992000Y-93631665D01*
X78981003Y-93520012D01*
X78937546Y-93376751D01*
X78866974Y-93244722D01*
X78772001Y-93128997D01*
X78743004Y-93105200D01*
X78361351Y-92723547D01*
X78533898Y-92689226D01*
X78722256Y-92611205D01*
X78891774Y-92497937D01*
X79035937Y-92353774D01*
X79149205Y-92184256D01*
X79227226Y-91995898D01*
X79267000Y-91795939D01*
X79267000Y-91592061D01*
X79236356Y-91438000D01*
X79766849Y-91438000D01*
X79776774Y-91487898D01*
G04 #@! TA.AperFunction,Conductor*
D18*
G36*
X79776774Y-91487898D02*
G01*
X79854795Y-91676256D01*
X79951510Y-91821000D01*
X79370550Y-91821000D01*
X79345774Y-91823440D01*
X79321949Y-91830667D01*
X79299993Y-91842403D01*
X79280747Y-91858197D01*
X79264953Y-91877443D01*
X79253217Y-91899399D01*
X79245990Y-91923224D01*
X79243550Y-91948000D01*
X79243550Y-94522169D01*
X79227226Y-94440102D01*
X79149205Y-94251744D01*
X79035937Y-94082226D01*
X78992000Y-94038289D01*
X78992000Y-93706320D01*
X78995676Y-93668997D01*
X78992000Y-93631674D01*
X78992000Y-93631665D01*
X78981003Y-93520012D01*
X78937546Y-93376751D01*
X78866974Y-93244722D01*
X78772001Y-93128997D01*
X78743004Y-93105200D01*
X78361351Y-92723547D01*
X78533898Y-92689226D01*
X78722256Y-92611205D01*
X78891774Y-92497937D01*
X79035937Y-92353774D01*
X79149205Y-92184256D01*
X79227226Y-91995898D01*
X79267000Y-91795939D01*
X79267000Y-91592061D01*
X79236356Y-91438000D01*
X79766849Y-91438000D01*
X79776774Y-91487898D01*
G37*
G04 #@! TD.AperFunction*
G04 #@! TD*
M02*
