G04 #@! TF.GenerationSoftware,KiCad,Pcbnew,(5.1.6-85-g2d1f6937d)*
G04 #@! TF.CreationDate,2020-10-24T22:50:34-07:00*
G04 #@! TF.ProjectId,3DProUsb,33445072-6f55-4736-922e-6b696361645f,rev?*
G04 #@! TF.SameCoordinates,Original*
G04 #@! TF.FileFunction,Other,Fab,Top*
%FSLAX46Y46*%
G04 Gerber Fmt 4.6, Leading zero omitted, Abs format (unit mm)*
G04 Created by KiCad (PCBNEW (5.1.6-85-g2d1f6937d)) date 2020-10-24 22:50:34*
%MOMM*%
%LPD*%
G01*
G04 APERTURE LIST*
%ADD10C,0.127000*%
%ADD11C,0.200000*%
%ADD12C,0.100000*%
%ADD13C,0.300000*%
%ADD14C,0.015000*%
%ADD15C,0.150000*%
%ADD16C,0.040000*%
%ADD17C,0.060000*%
%ADD18C,0.105000*%
%ADD19C,0.120000*%
G04 APERTURE END LIST*
D10*
G04 #@! TO.C,J1*
X69956000Y-81798000D02*
X69956000Y-89398000D01*
X69956000Y-89398000D02*
X65606000Y-89398000D01*
X65606000Y-89398000D02*
X64906000Y-89398000D01*
X64906000Y-89398000D02*
X64906000Y-81798000D01*
X64906000Y-81798000D02*
X64956000Y-81798000D01*
X64956000Y-81798000D02*
X69956000Y-81798000D01*
X64556000Y-81668000D02*
X64306000Y-81848000D01*
X64856000Y-82398000D02*
X64306000Y-82398000D01*
X64306000Y-82398000D02*
X64306000Y-88798000D01*
X64306000Y-88798000D02*
X64856000Y-88798000D01*
X64556000Y-89528000D02*
X64256000Y-89348000D01*
X65606000Y-89398000D02*
X65606000Y-91748000D01*
X64956000Y-81798000D02*
G75*
G02*
X64556000Y-81668000I-135000J265000D01*
G01*
X64306000Y-81848000D02*
G75*
G03*
X64856000Y-82198000I450000J100000D01*
G01*
X64956000Y-89398000D02*
G75*
G03*
X64556000Y-89528000I-135000J-265000D01*
G01*
X64256000Y-89348000D02*
G75*
G02*
X64856000Y-88998000I475000J-125000D01*
G01*
D11*
G04 #@! TO.C,U1*
X75032000Y-84114000D02*
G75*
G03*
X75032000Y-84114000I-100000J0D01*
G01*
D10*
X83002000Y-90114000D02*
X76002000Y-90114000D01*
X83002000Y-83114000D02*
X76002000Y-83114000D01*
X83002000Y-90114000D02*
X83002000Y-83114000D01*
X76002000Y-90114000D02*
X76002000Y-83114000D01*
D12*
G04 #@! TO.C,C11*
X72128000Y-86618000D02*
X72128000Y-87118000D01*
X72128000Y-87118000D02*
X71128000Y-87118000D01*
X71128000Y-87118000D02*
X71128000Y-86618000D01*
X71128000Y-86618000D02*
X72128000Y-86618000D01*
G04 #@! TO.C,REF\u002A\u002A*
X70842000Y-77978000D02*
G75*
G03*
X70842000Y-77978000I-1500000J0D01*
G01*
X106402000Y-103886000D02*
G75*
G03*
X106402000Y-103886000I-1500000J0D01*
G01*
X106148000Y-69850000D02*
G75*
G03*
X106148000Y-69850000I-1500000J0D01*
G01*
X75938000Y-82550000D02*
G75*
G03*
X75938000Y-82550000I-500000J0D01*
G01*
X75938000Y-90678000D02*
G75*
G03*
X75938000Y-90678000I-500000J0D01*
G01*
X84066000Y-82550000D02*
G75*
G03*
X84066000Y-82550000I-500000J0D01*
G01*
G04 #@! TO.C,SW1*
X82018000Y-102870000D02*
G75*
G03*
X82018000Y-102870000I-1500000J0D01*
G01*
X77518000Y-106020000D02*
X77518000Y-99720000D01*
X83518000Y-106020000D02*
X77518000Y-106020000D01*
X83518000Y-99720000D02*
X83518000Y-106020000D01*
X77518000Y-99720000D02*
X83518000Y-99720000D01*
G04 #@! TO.C,X1*
X83388000Y-93730000D02*
X82388000Y-92730000D01*
X83388000Y-95130000D02*
X83288000Y-95230000D01*
X83388000Y-92830000D02*
X83388000Y-95130000D01*
X83288000Y-92730000D02*
X83388000Y-92830000D01*
X80288000Y-92730000D02*
X83288000Y-92730000D01*
X80188000Y-92830000D02*
X80288000Y-92730000D01*
X80188000Y-95130000D02*
X80188000Y-92830000D01*
X80288000Y-95230000D02*
X80188000Y-95130000D01*
X83288000Y-95230000D02*
X80288000Y-95230000D01*
G04 #@! TO.C,D1*
X85560000Y-87230000D02*
X85560000Y-88030000D01*
X87160000Y-87230000D02*
X85560000Y-87230000D01*
X87160000Y-87730000D02*
X87160000Y-87230000D01*
X86860000Y-88030000D02*
X87160000Y-87730000D01*
X85560000Y-88030000D02*
X86860000Y-88030000D01*
G04 #@! TO.C,R7*
X85268000Y-92240000D02*
X85268000Y-90640000D01*
X85268000Y-90640000D02*
X88468000Y-90640000D01*
X88468000Y-90640000D02*
X88468000Y-92240000D01*
X88468000Y-92240000D02*
X85268000Y-92240000D01*
G04 #@! TO.C,R6*
X90432000Y-85848000D02*
X90432000Y-85348000D01*
X90432000Y-85348000D02*
X91432000Y-85348000D01*
X91432000Y-85348000D02*
X91432000Y-85848000D01*
X91432000Y-85848000D02*
X90432000Y-85848000D01*
G04 #@! TO.C,R5*
X87384000Y-85086000D02*
X87384000Y-84586000D01*
X87384000Y-84586000D02*
X88384000Y-84586000D01*
X88384000Y-84586000D02*
X88384000Y-85086000D01*
X88384000Y-85086000D02*
X87384000Y-85086000D01*
G04 #@! TO.C,R4*
X91432000Y-87380000D02*
X91432000Y-87880000D01*
X91432000Y-87880000D02*
X90432000Y-87880000D01*
X90432000Y-87880000D02*
X90432000Y-87380000D01*
X90432000Y-87380000D02*
X91432000Y-87380000D01*
G04 #@! TO.C,R3*
X84590000Y-84324000D02*
X84590000Y-83824000D01*
X84590000Y-83824000D02*
X85590000Y-83824000D01*
X85590000Y-83824000D02*
X85590000Y-84324000D01*
X85590000Y-84324000D02*
X84590000Y-84324000D01*
G04 #@! TO.C,R2*
X72128000Y-84586000D02*
X72128000Y-85086000D01*
X72128000Y-85086000D02*
X71128000Y-85086000D01*
X71128000Y-85086000D02*
X71128000Y-84586000D01*
X71128000Y-84586000D02*
X72128000Y-84586000D01*
G04 #@! TO.C,R1*
X72128000Y-85602000D02*
X72128000Y-86102000D01*
X72128000Y-86102000D02*
X71128000Y-86102000D01*
X71128000Y-86102000D02*
X71128000Y-85602000D01*
X71128000Y-85602000D02*
X72128000Y-85602000D01*
D10*
G04 #@! TO.C,J3*
X94610000Y-106468000D02*
X94610000Y-67268000D01*
X94610000Y-67268000D02*
X107310000Y-67268000D01*
X107310000Y-67268000D02*
X107310000Y-74518000D01*
X107310000Y-74518000D02*
X107310000Y-99218000D01*
X107310000Y-99218000D02*
X107310000Y-106468000D01*
X107310000Y-106468000D02*
X94610000Y-106468000D01*
D11*
X93962400Y-77233000D02*
G75*
G03*
X93962400Y-77233000I-100000J0D01*
G01*
D10*
X107310000Y-74518000D02*
X113110000Y-74518000D01*
X113110000Y-74518000D02*
X113110000Y-99218000D01*
X113110000Y-99218000D02*
X107310000Y-99218000D01*
G04 #@! TO.C,J2*
X66421000Y-91440000D02*
X76327000Y-91440000D01*
X76327000Y-91440000D02*
X76327000Y-97536000D01*
X76327000Y-97536000D02*
X66421000Y-97536000D01*
X66421000Y-97536000D02*
X66421000Y-91440000D01*
D13*
X70274000Y-95988000D02*
G75*
G03*
X70274000Y-95988000I-150000J0D01*
G01*
D12*
G04 #@! TO.C,C10*
X90432000Y-86864000D02*
X90432000Y-86364000D01*
X90432000Y-86364000D02*
X91432000Y-86364000D01*
X91432000Y-86364000D02*
X91432000Y-86864000D01*
X91432000Y-86864000D02*
X90432000Y-86864000D01*
G04 #@! TO.C,C9*
X87384000Y-86102000D02*
X87384000Y-85602000D01*
X87384000Y-85602000D02*
X88384000Y-85602000D01*
X88384000Y-85602000D02*
X88384000Y-86102000D01*
X88384000Y-86102000D02*
X87384000Y-86102000D01*
G04 #@! TO.C,C8*
X85098000Y-93468000D02*
X85098000Y-92968000D01*
X85098000Y-92968000D02*
X86098000Y-92968000D01*
X86098000Y-92968000D02*
X86098000Y-93468000D01*
X86098000Y-93468000D02*
X85098000Y-93468000D01*
G04 #@! TO.C,C7*
X80526000Y-96770000D02*
X80526000Y-96270000D01*
X80526000Y-96270000D02*
X81526000Y-96270000D01*
X81526000Y-96270000D02*
X81526000Y-96770000D01*
X81526000Y-96770000D02*
X80526000Y-96770000D01*
G04 #@! TO.C,C6*
X78228000Y-81272000D02*
X77728000Y-81272000D01*
X77728000Y-81272000D02*
X77728000Y-80272000D01*
X77728000Y-80272000D02*
X78228000Y-80272000D01*
X78228000Y-80272000D02*
X78228000Y-81272000D01*
G04 #@! TO.C,C5*
X83308000Y-79494000D02*
X82808000Y-79494000D01*
X82808000Y-79494000D02*
X82808000Y-78494000D01*
X82808000Y-78494000D02*
X83308000Y-78494000D01*
X83308000Y-78494000D02*
X83308000Y-79494000D01*
G04 #@! TO.C,C4*
X82292000Y-79494000D02*
X81792000Y-79494000D01*
X81792000Y-79494000D02*
X81792000Y-78494000D01*
X81792000Y-78494000D02*
X82292000Y-78494000D01*
X82292000Y-78494000D02*
X82292000Y-79494000D01*
G04 #@! TO.C,C3*
X81276000Y-79494000D02*
X80776000Y-79494000D01*
X80776000Y-79494000D02*
X80776000Y-78494000D01*
X80776000Y-78494000D02*
X81276000Y-78494000D01*
X81276000Y-78494000D02*
X81276000Y-79494000D01*
G04 #@! TO.C,C2*
X80260000Y-79494000D02*
X79760000Y-79494000D01*
X79760000Y-79494000D02*
X79760000Y-78494000D01*
X79760000Y-78494000D02*
X80260000Y-78494000D01*
X80260000Y-78494000D02*
X80260000Y-79494000D01*
G04 #@! TO.C,C1*
X79244000Y-79494000D02*
X78744000Y-79494000D01*
X78744000Y-79494000D02*
X78744000Y-78494000D01*
X78744000Y-78494000D02*
X79244000Y-78494000D01*
X79244000Y-78494000D02*
X79244000Y-79494000D01*
G04 #@! TD*
G04 #@! TO.C,J1*
D14*
X63739660Y-100181681D02*
X63739660Y-100753110D01*
X63739660Y-100467396D02*
X62739660Y-100467396D01*
X62882518Y-100562634D01*
X62977756Y-100657872D01*
X63025375Y-100753110D01*
X62739660Y-99562634D02*
X62739660Y-99467396D01*
X62787280Y-99372158D01*
X62834899Y-99324539D01*
X62930137Y-99276920D01*
X63120613Y-99229300D01*
X63358708Y-99229300D01*
X63549184Y-99276920D01*
X63644422Y-99324539D01*
X63692041Y-99372158D01*
X63739660Y-99467396D01*
X63739660Y-99562634D01*
X63692041Y-99657872D01*
X63644422Y-99705491D01*
X63549184Y-99753110D01*
X63358708Y-99800729D01*
X63120613Y-99800729D01*
X62930137Y-99753110D01*
X62834899Y-99705491D01*
X62787280Y-99657872D01*
X62739660Y-99562634D01*
X63739660Y-98276920D02*
X63739660Y-98848348D01*
X63739660Y-98562634D02*
X62739660Y-98562634D01*
X62882518Y-98657872D01*
X62977756Y-98753110D01*
X63025375Y-98848348D01*
X63739660Y-97324539D02*
X63739660Y-97895967D01*
X63739660Y-97610253D02*
X62739660Y-97610253D01*
X62882518Y-97705491D01*
X62977756Y-97800729D01*
X63025375Y-97895967D01*
X63168232Y-96753110D02*
X63120613Y-96848348D01*
X63072994Y-96895967D01*
X62977756Y-96943586D01*
X62930137Y-96943586D01*
X62834899Y-96895967D01*
X62787280Y-96848348D01*
X62739660Y-96753110D01*
X62739660Y-96562634D01*
X62787280Y-96467396D01*
X62834899Y-96419777D01*
X62930137Y-96372158D01*
X62977756Y-96372158D01*
X63072994Y-96419777D01*
X63120613Y-96467396D01*
X63168232Y-96562634D01*
X63168232Y-96753110D01*
X63215851Y-96848348D01*
X63263470Y-96895967D01*
X63358708Y-96943586D01*
X63549184Y-96943586D01*
X63644422Y-96895967D01*
X63692041Y-96848348D01*
X63739660Y-96753110D01*
X63739660Y-96562634D01*
X63692041Y-96467396D01*
X63644422Y-96419777D01*
X63549184Y-96372158D01*
X63358708Y-96372158D01*
X63263470Y-96419777D01*
X63215851Y-96467396D01*
X63168232Y-96562634D01*
X63739660Y-95419777D02*
X63739660Y-95991205D01*
X63739660Y-95705491D02*
X62739660Y-95705491D01*
X62882518Y-95800729D01*
X62977756Y-95895967D01*
X63025375Y-95991205D01*
X63739660Y-94943586D02*
X63739660Y-94753110D01*
X63692041Y-94657872D01*
X63644422Y-94610253D01*
X63501565Y-94515015D01*
X63311089Y-94467396D01*
X62930137Y-94467396D01*
X62834899Y-94515015D01*
X62787280Y-94562634D01*
X62739660Y-94657872D01*
X62739660Y-94848348D01*
X62787280Y-94943586D01*
X62834899Y-94991205D01*
X62930137Y-95038824D01*
X63168232Y-95038824D01*
X63263470Y-94991205D01*
X63311089Y-94943586D01*
X63358708Y-94848348D01*
X63358708Y-94657872D01*
X63311089Y-94562634D01*
X63263470Y-94515015D01*
X63168232Y-94467396D01*
X62739660Y-94134062D02*
X62739660Y-93515015D01*
X63120613Y-93848348D01*
X63120613Y-93705491D01*
X63168232Y-93610253D01*
X63215851Y-93562634D01*
X63311089Y-93515015D01*
X63549184Y-93515015D01*
X63644422Y-93562634D01*
X63692041Y-93610253D01*
X63739660Y-93705491D01*
X63739660Y-93991205D01*
X63692041Y-94086443D01*
X63644422Y-94134062D01*
X63358708Y-93086443D02*
X63358708Y-92324539D01*
X62739660Y-91657872D02*
X62739660Y-91562634D01*
X62787280Y-91467396D01*
X62834899Y-91419777D01*
X62930137Y-91372158D01*
X63120613Y-91324539D01*
X63358708Y-91324539D01*
X63549184Y-91372158D01*
X63644422Y-91419777D01*
X63692041Y-91467396D01*
X63739660Y-91562634D01*
X63739660Y-91657872D01*
X63692041Y-91753110D01*
X63644422Y-91800729D01*
X63549184Y-91848348D01*
X63358708Y-91895967D01*
X63120613Y-91895967D01*
X62930137Y-91848348D01*
X62834899Y-91800729D01*
X62787280Y-91753110D01*
X62739660Y-91657872D01*
X62739660Y-90705491D02*
X62739660Y-90610253D01*
X62787280Y-90515015D01*
X62834899Y-90467396D01*
X62930137Y-90419777D01*
X63120613Y-90372158D01*
X63358708Y-90372158D01*
X63549184Y-90419777D01*
X63644422Y-90467396D01*
X63692041Y-90515015D01*
X63739660Y-90610253D01*
X63739660Y-90705491D01*
X63692041Y-90800729D01*
X63644422Y-90848348D01*
X63549184Y-90895967D01*
X63358708Y-90943586D01*
X63120613Y-90943586D01*
X62930137Y-90895967D01*
X62834899Y-90848348D01*
X62787280Y-90800729D01*
X62739660Y-90705491D01*
X62739660Y-89753110D02*
X62739660Y-89657872D01*
X62787280Y-89562634D01*
X62834899Y-89515015D01*
X62930137Y-89467396D01*
X63120613Y-89419777D01*
X63358708Y-89419777D01*
X63549184Y-89467396D01*
X63644422Y-89515015D01*
X63692041Y-89562634D01*
X63739660Y-89657872D01*
X63739660Y-89753110D01*
X63692041Y-89848348D01*
X63644422Y-89895967D01*
X63549184Y-89943586D01*
X63358708Y-89991205D01*
X63120613Y-89991205D01*
X62930137Y-89943586D01*
X62834899Y-89895967D01*
X62787280Y-89848348D01*
X62739660Y-89753110D01*
X63739660Y-88467396D02*
X63739660Y-89038824D01*
X63739660Y-88753110D02*
X62739660Y-88753110D01*
X62882518Y-88848348D01*
X62977756Y-88943586D01*
X63025375Y-89038824D01*
X63739660Y-87562634D02*
X63739660Y-88038824D01*
X62739660Y-88038824D01*
X63215851Y-86895967D02*
X63215851Y-87229300D01*
X63739660Y-87229300D02*
X62739660Y-87229300D01*
X62739660Y-86753110D01*
X65900761Y-91224190D02*
X65580761Y-91224190D01*
X65580761Y-91102285D01*
X65596000Y-91071809D01*
X65611238Y-91056571D01*
X65641714Y-91041333D01*
X65687428Y-91041333D01*
X65717904Y-91056571D01*
X65733142Y-91071809D01*
X65748380Y-91102285D01*
X65748380Y-91224190D01*
X65870285Y-90721333D02*
X65885523Y-90736571D01*
X65900761Y-90782285D01*
X65900761Y-90812761D01*
X65885523Y-90858476D01*
X65855047Y-90888952D01*
X65824571Y-90904190D01*
X65763619Y-90919428D01*
X65717904Y-90919428D01*
X65656952Y-90904190D01*
X65626476Y-90888952D01*
X65596000Y-90858476D01*
X65580761Y-90812761D01*
X65580761Y-90782285D01*
X65596000Y-90736571D01*
X65611238Y-90721333D01*
X65733142Y-90477523D02*
X65748380Y-90431809D01*
X65763619Y-90416571D01*
X65794095Y-90401333D01*
X65839809Y-90401333D01*
X65870285Y-90416571D01*
X65885523Y-90431809D01*
X65900761Y-90462285D01*
X65900761Y-90584190D01*
X65580761Y-90584190D01*
X65580761Y-90477523D01*
X65596000Y-90447047D01*
X65611238Y-90431809D01*
X65641714Y-90416571D01*
X65672190Y-90416571D01*
X65702666Y-90431809D01*
X65717904Y-90447047D01*
X65733142Y-90477523D01*
X65733142Y-90584190D01*
X65506100Y-90340380D02*
X65506100Y-90050857D01*
X65733142Y-90264190D02*
X65733142Y-90157523D01*
X65900761Y-90111809D02*
X65900761Y-90264190D01*
X65580761Y-90264190D01*
X65580761Y-90111809D01*
X65506100Y-90050857D02*
X65506100Y-89715619D01*
X65900761Y-89974666D02*
X65580761Y-89974666D01*
X65900761Y-89791809D01*
X65580761Y-89791809D01*
X65506100Y-89715619D02*
X65506100Y-89395619D01*
X65900761Y-89639428D02*
X65580761Y-89639428D01*
X65580761Y-89563238D01*
X65596000Y-89517523D01*
X65626476Y-89487047D01*
X65656952Y-89471809D01*
X65717904Y-89456571D01*
X65763619Y-89456571D01*
X65824571Y-89471809D01*
X65855047Y-89487047D01*
X65885523Y-89517523D01*
X65900761Y-89563238D01*
X65900761Y-89639428D01*
G04 #@! TO.C,U1*
X79359904Y-81954666D02*
X79836095Y-81954666D01*
X79264666Y-82240380D02*
X79598000Y-81240380D01*
X79931333Y-82240380D01*
X80121809Y-81240380D02*
X80693238Y-81240380D01*
X80407523Y-82240380D02*
X80407523Y-81240380D01*
X81026571Y-82240380D02*
X81026571Y-81240380D01*
X81359904Y-81954666D01*
X81693238Y-81240380D01*
X81693238Y-82240380D01*
X82169428Y-81716571D02*
X82502761Y-81716571D01*
X82645619Y-82240380D02*
X82169428Y-82240380D01*
X82169428Y-81240380D01*
X82645619Y-81240380D01*
X83598000Y-81288000D02*
X83502761Y-81240380D01*
X83359904Y-81240380D01*
X83217047Y-81288000D01*
X83121809Y-81383238D01*
X83074190Y-81478476D01*
X83026571Y-81668952D01*
X83026571Y-81811809D01*
X83074190Y-82002285D01*
X83121809Y-82097523D01*
X83217047Y-82192761D01*
X83359904Y-82240380D01*
X83455142Y-82240380D01*
X83598000Y-82192761D01*
X83645619Y-82145142D01*
X83645619Y-81811809D01*
X83455142Y-81811809D01*
X84026571Y-81954666D02*
X84502761Y-81954666D01*
X83931333Y-82240380D02*
X84264666Y-81240380D01*
X84598000Y-82240380D01*
X84836095Y-81240380D02*
X85455142Y-81240380D01*
X85121809Y-81621333D01*
X85264666Y-81621333D01*
X85359904Y-81668952D01*
X85407523Y-81716571D01*
X85455142Y-81811809D01*
X85455142Y-82049904D01*
X85407523Y-82145142D01*
X85359904Y-82192761D01*
X85264666Y-82240380D01*
X84978952Y-82240380D01*
X84883714Y-82192761D01*
X84836095Y-82145142D01*
X85836095Y-81335619D02*
X85883714Y-81288000D01*
X85978952Y-81240380D01*
X86217047Y-81240380D01*
X86312285Y-81288000D01*
X86359904Y-81335619D01*
X86407523Y-81430857D01*
X86407523Y-81526095D01*
X86359904Y-81668952D01*
X85788476Y-82240380D01*
X86407523Y-82240380D01*
X86836095Y-81240380D02*
X86836095Y-82049904D01*
X86883714Y-82145142D01*
X86931333Y-82192761D01*
X87026571Y-82240380D01*
X87217047Y-82240380D01*
X87312285Y-82192761D01*
X87359904Y-82145142D01*
X87407523Y-82049904D01*
X87407523Y-81240380D01*
X88312285Y-81573714D02*
X88312285Y-82240380D01*
X88074190Y-81192761D02*
X87836095Y-81907047D01*
X88455142Y-81907047D01*
X88836095Y-81859428D02*
X89598000Y-81859428D01*
X90074190Y-82240380D02*
X90074190Y-81240380D01*
X90407523Y-81954666D01*
X90740857Y-81240380D01*
X90740857Y-82240380D01*
X91217047Y-81240380D02*
X91217047Y-82049904D01*
X91264666Y-82145142D01*
X91312285Y-82192761D01*
X91407523Y-82240380D01*
X91598000Y-82240380D01*
X91693238Y-82192761D01*
X91740857Y-82145142D01*
X91788476Y-82049904D01*
X91788476Y-81240380D01*
G04 #@! TO.C,C11*
D15*
X71032761Y-86150380D02*
X70461333Y-86150380D01*
X70747047Y-86150380D02*
X70747047Y-85150380D01*
X70651809Y-85293238D01*
X70556571Y-85388476D01*
X70461333Y-85436095D01*
X71889904Y-85483714D02*
X71889904Y-86150380D01*
X71461333Y-85483714D02*
X71461333Y-86007523D01*
X71508952Y-86102761D01*
X71604190Y-86150380D01*
X71747047Y-86150380D01*
X71842285Y-86102761D01*
X71889904Y-86055142D01*
X72699428Y-85626571D02*
X72366095Y-85626571D01*
X72366095Y-86150380D02*
X72366095Y-85150380D01*
X72842285Y-85150380D01*
D16*
X71467285Y-86957285D02*
X71455380Y-86969190D01*
X71419666Y-86981095D01*
X71395857Y-86981095D01*
X71360142Y-86969190D01*
X71336333Y-86945380D01*
X71324428Y-86921571D01*
X71312523Y-86873952D01*
X71312523Y-86838238D01*
X71324428Y-86790619D01*
X71336333Y-86766809D01*
X71360142Y-86743000D01*
X71395857Y-86731095D01*
X71419666Y-86731095D01*
X71455380Y-86743000D01*
X71467285Y-86754904D01*
X71705380Y-86981095D02*
X71562523Y-86981095D01*
X71633952Y-86981095D02*
X71633952Y-86731095D01*
X71610142Y-86766809D01*
X71586333Y-86790619D01*
X71562523Y-86802523D01*
X71943476Y-86981095D02*
X71800619Y-86981095D01*
X71872047Y-86981095D02*
X71872047Y-86731095D01*
X71848238Y-86766809D01*
X71824428Y-86790619D01*
X71800619Y-86802523D01*
G04 #@! TO.C,REF\u002A\u002A*
D15*
X66730571Y-93383523D02*
X66730571Y-93716857D01*
X67254380Y-93716857D02*
X66254380Y-93716857D01*
X66254380Y-93240666D01*
X67254380Y-92859714D02*
X66587714Y-92859714D01*
X66254380Y-92859714D02*
X66302000Y-92907333D01*
X66349619Y-92859714D01*
X66302000Y-92812095D01*
X66254380Y-92859714D01*
X66349619Y-92859714D01*
X67254380Y-91954952D02*
X66254380Y-91954952D01*
X67206761Y-91954952D02*
X67254380Y-92050190D01*
X67254380Y-92240666D01*
X67206761Y-92335904D01*
X67159142Y-92383523D01*
X67063904Y-92431142D01*
X66778190Y-92431142D01*
X66682952Y-92383523D01*
X66635333Y-92335904D01*
X66587714Y-92240666D01*
X66587714Y-92050190D01*
X66635333Y-91954952D01*
X66587714Y-91050190D02*
X67254380Y-91050190D01*
X66587714Y-91478761D02*
X67111523Y-91478761D01*
X67206761Y-91431142D01*
X67254380Y-91335904D01*
X67254380Y-91193047D01*
X67206761Y-91097809D01*
X67159142Y-91050190D01*
X67206761Y-90145428D02*
X67254380Y-90240666D01*
X67254380Y-90431142D01*
X67206761Y-90526380D01*
X67159142Y-90574000D01*
X67063904Y-90621619D01*
X66778190Y-90621619D01*
X66682952Y-90574000D01*
X66635333Y-90526380D01*
X66587714Y-90431142D01*
X66587714Y-90240666D01*
X66635333Y-90145428D01*
X67254380Y-89716857D02*
X66587714Y-89716857D01*
X66254380Y-89716857D02*
X66302000Y-89764476D01*
X66349619Y-89716857D01*
X66302000Y-89669238D01*
X66254380Y-89716857D01*
X66349619Y-89716857D01*
X67254380Y-88812095D02*
X66730571Y-88812095D01*
X66635333Y-88859714D01*
X66587714Y-88954952D01*
X66587714Y-89145428D01*
X66635333Y-89240666D01*
X67206761Y-88812095D02*
X67254380Y-88907333D01*
X67254380Y-89145428D01*
X67206761Y-89240666D01*
X67111523Y-89288285D01*
X67016285Y-89288285D01*
X66921047Y-89240666D01*
X66873428Y-89145428D01*
X66873428Y-88907333D01*
X66825809Y-88812095D01*
X67254380Y-88193047D02*
X67206761Y-88288285D01*
X67111523Y-88335904D01*
X66254380Y-88335904D01*
X67349619Y-88050190D02*
X67349619Y-87288285D01*
X67254380Y-86526380D02*
X67254380Y-87097809D01*
X67254380Y-86812095D02*
X66254380Y-86812095D01*
X66397238Y-86907333D01*
X66492476Y-87002571D01*
X66540095Y-87097809D01*
X67159142Y-86097809D02*
X67206761Y-86050190D01*
X67254380Y-86097809D01*
X67206761Y-86145428D01*
X67159142Y-86097809D01*
X67254380Y-86097809D01*
X66254380Y-85145428D02*
X66254380Y-85621619D01*
X66730571Y-85669238D01*
X66682952Y-85621619D01*
X66635333Y-85526380D01*
X66635333Y-85288285D01*
X66682952Y-85193047D01*
X66730571Y-85145428D01*
X66825809Y-85097809D01*
X67063904Y-85097809D01*
X67159142Y-85145428D01*
X67206761Y-85193047D01*
X67254380Y-85288285D01*
X67254380Y-85526380D01*
X67206761Y-85621619D01*
X67159142Y-85669238D01*
X67254380Y-84669238D02*
X66587714Y-84669238D01*
X66682952Y-84669238D02*
X66635333Y-84621619D01*
X66587714Y-84526380D01*
X66587714Y-84383523D01*
X66635333Y-84288285D01*
X66730571Y-84240666D01*
X67254380Y-84240666D01*
X66730571Y-84240666D02*
X66635333Y-84193047D01*
X66587714Y-84097809D01*
X66587714Y-83954952D01*
X66635333Y-83859714D01*
X66730571Y-83812095D01*
X67254380Y-83812095D01*
X67254380Y-83335904D02*
X66587714Y-83335904D01*
X66682952Y-83335904D02*
X66635333Y-83288285D01*
X66587714Y-83193047D01*
X66587714Y-83050190D01*
X66635333Y-82954952D01*
X66730571Y-82907333D01*
X67254380Y-82907333D01*
X66730571Y-82907333D02*
X66635333Y-82859714D01*
X66587714Y-82764476D01*
X66587714Y-82621619D01*
X66635333Y-82526380D01*
X66730571Y-82478761D01*
X67254380Y-82478761D01*
X67349619Y-82240666D02*
X67349619Y-81478761D01*
X67254380Y-81240666D02*
X66254380Y-81240666D01*
X66968666Y-80907333D01*
X66254380Y-80574000D01*
X67254380Y-80574000D01*
X67254380Y-79669238D02*
X66730571Y-79669238D01*
X66635333Y-79716857D01*
X66587714Y-79812095D01*
X66587714Y-80002571D01*
X66635333Y-80097809D01*
X67206761Y-79669238D02*
X67254380Y-79764476D01*
X67254380Y-80002571D01*
X67206761Y-80097809D01*
X67111523Y-80145428D01*
X67016285Y-80145428D01*
X66921047Y-80097809D01*
X66873428Y-80002571D01*
X66873428Y-79764476D01*
X66825809Y-79669238D01*
X67206761Y-79240666D02*
X67254380Y-79145428D01*
X67254380Y-78954952D01*
X67206761Y-78859714D01*
X67111523Y-78812095D01*
X67063904Y-78812095D01*
X66968666Y-78859714D01*
X66921047Y-78954952D01*
X66921047Y-79097809D01*
X66873428Y-79193047D01*
X66778190Y-79240666D01*
X66730571Y-79240666D01*
X66635333Y-79193047D01*
X66587714Y-79097809D01*
X66587714Y-78954952D01*
X66635333Y-78859714D01*
X67254380Y-78383523D02*
X66254380Y-78383523D01*
X66873428Y-78288285D02*
X67254380Y-78002571D01*
X66587714Y-78002571D02*
X66968666Y-78383523D01*
X66254380Y-77669238D02*
X66254380Y-77050190D01*
X66635333Y-77383523D01*
X66635333Y-77240666D01*
X66682952Y-77145428D01*
X66730571Y-77097809D01*
X66825809Y-77050190D01*
X67063904Y-77050190D01*
X67159142Y-77097809D01*
X67206761Y-77145428D01*
X67254380Y-77240666D01*
X67254380Y-77526380D01*
X67206761Y-77621619D01*
X67159142Y-77669238D01*
X67254380Y-76621619D02*
X66587714Y-76621619D01*
X66682952Y-76621619D02*
X66635333Y-76574000D01*
X66587714Y-76478761D01*
X66587714Y-76335904D01*
X66635333Y-76240666D01*
X66730571Y-76193047D01*
X67254380Y-76193047D01*
X66730571Y-76193047D02*
X66635333Y-76145428D01*
X66587714Y-76050190D01*
X66587714Y-75907333D01*
X66635333Y-75812095D01*
X66730571Y-75764476D01*
X67254380Y-75764476D01*
X67254380Y-75288285D02*
X66587714Y-75288285D01*
X66682952Y-75288285D02*
X66635333Y-75240666D01*
X66587714Y-75145428D01*
X66587714Y-75002571D01*
X66635333Y-74907333D01*
X66730571Y-74859714D01*
X67254380Y-74859714D01*
X66730571Y-74859714D02*
X66635333Y-74812095D01*
X66587714Y-74716857D01*
X66587714Y-74574000D01*
X66635333Y-74478761D01*
X66730571Y-74431142D01*
X67254380Y-74431142D01*
D17*
X68808666Y-78158952D02*
X68675333Y-77968476D01*
X68580095Y-78158952D02*
X68580095Y-77758952D01*
X68732476Y-77758952D01*
X68770571Y-77778000D01*
X68789619Y-77797047D01*
X68808666Y-77835142D01*
X68808666Y-77892285D01*
X68789619Y-77930380D01*
X68770571Y-77949428D01*
X68732476Y-77968476D01*
X68580095Y-77968476D01*
X68980095Y-77949428D02*
X69113428Y-77949428D01*
X69170571Y-78158952D02*
X68980095Y-78158952D01*
X68980095Y-77758952D01*
X69170571Y-77758952D01*
X69475333Y-77949428D02*
X69342000Y-77949428D01*
X69342000Y-78158952D02*
X69342000Y-77758952D01*
X69532476Y-77758952D01*
X69742000Y-77758952D02*
X69742000Y-77854190D01*
X69646761Y-77816095D02*
X69742000Y-77854190D01*
X69837238Y-77816095D01*
X69684857Y-77930380D02*
X69742000Y-77854190D01*
X69799142Y-77930380D01*
X70046761Y-77758952D02*
X70046761Y-77854190D01*
X69951523Y-77816095D02*
X70046761Y-77854190D01*
X70142000Y-77816095D01*
X69989619Y-77930380D02*
X70046761Y-77854190D01*
X70103904Y-77930380D01*
D15*
X107370571Y-106337523D02*
X107370571Y-106670857D01*
X107894380Y-106670857D02*
X106894380Y-106670857D01*
X106894380Y-106194666D01*
X107894380Y-105813714D02*
X107227714Y-105813714D01*
X106894380Y-105813714D02*
X106942000Y-105861333D01*
X106989619Y-105813714D01*
X106942000Y-105766095D01*
X106894380Y-105813714D01*
X106989619Y-105813714D01*
X107894380Y-104908952D02*
X106894380Y-104908952D01*
X107846761Y-104908952D02*
X107894380Y-105004190D01*
X107894380Y-105194666D01*
X107846761Y-105289904D01*
X107799142Y-105337523D01*
X107703904Y-105385142D01*
X107418190Y-105385142D01*
X107322952Y-105337523D01*
X107275333Y-105289904D01*
X107227714Y-105194666D01*
X107227714Y-105004190D01*
X107275333Y-104908952D01*
X107227714Y-104004190D02*
X107894380Y-104004190D01*
X107227714Y-104432761D02*
X107751523Y-104432761D01*
X107846761Y-104385142D01*
X107894380Y-104289904D01*
X107894380Y-104147047D01*
X107846761Y-104051809D01*
X107799142Y-104004190D01*
X107846761Y-103099428D02*
X107894380Y-103194666D01*
X107894380Y-103385142D01*
X107846761Y-103480380D01*
X107799142Y-103528000D01*
X107703904Y-103575619D01*
X107418190Y-103575619D01*
X107322952Y-103528000D01*
X107275333Y-103480380D01*
X107227714Y-103385142D01*
X107227714Y-103194666D01*
X107275333Y-103099428D01*
X107894380Y-102670857D02*
X107227714Y-102670857D01*
X106894380Y-102670857D02*
X106942000Y-102718476D01*
X106989619Y-102670857D01*
X106942000Y-102623238D01*
X106894380Y-102670857D01*
X106989619Y-102670857D01*
X107894380Y-101766095D02*
X107370571Y-101766095D01*
X107275333Y-101813714D01*
X107227714Y-101908952D01*
X107227714Y-102099428D01*
X107275333Y-102194666D01*
X107846761Y-101766095D02*
X107894380Y-101861333D01*
X107894380Y-102099428D01*
X107846761Y-102194666D01*
X107751523Y-102242285D01*
X107656285Y-102242285D01*
X107561047Y-102194666D01*
X107513428Y-102099428D01*
X107513428Y-101861333D01*
X107465809Y-101766095D01*
X107894380Y-101147047D02*
X107846761Y-101242285D01*
X107751523Y-101289904D01*
X106894380Y-101289904D01*
X107989619Y-101004190D02*
X107989619Y-100242285D01*
X107894380Y-99480380D02*
X107894380Y-100051809D01*
X107894380Y-99766095D02*
X106894380Y-99766095D01*
X107037238Y-99861333D01*
X107132476Y-99956571D01*
X107180095Y-100051809D01*
X107799142Y-99051809D02*
X107846761Y-99004190D01*
X107894380Y-99051809D01*
X107846761Y-99099428D01*
X107799142Y-99051809D01*
X107894380Y-99051809D01*
X106894380Y-98099428D02*
X106894380Y-98575619D01*
X107370571Y-98623238D01*
X107322952Y-98575619D01*
X107275333Y-98480380D01*
X107275333Y-98242285D01*
X107322952Y-98147047D01*
X107370571Y-98099428D01*
X107465809Y-98051809D01*
X107703904Y-98051809D01*
X107799142Y-98099428D01*
X107846761Y-98147047D01*
X107894380Y-98242285D01*
X107894380Y-98480380D01*
X107846761Y-98575619D01*
X107799142Y-98623238D01*
X107894380Y-97623238D02*
X107227714Y-97623238D01*
X107322952Y-97623238D02*
X107275333Y-97575619D01*
X107227714Y-97480380D01*
X107227714Y-97337523D01*
X107275333Y-97242285D01*
X107370571Y-97194666D01*
X107894380Y-97194666D01*
X107370571Y-97194666D02*
X107275333Y-97147047D01*
X107227714Y-97051809D01*
X107227714Y-96908952D01*
X107275333Y-96813714D01*
X107370571Y-96766095D01*
X107894380Y-96766095D01*
X107894380Y-96289904D02*
X107227714Y-96289904D01*
X107322952Y-96289904D02*
X107275333Y-96242285D01*
X107227714Y-96147047D01*
X107227714Y-96004190D01*
X107275333Y-95908952D01*
X107370571Y-95861333D01*
X107894380Y-95861333D01*
X107370571Y-95861333D02*
X107275333Y-95813714D01*
X107227714Y-95718476D01*
X107227714Y-95575619D01*
X107275333Y-95480380D01*
X107370571Y-95432761D01*
X107894380Y-95432761D01*
X107989619Y-95194666D02*
X107989619Y-94432761D01*
X107894380Y-94194666D02*
X106894380Y-94194666D01*
X107608666Y-93861333D01*
X106894380Y-93528000D01*
X107894380Y-93528000D01*
X107894380Y-92623238D02*
X107370571Y-92623238D01*
X107275333Y-92670857D01*
X107227714Y-92766095D01*
X107227714Y-92956571D01*
X107275333Y-93051809D01*
X107846761Y-92623238D02*
X107894380Y-92718476D01*
X107894380Y-92956571D01*
X107846761Y-93051809D01*
X107751523Y-93099428D01*
X107656285Y-93099428D01*
X107561047Y-93051809D01*
X107513428Y-92956571D01*
X107513428Y-92718476D01*
X107465809Y-92623238D01*
X107846761Y-92194666D02*
X107894380Y-92099428D01*
X107894380Y-91908952D01*
X107846761Y-91813714D01*
X107751523Y-91766095D01*
X107703904Y-91766095D01*
X107608666Y-91813714D01*
X107561047Y-91908952D01*
X107561047Y-92051809D01*
X107513428Y-92147047D01*
X107418190Y-92194666D01*
X107370571Y-92194666D01*
X107275333Y-92147047D01*
X107227714Y-92051809D01*
X107227714Y-91908952D01*
X107275333Y-91813714D01*
X107894380Y-91337523D02*
X106894380Y-91337523D01*
X107513428Y-91242285D02*
X107894380Y-90956571D01*
X107227714Y-90956571D02*
X107608666Y-91337523D01*
X106894380Y-90623238D02*
X106894380Y-90004190D01*
X107275333Y-90337523D01*
X107275333Y-90194666D01*
X107322952Y-90099428D01*
X107370571Y-90051809D01*
X107465809Y-90004190D01*
X107703904Y-90004190D01*
X107799142Y-90051809D01*
X107846761Y-90099428D01*
X107894380Y-90194666D01*
X107894380Y-90480380D01*
X107846761Y-90575619D01*
X107799142Y-90623238D01*
X107894380Y-89575619D02*
X107227714Y-89575619D01*
X107322952Y-89575619D02*
X107275333Y-89528000D01*
X107227714Y-89432761D01*
X107227714Y-89289904D01*
X107275333Y-89194666D01*
X107370571Y-89147047D01*
X107894380Y-89147047D01*
X107370571Y-89147047D02*
X107275333Y-89099428D01*
X107227714Y-89004190D01*
X107227714Y-88861333D01*
X107275333Y-88766095D01*
X107370571Y-88718476D01*
X107894380Y-88718476D01*
X107894380Y-88242285D02*
X107227714Y-88242285D01*
X107322952Y-88242285D02*
X107275333Y-88194666D01*
X107227714Y-88099428D01*
X107227714Y-87956571D01*
X107275333Y-87861333D01*
X107370571Y-87813714D01*
X107894380Y-87813714D01*
X107370571Y-87813714D02*
X107275333Y-87766095D01*
X107227714Y-87670857D01*
X107227714Y-87528000D01*
X107275333Y-87432761D01*
X107370571Y-87385142D01*
X107894380Y-87385142D01*
D17*
X104368666Y-104066952D02*
X104235333Y-103876476D01*
X104140095Y-104066952D02*
X104140095Y-103666952D01*
X104292476Y-103666952D01*
X104330571Y-103686000D01*
X104349619Y-103705047D01*
X104368666Y-103743142D01*
X104368666Y-103800285D01*
X104349619Y-103838380D01*
X104330571Y-103857428D01*
X104292476Y-103876476D01*
X104140095Y-103876476D01*
X104540095Y-103857428D02*
X104673428Y-103857428D01*
X104730571Y-104066952D02*
X104540095Y-104066952D01*
X104540095Y-103666952D01*
X104730571Y-103666952D01*
X105035333Y-103857428D02*
X104902000Y-103857428D01*
X104902000Y-104066952D02*
X104902000Y-103666952D01*
X105092476Y-103666952D01*
X105302000Y-103666952D02*
X105302000Y-103762190D01*
X105206761Y-103724095D02*
X105302000Y-103762190D01*
X105397238Y-103724095D01*
X105244857Y-103838380D02*
X105302000Y-103762190D01*
X105359142Y-103838380D01*
X105606761Y-103666952D02*
X105606761Y-103762190D01*
X105511523Y-103724095D02*
X105606761Y-103762190D01*
X105702000Y-103724095D01*
X105549619Y-103838380D02*
X105606761Y-103762190D01*
X105663904Y-103838380D01*
D15*
X105846571Y-90843523D02*
X105846571Y-91176857D01*
X106370380Y-91176857D02*
X105370380Y-91176857D01*
X105370380Y-90700666D01*
X106370380Y-90319714D02*
X105703714Y-90319714D01*
X105370380Y-90319714D02*
X105418000Y-90367333D01*
X105465619Y-90319714D01*
X105418000Y-90272095D01*
X105370380Y-90319714D01*
X105465619Y-90319714D01*
X106370380Y-89414952D02*
X105370380Y-89414952D01*
X106322761Y-89414952D02*
X106370380Y-89510190D01*
X106370380Y-89700666D01*
X106322761Y-89795904D01*
X106275142Y-89843523D01*
X106179904Y-89891142D01*
X105894190Y-89891142D01*
X105798952Y-89843523D01*
X105751333Y-89795904D01*
X105703714Y-89700666D01*
X105703714Y-89510190D01*
X105751333Y-89414952D01*
X105703714Y-88510190D02*
X106370380Y-88510190D01*
X105703714Y-88938761D02*
X106227523Y-88938761D01*
X106322761Y-88891142D01*
X106370380Y-88795904D01*
X106370380Y-88653047D01*
X106322761Y-88557809D01*
X106275142Y-88510190D01*
X106322761Y-87605428D02*
X106370380Y-87700666D01*
X106370380Y-87891142D01*
X106322761Y-87986380D01*
X106275142Y-88034000D01*
X106179904Y-88081619D01*
X105894190Y-88081619D01*
X105798952Y-88034000D01*
X105751333Y-87986380D01*
X105703714Y-87891142D01*
X105703714Y-87700666D01*
X105751333Y-87605428D01*
X106370380Y-87176857D02*
X105703714Y-87176857D01*
X105370380Y-87176857D02*
X105418000Y-87224476D01*
X105465619Y-87176857D01*
X105418000Y-87129238D01*
X105370380Y-87176857D01*
X105465619Y-87176857D01*
X106370380Y-86272095D02*
X105846571Y-86272095D01*
X105751333Y-86319714D01*
X105703714Y-86414952D01*
X105703714Y-86605428D01*
X105751333Y-86700666D01*
X106322761Y-86272095D02*
X106370380Y-86367333D01*
X106370380Y-86605428D01*
X106322761Y-86700666D01*
X106227523Y-86748285D01*
X106132285Y-86748285D01*
X106037047Y-86700666D01*
X105989428Y-86605428D01*
X105989428Y-86367333D01*
X105941809Y-86272095D01*
X106370380Y-85653047D02*
X106322761Y-85748285D01*
X106227523Y-85795904D01*
X105370380Y-85795904D01*
X106465619Y-85510190D02*
X106465619Y-84748285D01*
X106370380Y-83986380D02*
X106370380Y-84557809D01*
X106370380Y-84272095D02*
X105370380Y-84272095D01*
X105513238Y-84367333D01*
X105608476Y-84462571D01*
X105656095Y-84557809D01*
X106275142Y-83557809D02*
X106322761Y-83510190D01*
X106370380Y-83557809D01*
X106322761Y-83605428D01*
X106275142Y-83557809D01*
X106370380Y-83557809D01*
X105370380Y-82605428D02*
X105370380Y-83081619D01*
X105846571Y-83129238D01*
X105798952Y-83081619D01*
X105751333Y-82986380D01*
X105751333Y-82748285D01*
X105798952Y-82653047D01*
X105846571Y-82605428D01*
X105941809Y-82557809D01*
X106179904Y-82557809D01*
X106275142Y-82605428D01*
X106322761Y-82653047D01*
X106370380Y-82748285D01*
X106370380Y-82986380D01*
X106322761Y-83081619D01*
X106275142Y-83129238D01*
X106370380Y-82129238D02*
X105703714Y-82129238D01*
X105798952Y-82129238D02*
X105751333Y-82081619D01*
X105703714Y-81986380D01*
X105703714Y-81843523D01*
X105751333Y-81748285D01*
X105846571Y-81700666D01*
X106370380Y-81700666D01*
X105846571Y-81700666D02*
X105751333Y-81653047D01*
X105703714Y-81557809D01*
X105703714Y-81414952D01*
X105751333Y-81319714D01*
X105846571Y-81272095D01*
X106370380Y-81272095D01*
X106370380Y-80795904D02*
X105703714Y-80795904D01*
X105798952Y-80795904D02*
X105751333Y-80748285D01*
X105703714Y-80653047D01*
X105703714Y-80510190D01*
X105751333Y-80414952D01*
X105846571Y-80367333D01*
X106370380Y-80367333D01*
X105846571Y-80367333D02*
X105751333Y-80319714D01*
X105703714Y-80224476D01*
X105703714Y-80081619D01*
X105751333Y-79986380D01*
X105846571Y-79938761D01*
X106370380Y-79938761D01*
X106465619Y-79700666D02*
X106465619Y-78938761D01*
X106370380Y-78700666D02*
X105370380Y-78700666D01*
X106084666Y-78367333D01*
X105370380Y-78034000D01*
X106370380Y-78034000D01*
X106370380Y-77129238D02*
X105846571Y-77129238D01*
X105751333Y-77176857D01*
X105703714Y-77272095D01*
X105703714Y-77462571D01*
X105751333Y-77557809D01*
X106322761Y-77129238D02*
X106370380Y-77224476D01*
X106370380Y-77462571D01*
X106322761Y-77557809D01*
X106227523Y-77605428D01*
X106132285Y-77605428D01*
X106037047Y-77557809D01*
X105989428Y-77462571D01*
X105989428Y-77224476D01*
X105941809Y-77129238D01*
X106322761Y-76700666D02*
X106370380Y-76605428D01*
X106370380Y-76414952D01*
X106322761Y-76319714D01*
X106227523Y-76272095D01*
X106179904Y-76272095D01*
X106084666Y-76319714D01*
X106037047Y-76414952D01*
X106037047Y-76557809D01*
X105989428Y-76653047D01*
X105894190Y-76700666D01*
X105846571Y-76700666D01*
X105751333Y-76653047D01*
X105703714Y-76557809D01*
X105703714Y-76414952D01*
X105751333Y-76319714D01*
X106370380Y-75843523D02*
X105370380Y-75843523D01*
X105989428Y-75748285D02*
X106370380Y-75462571D01*
X105703714Y-75462571D02*
X106084666Y-75843523D01*
X105370380Y-75129238D02*
X105370380Y-74510190D01*
X105751333Y-74843523D01*
X105751333Y-74700666D01*
X105798952Y-74605428D01*
X105846571Y-74557809D01*
X105941809Y-74510190D01*
X106179904Y-74510190D01*
X106275142Y-74557809D01*
X106322761Y-74605428D01*
X106370380Y-74700666D01*
X106370380Y-74986380D01*
X106322761Y-75081619D01*
X106275142Y-75129238D01*
X106370380Y-74081619D02*
X105703714Y-74081619D01*
X105798952Y-74081619D02*
X105751333Y-74034000D01*
X105703714Y-73938761D01*
X105703714Y-73795904D01*
X105751333Y-73700666D01*
X105846571Y-73653047D01*
X106370380Y-73653047D01*
X105846571Y-73653047D02*
X105751333Y-73605428D01*
X105703714Y-73510190D01*
X105703714Y-73367333D01*
X105751333Y-73272095D01*
X105846571Y-73224476D01*
X106370380Y-73224476D01*
X106370380Y-72748285D02*
X105703714Y-72748285D01*
X105798952Y-72748285D02*
X105751333Y-72700666D01*
X105703714Y-72605428D01*
X105703714Y-72462571D01*
X105751333Y-72367333D01*
X105846571Y-72319714D01*
X106370380Y-72319714D01*
X105846571Y-72319714D02*
X105751333Y-72272095D01*
X105703714Y-72176857D01*
X105703714Y-72034000D01*
X105751333Y-71938761D01*
X105846571Y-71891142D01*
X106370380Y-71891142D01*
D17*
X104114666Y-70030952D02*
X103981333Y-69840476D01*
X103886095Y-70030952D02*
X103886095Y-69630952D01*
X104038476Y-69630952D01*
X104076571Y-69650000D01*
X104095619Y-69669047D01*
X104114666Y-69707142D01*
X104114666Y-69764285D01*
X104095619Y-69802380D01*
X104076571Y-69821428D01*
X104038476Y-69840476D01*
X103886095Y-69840476D01*
X104286095Y-69821428D02*
X104419428Y-69821428D01*
X104476571Y-70030952D02*
X104286095Y-70030952D01*
X104286095Y-69630952D01*
X104476571Y-69630952D01*
X104781333Y-69821428D02*
X104648000Y-69821428D01*
X104648000Y-70030952D02*
X104648000Y-69630952D01*
X104838476Y-69630952D01*
X105048000Y-69630952D02*
X105048000Y-69726190D01*
X104952761Y-69688095D02*
X105048000Y-69726190D01*
X105143238Y-69688095D01*
X104990857Y-69802380D02*
X105048000Y-69726190D01*
X105105142Y-69802380D01*
X105352761Y-69630952D02*
X105352761Y-69726190D01*
X105257523Y-69688095D02*
X105352761Y-69726190D01*
X105448000Y-69688095D01*
X105295619Y-69802380D02*
X105352761Y-69726190D01*
X105409904Y-69802380D01*
D15*
X66128476Y-83978571D02*
X65795142Y-83978571D01*
X65795142Y-84502380D02*
X65795142Y-83502380D01*
X66271333Y-83502380D01*
X66652285Y-84502380D02*
X66652285Y-83835714D01*
X66652285Y-83502380D02*
X66604666Y-83550000D01*
X66652285Y-83597619D01*
X66699904Y-83550000D01*
X66652285Y-83502380D01*
X66652285Y-83597619D01*
X67557047Y-84502380D02*
X67557047Y-83502380D01*
X67557047Y-84454761D02*
X67461809Y-84502380D01*
X67271333Y-84502380D01*
X67176095Y-84454761D01*
X67128476Y-84407142D01*
X67080857Y-84311904D01*
X67080857Y-84026190D01*
X67128476Y-83930952D01*
X67176095Y-83883333D01*
X67271333Y-83835714D01*
X67461809Y-83835714D01*
X67557047Y-83883333D01*
X68461809Y-83835714D02*
X68461809Y-84502380D01*
X68033238Y-83835714D02*
X68033238Y-84359523D01*
X68080857Y-84454761D01*
X68176095Y-84502380D01*
X68318952Y-84502380D01*
X68414190Y-84454761D01*
X68461809Y-84407142D01*
X69366571Y-84454761D02*
X69271333Y-84502380D01*
X69080857Y-84502380D01*
X68985619Y-84454761D01*
X68938000Y-84407142D01*
X68890380Y-84311904D01*
X68890380Y-84026190D01*
X68938000Y-83930952D01*
X68985619Y-83883333D01*
X69080857Y-83835714D01*
X69271333Y-83835714D01*
X69366571Y-83883333D01*
X69795142Y-84502380D02*
X69795142Y-83835714D01*
X69795142Y-83502380D02*
X69747523Y-83550000D01*
X69795142Y-83597619D01*
X69842761Y-83550000D01*
X69795142Y-83502380D01*
X69795142Y-83597619D01*
X70699904Y-84502380D02*
X70699904Y-83978571D01*
X70652285Y-83883333D01*
X70557047Y-83835714D01*
X70366571Y-83835714D01*
X70271333Y-83883333D01*
X70699904Y-84454761D02*
X70604666Y-84502380D01*
X70366571Y-84502380D01*
X70271333Y-84454761D01*
X70223714Y-84359523D01*
X70223714Y-84264285D01*
X70271333Y-84169047D01*
X70366571Y-84121428D01*
X70604666Y-84121428D01*
X70699904Y-84073809D01*
X71318952Y-84502380D02*
X71223714Y-84454761D01*
X71176095Y-84359523D01*
X71176095Y-83502380D01*
X71461809Y-84597619D02*
X72223714Y-84597619D01*
X72652285Y-83502380D02*
X72747523Y-83502380D01*
X72842761Y-83550000D01*
X72890380Y-83597619D01*
X72938000Y-83692857D01*
X72985619Y-83883333D01*
X72985619Y-84121428D01*
X72938000Y-84311904D01*
X72890380Y-84407142D01*
X72842761Y-84454761D01*
X72747523Y-84502380D01*
X72652285Y-84502380D01*
X72557047Y-84454761D01*
X72509428Y-84407142D01*
X72461809Y-84311904D01*
X72414190Y-84121428D01*
X72414190Y-83883333D01*
X72461809Y-83692857D01*
X72509428Y-83597619D01*
X72557047Y-83550000D01*
X72652285Y-83502380D01*
X73414190Y-84407142D02*
X73461809Y-84454761D01*
X73414190Y-84502380D01*
X73366571Y-84454761D01*
X73414190Y-84407142D01*
X73414190Y-84502380D01*
X74366571Y-83502380D02*
X73890380Y-83502380D01*
X73842761Y-83978571D01*
X73890380Y-83930952D01*
X73985619Y-83883333D01*
X74223714Y-83883333D01*
X74318952Y-83930952D01*
X74366571Y-83978571D01*
X74414190Y-84073809D01*
X74414190Y-84311904D01*
X74366571Y-84407142D01*
X74318952Y-84454761D01*
X74223714Y-84502380D01*
X73985619Y-84502380D01*
X73890380Y-84454761D01*
X73842761Y-84407142D01*
X74842761Y-84502380D02*
X74842761Y-83835714D01*
X74842761Y-83930952D02*
X74890380Y-83883333D01*
X74985619Y-83835714D01*
X75128476Y-83835714D01*
X75223714Y-83883333D01*
X75271333Y-83978571D01*
X75271333Y-84502380D01*
X75271333Y-83978571D02*
X75318952Y-83883333D01*
X75414190Y-83835714D01*
X75557047Y-83835714D01*
X75652285Y-83883333D01*
X75699904Y-83978571D01*
X75699904Y-84502380D01*
X76176095Y-84502380D02*
X76176095Y-83835714D01*
X76176095Y-83930952D02*
X76223714Y-83883333D01*
X76318952Y-83835714D01*
X76461809Y-83835714D01*
X76557047Y-83883333D01*
X76604666Y-83978571D01*
X76604666Y-84502380D01*
X76604666Y-83978571D02*
X76652285Y-83883333D01*
X76747523Y-83835714D01*
X76890380Y-83835714D01*
X76985619Y-83883333D01*
X77033238Y-83978571D01*
X77033238Y-84502380D01*
X77271333Y-84597619D02*
X78033238Y-84597619D01*
X78271333Y-84502380D02*
X78271333Y-83502380D01*
X78604666Y-84216666D01*
X78938000Y-83502380D01*
X78938000Y-84502380D01*
X79842761Y-84502380D02*
X79842761Y-83978571D01*
X79795142Y-83883333D01*
X79699904Y-83835714D01*
X79509428Y-83835714D01*
X79414190Y-83883333D01*
X79842761Y-84454761D02*
X79747523Y-84502380D01*
X79509428Y-84502380D01*
X79414190Y-84454761D01*
X79366571Y-84359523D01*
X79366571Y-84264285D01*
X79414190Y-84169047D01*
X79509428Y-84121428D01*
X79747523Y-84121428D01*
X79842761Y-84073809D01*
X80271333Y-84454761D02*
X80366571Y-84502380D01*
X80557047Y-84502380D01*
X80652285Y-84454761D01*
X80699904Y-84359523D01*
X80699904Y-84311904D01*
X80652285Y-84216666D01*
X80557047Y-84169047D01*
X80414190Y-84169047D01*
X80318952Y-84121428D01*
X80271333Y-84026190D01*
X80271333Y-83978571D01*
X80318952Y-83883333D01*
X80414190Y-83835714D01*
X80557047Y-83835714D01*
X80652285Y-83883333D01*
X81128476Y-84502380D02*
X81128476Y-83502380D01*
X81223714Y-84121428D02*
X81509428Y-84502380D01*
X81509428Y-83835714D02*
X81128476Y-84216666D01*
X82461809Y-84502380D02*
X81890380Y-84502380D01*
X82176095Y-84502380D02*
X82176095Y-83502380D01*
X82080857Y-83645238D01*
X81985619Y-83740476D01*
X81890380Y-83788095D01*
X82890380Y-84502380D02*
X82890380Y-83835714D01*
X82890380Y-83930952D02*
X82938000Y-83883333D01*
X83033238Y-83835714D01*
X83176095Y-83835714D01*
X83271333Y-83883333D01*
X83318952Y-83978571D01*
X83318952Y-84502380D01*
X83318952Y-83978571D02*
X83366571Y-83883333D01*
X83461809Y-83835714D01*
X83604666Y-83835714D01*
X83699904Y-83883333D01*
X83747523Y-83978571D01*
X83747523Y-84502380D01*
X84223714Y-84502380D02*
X84223714Y-83835714D01*
X84223714Y-83930952D02*
X84271333Y-83883333D01*
X84366571Y-83835714D01*
X84509428Y-83835714D01*
X84604666Y-83883333D01*
X84652285Y-83978571D01*
X84652285Y-84502380D01*
X84652285Y-83978571D02*
X84699904Y-83883333D01*
X84795142Y-83835714D01*
X84938000Y-83835714D01*
X85033238Y-83883333D01*
X85080857Y-83978571D01*
X85080857Y-84502380D01*
D16*
X75171333Y-82640476D02*
X75104666Y-82545238D01*
X75057047Y-82640476D02*
X75057047Y-82440476D01*
X75133238Y-82440476D01*
X75152285Y-82450000D01*
X75161809Y-82459523D01*
X75171333Y-82478571D01*
X75171333Y-82507142D01*
X75161809Y-82526190D01*
X75152285Y-82535714D01*
X75133238Y-82545238D01*
X75057047Y-82545238D01*
X75257047Y-82535714D02*
X75323714Y-82535714D01*
X75352285Y-82640476D02*
X75257047Y-82640476D01*
X75257047Y-82440476D01*
X75352285Y-82440476D01*
X75504666Y-82535714D02*
X75438000Y-82535714D01*
X75438000Y-82640476D02*
X75438000Y-82440476D01*
X75533238Y-82440476D01*
X75638000Y-82440476D02*
X75638000Y-82488095D01*
X75590380Y-82469047D02*
X75638000Y-82488095D01*
X75685619Y-82469047D01*
X75609428Y-82526190D02*
X75638000Y-82488095D01*
X75666571Y-82526190D01*
X75790380Y-82440476D02*
X75790380Y-82488095D01*
X75742761Y-82469047D02*
X75790380Y-82488095D01*
X75838000Y-82469047D01*
X75761809Y-82526190D02*
X75790380Y-82488095D01*
X75818952Y-82526190D01*
D15*
X66128476Y-92106571D02*
X65795142Y-92106571D01*
X65795142Y-92630380D02*
X65795142Y-91630380D01*
X66271333Y-91630380D01*
X66652285Y-92630380D02*
X66652285Y-91963714D01*
X66652285Y-91630380D02*
X66604666Y-91678000D01*
X66652285Y-91725619D01*
X66699904Y-91678000D01*
X66652285Y-91630380D01*
X66652285Y-91725619D01*
X67557047Y-92630380D02*
X67557047Y-91630380D01*
X67557047Y-92582761D02*
X67461809Y-92630380D01*
X67271333Y-92630380D01*
X67176095Y-92582761D01*
X67128476Y-92535142D01*
X67080857Y-92439904D01*
X67080857Y-92154190D01*
X67128476Y-92058952D01*
X67176095Y-92011333D01*
X67271333Y-91963714D01*
X67461809Y-91963714D01*
X67557047Y-92011333D01*
X68461809Y-91963714D02*
X68461809Y-92630380D01*
X68033238Y-91963714D02*
X68033238Y-92487523D01*
X68080857Y-92582761D01*
X68176095Y-92630380D01*
X68318952Y-92630380D01*
X68414190Y-92582761D01*
X68461809Y-92535142D01*
X69366571Y-92582761D02*
X69271333Y-92630380D01*
X69080857Y-92630380D01*
X68985619Y-92582761D01*
X68938000Y-92535142D01*
X68890380Y-92439904D01*
X68890380Y-92154190D01*
X68938000Y-92058952D01*
X68985619Y-92011333D01*
X69080857Y-91963714D01*
X69271333Y-91963714D01*
X69366571Y-92011333D01*
X69795142Y-92630380D02*
X69795142Y-91963714D01*
X69795142Y-91630380D02*
X69747523Y-91678000D01*
X69795142Y-91725619D01*
X69842761Y-91678000D01*
X69795142Y-91630380D01*
X69795142Y-91725619D01*
X70699904Y-92630380D02*
X70699904Y-92106571D01*
X70652285Y-92011333D01*
X70557047Y-91963714D01*
X70366571Y-91963714D01*
X70271333Y-92011333D01*
X70699904Y-92582761D02*
X70604666Y-92630380D01*
X70366571Y-92630380D01*
X70271333Y-92582761D01*
X70223714Y-92487523D01*
X70223714Y-92392285D01*
X70271333Y-92297047D01*
X70366571Y-92249428D01*
X70604666Y-92249428D01*
X70699904Y-92201809D01*
X71318952Y-92630380D02*
X71223714Y-92582761D01*
X71176095Y-92487523D01*
X71176095Y-91630380D01*
X71461809Y-92725619D02*
X72223714Y-92725619D01*
X72652285Y-91630380D02*
X72747523Y-91630380D01*
X72842761Y-91678000D01*
X72890380Y-91725619D01*
X72938000Y-91820857D01*
X72985619Y-92011333D01*
X72985619Y-92249428D01*
X72938000Y-92439904D01*
X72890380Y-92535142D01*
X72842761Y-92582761D01*
X72747523Y-92630380D01*
X72652285Y-92630380D01*
X72557047Y-92582761D01*
X72509428Y-92535142D01*
X72461809Y-92439904D01*
X72414190Y-92249428D01*
X72414190Y-92011333D01*
X72461809Y-91820857D01*
X72509428Y-91725619D01*
X72557047Y-91678000D01*
X72652285Y-91630380D01*
X73414190Y-92535142D02*
X73461809Y-92582761D01*
X73414190Y-92630380D01*
X73366571Y-92582761D01*
X73414190Y-92535142D01*
X73414190Y-92630380D01*
X74366571Y-91630380D02*
X73890380Y-91630380D01*
X73842761Y-92106571D01*
X73890380Y-92058952D01*
X73985619Y-92011333D01*
X74223714Y-92011333D01*
X74318952Y-92058952D01*
X74366571Y-92106571D01*
X74414190Y-92201809D01*
X74414190Y-92439904D01*
X74366571Y-92535142D01*
X74318952Y-92582761D01*
X74223714Y-92630380D01*
X73985619Y-92630380D01*
X73890380Y-92582761D01*
X73842761Y-92535142D01*
X74842761Y-92630380D02*
X74842761Y-91963714D01*
X74842761Y-92058952D02*
X74890380Y-92011333D01*
X74985619Y-91963714D01*
X75128476Y-91963714D01*
X75223714Y-92011333D01*
X75271333Y-92106571D01*
X75271333Y-92630380D01*
X75271333Y-92106571D02*
X75318952Y-92011333D01*
X75414190Y-91963714D01*
X75557047Y-91963714D01*
X75652285Y-92011333D01*
X75699904Y-92106571D01*
X75699904Y-92630380D01*
X76176095Y-92630380D02*
X76176095Y-91963714D01*
X76176095Y-92058952D02*
X76223714Y-92011333D01*
X76318952Y-91963714D01*
X76461809Y-91963714D01*
X76557047Y-92011333D01*
X76604666Y-92106571D01*
X76604666Y-92630380D01*
X76604666Y-92106571D02*
X76652285Y-92011333D01*
X76747523Y-91963714D01*
X76890380Y-91963714D01*
X76985619Y-92011333D01*
X77033238Y-92106571D01*
X77033238Y-92630380D01*
X77271333Y-92725619D02*
X78033238Y-92725619D01*
X78271333Y-92630380D02*
X78271333Y-91630380D01*
X78604666Y-92344666D01*
X78938000Y-91630380D01*
X78938000Y-92630380D01*
X79842761Y-92630380D02*
X79842761Y-92106571D01*
X79795142Y-92011333D01*
X79699904Y-91963714D01*
X79509428Y-91963714D01*
X79414190Y-92011333D01*
X79842761Y-92582761D02*
X79747523Y-92630380D01*
X79509428Y-92630380D01*
X79414190Y-92582761D01*
X79366571Y-92487523D01*
X79366571Y-92392285D01*
X79414190Y-92297047D01*
X79509428Y-92249428D01*
X79747523Y-92249428D01*
X79842761Y-92201809D01*
X80271333Y-92582761D02*
X80366571Y-92630380D01*
X80557047Y-92630380D01*
X80652285Y-92582761D01*
X80699904Y-92487523D01*
X80699904Y-92439904D01*
X80652285Y-92344666D01*
X80557047Y-92297047D01*
X80414190Y-92297047D01*
X80318952Y-92249428D01*
X80271333Y-92154190D01*
X80271333Y-92106571D01*
X80318952Y-92011333D01*
X80414190Y-91963714D01*
X80557047Y-91963714D01*
X80652285Y-92011333D01*
X81128476Y-92630380D02*
X81128476Y-91630380D01*
X81223714Y-92249428D02*
X81509428Y-92630380D01*
X81509428Y-91963714D02*
X81128476Y-92344666D01*
X82461809Y-92630380D02*
X81890380Y-92630380D01*
X82176095Y-92630380D02*
X82176095Y-91630380D01*
X82080857Y-91773238D01*
X81985619Y-91868476D01*
X81890380Y-91916095D01*
X82890380Y-92630380D02*
X82890380Y-91963714D01*
X82890380Y-92058952D02*
X82938000Y-92011333D01*
X83033238Y-91963714D01*
X83176095Y-91963714D01*
X83271333Y-92011333D01*
X83318952Y-92106571D01*
X83318952Y-92630380D01*
X83318952Y-92106571D02*
X83366571Y-92011333D01*
X83461809Y-91963714D01*
X83604666Y-91963714D01*
X83699904Y-92011333D01*
X83747523Y-92106571D01*
X83747523Y-92630380D01*
X84223714Y-92630380D02*
X84223714Y-91963714D01*
X84223714Y-92058952D02*
X84271333Y-92011333D01*
X84366571Y-91963714D01*
X84509428Y-91963714D01*
X84604666Y-92011333D01*
X84652285Y-92106571D01*
X84652285Y-92630380D01*
X84652285Y-92106571D02*
X84699904Y-92011333D01*
X84795142Y-91963714D01*
X84938000Y-91963714D01*
X85033238Y-92011333D01*
X85080857Y-92106571D01*
X85080857Y-92630380D01*
D16*
X75171333Y-90768476D02*
X75104666Y-90673238D01*
X75057047Y-90768476D02*
X75057047Y-90568476D01*
X75133238Y-90568476D01*
X75152285Y-90578000D01*
X75161809Y-90587523D01*
X75171333Y-90606571D01*
X75171333Y-90635142D01*
X75161809Y-90654190D01*
X75152285Y-90663714D01*
X75133238Y-90673238D01*
X75057047Y-90673238D01*
X75257047Y-90663714D02*
X75323714Y-90663714D01*
X75352285Y-90768476D02*
X75257047Y-90768476D01*
X75257047Y-90568476D01*
X75352285Y-90568476D01*
X75504666Y-90663714D02*
X75438000Y-90663714D01*
X75438000Y-90768476D02*
X75438000Y-90568476D01*
X75533238Y-90568476D01*
X75638000Y-90568476D02*
X75638000Y-90616095D01*
X75590380Y-90597047D02*
X75638000Y-90616095D01*
X75685619Y-90597047D01*
X75609428Y-90654190D02*
X75638000Y-90616095D01*
X75666571Y-90654190D01*
X75790380Y-90568476D02*
X75790380Y-90616095D01*
X75742761Y-90597047D02*
X75790380Y-90616095D01*
X75838000Y-90597047D01*
X75761809Y-90654190D02*
X75790380Y-90616095D01*
X75818952Y-90654190D01*
D15*
X74256476Y-83978571D02*
X73923142Y-83978571D01*
X73923142Y-84502380D02*
X73923142Y-83502380D01*
X74399333Y-83502380D01*
X74780285Y-84502380D02*
X74780285Y-83835714D01*
X74780285Y-83502380D02*
X74732666Y-83550000D01*
X74780285Y-83597619D01*
X74827904Y-83550000D01*
X74780285Y-83502380D01*
X74780285Y-83597619D01*
X75685047Y-84502380D02*
X75685047Y-83502380D01*
X75685047Y-84454761D02*
X75589809Y-84502380D01*
X75399333Y-84502380D01*
X75304095Y-84454761D01*
X75256476Y-84407142D01*
X75208857Y-84311904D01*
X75208857Y-84026190D01*
X75256476Y-83930952D01*
X75304095Y-83883333D01*
X75399333Y-83835714D01*
X75589809Y-83835714D01*
X75685047Y-83883333D01*
X76589809Y-83835714D02*
X76589809Y-84502380D01*
X76161238Y-83835714D02*
X76161238Y-84359523D01*
X76208857Y-84454761D01*
X76304095Y-84502380D01*
X76446952Y-84502380D01*
X76542190Y-84454761D01*
X76589809Y-84407142D01*
X77494571Y-84454761D02*
X77399333Y-84502380D01*
X77208857Y-84502380D01*
X77113619Y-84454761D01*
X77066000Y-84407142D01*
X77018380Y-84311904D01*
X77018380Y-84026190D01*
X77066000Y-83930952D01*
X77113619Y-83883333D01*
X77208857Y-83835714D01*
X77399333Y-83835714D01*
X77494571Y-83883333D01*
X77923142Y-84502380D02*
X77923142Y-83835714D01*
X77923142Y-83502380D02*
X77875523Y-83550000D01*
X77923142Y-83597619D01*
X77970761Y-83550000D01*
X77923142Y-83502380D01*
X77923142Y-83597619D01*
X78827904Y-84502380D02*
X78827904Y-83978571D01*
X78780285Y-83883333D01*
X78685047Y-83835714D01*
X78494571Y-83835714D01*
X78399333Y-83883333D01*
X78827904Y-84454761D02*
X78732666Y-84502380D01*
X78494571Y-84502380D01*
X78399333Y-84454761D01*
X78351714Y-84359523D01*
X78351714Y-84264285D01*
X78399333Y-84169047D01*
X78494571Y-84121428D01*
X78732666Y-84121428D01*
X78827904Y-84073809D01*
X79446952Y-84502380D02*
X79351714Y-84454761D01*
X79304095Y-84359523D01*
X79304095Y-83502380D01*
X79589809Y-84597619D02*
X80351714Y-84597619D01*
X80780285Y-83502380D02*
X80875523Y-83502380D01*
X80970761Y-83550000D01*
X81018380Y-83597619D01*
X81066000Y-83692857D01*
X81113619Y-83883333D01*
X81113619Y-84121428D01*
X81066000Y-84311904D01*
X81018380Y-84407142D01*
X80970761Y-84454761D01*
X80875523Y-84502380D01*
X80780285Y-84502380D01*
X80685047Y-84454761D01*
X80637428Y-84407142D01*
X80589809Y-84311904D01*
X80542190Y-84121428D01*
X80542190Y-83883333D01*
X80589809Y-83692857D01*
X80637428Y-83597619D01*
X80685047Y-83550000D01*
X80780285Y-83502380D01*
X81542190Y-84407142D02*
X81589809Y-84454761D01*
X81542190Y-84502380D01*
X81494571Y-84454761D01*
X81542190Y-84407142D01*
X81542190Y-84502380D01*
X82494571Y-83502380D02*
X82018380Y-83502380D01*
X81970761Y-83978571D01*
X82018380Y-83930952D01*
X82113619Y-83883333D01*
X82351714Y-83883333D01*
X82446952Y-83930952D01*
X82494571Y-83978571D01*
X82542190Y-84073809D01*
X82542190Y-84311904D01*
X82494571Y-84407142D01*
X82446952Y-84454761D01*
X82351714Y-84502380D01*
X82113619Y-84502380D01*
X82018380Y-84454761D01*
X81970761Y-84407142D01*
X82970761Y-84502380D02*
X82970761Y-83835714D01*
X82970761Y-83930952D02*
X83018380Y-83883333D01*
X83113619Y-83835714D01*
X83256476Y-83835714D01*
X83351714Y-83883333D01*
X83399333Y-83978571D01*
X83399333Y-84502380D01*
X83399333Y-83978571D02*
X83446952Y-83883333D01*
X83542190Y-83835714D01*
X83685047Y-83835714D01*
X83780285Y-83883333D01*
X83827904Y-83978571D01*
X83827904Y-84502380D01*
X84304095Y-84502380D02*
X84304095Y-83835714D01*
X84304095Y-83930952D02*
X84351714Y-83883333D01*
X84446952Y-83835714D01*
X84589809Y-83835714D01*
X84685047Y-83883333D01*
X84732666Y-83978571D01*
X84732666Y-84502380D01*
X84732666Y-83978571D02*
X84780285Y-83883333D01*
X84875523Y-83835714D01*
X85018380Y-83835714D01*
X85113619Y-83883333D01*
X85161238Y-83978571D01*
X85161238Y-84502380D01*
X85399333Y-84597619D02*
X86161238Y-84597619D01*
X86399333Y-84502380D02*
X86399333Y-83502380D01*
X86732666Y-84216666D01*
X87066000Y-83502380D01*
X87066000Y-84502380D01*
X87970761Y-84502380D02*
X87970761Y-83978571D01*
X87923142Y-83883333D01*
X87827904Y-83835714D01*
X87637428Y-83835714D01*
X87542190Y-83883333D01*
X87970761Y-84454761D02*
X87875523Y-84502380D01*
X87637428Y-84502380D01*
X87542190Y-84454761D01*
X87494571Y-84359523D01*
X87494571Y-84264285D01*
X87542190Y-84169047D01*
X87637428Y-84121428D01*
X87875523Y-84121428D01*
X87970761Y-84073809D01*
X88399333Y-84454761D02*
X88494571Y-84502380D01*
X88685047Y-84502380D01*
X88780285Y-84454761D01*
X88827904Y-84359523D01*
X88827904Y-84311904D01*
X88780285Y-84216666D01*
X88685047Y-84169047D01*
X88542190Y-84169047D01*
X88446952Y-84121428D01*
X88399333Y-84026190D01*
X88399333Y-83978571D01*
X88446952Y-83883333D01*
X88542190Y-83835714D01*
X88685047Y-83835714D01*
X88780285Y-83883333D01*
X89256476Y-84502380D02*
X89256476Y-83502380D01*
X89351714Y-84121428D02*
X89637428Y-84502380D01*
X89637428Y-83835714D02*
X89256476Y-84216666D01*
X90589809Y-84502380D02*
X90018380Y-84502380D01*
X90304095Y-84502380D02*
X90304095Y-83502380D01*
X90208857Y-83645238D01*
X90113619Y-83740476D01*
X90018380Y-83788095D01*
X91018380Y-84502380D02*
X91018380Y-83835714D01*
X91018380Y-83930952D02*
X91066000Y-83883333D01*
X91161238Y-83835714D01*
X91304095Y-83835714D01*
X91399333Y-83883333D01*
X91446952Y-83978571D01*
X91446952Y-84502380D01*
X91446952Y-83978571D02*
X91494571Y-83883333D01*
X91589809Y-83835714D01*
X91732666Y-83835714D01*
X91827904Y-83883333D01*
X91875523Y-83978571D01*
X91875523Y-84502380D01*
X92351714Y-84502380D02*
X92351714Y-83835714D01*
X92351714Y-83930952D02*
X92399333Y-83883333D01*
X92494571Y-83835714D01*
X92637428Y-83835714D01*
X92732666Y-83883333D01*
X92780285Y-83978571D01*
X92780285Y-84502380D01*
X92780285Y-83978571D02*
X92827904Y-83883333D01*
X92923142Y-83835714D01*
X93066000Y-83835714D01*
X93161238Y-83883333D01*
X93208857Y-83978571D01*
X93208857Y-84502380D01*
D16*
X83299333Y-82640476D02*
X83232666Y-82545238D01*
X83185047Y-82640476D02*
X83185047Y-82440476D01*
X83261238Y-82440476D01*
X83280285Y-82450000D01*
X83289809Y-82459523D01*
X83299333Y-82478571D01*
X83299333Y-82507142D01*
X83289809Y-82526190D01*
X83280285Y-82535714D01*
X83261238Y-82545238D01*
X83185047Y-82545238D01*
X83385047Y-82535714D02*
X83451714Y-82535714D01*
X83480285Y-82640476D02*
X83385047Y-82640476D01*
X83385047Y-82440476D01*
X83480285Y-82440476D01*
X83632666Y-82535714D02*
X83566000Y-82535714D01*
X83566000Y-82640476D02*
X83566000Y-82440476D01*
X83661238Y-82440476D01*
X83766000Y-82440476D02*
X83766000Y-82488095D01*
X83718380Y-82469047D02*
X83766000Y-82488095D01*
X83813619Y-82469047D01*
X83737428Y-82526190D02*
X83766000Y-82488095D01*
X83794571Y-82526190D01*
X83918380Y-82440476D02*
X83918380Y-82488095D01*
X83870761Y-82469047D02*
X83918380Y-82488095D01*
X83966000Y-82469047D01*
X83889809Y-82526190D02*
X83918380Y-82488095D01*
X83946952Y-82526190D01*
D15*
X73169238Y-105608380D02*
X73169238Y-104608380D01*
X73502571Y-105322666D01*
X73835904Y-104608380D01*
X73835904Y-105608380D01*
X74454952Y-105608380D02*
X74359714Y-105560761D01*
X74312095Y-105513142D01*
X74264476Y-105417904D01*
X74264476Y-105132190D01*
X74312095Y-105036952D01*
X74359714Y-104989333D01*
X74454952Y-104941714D01*
X74597809Y-104941714D01*
X74693047Y-104989333D01*
X74740666Y-105036952D01*
X74788285Y-105132190D01*
X74788285Y-105417904D01*
X74740666Y-105513142D01*
X74693047Y-105560761D01*
X74597809Y-105608380D01*
X74454952Y-105608380D01*
X75645428Y-104941714D02*
X75645428Y-105608380D01*
X75216857Y-104941714D02*
X75216857Y-105465523D01*
X75264476Y-105560761D01*
X75359714Y-105608380D01*
X75502571Y-105608380D01*
X75597809Y-105560761D01*
X75645428Y-105513142D01*
X76121619Y-104941714D02*
X76121619Y-105608380D01*
X76121619Y-105036952D02*
X76169238Y-104989333D01*
X76264476Y-104941714D01*
X76407333Y-104941714D01*
X76502571Y-104989333D01*
X76550190Y-105084571D01*
X76550190Y-105608380D01*
X76883523Y-104941714D02*
X77264476Y-104941714D01*
X77026380Y-104608380D02*
X77026380Y-105465523D01*
X77074000Y-105560761D01*
X77169238Y-105608380D01*
X77264476Y-105608380D01*
X77597809Y-105608380D02*
X77597809Y-104941714D01*
X77597809Y-104608380D02*
X77550190Y-104656000D01*
X77597809Y-104703619D01*
X77645428Y-104656000D01*
X77597809Y-104608380D01*
X77597809Y-104703619D01*
X78073999Y-104941714D02*
X78073999Y-105608380D01*
X78073999Y-105036952D02*
X78121619Y-104989333D01*
X78216857Y-104941714D01*
X78359714Y-104941714D01*
X78454952Y-104989333D01*
X78502571Y-105084571D01*
X78502571Y-105608380D01*
X79407333Y-104941714D02*
X79407333Y-105751238D01*
X79359714Y-105846476D01*
X79312095Y-105894095D01*
X79216857Y-105941714D01*
X79073999Y-105941714D01*
X78978761Y-105894095D01*
X79407333Y-105560761D02*
X79312095Y-105608380D01*
X79121619Y-105608380D01*
X79026380Y-105560761D01*
X78978761Y-105513142D01*
X78931142Y-105417904D01*
X78931142Y-105132190D01*
X78978761Y-105036952D01*
X79026380Y-104989333D01*
X79121619Y-104941714D01*
X79312095Y-104941714D01*
X79407333Y-104989333D01*
X79883523Y-105608380D02*
X79883523Y-104608380D01*
X79883523Y-105084571D02*
X80454952Y-105084571D01*
X80454952Y-105608380D02*
X80454952Y-104608380D01*
X81073999Y-105608380D02*
X80978761Y-105560761D01*
X80931142Y-105513142D01*
X80883523Y-105417904D01*
X80883523Y-105132190D01*
X80931142Y-105036952D01*
X80978761Y-104989333D01*
X81073999Y-104941714D01*
X81216857Y-104941714D01*
X81312095Y-104989333D01*
X81359714Y-105036952D01*
X81407333Y-105132190D01*
X81407333Y-105417904D01*
X81359714Y-105513142D01*
X81312095Y-105560761D01*
X81216857Y-105608380D01*
X81073999Y-105608380D01*
X81978761Y-105608380D02*
X81883523Y-105560761D01*
X81835904Y-105465523D01*
X81835904Y-104608380D01*
X82740666Y-105560761D02*
X82645428Y-105608380D01*
X82454952Y-105608380D01*
X82359714Y-105560761D01*
X82312095Y-105465523D01*
X82312095Y-105084571D01*
X82359714Y-104989333D01*
X82454952Y-104941714D01*
X82645428Y-104941714D01*
X82740666Y-104989333D01*
X82788285Y-105084571D01*
X82788285Y-105179809D01*
X82312095Y-105275047D01*
X82978761Y-105703619D02*
X83740666Y-105703619D01*
X83883523Y-104608380D02*
X84502571Y-104608380D01*
X84169238Y-104989333D01*
X84312095Y-104989333D01*
X84407333Y-105036952D01*
X84454952Y-105084571D01*
X84502571Y-105179809D01*
X84502571Y-105417904D01*
X84454952Y-105513142D01*
X84407333Y-105560761D01*
X84312095Y-105608380D01*
X84026380Y-105608380D01*
X83931142Y-105560761D01*
X83883523Y-105513142D01*
X84931142Y-105513142D02*
X84978761Y-105560761D01*
X84931142Y-105608380D01*
X84883523Y-105560761D01*
X84931142Y-105513142D01*
X84931142Y-105608380D01*
X85359714Y-104703619D02*
X85407333Y-104656000D01*
X85502571Y-104608380D01*
X85740666Y-104608380D01*
X85835904Y-104656000D01*
X85883523Y-104703619D01*
X85931142Y-104798857D01*
X85931142Y-104894095D01*
X85883523Y-105036952D01*
X85312095Y-105608380D01*
X85931142Y-105608380D01*
X86359714Y-105608380D02*
X86359714Y-104941714D01*
X86359714Y-105036952D02*
X86407333Y-104989333D01*
X86502571Y-104941714D01*
X86645428Y-104941714D01*
X86740666Y-104989333D01*
X86788285Y-105084571D01*
X86788285Y-105608380D01*
X86788285Y-105084571D02*
X86835904Y-104989333D01*
X86931142Y-104941714D01*
X87073999Y-104941714D01*
X87169238Y-104989333D01*
X87216857Y-105084571D01*
X87216857Y-105608380D01*
X87693047Y-105608380D02*
X87693047Y-104941714D01*
X87693047Y-105036952D02*
X87740666Y-104989333D01*
X87835904Y-104941714D01*
X87978761Y-104941714D01*
X88073999Y-104989333D01*
X88121619Y-105084571D01*
X88121619Y-105608380D01*
X88121619Y-105084571D02*
X88169238Y-104989333D01*
X88264476Y-104941714D01*
X88407333Y-104941714D01*
X88502571Y-104989333D01*
X88550190Y-105084571D01*
X88550190Y-105608380D01*
X88788285Y-105703619D02*
X89550190Y-105703619D01*
X89788285Y-105608380D02*
X89788285Y-104608380D01*
X90121619Y-105322666D01*
X90454952Y-104608380D01*
X90454952Y-105608380D01*
X90835904Y-104608380D02*
X91454952Y-104608380D01*
X91121619Y-104989333D01*
X91264476Y-104989333D01*
X91359714Y-105036952D01*
X91407333Y-105084571D01*
X91454952Y-105179809D01*
X91454952Y-105417904D01*
X91407333Y-105513142D01*
X91359714Y-105560761D01*
X91264476Y-105608380D01*
X90978761Y-105608380D01*
X90883523Y-105560761D01*
X90835904Y-105513142D01*
X91645428Y-105703619D02*
X92407333Y-105703619D01*
X92645428Y-105608380D02*
X92645428Y-104608380D01*
X93026380Y-104608380D01*
X93121619Y-104656000D01*
X93169238Y-104703619D01*
X93216857Y-104798857D01*
X93216857Y-104941714D01*
X93169238Y-105036952D01*
X93121619Y-105084571D01*
X93026380Y-105132190D01*
X92645428Y-105132190D01*
X94073999Y-105608380D02*
X94073999Y-105084571D01*
X94026380Y-104989333D01*
X93931142Y-104941714D01*
X93740666Y-104941714D01*
X93645428Y-104989333D01*
X94073999Y-105560761D02*
X93978761Y-105608380D01*
X93740666Y-105608380D01*
X93645428Y-105560761D01*
X93597809Y-105465523D01*
X93597809Y-105370285D01*
X93645428Y-105275047D01*
X93740666Y-105227428D01*
X93978761Y-105227428D01*
X94073999Y-105179809D01*
X94978761Y-105608380D02*
X94978761Y-104608380D01*
X94978761Y-105560761D02*
X94883523Y-105608380D01*
X94693047Y-105608380D01*
X94597809Y-105560761D01*
X94550190Y-105513142D01*
X94502571Y-105417904D01*
X94502571Y-105132190D01*
X94550190Y-105036952D01*
X94597809Y-104989333D01*
X94693047Y-104941714D01*
X94883523Y-104941714D01*
X94978761Y-104989333D01*
X69070666Y-102560380D02*
X68737333Y-102084190D01*
X68499238Y-102560380D02*
X68499238Y-101560380D01*
X68880190Y-101560380D01*
X68975428Y-101608000D01*
X69023047Y-101655619D01*
X69070666Y-101750857D01*
X69070666Y-101893714D01*
X69023047Y-101988952D01*
X68975428Y-102036571D01*
X68880190Y-102084190D01*
X68499238Y-102084190D01*
X69499238Y-102036571D02*
X69832571Y-102036571D01*
X69975428Y-102560380D02*
X69499238Y-102560380D01*
X69499238Y-101560380D01*
X69975428Y-101560380D01*
X70737333Y-102036571D02*
X70404000Y-102036571D01*
X70404000Y-102560380D02*
X70404000Y-101560380D01*
X70880190Y-101560380D01*
X71404000Y-101560380D02*
X71404000Y-101798476D01*
X71165904Y-101703238D02*
X71404000Y-101798476D01*
X71642095Y-101703238D01*
X71261142Y-101988952D02*
X71404000Y-101798476D01*
X71546857Y-101988952D01*
X72165904Y-101560380D02*
X72165904Y-101798476D01*
X71927809Y-101703238D02*
X72165904Y-101798476D01*
X72404000Y-101703238D01*
X72023047Y-101988952D02*
X72165904Y-101798476D01*
X72308761Y-101988952D01*
X73169238Y-69286380D02*
X73169238Y-68286380D01*
X73502571Y-69000666D01*
X73835904Y-68286380D01*
X73835904Y-69286380D01*
X74454952Y-69286380D02*
X74359714Y-69238761D01*
X74312095Y-69191142D01*
X74264476Y-69095904D01*
X74264476Y-68810190D01*
X74312095Y-68714952D01*
X74359714Y-68667333D01*
X74454952Y-68619714D01*
X74597809Y-68619714D01*
X74693047Y-68667333D01*
X74740666Y-68714952D01*
X74788285Y-68810190D01*
X74788285Y-69095904D01*
X74740666Y-69191142D01*
X74693047Y-69238761D01*
X74597809Y-69286380D01*
X74454952Y-69286380D01*
X75645428Y-68619714D02*
X75645428Y-69286380D01*
X75216857Y-68619714D02*
X75216857Y-69143523D01*
X75264476Y-69238761D01*
X75359714Y-69286380D01*
X75502571Y-69286380D01*
X75597809Y-69238761D01*
X75645428Y-69191142D01*
X76121619Y-68619714D02*
X76121619Y-69286380D01*
X76121619Y-68714952D02*
X76169238Y-68667333D01*
X76264476Y-68619714D01*
X76407333Y-68619714D01*
X76502571Y-68667333D01*
X76550190Y-68762571D01*
X76550190Y-69286380D01*
X76883523Y-68619714D02*
X77264476Y-68619714D01*
X77026380Y-68286380D02*
X77026380Y-69143523D01*
X77074000Y-69238761D01*
X77169238Y-69286380D01*
X77264476Y-69286380D01*
X77597809Y-69286380D02*
X77597809Y-68619714D01*
X77597809Y-68286380D02*
X77550190Y-68334000D01*
X77597809Y-68381619D01*
X77645428Y-68334000D01*
X77597809Y-68286380D01*
X77597809Y-68381619D01*
X78073999Y-68619714D02*
X78073999Y-69286380D01*
X78073999Y-68714952D02*
X78121619Y-68667333D01*
X78216857Y-68619714D01*
X78359714Y-68619714D01*
X78454952Y-68667333D01*
X78502571Y-68762571D01*
X78502571Y-69286380D01*
X79407333Y-68619714D02*
X79407333Y-69429238D01*
X79359714Y-69524476D01*
X79312095Y-69572095D01*
X79216857Y-69619714D01*
X79073999Y-69619714D01*
X78978761Y-69572095D01*
X79407333Y-69238761D02*
X79312095Y-69286380D01*
X79121619Y-69286380D01*
X79026380Y-69238761D01*
X78978761Y-69191142D01*
X78931142Y-69095904D01*
X78931142Y-68810190D01*
X78978761Y-68714952D01*
X79026380Y-68667333D01*
X79121619Y-68619714D01*
X79312095Y-68619714D01*
X79407333Y-68667333D01*
X79883523Y-69286380D02*
X79883523Y-68286380D01*
X79883523Y-68762571D02*
X80454952Y-68762571D01*
X80454952Y-69286380D02*
X80454952Y-68286380D01*
X81073999Y-69286380D02*
X80978761Y-69238761D01*
X80931142Y-69191142D01*
X80883523Y-69095904D01*
X80883523Y-68810190D01*
X80931142Y-68714952D01*
X80978761Y-68667333D01*
X81073999Y-68619714D01*
X81216857Y-68619714D01*
X81312095Y-68667333D01*
X81359714Y-68714952D01*
X81407333Y-68810190D01*
X81407333Y-69095904D01*
X81359714Y-69191142D01*
X81312095Y-69238761D01*
X81216857Y-69286380D01*
X81073999Y-69286380D01*
X81978761Y-69286380D02*
X81883523Y-69238761D01*
X81835904Y-69143523D01*
X81835904Y-68286380D01*
X82740666Y-69238761D02*
X82645428Y-69286380D01*
X82454952Y-69286380D01*
X82359714Y-69238761D01*
X82312095Y-69143523D01*
X82312095Y-68762571D01*
X82359714Y-68667333D01*
X82454952Y-68619714D01*
X82645428Y-68619714D01*
X82740666Y-68667333D01*
X82788285Y-68762571D01*
X82788285Y-68857809D01*
X82312095Y-68953047D01*
X82978761Y-69381619D02*
X83740666Y-69381619D01*
X83883523Y-68286380D02*
X84502571Y-68286380D01*
X84169238Y-68667333D01*
X84312095Y-68667333D01*
X84407333Y-68714952D01*
X84454952Y-68762571D01*
X84502571Y-68857809D01*
X84502571Y-69095904D01*
X84454952Y-69191142D01*
X84407333Y-69238761D01*
X84312095Y-69286380D01*
X84026380Y-69286380D01*
X83931142Y-69238761D01*
X83883523Y-69191142D01*
X84931142Y-69191142D02*
X84978761Y-69238761D01*
X84931142Y-69286380D01*
X84883523Y-69238761D01*
X84931142Y-69191142D01*
X84931142Y-69286380D01*
X85359714Y-68381619D02*
X85407333Y-68334000D01*
X85502571Y-68286380D01*
X85740666Y-68286380D01*
X85835904Y-68334000D01*
X85883523Y-68381619D01*
X85931142Y-68476857D01*
X85931142Y-68572095D01*
X85883523Y-68714952D01*
X85312095Y-69286380D01*
X85931142Y-69286380D01*
X86359714Y-69286380D02*
X86359714Y-68619714D01*
X86359714Y-68714952D02*
X86407333Y-68667333D01*
X86502571Y-68619714D01*
X86645428Y-68619714D01*
X86740666Y-68667333D01*
X86788285Y-68762571D01*
X86788285Y-69286380D01*
X86788285Y-68762571D02*
X86835904Y-68667333D01*
X86931142Y-68619714D01*
X87073999Y-68619714D01*
X87169238Y-68667333D01*
X87216857Y-68762571D01*
X87216857Y-69286380D01*
X87693047Y-69286380D02*
X87693047Y-68619714D01*
X87693047Y-68714952D02*
X87740666Y-68667333D01*
X87835904Y-68619714D01*
X87978761Y-68619714D01*
X88073999Y-68667333D01*
X88121619Y-68762571D01*
X88121619Y-69286380D01*
X88121619Y-68762571D02*
X88169238Y-68667333D01*
X88264476Y-68619714D01*
X88407333Y-68619714D01*
X88502571Y-68667333D01*
X88550190Y-68762571D01*
X88550190Y-69286380D01*
X88788285Y-69381619D02*
X89550190Y-69381619D01*
X89788285Y-69286380D02*
X89788285Y-68286380D01*
X90121619Y-69000666D01*
X90454952Y-68286380D01*
X90454952Y-69286380D01*
X90835904Y-68286380D02*
X91454952Y-68286380D01*
X91121619Y-68667333D01*
X91264476Y-68667333D01*
X91359714Y-68714952D01*
X91407333Y-68762571D01*
X91454952Y-68857809D01*
X91454952Y-69095904D01*
X91407333Y-69191142D01*
X91359714Y-69238761D01*
X91264476Y-69286380D01*
X90978761Y-69286380D01*
X90883523Y-69238761D01*
X90835904Y-69191142D01*
X91645428Y-69381619D02*
X92407333Y-69381619D01*
X92645428Y-69286380D02*
X92645428Y-68286380D01*
X93026380Y-68286380D01*
X93121619Y-68334000D01*
X93169238Y-68381619D01*
X93216857Y-68476857D01*
X93216857Y-68619714D01*
X93169238Y-68714952D01*
X93121619Y-68762571D01*
X93026380Y-68810190D01*
X92645428Y-68810190D01*
X94073999Y-69286380D02*
X94073999Y-68762571D01*
X94026380Y-68667333D01*
X93931142Y-68619714D01*
X93740666Y-68619714D01*
X93645428Y-68667333D01*
X94073999Y-69238761D02*
X93978761Y-69286380D01*
X93740666Y-69286380D01*
X93645428Y-69238761D01*
X93597809Y-69143523D01*
X93597809Y-69048285D01*
X93645428Y-68953047D01*
X93740666Y-68905428D01*
X93978761Y-68905428D01*
X94073999Y-68857809D01*
X94978761Y-69286380D02*
X94978761Y-68286380D01*
X94978761Y-69238761D02*
X94883523Y-69286380D01*
X94693047Y-69286380D01*
X94597809Y-69238761D01*
X94550190Y-69191142D01*
X94502571Y-69095904D01*
X94502571Y-68810190D01*
X94550190Y-68714952D01*
X94597809Y-68667333D01*
X94693047Y-68619714D01*
X94883523Y-68619714D01*
X94978761Y-68667333D01*
X69070666Y-72080380D02*
X68737333Y-71604190D01*
X68499238Y-72080380D02*
X68499238Y-71080380D01*
X68880190Y-71080380D01*
X68975428Y-71128000D01*
X69023047Y-71175619D01*
X69070666Y-71270857D01*
X69070666Y-71413714D01*
X69023047Y-71508952D01*
X68975428Y-71556571D01*
X68880190Y-71604190D01*
X68499238Y-71604190D01*
X69499238Y-71556571D02*
X69832571Y-71556571D01*
X69975428Y-72080380D02*
X69499238Y-72080380D01*
X69499238Y-71080380D01*
X69975428Y-71080380D01*
X70737333Y-71556571D02*
X70404000Y-71556571D01*
X70404000Y-72080380D02*
X70404000Y-71080380D01*
X70880190Y-71080380D01*
X71404000Y-71080380D02*
X71404000Y-71318476D01*
X71165904Y-71223238D02*
X71404000Y-71318476D01*
X71642095Y-71223238D01*
X71261142Y-71508952D02*
X71404000Y-71318476D01*
X71546857Y-71508952D01*
X72165904Y-71080380D02*
X72165904Y-71318476D01*
X71927809Y-71223238D02*
X72165904Y-71318476D01*
X72404000Y-71223238D01*
X72023047Y-71508952D02*
X72165904Y-71318476D01*
X72308761Y-71508952D01*
G04 #@! TO.C,SW1*
X75422761Y-107474761D02*
X75565619Y-107522380D01*
X75803714Y-107522380D01*
X75898952Y-107474761D01*
X75946571Y-107427142D01*
X75994190Y-107331904D01*
X75994190Y-107236666D01*
X75946571Y-107141428D01*
X75898952Y-107093809D01*
X75803714Y-107046190D01*
X75613238Y-106998571D01*
X75518000Y-106950952D01*
X75470380Y-106903333D01*
X75422761Y-106808095D01*
X75422761Y-106712857D01*
X75470380Y-106617619D01*
X75518000Y-106570000D01*
X75613238Y-106522380D01*
X75851333Y-106522380D01*
X75994190Y-106570000D01*
X76327523Y-106522380D02*
X76565619Y-107522380D01*
X76756095Y-106808095D01*
X76946571Y-107522380D01*
X77184666Y-106522380D01*
X77327523Y-107617619D02*
X78089428Y-107617619D01*
X78327523Y-107522380D02*
X78327523Y-106522380D01*
X78708476Y-106522380D01*
X78803714Y-106570000D01*
X78851333Y-106617619D01*
X78898952Y-106712857D01*
X78898952Y-106855714D01*
X78851333Y-106950952D01*
X78803714Y-106998571D01*
X78708476Y-107046190D01*
X78327523Y-107046190D01*
X79756095Y-106855714D02*
X79756095Y-107522380D01*
X79327523Y-106855714D02*
X79327523Y-107379523D01*
X79375142Y-107474761D01*
X79470380Y-107522380D01*
X79613238Y-107522380D01*
X79708476Y-107474761D01*
X79756095Y-107427142D01*
X80184666Y-107474761D02*
X80279904Y-107522380D01*
X80470380Y-107522380D01*
X80565619Y-107474761D01*
X80613238Y-107379523D01*
X80613238Y-107331904D01*
X80565619Y-107236666D01*
X80470380Y-107189047D01*
X80327523Y-107189047D01*
X80232285Y-107141428D01*
X80184666Y-107046190D01*
X80184666Y-106998571D01*
X80232285Y-106903333D01*
X80327523Y-106855714D01*
X80470380Y-106855714D01*
X80565619Y-106903333D01*
X81041809Y-107522380D02*
X81041809Y-106522380D01*
X81470380Y-107522380D02*
X81470380Y-106998571D01*
X81422761Y-106903333D01*
X81327523Y-106855714D01*
X81184666Y-106855714D01*
X81089428Y-106903333D01*
X81041809Y-106950952D01*
X81708476Y-107617619D02*
X82470380Y-107617619D01*
X82708476Y-107522380D02*
X82708476Y-106522380D01*
X82946571Y-106522380D01*
X83089428Y-106570000D01*
X83184666Y-106665238D01*
X83232285Y-106760476D01*
X83279904Y-106950952D01*
X83279904Y-107093809D01*
X83232285Y-107284285D01*
X83184666Y-107379523D01*
X83089428Y-107474761D01*
X82946571Y-107522380D01*
X82708476Y-107522380D01*
X84137047Y-106855714D02*
X84137047Y-107522380D01*
X83708476Y-106855714D02*
X83708476Y-107379523D01*
X83756095Y-107474761D01*
X83851333Y-107522380D01*
X83994190Y-107522380D01*
X84089428Y-107474761D01*
X84137047Y-107427142D01*
X85041809Y-107522380D02*
X85041809Y-106998571D01*
X84994190Y-106903333D01*
X84898952Y-106855714D01*
X84708476Y-106855714D01*
X84613238Y-106903333D01*
X85041809Y-107474761D02*
X84946571Y-107522380D01*
X84708476Y-107522380D01*
X84613238Y-107474761D01*
X84565619Y-107379523D01*
X84565619Y-107284285D01*
X84613238Y-107189047D01*
X84708476Y-107141428D01*
X84946571Y-107141428D01*
X85041809Y-107093809D01*
X85660857Y-107522380D02*
X85565619Y-107474761D01*
X85518000Y-107379523D01*
X85518000Y-106522380D01*
X79184666Y-101074761D02*
X79327523Y-101122380D01*
X79565619Y-101122380D01*
X79660857Y-101074761D01*
X79708476Y-101027142D01*
X79756095Y-100931904D01*
X79756095Y-100836666D01*
X79708476Y-100741428D01*
X79660857Y-100693809D01*
X79565619Y-100646190D01*
X79375142Y-100598571D01*
X79279904Y-100550952D01*
X79232285Y-100503333D01*
X79184666Y-100408095D01*
X79184666Y-100312857D01*
X79232285Y-100217619D01*
X79279904Y-100170000D01*
X79375142Y-100122380D01*
X79613238Y-100122380D01*
X79756095Y-100170000D01*
X80089428Y-100122380D02*
X80327523Y-101122380D01*
X80518000Y-100408095D01*
X80708476Y-101122380D01*
X80946571Y-100122380D01*
X81851333Y-101122380D02*
X81279904Y-101122380D01*
X81565619Y-101122380D02*
X81565619Y-100122380D01*
X81470380Y-100265238D01*
X81375142Y-100360476D01*
X81279904Y-100408095D01*
G04 #@! TO.C,X1*
X80097523Y-91882380D02*
X79526095Y-91882380D01*
X79811809Y-91882380D02*
X79811809Y-90882380D01*
X79716571Y-91025238D01*
X79621333Y-91120476D01*
X79526095Y-91168095D01*
X80954666Y-90882380D02*
X80764190Y-90882380D01*
X80668952Y-90930000D01*
X80621333Y-90977619D01*
X80526095Y-91120476D01*
X80478476Y-91310952D01*
X80478476Y-91691904D01*
X80526095Y-91787142D01*
X80573714Y-91834761D01*
X80668952Y-91882380D01*
X80859428Y-91882380D01*
X80954666Y-91834761D01*
X81002285Y-91787142D01*
X81049904Y-91691904D01*
X81049904Y-91453809D01*
X81002285Y-91358571D01*
X80954666Y-91310952D01*
X80859428Y-91263333D01*
X80668952Y-91263333D01*
X80573714Y-91310952D01*
X80526095Y-91358571D01*
X80478476Y-91453809D01*
X81478476Y-91882380D02*
X81478476Y-90882380D01*
X81811809Y-91596666D01*
X82145142Y-90882380D01*
X82145142Y-91882380D01*
X82621333Y-91882380D02*
X82621333Y-90882380D01*
X82621333Y-91358571D02*
X83192761Y-91358571D01*
X83192761Y-91882380D02*
X83192761Y-90882380D01*
X83573714Y-91215714D02*
X84097523Y-91215714D01*
X83573714Y-91882380D01*
X84097523Y-91882380D01*
D18*
X81221333Y-93596666D02*
X81688000Y-94296666D01*
X81688000Y-93596666D02*
X81221333Y-94296666D01*
X82321333Y-94296666D02*
X81921333Y-94296666D01*
X82121333Y-94296666D02*
X82121333Y-93596666D01*
X82054666Y-93696666D01*
X81988000Y-93763333D01*
X81921333Y-93796666D01*
G04 #@! TO.C,D1*
D15*
X85717142Y-86652380D02*
X85240952Y-86652380D01*
X85240952Y-85652380D01*
X86050476Y-86128571D02*
X86383809Y-86128571D01*
X86526666Y-86652380D02*
X86050476Y-86652380D01*
X86050476Y-85652380D01*
X86526666Y-85652380D01*
X86955238Y-86652380D02*
X86955238Y-85652380D01*
X87193333Y-85652380D01*
X87336190Y-85700000D01*
X87431428Y-85795238D01*
X87479047Y-85890476D01*
X87526666Y-86080952D01*
X87526666Y-86223809D01*
X87479047Y-86414285D01*
X87431428Y-86509523D01*
X87336190Y-86604761D01*
X87193333Y-86652380D01*
X86955238Y-86652380D01*
D17*
X86064761Y-87810952D02*
X86064761Y-87410952D01*
X86160000Y-87410952D01*
X86217142Y-87430000D01*
X86255238Y-87468095D01*
X86274285Y-87506190D01*
X86293333Y-87582380D01*
X86293333Y-87639523D01*
X86274285Y-87715714D01*
X86255238Y-87753809D01*
X86217142Y-87791904D01*
X86160000Y-87810952D01*
X86064761Y-87810952D01*
X86674285Y-87810952D02*
X86445714Y-87810952D01*
X86560000Y-87810952D02*
X86560000Y-87410952D01*
X86521904Y-87468095D01*
X86483809Y-87506190D01*
X86445714Y-87525238D01*
G04 #@! TO.C,R7*
D15*
X85629904Y-92807619D02*
X85677523Y-92760000D01*
X85772761Y-92712380D01*
X86010857Y-92712380D01*
X86106095Y-92760000D01*
X86153714Y-92807619D01*
X86201333Y-92902857D01*
X86201333Y-92998095D01*
X86153714Y-93140952D01*
X85582285Y-93712380D01*
X86201333Y-93712380D01*
X86582285Y-92807619D02*
X86629904Y-92760000D01*
X86725142Y-92712380D01*
X86963238Y-92712380D01*
X87058476Y-92760000D01*
X87106095Y-92807619D01*
X87153714Y-92902857D01*
X87153714Y-92998095D01*
X87106095Y-93140952D01*
X86534666Y-93712380D01*
X87153714Y-93712380D01*
X87772761Y-92712380D02*
X87868000Y-92712380D01*
X87963238Y-92760000D01*
X88010857Y-92807619D01*
X88058476Y-92902857D01*
X88106095Y-93093333D01*
X88106095Y-93331428D01*
X88058476Y-93521904D01*
X88010857Y-93617142D01*
X87963238Y-93664761D01*
X87868000Y-93712380D01*
X87772761Y-93712380D01*
X87677523Y-93664761D01*
X87629904Y-93617142D01*
X87582285Y-93521904D01*
X87534666Y-93331428D01*
X87534666Y-93093333D01*
X87582285Y-92902857D01*
X87629904Y-92807619D01*
X87677523Y-92760000D01*
X87772761Y-92712380D01*
D19*
X86734666Y-91801904D02*
X86468000Y-91420952D01*
X86277523Y-91801904D02*
X86277523Y-91001904D01*
X86582285Y-91001904D01*
X86658476Y-91040000D01*
X86696571Y-91078095D01*
X86734666Y-91154285D01*
X86734666Y-91268571D01*
X86696571Y-91344761D01*
X86658476Y-91382857D01*
X86582285Y-91420952D01*
X86277523Y-91420952D01*
X87001333Y-91001904D02*
X87534666Y-91001904D01*
X87191809Y-91801904D01*
G04 #@! TO.C,R6*
D15*
X89217714Y-86315619D02*
X89265333Y-86268000D01*
X89360571Y-86220380D01*
X89598666Y-86220380D01*
X89693904Y-86268000D01*
X89741523Y-86315619D01*
X89789142Y-86410857D01*
X89789142Y-86506095D01*
X89741523Y-86648952D01*
X89170095Y-87220380D01*
X89789142Y-87220380D01*
X90170095Y-86315619D02*
X90217714Y-86268000D01*
X90312952Y-86220380D01*
X90551047Y-86220380D01*
X90646285Y-86268000D01*
X90693904Y-86315619D01*
X90741523Y-86410857D01*
X90741523Y-86506095D01*
X90693904Y-86648952D01*
X90122476Y-87220380D01*
X90741523Y-87220380D01*
X91360571Y-86220380D02*
X91455809Y-86220380D01*
X91551047Y-86268000D01*
X91598666Y-86315619D01*
X91646285Y-86410857D01*
X91693904Y-86601333D01*
X91693904Y-86839428D01*
X91646285Y-87029904D01*
X91598666Y-87125142D01*
X91551047Y-87172761D01*
X91455809Y-87220380D01*
X91360571Y-87220380D01*
X91265333Y-87172761D01*
X91217714Y-87125142D01*
X91170095Y-87029904D01*
X91122476Y-86839428D01*
X91122476Y-86601333D01*
X91170095Y-86410857D01*
X91217714Y-86315619D01*
X91265333Y-86268000D01*
X91360571Y-86220380D01*
X92312952Y-86220380D02*
X92408190Y-86220380D01*
X92503428Y-86268000D01*
X92551047Y-86315619D01*
X92598666Y-86410857D01*
X92646285Y-86601333D01*
X92646285Y-86839428D01*
X92598666Y-87029904D01*
X92551047Y-87125142D01*
X92503428Y-87172761D01*
X92408190Y-87220380D01*
X92312952Y-87220380D01*
X92217714Y-87172761D01*
X92170095Y-87125142D01*
X92122476Y-87029904D01*
X92074857Y-86839428D01*
X92074857Y-86601333D01*
X92122476Y-86410857D01*
X92170095Y-86315619D01*
X92217714Y-86268000D01*
X92312952Y-86220380D01*
D16*
X90890333Y-85711095D02*
X90807000Y-85592047D01*
X90747476Y-85711095D02*
X90747476Y-85461095D01*
X90842714Y-85461095D01*
X90866523Y-85473000D01*
X90878428Y-85484904D01*
X90890333Y-85508714D01*
X90890333Y-85544428D01*
X90878428Y-85568238D01*
X90866523Y-85580142D01*
X90842714Y-85592047D01*
X90747476Y-85592047D01*
X91104619Y-85461095D02*
X91057000Y-85461095D01*
X91033190Y-85473000D01*
X91021285Y-85484904D01*
X90997476Y-85520619D01*
X90985571Y-85568238D01*
X90985571Y-85663476D01*
X90997476Y-85687285D01*
X91009380Y-85699190D01*
X91033190Y-85711095D01*
X91080809Y-85711095D01*
X91104619Y-85699190D01*
X91116523Y-85687285D01*
X91128428Y-85663476D01*
X91128428Y-85603952D01*
X91116523Y-85580142D01*
X91104619Y-85568238D01*
X91080809Y-85556333D01*
X91033190Y-85556333D01*
X91009380Y-85568238D01*
X90997476Y-85580142D01*
X90985571Y-85603952D01*
G04 #@! TO.C,R5*
D15*
X86169714Y-85553619D02*
X86217333Y-85506000D01*
X86312571Y-85458380D01*
X86550666Y-85458380D01*
X86645904Y-85506000D01*
X86693523Y-85553619D01*
X86741142Y-85648857D01*
X86741142Y-85744095D01*
X86693523Y-85886952D01*
X86122095Y-86458380D01*
X86741142Y-86458380D01*
X87122095Y-85553619D02*
X87169714Y-85506000D01*
X87264952Y-85458380D01*
X87503047Y-85458380D01*
X87598285Y-85506000D01*
X87645904Y-85553619D01*
X87693523Y-85648857D01*
X87693523Y-85744095D01*
X87645904Y-85886952D01*
X87074476Y-86458380D01*
X87693523Y-86458380D01*
X88312571Y-85458380D02*
X88407809Y-85458380D01*
X88503047Y-85506000D01*
X88550666Y-85553619D01*
X88598285Y-85648857D01*
X88645904Y-85839333D01*
X88645904Y-86077428D01*
X88598285Y-86267904D01*
X88550666Y-86363142D01*
X88503047Y-86410761D01*
X88407809Y-86458380D01*
X88312571Y-86458380D01*
X88217333Y-86410761D01*
X88169714Y-86363142D01*
X88122095Y-86267904D01*
X88074476Y-86077428D01*
X88074476Y-85839333D01*
X88122095Y-85648857D01*
X88169714Y-85553619D01*
X88217333Y-85506000D01*
X88312571Y-85458380D01*
X89264952Y-85458380D02*
X89360190Y-85458380D01*
X89455428Y-85506000D01*
X89503047Y-85553619D01*
X89550666Y-85648857D01*
X89598285Y-85839333D01*
X89598285Y-86077428D01*
X89550666Y-86267904D01*
X89503047Y-86363142D01*
X89455428Y-86410761D01*
X89360190Y-86458380D01*
X89264952Y-86458380D01*
X89169714Y-86410761D01*
X89122095Y-86363142D01*
X89074476Y-86267904D01*
X89026857Y-86077428D01*
X89026857Y-85839333D01*
X89074476Y-85648857D01*
X89122095Y-85553619D01*
X89169714Y-85506000D01*
X89264952Y-85458380D01*
D16*
X87842333Y-84949095D02*
X87759000Y-84830047D01*
X87699476Y-84949095D02*
X87699476Y-84699095D01*
X87794714Y-84699095D01*
X87818523Y-84711000D01*
X87830428Y-84722904D01*
X87842333Y-84746714D01*
X87842333Y-84782428D01*
X87830428Y-84806238D01*
X87818523Y-84818142D01*
X87794714Y-84830047D01*
X87699476Y-84830047D01*
X88068523Y-84699095D02*
X87949476Y-84699095D01*
X87937571Y-84818142D01*
X87949476Y-84806238D01*
X87973285Y-84794333D01*
X88032809Y-84794333D01*
X88056619Y-84806238D01*
X88068523Y-84818142D01*
X88080428Y-84841952D01*
X88080428Y-84901476D01*
X88068523Y-84925285D01*
X88056619Y-84937190D01*
X88032809Y-84949095D01*
X87973285Y-84949095D01*
X87949476Y-84937190D01*
X87937571Y-84925285D01*
G04 #@! TO.C,R4*
D15*
X90717714Y-86912380D02*
X90146285Y-86912380D01*
X90432000Y-86912380D02*
X90432000Y-85912380D01*
X90336761Y-86055238D01*
X90241523Y-86150476D01*
X90146285Y-86198095D01*
X91146285Y-86912380D02*
X91146285Y-85912380D01*
X91717714Y-86912380D02*
X91289142Y-86340952D01*
X91717714Y-85912380D02*
X91146285Y-86483809D01*
D16*
X90890333Y-87743095D02*
X90807000Y-87624047D01*
X90747476Y-87743095D02*
X90747476Y-87493095D01*
X90842714Y-87493095D01*
X90866523Y-87505000D01*
X90878428Y-87516904D01*
X90890333Y-87540714D01*
X90890333Y-87576428D01*
X90878428Y-87600238D01*
X90866523Y-87612142D01*
X90842714Y-87624047D01*
X90747476Y-87624047D01*
X91104619Y-87576428D02*
X91104619Y-87743095D01*
X91045095Y-87481190D02*
X90985571Y-87659761D01*
X91140333Y-87659761D01*
G04 #@! TO.C,R3*
D15*
X84875714Y-85696380D02*
X84304285Y-85696380D01*
X84590000Y-85696380D02*
X84590000Y-84696380D01*
X84494761Y-84839238D01*
X84399523Y-84934476D01*
X84304285Y-84982095D01*
X85304285Y-85696380D02*
X85304285Y-84696380D01*
X85875714Y-85696380D02*
X85447142Y-85124952D01*
X85875714Y-84696380D02*
X85304285Y-85267809D01*
D16*
X85048333Y-84187095D02*
X84965000Y-84068047D01*
X84905476Y-84187095D02*
X84905476Y-83937095D01*
X85000714Y-83937095D01*
X85024523Y-83949000D01*
X85036428Y-83960904D01*
X85048333Y-83984714D01*
X85048333Y-84020428D01*
X85036428Y-84044238D01*
X85024523Y-84056142D01*
X85000714Y-84068047D01*
X84905476Y-84068047D01*
X85131666Y-83937095D02*
X85286428Y-83937095D01*
X85203095Y-84032333D01*
X85238809Y-84032333D01*
X85262619Y-84044238D01*
X85274523Y-84056142D01*
X85286428Y-84079952D01*
X85286428Y-84139476D01*
X85274523Y-84163285D01*
X85262619Y-84175190D01*
X85238809Y-84187095D01*
X85167380Y-84187095D01*
X85143571Y-84175190D01*
X85131666Y-84163285D01*
G04 #@! TO.C,R2*
D15*
X70866095Y-83213619D02*
X70913714Y-83166000D01*
X71008952Y-83118380D01*
X71247047Y-83118380D01*
X71342285Y-83166000D01*
X71389904Y-83213619D01*
X71437523Y-83308857D01*
X71437523Y-83404095D01*
X71389904Y-83546952D01*
X70818476Y-84118380D01*
X71437523Y-84118380D01*
X71818476Y-83213619D02*
X71866095Y-83166000D01*
X71961333Y-83118380D01*
X72199428Y-83118380D01*
X72294666Y-83166000D01*
X72342285Y-83213619D01*
X72389904Y-83308857D01*
X72389904Y-83404095D01*
X72342285Y-83546952D01*
X71770857Y-84118380D01*
X72389904Y-84118380D01*
D16*
X71586333Y-84949095D02*
X71503000Y-84830047D01*
X71443476Y-84949095D02*
X71443476Y-84699095D01*
X71538714Y-84699095D01*
X71562523Y-84711000D01*
X71574428Y-84722904D01*
X71586333Y-84746714D01*
X71586333Y-84782428D01*
X71574428Y-84806238D01*
X71562523Y-84818142D01*
X71538714Y-84830047D01*
X71443476Y-84830047D01*
X71681571Y-84722904D02*
X71693476Y-84711000D01*
X71717285Y-84699095D01*
X71776809Y-84699095D01*
X71800619Y-84711000D01*
X71812523Y-84722904D01*
X71824428Y-84746714D01*
X71824428Y-84770523D01*
X71812523Y-84806238D01*
X71669666Y-84949095D01*
X71824428Y-84949095D01*
G04 #@! TO.C,R1*
D15*
X70866095Y-84229619D02*
X70913714Y-84182000D01*
X71008952Y-84134380D01*
X71247047Y-84134380D01*
X71342285Y-84182000D01*
X71389904Y-84229619D01*
X71437523Y-84324857D01*
X71437523Y-84420095D01*
X71389904Y-84562952D01*
X70818476Y-85134380D01*
X71437523Y-85134380D01*
X71818476Y-84229619D02*
X71866095Y-84182000D01*
X71961333Y-84134380D01*
X72199428Y-84134380D01*
X72294666Y-84182000D01*
X72342285Y-84229619D01*
X72389904Y-84324857D01*
X72389904Y-84420095D01*
X72342285Y-84562952D01*
X71770857Y-85134380D01*
X72389904Y-85134380D01*
D16*
X71586333Y-85965095D02*
X71503000Y-85846047D01*
X71443476Y-85965095D02*
X71443476Y-85715095D01*
X71538714Y-85715095D01*
X71562523Y-85727000D01*
X71574428Y-85738904D01*
X71586333Y-85762714D01*
X71586333Y-85798428D01*
X71574428Y-85822238D01*
X71562523Y-85834142D01*
X71538714Y-85846047D01*
X71443476Y-85846047D01*
X71824428Y-85965095D02*
X71681571Y-85965095D01*
X71753000Y-85965095D02*
X71753000Y-85715095D01*
X71729190Y-85750809D01*
X71705380Y-85774619D01*
X71681571Y-85786523D01*
G04 #@! TO.C,J3*
D14*
X93182339Y-95779671D02*
X91780733Y-95779671D01*
X91780733Y-95445955D01*
X91847477Y-95245726D01*
X91980963Y-95112239D01*
X92114449Y-95045496D01*
X92381422Y-94978753D01*
X92581651Y-94978753D01*
X92848624Y-95045496D01*
X92982110Y-95112239D01*
X93115596Y-95245726D01*
X93182339Y-95445955D01*
X93182339Y-95779671D01*
X92781881Y-94444808D02*
X92781881Y-93777376D01*
X93182339Y-94578294D02*
X91780733Y-94111092D01*
X93182339Y-93643890D01*
X93182339Y-92442514D02*
X93182339Y-93243431D01*
X93182339Y-92842972D02*
X91780733Y-92842972D01*
X91980963Y-92976459D01*
X92114449Y-93109945D01*
X92181192Y-93243431D01*
X91780733Y-91174394D02*
X91780733Y-91841825D01*
X92448165Y-91908568D01*
X92381422Y-91841825D01*
X92314679Y-91708339D01*
X92314679Y-91374623D01*
X92381422Y-91241137D01*
X92448165Y-91174394D01*
X92581651Y-91107651D01*
X92915367Y-91107651D01*
X93048853Y-91174394D01*
X93115596Y-91241137D01*
X93182339Y-91374623D01*
X93182339Y-91708339D01*
X93115596Y-91841825D01*
X93048853Y-91908568D01*
X92648394Y-90506962D02*
X92648394Y-89439072D01*
X93115596Y-88838384D02*
X93182339Y-88638154D01*
X93182339Y-88304439D01*
X93115596Y-88170952D01*
X93048853Y-88104209D01*
X92915367Y-88037466D01*
X92781881Y-88037466D01*
X92648394Y-88104209D01*
X92581651Y-88170952D01*
X92514908Y-88304439D01*
X92448165Y-88571411D01*
X92381422Y-88704898D01*
X92314679Y-88771641D01*
X92181192Y-88838384D01*
X92047706Y-88838384D01*
X91914220Y-88771641D01*
X91847477Y-88704898D01*
X91780733Y-88571411D01*
X91780733Y-88237696D01*
X91847477Y-88037466D01*
X93182339Y-86769346D02*
X93182339Y-87436778D01*
X91780733Y-87436778D01*
X92648394Y-86302144D02*
X92648394Y-85234254D01*
X91914220Y-84633566D02*
X91847477Y-84566823D01*
X91780733Y-84433336D01*
X91780733Y-84099621D01*
X91847477Y-83966134D01*
X91914220Y-83899391D01*
X92047706Y-83832648D01*
X92181192Y-83832648D01*
X92381422Y-83899391D01*
X93182339Y-84700309D01*
X93182339Y-83832648D01*
X91780733Y-82564528D02*
X91780733Y-83231960D01*
X92448165Y-83298703D01*
X92381422Y-83231960D01*
X92314679Y-83098474D01*
X92314679Y-82764758D01*
X92381422Y-82631272D01*
X92448165Y-82564528D01*
X92581651Y-82497785D01*
X92915367Y-82497785D01*
X93048853Y-82564528D01*
X93115596Y-82631272D01*
X93182339Y-82764758D01*
X93182339Y-83098474D01*
X93115596Y-83231960D01*
X93048853Y-83298703D01*
G04 #@! TO.C,J2*
X66429340Y-99988673D02*
X66905549Y-99988673D01*
X66334099Y-100274398D02*
X66667445Y-99274359D01*
X67000791Y-100274398D01*
X67191275Y-99274359D02*
X67524621Y-100274398D01*
X67857968Y-99274359D01*
X68762765Y-100274398D02*
X68429418Y-99798189D01*
X68191314Y-100274398D02*
X68191314Y-99274359D01*
X68572281Y-99274359D01*
X68667523Y-99321980D01*
X68715144Y-99369601D01*
X68762765Y-99464843D01*
X68762765Y-99607705D01*
X68715144Y-99702947D01*
X68667523Y-99750568D01*
X68572281Y-99798189D01*
X68191314Y-99798189D01*
X68953248Y-100369640D02*
X69715183Y-100369640D01*
X69953287Y-100274398D02*
X69953287Y-99274359D01*
X70334255Y-99274359D01*
X70429496Y-99321980D01*
X70477117Y-99369601D01*
X70524738Y-99464843D01*
X70524738Y-99607705D01*
X70477117Y-99702947D01*
X70429496Y-99750568D01*
X70334255Y-99798189D01*
X69953287Y-99798189D01*
X70953326Y-100274398D02*
X70953326Y-99607705D01*
X70953326Y-99798189D02*
X71000947Y-99702947D01*
X71048568Y-99655326D01*
X71143810Y-99607705D01*
X71239052Y-99607705D01*
X71715261Y-100274398D02*
X71620019Y-100226777D01*
X71572398Y-100179156D01*
X71524777Y-100083914D01*
X71524777Y-99798189D01*
X71572398Y-99702947D01*
X71620019Y-99655326D01*
X71715261Y-99607705D01*
X71858124Y-99607705D01*
X71953365Y-99655326D01*
X72000986Y-99702947D01*
X72048607Y-99798189D01*
X72048607Y-100083914D01*
X72000986Y-100179156D01*
X71953365Y-100226777D01*
X71858124Y-100274398D01*
X71715261Y-100274398D01*
X72905783Y-99607705D02*
X72905783Y-100417261D01*
X72858163Y-100512503D01*
X72810542Y-100560124D01*
X72715300Y-100607744D01*
X72572437Y-100607744D01*
X72477195Y-100560124D01*
X72905783Y-100226777D02*
X72810542Y-100274398D01*
X72620058Y-100274398D01*
X72524816Y-100226777D01*
X72477195Y-100179156D01*
X72429574Y-100083914D01*
X72429574Y-99798189D01*
X72477195Y-99702947D01*
X72524816Y-99655326D01*
X72620058Y-99607705D01*
X72810542Y-99607705D01*
X72905783Y-99655326D01*
X73381992Y-100274398D02*
X73381992Y-99607705D01*
X73381992Y-99798189D02*
X73429613Y-99702947D01*
X73477234Y-99655326D01*
X73572476Y-99607705D01*
X73667718Y-99607705D01*
X74429652Y-100274398D02*
X74429652Y-99750568D01*
X74382031Y-99655326D01*
X74286790Y-99607705D01*
X74096306Y-99607705D01*
X74001064Y-99655326D01*
X74429652Y-100226777D02*
X74334411Y-100274398D01*
X74096306Y-100274398D01*
X74001064Y-100226777D01*
X73953443Y-100131535D01*
X73953443Y-100036294D01*
X74001064Y-99941052D01*
X74096306Y-99893431D01*
X74334411Y-99893431D01*
X74429652Y-99845810D01*
X74905861Y-100274398D02*
X74905861Y-99607705D01*
X74905861Y-99702947D02*
X74953482Y-99655326D01*
X75048724Y-99607705D01*
X75191587Y-99607705D01*
X75286829Y-99655326D01*
X75334450Y-99750568D01*
X75334450Y-100274398D01*
X75334450Y-99750568D02*
X75382070Y-99655326D01*
X75477312Y-99607705D01*
X75620175Y-99607705D01*
X75715417Y-99655326D01*
X75763038Y-99750568D01*
X75763038Y-100274398D01*
G04 #@! TO.C,C10*
D15*
X90336761Y-88236380D02*
X89765333Y-88236380D01*
X90051047Y-88236380D02*
X90051047Y-87236380D01*
X89955809Y-87379238D01*
X89860571Y-87474476D01*
X89765333Y-87522095D01*
X90765333Y-87569714D02*
X90765333Y-88236380D01*
X90765333Y-87664952D02*
X90812952Y-87617333D01*
X90908190Y-87569714D01*
X91051047Y-87569714D01*
X91146285Y-87617333D01*
X91193904Y-87712571D01*
X91193904Y-88236380D01*
X92003428Y-87712571D02*
X91670095Y-87712571D01*
X91670095Y-88236380D02*
X91670095Y-87236380D01*
X92146285Y-87236380D01*
D16*
X90771285Y-86703285D02*
X90759380Y-86715190D01*
X90723666Y-86727095D01*
X90699857Y-86727095D01*
X90664142Y-86715190D01*
X90640333Y-86691380D01*
X90628428Y-86667571D01*
X90616523Y-86619952D01*
X90616523Y-86584238D01*
X90628428Y-86536619D01*
X90640333Y-86512809D01*
X90664142Y-86489000D01*
X90699857Y-86477095D01*
X90723666Y-86477095D01*
X90759380Y-86489000D01*
X90771285Y-86500904D01*
X91009380Y-86727095D02*
X90866523Y-86727095D01*
X90937952Y-86727095D02*
X90937952Y-86477095D01*
X90914142Y-86512809D01*
X90890333Y-86536619D01*
X90866523Y-86548523D01*
X91164142Y-86477095D02*
X91187952Y-86477095D01*
X91211761Y-86489000D01*
X91223666Y-86500904D01*
X91235571Y-86524714D01*
X91247476Y-86572333D01*
X91247476Y-86631857D01*
X91235571Y-86679476D01*
X91223666Y-86703285D01*
X91211761Y-86715190D01*
X91187952Y-86727095D01*
X91164142Y-86727095D01*
X91140333Y-86715190D01*
X91128428Y-86703285D01*
X91116523Y-86679476D01*
X91104619Y-86631857D01*
X91104619Y-86572333D01*
X91116523Y-86524714D01*
X91128428Y-86500904D01*
X91140333Y-86489000D01*
X91164142Y-86477095D01*
G04 #@! TO.C,C9*
D15*
X87288761Y-87474380D02*
X86717333Y-87474380D01*
X87003047Y-87474380D02*
X87003047Y-86474380D01*
X86907809Y-86617238D01*
X86812571Y-86712476D01*
X86717333Y-86760095D01*
X87717333Y-86807714D02*
X87717333Y-87474380D01*
X87717333Y-86902952D02*
X87764952Y-86855333D01*
X87860190Y-86807714D01*
X88003047Y-86807714D01*
X88098285Y-86855333D01*
X88145904Y-86950571D01*
X88145904Y-87474380D01*
X88955428Y-86950571D02*
X88622095Y-86950571D01*
X88622095Y-87474380D02*
X88622095Y-86474380D01*
X89098285Y-86474380D01*
D16*
X87842333Y-85941285D02*
X87830428Y-85953190D01*
X87794714Y-85965095D01*
X87770904Y-85965095D01*
X87735190Y-85953190D01*
X87711380Y-85929380D01*
X87699476Y-85905571D01*
X87687571Y-85857952D01*
X87687571Y-85822238D01*
X87699476Y-85774619D01*
X87711380Y-85750809D01*
X87735190Y-85727000D01*
X87770904Y-85715095D01*
X87794714Y-85715095D01*
X87830428Y-85727000D01*
X87842333Y-85738904D01*
X87961380Y-85965095D02*
X88009000Y-85965095D01*
X88032809Y-85953190D01*
X88044714Y-85941285D01*
X88068523Y-85905571D01*
X88080428Y-85857952D01*
X88080428Y-85762714D01*
X88068523Y-85738904D01*
X88056619Y-85727000D01*
X88032809Y-85715095D01*
X87985190Y-85715095D01*
X87961380Y-85727000D01*
X87949476Y-85738904D01*
X87937571Y-85762714D01*
X87937571Y-85822238D01*
X87949476Y-85846047D01*
X87961380Y-85857952D01*
X87985190Y-85869857D01*
X88032809Y-85869857D01*
X88056619Y-85857952D01*
X88068523Y-85846047D01*
X88080428Y-85822238D01*
G04 #@! TO.C,C8*
D15*
X84526571Y-94840380D02*
X83955142Y-94840380D01*
X84240857Y-94840380D02*
X84240857Y-93840380D01*
X84145619Y-93983238D01*
X84050380Y-94078476D01*
X83955142Y-94126095D01*
X85145619Y-93840380D02*
X85240857Y-93840380D01*
X85336095Y-93888000D01*
X85383714Y-93935619D01*
X85431333Y-94030857D01*
X85478952Y-94221333D01*
X85478952Y-94459428D01*
X85431333Y-94649904D01*
X85383714Y-94745142D01*
X85336095Y-94792761D01*
X85240857Y-94840380D01*
X85145619Y-94840380D01*
X85050380Y-94792761D01*
X85002761Y-94745142D01*
X84955142Y-94649904D01*
X84907523Y-94459428D01*
X84907523Y-94221333D01*
X84955142Y-94030857D01*
X85002761Y-93935619D01*
X85050380Y-93888000D01*
X85145619Y-93840380D01*
X85907523Y-94173714D02*
X85907523Y-95173714D01*
X85907523Y-94221333D02*
X86002761Y-94173714D01*
X86193238Y-94173714D01*
X86288476Y-94221333D01*
X86336095Y-94268952D01*
X86383714Y-94364190D01*
X86383714Y-94649904D01*
X86336095Y-94745142D01*
X86288476Y-94792761D01*
X86193238Y-94840380D01*
X86002761Y-94840380D01*
X85907523Y-94792761D01*
X87145619Y-94316571D02*
X86812285Y-94316571D01*
X86812285Y-94840380D02*
X86812285Y-93840380D01*
X87288476Y-93840380D01*
D16*
X85556333Y-93307285D02*
X85544428Y-93319190D01*
X85508714Y-93331095D01*
X85484904Y-93331095D01*
X85449190Y-93319190D01*
X85425380Y-93295380D01*
X85413476Y-93271571D01*
X85401571Y-93223952D01*
X85401571Y-93188238D01*
X85413476Y-93140619D01*
X85425380Y-93116809D01*
X85449190Y-93093000D01*
X85484904Y-93081095D01*
X85508714Y-93081095D01*
X85544428Y-93093000D01*
X85556333Y-93104904D01*
X85699190Y-93188238D02*
X85675380Y-93176333D01*
X85663476Y-93164428D01*
X85651571Y-93140619D01*
X85651571Y-93128714D01*
X85663476Y-93104904D01*
X85675380Y-93093000D01*
X85699190Y-93081095D01*
X85746809Y-93081095D01*
X85770619Y-93093000D01*
X85782523Y-93104904D01*
X85794428Y-93128714D01*
X85794428Y-93140619D01*
X85782523Y-93164428D01*
X85770619Y-93176333D01*
X85746809Y-93188238D01*
X85699190Y-93188238D01*
X85675380Y-93200142D01*
X85663476Y-93212047D01*
X85651571Y-93235857D01*
X85651571Y-93283476D01*
X85663476Y-93307285D01*
X85675380Y-93319190D01*
X85699190Y-93331095D01*
X85746809Y-93331095D01*
X85770619Y-93319190D01*
X85782523Y-93307285D01*
X85794428Y-93283476D01*
X85794428Y-93235857D01*
X85782523Y-93212047D01*
X85770619Y-93200142D01*
X85746809Y-93188238D01*
G04 #@! TO.C,C7*
D15*
X79954571Y-98142380D02*
X79383142Y-98142380D01*
X79668857Y-98142380D02*
X79668857Y-97142380D01*
X79573619Y-97285238D01*
X79478380Y-97380476D01*
X79383142Y-97428095D01*
X80573619Y-97142380D02*
X80668857Y-97142380D01*
X80764095Y-97190000D01*
X80811714Y-97237619D01*
X80859333Y-97332857D01*
X80906952Y-97523333D01*
X80906952Y-97761428D01*
X80859333Y-97951904D01*
X80811714Y-98047142D01*
X80764095Y-98094761D01*
X80668857Y-98142380D01*
X80573619Y-98142380D01*
X80478380Y-98094761D01*
X80430761Y-98047142D01*
X80383142Y-97951904D01*
X80335523Y-97761428D01*
X80335523Y-97523333D01*
X80383142Y-97332857D01*
X80430761Y-97237619D01*
X80478380Y-97190000D01*
X80573619Y-97142380D01*
X81335523Y-97475714D02*
X81335523Y-98475714D01*
X81335523Y-97523333D02*
X81430761Y-97475714D01*
X81621238Y-97475714D01*
X81716476Y-97523333D01*
X81764095Y-97570952D01*
X81811714Y-97666190D01*
X81811714Y-97951904D01*
X81764095Y-98047142D01*
X81716476Y-98094761D01*
X81621238Y-98142380D01*
X81430761Y-98142380D01*
X81335523Y-98094761D01*
X82573619Y-97618571D02*
X82240285Y-97618571D01*
X82240285Y-98142380D02*
X82240285Y-97142380D01*
X82716476Y-97142380D01*
D16*
X80984333Y-96609285D02*
X80972428Y-96621190D01*
X80936714Y-96633095D01*
X80912904Y-96633095D01*
X80877190Y-96621190D01*
X80853380Y-96597380D01*
X80841476Y-96573571D01*
X80829571Y-96525952D01*
X80829571Y-96490238D01*
X80841476Y-96442619D01*
X80853380Y-96418809D01*
X80877190Y-96395000D01*
X80912904Y-96383095D01*
X80936714Y-96383095D01*
X80972428Y-96395000D01*
X80984333Y-96406904D01*
X81067666Y-96383095D02*
X81234333Y-96383095D01*
X81127190Y-96633095D01*
G04 #@! TO.C,C6*
D15*
X78600380Y-82414857D02*
X78600380Y-82319619D01*
X78648000Y-82224380D01*
X78695619Y-82176761D01*
X78790857Y-82129142D01*
X78981333Y-82081523D01*
X79219428Y-82081523D01*
X79409904Y-82129142D01*
X79505142Y-82176761D01*
X79552761Y-82224380D01*
X79600380Y-82319619D01*
X79600380Y-82414857D01*
X79552761Y-82510095D01*
X79505142Y-82557714D01*
X79409904Y-82605333D01*
X79219428Y-82652952D01*
X78981333Y-82652952D01*
X78790857Y-82605333D01*
X78695619Y-82557714D01*
X78648000Y-82510095D01*
X78600380Y-82414857D01*
X79505142Y-81652952D02*
X79552761Y-81605333D01*
X79600380Y-81652952D01*
X79552761Y-81700571D01*
X79505142Y-81652952D01*
X79600380Y-81652952D01*
X79600380Y-80652952D02*
X79600380Y-81224380D01*
X79600380Y-80938666D02*
X78600380Y-80938666D01*
X78743238Y-81033904D01*
X78838476Y-81129142D01*
X78886095Y-81224380D01*
X78933714Y-79795809D02*
X79600380Y-79795809D01*
X78933714Y-80224380D02*
X79457523Y-80224380D01*
X79552761Y-80176761D01*
X79600380Y-80081523D01*
X79600380Y-79938666D01*
X79552761Y-79843428D01*
X79505142Y-79795809D01*
X79076571Y-78986285D02*
X79076571Y-79319619D01*
X79600380Y-79319619D02*
X78600380Y-79319619D01*
X78600380Y-78843428D01*
D16*
X78067285Y-80813666D02*
X78079190Y-80825571D01*
X78091095Y-80861285D01*
X78091095Y-80885095D01*
X78079190Y-80920809D01*
X78055380Y-80944619D01*
X78031571Y-80956523D01*
X77983952Y-80968428D01*
X77948238Y-80968428D01*
X77900619Y-80956523D01*
X77876809Y-80944619D01*
X77853000Y-80920809D01*
X77841095Y-80885095D01*
X77841095Y-80861285D01*
X77853000Y-80825571D01*
X77864904Y-80813666D01*
X77841095Y-80599380D02*
X77841095Y-80647000D01*
X77853000Y-80670809D01*
X77864904Y-80682714D01*
X77900619Y-80706523D01*
X77948238Y-80718428D01*
X78043476Y-80718428D01*
X78067285Y-80706523D01*
X78079190Y-80694619D01*
X78091095Y-80670809D01*
X78091095Y-80623190D01*
X78079190Y-80599380D01*
X78067285Y-80587476D01*
X78043476Y-80575571D01*
X77983952Y-80575571D01*
X77960142Y-80587476D01*
X77948238Y-80599380D01*
X77936333Y-80623190D01*
X77936333Y-80670809D01*
X77948238Y-80694619D01*
X77960142Y-80706523D01*
X77983952Y-80718428D01*
G04 #@! TO.C,C5*
D15*
X83680380Y-80636857D02*
X83680380Y-80541619D01*
X83728000Y-80446380D01*
X83775619Y-80398761D01*
X83870857Y-80351142D01*
X84061333Y-80303523D01*
X84299428Y-80303523D01*
X84489904Y-80351142D01*
X84585142Y-80398761D01*
X84632761Y-80446380D01*
X84680380Y-80541619D01*
X84680380Y-80636857D01*
X84632761Y-80732095D01*
X84585142Y-80779714D01*
X84489904Y-80827333D01*
X84299428Y-80874952D01*
X84061333Y-80874952D01*
X83870857Y-80827333D01*
X83775619Y-80779714D01*
X83728000Y-80732095D01*
X83680380Y-80636857D01*
X84585142Y-79874952D02*
X84632761Y-79827333D01*
X84680380Y-79874952D01*
X84632761Y-79922571D01*
X84585142Y-79874952D01*
X84680380Y-79874952D01*
X84680380Y-78874952D02*
X84680380Y-79446380D01*
X84680380Y-79160666D02*
X83680380Y-79160666D01*
X83823238Y-79255904D01*
X83918476Y-79351142D01*
X83966095Y-79446380D01*
X84013714Y-78017809D02*
X84680380Y-78017809D01*
X84013714Y-78446380D02*
X84537523Y-78446380D01*
X84632761Y-78398761D01*
X84680380Y-78303523D01*
X84680380Y-78160666D01*
X84632761Y-78065428D01*
X84585142Y-78017809D01*
X84156571Y-77208285D02*
X84156571Y-77541619D01*
X84680380Y-77541619D02*
X83680380Y-77541619D01*
X83680380Y-77065428D01*
D16*
X83147285Y-79035666D02*
X83159190Y-79047571D01*
X83171095Y-79083285D01*
X83171095Y-79107095D01*
X83159190Y-79142809D01*
X83135380Y-79166619D01*
X83111571Y-79178523D01*
X83063952Y-79190428D01*
X83028238Y-79190428D01*
X82980619Y-79178523D01*
X82956809Y-79166619D01*
X82933000Y-79142809D01*
X82921095Y-79107095D01*
X82921095Y-79083285D01*
X82933000Y-79047571D01*
X82944904Y-79035666D01*
X82921095Y-78809476D02*
X82921095Y-78928523D01*
X83040142Y-78940428D01*
X83028238Y-78928523D01*
X83016333Y-78904714D01*
X83016333Y-78845190D01*
X83028238Y-78821380D01*
X83040142Y-78809476D01*
X83063952Y-78797571D01*
X83123476Y-78797571D01*
X83147285Y-78809476D01*
X83159190Y-78821380D01*
X83171095Y-78845190D01*
X83171095Y-78904714D01*
X83159190Y-78928523D01*
X83147285Y-78940428D01*
G04 #@! TO.C,C4*
D15*
X82664380Y-80636857D02*
X82664380Y-80541619D01*
X82712000Y-80446380D01*
X82759619Y-80398761D01*
X82854857Y-80351142D01*
X83045333Y-80303523D01*
X83283428Y-80303523D01*
X83473904Y-80351142D01*
X83569142Y-80398761D01*
X83616761Y-80446380D01*
X83664380Y-80541619D01*
X83664380Y-80636857D01*
X83616761Y-80732095D01*
X83569142Y-80779714D01*
X83473904Y-80827333D01*
X83283428Y-80874952D01*
X83045333Y-80874952D01*
X82854857Y-80827333D01*
X82759619Y-80779714D01*
X82712000Y-80732095D01*
X82664380Y-80636857D01*
X83569142Y-79874952D02*
X83616761Y-79827333D01*
X83664380Y-79874952D01*
X83616761Y-79922571D01*
X83569142Y-79874952D01*
X83664380Y-79874952D01*
X83664380Y-78874952D02*
X83664380Y-79446380D01*
X83664380Y-79160666D02*
X82664380Y-79160666D01*
X82807238Y-79255904D01*
X82902476Y-79351142D01*
X82950095Y-79446380D01*
X82997714Y-78017809D02*
X83664380Y-78017809D01*
X82997714Y-78446380D02*
X83521523Y-78446380D01*
X83616761Y-78398761D01*
X83664380Y-78303523D01*
X83664380Y-78160666D01*
X83616761Y-78065428D01*
X83569142Y-78017809D01*
X83140571Y-77208285D02*
X83140571Y-77541619D01*
X83664380Y-77541619D02*
X82664380Y-77541619D01*
X82664380Y-77065428D01*
D16*
X82131285Y-79035666D02*
X82143190Y-79047571D01*
X82155095Y-79083285D01*
X82155095Y-79107095D01*
X82143190Y-79142809D01*
X82119380Y-79166619D01*
X82095571Y-79178523D01*
X82047952Y-79190428D01*
X82012238Y-79190428D01*
X81964619Y-79178523D01*
X81940809Y-79166619D01*
X81917000Y-79142809D01*
X81905095Y-79107095D01*
X81905095Y-79083285D01*
X81917000Y-79047571D01*
X81928904Y-79035666D01*
X81988428Y-78821380D02*
X82155095Y-78821380D01*
X81893190Y-78880904D02*
X82071761Y-78940428D01*
X82071761Y-78785666D01*
G04 #@! TO.C,C3*
D15*
X81648380Y-80636857D02*
X81648380Y-80541619D01*
X81696000Y-80446380D01*
X81743619Y-80398761D01*
X81838857Y-80351142D01*
X82029333Y-80303523D01*
X82267428Y-80303523D01*
X82457904Y-80351142D01*
X82553142Y-80398761D01*
X82600761Y-80446380D01*
X82648380Y-80541619D01*
X82648380Y-80636857D01*
X82600761Y-80732095D01*
X82553142Y-80779714D01*
X82457904Y-80827333D01*
X82267428Y-80874952D01*
X82029333Y-80874952D01*
X81838857Y-80827333D01*
X81743619Y-80779714D01*
X81696000Y-80732095D01*
X81648380Y-80636857D01*
X82553142Y-79874952D02*
X82600761Y-79827333D01*
X82648380Y-79874952D01*
X82600761Y-79922571D01*
X82553142Y-79874952D01*
X82648380Y-79874952D01*
X82648380Y-78874952D02*
X82648380Y-79446380D01*
X82648380Y-79160666D02*
X81648380Y-79160666D01*
X81791238Y-79255904D01*
X81886476Y-79351142D01*
X81934095Y-79446380D01*
X81981714Y-78017809D02*
X82648380Y-78017809D01*
X81981714Y-78446380D02*
X82505523Y-78446380D01*
X82600761Y-78398761D01*
X82648380Y-78303523D01*
X82648380Y-78160666D01*
X82600761Y-78065428D01*
X82553142Y-78017809D01*
X82124571Y-77208285D02*
X82124571Y-77541619D01*
X82648380Y-77541619D02*
X81648380Y-77541619D01*
X81648380Y-77065428D01*
D16*
X81115285Y-79035666D02*
X81127190Y-79047571D01*
X81139095Y-79083285D01*
X81139095Y-79107095D01*
X81127190Y-79142809D01*
X81103380Y-79166619D01*
X81079571Y-79178523D01*
X81031952Y-79190428D01*
X80996238Y-79190428D01*
X80948619Y-79178523D01*
X80924809Y-79166619D01*
X80901000Y-79142809D01*
X80889095Y-79107095D01*
X80889095Y-79083285D01*
X80901000Y-79047571D01*
X80912904Y-79035666D01*
X80889095Y-78952333D02*
X80889095Y-78797571D01*
X80984333Y-78880904D01*
X80984333Y-78845190D01*
X80996238Y-78821380D01*
X81008142Y-78809476D01*
X81031952Y-78797571D01*
X81091476Y-78797571D01*
X81115285Y-78809476D01*
X81127190Y-78821380D01*
X81139095Y-78845190D01*
X81139095Y-78916619D01*
X81127190Y-78940428D01*
X81115285Y-78952333D01*
G04 #@! TO.C,C2*
D15*
X81632380Y-79589238D02*
X81632380Y-80160666D01*
X81632380Y-79874952D02*
X80632380Y-79874952D01*
X80775238Y-79970190D01*
X80870476Y-80065428D01*
X80918095Y-80160666D01*
X80965714Y-78732095D02*
X81632380Y-78732095D01*
X80965714Y-79160666D02*
X81489523Y-79160666D01*
X81584761Y-79113047D01*
X81632380Y-79017809D01*
X81632380Y-78874952D01*
X81584761Y-78779714D01*
X81537142Y-78732095D01*
X81108571Y-77922571D02*
X81108571Y-78255904D01*
X81632380Y-78255904D02*
X80632380Y-78255904D01*
X80632380Y-77779714D01*
D16*
X80099285Y-79035666D02*
X80111190Y-79047571D01*
X80123095Y-79083285D01*
X80123095Y-79107095D01*
X80111190Y-79142809D01*
X80087380Y-79166619D01*
X80063571Y-79178523D01*
X80015952Y-79190428D01*
X79980238Y-79190428D01*
X79932619Y-79178523D01*
X79908809Y-79166619D01*
X79885000Y-79142809D01*
X79873095Y-79107095D01*
X79873095Y-79083285D01*
X79885000Y-79047571D01*
X79896904Y-79035666D01*
X79896904Y-78940428D02*
X79885000Y-78928523D01*
X79873095Y-78904714D01*
X79873095Y-78845190D01*
X79885000Y-78821380D01*
X79896904Y-78809476D01*
X79920714Y-78797571D01*
X79944523Y-78797571D01*
X79980238Y-78809476D01*
X80123095Y-78952333D01*
X80123095Y-78797571D01*
G04 #@! TO.C,C1*
D15*
X80616380Y-79589238D02*
X80616380Y-80160666D01*
X80616380Y-79874952D02*
X79616380Y-79874952D01*
X79759238Y-79970190D01*
X79854476Y-80065428D01*
X79902095Y-80160666D01*
X79949714Y-78732095D02*
X80616380Y-78732095D01*
X79949714Y-79160666D02*
X80473523Y-79160666D01*
X80568761Y-79113047D01*
X80616380Y-79017809D01*
X80616380Y-78874952D01*
X80568761Y-78779714D01*
X80521142Y-78732095D01*
X80092571Y-77922571D02*
X80092571Y-78255904D01*
X80616380Y-78255904D02*
X79616380Y-78255904D01*
X79616380Y-77779714D01*
D16*
X78952333Y-79083285D02*
X78940428Y-79095190D01*
X78904714Y-79107095D01*
X78880904Y-79107095D01*
X78845190Y-79095190D01*
X78821380Y-79071380D01*
X78809476Y-79047571D01*
X78797571Y-78999952D01*
X78797571Y-78964238D01*
X78809476Y-78916619D01*
X78821380Y-78892809D01*
X78845190Y-78869000D01*
X78880904Y-78857095D01*
X78904714Y-78857095D01*
X78940428Y-78869000D01*
X78952333Y-78880904D01*
X79190428Y-79107095D02*
X79047571Y-79107095D01*
X79119000Y-79107095D02*
X79119000Y-78857095D01*
X79095190Y-78892809D01*
X79071380Y-78916619D01*
X79047571Y-78928523D01*
G04 #@! TD*
M02*
