G04 #@! TF.GenerationSoftware,KiCad,Pcbnew,(6.0.8-1)-1*
G04 #@! TF.CreationDate,2022-10-23T23:26:28-07:00*
G04 #@! TF.ProjectId,3DProUsb,33445072-6f55-4736-922e-6b696361645f,rev?*
G04 #@! TF.SameCoordinates,Original*
G04 #@! TF.FileFunction,Paste,Top*
G04 #@! TF.FilePolarity,Positive*
%FSLAX46Y46*%
G04 Gerber Fmt 4.6, Leading zero omitted, Abs format (unit mm)*
G04 Created by KiCad (PCBNEW (6.0.8-1)-1) date 2022-10-23 23:26:28*
%MOMM*%
%LPD*%
G01*
G04 APERTURE LIST*
G04 Aperture macros list*
%AMRoundRect*
0 Rectangle with rounded corners*
0 $1 Rounding radius*
0 $2 $3 $4 $5 $6 $7 $8 $9 X,Y pos of 4 corners*
0 Add a 4 corners polygon primitive as box body*
4,1,4,$2,$3,$4,$5,$6,$7,$8,$9,$2,$3,0*
0 Add four circle primitives for the rounded corners*
1,1,$1+$1,$2,$3*
1,1,$1+$1,$4,$5*
1,1,$1+$1,$6,$7*
1,1,$1+$1,$8,$9*
0 Add four rect primitives between the rounded corners*
20,1,$1+$1,$2,$3,$4,$5,0*
20,1,$1+$1,$4,$5,$6,$7,0*
20,1,$1+$1,$6,$7,$8,$9,0*
20,1,$1+$1,$8,$9,$2,$3,0*%
G04 Aperture macros list end*
%ADD10C,0.010000*%
%ADD11R,1.150000X0.600000*%
%ADD12R,1.150000X0.300000*%
%ADD13RoundRect,0.135000X0.185000X-0.135000X0.185000X0.135000X-0.185000X0.135000X-0.185000X-0.135000X0*%
%ADD14RoundRect,0.135000X0.135000X0.185000X-0.135000X0.185000X-0.135000X-0.185000X0.135000X-0.185000X0*%
%ADD15RoundRect,0.218750X0.218750X0.256250X-0.218750X0.256250X-0.218750X-0.256250X0.218750X-0.256250X0*%
%ADD16RoundRect,0.140000X-0.170000X0.140000X-0.170000X-0.140000X0.170000X-0.140000X0.170000X0.140000X0*%
%ADD17R,1.010000X0.260000*%
%ADD18R,0.260000X1.010000*%
%ADD19RoundRect,0.135000X-0.135000X-0.185000X0.135000X-0.185000X0.135000X0.185000X-0.135000X0.185000X0*%
%ADD20R,1.600000X1.400000*%
%ADD21RoundRect,0.140000X0.170000X-0.140000X0.170000X0.140000X-0.170000X0.140000X-0.170000X-0.140000X0*%
%ADD22RoundRect,0.135000X-0.185000X0.135000X-0.185000X-0.135000X0.185000X-0.135000X0.185000X0.135000X0*%
%ADD23RoundRect,0.140000X-0.140000X-0.170000X0.140000X-0.170000X0.140000X0.170000X-0.140000X0.170000X0*%
%ADD24R,1.400000X1.200000*%
%ADD25RoundRect,0.250000X-0.625000X0.312500X-0.625000X-0.312500X0.625000X-0.312500X0.625000X0.312500X0*%
%ADD26RoundRect,0.140000X0.140000X0.170000X-0.140000X0.170000X-0.140000X-0.170000X0.140000X-0.170000X0*%
G04 APERTURE END LIST*
G04 #@! TO.C,U1*
G36*
X87972000Y-86134000D02*
G01*
X86332000Y-86134000D01*
X86332000Y-84494000D01*
X87972000Y-84494000D01*
X87972000Y-86134000D01*
G37*
D10*
X87972000Y-86134000D02*
X86332000Y-86134000D01*
X86332000Y-84494000D01*
X87972000Y-84494000D01*
X87972000Y-86134000D01*
G36*
X87972000Y-88734000D02*
G01*
X86332000Y-88734000D01*
X86332000Y-87094000D01*
X87972000Y-87094000D01*
X87972000Y-88734000D01*
G37*
X87972000Y-88734000D02*
X86332000Y-88734000D01*
X86332000Y-87094000D01*
X87972000Y-87094000D01*
X87972000Y-88734000D01*
G36*
X85372000Y-86134000D02*
G01*
X83732000Y-86134000D01*
X83732000Y-84494000D01*
X85372000Y-84494000D01*
X85372000Y-86134000D01*
G37*
X85372000Y-86134000D02*
X83732000Y-86134000D01*
X83732000Y-84494000D01*
X85372000Y-84494000D01*
X85372000Y-86134000D01*
G36*
X85372000Y-88734000D02*
G01*
X83732000Y-88734000D01*
X83732000Y-87094000D01*
X85372000Y-87094000D01*
X85372000Y-88734000D01*
G37*
X85372000Y-88734000D02*
X83732000Y-88734000D01*
X83732000Y-87094000D01*
X85372000Y-87094000D01*
X85372000Y-88734000D01*
G04 #@! TD*
D11*
G04 #@! TO.C,J1*
X73335000Y-82144000D03*
X73335000Y-82944000D03*
D12*
X73335000Y-84094000D03*
X73335000Y-85094000D03*
X73335000Y-85594000D03*
X73335000Y-86594000D03*
D11*
X73335000Y-88544000D03*
X73335000Y-87744000D03*
D12*
X73335000Y-87094000D03*
X73335000Y-86094000D03*
X73335000Y-84594000D03*
X73335000Y-83594000D03*
G04 #@! TD*
D13*
G04 #@! TO.C,R5*
X93726000Y-84203000D03*
X93726000Y-83183000D03*
G04 #@! TD*
D14*
G04 #@! TO.C,R1*
X75694000Y-85852000D03*
X74674000Y-85852000D03*
G04 #@! TD*
D15*
G04 #@! TO.C,D1*
X92354500Y-87122000D03*
X90779500Y-87122000D03*
G04 #@! TD*
D16*
G04 #@! TO.C,C3*
X85344000Y-77216000D03*
X85344000Y-78176000D03*
G04 #@! TD*
D17*
G04 #@! TO.C,U1*
X82492000Y-84114000D03*
X82492000Y-84614000D03*
X82492000Y-85114000D03*
X82492000Y-85614000D03*
X82492000Y-86114000D03*
X82492000Y-86614000D03*
X82492000Y-87114000D03*
X82492000Y-87614000D03*
X82492000Y-88114000D03*
X82492000Y-88614000D03*
X82492000Y-89114000D03*
D18*
X83352000Y-89974000D03*
X83852000Y-89974000D03*
X84352000Y-89974000D03*
X84852000Y-89974000D03*
X85352000Y-89974000D03*
X85852000Y-89974000D03*
X86352000Y-89974000D03*
X86852000Y-89974000D03*
X87352000Y-89974000D03*
X87852000Y-89974000D03*
X88352000Y-89974000D03*
D17*
X89212000Y-89114000D03*
X89212000Y-88614000D03*
X89212000Y-88114000D03*
X89212000Y-87614000D03*
X89212000Y-87114000D03*
X89212000Y-86614000D03*
X89212000Y-86114000D03*
X89212000Y-85614000D03*
X89212000Y-85114000D03*
X89212000Y-84614000D03*
X89212000Y-84114000D03*
D18*
X88352000Y-83254000D03*
X87852000Y-83254000D03*
X87352000Y-83254000D03*
X86852000Y-83254000D03*
X86352000Y-83254000D03*
X85852000Y-83254000D03*
X85352000Y-83254000D03*
X84852000Y-83254000D03*
X84352000Y-83254000D03*
X83852000Y-83254000D03*
X83352000Y-83254000D03*
G04 #@! TD*
D19*
G04 #@! TO.C,R9*
X75815000Y-87122000D03*
X76835000Y-87122000D03*
G04 #@! TD*
D20*
G04 #@! TO.C,SW1*
X92011000Y-100239000D03*
X84011000Y-100239000D03*
X84011000Y-104739000D03*
X92011000Y-104739000D03*
G04 #@! TD*
D16*
G04 #@! TO.C,C1*
X83312000Y-77216000D03*
X83312000Y-78176000D03*
G04 #@! TD*
D21*
G04 #@! TO.C,C6*
X84328000Y-81506000D03*
X84328000Y-80546000D03*
G04 #@! TD*
D14*
G04 #@! TO.C,R2*
X75694000Y-84836000D03*
X74674000Y-84836000D03*
G04 #@! TD*
D22*
G04 #@! TO.C,R6*
X93726000Y-85088000D03*
X93726000Y-86108000D03*
G04 #@! TD*
D16*
G04 #@! TO.C,C7*
X85090000Y-91567000D03*
X85090000Y-92527000D03*
G04 #@! TD*
D23*
G04 #@! TO.C,C10*
X91722000Y-85852000D03*
X92682000Y-85852000D03*
G04 #@! TD*
D14*
G04 #@! TO.C,R4*
X93728000Y-88773000D03*
X92708000Y-88773000D03*
G04 #@! TD*
D16*
G04 #@! TO.C,C8*
X88138000Y-92837000D03*
X88138000Y-93797000D03*
G04 #@! TD*
G04 #@! TO.C,C5*
X87376000Y-77216000D03*
X87376000Y-78176000D03*
G04 #@! TD*
G04 #@! TO.C,C2*
X84328000Y-77216000D03*
X84328000Y-78176000D03*
G04 #@! TD*
D24*
G04 #@! TO.C,X1*
X90481000Y-95951000D03*
X88081000Y-95951000D03*
X88081000Y-97851000D03*
X90481000Y-97851000D03*
G04 #@! TD*
D16*
G04 #@! TO.C,C4*
X86360000Y-77216000D03*
X86360000Y-78176000D03*
G04 #@! TD*
D25*
G04 #@! TO.C,R7*
X93091000Y-90170000D03*
X93091000Y-93095000D03*
G04 #@! TD*
D26*
G04 #@! TO.C,C11*
X79982000Y-87122000D03*
X79022000Y-87122000D03*
G04 #@! TD*
D19*
G04 #@! TO.C,R8*
X72134000Y-79121000D03*
X73154000Y-79121000D03*
G04 #@! TD*
D13*
G04 #@! TO.C,R3*
X90678000Y-83822000D03*
X90678000Y-82802000D03*
G04 #@! TD*
D21*
G04 #@! TO.C,C9*
X90678000Y-85725000D03*
X90678000Y-84765000D03*
G04 #@! TD*
M02*
