G04 #@! TF.GenerationSoftware,KiCad,Pcbnew,(6.0.7-1)-1*
G04 #@! TF.CreationDate,2022-09-17T19:41:31-07:00*
G04 #@! TF.ProjectId,3DProUsb,33445072-6f55-4736-922e-6b696361645f,rev?*
G04 #@! TF.SameCoordinates,Original*
G04 #@! TF.FileFunction,Soldermask,Top*
G04 #@! TF.FilePolarity,Negative*
%FSLAX46Y46*%
G04 Gerber Fmt 4.6, Leading zero omitted, Abs format (unit mm)*
G04 Created by KiCad (PCBNEW (6.0.7-1)-1) date 2022-09-17 19:41:31*
%MOMM*%
%LPD*%
G01*
G04 APERTURE LIST*
G04 Aperture macros list*
%AMRoundRect*
0 Rectangle with rounded corners*
0 $1 Rounding radius*
0 $2 $3 $4 $5 $6 $7 $8 $9 X,Y pos of 4 corners*
0 Add a 4 corners polygon primitive as box body*
4,1,4,$2,$3,$4,$5,$6,$7,$8,$9,$2,$3,0*
0 Add four circle primitives for the rounded corners*
1,1,$1+$1,$2,$3*
1,1,$1+$1,$4,$5*
1,1,$1+$1,$6,$7*
1,1,$1+$1,$8,$9*
0 Add four rect primitives between the rounded corners*
20,1,$1+$1,$2,$3,$4,$5,0*
20,1,$1+$1,$4,$5,$6,$7,0*
20,1,$1+$1,$6,$7,$8,$9,0*
20,1,$1+$1,$8,$9,$2,$3,0*%
G04 Aperture macros list end*
%ADD10R,1.508000X1.508000*%
%ADD11C,1.508000*%
%ADD12C,4.066000*%
%ADD13C,3.000000*%
%ADD14R,1.600000X1.400000*%
%ADD15C,6.400000*%
%ADD16C,0.991000*%
%ADD17C,0.787000*%
%ADD18RoundRect,0.140000X0.170000X-0.140000X0.170000X0.140000X-0.170000X0.140000X-0.170000X-0.140000X0*%
%ADD19RoundRect,0.135000X-0.185000X0.135000X-0.185000X-0.135000X0.185000X-0.135000X0.185000X0.135000X0*%
%ADD20RoundRect,0.250000X-0.312500X-0.625000X0.312500X-0.625000X0.312500X0.625000X-0.312500X0.625000X0*%
%ADD21RoundRect,0.140000X-0.140000X-0.170000X0.140000X-0.170000X0.140000X0.170000X-0.140000X0.170000X0*%
%ADD22RoundRect,0.135000X-0.135000X-0.185000X0.135000X-0.185000X0.135000X0.185000X-0.135000X0.185000X0*%
%ADD23RoundRect,0.140000X0.140000X0.170000X-0.140000X0.170000X-0.140000X-0.170000X0.140000X-0.170000X0*%
%ADD24C,0.650000*%
%ADD25R,1.150000X0.600000*%
%ADD26R,1.150000X0.300000*%
%ADD27O,2.100000X1.050000*%
%ADD28O,2.000000X1.000000*%
%ADD29R,1.400000X1.200000*%
%ADD30RoundRect,0.140000X-0.170000X0.140000X-0.170000X-0.140000X0.170000X-0.140000X0.170000X0.140000X0*%
%ADD31RoundRect,0.135000X0.135000X0.185000X-0.135000X0.185000X-0.135000X-0.185000X0.135000X-0.185000X0*%
%ADD32RoundRect,0.218750X0.218750X0.256250X-0.218750X0.256250X-0.218750X-0.256250X0.218750X-0.256250X0*%
%ADD33R,1.010000X0.260000*%
%ADD34R,0.260000X1.010000*%
%ADD35R,5.200000X5.200000*%
G04 APERTURE END LIST*
D10*
G04 #@! TO.C,J3*
X96370000Y-77173000D03*
D11*
X96370000Y-79943000D03*
X96370000Y-82713000D03*
X96370000Y-85483000D03*
X96370000Y-88253000D03*
X96370000Y-91023000D03*
X96370000Y-93793000D03*
X96370000Y-96563000D03*
X99210000Y-78558000D03*
X99210000Y-81328000D03*
X99210000Y-84098000D03*
X99210000Y-86868000D03*
X99210000Y-89638000D03*
X99210000Y-92408000D03*
X99210000Y-95178000D03*
D12*
X97810000Y-103518000D03*
X97810000Y-70218000D03*
G04 #@! TD*
D13*
G04 #@! TO.C,REF\u002A\u002A*
X104648000Y-69850000D03*
G04 #@! TD*
G04 #@! TO.C,REF\u002A\u002A*
X104902000Y-103886000D03*
G04 #@! TD*
G04 #@! TO.C,REF\u002A\u002A*
X69342000Y-77978000D03*
G04 #@! TD*
D14*
G04 #@! TO.C,SW1*
X83376000Y-100366000D03*
X91376000Y-100366000D03*
X83376000Y-104866000D03*
X91376000Y-104866000D03*
G04 #@! TD*
D15*
G04 #@! TO.C,REF\u002A\u002A*
X70104000Y-71628000D03*
G04 #@! TD*
G04 #@! TO.C,REF\u002A\u002A*
X70104000Y-102108000D03*
G04 #@! TD*
D16*
G04 #@! TO.C,J2*
X75946000Y-95250000D03*
X81026000Y-96266000D03*
X81026000Y-94234000D03*
D17*
X77216000Y-95885000D03*
X77216000Y-94615000D03*
X78486000Y-95885000D03*
X78486000Y-94615000D03*
X79756000Y-95885000D03*
X79756000Y-94615000D03*
G04 #@! TD*
D18*
G04 #@! TO.C,C3*
X84582000Y-70810000D03*
X84582000Y-69850000D03*
G04 #@! TD*
D19*
G04 #@! TO.C,R1*
X77216000Y-84580000D03*
X77216000Y-85600000D03*
G04 #@! TD*
D20*
G04 #@! TO.C,R7*
X89723500Y-83820000D03*
X92648500Y-83820000D03*
G04 #@! TD*
D21*
G04 #@! TO.C,C6*
X83114000Y-73406000D03*
X84074000Y-73406000D03*
G04 #@! TD*
D18*
G04 #@! TO.C,C11*
X79502000Y-73632000D03*
X79502000Y-72672000D03*
G04 #@! TD*
G04 #@! TO.C,C1*
X82042000Y-70838000D03*
X82042000Y-69878000D03*
G04 #@! TD*
D22*
G04 #@! TO.C,R5*
X91184000Y-76962000D03*
X92204000Y-76962000D03*
G04 #@! TD*
D21*
G04 #@! TO.C,C9*
X91214000Y-74422000D03*
X92174000Y-74422000D03*
G04 #@! TD*
D22*
G04 #@! TO.C,R9*
X69848000Y-91948000D03*
X70868000Y-91948000D03*
G04 #@! TD*
D19*
G04 #@! TO.C,R2*
X75692000Y-82548000D03*
X75692000Y-83568000D03*
G04 #@! TD*
D22*
G04 #@! TO.C,R6*
X91184000Y-79502000D03*
X92204000Y-79502000D03*
G04 #@! TD*
D23*
G04 #@! TO.C,C8*
X85062000Y-84582000D03*
X84102000Y-84582000D03*
G04 #@! TD*
D24*
G04 #@! TO.C,J1*
X72006000Y-82962000D03*
X72006000Y-88742000D03*
D25*
X73081000Y-82652000D03*
X73081000Y-83452000D03*
D26*
X73081000Y-84602000D03*
X73081000Y-85602000D03*
X73081000Y-86102000D03*
X73081000Y-87102000D03*
D25*
X73081000Y-89052000D03*
X73081000Y-88252000D03*
D26*
X73081000Y-87602000D03*
X73081000Y-86602000D03*
X73081000Y-85102000D03*
X73081000Y-84102000D03*
D27*
X72506000Y-81532000D03*
D28*
X68326000Y-81532000D03*
X68326000Y-90172000D03*
D27*
X72506000Y-90172000D03*
G04 #@! TD*
D29*
G04 #@! TO.C,X1*
X87490000Y-85918000D03*
X85090000Y-85918000D03*
X85090000Y-87818000D03*
X87490000Y-87818000D03*
G04 #@! TD*
D30*
G04 #@! TO.C,C7*
X83312000Y-87178000D03*
X83312000Y-88138000D03*
G04 #@! TD*
D21*
G04 #@! TO.C,C10*
X91214000Y-82042000D03*
X92174000Y-82042000D03*
G04 #@! TD*
D18*
G04 #@! TO.C,C5*
X87122000Y-70810000D03*
X87122000Y-69850000D03*
G04 #@! TD*
D22*
G04 #@! TO.C,R8*
X71880000Y-79756000D03*
X72900000Y-79756000D03*
G04 #@! TD*
D31*
G04 #@! TO.C,R4*
X93474000Y-70104000D03*
X92454000Y-70104000D03*
G04 #@! TD*
D32*
G04 #@! TO.C,D1*
X90957500Y-70104000D03*
X89382500Y-70104000D03*
G04 #@! TD*
D18*
G04 #@! TO.C,C4*
X85852000Y-70810000D03*
X85852000Y-69850000D03*
G04 #@! TD*
G04 #@! TO.C,C2*
X83312000Y-70838000D03*
X83312000Y-69878000D03*
G04 #@! TD*
D22*
G04 #@! TO.C,R3*
X89152000Y-73914000D03*
X90172000Y-73914000D03*
G04 #@! TD*
D33*
G04 #@! TO.C,U1*
X81238000Y-76224000D03*
X81238000Y-76724000D03*
X81238000Y-77224000D03*
X81238000Y-77724000D03*
X81238000Y-78224000D03*
X81238000Y-78724000D03*
X81238000Y-79224000D03*
X81238000Y-79724000D03*
X81238000Y-80224000D03*
X81238000Y-80724000D03*
X81238000Y-81224000D03*
D34*
X82098000Y-82084000D03*
X82598000Y-82084000D03*
X83098000Y-82084000D03*
X83598000Y-82084000D03*
X84098000Y-82084000D03*
X84598000Y-82084000D03*
X85098000Y-82084000D03*
X85598000Y-82084000D03*
X86098000Y-82084000D03*
X86598000Y-82084000D03*
X87098000Y-82084000D03*
D33*
X87958000Y-81224000D03*
X87958000Y-80724000D03*
X87958000Y-80224000D03*
X87958000Y-79724000D03*
X87958000Y-79224000D03*
X87958000Y-78724000D03*
X87958000Y-78224000D03*
X87958000Y-77724000D03*
X87958000Y-77224000D03*
X87958000Y-76724000D03*
X87958000Y-76224000D03*
D34*
X87098000Y-75364000D03*
X86598000Y-75364000D03*
X86098000Y-75364000D03*
X85598000Y-75364000D03*
X85098000Y-75364000D03*
X84598000Y-75364000D03*
X84098000Y-75364000D03*
X83598000Y-75364000D03*
X83098000Y-75364000D03*
X82598000Y-75364000D03*
X82098000Y-75364000D03*
D35*
X84598000Y-78724000D03*
G04 #@! TD*
M02*
